%TF.GenerationSoftware,KiCad,Pcbnew,(5.1.10)-1*%
%TF.CreationDate,2021-10-17T16:41:48+02:00*%
%TF.ProjectId,TVZ_kuglica,54565a5f-6b75-4676-9c69-63612e6b6963,rev?*%
%TF.SameCoordinates,Original*%
%TF.FileFunction,Soldermask,Top*%
%TF.FilePolarity,Negative*%
%FSLAX46Y46*%
G04 Gerber Fmt 4.6, Leading zero omitted, Abs format (unit mm)*
G04 Created by KiCad (PCBNEW (5.1.10)-1) date 2021-10-17 16:41:48*
%MOMM*%
%LPD*%
G01*
G04 APERTURE LIST*
%ADD10C,0.700000*%
%ADD11C,0.010000*%
%ADD12C,0.900000*%
%ADD13R,1.100000X0.750000*%
G04 APERTURE END LIST*
D10*
X109500000Y-120250000D02*
X112000000Y-122750000D01*
X109250000Y-120500000D02*
X109500000Y-120250000D01*
X109500000Y-117750000D02*
X108250000Y-119000000D01*
X162000000Y-122750000D02*
X164500000Y-120250000D01*
X152000000Y-120250000D02*
X149500000Y-117750000D01*
X157000000Y-120250000D02*
X154500000Y-117750000D01*
X165750000Y-119000000D02*
X164500000Y-117750000D01*
X164500000Y-117750000D02*
X162000000Y-120250000D01*
X112000000Y-122750000D02*
X114500000Y-120250000D01*
X144500000Y-120250000D02*
X147000000Y-122750000D01*
X159500000Y-120250000D02*
X162000000Y-122750000D01*
X142000000Y-120250000D02*
X139500000Y-117750000D01*
X142000000Y-122750000D02*
X144500000Y-120250000D01*
X137000000Y-122750000D02*
X139500000Y-120250000D01*
X119500000Y-117750000D02*
X117000000Y-120250000D01*
X134500000Y-117750000D02*
X132000000Y-120250000D01*
X162000000Y-120250000D02*
X159500000Y-117750000D01*
X159500000Y-117750000D02*
X157000000Y-120250000D01*
X117000000Y-122750000D02*
X119500000Y-120250000D01*
X157000000Y-122750000D02*
X159500000Y-120250000D01*
X129500000Y-120250000D02*
X132000000Y-122750000D01*
X154500000Y-120250000D02*
X157000000Y-122750000D01*
X134500000Y-120250000D02*
X137000000Y-122750000D01*
X124500000Y-120250000D02*
X127000000Y-122750000D01*
X132000000Y-122750000D02*
X134500000Y-120250000D01*
X119500000Y-120250000D02*
X122000000Y-122750000D01*
X147000000Y-120250000D02*
X144500000Y-117750000D01*
X154500000Y-117750000D02*
X152000000Y-120250000D01*
X139500000Y-117750000D02*
X137000000Y-120250000D01*
X129500000Y-117750000D02*
X127000000Y-120250000D01*
X152000000Y-122750000D02*
X154500000Y-120250000D01*
X149500000Y-120250000D02*
X152000000Y-122750000D01*
X117000000Y-120250000D02*
X114500000Y-117750000D01*
X114500000Y-117750000D02*
X112000000Y-120250000D01*
X147000000Y-122750000D02*
X149500000Y-120250000D01*
X114500000Y-120250000D02*
X117000000Y-122750000D01*
X127000000Y-120250000D02*
X124500000Y-117750000D01*
X112000000Y-120250000D02*
X109500000Y-117750000D01*
X122000000Y-120250000D02*
X119500000Y-117750000D01*
X137000000Y-120250000D02*
X134500000Y-117750000D01*
X149500000Y-117750000D02*
X147000000Y-120250000D01*
X124500000Y-117750000D02*
X122000000Y-120250000D01*
X144500000Y-117750000D02*
X142000000Y-120250000D01*
X122000000Y-122750000D02*
X124500000Y-120250000D01*
X132000000Y-120250000D02*
X129500000Y-117750000D01*
X139500000Y-120250000D02*
X142000000Y-122750000D01*
X164500000Y-120250000D02*
X164750000Y-120500000D01*
X127000000Y-122750000D02*
X129500000Y-120250000D01*
D11*
%TO.C,G\u002A\u002A\u002A*%
G36*
X151795978Y-75869444D02*
G01*
X151819763Y-75997818D01*
X151820315Y-76022498D01*
X151853273Y-76220916D01*
X151936664Y-76428828D01*
X152050985Y-76606024D01*
X152146728Y-76695521D01*
X152245277Y-76749553D01*
X152301254Y-76760729D01*
X152302179Y-76759953D01*
X152297905Y-76704258D01*
X152263418Y-76583677D01*
X152221745Y-76466155D01*
X152150480Y-76227392D01*
X152139028Y-76049777D01*
X152187031Y-75941599D01*
X152245564Y-75913210D01*
X152313255Y-75916949D01*
X152317943Y-75983210D01*
X152310896Y-76012858D01*
X152302143Y-76179981D01*
X152343302Y-76374584D01*
X152421794Y-76571329D01*
X152525040Y-76744878D01*
X152640462Y-76869892D01*
X152755480Y-76921033D01*
X152761832Y-76921199D01*
X152809788Y-76919910D01*
X152828302Y-76900258D01*
X152816827Y-76838565D01*
X152774816Y-76711154D01*
X152755678Y-76655117D01*
X152707957Y-76464223D01*
X152691599Y-76282559D01*
X152705455Y-76135050D01*
X152748374Y-76046622D01*
X152784400Y-76032200D01*
X152834975Y-76060451D01*
X152847983Y-76158481D01*
X152844254Y-76219832D01*
X152852715Y-76353713D01*
X152889982Y-76515623D01*
X152945189Y-76675361D01*
X153007466Y-76802726D01*
X153065946Y-76867516D01*
X153078356Y-76870400D01*
X153101111Y-76824130D01*
X153115829Y-76703230D01*
X153119312Y-76545805D01*
X153124546Y-76343233D01*
X153151729Y-76210889D01*
X153207297Y-76118595D01*
X153211373Y-76114005D01*
X153315543Y-76022805D01*
X153387225Y-76022554D01*
X153427520Y-76085843D01*
X153414939Y-76178593D01*
X153346157Y-76268947D01*
X153275107Y-76355165D01*
X153254986Y-76456905D01*
X153268877Y-76583604D01*
X153311908Y-76730654D01*
X153385820Y-76886744D01*
X153472926Y-77022541D01*
X153555542Y-77108713D01*
X153594951Y-77124400D01*
X153616607Y-77080117D01*
X153616757Y-76969981D01*
X153612497Y-76931792D01*
X153611712Y-76766595D01*
X153661391Y-76677165D01*
X153747473Y-76643579D01*
X153804490Y-76689906D01*
X153820766Y-76795960D01*
X153796453Y-76910685D01*
X153763333Y-77059497D01*
X153762005Y-77184905D01*
X153778732Y-77257324D01*
X153800510Y-77247567D01*
X153842100Y-77149800D01*
X153916071Y-76979074D01*
X153981093Y-76882959D01*
X154055958Y-76838326D01*
X154103547Y-76827999D01*
X154231867Y-76830607D01*
X154275768Y-76884236D01*
X154234359Y-76982069D01*
X154137584Y-77089122D01*
X154010391Y-77239908D01*
X153955467Y-77375989D01*
X153977935Y-77480229D01*
X154011659Y-77510380D01*
X154112787Y-77549122D01*
X154281990Y-77591805D01*
X154486259Y-77632112D01*
X154692588Y-77663725D01*
X154867969Y-77680329D01*
X154905300Y-77681415D01*
X155041573Y-77688819D01*
X155104198Y-77718741D01*
X155120921Y-77787265D01*
X155121200Y-77806571D01*
X155074338Y-77962775D01*
X154948048Y-78080439D01*
X154871592Y-78113605D01*
X154760118Y-78183462D01*
X154742068Y-78292216D01*
X154817233Y-78439332D01*
X154985401Y-78624272D01*
X155118371Y-78742687D01*
X155278245Y-78906720D01*
X155431100Y-79113651D01*
X155560173Y-79334897D01*
X155648707Y-79541872D01*
X155680000Y-79700506D01*
X155695263Y-79771258D01*
X155749520Y-79833507D01*
X155855471Y-79893162D01*
X156025816Y-79956134D01*
X156273256Y-80028332D01*
X156526947Y-80094598D01*
X157230760Y-80230795D01*
X157972865Y-80296846D01*
X158722253Y-80292285D01*
X159447912Y-80216646D01*
X159827582Y-80144149D01*
X160054639Y-80090315D01*
X160196046Y-80045474D01*
X160265768Y-79998629D01*
X160277767Y-79938779D01*
X160246007Y-79854925D01*
X160231390Y-79826063D01*
X160175805Y-79698467D01*
X160150541Y-79600775D01*
X160150400Y-79596157D01*
X160188679Y-79513289D01*
X160284184Y-79488140D01*
X160407914Y-79524691D01*
X160454677Y-79554381D01*
X160581719Y-79617602D01*
X160759461Y-79670685D01*
X160863851Y-79689945D01*
X161076488Y-79728902D01*
X161314967Y-79786698D01*
X161439717Y-79823149D01*
X161657534Y-79886696D01*
X161812530Y-79912357D01*
X161935808Y-79900991D01*
X162058470Y-79853453D01*
X162083322Y-79840895D01*
X162174281Y-79782901D01*
X162218547Y-79708938D01*
X162232467Y-79583255D01*
X162233200Y-79513085D01*
X162227775Y-79368165D01*
X162205814Y-79238120D01*
X162158780Y-79100447D01*
X162078141Y-78932644D01*
X161955362Y-78712209D01*
X161881187Y-78584899D01*
X161747526Y-78370076D01*
X161647807Y-78242690D01*
X161575292Y-78197077D01*
X161523248Y-78227573D01*
X161503629Y-78267400D01*
X161447372Y-78337942D01*
X161391380Y-78320501D01*
X161369600Y-78237244D01*
X161326045Y-78135828D01*
X161268000Y-78104319D01*
X161178457Y-78060741D01*
X161186390Y-77994517D01*
X161223945Y-77950774D01*
X161270643Y-77861860D01*
X161238293Y-77790304D01*
X161149291Y-77747823D01*
X161026033Y-77746133D01*
X160909586Y-77786305D01*
X160806102Y-77882207D01*
X160714450Y-78030674D01*
X160661966Y-78183860D01*
X160657903Y-78226777D01*
X160634083Y-78341005D01*
X160574447Y-78494232D01*
X160495364Y-78653938D01*
X160413203Y-78787603D01*
X160344334Y-78862705D01*
X160335575Y-78867140D01*
X160239862Y-78859203D01*
X160170975Y-78814118D01*
X160122607Y-78752931D01*
X160136246Y-78699924D01*
X160221792Y-78622706D01*
X160231962Y-78614573D01*
X160325316Y-78522080D01*
X160332485Y-78457162D01*
X160322179Y-78444259D01*
X160260569Y-78433188D01*
X160154261Y-78490283D01*
X160044673Y-78575647D01*
X159910168Y-78681489D01*
X159806414Y-78733122D01*
X159688889Y-78744570D01*
X159544639Y-78733152D01*
X159327602Y-78688053D01*
X159152150Y-78609177D01*
X159032182Y-78508947D01*
X158981593Y-78399787D01*
X159014281Y-78294121D01*
X159031827Y-78274704D01*
X159090845Y-78254559D01*
X159167270Y-78312509D01*
X159201691Y-78352659D01*
X159360439Y-78482609D01*
X159548260Y-78538036D01*
X159689533Y-78522563D01*
X159779907Y-78463789D01*
X159778553Y-78383971D01*
X159689158Y-78296970D01*
X159619233Y-78258234D01*
X159466169Y-78161824D01*
X159406726Y-78057895D01*
X159420829Y-77962600D01*
X159482565Y-77892685D01*
X159562761Y-77907138D01*
X159635681Y-77998848D01*
X159646835Y-78025066D01*
X159705001Y-78139234D01*
X159759878Y-78202088D01*
X159880950Y-78236280D01*
X160041673Y-78234326D01*
X160187356Y-78197785D01*
X160204539Y-78189412D01*
X160291343Y-78112159D01*
X160277155Y-78027888D01*
X160162292Y-77937218D01*
X160044453Y-77879686D01*
X159859204Y-77778854D01*
X159752568Y-77673495D01*
X159740910Y-77649674D01*
X159696119Y-77574499D01*
X159616079Y-77539527D01*
X159468309Y-77530802D01*
X159464262Y-77530800D01*
X159456234Y-77530121D01*
X159921800Y-77530121D01*
X160087701Y-77682860D01*
X160232071Y-77793760D01*
X160365465Y-77831140D01*
X160532197Y-77806721D01*
X160544100Y-77803581D01*
X160640188Y-77749822D01*
X160645008Y-77675154D01*
X160562348Y-77594537D01*
X160480600Y-77552926D01*
X160365316Y-77486616D01*
X160305255Y-77416651D01*
X160302800Y-77403118D01*
X160269727Y-77337564D01*
X160182947Y-77341486D01*
X160061117Y-77413044D01*
X160041727Y-77428860D01*
X159921800Y-77530121D01*
X159456234Y-77530121D01*
X159297392Y-77516688D01*
X159213428Y-77471288D01*
X159202260Y-77451185D01*
X159198668Y-77350087D01*
X159265213Y-77301706D01*
X159377294Y-77322056D01*
X159390437Y-77328690D01*
X159503457Y-77363743D01*
X159644511Y-77346929D01*
X159700691Y-77331357D01*
X159800628Y-77294861D01*
X160525117Y-77294861D01*
X160534104Y-77341728D01*
X160602507Y-77420379D01*
X160720557Y-77478358D01*
X160858060Y-77510710D01*
X160984818Y-77512479D01*
X161070636Y-77478710D01*
X161090200Y-77432984D01*
X161046277Y-77371108D01*
X160937595Y-77302564D01*
X160798782Y-77241708D01*
X160664469Y-77202895D01*
X160569283Y-77200481D01*
X160552428Y-77210051D01*
X160525117Y-77294861D01*
X159800628Y-77294861D01*
X159823543Y-77286493D01*
X159891492Y-77246022D01*
X159896255Y-77236660D01*
X159854710Y-77196372D01*
X159746318Y-77126484D01*
X159605819Y-77048200D01*
X159405798Y-76925223D01*
X159260441Y-76782635D01*
X159147668Y-76616400D01*
X159030837Y-76383046D01*
X158992615Y-76204351D01*
X158993604Y-76184600D01*
X159018916Y-76070167D01*
X159060612Y-76050363D01*
X159111640Y-76120956D01*
X159164949Y-76277715D01*
X159167924Y-76289210D01*
X159265925Y-76521542D01*
X159422662Y-76731259D01*
X159608620Y-76878871D01*
X159608650Y-76878887D01*
X159689504Y-76911874D01*
X159718061Y-76888868D01*
X159693741Y-76800594D01*
X159615960Y-76637777D01*
X159590452Y-76588819D01*
X159486361Y-76355053D01*
X159455231Y-76188876D01*
X159497145Y-76091417D01*
X159553500Y-76067094D01*
X159617194Y-76077938D01*
X159640966Y-76158632D01*
X159642399Y-76207963D01*
X159675408Y-76393089D01*
X159761098Y-76597784D01*
X159879468Y-76786007D01*
X160010515Y-76921720D01*
X160053784Y-76949177D01*
X160163469Y-76998002D01*
X160227536Y-77011765D01*
X160230992Y-77009940D01*
X160224001Y-76956252D01*
X160186314Y-76834517D01*
X160125983Y-76670611D01*
X160123115Y-76663294D01*
X160039984Y-76419325D01*
X160014183Y-76251626D01*
X160045564Y-76152688D01*
X160112300Y-76117894D01*
X160172576Y-76126443D01*
X160197809Y-76198516D01*
X160201200Y-76284498D01*
X160221063Y-76433070D01*
X160272426Y-76593484D01*
X160342952Y-76742810D01*
X160420303Y-76858119D01*
X160492140Y-76916483D01*
X160536505Y-76907627D01*
X160540148Y-76848607D01*
X160522896Y-76724828D01*
X160506004Y-76641819D01*
X160480947Y-76430184D01*
X160499996Y-76247806D01*
X160557275Y-76116639D01*
X160646911Y-76058634D01*
X160662339Y-76057599D01*
X160741198Y-76093075D01*
X160755411Y-76180207D01*
X160702192Y-76290054D01*
X160686511Y-76308603D01*
X160638870Y-76431325D01*
X160658955Y-76596851D01*
X160739154Y-76779822D01*
X160871850Y-76954879D01*
X160884420Y-76967697D01*
X161066552Y-77149800D01*
X161052976Y-76897701D01*
X161050799Y-76743126D01*
X161071206Y-76662443D01*
X161122223Y-76628990D01*
X161134774Y-76626029D01*
X161188047Y-76623913D01*
X161211231Y-76661151D01*
X161209505Y-76760004D01*
X161195228Y-76885947D01*
X161184265Y-77063438D01*
X161198938Y-77171607D01*
X161232132Y-77202008D01*
X161276730Y-77146192D01*
X161316793Y-77030250D01*
X161394049Y-76838037D01*
X161496791Y-76743188D01*
X161621162Y-76742626D01*
X161712265Y-76796249D01*
X161703526Y-76862876D01*
X161627668Y-76919022D01*
X161548042Y-76999958D01*
X161477887Y-77131825D01*
X161468536Y-77157869D01*
X161433991Y-77286442D01*
X161443927Y-77359276D01*
X161490013Y-77405265D01*
X161589489Y-77443134D01*
X161758894Y-77475793D01*
X161966580Y-77500197D01*
X162180898Y-77513299D01*
X162370199Y-77512054D01*
X162475540Y-77500111D01*
X162587376Y-77485118D01*
X162631715Y-77517774D01*
X162639599Y-77620977D01*
X162639600Y-77621122D01*
X162613540Y-77747291D01*
X162522663Y-77867556D01*
X162449100Y-77933461D01*
X162258600Y-78091978D01*
X162535833Y-78332089D01*
X162812935Y-78578053D01*
X163021266Y-78779052D01*
X163173865Y-78950371D01*
X163283770Y-79107294D01*
X163364018Y-79265104D01*
X163392313Y-79336124D01*
X163458041Y-79539915D01*
X163508261Y-79744997D01*
X163526657Y-79860487D01*
X163543892Y-79999437D01*
X163561841Y-80088231D01*
X163567906Y-80101639D01*
X163622976Y-80098165D01*
X163741295Y-80067364D01*
X163821580Y-80041568D01*
X163993416Y-79996504D01*
X164151003Y-79976769D01*
X164198495Y-79978216D01*
X164294482Y-80009238D01*
X164344813Y-80082747D01*
X164349517Y-80210279D01*
X164308625Y-80403367D01*
X164222167Y-80673547D01*
X164200489Y-80734834D01*
X164089288Y-81038063D01*
X164001764Y-81256760D01*
X163931810Y-81403529D01*
X163873320Y-81490977D01*
X163820191Y-81531708D01*
X163813265Y-81534260D01*
X163773839Y-81529297D01*
X163760234Y-81466912D01*
X163769505Y-81328093D01*
X163774485Y-81284011D01*
X163790210Y-81132037D01*
X163788080Y-81066268D01*
X163764652Y-81072339D01*
X163733333Y-81112200D01*
X163642270Y-81237826D01*
X163588958Y-81310953D01*
X163497474Y-81384382D01*
X163415606Y-81369725D01*
X163365092Y-81279769D01*
X163360255Y-81176402D01*
X163404127Y-81032938D01*
X163515491Y-80944877D01*
X163603854Y-80885436D01*
X163686011Y-80804862D01*
X163740613Y-80729099D01*
X163746309Y-80684088D01*
X163733147Y-80680400D01*
X163679747Y-80707773D01*
X163572911Y-80777909D01*
X163491019Y-80835783D01*
X163366773Y-80918721D01*
X163258492Y-80963901D01*
X163128031Y-80980855D01*
X162937247Y-80979118D01*
X162919959Y-80978518D01*
X162695032Y-80982620D01*
X162470598Y-81006054D01*
X162322003Y-81036897D01*
X162199959Y-81069044D01*
X162098190Y-81079489D01*
X161986602Y-81064774D01*
X161835101Y-81021437D01*
X161654190Y-80960112D01*
X161227775Y-80812300D01*
X161014948Y-80953142D01*
X160905367Y-81017979D01*
X160783314Y-81070340D01*
X160626748Y-81116757D01*
X160413629Y-81163763D01*
X160121917Y-81217889D01*
X160121246Y-81218007D01*
X160049961Y-81264132D01*
X159929836Y-81378917D01*
X159772951Y-81549710D01*
X159591387Y-81763861D01*
X159541913Y-81824728D01*
X159319433Y-82096582D01*
X159147293Y-82295938D01*
X159015828Y-82432284D01*
X158915372Y-82515109D01*
X158836259Y-82553899D01*
X158792896Y-82560000D01*
X158743821Y-82516702D01*
X158728000Y-82435390D01*
X158752638Y-82273597D01*
X158815279Y-82138068D01*
X158899011Y-82060080D01*
X158935290Y-82052000D01*
X159010003Y-82015150D01*
X159123819Y-81920079D01*
X159255090Y-81790001D01*
X159382169Y-81648132D01*
X159483408Y-81517687D01*
X159537162Y-81421881D01*
X159540800Y-81402626D01*
X159533517Y-81361673D01*
X159504955Y-81353890D01*
X159445040Y-81386501D01*
X159343701Y-81466732D01*
X159190864Y-81601806D01*
X158976458Y-81798947D01*
X158936448Y-81836100D01*
X158696942Y-82052943D01*
X158518923Y-82199140D01*
X158394884Y-82278621D01*
X158317314Y-82295317D01*
X158278705Y-82253161D01*
X158270800Y-82184627D01*
X158284004Y-82096172D01*
X158332044Y-82005992D01*
X158427554Y-81899718D01*
X158583173Y-81762975D01*
X158778800Y-81606862D01*
X158968520Y-81451853D01*
X159156696Y-81286548D01*
X159304548Y-81145094D01*
X159312200Y-81137162D01*
X159472653Y-80998138D01*
X159676394Y-80859121D01*
X159827926Y-80775961D01*
X160067961Y-80639010D01*
X160224198Y-80489878D01*
X160314204Y-80309489D01*
X160335497Y-80224812D01*
X160350428Y-80125840D01*
X160323218Y-80095004D01*
X160229180Y-80114838D01*
X160194484Y-80125032D01*
X159910941Y-80194267D01*
X159559298Y-80258129D01*
X159173049Y-80312200D01*
X158785690Y-80352061D01*
X158430713Y-80373296D01*
X158294827Y-80375600D01*
X157722106Y-80357320D01*
X157193350Y-80298057D01*
X156656909Y-80191178D01*
X156445526Y-80138075D01*
X156165109Y-80063542D01*
X155968841Y-80013155D01*
X155841886Y-79988152D01*
X155769409Y-79989775D01*
X155736574Y-80019262D01*
X155728546Y-80077853D01*
X155730489Y-80166789D01*
X155730800Y-80197802D01*
X155734652Y-80341725D01*
X155754555Y-80406940D01*
X155803029Y-80416279D01*
X155845100Y-80406236D01*
X156132061Y-80345083D01*
X156346564Y-80341433D01*
X156484586Y-80394571D01*
X156542104Y-80503781D01*
X156543600Y-80530451D01*
X156520722Y-80619236D01*
X156459198Y-80771106D01*
X156369695Y-80965395D01*
X156262879Y-81181434D01*
X156149414Y-81398556D01*
X156039968Y-81596092D01*
X155945206Y-81753374D01*
X155875793Y-81849734D01*
X155852778Y-81869097D01*
X155798931Y-81874356D01*
X155786363Y-81816530D01*
X155796079Y-81735063D01*
X155826717Y-81574034D01*
X155859284Y-81442400D01*
X155873617Y-81376815D01*
X155852488Y-81373180D01*
X155783557Y-81437044D01*
X155718030Y-81505900D01*
X155581653Y-81637548D01*
X155489840Y-81687204D01*
X155430454Y-81657180D01*
X155395546Y-81567353D01*
X155405302Y-81419378D01*
X155498960Y-81294797D01*
X155656872Y-81217768D01*
X155774520Y-81154009D01*
X155832721Y-81086200D01*
X155864349Y-81017100D01*
X155852919Y-80993152D01*
X155785083Y-81016340D01*
X155647491Y-81088653D01*
X155585702Y-81122965D01*
X155450359Y-81195030D01*
X155347759Y-81230513D01*
X155239250Y-81234044D01*
X155086185Y-81210250D01*
X154999202Y-81193200D01*
X154783293Y-81157773D01*
X154620554Y-81153417D01*
X154467536Y-81179784D01*
X154434400Y-81188679D01*
X154318775Y-81216991D01*
X154223401Y-81222087D01*
X154118686Y-81198121D01*
X153975037Y-81139247D01*
X153821801Y-81067645D01*
X153589361Y-80963066D01*
X153418151Y-80905919D01*
X153281065Y-80893439D01*
X153150998Y-80922864D01*
X153013000Y-80985200D01*
X152816239Y-81055499D01*
X152567696Y-81084972D01*
X152468086Y-81086800D01*
X152122456Y-81086800D01*
X151514400Y-81671000D01*
X151261298Y-81909471D01*
X151068133Y-82079989D01*
X150926174Y-82189484D01*
X150826692Y-82244887D01*
X150778571Y-82255200D01*
X150674943Y-82228163D01*
X150650800Y-82176477D01*
X150678810Y-82050407D01*
X150747169Y-81921512D01*
X150832368Y-81826014D01*
X150896440Y-81798000D01*
X150975020Y-81766205D01*
X151101720Y-81684123D01*
X151251248Y-81571707D01*
X151398314Y-81448908D01*
X151517629Y-81335680D01*
X151580424Y-81258377D01*
X151599752Y-81191655D01*
X151547916Y-81186380D01*
X151431906Y-81239080D01*
X151258713Y-81346284D01*
X151035328Y-81504523D01*
X150940078Y-81576286D01*
X150740029Y-81724915D01*
X150563411Y-81848191D01*
X150428553Y-81933858D01*
X150353785Y-81969662D01*
X150351249Y-81969986D01*
X150280864Y-81929885D01*
X150253717Y-81836012D01*
X150255493Y-81755846D01*
X150293915Y-81686993D01*
X150386716Y-81609566D01*
X150548147Y-81505812D01*
X150731300Y-81388256D01*
X150957715Y-81235394D01*
X151189488Y-81073033D01*
X151283636Y-81005062D01*
X151525113Y-80841556D01*
X151746347Y-80715605D01*
X151921723Y-80641573D01*
X151941730Y-80636024D01*
X152160836Y-80547475D01*
X152348930Y-80410745D01*
X152477164Y-80249242D01*
X152506888Y-80177415D01*
X152522373Y-80092272D01*
X152484900Y-80081450D01*
X152447362Y-80095435D01*
X152366842Y-80110051D01*
X152203612Y-80125298D01*
X151976543Y-80139912D01*
X151704508Y-80152630D01*
X151480423Y-80160216D01*
X151093118Y-80167849D01*
X150779640Y-80165306D01*
X150512607Y-80151353D01*
X150264641Y-80124757D01*
X150083970Y-80097327D01*
X149416792Y-79959414D01*
X148809511Y-79780408D01*
X148331701Y-79589487D01*
X147958283Y-79416956D01*
X147990227Y-79705778D01*
X148013304Y-79869803D01*
X148039433Y-79990900D01*
X148056608Y-80032982D01*
X148120535Y-80040277D01*
X148244887Y-80015990D01*
X148326317Y-79991198D01*
X148558682Y-79932868D01*
X148732349Y-79933148D01*
X148837208Y-79990859D01*
X148863056Y-80053700D01*
X148851917Y-80168814D01*
X148799091Y-80374961D01*
X148705014Y-80670716D01*
X148570116Y-81054653D01*
X148507084Y-81226500D01*
X148424219Y-81404667D01*
X148350630Y-81487897D01*
X148295633Y-81482852D01*
X148268544Y-81396193D01*
X148278679Y-81234584D01*
X148311265Y-81086464D01*
X148359330Y-80909000D01*
X148273165Y-81033242D01*
X148149843Y-81202556D01*
X148062027Y-81297806D01*
X147994099Y-81332729D01*
X147940912Y-81325465D01*
X147877203Y-81254506D01*
X147858674Y-81139033D01*
X147888255Y-81026932D01*
X147920300Y-80988464D01*
X148000518Y-80923292D01*
X148115582Y-80829749D01*
X148136200Y-80812983D01*
X148223995Y-80725760D01*
X148254914Y-80661211D01*
X148250299Y-80650654D01*
X148190740Y-80653639D01*
X148100194Y-80714109D01*
X148097899Y-80716184D01*
X147947474Y-80832604D01*
X147790515Y-80900035D01*
X147591874Y-80929833D01*
X147422457Y-80934400D01*
X147201171Y-80947782D01*
X146980474Y-80982391D01*
X146847567Y-81018031D01*
X146726402Y-81057935D01*
X146629873Y-81073591D01*
X146526227Y-81062417D01*
X146383708Y-81021833D01*
X146222616Y-80967231D01*
X145993792Y-80891013D01*
X145835177Y-80849954D01*
X145721840Y-80843551D01*
X145628855Y-80871304D01*
X145531291Y-80932712D01*
X145503910Y-80952784D01*
X145232992Y-81104131D01*
X144942512Y-81181454D01*
X144833470Y-81188400D01*
X144721887Y-81201333D01*
X144613815Y-81247560D01*
X144496469Y-81338215D01*
X144357067Y-81484435D01*
X144182824Y-81697357D01*
X144047862Y-81872798D01*
X143824055Y-82156486D01*
X143631325Y-82377484D01*
X143476338Y-82528891D01*
X143365764Y-82603800D01*
X143335125Y-82610800D01*
X143285970Y-82569156D01*
X143261529Y-82515909D01*
X143260197Y-82359590D01*
X143335946Y-82204374D01*
X143470552Y-82086570D01*
X143479401Y-82081846D01*
X143582401Y-82007934D01*
X143710570Y-81888346D01*
X143842308Y-81747211D01*
X143956014Y-81608658D01*
X144030088Y-81496815D01*
X144046800Y-81448049D01*
X144030673Y-81400043D01*
X143977528Y-81405346D01*
X143880220Y-81468995D01*
X143731601Y-81596029D01*
X143524526Y-81791488D01*
X143433066Y-81880779D01*
X143196762Y-82105694D01*
X143022497Y-82254796D01*
X142907357Y-82330402D01*
X142855981Y-82339573D01*
X142783516Y-82282643D01*
X142786792Y-82192268D01*
X142868794Y-82063193D01*
X143032508Y-81890165D01*
X143195900Y-81741328D01*
X143389310Y-81567486D01*
X143572962Y-81394666D01*
X143721248Y-81247339D01*
X143786096Y-81177348D01*
X143921375Y-81052757D01*
X144108691Y-80918528D01*
X144298701Y-80808456D01*
X144547581Y-80662973D01*
X144712325Y-80513307D01*
X144809491Y-80341744D01*
X144840764Y-80228479D01*
X144870101Y-80081793D01*
X144394950Y-80185336D01*
X144053504Y-80240685D01*
X143641432Y-80277453D01*
X143188027Y-80295470D01*
X142722580Y-80294568D01*
X142274383Y-80274577D01*
X141872729Y-80235330D01*
X141659200Y-80201111D01*
X141321433Y-80123463D01*
X140927801Y-80012911D01*
X140514160Y-79880254D01*
X140119252Y-79737403D01*
X140062989Y-79726930D01*
X140039640Y-79768456D01*
X140040328Y-79883773D01*
X140043052Y-79924418D01*
X140053121Y-80035570D01*
X140076902Y-80103316D01*
X140133784Y-80134237D01*
X140243156Y-80134912D01*
X140424407Y-80111919D01*
X140543597Y-80094264D01*
X140701065Y-80080470D01*
X140795609Y-80102564D01*
X140846125Y-80146669D01*
X140880205Y-80204747D01*
X140884373Y-80280615D01*
X140855661Y-80400395D01*
X140797891Y-80571169D01*
X140702829Y-80824288D01*
X140601110Y-81071606D01*
X140501100Y-81295260D01*
X140411166Y-81477386D01*
X140339674Y-81600119D01*
X140294989Y-81645595D01*
X140294723Y-81645600D01*
X140233122Y-81604329D01*
X140226379Y-81487625D01*
X140267552Y-81328100D01*
X140302310Y-81208936D01*
X140308593Y-81142534D01*
X140303430Y-81137600D01*
X140255322Y-81172626D01*
X140166356Y-81261981D01*
X140106768Y-81328100D01*
X139995458Y-81441824D01*
X139921864Y-81478698D01*
X139881513Y-81461288D01*
X139836418Y-81356027D01*
X139849546Y-81221207D01*
X139911325Y-81102942D01*
X139964682Y-81060593D01*
X140139538Y-80950043D01*
X140227902Y-80837864D01*
X140236800Y-80792324D01*
X140223243Y-80749443D01*
X140170166Y-80776290D01*
X140122500Y-80817596D01*
X139984778Y-80925928D01*
X139841685Y-80992341D01*
X139662377Y-81026035D01*
X139416012Y-81036207D01*
X139389239Y-81036283D01*
X139167759Y-81043481D01*
X138959005Y-81062152D01*
X138805925Y-81088365D01*
X138798604Y-81090325D01*
X138693741Y-81111929D01*
X138587307Y-81111113D01*
X138452567Y-81083567D01*
X138262781Y-81024982D01*
X138145775Y-80985088D01*
X137686541Y-80826091D01*
X137492264Y-80960725D01*
X137313681Y-81055036D01*
X137085057Y-81117044D01*
X136925893Y-81141163D01*
X136794116Y-81158603D01*
X136685621Y-81181034D01*
X136588230Y-81218080D01*
X136489765Y-81279370D01*
X136378049Y-81374528D01*
X136240904Y-81513183D01*
X136066153Y-81704960D01*
X135841619Y-81959486D01*
X135731018Y-82085726D01*
X135523070Y-82306274D01*
X135362614Y-82438403D01*
X135248429Y-82482848D01*
X135179289Y-82440348D01*
X135171376Y-82423112D01*
X135166599Y-82288315D01*
X135226669Y-82143321D01*
X135331162Y-82033171D01*
X135354174Y-82019988D01*
X135455263Y-81951887D01*
X135588179Y-81839499D01*
X135731935Y-81703763D01*
X135865546Y-81565618D01*
X135968028Y-81446003D01*
X136018394Y-81365856D01*
X136020400Y-81355235D01*
X136011872Y-81310128D01*
X135979492Y-81301594D01*
X135913061Y-81336411D01*
X135802381Y-81421356D01*
X135637253Y-81563209D01*
X135433373Y-81745389D01*
X135193464Y-81955615D01*
X135013565Y-82097548D01*
X134883948Y-82176787D01*
X134794888Y-82198927D01*
X134736657Y-82169564D01*
X134724719Y-82153145D01*
X134709603Y-82056620D01*
X134775083Y-81937305D01*
X134925786Y-81789092D01*
X135106803Y-81648525D01*
X135326059Y-81481186D01*
X135567281Y-81285085D01*
X135779223Y-81101914D01*
X135784231Y-81097383D01*
X135987928Y-80929711D01*
X136178833Y-80803084D01*
X136316929Y-80739679D01*
X136491546Y-80660471D01*
X136652679Y-80542173D01*
X136774651Y-80408455D01*
X136831782Y-80282992D01*
X136833200Y-80263742D01*
X136819975Y-80195333D01*
X136760957Y-80179267D01*
X136668100Y-80194474D01*
X136297607Y-80268788D01*
X135987028Y-80320262D01*
X135702461Y-80351875D01*
X135410007Y-80366603D01*
X135075765Y-80367424D01*
X134775800Y-80360661D01*
X134423659Y-80348111D01*
X134113447Y-80330258D01*
X133827948Y-80303919D01*
X133549949Y-80265906D01*
X133262234Y-80213035D01*
X132947589Y-80142120D01*
X132588800Y-80049975D01*
X132168651Y-79933415D01*
X131669929Y-79789254D01*
X131638900Y-79780174D01*
X131584089Y-79778901D01*
X131557631Y-79831939D01*
X131550084Y-79961228D01*
X131550000Y-79986769D01*
X131503931Y-80324376D01*
X131375145Y-80646140D01*
X131177771Y-80929681D01*
X130925937Y-81152619D01*
X130753449Y-81248481D01*
X130624175Y-81315347D01*
X130545327Y-81374798D01*
X130534000Y-81395665D01*
X130560940Y-81490133D01*
X130630929Y-81638252D01*
X130727717Y-81811175D01*
X130835054Y-81980054D01*
X130936689Y-82116040D01*
X130945567Y-82126324D01*
X131036635Y-82222882D01*
X131118308Y-82276585D01*
X131224942Y-82299816D01*
X131390893Y-82304957D01*
X131440962Y-82304884D01*
X131792388Y-82268321D01*
X132071819Y-82161804D01*
X132277927Y-81986257D01*
X132409387Y-81742601D01*
X132444664Y-81606653D01*
X132452437Y-81446827D01*
X132405996Y-81290726D01*
X132295821Y-81120070D01*
X132112389Y-80916584D01*
X132055914Y-80860346D01*
X131898170Y-80697741D01*
X131804838Y-80577432D01*
X131761523Y-80477589D01*
X131753200Y-80401177D01*
X131790611Y-80241012D01*
X131886582Y-80121006D01*
X132016715Y-80070933D01*
X132023900Y-80070799D01*
X132088139Y-80110248D01*
X132109322Y-80196230D01*
X132080209Y-80280200D01*
X132058000Y-80299400D01*
X132014141Y-80350993D01*
X132027133Y-80427216D01*
X132103528Y-80540202D01*
X132249878Y-80702086D01*
X132306984Y-80760564D01*
X132531797Y-81026049D01*
X132661650Y-81278617D01*
X132699490Y-81532491D01*
X132648265Y-81801896D01*
X132564072Y-82001200D01*
X132454678Y-82179226D01*
X132315470Y-82311929D01*
X132114923Y-82427497D01*
X132057086Y-82454491D01*
X132007593Y-82475651D01*
X131954267Y-82493710D01*
X131889090Y-82508917D01*
X131804042Y-82521521D01*
X131691103Y-82531770D01*
X131542254Y-82539913D01*
X131349475Y-82546199D01*
X131104748Y-82550876D01*
X130800053Y-82554193D01*
X130427370Y-82556399D01*
X129978679Y-82557742D01*
X129445963Y-82558471D01*
X128821200Y-82558835D01*
X128690476Y-82558884D01*
X128046321Y-82558991D01*
X127495850Y-82558667D01*
X127031147Y-82557684D01*
X126644296Y-82555816D01*
X126327382Y-82552834D01*
X126072488Y-82548511D01*
X125871699Y-82542620D01*
X125717100Y-82534932D01*
X125600773Y-82525220D01*
X125514804Y-82513258D01*
X125451276Y-82498816D01*
X125402274Y-82481668D01*
X125363076Y-82463234D01*
X125158243Y-82305627D01*
X125034208Y-82089419D01*
X124996799Y-81851139D01*
X125037033Y-81597771D01*
X125148768Y-81392826D01*
X125318553Y-81251731D01*
X125532938Y-81189916D01*
X125574579Y-81188400D01*
X125692716Y-81220435D01*
X125826369Y-81299622D01*
X125942467Y-81400581D01*
X126007940Y-81497931D01*
X126012800Y-81524710D01*
X125976779Y-81607197D01*
X125888346Y-81626720D01*
X125776944Y-81580501D01*
X125740241Y-81550426D01*
X125631628Y-81472930D01*
X125539625Y-81442400D01*
X125410609Y-81488459D01*
X125309381Y-81608253D01*
X125256059Y-81774207D01*
X125252415Y-81836100D01*
X125281897Y-82032664D01*
X125372800Y-82171283D01*
X125534600Y-82258293D01*
X125776774Y-82300034D01*
X125954961Y-82306000D01*
X126143330Y-82303445D01*
X126262426Y-82287813D01*
X126279200Y-82279510D01*
X126673200Y-82279510D01*
X126719127Y-82294097D01*
X126837462Y-82303718D01*
X126949198Y-82306000D01*
X127113718Y-82300561D01*
X127219969Y-82270688D01*
X127230423Y-82262063D01*
X127536800Y-82262063D01*
X127585140Y-82275103D01*
X127720326Y-82287883D01*
X127927603Y-82299627D01*
X128192219Y-82309561D01*
X128499419Y-82316909D01*
X128616300Y-82318755D01*
X128939314Y-82323669D01*
X129228961Y-82329011D01*
X129469468Y-82334413D01*
X129645063Y-82339509D01*
X129739976Y-82343931D01*
X129750833Y-82345165D01*
X129829261Y-82331597D01*
X129838232Y-82324434D01*
X129833599Y-82266220D01*
X129780052Y-82165485D01*
X129767792Y-82147690D01*
X129693674Y-82026462D01*
X129600681Y-81851075D01*
X129514787Y-81672056D01*
X129410499Y-81442054D01*
X129677972Y-81442054D01*
X129724583Y-81577356D01*
X129766924Y-81671000D01*
X129884466Y-81889477D01*
X130018129Y-82083442D01*
X130150838Y-82231700D01*
X130265520Y-82313056D01*
X130290224Y-82320624D01*
X130469959Y-82344522D01*
X130628365Y-82347647D01*
X130734117Y-82330425D01*
X130757483Y-82314278D01*
X130749680Y-82247187D01*
X130696981Y-82153371D01*
X130629865Y-82049496D01*
X130536152Y-81889312D01*
X130435731Y-81706850D01*
X130432400Y-81700592D01*
X130254600Y-81366200D01*
X129962500Y-81349426D01*
X129786379Y-81345436D01*
X129695054Y-81370529D01*
X129677972Y-81442054D01*
X129410499Y-81442054D01*
X129364588Y-81340800D01*
X128052772Y-81340800D01*
X127889710Y-81694568D01*
X127797954Y-81878259D01*
X127707839Y-82033240D01*
X127637406Y-82128764D01*
X127631723Y-82134241D01*
X127559206Y-82214812D01*
X127536800Y-82262063D01*
X127230423Y-82262063D01*
X127310439Y-82196047D01*
X127400273Y-82090100D01*
X127534320Y-81906667D01*
X127653648Y-81711273D01*
X127743282Y-81531594D01*
X127788251Y-81395309D01*
X127790800Y-81368223D01*
X127770014Y-81324195D01*
X127694534Y-81299909D01*
X127544674Y-81290602D01*
X127467650Y-81290000D01*
X127144500Y-81290000D01*
X127033374Y-81582100D01*
X126949301Y-81779114D01*
X126853442Y-81969572D01*
X126797724Y-82063610D01*
X126722475Y-82183489D01*
X126678179Y-82264533D01*
X126673200Y-82279510D01*
X126279200Y-82279510D01*
X126344572Y-82247152D01*
X126422090Y-82169512D01*
X126465943Y-82117059D01*
X126598949Y-81930345D01*
X126717742Y-81719240D01*
X126804259Y-81519279D01*
X126839103Y-81383047D01*
X126832630Y-81319218D01*
X126781461Y-81275345D01*
X126663829Y-81238444D01*
X126558034Y-81215419D01*
X126248574Y-81112576D01*
X125978702Y-80946346D01*
X125773971Y-80733811D01*
X125726928Y-80659773D01*
X125649935Y-80475855D01*
X125573143Y-80198028D01*
X125553165Y-80101133D01*
X129186616Y-80101133D01*
X129192878Y-80308536D01*
X129210716Y-80439185D01*
X129245574Y-80517742D01*
X129287556Y-80558333D01*
X129400533Y-80622268D01*
X129453417Y-80606253D01*
X129445533Y-80515300D01*
X129419195Y-80401723D01*
X129387429Y-80232361D01*
X129367521Y-80110704D01*
X129337891Y-79943480D01*
X129308004Y-79815831D01*
X129290515Y-79767804D01*
X129241009Y-79716427D01*
X129208070Y-79753483D01*
X129190399Y-79883137D01*
X129186616Y-80101133D01*
X125553165Y-80101133D01*
X125496005Y-79823909D01*
X125417975Y-79351111D01*
X125400648Y-79233704D01*
X125395681Y-79205178D01*
X129675069Y-79205178D01*
X129716673Y-79254673D01*
X129771388Y-79272559D01*
X129871303Y-79342566D01*
X129936939Y-79494890D01*
X129970114Y-79735292D01*
X129975200Y-79918332D01*
X129977138Y-80102294D01*
X129988936Y-80208427D01*
X130019564Y-80260503D01*
X130077996Y-80282288D01*
X130114900Y-80288414D01*
X130229979Y-80306571D01*
X130290312Y-80317188D01*
X130325032Y-80278536D01*
X130367408Y-80172925D01*
X130378928Y-80134300D01*
X130429440Y-79775379D01*
X130400018Y-79399085D01*
X130335981Y-79235505D01*
X130212325Y-79154083D01*
X130066095Y-79149519D01*
X129953958Y-79136377D01*
X129869134Y-79103210D01*
X129775040Y-79070357D01*
X129718921Y-79107849D01*
X129715517Y-79113055D01*
X129675069Y-79205178D01*
X125395681Y-79205178D01*
X125353034Y-78960259D01*
X125292744Y-78695100D01*
X125226104Y-78459927D01*
X125159441Y-78276446D01*
X125099082Y-78166358D01*
X125085538Y-78152703D01*
X124988545Y-78100112D01*
X124895200Y-78067089D01*
X124878395Y-78064200D01*
X125098400Y-78064200D01*
X125123800Y-78089600D01*
X125149200Y-78064200D01*
X125123800Y-78038800D01*
X125098400Y-78064200D01*
X124878395Y-78064200D01*
X124821805Y-78054472D01*
X124828178Y-78074393D01*
X124854384Y-78129872D01*
X124806531Y-78223831D01*
X124792502Y-78242821D01*
X124721001Y-78325604D01*
X124669048Y-78332584D01*
X124611629Y-78284391D01*
X124553093Y-78169417D01*
X124525700Y-78013400D01*
X124996800Y-78013400D01*
X125022200Y-78038800D01*
X125047600Y-78013400D01*
X125022200Y-77988000D01*
X124996800Y-78013400D01*
X124525700Y-78013400D01*
X124521522Y-77989609D01*
X124516865Y-77778076D01*
X124529573Y-77657800D01*
X125250800Y-77657800D01*
X125276200Y-77683200D01*
X125301600Y-77657800D01*
X125276200Y-77632400D01*
X125250800Y-77657800D01*
X124529573Y-77657800D01*
X124539069Y-77567925D01*
X124588082Y-77392264D01*
X124613114Y-77342453D01*
X124761194Y-77174007D01*
X124937235Y-77097141D01*
X125126948Y-77111036D01*
X125316044Y-77214873D01*
X125479283Y-77392087D01*
X125563351Y-77520632D01*
X125612830Y-77615816D01*
X125618983Y-77645100D01*
X125643289Y-77682329D01*
X125652873Y-77683200D01*
X125705019Y-77721180D01*
X125794443Y-77820092D01*
X125887552Y-77939587D01*
X126008730Y-78092854D01*
X126082746Y-78159037D01*
X126108511Y-78137836D01*
X126084937Y-78028950D01*
X126072116Y-77990593D01*
X126041821Y-77884429D01*
X126062877Y-77842652D01*
X126139444Y-77835600D01*
X126246012Y-77816404D01*
X126292315Y-77784613D01*
X126360313Y-77754812D01*
X126447713Y-77759213D01*
X126597235Y-77790148D01*
X126711299Y-77813794D01*
X126800997Y-77824382D01*
X126809949Y-77806579D01*
X126792226Y-77795399D01*
X127109130Y-77795399D01*
X127175064Y-77828290D01*
X127276803Y-77835600D01*
X127412042Y-77825313D01*
X127497940Y-77799709D01*
X127507842Y-77790555D01*
X127508485Y-77721866D01*
X127439550Y-77674648D01*
X127332843Y-77663731D01*
X127268513Y-77678974D01*
X127140143Y-77743051D01*
X127109130Y-77795399D01*
X126792226Y-77795399D01*
X126751702Y-77769837D01*
X126639799Y-77723608D01*
X126533500Y-77689724D01*
X126378478Y-77625272D01*
X126333206Y-77561052D01*
X126533509Y-77561052D01*
X126592367Y-77640887D01*
X126657765Y-77674044D01*
X126817736Y-77722057D01*
X126903100Y-77718791D01*
X126927200Y-77667509D01*
X126884168Y-77539339D01*
X126779157Y-77453275D01*
X126670872Y-77437075D01*
X126560204Y-77483605D01*
X126533509Y-77561052D01*
X126333206Y-77561052D01*
X126322283Y-77545558D01*
X126362700Y-77445991D01*
X126397428Y-77407428D01*
X126528616Y-77338519D01*
X126681375Y-77344238D01*
X126826596Y-77411157D01*
X126935174Y-77525845D01*
X126977999Y-77674873D01*
X126978000Y-77675294D01*
X126978000Y-77787841D01*
X127123007Y-77680633D01*
X127275026Y-77602002D01*
X127415216Y-77585577D01*
X127519071Y-77628380D01*
X127562085Y-77727434D01*
X127562200Y-77734000D01*
X127544791Y-77823860D01*
X127473345Y-77870273D01*
X127384400Y-77889029D01*
X127206600Y-77917058D01*
X127422500Y-77956994D01*
X127573419Y-78000142D01*
X127635354Y-78060467D01*
X127638400Y-78081845D01*
X127677934Y-78172670D01*
X127743945Y-78232674D01*
X127813190Y-78285097D01*
X127816081Y-78340461D01*
X127763024Y-78430555D01*
X127707804Y-78519932D01*
X127711417Y-78544099D01*
X127771778Y-78523497D01*
X127895888Y-78477656D01*
X127950209Y-78460399D01*
X128011646Y-78399339D01*
X128047721Y-78329932D01*
X129620293Y-78329932D01*
X129668937Y-78512105D01*
X129811011Y-78668246D01*
X129905335Y-78730998D01*
X130032817Y-78816852D01*
X130113217Y-78892429D01*
X130127600Y-78922467D01*
X130164649Y-79013940D01*
X130245192Y-79089052D01*
X130296704Y-79105600D01*
X130318609Y-79059904D01*
X130319196Y-78939252D01*
X130310050Y-78850508D01*
X130300351Y-78637362D01*
X130319349Y-78554020D01*
X130784558Y-78554020D01*
X130833563Y-78741552D01*
X130965430Y-78954730D01*
X131138279Y-79147557D01*
X131288989Y-79302110D01*
X131419183Y-79447207D01*
X131504195Y-79555140D01*
X131512368Y-79567781D01*
X131567948Y-79633641D01*
X131658777Y-79692494D01*
X131803417Y-79752938D01*
X132020430Y-79823572D01*
X132143013Y-79859915D01*
X132813161Y-80039612D01*
X133436567Y-80175772D01*
X133994067Y-80264265D01*
X134049490Y-80270792D01*
X134311577Y-80290558D01*
X134636599Y-80300130D01*
X134996499Y-80300140D01*
X135363219Y-80291224D01*
X135708702Y-80274015D01*
X136004890Y-80249148D01*
X136198200Y-80222230D01*
X136517217Y-80158154D01*
X136737809Y-80101976D01*
X136858940Y-80053994D01*
X136884000Y-80025272D01*
X136836629Y-80005756D01*
X136708012Y-79984257D01*
X136518394Y-79963518D01*
X136312500Y-79947784D01*
X135409849Y-79840993D01*
X134509905Y-79635690D01*
X133621398Y-79334784D01*
X132753057Y-78941185D01*
X131992807Y-78508088D01*
X131781036Y-78376407D01*
X131640194Y-78294388D01*
X131555970Y-78256402D01*
X131514055Y-78256822D01*
X131500139Y-78290020D01*
X131499200Y-78313944D01*
X131471378Y-78504127D01*
X131398670Y-78674988D01*
X131297208Y-78799692D01*
X131183125Y-78851404D01*
X131175968Y-78851600D01*
X131096814Y-78806256D01*
X131030641Y-78691922D01*
X130993994Y-78541148D01*
X130991200Y-78488138D01*
X130974179Y-78349547D01*
X130927122Y-78303982D01*
X130856031Y-78354514D01*
X130822520Y-78401830D01*
X130784558Y-78554020D01*
X130319349Y-78554020D01*
X130342927Y-78450590D01*
X130373668Y-78375098D01*
X130463937Y-78224477D01*
X130590093Y-78077157D01*
X130726185Y-77958100D01*
X130846264Y-77892269D01*
X130881695Y-77886400D01*
X130937592Y-77861719D01*
X130908729Y-77791479D01*
X130798067Y-77681384D01*
X130758269Y-77648544D01*
X130576139Y-77502434D01*
X130186769Y-77696115D01*
X130003344Y-77792279D01*
X129854383Y-77879490D01*
X129764449Y-77943041D01*
X129751728Y-77956579D01*
X129740918Y-78056931D01*
X129788518Y-78188659D01*
X129870979Y-78353956D01*
X129745289Y-78322410D01*
X129652266Y-78311948D01*
X129620293Y-78329932D01*
X128047721Y-78329932D01*
X128083604Y-78260897D01*
X128142241Y-78104830D01*
X128251063Y-77773333D01*
X128085360Y-77557483D01*
X127977174Y-77428771D01*
X127886267Y-77364740D01*
X127775834Y-77344060D01*
X127715529Y-77343165D01*
X127445153Y-77332021D01*
X127210181Y-77297483D01*
X127031398Y-77244227D01*
X126929590Y-77176925D01*
X126921539Y-77164623D01*
X126899103Y-77050305D01*
X126948498Y-76967779D01*
X127041966Y-76928729D01*
X127151749Y-76944836D01*
X127249317Y-77026676D01*
X127360270Y-77116904D01*
X127494314Y-77112982D01*
X127643566Y-77017525D01*
X127790285Y-76847236D01*
X127992642Y-76580759D01*
X128166789Y-76396640D01*
X128324784Y-76283958D01*
X128467513Y-76233752D01*
X128743362Y-76218250D01*
X128983728Y-76289058D01*
X129209394Y-76453015D01*
X129247597Y-76490447D01*
X129369664Y-76622095D01*
X129429986Y-76717004D01*
X129443223Y-76805402D01*
X129433511Y-76873744D01*
X129425061Y-77003429D01*
X129472519Y-77074889D01*
X129484968Y-77082533D01*
X129550680Y-77158875D01*
X129566060Y-77256915D01*
X129526795Y-77330335D01*
X129508860Y-77339113D01*
X129473013Y-77390556D01*
X129496960Y-77472394D01*
X129565210Y-77546800D01*
X129601854Y-77566166D01*
X129694484Y-77560026D01*
X129853380Y-77505124D01*
X130047660Y-77414089D01*
X130294068Y-77304245D01*
X130477161Y-77259652D01*
X130592443Y-77280600D01*
X130635416Y-77367384D01*
X130635600Y-77375822D01*
X130676276Y-77461072D01*
X130783316Y-77575713D01*
X130934241Y-77699850D01*
X131106569Y-77813589D01*
X131169119Y-77847953D01*
X131311383Y-77940282D01*
X131423119Y-78039338D01*
X131516072Y-78117236D01*
X131681411Y-78231202D01*
X131901265Y-78370659D01*
X132157761Y-78525028D01*
X132433027Y-78683733D01*
X132709190Y-78836196D01*
X132968379Y-78971839D01*
X133142507Y-79056934D01*
X133483365Y-79203610D01*
X133884408Y-79355502D01*
X134310270Y-79500718D01*
X134725587Y-79627366D01*
X135094994Y-79723558D01*
X135182200Y-79742749D01*
X135408396Y-79780935D01*
X135693652Y-79815995D01*
X135995439Y-79843190D01*
X136186916Y-79854706D01*
X136785232Y-79881663D01*
X136730942Y-79738871D01*
X136699718Y-79614521D01*
X136702532Y-79528639D01*
X136770031Y-79469293D01*
X136877365Y-79473830D01*
X136988136Y-79538965D01*
X137004772Y-79555918D01*
X137118895Y-79626031D01*
X137298703Y-79674234D01*
X137345809Y-79680876D01*
X137523784Y-79713504D01*
X137749060Y-79770530D01*
X137974117Y-79839868D01*
X137982867Y-79842874D01*
X138188769Y-79909510D01*
X138330859Y-79941104D01*
X138439081Y-79941762D01*
X138534641Y-79918518D01*
X138693523Y-79820354D01*
X138775118Y-79656261D01*
X138779411Y-79426273D01*
X138759961Y-79317963D01*
X138710344Y-79163443D01*
X138625127Y-78959993D01*
X138518837Y-78736690D01*
X138406002Y-78522610D01*
X138301148Y-78346826D01*
X138222367Y-78242000D01*
X138158262Y-78193497D01*
X138112077Y-78230655D01*
X138097799Y-78254699D01*
X138027082Y-78333879D01*
X137971046Y-78323071D01*
X137950800Y-78237244D01*
X137907245Y-78135828D01*
X137849200Y-78104319D01*
X137760061Y-78059325D01*
X137768917Y-77992634D01*
X137824426Y-77936680D01*
X137872875Y-77865708D01*
X137843606Y-77803459D01*
X137734298Y-77735918D01*
X137604370Y-77752398D01*
X137468819Y-77841767D01*
X137342640Y-77992893D01*
X137240829Y-78194644D01*
X137215307Y-78269865D01*
X137121066Y-78525678D01*
X137015171Y-78715863D01*
X136906217Y-78827362D01*
X136832352Y-78851600D01*
X136726337Y-78819569D01*
X136694483Y-78740711D01*
X136739953Y-78640880D01*
X136799818Y-78585853D01*
X136884043Y-78506576D01*
X136908584Y-78444986D01*
X136906663Y-78440772D01*
X136862466Y-78401033D01*
X136794970Y-78413525D01*
X136684079Y-78485299D01*
X136604600Y-78546800D01*
X136381970Y-78663302D01*
X136132928Y-78696093D01*
X135884683Y-78647756D01*
X135664448Y-78520876D01*
X135591995Y-78450629D01*
X135527362Y-78366652D01*
X135531706Y-78309021D01*
X135579503Y-78254725D01*
X135638388Y-78207430D01*
X135692362Y-78214405D01*
X135770926Y-78285413D01*
X135814544Y-78332506D01*
X135980915Y-78458829D01*
X136158496Y-78498252D01*
X136323180Y-78447523D01*
X136367062Y-78401979D01*
X136340671Y-78340372D01*
X136303780Y-78297198D01*
X136200032Y-78207928D01*
X136119993Y-78165163D01*
X136021571Y-78093486D01*
X135992035Y-77986607D01*
X136025743Y-77905361D01*
X136104769Y-77842550D01*
X136173438Y-77869664D01*
X136243178Y-77991876D01*
X136249440Y-78006619D01*
X136358258Y-78151336D01*
X136518216Y-78219019D01*
X136705908Y-78201665D01*
X136759256Y-78180928D01*
X136857397Y-78106864D01*
X136855616Y-78021074D01*
X136754689Y-77925369D01*
X136617933Y-77849849D01*
X136440305Y-77742813D01*
X136353387Y-77630445D01*
X136346332Y-77608081D01*
X136312350Y-77526315D01*
X136268178Y-77502341D01*
X136539275Y-77502341D01*
X136597343Y-77587367D01*
X136667580Y-77655744D01*
X136794892Y-77737656D01*
X136943976Y-77783868D01*
X137086597Y-77792779D01*
X137194519Y-77762789D01*
X137239507Y-77692297D01*
X137239600Y-77688169D01*
X137191083Y-77595072D01*
X137082727Y-77536852D01*
X136964095Y-77467877D01*
X136898644Y-77378101D01*
X136898459Y-77377406D01*
X136877283Y-77329816D01*
X137151914Y-77329816D01*
X137237435Y-77430919D01*
X137397908Y-77499787D01*
X137582500Y-77525736D01*
X137675714Y-77501599D01*
X137696800Y-77455455D01*
X137654748Y-77392830D01*
X137546301Y-77310509D01*
X137441740Y-77250862D01*
X137295067Y-77180282D01*
X137212979Y-77155556D01*
X137171392Y-77172935D01*
X137154255Y-77206112D01*
X137151914Y-77329816D01*
X136877283Y-77329816D01*
X136864409Y-77300885D01*
X136839431Y-77289052D01*
X136775375Y-77321552D01*
X136668100Y-77375484D01*
X136562846Y-77439782D01*
X136539275Y-77502341D01*
X136268178Y-77502341D01*
X136243898Y-77489164D01*
X136108682Y-77480020D01*
X136097313Y-77479999D01*
X135930248Y-77459583D01*
X135817802Y-77406584D01*
X135776351Y-77333381D01*
X135810460Y-77263219D01*
X135881448Y-77229818D01*
X135975952Y-77268978D01*
X136083087Y-77302536D01*
X136221962Y-77306967D01*
X136357063Y-77286711D01*
X136452874Y-77246209D01*
X136477600Y-77206257D01*
X136435586Y-77150271D01*
X136328462Y-77075969D01*
X136250229Y-77034180D01*
X136066190Y-76910209D01*
X135896960Y-76735276D01*
X135756706Y-76532700D01*
X135659595Y-76325800D01*
X135619793Y-76137895D01*
X135636129Y-76023313D01*
X135668957Y-75959214D01*
X135707605Y-75980475D01*
X135738305Y-76020562D01*
X135789761Y-76129219D01*
X135831321Y-76281192D01*
X135836525Y-76310457D01*
X135912937Y-76517955D01*
X136053840Y-76690395D01*
X136201716Y-76819458D01*
X136296156Y-76870601D01*
X136333073Y-76844479D01*
X136308383Y-76741746D01*
X136268658Y-76655946D01*
X136151316Y-76395832D01*
X136101884Y-76207532D01*
X136119622Y-76087960D01*
X136129258Y-76074254D01*
X136210890Y-76010999D01*
X136262302Y-76043009D01*
X136274400Y-76123050D01*
X136302737Y-76332143D01*
X136378163Y-76544332D01*
X136486292Y-76735996D01*
X136612743Y-76883510D01*
X136743132Y-76963253D01*
X136790608Y-76970870D01*
X136829255Y-76960715D01*
X136838719Y-76916425D01*
X136816532Y-76819368D01*
X136760230Y-76650910D01*
X136741153Y-76597187D01*
X136674691Y-76400902D01*
X136643942Y-76274880D01*
X136645509Y-76195613D01*
X136675200Y-76140546D01*
X136753780Y-76083075D01*
X136808365Y-76120090D01*
X136832563Y-76246015D01*
X136833200Y-76278434D01*
X136855766Y-76418969D01*
X136913244Y-76585443D01*
X136990300Y-76745196D01*
X137071600Y-76865571D01*
X137130658Y-76911981D01*
X137172537Y-76905746D01*
X137172822Y-76834665D01*
X137156790Y-76762119D01*
X137118040Y-76507961D01*
X137131863Y-76288857D01*
X137196165Y-76130062D01*
X137210669Y-76112300D01*
X137292945Y-76045612D01*
X137347989Y-76036395D01*
X137390203Y-76112319D01*
X137369358Y-76214372D01*
X137312997Y-76281967D01*
X137265902Y-76339296D01*
X137259991Y-76432566D01*
X137282460Y-76555437D01*
X137333661Y-76704576D01*
X137414763Y-76863636D01*
X137507926Y-77004712D01*
X137595314Y-77099903D01*
X137646191Y-77124400D01*
X137666850Y-77079202D01*
X137669751Y-76963512D01*
X137661930Y-76870400D01*
X137647671Y-76720278D01*
X137656958Y-76645020D01*
X137698217Y-76619017D01*
X137745511Y-76616400D01*
X137807575Y-76622585D01*
X137837609Y-76656854D01*
X137841666Y-76742771D01*
X137825801Y-76903903D01*
X137823800Y-76921200D01*
X137813936Y-77093829D01*
X137826704Y-77201007D01*
X137855218Y-77233416D01*
X137892596Y-77181739D01*
X137927017Y-77060899D01*
X137990406Y-76880783D01*
X138081671Y-76765326D01*
X138185573Y-76725533D01*
X138286874Y-76772411D01*
X138302601Y-76789623D01*
X138330630Y-76858705D01*
X138272379Y-76924796D01*
X138266083Y-76929323D01*
X138140474Y-77056745D01*
X138070866Y-77205445D01*
X138062756Y-77348094D01*
X138121642Y-77457366D01*
X138155166Y-77480624D01*
X138249732Y-77505868D01*
X138417062Y-77527461D01*
X138628318Y-77542180D01*
X138739347Y-77545911D01*
X138962575Y-77551641D01*
X139103238Y-77560875D01*
X139180353Y-77579045D01*
X139212937Y-77611582D01*
X139220007Y-77663919D01*
X139220003Y-77683200D01*
X139204684Y-77806959D01*
X139144901Y-77899325D01*
X139017202Y-77995167D01*
X139004900Y-78003044D01*
X138932748Y-78048870D01*
X138887242Y-78088286D01*
X138875633Y-78132761D01*
X138905177Y-78193760D01*
X138983126Y-78282752D01*
X139116733Y-78411203D01*
X139313253Y-78590579D01*
X139461398Y-78724717D01*
X139740102Y-79044961D01*
X139881487Y-79291924D01*
X139954890Y-79436439D01*
X140030811Y-79547960D01*
X140126018Y-79637024D01*
X140257280Y-79714168D01*
X140441365Y-79789927D01*
X140695040Y-79874838D01*
X140919948Y-79944432D01*
X141579078Y-80106980D01*
X142273858Y-80207988D01*
X142979032Y-80246626D01*
X143669344Y-80222068D01*
X144319537Y-80133483D01*
X144618556Y-80065743D01*
X144809312Y-80015945D01*
X144732856Y-79868095D01*
X144663149Y-79689424D01*
X144667024Y-79569902D01*
X144743753Y-79515032D01*
X144779771Y-79511999D01*
X144905578Y-79539711D01*
X144973237Y-79582094D01*
X145061140Y-79627775D01*
X145210653Y-79669041D01*
X145319765Y-79687485D01*
X145515315Y-79720168D01*
X145753906Y-79770775D01*
X145965785Y-79823606D01*
X146267127Y-79880739D01*
X146495193Y-79868138D01*
X146649434Y-79786258D01*
X146729302Y-79635555D01*
X146734250Y-79416485D01*
X146692030Y-79219857D01*
X146642738Y-79095181D01*
X146558195Y-78925556D01*
X146452017Y-78733803D01*
X146337816Y-78542743D01*
X146229206Y-78375198D01*
X146139800Y-78253989D01*
X146085211Y-78202608D01*
X146006244Y-78217537D01*
X145968387Y-78259551D01*
X145898468Y-78336425D01*
X145843990Y-78317066D01*
X145824800Y-78222035D01*
X145799531Y-78118001D01*
X145756707Y-78074340D01*
X145709797Y-78004229D01*
X145711673Y-77891105D01*
X145718511Y-77782094D01*
X145676519Y-77740348D01*
X145581828Y-77733999D01*
X145445776Y-77765051D01*
X145311776Y-77869562D01*
X145271262Y-77913567D01*
X145176578Y-78039065D01*
X145120478Y-78147553D01*
X145113851Y-78180267D01*
X145095411Y-78302529D01*
X145048485Y-78452279D01*
X144986507Y-78597869D01*
X144922915Y-78707652D01*
X144871966Y-78750000D01*
X144827558Y-78777449D01*
X144834200Y-78800800D01*
X144819235Y-78841318D01*
X144765231Y-78851600D01*
X144666871Y-78822543D01*
X144649229Y-78746410D01*
X144713814Y-78639755D01*
X144743186Y-78610075D01*
X144826139Y-78505218D01*
X144829685Y-78438826D01*
X144764099Y-78428489D01*
X144664395Y-78475161D01*
X144534115Y-78570423D01*
X144438521Y-78655721D01*
X144312028Y-78728929D01*
X144138495Y-78756497D01*
X143943658Y-78744118D01*
X143753253Y-78697483D01*
X143593016Y-78622286D01*
X143488683Y-78524217D01*
X143462600Y-78439865D01*
X143494462Y-78338673D01*
X143565855Y-78297609D01*
X143640487Y-78325084D01*
X143675470Y-78390537D01*
X143750937Y-78491255D01*
X143902687Y-78540227D01*
X144074844Y-78538066D01*
X144199158Y-78502503D01*
X144227198Y-78438371D01*
X144159242Y-78348716D01*
X144050121Y-78269497D01*
X143900940Y-78154698D01*
X143847700Y-78055861D01*
X143887360Y-77966030D01*
X143908803Y-77946326D01*
X144001028Y-77918921D01*
X144087137Y-77989580D01*
X144143964Y-78103333D01*
X144191021Y-78191841D01*
X144265597Y-78232034D01*
X144403167Y-78241970D01*
X144416382Y-78241999D01*
X144614148Y-78220487D01*
X144727365Y-78164212D01*
X144752015Y-78085568D01*
X144684082Y-77996948D01*
X144523285Y-77912164D01*
X144317049Y-77799248D01*
X144205785Y-77673965D01*
X144149146Y-77595851D01*
X144417583Y-77595851D01*
X144506358Y-77693797D01*
X144567500Y-77734556D01*
X144789729Y-77825503D01*
X144996711Y-77817050D01*
X145033245Y-77804764D01*
X145106210Y-77742319D01*
X145093512Y-77662196D01*
X145001687Y-77589401D01*
X144973900Y-77577733D01*
X144839849Y-77501566D01*
X144753061Y-77420334D01*
X144690633Y-77351556D01*
X144631991Y-77347979D01*
X144537161Y-77403385D01*
X144428109Y-77501871D01*
X144417583Y-77595851D01*
X144149146Y-77595851D01*
X144131878Y-77572037D01*
X144045575Y-77544735D01*
X143979141Y-77553063D01*
X143828009Y-77553986D01*
X143705049Y-77506848D01*
X143642742Y-77425846D01*
X143640400Y-77405010D01*
X143674902Y-77315998D01*
X143763806Y-77302233D01*
X143833448Y-77333049D01*
X143942076Y-77362482D01*
X144088846Y-77360691D01*
X144229701Y-77332822D01*
X144279222Y-77306228D01*
X144969025Y-77306228D01*
X145019115Y-77399853D01*
X145131014Y-77474301D01*
X145169207Y-77487555D01*
X145329833Y-77514817D01*
X145462300Y-77504121D01*
X145537696Y-77459660D01*
X145545400Y-77432984D01*
X145501036Y-77366647D01*
X145391087Y-77297592D01*
X145250263Y-77239322D01*
X145113274Y-77205340D01*
X145014833Y-77209146D01*
X144997735Y-77219944D01*
X144969025Y-77306228D01*
X144279222Y-77306228D01*
X144320583Y-77284017D01*
X144327051Y-77275421D01*
X144301113Y-77230498D01*
X144203762Y-77161831D01*
X144077935Y-77095111D01*
X143861769Y-76956554D01*
X143668247Y-76767312D01*
X143518086Y-76553710D01*
X143432007Y-76342069D01*
X143419896Y-76259089D01*
X143433464Y-76130797D01*
X143476566Y-76074384D01*
X143529097Y-76098784D01*
X143567048Y-76193691D01*
X143600284Y-76335099D01*
X143624927Y-76431515D01*
X143676594Y-76531256D01*
X143772380Y-76657077D01*
X143887296Y-76781977D01*
X143996353Y-76878955D01*
X144074563Y-76921010D01*
X144078111Y-76921200D01*
X144127083Y-76915689D01*
X144141251Y-76885882D01*
X144116908Y-76811863D01*
X144050351Y-76673716D01*
X144021400Y-76616400D01*
X143935223Y-76413801D01*
X143897937Y-76251079D01*
X143911123Y-76144061D01*
X143970600Y-76108400D01*
X144033608Y-76150340D01*
X144046800Y-76203861D01*
X144076437Y-76354616D01*
X144152747Y-76539299D01*
X144256829Y-76723817D01*
X144369781Y-76874076D01*
X144460740Y-76950499D01*
X144576113Y-76999809D01*
X144652428Y-77014089D01*
X144655779Y-77013185D01*
X144660017Y-76962517D01*
X144628589Y-76845670D01*
X144573255Y-76700181D01*
X144496652Y-76480321D01*
X144466669Y-76302335D01*
X144483813Y-76181730D01*
X144548587Y-76134010D01*
X144554800Y-76133800D01*
X144614010Y-76177175D01*
X144637974Y-76311087D01*
X144637995Y-76311600D01*
X144694684Y-76597474D01*
X144825363Y-76832300D01*
X144907763Y-76904952D01*
X144974036Y-76918489D01*
X144997126Y-76872909D01*
X144985884Y-76832300D01*
X144933706Y-76646845D01*
X144918423Y-76452098D01*
X144936668Y-76273120D01*
X144985073Y-76134971D01*
X145060270Y-76062714D01*
X145089987Y-76057600D01*
X145149067Y-76096397D01*
X145161241Y-76184494D01*
X145123252Y-76279444D01*
X145108311Y-76296568D01*
X145071990Y-76397037D01*
X145085351Y-76550086D01*
X145140408Y-76724643D01*
X145229177Y-76889640D01*
X145276421Y-76950708D01*
X145376747Y-77055051D01*
X145453139Y-77117002D01*
X145472069Y-77124400D01*
X145490992Y-77079131D01*
X145492892Y-76963043D01*
X145484513Y-76865193D01*
X145470085Y-76713856D01*
X145477822Y-76639970D01*
X145514016Y-76620634D01*
X145550407Y-76625366D01*
X145604916Y-76649470D01*
X145630898Y-76710139D01*
X145634826Y-76832600D01*
X145629932Y-76935372D01*
X145628748Y-77120023D01*
X145649845Y-77208128D01*
X145689239Y-77198359D01*
X145742948Y-77089386D01*
X145777743Y-76984699D01*
X145831385Y-76835159D01*
X145889853Y-76758934D01*
X145975245Y-76729219D01*
X145989900Y-76727325D01*
X146099853Y-76737525D01*
X146124903Y-76799059D01*
X146063967Y-76905843D01*
X146028781Y-76945768D01*
X145944163Y-77076380D01*
X145896368Y-77211057D01*
X145891772Y-77321168D01*
X145936916Y-77399621D01*
X146043668Y-77451231D01*
X146223897Y-77480812D01*
X146489472Y-77493180D01*
X146594583Y-77494290D01*
X147094800Y-77496674D01*
X147094800Y-77638949D01*
X147058114Y-77775830D01*
X146997161Y-77833480D01*
X146845387Y-77933152D01*
X146778081Y-78031763D01*
X146797512Y-78138975D01*
X146905951Y-78264450D01*
X147105669Y-78417851D01*
X147139996Y-78441394D01*
X147466001Y-78699833D01*
X147698650Y-78971084D01*
X147794359Y-79138401D01*
X147853891Y-79229657D01*
X147950871Y-79313670D01*
X148105422Y-79404733D01*
X148308873Y-79503835D01*
X148975949Y-79764697D01*
X149698315Y-79958108D01*
X150450870Y-80078745D01*
X151208510Y-80121283D01*
X151220224Y-80121300D01*
X151442651Y-80116554D01*
X151692609Y-80103511D01*
X151947813Y-80084291D01*
X152185976Y-80061018D01*
X152384812Y-80035813D01*
X152522036Y-80010799D01*
X152572245Y-79992552D01*
X152562610Y-79943351D01*
X152517413Y-79841079D01*
X152508745Y-79824043D01*
X152452073Y-79676060D01*
X152428800Y-79539922D01*
X152449454Y-79441357D01*
X152528676Y-79410847D01*
X152547926Y-79410400D01*
X152674278Y-79446972D01*
X152754255Y-79506757D01*
X152855566Y-79577176D01*
X153009307Y-79642316D01*
X153079628Y-79662995D01*
X153252828Y-79715817D01*
X153468123Y-79794129D01*
X153656514Y-79871438D01*
X153932433Y-79975537D01*
X154145104Y-80014959D01*
X154308417Y-79991158D01*
X154387590Y-79947793D01*
X154441950Y-79889892D01*
X154471762Y-79798983D01*
X154483145Y-79648396D01*
X154483755Y-79528693D01*
X154475261Y-79338201D01*
X154446589Y-79170872D01*
X154388428Y-78990324D01*
X154291465Y-78760174D01*
X154281199Y-78737300D01*
X154169652Y-78505328D01*
X154082511Y-78361759D01*
X154014138Y-78297941D01*
X153991544Y-78292800D01*
X153915780Y-78316606D01*
X153902000Y-78343600D01*
X153860622Y-78388114D01*
X153822376Y-78394400D01*
X153766629Y-78364569D01*
X153774018Y-78295893D01*
X153766606Y-78197257D01*
X153697026Y-78139450D01*
X153622935Y-78088264D01*
X153634219Y-78034074D01*
X153669185Y-77992657D01*
X153732660Y-77901548D01*
X153749600Y-77849735D01*
X153705401Y-77786725D01*
X153599201Y-77742832D01*
X153520742Y-77734000D01*
X153406748Y-77776801D01*
X153278326Y-77888058D01*
X153159172Y-78042050D01*
X153072982Y-78213058D01*
X153069042Y-78224278D01*
X152976451Y-78440920D01*
X152866378Y-78615605D01*
X152751129Y-78737614D01*
X152643010Y-78796228D01*
X152554327Y-78780730D01*
X152507670Y-78713240D01*
X152518434Y-78621184D01*
X152590521Y-78535324D01*
X152689576Y-78496037D01*
X152692509Y-78496000D01*
X152729002Y-78454717D01*
X152733600Y-78419800D01*
X152705814Y-78353963D01*
X152619525Y-78361365D01*
X152470336Y-78442810D01*
X152419205Y-78477248D01*
X152270322Y-78563864D01*
X152131707Y-78592544D01*
X151993580Y-78584661D01*
X151812696Y-78537933D01*
X151636107Y-78449384D01*
X151490348Y-78337563D01*
X151401953Y-78221020D01*
X151387400Y-78160894D01*
X151420248Y-78072164D01*
X151495935Y-78050206D01*
X151580177Y-78095654D01*
X151621042Y-78156580D01*
X151719651Y-78282384D01*
X151861755Y-78363993D01*
X152014021Y-78390623D01*
X152143114Y-78351489D01*
X152165386Y-78332693D01*
X152185255Y-78281261D01*
X152145098Y-78207952D01*
X152034470Y-78095048D01*
X152014393Y-78076561D01*
X151896259Y-77963628D01*
X151844779Y-77893054D01*
X151848905Y-77841734D01*
X151882707Y-77801120D01*
X151987228Y-77745221D01*
X152076691Y-77780552D01*
X152129664Y-77896947D01*
X152133036Y-77919882D01*
X152171755Y-78031563D01*
X152274221Y-78095453D01*
X152311075Y-78107049D01*
X152481802Y-78131908D01*
X152625788Y-78111319D01*
X152715840Y-78052205D01*
X152732664Y-77999732D01*
X152691584Y-77924825D01*
X152586203Y-77826466D01*
X152491364Y-77759400D01*
X152329668Y-77636111D01*
X152243689Y-77523532D01*
X152234766Y-77492700D01*
X152209498Y-77433597D01*
X152439444Y-77433597D01*
X152492426Y-77516453D01*
X152568500Y-77591157D01*
X152749302Y-77729104D01*
X152910254Y-77779761D01*
X153059645Y-77753964D01*
X153132709Y-77691885D01*
X153116661Y-77608639D01*
X153016478Y-77521395D01*
X152987600Y-77505400D01*
X152883711Y-77432265D01*
X152835601Y-77360128D01*
X152835200Y-77354693D01*
X152801980Y-77266161D01*
X152730639Y-77257291D01*
X153046997Y-77257291D01*
X153102859Y-77360324D01*
X153229632Y-77458534D01*
X153246586Y-77467735D01*
X153372800Y-77509464D01*
X153497971Y-77515547D01*
X153585410Y-77487330D01*
X153604489Y-77454600D01*
X153566941Y-77402073D01*
X153465875Y-77320591D01*
X153370678Y-77257572D01*
X153218618Y-77173570D01*
X153124593Y-77148429D01*
X153074009Y-77170070D01*
X153046997Y-77257291D01*
X152730639Y-77257291D01*
X152705238Y-77254133D01*
X152582691Y-77301428D01*
X152469112Y-77370503D01*
X152439444Y-77433597D01*
X152209498Y-77433597D01*
X152198712Y-77408371D01*
X152103894Y-77379423D01*
X152066327Y-77378400D01*
X151896878Y-77355071D01*
X151771666Y-77294301D01*
X151717989Y-77209913D01*
X151717600Y-77201810D01*
X151750182Y-77113695D01*
X151838957Y-77102629D01*
X151940564Y-77150778D01*
X152096835Y-77207311D01*
X152246799Y-77198036D01*
X152365574Y-77167129D01*
X152426624Y-77134386D01*
X152428800Y-77128525D01*
X152390649Y-77082140D01*
X152292371Y-77000022D01*
X152200007Y-76931890D01*
X151986780Y-76748024D01*
X151827017Y-76524775D01*
X151700381Y-76232913D01*
X151687632Y-76195460D01*
X151642190Y-76034776D01*
X151638927Y-75935961D01*
X151667862Y-75878519D01*
X151742803Y-75827277D01*
X151795978Y-75869444D01*
G37*
X151795978Y-75869444D02*
X151819763Y-75997818D01*
X151820315Y-76022498D01*
X151853273Y-76220916D01*
X151936664Y-76428828D01*
X152050985Y-76606024D01*
X152146728Y-76695521D01*
X152245277Y-76749553D01*
X152301254Y-76760729D01*
X152302179Y-76759953D01*
X152297905Y-76704258D01*
X152263418Y-76583677D01*
X152221745Y-76466155D01*
X152150480Y-76227392D01*
X152139028Y-76049777D01*
X152187031Y-75941599D01*
X152245564Y-75913210D01*
X152313255Y-75916949D01*
X152317943Y-75983210D01*
X152310896Y-76012858D01*
X152302143Y-76179981D01*
X152343302Y-76374584D01*
X152421794Y-76571329D01*
X152525040Y-76744878D01*
X152640462Y-76869892D01*
X152755480Y-76921033D01*
X152761832Y-76921199D01*
X152809788Y-76919910D01*
X152828302Y-76900258D01*
X152816827Y-76838565D01*
X152774816Y-76711154D01*
X152755678Y-76655117D01*
X152707957Y-76464223D01*
X152691599Y-76282559D01*
X152705455Y-76135050D01*
X152748374Y-76046622D01*
X152784400Y-76032200D01*
X152834975Y-76060451D01*
X152847983Y-76158481D01*
X152844254Y-76219832D01*
X152852715Y-76353713D01*
X152889982Y-76515623D01*
X152945189Y-76675361D01*
X153007466Y-76802726D01*
X153065946Y-76867516D01*
X153078356Y-76870400D01*
X153101111Y-76824130D01*
X153115829Y-76703230D01*
X153119312Y-76545805D01*
X153124546Y-76343233D01*
X153151729Y-76210889D01*
X153207297Y-76118595D01*
X153211373Y-76114005D01*
X153315543Y-76022805D01*
X153387225Y-76022554D01*
X153427520Y-76085843D01*
X153414939Y-76178593D01*
X153346157Y-76268947D01*
X153275107Y-76355165D01*
X153254986Y-76456905D01*
X153268877Y-76583604D01*
X153311908Y-76730654D01*
X153385820Y-76886744D01*
X153472926Y-77022541D01*
X153555542Y-77108713D01*
X153594951Y-77124400D01*
X153616607Y-77080117D01*
X153616757Y-76969981D01*
X153612497Y-76931792D01*
X153611712Y-76766595D01*
X153661391Y-76677165D01*
X153747473Y-76643579D01*
X153804490Y-76689906D01*
X153820766Y-76795960D01*
X153796453Y-76910685D01*
X153763333Y-77059497D01*
X153762005Y-77184905D01*
X153778732Y-77257324D01*
X153800510Y-77247567D01*
X153842100Y-77149800D01*
X153916071Y-76979074D01*
X153981093Y-76882959D01*
X154055958Y-76838326D01*
X154103547Y-76827999D01*
X154231867Y-76830607D01*
X154275768Y-76884236D01*
X154234359Y-76982069D01*
X154137584Y-77089122D01*
X154010391Y-77239908D01*
X153955467Y-77375989D01*
X153977935Y-77480229D01*
X154011659Y-77510380D01*
X154112787Y-77549122D01*
X154281990Y-77591805D01*
X154486259Y-77632112D01*
X154692588Y-77663725D01*
X154867969Y-77680329D01*
X154905300Y-77681415D01*
X155041573Y-77688819D01*
X155104198Y-77718741D01*
X155120921Y-77787265D01*
X155121200Y-77806571D01*
X155074338Y-77962775D01*
X154948048Y-78080439D01*
X154871592Y-78113605D01*
X154760118Y-78183462D01*
X154742068Y-78292216D01*
X154817233Y-78439332D01*
X154985401Y-78624272D01*
X155118371Y-78742687D01*
X155278245Y-78906720D01*
X155431100Y-79113651D01*
X155560173Y-79334897D01*
X155648707Y-79541872D01*
X155680000Y-79700506D01*
X155695263Y-79771258D01*
X155749520Y-79833507D01*
X155855471Y-79893162D01*
X156025816Y-79956134D01*
X156273256Y-80028332D01*
X156526947Y-80094598D01*
X157230760Y-80230795D01*
X157972865Y-80296846D01*
X158722253Y-80292285D01*
X159447912Y-80216646D01*
X159827582Y-80144149D01*
X160054639Y-80090315D01*
X160196046Y-80045474D01*
X160265768Y-79998629D01*
X160277767Y-79938779D01*
X160246007Y-79854925D01*
X160231390Y-79826063D01*
X160175805Y-79698467D01*
X160150541Y-79600775D01*
X160150400Y-79596157D01*
X160188679Y-79513289D01*
X160284184Y-79488140D01*
X160407914Y-79524691D01*
X160454677Y-79554381D01*
X160581719Y-79617602D01*
X160759461Y-79670685D01*
X160863851Y-79689945D01*
X161076488Y-79728902D01*
X161314967Y-79786698D01*
X161439717Y-79823149D01*
X161657534Y-79886696D01*
X161812530Y-79912357D01*
X161935808Y-79900991D01*
X162058470Y-79853453D01*
X162083322Y-79840895D01*
X162174281Y-79782901D01*
X162218547Y-79708938D01*
X162232467Y-79583255D01*
X162233200Y-79513085D01*
X162227775Y-79368165D01*
X162205814Y-79238120D01*
X162158780Y-79100447D01*
X162078141Y-78932644D01*
X161955362Y-78712209D01*
X161881187Y-78584899D01*
X161747526Y-78370076D01*
X161647807Y-78242690D01*
X161575292Y-78197077D01*
X161523248Y-78227573D01*
X161503629Y-78267400D01*
X161447372Y-78337942D01*
X161391380Y-78320501D01*
X161369600Y-78237244D01*
X161326045Y-78135828D01*
X161268000Y-78104319D01*
X161178457Y-78060741D01*
X161186390Y-77994517D01*
X161223945Y-77950774D01*
X161270643Y-77861860D01*
X161238293Y-77790304D01*
X161149291Y-77747823D01*
X161026033Y-77746133D01*
X160909586Y-77786305D01*
X160806102Y-77882207D01*
X160714450Y-78030674D01*
X160661966Y-78183860D01*
X160657903Y-78226777D01*
X160634083Y-78341005D01*
X160574447Y-78494232D01*
X160495364Y-78653938D01*
X160413203Y-78787603D01*
X160344334Y-78862705D01*
X160335575Y-78867140D01*
X160239862Y-78859203D01*
X160170975Y-78814118D01*
X160122607Y-78752931D01*
X160136246Y-78699924D01*
X160221792Y-78622706D01*
X160231962Y-78614573D01*
X160325316Y-78522080D01*
X160332485Y-78457162D01*
X160322179Y-78444259D01*
X160260569Y-78433188D01*
X160154261Y-78490283D01*
X160044673Y-78575647D01*
X159910168Y-78681489D01*
X159806414Y-78733122D01*
X159688889Y-78744570D01*
X159544639Y-78733152D01*
X159327602Y-78688053D01*
X159152150Y-78609177D01*
X159032182Y-78508947D01*
X158981593Y-78399787D01*
X159014281Y-78294121D01*
X159031827Y-78274704D01*
X159090845Y-78254559D01*
X159167270Y-78312509D01*
X159201691Y-78352659D01*
X159360439Y-78482609D01*
X159548260Y-78538036D01*
X159689533Y-78522563D01*
X159779907Y-78463789D01*
X159778553Y-78383971D01*
X159689158Y-78296970D01*
X159619233Y-78258234D01*
X159466169Y-78161824D01*
X159406726Y-78057895D01*
X159420829Y-77962600D01*
X159482565Y-77892685D01*
X159562761Y-77907138D01*
X159635681Y-77998848D01*
X159646835Y-78025066D01*
X159705001Y-78139234D01*
X159759878Y-78202088D01*
X159880950Y-78236280D01*
X160041673Y-78234326D01*
X160187356Y-78197785D01*
X160204539Y-78189412D01*
X160291343Y-78112159D01*
X160277155Y-78027888D01*
X160162292Y-77937218D01*
X160044453Y-77879686D01*
X159859204Y-77778854D01*
X159752568Y-77673495D01*
X159740910Y-77649674D01*
X159696119Y-77574499D01*
X159616079Y-77539527D01*
X159468309Y-77530802D01*
X159464262Y-77530800D01*
X159456234Y-77530121D01*
X159921800Y-77530121D01*
X160087701Y-77682860D01*
X160232071Y-77793760D01*
X160365465Y-77831140D01*
X160532197Y-77806721D01*
X160544100Y-77803581D01*
X160640188Y-77749822D01*
X160645008Y-77675154D01*
X160562348Y-77594537D01*
X160480600Y-77552926D01*
X160365316Y-77486616D01*
X160305255Y-77416651D01*
X160302800Y-77403118D01*
X160269727Y-77337564D01*
X160182947Y-77341486D01*
X160061117Y-77413044D01*
X160041727Y-77428860D01*
X159921800Y-77530121D01*
X159456234Y-77530121D01*
X159297392Y-77516688D01*
X159213428Y-77471288D01*
X159202260Y-77451185D01*
X159198668Y-77350087D01*
X159265213Y-77301706D01*
X159377294Y-77322056D01*
X159390437Y-77328690D01*
X159503457Y-77363743D01*
X159644511Y-77346929D01*
X159700691Y-77331357D01*
X159800628Y-77294861D01*
X160525117Y-77294861D01*
X160534104Y-77341728D01*
X160602507Y-77420379D01*
X160720557Y-77478358D01*
X160858060Y-77510710D01*
X160984818Y-77512479D01*
X161070636Y-77478710D01*
X161090200Y-77432984D01*
X161046277Y-77371108D01*
X160937595Y-77302564D01*
X160798782Y-77241708D01*
X160664469Y-77202895D01*
X160569283Y-77200481D01*
X160552428Y-77210051D01*
X160525117Y-77294861D01*
X159800628Y-77294861D01*
X159823543Y-77286493D01*
X159891492Y-77246022D01*
X159896255Y-77236660D01*
X159854710Y-77196372D01*
X159746318Y-77126484D01*
X159605819Y-77048200D01*
X159405798Y-76925223D01*
X159260441Y-76782635D01*
X159147668Y-76616400D01*
X159030837Y-76383046D01*
X158992615Y-76204351D01*
X158993604Y-76184600D01*
X159018916Y-76070167D01*
X159060612Y-76050363D01*
X159111640Y-76120956D01*
X159164949Y-76277715D01*
X159167924Y-76289210D01*
X159265925Y-76521542D01*
X159422662Y-76731259D01*
X159608620Y-76878871D01*
X159608650Y-76878887D01*
X159689504Y-76911874D01*
X159718061Y-76888868D01*
X159693741Y-76800594D01*
X159615960Y-76637777D01*
X159590452Y-76588819D01*
X159486361Y-76355053D01*
X159455231Y-76188876D01*
X159497145Y-76091417D01*
X159553500Y-76067094D01*
X159617194Y-76077938D01*
X159640966Y-76158632D01*
X159642399Y-76207963D01*
X159675408Y-76393089D01*
X159761098Y-76597784D01*
X159879468Y-76786007D01*
X160010515Y-76921720D01*
X160053784Y-76949177D01*
X160163469Y-76998002D01*
X160227536Y-77011765D01*
X160230992Y-77009940D01*
X160224001Y-76956252D01*
X160186314Y-76834517D01*
X160125983Y-76670611D01*
X160123115Y-76663294D01*
X160039984Y-76419325D01*
X160014183Y-76251626D01*
X160045564Y-76152688D01*
X160112300Y-76117894D01*
X160172576Y-76126443D01*
X160197809Y-76198516D01*
X160201200Y-76284498D01*
X160221063Y-76433070D01*
X160272426Y-76593484D01*
X160342952Y-76742810D01*
X160420303Y-76858119D01*
X160492140Y-76916483D01*
X160536505Y-76907627D01*
X160540148Y-76848607D01*
X160522896Y-76724828D01*
X160506004Y-76641819D01*
X160480947Y-76430184D01*
X160499996Y-76247806D01*
X160557275Y-76116639D01*
X160646911Y-76058634D01*
X160662339Y-76057599D01*
X160741198Y-76093075D01*
X160755411Y-76180207D01*
X160702192Y-76290054D01*
X160686511Y-76308603D01*
X160638870Y-76431325D01*
X160658955Y-76596851D01*
X160739154Y-76779822D01*
X160871850Y-76954879D01*
X160884420Y-76967697D01*
X161066552Y-77149800D01*
X161052976Y-76897701D01*
X161050799Y-76743126D01*
X161071206Y-76662443D01*
X161122223Y-76628990D01*
X161134774Y-76626029D01*
X161188047Y-76623913D01*
X161211231Y-76661151D01*
X161209505Y-76760004D01*
X161195228Y-76885947D01*
X161184265Y-77063438D01*
X161198938Y-77171607D01*
X161232132Y-77202008D01*
X161276730Y-77146192D01*
X161316793Y-77030250D01*
X161394049Y-76838037D01*
X161496791Y-76743188D01*
X161621162Y-76742626D01*
X161712265Y-76796249D01*
X161703526Y-76862876D01*
X161627668Y-76919022D01*
X161548042Y-76999958D01*
X161477887Y-77131825D01*
X161468536Y-77157869D01*
X161433991Y-77286442D01*
X161443927Y-77359276D01*
X161490013Y-77405265D01*
X161589489Y-77443134D01*
X161758894Y-77475793D01*
X161966580Y-77500197D01*
X162180898Y-77513299D01*
X162370199Y-77512054D01*
X162475540Y-77500111D01*
X162587376Y-77485118D01*
X162631715Y-77517774D01*
X162639599Y-77620977D01*
X162639600Y-77621122D01*
X162613540Y-77747291D01*
X162522663Y-77867556D01*
X162449100Y-77933461D01*
X162258600Y-78091978D01*
X162535833Y-78332089D01*
X162812935Y-78578053D01*
X163021266Y-78779052D01*
X163173865Y-78950371D01*
X163283770Y-79107294D01*
X163364018Y-79265104D01*
X163392313Y-79336124D01*
X163458041Y-79539915D01*
X163508261Y-79744997D01*
X163526657Y-79860487D01*
X163543892Y-79999437D01*
X163561841Y-80088231D01*
X163567906Y-80101639D01*
X163622976Y-80098165D01*
X163741295Y-80067364D01*
X163821580Y-80041568D01*
X163993416Y-79996504D01*
X164151003Y-79976769D01*
X164198495Y-79978216D01*
X164294482Y-80009238D01*
X164344813Y-80082747D01*
X164349517Y-80210279D01*
X164308625Y-80403367D01*
X164222167Y-80673547D01*
X164200489Y-80734834D01*
X164089288Y-81038063D01*
X164001764Y-81256760D01*
X163931810Y-81403529D01*
X163873320Y-81490977D01*
X163820191Y-81531708D01*
X163813265Y-81534260D01*
X163773839Y-81529297D01*
X163760234Y-81466912D01*
X163769505Y-81328093D01*
X163774485Y-81284011D01*
X163790210Y-81132037D01*
X163788080Y-81066268D01*
X163764652Y-81072339D01*
X163733333Y-81112200D01*
X163642270Y-81237826D01*
X163588958Y-81310953D01*
X163497474Y-81384382D01*
X163415606Y-81369725D01*
X163365092Y-81279769D01*
X163360255Y-81176402D01*
X163404127Y-81032938D01*
X163515491Y-80944877D01*
X163603854Y-80885436D01*
X163686011Y-80804862D01*
X163740613Y-80729099D01*
X163746309Y-80684088D01*
X163733147Y-80680400D01*
X163679747Y-80707773D01*
X163572911Y-80777909D01*
X163491019Y-80835783D01*
X163366773Y-80918721D01*
X163258492Y-80963901D01*
X163128031Y-80980855D01*
X162937247Y-80979118D01*
X162919959Y-80978518D01*
X162695032Y-80982620D01*
X162470598Y-81006054D01*
X162322003Y-81036897D01*
X162199959Y-81069044D01*
X162098190Y-81079489D01*
X161986602Y-81064774D01*
X161835101Y-81021437D01*
X161654190Y-80960112D01*
X161227775Y-80812300D01*
X161014948Y-80953142D01*
X160905367Y-81017979D01*
X160783314Y-81070340D01*
X160626748Y-81116757D01*
X160413629Y-81163763D01*
X160121917Y-81217889D01*
X160121246Y-81218007D01*
X160049961Y-81264132D01*
X159929836Y-81378917D01*
X159772951Y-81549710D01*
X159591387Y-81763861D01*
X159541913Y-81824728D01*
X159319433Y-82096582D01*
X159147293Y-82295938D01*
X159015828Y-82432284D01*
X158915372Y-82515109D01*
X158836259Y-82553899D01*
X158792896Y-82560000D01*
X158743821Y-82516702D01*
X158728000Y-82435390D01*
X158752638Y-82273597D01*
X158815279Y-82138068D01*
X158899011Y-82060080D01*
X158935290Y-82052000D01*
X159010003Y-82015150D01*
X159123819Y-81920079D01*
X159255090Y-81790001D01*
X159382169Y-81648132D01*
X159483408Y-81517687D01*
X159537162Y-81421881D01*
X159540800Y-81402626D01*
X159533517Y-81361673D01*
X159504955Y-81353890D01*
X159445040Y-81386501D01*
X159343701Y-81466732D01*
X159190864Y-81601806D01*
X158976458Y-81798947D01*
X158936448Y-81836100D01*
X158696942Y-82052943D01*
X158518923Y-82199140D01*
X158394884Y-82278621D01*
X158317314Y-82295317D01*
X158278705Y-82253161D01*
X158270800Y-82184627D01*
X158284004Y-82096172D01*
X158332044Y-82005992D01*
X158427554Y-81899718D01*
X158583173Y-81762975D01*
X158778800Y-81606862D01*
X158968520Y-81451853D01*
X159156696Y-81286548D01*
X159304548Y-81145094D01*
X159312200Y-81137162D01*
X159472653Y-80998138D01*
X159676394Y-80859121D01*
X159827926Y-80775961D01*
X160067961Y-80639010D01*
X160224198Y-80489878D01*
X160314204Y-80309489D01*
X160335497Y-80224812D01*
X160350428Y-80125840D01*
X160323218Y-80095004D01*
X160229180Y-80114838D01*
X160194484Y-80125032D01*
X159910941Y-80194267D01*
X159559298Y-80258129D01*
X159173049Y-80312200D01*
X158785690Y-80352061D01*
X158430713Y-80373296D01*
X158294827Y-80375600D01*
X157722106Y-80357320D01*
X157193350Y-80298057D01*
X156656909Y-80191178D01*
X156445526Y-80138075D01*
X156165109Y-80063542D01*
X155968841Y-80013155D01*
X155841886Y-79988152D01*
X155769409Y-79989775D01*
X155736574Y-80019262D01*
X155728546Y-80077853D01*
X155730489Y-80166789D01*
X155730800Y-80197802D01*
X155734652Y-80341725D01*
X155754555Y-80406940D01*
X155803029Y-80416279D01*
X155845100Y-80406236D01*
X156132061Y-80345083D01*
X156346564Y-80341433D01*
X156484586Y-80394571D01*
X156542104Y-80503781D01*
X156543600Y-80530451D01*
X156520722Y-80619236D01*
X156459198Y-80771106D01*
X156369695Y-80965395D01*
X156262879Y-81181434D01*
X156149414Y-81398556D01*
X156039968Y-81596092D01*
X155945206Y-81753374D01*
X155875793Y-81849734D01*
X155852778Y-81869097D01*
X155798931Y-81874356D01*
X155786363Y-81816530D01*
X155796079Y-81735063D01*
X155826717Y-81574034D01*
X155859284Y-81442400D01*
X155873617Y-81376815D01*
X155852488Y-81373180D01*
X155783557Y-81437044D01*
X155718030Y-81505900D01*
X155581653Y-81637548D01*
X155489840Y-81687204D01*
X155430454Y-81657180D01*
X155395546Y-81567353D01*
X155405302Y-81419378D01*
X155498960Y-81294797D01*
X155656872Y-81217768D01*
X155774520Y-81154009D01*
X155832721Y-81086200D01*
X155864349Y-81017100D01*
X155852919Y-80993152D01*
X155785083Y-81016340D01*
X155647491Y-81088653D01*
X155585702Y-81122965D01*
X155450359Y-81195030D01*
X155347759Y-81230513D01*
X155239250Y-81234044D01*
X155086185Y-81210250D01*
X154999202Y-81193200D01*
X154783293Y-81157773D01*
X154620554Y-81153417D01*
X154467536Y-81179784D01*
X154434400Y-81188679D01*
X154318775Y-81216991D01*
X154223401Y-81222087D01*
X154118686Y-81198121D01*
X153975037Y-81139247D01*
X153821801Y-81067645D01*
X153589361Y-80963066D01*
X153418151Y-80905919D01*
X153281065Y-80893439D01*
X153150998Y-80922864D01*
X153013000Y-80985200D01*
X152816239Y-81055499D01*
X152567696Y-81084972D01*
X152468086Y-81086800D01*
X152122456Y-81086800D01*
X151514400Y-81671000D01*
X151261298Y-81909471D01*
X151068133Y-82079989D01*
X150926174Y-82189484D01*
X150826692Y-82244887D01*
X150778571Y-82255200D01*
X150674943Y-82228163D01*
X150650800Y-82176477D01*
X150678810Y-82050407D01*
X150747169Y-81921512D01*
X150832368Y-81826014D01*
X150896440Y-81798000D01*
X150975020Y-81766205D01*
X151101720Y-81684123D01*
X151251248Y-81571707D01*
X151398314Y-81448908D01*
X151517629Y-81335680D01*
X151580424Y-81258377D01*
X151599752Y-81191655D01*
X151547916Y-81186380D01*
X151431906Y-81239080D01*
X151258713Y-81346284D01*
X151035328Y-81504523D01*
X150940078Y-81576286D01*
X150740029Y-81724915D01*
X150563411Y-81848191D01*
X150428553Y-81933858D01*
X150353785Y-81969662D01*
X150351249Y-81969986D01*
X150280864Y-81929885D01*
X150253717Y-81836012D01*
X150255493Y-81755846D01*
X150293915Y-81686993D01*
X150386716Y-81609566D01*
X150548147Y-81505812D01*
X150731300Y-81388256D01*
X150957715Y-81235394D01*
X151189488Y-81073033D01*
X151283636Y-81005062D01*
X151525113Y-80841556D01*
X151746347Y-80715605D01*
X151921723Y-80641573D01*
X151941730Y-80636024D01*
X152160836Y-80547475D01*
X152348930Y-80410745D01*
X152477164Y-80249242D01*
X152506888Y-80177415D01*
X152522373Y-80092272D01*
X152484900Y-80081450D01*
X152447362Y-80095435D01*
X152366842Y-80110051D01*
X152203612Y-80125298D01*
X151976543Y-80139912D01*
X151704508Y-80152630D01*
X151480423Y-80160216D01*
X151093118Y-80167849D01*
X150779640Y-80165306D01*
X150512607Y-80151353D01*
X150264641Y-80124757D01*
X150083970Y-80097327D01*
X149416792Y-79959414D01*
X148809511Y-79780408D01*
X148331701Y-79589487D01*
X147958283Y-79416956D01*
X147990227Y-79705778D01*
X148013304Y-79869803D01*
X148039433Y-79990900D01*
X148056608Y-80032982D01*
X148120535Y-80040277D01*
X148244887Y-80015990D01*
X148326317Y-79991198D01*
X148558682Y-79932868D01*
X148732349Y-79933148D01*
X148837208Y-79990859D01*
X148863056Y-80053700D01*
X148851917Y-80168814D01*
X148799091Y-80374961D01*
X148705014Y-80670716D01*
X148570116Y-81054653D01*
X148507084Y-81226500D01*
X148424219Y-81404667D01*
X148350630Y-81487897D01*
X148295633Y-81482852D01*
X148268544Y-81396193D01*
X148278679Y-81234584D01*
X148311265Y-81086464D01*
X148359330Y-80909000D01*
X148273165Y-81033242D01*
X148149843Y-81202556D01*
X148062027Y-81297806D01*
X147994099Y-81332729D01*
X147940912Y-81325465D01*
X147877203Y-81254506D01*
X147858674Y-81139033D01*
X147888255Y-81026932D01*
X147920300Y-80988464D01*
X148000518Y-80923292D01*
X148115582Y-80829749D01*
X148136200Y-80812983D01*
X148223995Y-80725760D01*
X148254914Y-80661211D01*
X148250299Y-80650654D01*
X148190740Y-80653639D01*
X148100194Y-80714109D01*
X148097899Y-80716184D01*
X147947474Y-80832604D01*
X147790515Y-80900035D01*
X147591874Y-80929833D01*
X147422457Y-80934400D01*
X147201171Y-80947782D01*
X146980474Y-80982391D01*
X146847567Y-81018031D01*
X146726402Y-81057935D01*
X146629873Y-81073591D01*
X146526227Y-81062417D01*
X146383708Y-81021833D01*
X146222616Y-80967231D01*
X145993792Y-80891013D01*
X145835177Y-80849954D01*
X145721840Y-80843551D01*
X145628855Y-80871304D01*
X145531291Y-80932712D01*
X145503910Y-80952784D01*
X145232992Y-81104131D01*
X144942512Y-81181454D01*
X144833470Y-81188400D01*
X144721887Y-81201333D01*
X144613815Y-81247560D01*
X144496469Y-81338215D01*
X144357067Y-81484435D01*
X144182824Y-81697357D01*
X144047862Y-81872798D01*
X143824055Y-82156486D01*
X143631325Y-82377484D01*
X143476338Y-82528891D01*
X143365764Y-82603800D01*
X143335125Y-82610800D01*
X143285970Y-82569156D01*
X143261529Y-82515909D01*
X143260197Y-82359590D01*
X143335946Y-82204374D01*
X143470552Y-82086570D01*
X143479401Y-82081846D01*
X143582401Y-82007934D01*
X143710570Y-81888346D01*
X143842308Y-81747211D01*
X143956014Y-81608658D01*
X144030088Y-81496815D01*
X144046800Y-81448049D01*
X144030673Y-81400043D01*
X143977528Y-81405346D01*
X143880220Y-81468995D01*
X143731601Y-81596029D01*
X143524526Y-81791488D01*
X143433066Y-81880779D01*
X143196762Y-82105694D01*
X143022497Y-82254796D01*
X142907357Y-82330402D01*
X142855981Y-82339573D01*
X142783516Y-82282643D01*
X142786792Y-82192268D01*
X142868794Y-82063193D01*
X143032508Y-81890165D01*
X143195900Y-81741328D01*
X143389310Y-81567486D01*
X143572962Y-81394666D01*
X143721248Y-81247339D01*
X143786096Y-81177348D01*
X143921375Y-81052757D01*
X144108691Y-80918528D01*
X144298701Y-80808456D01*
X144547581Y-80662973D01*
X144712325Y-80513307D01*
X144809491Y-80341744D01*
X144840764Y-80228479D01*
X144870101Y-80081793D01*
X144394950Y-80185336D01*
X144053504Y-80240685D01*
X143641432Y-80277453D01*
X143188027Y-80295470D01*
X142722580Y-80294568D01*
X142274383Y-80274577D01*
X141872729Y-80235330D01*
X141659200Y-80201111D01*
X141321433Y-80123463D01*
X140927801Y-80012911D01*
X140514160Y-79880254D01*
X140119252Y-79737403D01*
X140062989Y-79726930D01*
X140039640Y-79768456D01*
X140040328Y-79883773D01*
X140043052Y-79924418D01*
X140053121Y-80035570D01*
X140076902Y-80103316D01*
X140133784Y-80134237D01*
X140243156Y-80134912D01*
X140424407Y-80111919D01*
X140543597Y-80094264D01*
X140701065Y-80080470D01*
X140795609Y-80102564D01*
X140846125Y-80146669D01*
X140880205Y-80204747D01*
X140884373Y-80280615D01*
X140855661Y-80400395D01*
X140797891Y-80571169D01*
X140702829Y-80824288D01*
X140601110Y-81071606D01*
X140501100Y-81295260D01*
X140411166Y-81477386D01*
X140339674Y-81600119D01*
X140294989Y-81645595D01*
X140294723Y-81645600D01*
X140233122Y-81604329D01*
X140226379Y-81487625D01*
X140267552Y-81328100D01*
X140302310Y-81208936D01*
X140308593Y-81142534D01*
X140303430Y-81137600D01*
X140255322Y-81172626D01*
X140166356Y-81261981D01*
X140106768Y-81328100D01*
X139995458Y-81441824D01*
X139921864Y-81478698D01*
X139881513Y-81461288D01*
X139836418Y-81356027D01*
X139849546Y-81221207D01*
X139911325Y-81102942D01*
X139964682Y-81060593D01*
X140139538Y-80950043D01*
X140227902Y-80837864D01*
X140236800Y-80792324D01*
X140223243Y-80749443D01*
X140170166Y-80776290D01*
X140122500Y-80817596D01*
X139984778Y-80925928D01*
X139841685Y-80992341D01*
X139662377Y-81026035D01*
X139416012Y-81036207D01*
X139389239Y-81036283D01*
X139167759Y-81043481D01*
X138959005Y-81062152D01*
X138805925Y-81088365D01*
X138798604Y-81090325D01*
X138693741Y-81111929D01*
X138587307Y-81111113D01*
X138452567Y-81083567D01*
X138262781Y-81024982D01*
X138145775Y-80985088D01*
X137686541Y-80826091D01*
X137492264Y-80960725D01*
X137313681Y-81055036D01*
X137085057Y-81117044D01*
X136925893Y-81141163D01*
X136794116Y-81158603D01*
X136685621Y-81181034D01*
X136588230Y-81218080D01*
X136489765Y-81279370D01*
X136378049Y-81374528D01*
X136240904Y-81513183D01*
X136066153Y-81704960D01*
X135841619Y-81959486D01*
X135731018Y-82085726D01*
X135523070Y-82306274D01*
X135362614Y-82438403D01*
X135248429Y-82482848D01*
X135179289Y-82440348D01*
X135171376Y-82423112D01*
X135166599Y-82288315D01*
X135226669Y-82143321D01*
X135331162Y-82033171D01*
X135354174Y-82019988D01*
X135455263Y-81951887D01*
X135588179Y-81839499D01*
X135731935Y-81703763D01*
X135865546Y-81565618D01*
X135968028Y-81446003D01*
X136018394Y-81365856D01*
X136020400Y-81355235D01*
X136011872Y-81310128D01*
X135979492Y-81301594D01*
X135913061Y-81336411D01*
X135802381Y-81421356D01*
X135637253Y-81563209D01*
X135433373Y-81745389D01*
X135193464Y-81955615D01*
X135013565Y-82097548D01*
X134883948Y-82176787D01*
X134794888Y-82198927D01*
X134736657Y-82169564D01*
X134724719Y-82153145D01*
X134709603Y-82056620D01*
X134775083Y-81937305D01*
X134925786Y-81789092D01*
X135106803Y-81648525D01*
X135326059Y-81481186D01*
X135567281Y-81285085D01*
X135779223Y-81101914D01*
X135784231Y-81097383D01*
X135987928Y-80929711D01*
X136178833Y-80803084D01*
X136316929Y-80739679D01*
X136491546Y-80660471D01*
X136652679Y-80542173D01*
X136774651Y-80408455D01*
X136831782Y-80282992D01*
X136833200Y-80263742D01*
X136819975Y-80195333D01*
X136760957Y-80179267D01*
X136668100Y-80194474D01*
X136297607Y-80268788D01*
X135987028Y-80320262D01*
X135702461Y-80351875D01*
X135410007Y-80366603D01*
X135075765Y-80367424D01*
X134775800Y-80360661D01*
X134423659Y-80348111D01*
X134113447Y-80330258D01*
X133827948Y-80303919D01*
X133549949Y-80265906D01*
X133262234Y-80213035D01*
X132947589Y-80142120D01*
X132588800Y-80049975D01*
X132168651Y-79933415D01*
X131669929Y-79789254D01*
X131638900Y-79780174D01*
X131584089Y-79778901D01*
X131557631Y-79831939D01*
X131550084Y-79961228D01*
X131550000Y-79986769D01*
X131503931Y-80324376D01*
X131375145Y-80646140D01*
X131177771Y-80929681D01*
X130925937Y-81152619D01*
X130753449Y-81248481D01*
X130624175Y-81315347D01*
X130545327Y-81374798D01*
X130534000Y-81395665D01*
X130560940Y-81490133D01*
X130630929Y-81638252D01*
X130727717Y-81811175D01*
X130835054Y-81980054D01*
X130936689Y-82116040D01*
X130945567Y-82126324D01*
X131036635Y-82222882D01*
X131118308Y-82276585D01*
X131224942Y-82299816D01*
X131390893Y-82304957D01*
X131440962Y-82304884D01*
X131792388Y-82268321D01*
X132071819Y-82161804D01*
X132277927Y-81986257D01*
X132409387Y-81742601D01*
X132444664Y-81606653D01*
X132452437Y-81446827D01*
X132405996Y-81290726D01*
X132295821Y-81120070D01*
X132112389Y-80916584D01*
X132055914Y-80860346D01*
X131898170Y-80697741D01*
X131804838Y-80577432D01*
X131761523Y-80477589D01*
X131753200Y-80401177D01*
X131790611Y-80241012D01*
X131886582Y-80121006D01*
X132016715Y-80070933D01*
X132023900Y-80070799D01*
X132088139Y-80110248D01*
X132109322Y-80196230D01*
X132080209Y-80280200D01*
X132058000Y-80299400D01*
X132014141Y-80350993D01*
X132027133Y-80427216D01*
X132103528Y-80540202D01*
X132249878Y-80702086D01*
X132306984Y-80760564D01*
X132531797Y-81026049D01*
X132661650Y-81278617D01*
X132699490Y-81532491D01*
X132648265Y-81801896D01*
X132564072Y-82001200D01*
X132454678Y-82179226D01*
X132315470Y-82311929D01*
X132114923Y-82427497D01*
X132057086Y-82454491D01*
X132007593Y-82475651D01*
X131954267Y-82493710D01*
X131889090Y-82508917D01*
X131804042Y-82521521D01*
X131691103Y-82531770D01*
X131542254Y-82539913D01*
X131349475Y-82546199D01*
X131104748Y-82550876D01*
X130800053Y-82554193D01*
X130427370Y-82556399D01*
X129978679Y-82557742D01*
X129445963Y-82558471D01*
X128821200Y-82558835D01*
X128690476Y-82558884D01*
X128046321Y-82558991D01*
X127495850Y-82558667D01*
X127031147Y-82557684D01*
X126644296Y-82555816D01*
X126327382Y-82552834D01*
X126072488Y-82548511D01*
X125871699Y-82542620D01*
X125717100Y-82534932D01*
X125600773Y-82525220D01*
X125514804Y-82513258D01*
X125451276Y-82498816D01*
X125402274Y-82481668D01*
X125363076Y-82463234D01*
X125158243Y-82305627D01*
X125034208Y-82089419D01*
X124996799Y-81851139D01*
X125037033Y-81597771D01*
X125148768Y-81392826D01*
X125318553Y-81251731D01*
X125532938Y-81189916D01*
X125574579Y-81188400D01*
X125692716Y-81220435D01*
X125826369Y-81299622D01*
X125942467Y-81400581D01*
X126007940Y-81497931D01*
X126012800Y-81524710D01*
X125976779Y-81607197D01*
X125888346Y-81626720D01*
X125776944Y-81580501D01*
X125740241Y-81550426D01*
X125631628Y-81472930D01*
X125539625Y-81442400D01*
X125410609Y-81488459D01*
X125309381Y-81608253D01*
X125256059Y-81774207D01*
X125252415Y-81836100D01*
X125281897Y-82032664D01*
X125372800Y-82171283D01*
X125534600Y-82258293D01*
X125776774Y-82300034D01*
X125954961Y-82306000D01*
X126143330Y-82303445D01*
X126262426Y-82287813D01*
X126279200Y-82279510D01*
X126673200Y-82279510D01*
X126719127Y-82294097D01*
X126837462Y-82303718D01*
X126949198Y-82306000D01*
X127113718Y-82300561D01*
X127219969Y-82270688D01*
X127230423Y-82262063D01*
X127536800Y-82262063D01*
X127585140Y-82275103D01*
X127720326Y-82287883D01*
X127927603Y-82299627D01*
X128192219Y-82309561D01*
X128499419Y-82316909D01*
X128616300Y-82318755D01*
X128939314Y-82323669D01*
X129228961Y-82329011D01*
X129469468Y-82334413D01*
X129645063Y-82339509D01*
X129739976Y-82343931D01*
X129750833Y-82345165D01*
X129829261Y-82331597D01*
X129838232Y-82324434D01*
X129833599Y-82266220D01*
X129780052Y-82165485D01*
X129767792Y-82147690D01*
X129693674Y-82026462D01*
X129600681Y-81851075D01*
X129514787Y-81672056D01*
X129410499Y-81442054D01*
X129677972Y-81442054D01*
X129724583Y-81577356D01*
X129766924Y-81671000D01*
X129884466Y-81889477D01*
X130018129Y-82083442D01*
X130150838Y-82231700D01*
X130265520Y-82313056D01*
X130290224Y-82320624D01*
X130469959Y-82344522D01*
X130628365Y-82347647D01*
X130734117Y-82330425D01*
X130757483Y-82314278D01*
X130749680Y-82247187D01*
X130696981Y-82153371D01*
X130629865Y-82049496D01*
X130536152Y-81889312D01*
X130435731Y-81706850D01*
X130432400Y-81700592D01*
X130254600Y-81366200D01*
X129962500Y-81349426D01*
X129786379Y-81345436D01*
X129695054Y-81370529D01*
X129677972Y-81442054D01*
X129410499Y-81442054D01*
X129364588Y-81340800D01*
X128052772Y-81340800D01*
X127889710Y-81694568D01*
X127797954Y-81878259D01*
X127707839Y-82033240D01*
X127637406Y-82128764D01*
X127631723Y-82134241D01*
X127559206Y-82214812D01*
X127536800Y-82262063D01*
X127230423Y-82262063D01*
X127310439Y-82196047D01*
X127400273Y-82090100D01*
X127534320Y-81906667D01*
X127653648Y-81711273D01*
X127743282Y-81531594D01*
X127788251Y-81395309D01*
X127790800Y-81368223D01*
X127770014Y-81324195D01*
X127694534Y-81299909D01*
X127544674Y-81290602D01*
X127467650Y-81290000D01*
X127144500Y-81290000D01*
X127033374Y-81582100D01*
X126949301Y-81779114D01*
X126853442Y-81969572D01*
X126797724Y-82063610D01*
X126722475Y-82183489D01*
X126678179Y-82264533D01*
X126673200Y-82279510D01*
X126279200Y-82279510D01*
X126344572Y-82247152D01*
X126422090Y-82169512D01*
X126465943Y-82117059D01*
X126598949Y-81930345D01*
X126717742Y-81719240D01*
X126804259Y-81519279D01*
X126839103Y-81383047D01*
X126832630Y-81319218D01*
X126781461Y-81275345D01*
X126663829Y-81238444D01*
X126558034Y-81215419D01*
X126248574Y-81112576D01*
X125978702Y-80946346D01*
X125773971Y-80733811D01*
X125726928Y-80659773D01*
X125649935Y-80475855D01*
X125573143Y-80198028D01*
X125553165Y-80101133D01*
X129186616Y-80101133D01*
X129192878Y-80308536D01*
X129210716Y-80439185D01*
X129245574Y-80517742D01*
X129287556Y-80558333D01*
X129400533Y-80622268D01*
X129453417Y-80606253D01*
X129445533Y-80515300D01*
X129419195Y-80401723D01*
X129387429Y-80232361D01*
X129367521Y-80110704D01*
X129337891Y-79943480D01*
X129308004Y-79815831D01*
X129290515Y-79767804D01*
X129241009Y-79716427D01*
X129208070Y-79753483D01*
X129190399Y-79883137D01*
X129186616Y-80101133D01*
X125553165Y-80101133D01*
X125496005Y-79823909D01*
X125417975Y-79351111D01*
X125400648Y-79233704D01*
X125395681Y-79205178D01*
X129675069Y-79205178D01*
X129716673Y-79254673D01*
X129771388Y-79272559D01*
X129871303Y-79342566D01*
X129936939Y-79494890D01*
X129970114Y-79735292D01*
X129975200Y-79918332D01*
X129977138Y-80102294D01*
X129988936Y-80208427D01*
X130019564Y-80260503D01*
X130077996Y-80282288D01*
X130114900Y-80288414D01*
X130229979Y-80306571D01*
X130290312Y-80317188D01*
X130325032Y-80278536D01*
X130367408Y-80172925D01*
X130378928Y-80134300D01*
X130429440Y-79775379D01*
X130400018Y-79399085D01*
X130335981Y-79235505D01*
X130212325Y-79154083D01*
X130066095Y-79149519D01*
X129953958Y-79136377D01*
X129869134Y-79103210D01*
X129775040Y-79070357D01*
X129718921Y-79107849D01*
X129715517Y-79113055D01*
X129675069Y-79205178D01*
X125395681Y-79205178D01*
X125353034Y-78960259D01*
X125292744Y-78695100D01*
X125226104Y-78459927D01*
X125159441Y-78276446D01*
X125099082Y-78166358D01*
X125085538Y-78152703D01*
X124988545Y-78100112D01*
X124895200Y-78067089D01*
X124878395Y-78064200D01*
X125098400Y-78064200D01*
X125123800Y-78089600D01*
X125149200Y-78064200D01*
X125123800Y-78038800D01*
X125098400Y-78064200D01*
X124878395Y-78064200D01*
X124821805Y-78054472D01*
X124828178Y-78074393D01*
X124854384Y-78129872D01*
X124806531Y-78223831D01*
X124792502Y-78242821D01*
X124721001Y-78325604D01*
X124669048Y-78332584D01*
X124611629Y-78284391D01*
X124553093Y-78169417D01*
X124525700Y-78013400D01*
X124996800Y-78013400D01*
X125022200Y-78038800D01*
X125047600Y-78013400D01*
X125022200Y-77988000D01*
X124996800Y-78013400D01*
X124525700Y-78013400D01*
X124521522Y-77989609D01*
X124516865Y-77778076D01*
X124529573Y-77657800D01*
X125250800Y-77657800D01*
X125276200Y-77683200D01*
X125301600Y-77657800D01*
X125276200Y-77632400D01*
X125250800Y-77657800D01*
X124529573Y-77657800D01*
X124539069Y-77567925D01*
X124588082Y-77392264D01*
X124613114Y-77342453D01*
X124761194Y-77174007D01*
X124937235Y-77097141D01*
X125126948Y-77111036D01*
X125316044Y-77214873D01*
X125479283Y-77392087D01*
X125563351Y-77520632D01*
X125612830Y-77615816D01*
X125618983Y-77645100D01*
X125643289Y-77682329D01*
X125652873Y-77683200D01*
X125705019Y-77721180D01*
X125794443Y-77820092D01*
X125887552Y-77939587D01*
X126008730Y-78092854D01*
X126082746Y-78159037D01*
X126108511Y-78137836D01*
X126084937Y-78028950D01*
X126072116Y-77990593D01*
X126041821Y-77884429D01*
X126062877Y-77842652D01*
X126139444Y-77835600D01*
X126246012Y-77816404D01*
X126292315Y-77784613D01*
X126360313Y-77754812D01*
X126447713Y-77759213D01*
X126597235Y-77790148D01*
X126711299Y-77813794D01*
X126800997Y-77824382D01*
X126809949Y-77806579D01*
X126792226Y-77795399D01*
X127109130Y-77795399D01*
X127175064Y-77828290D01*
X127276803Y-77835600D01*
X127412042Y-77825313D01*
X127497940Y-77799709D01*
X127507842Y-77790555D01*
X127508485Y-77721866D01*
X127439550Y-77674648D01*
X127332843Y-77663731D01*
X127268513Y-77678974D01*
X127140143Y-77743051D01*
X127109130Y-77795399D01*
X126792226Y-77795399D01*
X126751702Y-77769837D01*
X126639799Y-77723608D01*
X126533500Y-77689724D01*
X126378478Y-77625272D01*
X126333206Y-77561052D01*
X126533509Y-77561052D01*
X126592367Y-77640887D01*
X126657765Y-77674044D01*
X126817736Y-77722057D01*
X126903100Y-77718791D01*
X126927200Y-77667509D01*
X126884168Y-77539339D01*
X126779157Y-77453275D01*
X126670872Y-77437075D01*
X126560204Y-77483605D01*
X126533509Y-77561052D01*
X126333206Y-77561052D01*
X126322283Y-77545558D01*
X126362700Y-77445991D01*
X126397428Y-77407428D01*
X126528616Y-77338519D01*
X126681375Y-77344238D01*
X126826596Y-77411157D01*
X126935174Y-77525845D01*
X126977999Y-77674873D01*
X126978000Y-77675294D01*
X126978000Y-77787841D01*
X127123007Y-77680633D01*
X127275026Y-77602002D01*
X127415216Y-77585577D01*
X127519071Y-77628380D01*
X127562085Y-77727434D01*
X127562200Y-77734000D01*
X127544791Y-77823860D01*
X127473345Y-77870273D01*
X127384400Y-77889029D01*
X127206600Y-77917058D01*
X127422500Y-77956994D01*
X127573419Y-78000142D01*
X127635354Y-78060467D01*
X127638400Y-78081845D01*
X127677934Y-78172670D01*
X127743945Y-78232674D01*
X127813190Y-78285097D01*
X127816081Y-78340461D01*
X127763024Y-78430555D01*
X127707804Y-78519932D01*
X127711417Y-78544099D01*
X127771778Y-78523497D01*
X127895888Y-78477656D01*
X127950209Y-78460399D01*
X128011646Y-78399339D01*
X128047721Y-78329932D01*
X129620293Y-78329932D01*
X129668937Y-78512105D01*
X129811011Y-78668246D01*
X129905335Y-78730998D01*
X130032817Y-78816852D01*
X130113217Y-78892429D01*
X130127600Y-78922467D01*
X130164649Y-79013940D01*
X130245192Y-79089052D01*
X130296704Y-79105600D01*
X130318609Y-79059904D01*
X130319196Y-78939252D01*
X130310050Y-78850508D01*
X130300351Y-78637362D01*
X130319349Y-78554020D01*
X130784558Y-78554020D01*
X130833563Y-78741552D01*
X130965430Y-78954730D01*
X131138279Y-79147557D01*
X131288989Y-79302110D01*
X131419183Y-79447207D01*
X131504195Y-79555140D01*
X131512368Y-79567781D01*
X131567948Y-79633641D01*
X131658777Y-79692494D01*
X131803417Y-79752938D01*
X132020430Y-79823572D01*
X132143013Y-79859915D01*
X132813161Y-80039612D01*
X133436567Y-80175772D01*
X133994067Y-80264265D01*
X134049490Y-80270792D01*
X134311577Y-80290558D01*
X134636599Y-80300130D01*
X134996499Y-80300140D01*
X135363219Y-80291224D01*
X135708702Y-80274015D01*
X136004890Y-80249148D01*
X136198200Y-80222230D01*
X136517217Y-80158154D01*
X136737809Y-80101976D01*
X136858940Y-80053994D01*
X136884000Y-80025272D01*
X136836629Y-80005756D01*
X136708012Y-79984257D01*
X136518394Y-79963518D01*
X136312500Y-79947784D01*
X135409849Y-79840993D01*
X134509905Y-79635690D01*
X133621398Y-79334784D01*
X132753057Y-78941185D01*
X131992807Y-78508088D01*
X131781036Y-78376407D01*
X131640194Y-78294388D01*
X131555970Y-78256402D01*
X131514055Y-78256822D01*
X131500139Y-78290020D01*
X131499200Y-78313944D01*
X131471378Y-78504127D01*
X131398670Y-78674988D01*
X131297208Y-78799692D01*
X131183125Y-78851404D01*
X131175968Y-78851600D01*
X131096814Y-78806256D01*
X131030641Y-78691922D01*
X130993994Y-78541148D01*
X130991200Y-78488138D01*
X130974179Y-78349547D01*
X130927122Y-78303982D01*
X130856031Y-78354514D01*
X130822520Y-78401830D01*
X130784558Y-78554020D01*
X130319349Y-78554020D01*
X130342927Y-78450590D01*
X130373668Y-78375098D01*
X130463937Y-78224477D01*
X130590093Y-78077157D01*
X130726185Y-77958100D01*
X130846264Y-77892269D01*
X130881695Y-77886400D01*
X130937592Y-77861719D01*
X130908729Y-77791479D01*
X130798067Y-77681384D01*
X130758269Y-77648544D01*
X130576139Y-77502434D01*
X130186769Y-77696115D01*
X130003344Y-77792279D01*
X129854383Y-77879490D01*
X129764449Y-77943041D01*
X129751728Y-77956579D01*
X129740918Y-78056931D01*
X129788518Y-78188659D01*
X129870979Y-78353956D01*
X129745289Y-78322410D01*
X129652266Y-78311948D01*
X129620293Y-78329932D01*
X128047721Y-78329932D01*
X128083604Y-78260897D01*
X128142241Y-78104830D01*
X128251063Y-77773333D01*
X128085360Y-77557483D01*
X127977174Y-77428771D01*
X127886267Y-77364740D01*
X127775834Y-77344060D01*
X127715529Y-77343165D01*
X127445153Y-77332021D01*
X127210181Y-77297483D01*
X127031398Y-77244227D01*
X126929590Y-77176925D01*
X126921539Y-77164623D01*
X126899103Y-77050305D01*
X126948498Y-76967779D01*
X127041966Y-76928729D01*
X127151749Y-76944836D01*
X127249317Y-77026676D01*
X127360270Y-77116904D01*
X127494314Y-77112982D01*
X127643566Y-77017525D01*
X127790285Y-76847236D01*
X127992642Y-76580759D01*
X128166789Y-76396640D01*
X128324784Y-76283958D01*
X128467513Y-76233752D01*
X128743362Y-76218250D01*
X128983728Y-76289058D01*
X129209394Y-76453015D01*
X129247597Y-76490447D01*
X129369664Y-76622095D01*
X129429986Y-76717004D01*
X129443223Y-76805402D01*
X129433511Y-76873744D01*
X129425061Y-77003429D01*
X129472519Y-77074889D01*
X129484968Y-77082533D01*
X129550680Y-77158875D01*
X129566060Y-77256915D01*
X129526795Y-77330335D01*
X129508860Y-77339113D01*
X129473013Y-77390556D01*
X129496960Y-77472394D01*
X129565210Y-77546800D01*
X129601854Y-77566166D01*
X129694484Y-77560026D01*
X129853380Y-77505124D01*
X130047660Y-77414089D01*
X130294068Y-77304245D01*
X130477161Y-77259652D01*
X130592443Y-77280600D01*
X130635416Y-77367384D01*
X130635600Y-77375822D01*
X130676276Y-77461072D01*
X130783316Y-77575713D01*
X130934241Y-77699850D01*
X131106569Y-77813589D01*
X131169119Y-77847953D01*
X131311383Y-77940282D01*
X131423119Y-78039338D01*
X131516072Y-78117236D01*
X131681411Y-78231202D01*
X131901265Y-78370659D01*
X132157761Y-78525028D01*
X132433027Y-78683733D01*
X132709190Y-78836196D01*
X132968379Y-78971839D01*
X133142507Y-79056934D01*
X133483365Y-79203610D01*
X133884408Y-79355502D01*
X134310270Y-79500718D01*
X134725587Y-79627366D01*
X135094994Y-79723558D01*
X135182200Y-79742749D01*
X135408396Y-79780935D01*
X135693652Y-79815995D01*
X135995439Y-79843190D01*
X136186916Y-79854706D01*
X136785232Y-79881663D01*
X136730942Y-79738871D01*
X136699718Y-79614521D01*
X136702532Y-79528639D01*
X136770031Y-79469293D01*
X136877365Y-79473830D01*
X136988136Y-79538965D01*
X137004772Y-79555918D01*
X137118895Y-79626031D01*
X137298703Y-79674234D01*
X137345809Y-79680876D01*
X137523784Y-79713504D01*
X137749060Y-79770530D01*
X137974117Y-79839868D01*
X137982867Y-79842874D01*
X138188769Y-79909510D01*
X138330859Y-79941104D01*
X138439081Y-79941762D01*
X138534641Y-79918518D01*
X138693523Y-79820354D01*
X138775118Y-79656261D01*
X138779411Y-79426273D01*
X138759961Y-79317963D01*
X138710344Y-79163443D01*
X138625127Y-78959993D01*
X138518837Y-78736690D01*
X138406002Y-78522610D01*
X138301148Y-78346826D01*
X138222367Y-78242000D01*
X138158262Y-78193497D01*
X138112077Y-78230655D01*
X138097799Y-78254699D01*
X138027082Y-78333879D01*
X137971046Y-78323071D01*
X137950800Y-78237244D01*
X137907245Y-78135828D01*
X137849200Y-78104319D01*
X137760061Y-78059325D01*
X137768917Y-77992634D01*
X137824426Y-77936680D01*
X137872875Y-77865708D01*
X137843606Y-77803459D01*
X137734298Y-77735918D01*
X137604370Y-77752398D01*
X137468819Y-77841767D01*
X137342640Y-77992893D01*
X137240829Y-78194644D01*
X137215307Y-78269865D01*
X137121066Y-78525678D01*
X137015171Y-78715863D01*
X136906217Y-78827362D01*
X136832352Y-78851600D01*
X136726337Y-78819569D01*
X136694483Y-78740711D01*
X136739953Y-78640880D01*
X136799818Y-78585853D01*
X136884043Y-78506576D01*
X136908584Y-78444986D01*
X136906663Y-78440772D01*
X136862466Y-78401033D01*
X136794970Y-78413525D01*
X136684079Y-78485299D01*
X136604600Y-78546800D01*
X136381970Y-78663302D01*
X136132928Y-78696093D01*
X135884683Y-78647756D01*
X135664448Y-78520876D01*
X135591995Y-78450629D01*
X135527362Y-78366652D01*
X135531706Y-78309021D01*
X135579503Y-78254725D01*
X135638388Y-78207430D01*
X135692362Y-78214405D01*
X135770926Y-78285413D01*
X135814544Y-78332506D01*
X135980915Y-78458829D01*
X136158496Y-78498252D01*
X136323180Y-78447523D01*
X136367062Y-78401979D01*
X136340671Y-78340372D01*
X136303780Y-78297198D01*
X136200032Y-78207928D01*
X136119993Y-78165163D01*
X136021571Y-78093486D01*
X135992035Y-77986607D01*
X136025743Y-77905361D01*
X136104769Y-77842550D01*
X136173438Y-77869664D01*
X136243178Y-77991876D01*
X136249440Y-78006619D01*
X136358258Y-78151336D01*
X136518216Y-78219019D01*
X136705908Y-78201665D01*
X136759256Y-78180928D01*
X136857397Y-78106864D01*
X136855616Y-78021074D01*
X136754689Y-77925369D01*
X136617933Y-77849849D01*
X136440305Y-77742813D01*
X136353387Y-77630445D01*
X136346332Y-77608081D01*
X136312350Y-77526315D01*
X136268178Y-77502341D01*
X136539275Y-77502341D01*
X136597343Y-77587367D01*
X136667580Y-77655744D01*
X136794892Y-77737656D01*
X136943976Y-77783868D01*
X137086597Y-77792779D01*
X137194519Y-77762789D01*
X137239507Y-77692297D01*
X137239600Y-77688169D01*
X137191083Y-77595072D01*
X137082727Y-77536852D01*
X136964095Y-77467877D01*
X136898644Y-77378101D01*
X136898459Y-77377406D01*
X136877283Y-77329816D01*
X137151914Y-77329816D01*
X137237435Y-77430919D01*
X137397908Y-77499787D01*
X137582500Y-77525736D01*
X137675714Y-77501599D01*
X137696800Y-77455455D01*
X137654748Y-77392830D01*
X137546301Y-77310509D01*
X137441740Y-77250862D01*
X137295067Y-77180282D01*
X137212979Y-77155556D01*
X137171392Y-77172935D01*
X137154255Y-77206112D01*
X137151914Y-77329816D01*
X136877283Y-77329816D01*
X136864409Y-77300885D01*
X136839431Y-77289052D01*
X136775375Y-77321552D01*
X136668100Y-77375484D01*
X136562846Y-77439782D01*
X136539275Y-77502341D01*
X136268178Y-77502341D01*
X136243898Y-77489164D01*
X136108682Y-77480020D01*
X136097313Y-77479999D01*
X135930248Y-77459583D01*
X135817802Y-77406584D01*
X135776351Y-77333381D01*
X135810460Y-77263219D01*
X135881448Y-77229818D01*
X135975952Y-77268978D01*
X136083087Y-77302536D01*
X136221962Y-77306967D01*
X136357063Y-77286711D01*
X136452874Y-77246209D01*
X136477600Y-77206257D01*
X136435586Y-77150271D01*
X136328462Y-77075969D01*
X136250229Y-77034180D01*
X136066190Y-76910209D01*
X135896960Y-76735276D01*
X135756706Y-76532700D01*
X135659595Y-76325800D01*
X135619793Y-76137895D01*
X135636129Y-76023313D01*
X135668957Y-75959214D01*
X135707605Y-75980475D01*
X135738305Y-76020562D01*
X135789761Y-76129219D01*
X135831321Y-76281192D01*
X135836525Y-76310457D01*
X135912937Y-76517955D01*
X136053840Y-76690395D01*
X136201716Y-76819458D01*
X136296156Y-76870601D01*
X136333073Y-76844479D01*
X136308383Y-76741746D01*
X136268658Y-76655946D01*
X136151316Y-76395832D01*
X136101884Y-76207532D01*
X136119622Y-76087960D01*
X136129258Y-76074254D01*
X136210890Y-76010999D01*
X136262302Y-76043009D01*
X136274400Y-76123050D01*
X136302737Y-76332143D01*
X136378163Y-76544332D01*
X136486292Y-76735996D01*
X136612743Y-76883510D01*
X136743132Y-76963253D01*
X136790608Y-76970870D01*
X136829255Y-76960715D01*
X136838719Y-76916425D01*
X136816532Y-76819368D01*
X136760230Y-76650910D01*
X136741153Y-76597187D01*
X136674691Y-76400902D01*
X136643942Y-76274880D01*
X136645509Y-76195613D01*
X136675200Y-76140546D01*
X136753780Y-76083075D01*
X136808365Y-76120090D01*
X136832563Y-76246015D01*
X136833200Y-76278434D01*
X136855766Y-76418969D01*
X136913244Y-76585443D01*
X136990300Y-76745196D01*
X137071600Y-76865571D01*
X137130658Y-76911981D01*
X137172537Y-76905746D01*
X137172822Y-76834665D01*
X137156790Y-76762119D01*
X137118040Y-76507961D01*
X137131863Y-76288857D01*
X137196165Y-76130062D01*
X137210669Y-76112300D01*
X137292945Y-76045612D01*
X137347989Y-76036395D01*
X137390203Y-76112319D01*
X137369358Y-76214372D01*
X137312997Y-76281967D01*
X137265902Y-76339296D01*
X137259991Y-76432566D01*
X137282460Y-76555437D01*
X137333661Y-76704576D01*
X137414763Y-76863636D01*
X137507926Y-77004712D01*
X137595314Y-77099903D01*
X137646191Y-77124400D01*
X137666850Y-77079202D01*
X137669751Y-76963512D01*
X137661930Y-76870400D01*
X137647671Y-76720278D01*
X137656958Y-76645020D01*
X137698217Y-76619017D01*
X137745511Y-76616400D01*
X137807575Y-76622585D01*
X137837609Y-76656854D01*
X137841666Y-76742771D01*
X137825801Y-76903903D01*
X137823800Y-76921200D01*
X137813936Y-77093829D01*
X137826704Y-77201007D01*
X137855218Y-77233416D01*
X137892596Y-77181739D01*
X137927017Y-77060899D01*
X137990406Y-76880783D01*
X138081671Y-76765326D01*
X138185573Y-76725533D01*
X138286874Y-76772411D01*
X138302601Y-76789623D01*
X138330630Y-76858705D01*
X138272379Y-76924796D01*
X138266083Y-76929323D01*
X138140474Y-77056745D01*
X138070866Y-77205445D01*
X138062756Y-77348094D01*
X138121642Y-77457366D01*
X138155166Y-77480624D01*
X138249732Y-77505868D01*
X138417062Y-77527461D01*
X138628318Y-77542180D01*
X138739347Y-77545911D01*
X138962575Y-77551641D01*
X139103238Y-77560875D01*
X139180353Y-77579045D01*
X139212937Y-77611582D01*
X139220007Y-77663919D01*
X139220003Y-77683200D01*
X139204684Y-77806959D01*
X139144901Y-77899325D01*
X139017202Y-77995167D01*
X139004900Y-78003044D01*
X138932748Y-78048870D01*
X138887242Y-78088286D01*
X138875633Y-78132761D01*
X138905177Y-78193760D01*
X138983126Y-78282752D01*
X139116733Y-78411203D01*
X139313253Y-78590579D01*
X139461398Y-78724717D01*
X139740102Y-79044961D01*
X139881487Y-79291924D01*
X139954890Y-79436439D01*
X140030811Y-79547960D01*
X140126018Y-79637024D01*
X140257280Y-79714168D01*
X140441365Y-79789927D01*
X140695040Y-79874838D01*
X140919948Y-79944432D01*
X141579078Y-80106980D01*
X142273858Y-80207988D01*
X142979032Y-80246626D01*
X143669344Y-80222068D01*
X144319537Y-80133483D01*
X144618556Y-80065743D01*
X144809312Y-80015945D01*
X144732856Y-79868095D01*
X144663149Y-79689424D01*
X144667024Y-79569902D01*
X144743753Y-79515032D01*
X144779771Y-79511999D01*
X144905578Y-79539711D01*
X144973237Y-79582094D01*
X145061140Y-79627775D01*
X145210653Y-79669041D01*
X145319765Y-79687485D01*
X145515315Y-79720168D01*
X145753906Y-79770775D01*
X145965785Y-79823606D01*
X146267127Y-79880739D01*
X146495193Y-79868138D01*
X146649434Y-79786258D01*
X146729302Y-79635555D01*
X146734250Y-79416485D01*
X146692030Y-79219857D01*
X146642738Y-79095181D01*
X146558195Y-78925556D01*
X146452017Y-78733803D01*
X146337816Y-78542743D01*
X146229206Y-78375198D01*
X146139800Y-78253989D01*
X146085211Y-78202608D01*
X146006244Y-78217537D01*
X145968387Y-78259551D01*
X145898468Y-78336425D01*
X145843990Y-78317066D01*
X145824800Y-78222035D01*
X145799531Y-78118001D01*
X145756707Y-78074340D01*
X145709797Y-78004229D01*
X145711673Y-77891105D01*
X145718511Y-77782094D01*
X145676519Y-77740348D01*
X145581828Y-77733999D01*
X145445776Y-77765051D01*
X145311776Y-77869562D01*
X145271262Y-77913567D01*
X145176578Y-78039065D01*
X145120478Y-78147553D01*
X145113851Y-78180267D01*
X145095411Y-78302529D01*
X145048485Y-78452279D01*
X144986507Y-78597869D01*
X144922915Y-78707652D01*
X144871966Y-78750000D01*
X144827558Y-78777449D01*
X144834200Y-78800800D01*
X144819235Y-78841318D01*
X144765231Y-78851600D01*
X144666871Y-78822543D01*
X144649229Y-78746410D01*
X144713814Y-78639755D01*
X144743186Y-78610075D01*
X144826139Y-78505218D01*
X144829685Y-78438826D01*
X144764099Y-78428489D01*
X144664395Y-78475161D01*
X144534115Y-78570423D01*
X144438521Y-78655721D01*
X144312028Y-78728929D01*
X144138495Y-78756497D01*
X143943658Y-78744118D01*
X143753253Y-78697483D01*
X143593016Y-78622286D01*
X143488683Y-78524217D01*
X143462600Y-78439865D01*
X143494462Y-78338673D01*
X143565855Y-78297609D01*
X143640487Y-78325084D01*
X143675470Y-78390537D01*
X143750937Y-78491255D01*
X143902687Y-78540227D01*
X144074844Y-78538066D01*
X144199158Y-78502503D01*
X144227198Y-78438371D01*
X144159242Y-78348716D01*
X144050121Y-78269497D01*
X143900940Y-78154698D01*
X143847700Y-78055861D01*
X143887360Y-77966030D01*
X143908803Y-77946326D01*
X144001028Y-77918921D01*
X144087137Y-77989580D01*
X144143964Y-78103333D01*
X144191021Y-78191841D01*
X144265597Y-78232034D01*
X144403167Y-78241970D01*
X144416382Y-78241999D01*
X144614148Y-78220487D01*
X144727365Y-78164212D01*
X144752015Y-78085568D01*
X144684082Y-77996948D01*
X144523285Y-77912164D01*
X144317049Y-77799248D01*
X144205785Y-77673965D01*
X144149146Y-77595851D01*
X144417583Y-77595851D01*
X144506358Y-77693797D01*
X144567500Y-77734556D01*
X144789729Y-77825503D01*
X144996711Y-77817050D01*
X145033245Y-77804764D01*
X145106210Y-77742319D01*
X145093512Y-77662196D01*
X145001687Y-77589401D01*
X144973900Y-77577733D01*
X144839849Y-77501566D01*
X144753061Y-77420334D01*
X144690633Y-77351556D01*
X144631991Y-77347979D01*
X144537161Y-77403385D01*
X144428109Y-77501871D01*
X144417583Y-77595851D01*
X144149146Y-77595851D01*
X144131878Y-77572037D01*
X144045575Y-77544735D01*
X143979141Y-77553063D01*
X143828009Y-77553986D01*
X143705049Y-77506848D01*
X143642742Y-77425846D01*
X143640400Y-77405010D01*
X143674902Y-77315998D01*
X143763806Y-77302233D01*
X143833448Y-77333049D01*
X143942076Y-77362482D01*
X144088846Y-77360691D01*
X144229701Y-77332822D01*
X144279222Y-77306228D01*
X144969025Y-77306228D01*
X145019115Y-77399853D01*
X145131014Y-77474301D01*
X145169207Y-77487555D01*
X145329833Y-77514817D01*
X145462300Y-77504121D01*
X145537696Y-77459660D01*
X145545400Y-77432984D01*
X145501036Y-77366647D01*
X145391087Y-77297592D01*
X145250263Y-77239322D01*
X145113274Y-77205340D01*
X145014833Y-77209146D01*
X144997735Y-77219944D01*
X144969025Y-77306228D01*
X144279222Y-77306228D01*
X144320583Y-77284017D01*
X144327051Y-77275421D01*
X144301113Y-77230498D01*
X144203762Y-77161831D01*
X144077935Y-77095111D01*
X143861769Y-76956554D01*
X143668247Y-76767312D01*
X143518086Y-76553710D01*
X143432007Y-76342069D01*
X143419896Y-76259089D01*
X143433464Y-76130797D01*
X143476566Y-76074384D01*
X143529097Y-76098784D01*
X143567048Y-76193691D01*
X143600284Y-76335099D01*
X143624927Y-76431515D01*
X143676594Y-76531256D01*
X143772380Y-76657077D01*
X143887296Y-76781977D01*
X143996353Y-76878955D01*
X144074563Y-76921010D01*
X144078111Y-76921200D01*
X144127083Y-76915689D01*
X144141251Y-76885882D01*
X144116908Y-76811863D01*
X144050351Y-76673716D01*
X144021400Y-76616400D01*
X143935223Y-76413801D01*
X143897937Y-76251079D01*
X143911123Y-76144061D01*
X143970600Y-76108400D01*
X144033608Y-76150340D01*
X144046800Y-76203861D01*
X144076437Y-76354616D01*
X144152747Y-76539299D01*
X144256829Y-76723817D01*
X144369781Y-76874076D01*
X144460740Y-76950499D01*
X144576113Y-76999809D01*
X144652428Y-77014089D01*
X144655779Y-77013185D01*
X144660017Y-76962517D01*
X144628589Y-76845670D01*
X144573255Y-76700181D01*
X144496652Y-76480321D01*
X144466669Y-76302335D01*
X144483813Y-76181730D01*
X144548587Y-76134010D01*
X144554800Y-76133800D01*
X144614010Y-76177175D01*
X144637974Y-76311087D01*
X144637995Y-76311600D01*
X144694684Y-76597474D01*
X144825363Y-76832300D01*
X144907763Y-76904952D01*
X144974036Y-76918489D01*
X144997126Y-76872909D01*
X144985884Y-76832300D01*
X144933706Y-76646845D01*
X144918423Y-76452098D01*
X144936668Y-76273120D01*
X144985073Y-76134971D01*
X145060270Y-76062714D01*
X145089987Y-76057600D01*
X145149067Y-76096397D01*
X145161241Y-76184494D01*
X145123252Y-76279444D01*
X145108311Y-76296568D01*
X145071990Y-76397037D01*
X145085351Y-76550086D01*
X145140408Y-76724643D01*
X145229177Y-76889640D01*
X145276421Y-76950708D01*
X145376747Y-77055051D01*
X145453139Y-77117002D01*
X145472069Y-77124400D01*
X145490992Y-77079131D01*
X145492892Y-76963043D01*
X145484513Y-76865193D01*
X145470085Y-76713856D01*
X145477822Y-76639970D01*
X145514016Y-76620634D01*
X145550407Y-76625366D01*
X145604916Y-76649470D01*
X145630898Y-76710139D01*
X145634826Y-76832600D01*
X145629932Y-76935372D01*
X145628748Y-77120023D01*
X145649845Y-77208128D01*
X145689239Y-77198359D01*
X145742948Y-77089386D01*
X145777743Y-76984699D01*
X145831385Y-76835159D01*
X145889853Y-76758934D01*
X145975245Y-76729219D01*
X145989900Y-76727325D01*
X146099853Y-76737525D01*
X146124903Y-76799059D01*
X146063967Y-76905843D01*
X146028781Y-76945768D01*
X145944163Y-77076380D01*
X145896368Y-77211057D01*
X145891772Y-77321168D01*
X145936916Y-77399621D01*
X146043668Y-77451231D01*
X146223897Y-77480812D01*
X146489472Y-77493180D01*
X146594583Y-77494290D01*
X147094800Y-77496674D01*
X147094800Y-77638949D01*
X147058114Y-77775830D01*
X146997161Y-77833480D01*
X146845387Y-77933152D01*
X146778081Y-78031763D01*
X146797512Y-78138975D01*
X146905951Y-78264450D01*
X147105669Y-78417851D01*
X147139996Y-78441394D01*
X147466001Y-78699833D01*
X147698650Y-78971084D01*
X147794359Y-79138401D01*
X147853891Y-79229657D01*
X147950871Y-79313670D01*
X148105422Y-79404733D01*
X148308873Y-79503835D01*
X148975949Y-79764697D01*
X149698315Y-79958108D01*
X150450870Y-80078745D01*
X151208510Y-80121283D01*
X151220224Y-80121300D01*
X151442651Y-80116554D01*
X151692609Y-80103511D01*
X151947813Y-80084291D01*
X152185976Y-80061018D01*
X152384812Y-80035813D01*
X152522036Y-80010799D01*
X152572245Y-79992552D01*
X152562610Y-79943351D01*
X152517413Y-79841079D01*
X152508745Y-79824043D01*
X152452073Y-79676060D01*
X152428800Y-79539922D01*
X152449454Y-79441357D01*
X152528676Y-79410847D01*
X152547926Y-79410400D01*
X152674278Y-79446972D01*
X152754255Y-79506757D01*
X152855566Y-79577176D01*
X153009307Y-79642316D01*
X153079628Y-79662995D01*
X153252828Y-79715817D01*
X153468123Y-79794129D01*
X153656514Y-79871438D01*
X153932433Y-79975537D01*
X154145104Y-80014959D01*
X154308417Y-79991158D01*
X154387590Y-79947793D01*
X154441950Y-79889892D01*
X154471762Y-79798983D01*
X154483145Y-79648396D01*
X154483755Y-79528693D01*
X154475261Y-79338201D01*
X154446589Y-79170872D01*
X154388428Y-78990324D01*
X154291465Y-78760174D01*
X154281199Y-78737300D01*
X154169652Y-78505328D01*
X154082511Y-78361759D01*
X154014138Y-78297941D01*
X153991544Y-78292800D01*
X153915780Y-78316606D01*
X153902000Y-78343600D01*
X153860622Y-78388114D01*
X153822376Y-78394400D01*
X153766629Y-78364569D01*
X153774018Y-78295893D01*
X153766606Y-78197257D01*
X153697026Y-78139450D01*
X153622935Y-78088264D01*
X153634219Y-78034074D01*
X153669185Y-77992657D01*
X153732660Y-77901548D01*
X153749600Y-77849735D01*
X153705401Y-77786725D01*
X153599201Y-77742832D01*
X153520742Y-77734000D01*
X153406748Y-77776801D01*
X153278326Y-77888058D01*
X153159172Y-78042050D01*
X153072982Y-78213058D01*
X153069042Y-78224278D01*
X152976451Y-78440920D01*
X152866378Y-78615605D01*
X152751129Y-78737614D01*
X152643010Y-78796228D01*
X152554327Y-78780730D01*
X152507670Y-78713240D01*
X152518434Y-78621184D01*
X152590521Y-78535324D01*
X152689576Y-78496037D01*
X152692509Y-78496000D01*
X152729002Y-78454717D01*
X152733600Y-78419800D01*
X152705814Y-78353963D01*
X152619525Y-78361365D01*
X152470336Y-78442810D01*
X152419205Y-78477248D01*
X152270322Y-78563864D01*
X152131707Y-78592544D01*
X151993580Y-78584661D01*
X151812696Y-78537933D01*
X151636107Y-78449384D01*
X151490348Y-78337563D01*
X151401953Y-78221020D01*
X151387400Y-78160894D01*
X151420248Y-78072164D01*
X151495935Y-78050206D01*
X151580177Y-78095654D01*
X151621042Y-78156580D01*
X151719651Y-78282384D01*
X151861755Y-78363993D01*
X152014021Y-78390623D01*
X152143114Y-78351489D01*
X152165386Y-78332693D01*
X152185255Y-78281261D01*
X152145098Y-78207952D01*
X152034470Y-78095048D01*
X152014393Y-78076561D01*
X151896259Y-77963628D01*
X151844779Y-77893054D01*
X151848905Y-77841734D01*
X151882707Y-77801120D01*
X151987228Y-77745221D01*
X152076691Y-77780552D01*
X152129664Y-77896947D01*
X152133036Y-77919882D01*
X152171755Y-78031563D01*
X152274221Y-78095453D01*
X152311075Y-78107049D01*
X152481802Y-78131908D01*
X152625788Y-78111319D01*
X152715840Y-78052205D01*
X152732664Y-77999732D01*
X152691584Y-77924825D01*
X152586203Y-77826466D01*
X152491364Y-77759400D01*
X152329668Y-77636111D01*
X152243689Y-77523532D01*
X152234766Y-77492700D01*
X152209498Y-77433597D01*
X152439444Y-77433597D01*
X152492426Y-77516453D01*
X152568500Y-77591157D01*
X152749302Y-77729104D01*
X152910254Y-77779761D01*
X153059645Y-77753964D01*
X153132709Y-77691885D01*
X153116661Y-77608639D01*
X153016478Y-77521395D01*
X152987600Y-77505400D01*
X152883711Y-77432265D01*
X152835601Y-77360128D01*
X152835200Y-77354693D01*
X152801980Y-77266161D01*
X152730639Y-77257291D01*
X153046997Y-77257291D01*
X153102859Y-77360324D01*
X153229632Y-77458534D01*
X153246586Y-77467735D01*
X153372800Y-77509464D01*
X153497971Y-77515547D01*
X153585410Y-77487330D01*
X153604489Y-77454600D01*
X153566941Y-77402073D01*
X153465875Y-77320591D01*
X153370678Y-77257572D01*
X153218618Y-77173570D01*
X153124593Y-77148429D01*
X153074009Y-77170070D01*
X153046997Y-77257291D01*
X152730639Y-77257291D01*
X152705238Y-77254133D01*
X152582691Y-77301428D01*
X152469112Y-77370503D01*
X152439444Y-77433597D01*
X152209498Y-77433597D01*
X152198712Y-77408371D01*
X152103894Y-77379423D01*
X152066327Y-77378400D01*
X151896878Y-77355071D01*
X151771666Y-77294301D01*
X151717989Y-77209913D01*
X151717600Y-77201810D01*
X151750182Y-77113695D01*
X151838957Y-77102629D01*
X151940564Y-77150778D01*
X152096835Y-77207311D01*
X152246799Y-77198036D01*
X152365574Y-77167129D01*
X152426624Y-77134386D01*
X152428800Y-77128525D01*
X152390649Y-77082140D01*
X152292371Y-77000022D01*
X152200007Y-76931890D01*
X151986780Y-76748024D01*
X151827017Y-76524775D01*
X151700381Y-76232913D01*
X151687632Y-76195460D01*
X151642190Y-76034776D01*
X151638927Y-75935961D01*
X151667862Y-75878519D01*
X151742803Y-75827277D01*
X151795978Y-75869444D01*
G36*
X143027877Y-65089141D02*
G01*
X143177224Y-65150535D01*
X143301325Y-65244717D01*
X143397404Y-65364669D01*
X143462680Y-65503370D01*
X143494375Y-65653801D01*
X143489712Y-65808940D01*
X143445912Y-65961768D01*
X143360196Y-66105265D01*
X143295075Y-66176812D01*
X143149915Y-66283282D01*
X142989107Y-66344768D01*
X142820816Y-66360786D01*
X142653209Y-66330852D01*
X142494450Y-66254480D01*
X142455291Y-66226699D01*
X142346700Y-66143832D01*
X141902200Y-66288887D01*
X141632701Y-66373920D01*
X141347940Y-66458575D01*
X141062652Y-66538741D01*
X140791572Y-66610310D01*
X140549432Y-66669173D01*
X140492500Y-66682008D01*
X140395750Y-66704830D01*
X140318505Y-66725729D01*
X140274002Y-66741038D01*
X140269168Y-66743859D01*
X140268777Y-66771429D01*
X140276804Y-66838578D01*
X140291404Y-66935136D01*
X140310734Y-67050929D01*
X140332950Y-67175785D01*
X140356208Y-67299532D01*
X140378664Y-67411997D01*
X140398475Y-67503007D01*
X140413796Y-67562390D01*
X140420614Y-67579397D01*
X140446772Y-67577639D01*
X140515376Y-67566839D01*
X140619142Y-67548318D01*
X140750783Y-67523394D01*
X140903015Y-67493389D01*
X140969397Y-67479983D01*
X141167205Y-67440629D01*
X141321789Y-67412560D01*
X141439425Y-67395658D01*
X141526393Y-67389798D01*
X141588968Y-67394860D01*
X141633430Y-67410723D01*
X141666055Y-67437263D01*
X141687820Y-67466055D01*
X141702423Y-67505068D01*
X141725388Y-67587600D01*
X141755227Y-67707333D01*
X141790448Y-67857950D01*
X141829564Y-68033135D01*
X141871083Y-68226569D01*
X141900490Y-68368034D01*
X141941790Y-68567764D01*
X141980395Y-68751384D01*
X142015022Y-68913023D01*
X142044388Y-69046810D01*
X142067208Y-69146877D01*
X142082199Y-69207352D01*
X142087490Y-69223156D01*
X142117973Y-69226449D01*
X142184382Y-69221345D01*
X142272740Y-69208954D01*
X142278691Y-69207960D01*
X142493389Y-69194988D01*
X142695605Y-69228034D01*
X142879650Y-69304205D01*
X143039833Y-69420604D01*
X143170465Y-69574338D01*
X143238360Y-69696214D01*
X143278435Y-69793013D01*
X143300850Y-69879545D01*
X143310277Y-69978911D01*
X143311650Y-70058634D01*
X143309053Y-70171833D01*
X143297581Y-70256926D01*
X143272206Y-70336463D01*
X143228416Y-70431947D01*
X143118164Y-70605765D01*
X142978138Y-70744275D01*
X142814535Y-70841605D01*
X142782236Y-70854608D01*
X142707797Y-70877710D01*
X142592792Y-70907436D01*
X142445236Y-70942186D01*
X142273143Y-70980362D01*
X142084527Y-71020366D01*
X141887403Y-71060598D01*
X141689785Y-71099460D01*
X141499687Y-71135354D01*
X141325125Y-71166680D01*
X141174112Y-71191839D01*
X141054663Y-71209234D01*
X140974792Y-71217265D01*
X140962400Y-71217622D01*
X140772053Y-71195143D01*
X140591780Y-71130552D01*
X140429813Y-71029868D01*
X140294380Y-70899115D01*
X140193711Y-70744311D01*
X140147379Y-70621352D01*
X140137142Y-70577443D01*
X140117844Y-70488857D01*
X140090552Y-70360695D01*
X140067600Y-70251606D01*
X140516787Y-70251606D01*
X140517691Y-70297040D01*
X140536053Y-70374266D01*
X140557493Y-70454834D01*
X140617262Y-70587032D01*
X140717301Y-70697041D01*
X140769647Y-70733969D01*
X140860321Y-70766744D01*
X140981695Y-70779146D01*
X141117507Y-70770178D01*
X141178300Y-70759060D01*
X141229590Y-70741738D01*
X141248460Y-70709209D01*
X141248125Y-70654115D01*
X141215894Y-70486727D01*
X141147805Y-70354426D01*
X141046751Y-70259447D01*
X140915620Y-70204023D01*
X140757305Y-70190390D01*
X140662090Y-70201093D01*
X140584659Y-70214130D01*
X140537667Y-70227469D01*
X140516787Y-70251606D01*
X140067600Y-70251606D01*
X140056333Y-70198057D01*
X140016256Y-70006047D01*
X139971387Y-69789766D01*
X139922794Y-69554315D01*
X139871544Y-69304797D01*
X139854893Y-69223478D01*
X139802003Y-68964227D01*
X140259470Y-68964227D01*
X140262219Y-68988496D01*
X140274048Y-69052273D01*
X140292793Y-69145526D01*
X140316292Y-69258222D01*
X140342382Y-69380328D01*
X140368901Y-69501813D01*
X140393685Y-69612644D01*
X140414572Y-69702789D01*
X140429399Y-69762214D01*
X140435548Y-69781015D01*
X140464637Y-69782462D01*
X140527377Y-69774052D01*
X140582351Y-69763423D01*
X140797513Y-69741029D01*
X141001139Y-69765649D01*
X141188208Y-69833914D01*
X141353699Y-69942456D01*
X141492592Y-70087907D01*
X141599866Y-70266900D01*
X141670500Y-70476068D01*
X141674887Y-70496250D01*
X141699556Y-70583013D01*
X141727479Y-70625863D01*
X141738622Y-70629600D01*
X141774517Y-70624593D01*
X141851056Y-70610734D01*
X141959202Y-70589763D01*
X142089914Y-70563423D01*
X142194687Y-70541742D01*
X142339705Y-70509847D01*
X142471838Y-70477887D01*
X142581033Y-70448516D01*
X142657241Y-70424384D01*
X142685077Y-70412331D01*
X142787112Y-70324560D01*
X142853775Y-70209429D01*
X142881674Y-70079048D01*
X142867413Y-69945527D01*
X142837283Y-69869086D01*
X142764154Y-69761285D01*
X142672425Y-69688972D01*
X142556433Y-69650427D01*
X142410512Y-69643930D01*
X142228998Y-69667759D01*
X142196117Y-69674304D01*
X142052366Y-69702350D01*
X141940172Y-69716514D01*
X141854054Y-69711936D01*
X141788529Y-69683760D01*
X141738115Y-69627127D01*
X141697329Y-69537180D01*
X141660688Y-69409063D01*
X141622711Y-69237916D01*
X141604686Y-69150281D01*
X141514306Y-68707124D01*
X140889103Y-68834642D01*
X140718296Y-68869525D01*
X140564928Y-68900931D01*
X140435710Y-68927479D01*
X140337352Y-68947789D01*
X140276567Y-68960478D01*
X140259470Y-68964227D01*
X139802003Y-68964227D01*
X139795371Y-68931719D01*
X139745618Y-68685579D01*
X139704932Y-68480965D01*
X139672613Y-68313785D01*
X139647959Y-68179948D01*
X139641937Y-68144347D01*
X140089517Y-68144347D01*
X140095955Y-68208828D01*
X140110621Y-68291817D01*
X140130328Y-68378898D01*
X140151891Y-68455656D01*
X140172126Y-68507674D01*
X140184859Y-68521801D01*
X140216841Y-68517051D01*
X140291262Y-68503503D01*
X140400797Y-68482570D01*
X140538121Y-68455665D01*
X140695910Y-68424200D01*
X140797300Y-68403730D01*
X140963507Y-68369415D01*
X141113182Y-68337351D01*
X141239088Y-68309184D01*
X141333986Y-68286559D01*
X141390639Y-68271122D01*
X141403277Y-68265981D01*
X141409650Y-68233126D01*
X141405986Y-68166643D01*
X141394879Y-68082113D01*
X141378923Y-67995111D01*
X141360714Y-67921216D01*
X141342848Y-67876006D01*
X141337301Y-67869930D01*
X141307701Y-67871135D01*
X141236770Y-67881259D01*
X141132872Y-67898669D01*
X141004368Y-67921731D01*
X140859620Y-67948810D01*
X140706990Y-67978272D01*
X140554840Y-68008484D01*
X140411531Y-68037812D01*
X140285426Y-68064621D01*
X140184886Y-68087278D01*
X140118274Y-68104148D01*
X140094489Y-68112790D01*
X140089517Y-68144347D01*
X139641937Y-68144347D01*
X139630268Y-68075363D01*
X139618841Y-67995937D01*
X139612974Y-67937579D01*
X139611968Y-67896198D01*
X139615121Y-67867702D01*
X139619863Y-67852154D01*
X139669646Y-67787701D01*
X139750111Y-67736211D01*
X139841154Y-67709586D01*
X139863034Y-67708211D01*
X139907044Y-67705260D01*
X139936862Y-67692735D01*
X139953023Y-67663807D01*
X139956065Y-67611647D01*
X139946526Y-67529423D01*
X139924941Y-67410306D01*
X139897218Y-67273463D01*
X139869015Y-67137728D01*
X139843936Y-67018855D01*
X139823957Y-66926076D01*
X139811056Y-66868619D01*
X139807643Y-66855261D01*
X139783686Y-66845000D01*
X139719765Y-66846005D01*
X139612377Y-66858498D01*
X139510548Y-66874022D01*
X139142514Y-66928062D01*
X138752591Y-66975341D01*
X138354618Y-67014661D01*
X137962439Y-67044826D01*
X137589894Y-67064638D01*
X137250825Y-67072900D01*
X137209550Y-67073064D01*
X136796800Y-67073600D01*
X136796800Y-68089600D01*
X137326409Y-68089599D01*
X137518232Y-68091027D01*
X137681856Y-68095123D01*
X137811242Y-68101609D01*
X137900354Y-68110207D01*
X137936781Y-68117753D01*
X137971167Y-68130314D01*
X138000065Y-68144817D01*
X138023954Y-68165491D01*
X138043309Y-68196564D01*
X138058608Y-68242263D01*
X138070328Y-68306818D01*
X138078945Y-68394455D01*
X138084937Y-68509404D01*
X138088780Y-68655893D01*
X138090952Y-68838149D01*
X138091930Y-69060401D01*
X138092190Y-69326877D01*
X138092200Y-69495511D01*
X138092200Y-70700745D01*
X138314450Y-70709622D01*
X138521754Y-70735850D01*
X138698669Y-70798934D01*
X138853189Y-70902458D01*
X138944267Y-70991863D01*
X139057734Y-71147337D01*
X139126926Y-71315796D01*
X139154890Y-71506166D01*
X139154584Y-71607500D01*
X139123595Y-71818762D01*
X139050212Y-72002057D01*
X138934544Y-72157214D01*
X138776699Y-72284066D01*
X138682284Y-72336683D01*
X138512500Y-72420300D01*
X137572100Y-72425401D01*
X137308681Y-72426383D01*
X137091585Y-72426121D01*
X136916347Y-72424495D01*
X136778504Y-72421383D01*
X136673590Y-72416662D01*
X136597142Y-72410212D01*
X136544695Y-72401910D01*
X136525634Y-72396887D01*
X136340823Y-72312271D01*
X136180786Y-72185342D01*
X136050403Y-72020526D01*
X135991677Y-71912300D01*
X135920500Y-71759900D01*
X135919180Y-71450272D01*
X136340562Y-71450272D01*
X136348284Y-71557947D01*
X136351459Y-71584169D01*
X136392573Y-71736619D01*
X136471920Y-71856998D01*
X136586331Y-71942669D01*
X136732637Y-71990998D01*
X136852981Y-72001200D01*
X137000000Y-72001200D01*
X137000000Y-71854181D01*
X136979523Y-71687334D01*
X136919851Y-71550151D01*
X136823617Y-71445802D01*
X136693458Y-71377457D01*
X136582969Y-71352659D01*
X136466538Y-71341934D01*
X136392271Y-71349682D01*
X136352751Y-71383322D01*
X136340562Y-71450272D01*
X135919180Y-71450272D01*
X135913138Y-70034052D01*
X135911822Y-69672428D01*
X135911301Y-69410400D01*
X136365000Y-69410400D01*
X136365000Y-70901839D01*
X136578500Y-70915159D01*
X136784116Y-70944176D01*
X136957543Y-71005893D01*
X137108580Y-71104421D01*
X137175404Y-71165395D01*
X137292961Y-71307210D01*
X137371463Y-71462802D01*
X137415405Y-71643143D01*
X137427665Y-71781247D01*
X137437025Y-72005794D01*
X137923362Y-71996731D01*
X138100824Y-71992702D01*
X138235081Y-71987656D01*
X138333729Y-71980883D01*
X138404363Y-71971672D01*
X138454578Y-71959314D01*
X138490936Y-71943660D01*
X138596336Y-71861798D01*
X138672249Y-71752948D01*
X138714399Y-71629282D01*
X138718511Y-71502971D01*
X138684243Y-71393406D01*
X138634784Y-71322665D01*
X138566082Y-71250090D01*
X138541369Y-71228854D01*
X138500290Y-71197520D01*
X138462146Y-71175614D01*
X138416558Y-71160982D01*
X138353149Y-71151474D01*
X138261541Y-71144939D01*
X138131355Y-71139223D01*
X138103842Y-71138148D01*
X137984191Y-71134589D01*
X137887437Y-71130888D01*
X137811120Y-71122116D01*
X137752778Y-71103341D01*
X137709949Y-71069633D01*
X137680171Y-71016063D01*
X137660983Y-70937700D01*
X137649922Y-70829614D01*
X137644528Y-70686874D01*
X137642338Y-70504551D01*
X137640891Y-70277714D01*
X137640324Y-70209827D01*
X137632948Y-69410400D01*
X136365000Y-69410400D01*
X135911301Y-69410400D01*
X135911198Y-69358769D01*
X135911302Y-69090247D01*
X135912171Y-68864031D01*
X135912576Y-68818735D01*
X136342773Y-68818735D01*
X136344585Y-68897507D01*
X136349790Y-68942832D01*
X136350477Y-68944910D01*
X136363098Y-68955759D01*
X136395106Y-68963923D01*
X136451836Y-68969629D01*
X136538625Y-68973103D01*
X136660811Y-68974571D01*
X136823729Y-68974260D01*
X137005720Y-68972687D01*
X137647700Y-68965900D01*
X137647700Y-68534100D01*
X136352300Y-68534100D01*
X136344757Y-68722222D01*
X136342773Y-68818735D01*
X135912576Y-68818735D01*
X135913842Y-68677292D01*
X135916352Y-68527200D01*
X135919737Y-68410925D01*
X135924034Y-68325638D01*
X135929281Y-68268508D01*
X135935513Y-68236707D01*
X135936563Y-68233878D01*
X135992680Y-68161679D01*
X136086670Y-68112296D01*
X136208997Y-68090308D01*
X136237184Y-68089600D01*
X136339600Y-68089600D01*
X136339600Y-67075901D01*
X136257050Y-67063133D01*
X136196759Y-67056267D01*
X136100997Y-67048078D01*
X135985028Y-67039792D01*
X135907800Y-67035038D01*
X135485077Y-67002009D01*
X135028907Y-66950256D01*
X134552330Y-66881531D01*
X134068388Y-66797586D01*
X133905275Y-66766045D01*
X133771150Y-66740367D01*
X133655270Y-66719988D01*
X133566427Y-66706313D01*
X133513415Y-66700744D01*
X133502543Y-66701789D01*
X133492124Y-66728424D01*
X133470987Y-66793729D01*
X133441903Y-66888218D01*
X133407642Y-67002406D01*
X133370973Y-67126808D01*
X133334665Y-67251938D01*
X133301489Y-67368311D01*
X133274214Y-67466442D01*
X133255609Y-67536844D01*
X133248445Y-67570032D01*
X133248632Y-67571371D01*
X133273337Y-67579206D01*
X133339776Y-67599049D01*
X133440875Y-67628821D01*
X133569560Y-67666442D01*
X133718759Y-67709835D01*
X133786900Y-67729588D01*
X133970434Y-67783530D01*
X134111098Y-67826986D01*
X134215172Y-67862301D01*
X134288937Y-67891822D01*
X134338676Y-67917894D01*
X134370668Y-67942864D01*
X134377450Y-67950148D01*
X134416989Y-68009727D01*
X134434547Y-68063594D01*
X134434600Y-68065788D01*
X134427686Y-68101290D01*
X134408052Y-68179466D01*
X134377360Y-68294269D01*
X134337272Y-68439651D01*
X134289450Y-68609565D01*
X134235556Y-68797965D01*
X134193300Y-68943811D01*
X134136239Y-69140222D01*
X134083991Y-69321030D01*
X134038198Y-69480477D01*
X134000503Y-69612806D01*
X133972547Y-69712258D01*
X133955973Y-69773074D01*
X133952000Y-69789900D01*
X133974191Y-69806157D01*
X134031852Y-69830598D01*
X134098050Y-69853250D01*
X134230174Y-69898896D01*
X134331194Y-69946531D01*
X134420053Y-70006850D01*
X134511503Y-70086615D01*
X134636807Y-70236412D01*
X134723709Y-70410187D01*
X134770185Y-70598133D01*
X134774212Y-70790440D01*
X134733768Y-70977301D01*
X134708254Y-71040645D01*
X134599189Y-71221951D01*
X134454584Y-71373109D01*
X134289578Y-71482086D01*
X134211351Y-71518780D01*
X134143507Y-71540809D01*
X134068155Y-71551619D01*
X133967402Y-71554656D01*
X133913900Y-71554449D01*
X133847175Y-71552998D01*
X133784014Y-71548852D01*
X133717880Y-71540491D01*
X133642236Y-71526397D01*
X133550543Y-71505049D01*
X133436264Y-71474930D01*
X133292862Y-71434518D01*
X133113798Y-71382297D01*
X132897932Y-71318349D01*
X132701440Y-71258988D01*
X132516213Y-71201263D01*
X132349078Y-71147438D01*
X132206859Y-71099775D01*
X132096382Y-71060537D01*
X132024471Y-71031984D01*
X132005094Y-71022412D01*
X131874452Y-70922681D01*
X131756016Y-70789756D01*
X131664393Y-70641188D01*
X131638984Y-70582536D01*
X131617834Y-70522004D01*
X131602037Y-70462499D01*
X131592386Y-70399780D01*
X131589673Y-70329605D01*
X131594692Y-70247731D01*
X131594989Y-70245581D01*
X132024342Y-70245581D01*
X132038186Y-70394250D01*
X132094002Y-70521100D01*
X132183924Y-70616035D01*
X132242900Y-70651254D01*
X132322188Y-70687127D01*
X132406304Y-70718098D01*
X132479762Y-70738614D01*
X132527077Y-70743118D01*
X132532825Y-70741198D01*
X132548023Y-70713164D01*
X132568095Y-70652797D01*
X132577275Y-70618784D01*
X132602229Y-70443323D01*
X132583709Y-70292030D01*
X132522809Y-70166930D01*
X132420623Y-70070046D01*
X132278244Y-70003400D01*
X132238719Y-69992257D01*
X132156051Y-69974351D01*
X132107515Y-69977915D01*
X132078572Y-70009868D01*
X132054684Y-70077130D01*
X132053735Y-70080295D01*
X132024342Y-70245581D01*
X131594989Y-70245581D01*
X131608235Y-70149917D01*
X131631095Y-70031920D01*
X131664066Y-69889499D01*
X131707940Y-69718412D01*
X131763510Y-69514418D01*
X131763891Y-69513066D01*
X132236704Y-69513066D01*
X132261099Y-69535494D01*
X132323060Y-69556004D01*
X132341514Y-69560758D01*
X132548431Y-69637149D01*
X132727951Y-69755984D01*
X132824031Y-69848630D01*
X132948789Y-70019194D01*
X133024860Y-70204118D01*
X133052286Y-70403581D01*
X133031108Y-70617763D01*
X133016473Y-70680400D01*
X132993429Y-70770436D01*
X132977075Y-70838119D01*
X132970275Y-70871477D01*
X132970369Y-70873039D01*
X132994735Y-70880388D01*
X133059824Y-70899380D01*
X133157525Y-70927665D01*
X133279728Y-70962892D01*
X133380500Y-70991857D01*
X133581194Y-71046882D01*
X133741289Y-71084143D01*
X133867560Y-71104213D01*
X133966784Y-71107661D01*
X134045736Y-71095060D01*
X134111193Y-71066980D01*
X134130058Y-71055050D01*
X134241656Y-70952878D01*
X134309474Y-70831328D01*
X134331088Y-70696945D01*
X134309313Y-70571291D01*
X134273145Y-70487206D01*
X134221436Y-70418847D01*
X134146724Y-70361322D01*
X134041549Y-70309743D01*
X133898452Y-70259218D01*
X133779613Y-70224076D01*
X133628942Y-70170112D01*
X133521146Y-70106007D01*
X133459011Y-70033841D01*
X133444036Y-69973601D01*
X133450778Y-69936179D01*
X133469453Y-69858800D01*
X133497773Y-69750277D01*
X133533448Y-69619422D01*
X133567182Y-69499540D01*
X133690293Y-69067980D01*
X133083836Y-68892767D01*
X132916858Y-68845161D01*
X132766447Y-68803497D01*
X132639325Y-68769536D01*
X132542215Y-68745042D01*
X132481839Y-68731778D01*
X132464559Y-68730374D01*
X132453312Y-68758184D01*
X132431236Y-68825734D01*
X132401191Y-68923845D01*
X132366036Y-69043336D01*
X132353600Y-69086599D01*
X132316739Y-69215197D01*
X132283777Y-69329481D01*
X132257761Y-69418935D01*
X132241740Y-69473040D01*
X132239432Y-69480510D01*
X132236704Y-69513066D01*
X131763891Y-69513066D01*
X131831569Y-69273273D01*
X131912911Y-68990736D01*
X131979155Y-68762700D01*
X132065674Y-68465673D01*
X132120576Y-68278375D01*
X132585182Y-68278375D01*
X132585665Y-68281054D01*
X132610084Y-68289166D01*
X132675360Y-68309246D01*
X132773608Y-68338953D01*
X132896943Y-68375944D01*
X133037478Y-68417876D01*
X133187328Y-68462409D01*
X133338609Y-68507200D01*
X133483434Y-68549907D01*
X133613917Y-68588188D01*
X133722174Y-68619700D01*
X133800319Y-68642103D01*
X133817574Y-68646937D01*
X133826795Y-68625336D01*
X133846191Y-68567036D01*
X133871764Y-68484119D01*
X133874724Y-68474211D01*
X133900559Y-68382428D01*
X133919141Y-68306806D01*
X133926588Y-68263197D01*
X133926600Y-68262367D01*
X133910829Y-68244814D01*
X133861286Y-68220412D01*
X133774621Y-68187968D01*
X133647486Y-68146292D01*
X133476533Y-68094194D01*
X133345071Y-68055555D01*
X133180055Y-68007976D01*
X133030218Y-67965572D01*
X132902794Y-67930326D01*
X132805016Y-67904220D01*
X132744117Y-67889236D01*
X132727859Y-67886400D01*
X132701028Y-67910657D01*
X132668392Y-67980171D01*
X132635204Y-68080049D01*
X132609466Y-68171332D01*
X132591797Y-68241477D01*
X132585182Y-68278375D01*
X132120576Y-68278375D01*
X132139511Y-68213779D01*
X132202280Y-68003403D01*
X132255592Y-67830931D01*
X132301060Y-67692746D01*
X132340297Y-67585236D01*
X132374916Y-67504785D01*
X132406529Y-67447779D01*
X132436749Y-67410602D01*
X132467189Y-67389640D01*
X132499461Y-67381278D01*
X132535179Y-67381902D01*
X132575954Y-67387897D01*
X132591338Y-67390531D01*
X132671310Y-67404797D01*
X132730404Y-67412203D01*
X132773996Y-67406727D01*
X132807456Y-67382349D01*
X132836160Y-67333047D01*
X132865479Y-67252800D01*
X132900787Y-67135587D01*
X132940408Y-66999371D01*
X132980105Y-66862513D01*
X133013694Y-66743901D01*
X133038973Y-66651542D01*
X133053741Y-66593442D01*
X133056504Y-66577004D01*
X133031211Y-66568645D01*
X132965633Y-66549084D01*
X132868399Y-66520842D01*
X132748135Y-66486435D01*
X132682000Y-66467689D01*
X132513582Y-66418696D01*
X132325643Y-66361773D01*
X132140876Y-66303910D01*
X131981972Y-66252099D01*
X131978937Y-66251080D01*
X131644175Y-66138549D01*
X131597937Y-66190574D01*
X131508644Y-66261125D01*
X131386482Y-66317466D01*
X131248802Y-66353039D01*
X131143937Y-66362151D01*
X130966452Y-66339096D01*
X130809401Y-66273111D01*
X130678424Y-66169863D01*
X130579164Y-66035020D01*
X130517262Y-65874251D01*
X130500662Y-65734433D01*
X130949435Y-65734433D01*
X130972412Y-65825340D01*
X131027826Y-65887281D01*
X131104301Y-65917001D01*
X131190461Y-65911244D01*
X131274930Y-65866753D01*
X131306396Y-65836599D01*
X131348398Y-65772426D01*
X131352688Y-65705195D01*
X131350544Y-65693172D01*
X131312104Y-65597715D01*
X131249302Y-65537039D01*
X131172984Y-65510029D01*
X131093994Y-65515569D01*
X131023178Y-65552543D01*
X130971381Y-65619836D01*
X130949448Y-65716332D01*
X130949435Y-65734433D01*
X130500662Y-65734433D01*
X130498157Y-65713337D01*
X130520886Y-65536336D01*
X130586567Y-65379460D01*
X130689425Y-65248466D01*
X130823688Y-65149110D01*
X130983579Y-65087149D01*
X131145300Y-65068115D01*
X131326288Y-65091378D01*
X131486061Y-65157975D01*
X131618924Y-65263119D01*
X131719183Y-65402023D01*
X131781141Y-65569900D01*
X131788880Y-65609131D01*
X131806698Y-65714700D01*
X132047499Y-65798703D01*
X132750631Y-66023002D01*
X133477922Y-66213346D01*
X134233962Y-66370738D01*
X135023340Y-66496180D01*
X135526800Y-66557832D01*
X135706677Y-66573422D01*
X135928524Y-66586070D01*
X136183597Y-66595776D01*
X136463151Y-66602541D01*
X136758442Y-66606364D01*
X137060724Y-66607245D01*
X137361254Y-66605185D01*
X137651287Y-66600183D01*
X137922078Y-66592239D01*
X138164882Y-66581353D01*
X138370956Y-66567526D01*
X138473200Y-66557832D01*
X139270745Y-66453901D01*
X140031676Y-66320191D01*
X140761360Y-66155533D01*
X141465161Y-65958755D01*
X141952500Y-65798760D01*
X142193301Y-65714700D01*
X142199112Y-65680266D01*
X142650694Y-65680266D01*
X142652181Y-65770797D01*
X142691838Y-65844117D01*
X142758377Y-65894602D01*
X142840507Y-65916629D01*
X142926938Y-65904574D01*
X143003290Y-65855902D01*
X143040268Y-65788490D01*
X143050280Y-65714700D01*
X143030731Y-65620935D01*
X142979668Y-65555377D01*
X142908463Y-65519004D01*
X142828491Y-65512797D01*
X142751124Y-65537736D01*
X142687737Y-65594801D01*
X142650694Y-65680266D01*
X142199112Y-65680266D01*
X142211119Y-65609131D01*
X142264134Y-65435572D01*
X142356678Y-65290098D01*
X142483203Y-65177366D01*
X142638160Y-65102036D01*
X142816003Y-65068766D01*
X142856062Y-65067557D01*
X143027877Y-65089141D01*
G37*
X143027877Y-65089141D02*
X143177224Y-65150535D01*
X143301325Y-65244717D01*
X143397404Y-65364669D01*
X143462680Y-65503370D01*
X143494375Y-65653801D01*
X143489712Y-65808940D01*
X143445912Y-65961768D01*
X143360196Y-66105265D01*
X143295075Y-66176812D01*
X143149915Y-66283282D01*
X142989107Y-66344768D01*
X142820816Y-66360786D01*
X142653209Y-66330852D01*
X142494450Y-66254480D01*
X142455291Y-66226699D01*
X142346700Y-66143832D01*
X141902200Y-66288887D01*
X141632701Y-66373920D01*
X141347940Y-66458575D01*
X141062652Y-66538741D01*
X140791572Y-66610310D01*
X140549432Y-66669173D01*
X140492500Y-66682008D01*
X140395750Y-66704830D01*
X140318505Y-66725729D01*
X140274002Y-66741038D01*
X140269168Y-66743859D01*
X140268777Y-66771429D01*
X140276804Y-66838578D01*
X140291404Y-66935136D01*
X140310734Y-67050929D01*
X140332950Y-67175785D01*
X140356208Y-67299532D01*
X140378664Y-67411997D01*
X140398475Y-67503007D01*
X140413796Y-67562390D01*
X140420614Y-67579397D01*
X140446772Y-67577639D01*
X140515376Y-67566839D01*
X140619142Y-67548318D01*
X140750783Y-67523394D01*
X140903015Y-67493389D01*
X140969397Y-67479983D01*
X141167205Y-67440629D01*
X141321789Y-67412560D01*
X141439425Y-67395658D01*
X141526393Y-67389798D01*
X141588968Y-67394860D01*
X141633430Y-67410723D01*
X141666055Y-67437263D01*
X141687820Y-67466055D01*
X141702423Y-67505068D01*
X141725388Y-67587600D01*
X141755227Y-67707333D01*
X141790448Y-67857950D01*
X141829564Y-68033135D01*
X141871083Y-68226569D01*
X141900490Y-68368034D01*
X141941790Y-68567764D01*
X141980395Y-68751384D01*
X142015022Y-68913023D01*
X142044388Y-69046810D01*
X142067208Y-69146877D01*
X142082199Y-69207352D01*
X142087490Y-69223156D01*
X142117973Y-69226449D01*
X142184382Y-69221345D01*
X142272740Y-69208954D01*
X142278691Y-69207960D01*
X142493389Y-69194988D01*
X142695605Y-69228034D01*
X142879650Y-69304205D01*
X143039833Y-69420604D01*
X143170465Y-69574338D01*
X143238360Y-69696214D01*
X143278435Y-69793013D01*
X143300850Y-69879545D01*
X143310277Y-69978911D01*
X143311650Y-70058634D01*
X143309053Y-70171833D01*
X143297581Y-70256926D01*
X143272206Y-70336463D01*
X143228416Y-70431947D01*
X143118164Y-70605765D01*
X142978138Y-70744275D01*
X142814535Y-70841605D01*
X142782236Y-70854608D01*
X142707797Y-70877710D01*
X142592792Y-70907436D01*
X142445236Y-70942186D01*
X142273143Y-70980362D01*
X142084527Y-71020366D01*
X141887403Y-71060598D01*
X141689785Y-71099460D01*
X141499687Y-71135354D01*
X141325125Y-71166680D01*
X141174112Y-71191839D01*
X141054663Y-71209234D01*
X140974792Y-71217265D01*
X140962400Y-71217622D01*
X140772053Y-71195143D01*
X140591780Y-71130552D01*
X140429813Y-71029868D01*
X140294380Y-70899115D01*
X140193711Y-70744311D01*
X140147379Y-70621352D01*
X140137142Y-70577443D01*
X140117844Y-70488857D01*
X140090552Y-70360695D01*
X140067600Y-70251606D01*
X140516787Y-70251606D01*
X140517691Y-70297040D01*
X140536053Y-70374266D01*
X140557493Y-70454834D01*
X140617262Y-70587032D01*
X140717301Y-70697041D01*
X140769647Y-70733969D01*
X140860321Y-70766744D01*
X140981695Y-70779146D01*
X141117507Y-70770178D01*
X141178300Y-70759060D01*
X141229590Y-70741738D01*
X141248460Y-70709209D01*
X141248125Y-70654115D01*
X141215894Y-70486727D01*
X141147805Y-70354426D01*
X141046751Y-70259447D01*
X140915620Y-70204023D01*
X140757305Y-70190390D01*
X140662090Y-70201093D01*
X140584659Y-70214130D01*
X140537667Y-70227469D01*
X140516787Y-70251606D01*
X140067600Y-70251606D01*
X140056333Y-70198057D01*
X140016256Y-70006047D01*
X139971387Y-69789766D01*
X139922794Y-69554315D01*
X139871544Y-69304797D01*
X139854893Y-69223478D01*
X139802003Y-68964227D01*
X140259470Y-68964227D01*
X140262219Y-68988496D01*
X140274048Y-69052273D01*
X140292793Y-69145526D01*
X140316292Y-69258222D01*
X140342382Y-69380328D01*
X140368901Y-69501813D01*
X140393685Y-69612644D01*
X140414572Y-69702789D01*
X140429399Y-69762214D01*
X140435548Y-69781015D01*
X140464637Y-69782462D01*
X140527377Y-69774052D01*
X140582351Y-69763423D01*
X140797513Y-69741029D01*
X141001139Y-69765649D01*
X141188208Y-69833914D01*
X141353699Y-69942456D01*
X141492592Y-70087907D01*
X141599866Y-70266900D01*
X141670500Y-70476068D01*
X141674887Y-70496250D01*
X141699556Y-70583013D01*
X141727479Y-70625863D01*
X141738622Y-70629600D01*
X141774517Y-70624593D01*
X141851056Y-70610734D01*
X141959202Y-70589763D01*
X142089914Y-70563423D01*
X142194687Y-70541742D01*
X142339705Y-70509847D01*
X142471838Y-70477887D01*
X142581033Y-70448516D01*
X142657241Y-70424384D01*
X142685077Y-70412331D01*
X142787112Y-70324560D01*
X142853775Y-70209429D01*
X142881674Y-70079048D01*
X142867413Y-69945527D01*
X142837283Y-69869086D01*
X142764154Y-69761285D01*
X142672425Y-69688972D01*
X142556433Y-69650427D01*
X142410512Y-69643930D01*
X142228998Y-69667759D01*
X142196117Y-69674304D01*
X142052366Y-69702350D01*
X141940172Y-69716514D01*
X141854054Y-69711936D01*
X141788529Y-69683760D01*
X141738115Y-69627127D01*
X141697329Y-69537180D01*
X141660688Y-69409063D01*
X141622711Y-69237916D01*
X141604686Y-69150281D01*
X141514306Y-68707124D01*
X140889103Y-68834642D01*
X140718296Y-68869525D01*
X140564928Y-68900931D01*
X140435710Y-68927479D01*
X140337352Y-68947789D01*
X140276567Y-68960478D01*
X140259470Y-68964227D01*
X139802003Y-68964227D01*
X139795371Y-68931719D01*
X139745618Y-68685579D01*
X139704932Y-68480965D01*
X139672613Y-68313785D01*
X139647959Y-68179948D01*
X139641937Y-68144347D01*
X140089517Y-68144347D01*
X140095955Y-68208828D01*
X140110621Y-68291817D01*
X140130328Y-68378898D01*
X140151891Y-68455656D01*
X140172126Y-68507674D01*
X140184859Y-68521801D01*
X140216841Y-68517051D01*
X140291262Y-68503503D01*
X140400797Y-68482570D01*
X140538121Y-68455665D01*
X140695910Y-68424200D01*
X140797300Y-68403730D01*
X140963507Y-68369415D01*
X141113182Y-68337351D01*
X141239088Y-68309184D01*
X141333986Y-68286559D01*
X141390639Y-68271122D01*
X141403277Y-68265981D01*
X141409650Y-68233126D01*
X141405986Y-68166643D01*
X141394879Y-68082113D01*
X141378923Y-67995111D01*
X141360714Y-67921216D01*
X141342848Y-67876006D01*
X141337301Y-67869930D01*
X141307701Y-67871135D01*
X141236770Y-67881259D01*
X141132872Y-67898669D01*
X141004368Y-67921731D01*
X140859620Y-67948810D01*
X140706990Y-67978272D01*
X140554840Y-68008484D01*
X140411531Y-68037812D01*
X140285426Y-68064621D01*
X140184886Y-68087278D01*
X140118274Y-68104148D01*
X140094489Y-68112790D01*
X140089517Y-68144347D01*
X139641937Y-68144347D01*
X139630268Y-68075363D01*
X139618841Y-67995937D01*
X139612974Y-67937579D01*
X139611968Y-67896198D01*
X139615121Y-67867702D01*
X139619863Y-67852154D01*
X139669646Y-67787701D01*
X139750111Y-67736211D01*
X139841154Y-67709586D01*
X139863034Y-67708211D01*
X139907044Y-67705260D01*
X139936862Y-67692735D01*
X139953023Y-67663807D01*
X139956065Y-67611647D01*
X139946526Y-67529423D01*
X139924941Y-67410306D01*
X139897218Y-67273463D01*
X139869015Y-67137728D01*
X139843936Y-67018855D01*
X139823957Y-66926076D01*
X139811056Y-66868619D01*
X139807643Y-66855261D01*
X139783686Y-66845000D01*
X139719765Y-66846005D01*
X139612377Y-66858498D01*
X139510548Y-66874022D01*
X139142514Y-66928062D01*
X138752591Y-66975341D01*
X138354618Y-67014661D01*
X137962439Y-67044826D01*
X137589894Y-67064638D01*
X137250825Y-67072900D01*
X137209550Y-67073064D01*
X136796800Y-67073600D01*
X136796800Y-68089600D01*
X137326409Y-68089599D01*
X137518232Y-68091027D01*
X137681856Y-68095123D01*
X137811242Y-68101609D01*
X137900354Y-68110207D01*
X137936781Y-68117753D01*
X137971167Y-68130314D01*
X138000065Y-68144817D01*
X138023954Y-68165491D01*
X138043309Y-68196564D01*
X138058608Y-68242263D01*
X138070328Y-68306818D01*
X138078945Y-68394455D01*
X138084937Y-68509404D01*
X138088780Y-68655893D01*
X138090952Y-68838149D01*
X138091930Y-69060401D01*
X138092190Y-69326877D01*
X138092200Y-69495511D01*
X138092200Y-70700745D01*
X138314450Y-70709622D01*
X138521754Y-70735850D01*
X138698669Y-70798934D01*
X138853189Y-70902458D01*
X138944267Y-70991863D01*
X139057734Y-71147337D01*
X139126926Y-71315796D01*
X139154890Y-71506166D01*
X139154584Y-71607500D01*
X139123595Y-71818762D01*
X139050212Y-72002057D01*
X138934544Y-72157214D01*
X138776699Y-72284066D01*
X138682284Y-72336683D01*
X138512500Y-72420300D01*
X137572100Y-72425401D01*
X137308681Y-72426383D01*
X137091585Y-72426121D01*
X136916347Y-72424495D01*
X136778504Y-72421383D01*
X136673590Y-72416662D01*
X136597142Y-72410212D01*
X136544695Y-72401910D01*
X136525634Y-72396887D01*
X136340823Y-72312271D01*
X136180786Y-72185342D01*
X136050403Y-72020526D01*
X135991677Y-71912300D01*
X135920500Y-71759900D01*
X135919180Y-71450272D01*
X136340562Y-71450272D01*
X136348284Y-71557947D01*
X136351459Y-71584169D01*
X136392573Y-71736619D01*
X136471920Y-71856998D01*
X136586331Y-71942669D01*
X136732637Y-71990998D01*
X136852981Y-72001200D01*
X137000000Y-72001200D01*
X137000000Y-71854181D01*
X136979523Y-71687334D01*
X136919851Y-71550151D01*
X136823617Y-71445802D01*
X136693458Y-71377457D01*
X136582969Y-71352659D01*
X136466538Y-71341934D01*
X136392271Y-71349682D01*
X136352751Y-71383322D01*
X136340562Y-71450272D01*
X135919180Y-71450272D01*
X135913138Y-70034052D01*
X135911822Y-69672428D01*
X135911301Y-69410400D01*
X136365000Y-69410400D01*
X136365000Y-70901839D01*
X136578500Y-70915159D01*
X136784116Y-70944176D01*
X136957543Y-71005893D01*
X137108580Y-71104421D01*
X137175404Y-71165395D01*
X137292961Y-71307210D01*
X137371463Y-71462802D01*
X137415405Y-71643143D01*
X137427665Y-71781247D01*
X137437025Y-72005794D01*
X137923362Y-71996731D01*
X138100824Y-71992702D01*
X138235081Y-71987656D01*
X138333729Y-71980883D01*
X138404363Y-71971672D01*
X138454578Y-71959314D01*
X138490936Y-71943660D01*
X138596336Y-71861798D01*
X138672249Y-71752948D01*
X138714399Y-71629282D01*
X138718511Y-71502971D01*
X138684243Y-71393406D01*
X138634784Y-71322665D01*
X138566082Y-71250090D01*
X138541369Y-71228854D01*
X138500290Y-71197520D01*
X138462146Y-71175614D01*
X138416558Y-71160982D01*
X138353149Y-71151474D01*
X138261541Y-71144939D01*
X138131355Y-71139223D01*
X138103842Y-71138148D01*
X137984191Y-71134589D01*
X137887437Y-71130888D01*
X137811120Y-71122116D01*
X137752778Y-71103341D01*
X137709949Y-71069633D01*
X137680171Y-71016063D01*
X137660983Y-70937700D01*
X137649922Y-70829614D01*
X137644528Y-70686874D01*
X137642338Y-70504551D01*
X137640891Y-70277714D01*
X137640324Y-70209827D01*
X137632948Y-69410400D01*
X136365000Y-69410400D01*
X135911301Y-69410400D01*
X135911198Y-69358769D01*
X135911302Y-69090247D01*
X135912171Y-68864031D01*
X135912576Y-68818735D01*
X136342773Y-68818735D01*
X136344585Y-68897507D01*
X136349790Y-68942832D01*
X136350477Y-68944910D01*
X136363098Y-68955759D01*
X136395106Y-68963923D01*
X136451836Y-68969629D01*
X136538625Y-68973103D01*
X136660811Y-68974571D01*
X136823729Y-68974260D01*
X137005720Y-68972687D01*
X137647700Y-68965900D01*
X137647700Y-68534100D01*
X136352300Y-68534100D01*
X136344757Y-68722222D01*
X136342773Y-68818735D01*
X135912576Y-68818735D01*
X135913842Y-68677292D01*
X135916352Y-68527200D01*
X135919737Y-68410925D01*
X135924034Y-68325638D01*
X135929281Y-68268508D01*
X135935513Y-68236707D01*
X135936563Y-68233878D01*
X135992680Y-68161679D01*
X136086670Y-68112296D01*
X136208997Y-68090308D01*
X136237184Y-68089600D01*
X136339600Y-68089600D01*
X136339600Y-67075901D01*
X136257050Y-67063133D01*
X136196759Y-67056267D01*
X136100997Y-67048078D01*
X135985028Y-67039792D01*
X135907800Y-67035038D01*
X135485077Y-67002009D01*
X135028907Y-66950256D01*
X134552330Y-66881531D01*
X134068388Y-66797586D01*
X133905275Y-66766045D01*
X133771150Y-66740367D01*
X133655270Y-66719988D01*
X133566427Y-66706313D01*
X133513415Y-66700744D01*
X133502543Y-66701789D01*
X133492124Y-66728424D01*
X133470987Y-66793729D01*
X133441903Y-66888218D01*
X133407642Y-67002406D01*
X133370973Y-67126808D01*
X133334665Y-67251938D01*
X133301489Y-67368311D01*
X133274214Y-67466442D01*
X133255609Y-67536844D01*
X133248445Y-67570032D01*
X133248632Y-67571371D01*
X133273337Y-67579206D01*
X133339776Y-67599049D01*
X133440875Y-67628821D01*
X133569560Y-67666442D01*
X133718759Y-67709835D01*
X133786900Y-67729588D01*
X133970434Y-67783530D01*
X134111098Y-67826986D01*
X134215172Y-67862301D01*
X134288937Y-67891822D01*
X134338676Y-67917894D01*
X134370668Y-67942864D01*
X134377450Y-67950148D01*
X134416989Y-68009727D01*
X134434547Y-68063594D01*
X134434600Y-68065788D01*
X134427686Y-68101290D01*
X134408052Y-68179466D01*
X134377360Y-68294269D01*
X134337272Y-68439651D01*
X134289450Y-68609565D01*
X134235556Y-68797965D01*
X134193300Y-68943811D01*
X134136239Y-69140222D01*
X134083991Y-69321030D01*
X134038198Y-69480477D01*
X134000503Y-69612806D01*
X133972547Y-69712258D01*
X133955973Y-69773074D01*
X133952000Y-69789900D01*
X133974191Y-69806157D01*
X134031852Y-69830598D01*
X134098050Y-69853250D01*
X134230174Y-69898896D01*
X134331194Y-69946531D01*
X134420053Y-70006850D01*
X134511503Y-70086615D01*
X134636807Y-70236412D01*
X134723709Y-70410187D01*
X134770185Y-70598133D01*
X134774212Y-70790440D01*
X134733768Y-70977301D01*
X134708254Y-71040645D01*
X134599189Y-71221951D01*
X134454584Y-71373109D01*
X134289578Y-71482086D01*
X134211351Y-71518780D01*
X134143507Y-71540809D01*
X134068155Y-71551619D01*
X133967402Y-71554656D01*
X133913900Y-71554449D01*
X133847175Y-71552998D01*
X133784014Y-71548852D01*
X133717880Y-71540491D01*
X133642236Y-71526397D01*
X133550543Y-71505049D01*
X133436264Y-71474930D01*
X133292862Y-71434518D01*
X133113798Y-71382297D01*
X132897932Y-71318349D01*
X132701440Y-71258988D01*
X132516213Y-71201263D01*
X132349078Y-71147438D01*
X132206859Y-71099775D01*
X132096382Y-71060537D01*
X132024471Y-71031984D01*
X132005094Y-71022412D01*
X131874452Y-70922681D01*
X131756016Y-70789756D01*
X131664393Y-70641188D01*
X131638984Y-70582536D01*
X131617834Y-70522004D01*
X131602037Y-70462499D01*
X131592386Y-70399780D01*
X131589673Y-70329605D01*
X131594692Y-70247731D01*
X131594989Y-70245581D01*
X132024342Y-70245581D01*
X132038186Y-70394250D01*
X132094002Y-70521100D01*
X132183924Y-70616035D01*
X132242900Y-70651254D01*
X132322188Y-70687127D01*
X132406304Y-70718098D01*
X132479762Y-70738614D01*
X132527077Y-70743118D01*
X132532825Y-70741198D01*
X132548023Y-70713164D01*
X132568095Y-70652797D01*
X132577275Y-70618784D01*
X132602229Y-70443323D01*
X132583709Y-70292030D01*
X132522809Y-70166930D01*
X132420623Y-70070046D01*
X132278244Y-70003400D01*
X132238719Y-69992257D01*
X132156051Y-69974351D01*
X132107515Y-69977915D01*
X132078572Y-70009868D01*
X132054684Y-70077130D01*
X132053735Y-70080295D01*
X132024342Y-70245581D01*
X131594989Y-70245581D01*
X131608235Y-70149917D01*
X131631095Y-70031920D01*
X131664066Y-69889499D01*
X131707940Y-69718412D01*
X131763510Y-69514418D01*
X131763891Y-69513066D01*
X132236704Y-69513066D01*
X132261099Y-69535494D01*
X132323060Y-69556004D01*
X132341514Y-69560758D01*
X132548431Y-69637149D01*
X132727951Y-69755984D01*
X132824031Y-69848630D01*
X132948789Y-70019194D01*
X133024860Y-70204118D01*
X133052286Y-70403581D01*
X133031108Y-70617763D01*
X133016473Y-70680400D01*
X132993429Y-70770436D01*
X132977075Y-70838119D01*
X132970275Y-70871477D01*
X132970369Y-70873039D01*
X132994735Y-70880388D01*
X133059824Y-70899380D01*
X133157525Y-70927665D01*
X133279728Y-70962892D01*
X133380500Y-70991857D01*
X133581194Y-71046882D01*
X133741289Y-71084143D01*
X133867560Y-71104213D01*
X133966784Y-71107661D01*
X134045736Y-71095060D01*
X134111193Y-71066980D01*
X134130058Y-71055050D01*
X134241656Y-70952878D01*
X134309474Y-70831328D01*
X134331088Y-70696945D01*
X134309313Y-70571291D01*
X134273145Y-70487206D01*
X134221436Y-70418847D01*
X134146724Y-70361322D01*
X134041549Y-70309743D01*
X133898452Y-70259218D01*
X133779613Y-70224076D01*
X133628942Y-70170112D01*
X133521146Y-70106007D01*
X133459011Y-70033841D01*
X133444036Y-69973601D01*
X133450778Y-69936179D01*
X133469453Y-69858800D01*
X133497773Y-69750277D01*
X133533448Y-69619422D01*
X133567182Y-69499540D01*
X133690293Y-69067980D01*
X133083836Y-68892767D01*
X132916858Y-68845161D01*
X132766447Y-68803497D01*
X132639325Y-68769536D01*
X132542215Y-68745042D01*
X132481839Y-68731778D01*
X132464559Y-68730374D01*
X132453312Y-68758184D01*
X132431236Y-68825734D01*
X132401191Y-68923845D01*
X132366036Y-69043336D01*
X132353600Y-69086599D01*
X132316739Y-69215197D01*
X132283777Y-69329481D01*
X132257761Y-69418935D01*
X132241740Y-69473040D01*
X132239432Y-69480510D01*
X132236704Y-69513066D01*
X131763891Y-69513066D01*
X131831569Y-69273273D01*
X131912911Y-68990736D01*
X131979155Y-68762700D01*
X132065674Y-68465673D01*
X132120576Y-68278375D01*
X132585182Y-68278375D01*
X132585665Y-68281054D01*
X132610084Y-68289166D01*
X132675360Y-68309246D01*
X132773608Y-68338953D01*
X132896943Y-68375944D01*
X133037478Y-68417876D01*
X133187328Y-68462409D01*
X133338609Y-68507200D01*
X133483434Y-68549907D01*
X133613917Y-68588188D01*
X133722174Y-68619700D01*
X133800319Y-68642103D01*
X133817574Y-68646937D01*
X133826795Y-68625336D01*
X133846191Y-68567036D01*
X133871764Y-68484119D01*
X133874724Y-68474211D01*
X133900559Y-68382428D01*
X133919141Y-68306806D01*
X133926588Y-68263197D01*
X133926600Y-68262367D01*
X133910829Y-68244814D01*
X133861286Y-68220412D01*
X133774621Y-68187968D01*
X133647486Y-68146292D01*
X133476533Y-68094194D01*
X133345071Y-68055555D01*
X133180055Y-68007976D01*
X133030218Y-67965572D01*
X132902794Y-67930326D01*
X132805016Y-67904220D01*
X132744117Y-67889236D01*
X132727859Y-67886400D01*
X132701028Y-67910657D01*
X132668392Y-67980171D01*
X132635204Y-68080049D01*
X132609466Y-68171332D01*
X132591797Y-68241477D01*
X132585182Y-68278375D01*
X132120576Y-68278375D01*
X132139511Y-68213779D01*
X132202280Y-68003403D01*
X132255592Y-67830931D01*
X132301060Y-67692746D01*
X132340297Y-67585236D01*
X132374916Y-67504785D01*
X132406529Y-67447779D01*
X132436749Y-67410602D01*
X132467189Y-67389640D01*
X132499461Y-67381278D01*
X132535179Y-67381902D01*
X132575954Y-67387897D01*
X132591338Y-67390531D01*
X132671310Y-67404797D01*
X132730404Y-67412203D01*
X132773996Y-67406727D01*
X132807456Y-67382349D01*
X132836160Y-67333047D01*
X132865479Y-67252800D01*
X132900787Y-67135587D01*
X132940408Y-66999371D01*
X132980105Y-66862513D01*
X133013694Y-66743901D01*
X133038973Y-66651542D01*
X133053741Y-66593442D01*
X133056504Y-66577004D01*
X133031211Y-66568645D01*
X132965633Y-66549084D01*
X132868399Y-66520842D01*
X132748135Y-66486435D01*
X132682000Y-66467689D01*
X132513582Y-66418696D01*
X132325643Y-66361773D01*
X132140876Y-66303910D01*
X131981972Y-66252099D01*
X131978937Y-66251080D01*
X131644175Y-66138549D01*
X131597937Y-66190574D01*
X131508644Y-66261125D01*
X131386482Y-66317466D01*
X131248802Y-66353039D01*
X131143937Y-66362151D01*
X130966452Y-66339096D01*
X130809401Y-66273111D01*
X130678424Y-66169863D01*
X130579164Y-66035020D01*
X130517262Y-65874251D01*
X130500662Y-65734433D01*
X130949435Y-65734433D01*
X130972412Y-65825340D01*
X131027826Y-65887281D01*
X131104301Y-65917001D01*
X131190461Y-65911244D01*
X131274930Y-65866753D01*
X131306396Y-65836599D01*
X131348398Y-65772426D01*
X131352688Y-65705195D01*
X131350544Y-65693172D01*
X131312104Y-65597715D01*
X131249302Y-65537039D01*
X131172984Y-65510029D01*
X131093994Y-65515569D01*
X131023178Y-65552543D01*
X130971381Y-65619836D01*
X130949448Y-65716332D01*
X130949435Y-65734433D01*
X130500662Y-65734433D01*
X130498157Y-65713337D01*
X130520886Y-65536336D01*
X130586567Y-65379460D01*
X130689425Y-65248466D01*
X130823688Y-65149110D01*
X130983579Y-65087149D01*
X131145300Y-65068115D01*
X131326288Y-65091378D01*
X131486061Y-65157975D01*
X131618924Y-65263119D01*
X131719183Y-65402023D01*
X131781141Y-65569900D01*
X131788880Y-65609131D01*
X131806698Y-65714700D01*
X132047499Y-65798703D01*
X132750631Y-66023002D01*
X133477922Y-66213346D01*
X134233962Y-66370738D01*
X135023340Y-66496180D01*
X135526800Y-66557832D01*
X135706677Y-66573422D01*
X135928524Y-66586070D01*
X136183597Y-66595776D01*
X136463151Y-66602541D01*
X136758442Y-66606364D01*
X137060724Y-66607245D01*
X137361254Y-66605185D01*
X137651287Y-66600183D01*
X137922078Y-66592239D01*
X138164882Y-66581353D01*
X138370956Y-66567526D01*
X138473200Y-66557832D01*
X139270745Y-66453901D01*
X140031676Y-66320191D01*
X140761360Y-66155533D01*
X141465161Y-65958755D01*
X141952500Y-65798760D01*
X142193301Y-65714700D01*
X142199112Y-65680266D01*
X142650694Y-65680266D01*
X142652181Y-65770797D01*
X142691838Y-65844117D01*
X142758377Y-65894602D01*
X142840507Y-65916629D01*
X142926938Y-65904574D01*
X143003290Y-65855902D01*
X143040268Y-65788490D01*
X143050280Y-65714700D01*
X143030731Y-65620935D01*
X142979668Y-65555377D01*
X142908463Y-65519004D01*
X142828491Y-65512797D01*
X142751124Y-65537736D01*
X142687737Y-65594801D01*
X142650694Y-65680266D01*
X142199112Y-65680266D01*
X142211119Y-65609131D01*
X142264134Y-65435572D01*
X142356678Y-65290098D01*
X142483203Y-65177366D01*
X142638160Y-65102036D01*
X142816003Y-65068766D01*
X142856062Y-65067557D01*
X143027877Y-65089141D01*
%TD*%
D12*
%TO.C,SW1*%
X104170000Y-101250000D03*
X104170000Y-98250000D03*
%TD*%
D13*
%TO.C,D1*%
X110700000Y-86875000D03*
X112800000Y-86875000D03*
X110700000Y-88125000D03*
X112800000Y-88125000D03*
%TD*%
%TO.C,D2*%
X124550000Y-75375000D03*
X122450000Y-75375000D03*
X124550000Y-74125000D03*
X122450000Y-74125000D03*
%TD*%
%TO.C,D3*%
X153450000Y-73625000D03*
X155550000Y-73625000D03*
X153450000Y-74875000D03*
X155550000Y-74875000D03*
%TD*%
%TO.C,D4*%
X131800000Y-109625000D03*
X129700000Y-109625000D03*
X131800000Y-108375000D03*
X129700000Y-108375000D03*
%TD*%
%TO.C,D5*%
X115950000Y-114375000D03*
X118050000Y-114375000D03*
X115950000Y-115625000D03*
X118050000Y-115625000D03*
%TD*%
%TO.C,D6*%
X117300000Y-101875000D03*
X115200000Y-101875000D03*
X117300000Y-100625000D03*
X115200000Y-100625000D03*
%TD*%
%TO.C,D7*%
X142200000Y-129125000D03*
X144300000Y-129125000D03*
X142200000Y-130375000D03*
X144300000Y-130375000D03*
%TD*%
%TO.C,D8*%
X164550000Y-111625000D03*
X162450000Y-111625000D03*
X164550000Y-110375000D03*
X162450000Y-110375000D03*
%TD*%
%TO.C,D9*%
X133450000Y-73625000D03*
X135550000Y-73625000D03*
X133450000Y-74875000D03*
X135550000Y-74875000D03*
%TD*%
%TO.C,D10*%
X147050000Y-103625000D03*
X144950000Y-103625000D03*
X147050000Y-102375000D03*
X144950000Y-102375000D03*
%TD*%
%TO.C,D11*%
X125950000Y-126125000D03*
X128050000Y-126125000D03*
X125950000Y-127375000D03*
X128050000Y-127375000D03*
%TD*%
%TO.C,D12*%
X137950000Y-93125000D03*
X140050000Y-93125000D03*
X137950000Y-94375000D03*
X140050000Y-94375000D03*
%TD*%
M02*
