%TF.GenerationSoftware,KiCad,Pcbnew,(6.0.7)*%
%TF.CreationDate,2022-09-13T17:01:02+02:00*%
%TF.ProjectId,TVZ_kuglica,54565a5f-6b75-4676-9c69-63612e6b6963,rev?*%
%TF.SameCoordinates,Original*%
%TF.FileFunction,Copper,L1,Top*%
%TF.FilePolarity,Positive*%
%FSLAX46Y46*%
G04 Gerber Fmt 4.6, Leading zero omitted, Abs format (unit mm)*
G04 Created by KiCad (PCBNEW (6.0.7)) date 2022-09-13 17:01:02*
%MOMM*%
%LPD*%
G01*
G04 APERTURE LIST*
%TA.AperFunction,SMDPad,CuDef*%
%ADD10R,1.100000X0.750000*%
%TD*%
%TA.AperFunction,ViaPad*%
%ADD11C,0.800000*%
%TD*%
%TA.AperFunction,Conductor*%
%ADD12C,0.762000*%
%TD*%
G04 APERTURE END LIST*
D10*
%TO.P,D3,1,K*%
%TO.N,Net-(D3-Pad1)*%
X147050000Y-77125000D03*
X147050000Y-75875000D03*
%TO.P,D3,2,A*%
%TO.N,GND*%
X144950000Y-75875000D03*
X144950000Y-77125000D03*
%TD*%
%TO.P,D5,1,K*%
%TO.N,Net-(D5-Pad1)*%
X111450000Y-111375000D03*
X111450000Y-112625000D03*
%TO.P,D5,2,A*%
%TO.N,GND*%
X113550000Y-111375000D03*
X113550000Y-112625000D03*
%TD*%
%TO.P,D8,1,K*%
%TO.N,Net-(D8-Pad1)*%
X163200000Y-105625000D03*
X163200000Y-104375000D03*
%TO.P,D8,2,A*%
%TO.N,GND*%
X165300000Y-104375000D03*
X165300000Y-105625000D03*
%TD*%
%TO.P,D2,1,K*%
%TO.N,Net-(D2-Pad1)*%
X122450000Y-75375000D03*
X122450000Y-74125000D03*
%TO.P,D2,2,A*%
%TO.N,GND*%
X124550000Y-74125000D03*
X124550000Y-75375000D03*
%TD*%
%TO.P,D7,1,K*%
%TO.N,Net-(D7-Pad1)*%
X135950000Y-129375000D03*
X135950000Y-130625000D03*
%TO.P,D7,2,A*%
%TO.N,GND*%
X138050000Y-130625000D03*
X138050000Y-129375000D03*
%TD*%
%TO.P,D11,1,K*%
%TO.N,Net-(D11-Pad1)*%
X138450000Y-93375000D03*
X138450000Y-94625000D03*
%TO.P,D11,2,A*%
%TO.N,GND*%
X140550000Y-94625000D03*
X140550000Y-93375000D03*
%TD*%
D11*
%TO.N,GND*%
X156750000Y-90750000D03*
X151500000Y-129750000D03*
X131000000Y-78500000D03*
X161250000Y-114250000D03*
X128750000Y-102750000D03*
X121750000Y-129000000D03*
X115000000Y-117000000D03*
X114250000Y-94500000D03*
%TO.N,Net-(D2-Pad1)*%
X121500000Y-74750000D03*
%TO.N,Net-(D3-Pad1)*%
X148000000Y-76500000D03*
%TO.N,Net-(D5-Pad1)*%
X110500000Y-112000000D03*
%TO.N,Net-(D7-Pad1)*%
X136000000Y-128250000D03*
%TO.N,Net-(D8-Pad1)*%
X162250000Y-105000000D03*
%TO.N,Net-(D11-Pad1)*%
X137500000Y-94000000D03*
%TD*%
D12*
%TO.N,Net-(D2-Pad1)*%
X121825000Y-74750000D02*
X122450000Y-74125000D01*
X121500000Y-74750000D02*
X121825000Y-74750000D01*
X121825000Y-74750000D02*
X122450000Y-75375000D01*
%TO.N,Net-(D3-Pad1)*%
X147675000Y-76500000D02*
X147050000Y-77125000D01*
X147675000Y-76500000D02*
X147050000Y-75875000D01*
X148000000Y-76500000D02*
X147675000Y-76500000D01*
%TO.N,Net-(D5-Pad1)*%
X110825000Y-112000000D02*
X111450000Y-112625000D01*
X110825000Y-112000000D02*
X111450000Y-111375000D01*
X110500000Y-112000000D02*
X110825000Y-112000000D01*
%TO.N,Net-(D7-Pad1)*%
X135950000Y-130625000D02*
X135950000Y-129375000D01*
X136000000Y-129325000D02*
X135950000Y-129375000D01*
X136000000Y-128250000D02*
X136000000Y-129325000D01*
%TO.N,Net-(D8-Pad1)*%
X162250000Y-105000000D02*
X162575000Y-105000000D01*
X162575000Y-105000000D02*
X163200000Y-105625000D01*
X162575000Y-105000000D02*
X163200000Y-104375000D01*
%TO.N,Net-(D11-Pad1)*%
X137825000Y-94000000D02*
X138450000Y-93375000D01*
X137500000Y-94000000D02*
X137825000Y-94000000D01*
X137825000Y-94000000D02*
X138450000Y-94625000D01*
%TD*%
%TA.AperFunction,Conductor*%
%TO.N,GND*%
G36*
X137408605Y-55527391D02*
G01*
X137420194Y-55528465D01*
X137819547Y-55584172D01*
X137830987Y-55586311D01*
X138223496Y-55678628D01*
X138234672Y-55681808D01*
X138425837Y-55745881D01*
X138616993Y-55809950D01*
X138627845Y-55814154D01*
X138996709Y-55977023D01*
X139007127Y-55982211D01*
X139359375Y-56178412D01*
X139369270Y-56184538D01*
X139701933Y-56412418D01*
X139711220Y-56419432D01*
X139945189Y-56613716D01*
X140021423Y-56677020D01*
X140030024Y-56684861D01*
X140315139Y-56969976D01*
X140322980Y-56978577D01*
X140580568Y-57288780D01*
X140587582Y-57298067D01*
X140815462Y-57630730D01*
X140821588Y-57640625D01*
X141017789Y-57992873D01*
X141022977Y-58003291D01*
X141185846Y-58372155D01*
X141190050Y-58383007D01*
X141254120Y-58574163D01*
X141315635Y-58757698D01*
X141318189Y-58765319D01*
X141321372Y-58776504D01*
X141352578Y-58909186D01*
X141413689Y-59169013D01*
X141415828Y-59180453D01*
X141471535Y-59579806D01*
X141472609Y-59591395D01*
X141489502Y-59956785D01*
X141488136Y-59981989D01*
X141487690Y-59984850D01*
X141487690Y-59984856D01*
X141486309Y-59993724D01*
X141487473Y-60002626D01*
X141487473Y-60002628D01*
X141490436Y-60025283D01*
X141491500Y-60041621D01*
X141491500Y-61216915D01*
X141489754Y-61237818D01*
X141486424Y-61257612D01*
X141486271Y-61270164D01*
X141486961Y-61274985D01*
X141487030Y-61276038D01*
X141487188Y-61279014D01*
X141505518Y-61723840D01*
X141561483Y-62174439D01*
X141654337Y-62618905D01*
X141655071Y-62621378D01*
X141655071Y-62621380D01*
X141712976Y-62816609D01*
X141783451Y-63054222D01*
X141947949Y-63477438D01*
X141949083Y-63479767D01*
X141949086Y-63479774D01*
X142145580Y-63883352D01*
X142145586Y-63883363D01*
X142146715Y-63885682D01*
X142148037Y-63887911D01*
X142148038Y-63887912D01*
X142207489Y-63988115D01*
X142378402Y-64276186D01*
X142379910Y-64278308D01*
X142379912Y-64278311D01*
X142511499Y-64463465D01*
X142641437Y-64646300D01*
X142643117Y-64648294D01*
X142643122Y-64648300D01*
X142932368Y-64991534D01*
X142934036Y-64993513D01*
X143254215Y-65315471D01*
X143599802Y-65609990D01*
X143601907Y-65611503D01*
X143601910Y-65611506D01*
X143607538Y-65615553D01*
X143968453Y-65875072D01*
X144357667Y-66108918D01*
X144764803Y-66309944D01*
X144767213Y-66310896D01*
X144767224Y-66310901D01*
X145130537Y-66454436D01*
X145187102Y-66476784D01*
X145531227Y-66580929D01*
X145596725Y-66600751D01*
X145602497Y-66602651D01*
X145605009Y-66603546D01*
X145609452Y-66605526D01*
X145615259Y-66607101D01*
X145615500Y-66607205D01*
X145615761Y-66607237D01*
X145621567Y-66608812D01*
X145626406Y-66609349D01*
X145626408Y-66609349D01*
X145644381Y-66611342D01*
X145664049Y-66615125D01*
X146744092Y-66913541D01*
X146748176Y-66914744D01*
X147856250Y-67261599D01*
X147860291Y-67262939D01*
X148956035Y-67647035D01*
X148960028Y-67648511D01*
X150042158Y-68069400D01*
X150046080Y-68071002D01*
X151113393Y-68528215D01*
X151117263Y-68529951D01*
X151117277Y-68529957D01*
X152168510Y-69022954D01*
X152172333Y-69024826D01*
X153206335Y-69553066D01*
X153210093Y-69555067D01*
X154225629Y-70117919D01*
X154229317Y-70120045D01*
X155225275Y-70716892D01*
X155228890Y-70719142D01*
X156204111Y-71349290D01*
X156207647Y-71351660D01*
X156440158Y-71513288D01*
X157161046Y-72014409D01*
X157164481Y-72016884D01*
X157864400Y-72539362D01*
X158094942Y-72711458D01*
X158098310Y-72714062D01*
X159004760Y-73439660D01*
X159008039Y-73442376D01*
X159779241Y-74103672D01*
X159889465Y-74198188D01*
X159892649Y-74201013D01*
X160748050Y-74986179D01*
X160751137Y-74989111D01*
X160964384Y-75198555D01*
X161483978Y-75708882D01*
X161579491Y-75802692D01*
X161582471Y-75805719D01*
X161626950Y-75852460D01*
X162382905Y-76646859D01*
X162385787Y-76649992D01*
X162859517Y-77182749D01*
X163050133Y-77397115D01*
X163157320Y-77517658D01*
X163160089Y-77520879D01*
X163901920Y-78414175D01*
X163904558Y-78417464D01*
X163971017Y-78503229D01*
X164615757Y-79335271D01*
X164618307Y-79338679D01*
X165298090Y-80279981D01*
X165300524Y-80283474D01*
X165404335Y-80437961D01*
X165948137Y-81247227D01*
X165950433Y-81250772D01*
X166067638Y-81438601D01*
X166565119Y-82235854D01*
X166567302Y-82239489D01*
X166694724Y-82459941D01*
X167148338Y-83244738D01*
X167150398Y-83248445D01*
X167634049Y-84154543D01*
X167697160Y-84272779D01*
X167699101Y-84276568D01*
X168210932Y-85318761D01*
X168212744Y-85322613D01*
X168689082Y-86381515D01*
X168690763Y-86385426D01*
X169131072Y-87459850D01*
X169132600Y-87463768D01*
X169270858Y-87836561D01*
X169536347Y-88552413D01*
X169537756Y-88556418D01*
X169671265Y-88957472D01*
X169904504Y-89658110D01*
X169905780Y-89662172D01*
X170235092Y-90775589D01*
X170236230Y-90779691D01*
X170527739Y-91903595D01*
X170528738Y-91907733D01*
X170671514Y-92546233D01*
X170762982Y-92955283D01*
X170782114Y-93040844D01*
X170782970Y-93045002D01*
X170798952Y-93129834D01*
X170997929Y-94186060D01*
X170998646Y-94190256D01*
X171174930Y-95337893D01*
X171175505Y-95342111D01*
X171312917Y-96495028D01*
X171313348Y-96499244D01*
X171400213Y-97520678D01*
X171411739Y-97656210D01*
X171412027Y-97660442D01*
X171459601Y-98591556D01*
X171471276Y-98820056D01*
X171471421Y-98824306D01*
X171472889Y-98909366D01*
X171491461Y-99985214D01*
X171491463Y-99989471D01*
X171472273Y-101150419D01*
X171472131Y-101154674D01*
X171413733Y-102314314D01*
X171413447Y-102318562D01*
X171315907Y-103475582D01*
X171315478Y-103479803D01*
X171179365Y-104629000D01*
X171178911Y-104632831D01*
X171178340Y-104637041D01*
X171143097Y-104867606D01*
X171002896Y-105784820D01*
X171002182Y-105789016D01*
X170788063Y-106930214D01*
X170787207Y-106934385D01*
X170534663Y-108067681D01*
X170533667Y-108071820D01*
X170242982Y-109195937D01*
X170241847Y-109200040D01*
X169913348Y-110313707D01*
X169912075Y-110317769D01*
X169546142Y-111419710D01*
X169544735Y-111423717D01*
X169194207Y-112371000D01*
X169141793Y-112512645D01*
X169140259Y-112516586D01*
X168981116Y-112905734D01*
X168700737Y-113591334D01*
X168699059Y-113595247D01*
X168223497Y-114654498D01*
X168221688Y-114658351D01*
X167710626Y-115700907D01*
X167708688Y-115704698D01*
X167162679Y-116729432D01*
X167160614Y-116733154D01*
X166580311Y-117738836D01*
X166578121Y-117742487D01*
X165964175Y-118727992D01*
X165961868Y-118731560D01*
X165660512Y-119180738D01*
X165314981Y-119695759D01*
X165312550Y-119699254D01*
X164633443Y-120641074D01*
X164630895Y-120644484D01*
X163920382Y-121562796D01*
X163917720Y-121566119D01*
X163176577Y-122459918D01*
X163173807Y-122463145D01*
X162402906Y-123331383D01*
X162400046Y-123334497D01*
X161733865Y-124035585D01*
X161600218Y-124176235D01*
X161597234Y-124179271D01*
X160769446Y-124993490D01*
X160766370Y-124996415D01*
X159911549Y-125782204D01*
X159908404Y-125784999D01*
X159027512Y-126541473D01*
X159027496Y-126541487D01*
X159024220Y-126544205D01*
X158118321Y-127270453D01*
X158114956Y-127273060D01*
X157184980Y-127968335D01*
X157181546Y-127970812D01*
X156228642Y-128634253D01*
X156225140Y-128636604D01*
X155504681Y-129102885D01*
X155250356Y-129267484D01*
X155246744Y-129269736D01*
X154251220Y-129867315D01*
X154247533Y-129869444D01*
X153232422Y-130433034D01*
X153228666Y-130435038D01*
X152195037Y-130964043D01*
X152191231Y-130965910D01*
X151611517Y-131238297D01*
X151140345Y-131459684D01*
X151136462Y-131461429D01*
X150069504Y-131919417D01*
X150065564Y-131921030D01*
X148983744Y-132342711D01*
X148979752Y-132344190D01*
X148398863Y-132548291D01*
X147884270Y-132729097D01*
X147880274Y-132730426D01*
X147256645Y-132926139D01*
X146772432Y-133078099D01*
X146768350Y-133079305D01*
X146714535Y-133094217D01*
X145649367Y-133389363D01*
X145645301Y-133390416D01*
X144516509Y-133662490D01*
X144512388Y-133663410D01*
X143375016Y-133897202D01*
X143370846Y-133897986D01*
X142226287Y-134093211D01*
X142222078Y-134093856D01*
X141071549Y-134250307D01*
X141067322Y-134250809D01*
X139912186Y-134368303D01*
X139907944Y-134368662D01*
X139704373Y-134382440D01*
X138749483Y-134447067D01*
X138745280Y-134447281D01*
X137681736Y-134483230D01*
X137584810Y-134486506D01*
X137580554Y-134486578D01*
X136419449Y-134486578D01*
X136415193Y-134486506D01*
X136318134Y-134483225D01*
X135254722Y-134447281D01*
X135250519Y-134447067D01*
X134295629Y-134382440D01*
X134092058Y-134368662D01*
X134087816Y-134368303D01*
X132932680Y-134250810D01*
X132928452Y-134250308D01*
X131777924Y-134093856D01*
X131773716Y-134093211D01*
X131142176Y-133985490D01*
X130629157Y-133897986D01*
X130624986Y-133897202D01*
X129487614Y-133663410D01*
X129483493Y-133662490D01*
X128354701Y-133390416D01*
X128350635Y-133389364D01*
X127231652Y-133079306D01*
X127227570Y-133078100D01*
X126743355Y-132926139D01*
X126119728Y-132730426D01*
X126115732Y-132729097D01*
X125601139Y-132548291D01*
X125020250Y-132344190D01*
X125016258Y-132342711D01*
X123934438Y-131921031D01*
X123930498Y-131919418D01*
X122863540Y-131461430D01*
X122859657Y-131459685D01*
X122522879Y-131301445D01*
X121983764Y-131048134D01*
X134891500Y-131048134D01*
X134898255Y-131110316D01*
X134949385Y-131246705D01*
X135036739Y-131363261D01*
X135153295Y-131450615D01*
X135289684Y-131501745D01*
X135351866Y-131508500D01*
X135815037Y-131508500D01*
X135841234Y-131511253D01*
X135850053Y-131513128D01*
X135850057Y-131513128D01*
X135856510Y-131514500D01*
X136043490Y-131514500D01*
X136049943Y-131513128D01*
X136049947Y-131513128D01*
X136058766Y-131511253D01*
X136084963Y-131508500D01*
X136548134Y-131508500D01*
X136610316Y-131501745D01*
X136746705Y-131450615D01*
X136863261Y-131363261D01*
X136899487Y-131314925D01*
X136956345Y-131272411D01*
X137027164Y-131267385D01*
X137089457Y-131301445D01*
X137101138Y-131314925D01*
X137131717Y-131355726D01*
X137144276Y-131368285D01*
X137246351Y-131444786D01*
X137261946Y-131453324D01*
X137382394Y-131498478D01*
X137397649Y-131502105D01*
X137448514Y-131507631D01*
X137455328Y-131508000D01*
X137777885Y-131508000D01*
X137793124Y-131503525D01*
X137794329Y-131502135D01*
X137796000Y-131494452D01*
X137796000Y-131489884D01*
X138304000Y-131489884D01*
X138308475Y-131505123D01*
X138309865Y-131506328D01*
X138317548Y-131507999D01*
X138644669Y-131507999D01*
X138651490Y-131507629D01*
X138702352Y-131502105D01*
X138717604Y-131498479D01*
X138838054Y-131453324D01*
X138853649Y-131444786D01*
X138955724Y-131368285D01*
X138968285Y-131355724D01*
X139044786Y-131253649D01*
X139053324Y-131238054D01*
X139098478Y-131117606D01*
X139102105Y-131102351D01*
X139107631Y-131051486D01*
X139108000Y-131044672D01*
X139108000Y-130897115D01*
X139103525Y-130881876D01*
X139102135Y-130880671D01*
X139094452Y-130879000D01*
X138322115Y-130879000D01*
X138306876Y-130883475D01*
X138305671Y-130884865D01*
X138304000Y-130892548D01*
X138304000Y-131489884D01*
X137796000Y-131489884D01*
X137796000Y-130352885D01*
X138304000Y-130352885D01*
X138308475Y-130368124D01*
X138309865Y-130369329D01*
X138317548Y-130371000D01*
X139089884Y-130371000D01*
X139105123Y-130366525D01*
X139106328Y-130365135D01*
X139107999Y-130357452D01*
X139107999Y-130205331D01*
X139107629Y-130198510D01*
X139102105Y-130147648D01*
X139098479Y-130132396D01*
X139065427Y-130044230D01*
X139060244Y-129973422D01*
X139065427Y-129955770D01*
X139098478Y-129867606D01*
X139102105Y-129852351D01*
X139107631Y-129801486D01*
X139108000Y-129794672D01*
X139108000Y-129647115D01*
X139103525Y-129631876D01*
X139102135Y-129630671D01*
X139094452Y-129629000D01*
X138322115Y-129629000D01*
X138306876Y-129633475D01*
X138305671Y-129634865D01*
X138304000Y-129642548D01*
X138304000Y-130352885D01*
X137796000Y-130352885D01*
X137796000Y-129102885D01*
X138304000Y-129102885D01*
X138308475Y-129118124D01*
X138309865Y-129119329D01*
X138317548Y-129121000D01*
X139089884Y-129121000D01*
X139105123Y-129116525D01*
X139106328Y-129115135D01*
X139107999Y-129107452D01*
X139107999Y-128955331D01*
X139107629Y-128948510D01*
X139102105Y-128897648D01*
X139098479Y-128882396D01*
X139053324Y-128761946D01*
X139044786Y-128746351D01*
X138968285Y-128644276D01*
X138955724Y-128631715D01*
X138853649Y-128555214D01*
X138838054Y-128546676D01*
X138717606Y-128501522D01*
X138702351Y-128497895D01*
X138651486Y-128492369D01*
X138644672Y-128492000D01*
X138322115Y-128492000D01*
X138306876Y-128496475D01*
X138305671Y-128497865D01*
X138304000Y-128505548D01*
X138304000Y-129102885D01*
X137796000Y-129102885D01*
X137796000Y-128510116D01*
X137791525Y-128494877D01*
X137790135Y-128493672D01*
X137782452Y-128492001D01*
X137455331Y-128492001D01*
X137448510Y-128492371D01*
X137397648Y-128497895D01*
X137382396Y-128501521D01*
X137261946Y-128546676D01*
X137246351Y-128555214D01*
X137144276Y-128631715D01*
X137131717Y-128644274D01*
X137116326Y-128664810D01*
X137059466Y-128707324D01*
X136988648Y-128712349D01*
X136926354Y-128678289D01*
X136892364Y-128615958D01*
X136889500Y-128589244D01*
X136889500Y-128468867D01*
X136892064Y-128444477D01*
X136893542Y-128439928D01*
X136913504Y-128250000D01*
X136893542Y-128060072D01*
X136834527Y-127878444D01*
X136739040Y-127713056D01*
X136611253Y-127571134D01*
X136456752Y-127458882D01*
X136450724Y-127456198D01*
X136450722Y-127456197D01*
X136288319Y-127383891D01*
X136288318Y-127383891D01*
X136282288Y-127381206D01*
X136188888Y-127361353D01*
X136101944Y-127342872D01*
X136101939Y-127342872D01*
X136095487Y-127341500D01*
X135904513Y-127341500D01*
X135898061Y-127342872D01*
X135898056Y-127342872D01*
X135811112Y-127361353D01*
X135717712Y-127381206D01*
X135711682Y-127383891D01*
X135711681Y-127383891D01*
X135549278Y-127456197D01*
X135549276Y-127456198D01*
X135543248Y-127458882D01*
X135388747Y-127571134D01*
X135260960Y-127713056D01*
X135165473Y-127878444D01*
X135106458Y-128060072D01*
X135086496Y-128250000D01*
X135106458Y-128439928D01*
X135107936Y-128444477D01*
X135110500Y-128468867D01*
X135110500Y-128518431D01*
X135090498Y-128586552D01*
X135060065Y-128619257D01*
X135036739Y-128636739D01*
X134949385Y-128753295D01*
X134898255Y-128889684D01*
X134891500Y-128951866D01*
X134891500Y-129798134D01*
X134898255Y-129860316D01*
X134901027Y-129867712D01*
X134901029Y-129867718D01*
X134934039Y-129955771D01*
X134939222Y-130026578D01*
X134934039Y-130044229D01*
X134901029Y-130132282D01*
X134901027Y-130132288D01*
X134898255Y-130139684D01*
X134891500Y-130201866D01*
X134891500Y-131048134D01*
X121983764Y-131048134D01*
X121808771Y-130965911D01*
X121804976Y-130964049D01*
X120771334Y-130435038D01*
X120767580Y-130433035D01*
X119752469Y-129869445D01*
X119748782Y-129867316D01*
X118753258Y-129269737D01*
X118749646Y-129267485D01*
X118255591Y-128947733D01*
X117774862Y-128636605D01*
X117771360Y-128634254D01*
X116818456Y-127970813D01*
X116815013Y-127968329D01*
X115885066Y-127273075D01*
X115881700Y-127270469D01*
X115225941Y-126744756D01*
X114975741Y-126544174D01*
X114972504Y-126541487D01*
X114091598Y-125785000D01*
X114088453Y-125782204D01*
X113233632Y-124996417D01*
X113230556Y-124993492D01*
X112402767Y-124179273D01*
X112399783Y-124176237D01*
X112266136Y-124035587D01*
X111599955Y-123334499D01*
X111597111Y-123331403D01*
X110826206Y-122463161D01*
X110823438Y-122459937D01*
X110082267Y-121566102D01*
X110079606Y-121562779D01*
X110076534Y-121558809D01*
X109369087Y-120644460D01*
X109366577Y-120641101D01*
X108687451Y-119699256D01*
X108685020Y-119695761D01*
X108038139Y-118731569D01*
X108035827Y-118727994D01*
X107421880Y-117742489D01*
X107419690Y-117738838D01*
X106839387Y-116733156D01*
X106837322Y-116729434D01*
X106291313Y-115704700D01*
X106289375Y-115700909D01*
X105778313Y-114658353D01*
X105776504Y-114654500D01*
X105300942Y-113595249D01*
X105299264Y-113591336D01*
X105075722Y-113044717D01*
X104859742Y-112516588D01*
X104858208Y-112512647D01*
X104858208Y-112512645D01*
X104668511Y-112000000D01*
X109586496Y-112000000D01*
X109606458Y-112189928D01*
X109665473Y-112371556D01*
X109760960Y-112536944D01*
X109888747Y-112678866D01*
X110043248Y-112791118D01*
X110049276Y-112793802D01*
X110049278Y-112793803D01*
X110211681Y-112866109D01*
X110217712Y-112868794D01*
X110291697Y-112884520D01*
X110354170Y-112918248D01*
X110388492Y-112980398D01*
X110391500Y-113007767D01*
X110391500Y-113048134D01*
X110398255Y-113110316D01*
X110449385Y-113246705D01*
X110536739Y-113363261D01*
X110653295Y-113450615D01*
X110789684Y-113501745D01*
X110851866Y-113508500D01*
X111308928Y-113508500D01*
X111315522Y-113508673D01*
X111490217Y-113517829D01*
X111490222Y-113517829D01*
X111496809Y-113518174D01*
X111503324Y-113517142D01*
X111503326Y-113517142D01*
X111548095Y-113510051D01*
X111567806Y-113508500D01*
X112048134Y-113508500D01*
X112110316Y-113501745D01*
X112246705Y-113450615D01*
X112363261Y-113363261D01*
X112399487Y-113314925D01*
X112456345Y-113272411D01*
X112527164Y-113267385D01*
X112589457Y-113301445D01*
X112601138Y-113314925D01*
X112631717Y-113355726D01*
X112644276Y-113368285D01*
X112746351Y-113444786D01*
X112761946Y-113453324D01*
X112882394Y-113498478D01*
X112897649Y-113502105D01*
X112948514Y-113507631D01*
X112955328Y-113508000D01*
X113277885Y-113508000D01*
X113293124Y-113503525D01*
X113294329Y-113502135D01*
X113296000Y-113494452D01*
X113296000Y-113489884D01*
X113804000Y-113489884D01*
X113808475Y-113505123D01*
X113809865Y-113506328D01*
X113817548Y-113507999D01*
X114144669Y-113507999D01*
X114151490Y-113507629D01*
X114202352Y-113502105D01*
X114217604Y-113498479D01*
X114338054Y-113453324D01*
X114353649Y-113444786D01*
X114455724Y-113368285D01*
X114468285Y-113355724D01*
X114544786Y-113253649D01*
X114553324Y-113238054D01*
X114598478Y-113117606D01*
X114602105Y-113102351D01*
X114607631Y-113051486D01*
X114608000Y-113044672D01*
X114608000Y-112897115D01*
X114603525Y-112881876D01*
X114602135Y-112880671D01*
X114594452Y-112879000D01*
X113822115Y-112879000D01*
X113806876Y-112883475D01*
X113805671Y-112884865D01*
X113804000Y-112892548D01*
X113804000Y-113489884D01*
X113296000Y-113489884D01*
X113296000Y-112352885D01*
X113804000Y-112352885D01*
X113808475Y-112368124D01*
X113809865Y-112369329D01*
X113817548Y-112371000D01*
X114589884Y-112371000D01*
X114605123Y-112366525D01*
X114606328Y-112365135D01*
X114607999Y-112357452D01*
X114607999Y-112205331D01*
X114607629Y-112198510D01*
X114602105Y-112147648D01*
X114598479Y-112132396D01*
X114565427Y-112044230D01*
X114560244Y-111973422D01*
X114565427Y-111955770D01*
X114598478Y-111867606D01*
X114602105Y-111852351D01*
X114607631Y-111801486D01*
X114608000Y-111794672D01*
X114608000Y-111647115D01*
X114603525Y-111631876D01*
X114602135Y-111630671D01*
X114594452Y-111629000D01*
X113822115Y-111629000D01*
X113806876Y-111633475D01*
X113805671Y-111634865D01*
X113804000Y-111642548D01*
X113804000Y-112352885D01*
X113296000Y-112352885D01*
X113296000Y-111102885D01*
X113804000Y-111102885D01*
X113808475Y-111118124D01*
X113809865Y-111119329D01*
X113817548Y-111121000D01*
X114589884Y-111121000D01*
X114605123Y-111116525D01*
X114606328Y-111115135D01*
X114607999Y-111107452D01*
X114607999Y-110955331D01*
X114607629Y-110948510D01*
X114602105Y-110897648D01*
X114598479Y-110882396D01*
X114553324Y-110761946D01*
X114544786Y-110746351D01*
X114468285Y-110644276D01*
X114455724Y-110631715D01*
X114353649Y-110555214D01*
X114338054Y-110546676D01*
X114217606Y-110501522D01*
X114202351Y-110497895D01*
X114151486Y-110492369D01*
X114144672Y-110492000D01*
X113822115Y-110492000D01*
X113806876Y-110496475D01*
X113805671Y-110497865D01*
X113804000Y-110505548D01*
X113804000Y-111102885D01*
X113296000Y-111102885D01*
X113296000Y-110510116D01*
X113291525Y-110494877D01*
X113290135Y-110493672D01*
X113282452Y-110492001D01*
X112955331Y-110492001D01*
X112948510Y-110492371D01*
X112897648Y-110497895D01*
X112882396Y-110501521D01*
X112761946Y-110546676D01*
X112746351Y-110555214D01*
X112644276Y-110631715D01*
X112631717Y-110644274D01*
X112601138Y-110685075D01*
X112544278Y-110727589D01*
X112473460Y-110732614D01*
X112411166Y-110698554D01*
X112399486Y-110685074D01*
X112368642Y-110643919D01*
X112363261Y-110636739D01*
X112246705Y-110549385D01*
X112110316Y-110498255D01*
X112048134Y-110491500D01*
X111567806Y-110491500D01*
X111548095Y-110489949D01*
X111503326Y-110482858D01*
X111503324Y-110482858D01*
X111496809Y-110481826D01*
X111490222Y-110482171D01*
X111490217Y-110482171D01*
X111315522Y-110491327D01*
X111308928Y-110491500D01*
X110851866Y-110491500D01*
X110789684Y-110498255D01*
X110653295Y-110549385D01*
X110536739Y-110636739D01*
X110449385Y-110753295D01*
X110398255Y-110889684D01*
X110391500Y-110951866D01*
X110391500Y-110992233D01*
X110371498Y-111060354D01*
X110317842Y-111106847D01*
X110291698Y-111115480D01*
X110217712Y-111131206D01*
X110211682Y-111133891D01*
X110211681Y-111133891D01*
X110049278Y-111206197D01*
X110049276Y-111206198D01*
X110043248Y-111208882D01*
X109888747Y-111321134D01*
X109884326Y-111326044D01*
X109884325Y-111326045D01*
X109798174Y-111421726D01*
X109760960Y-111463056D01*
X109665473Y-111628444D01*
X109606458Y-111810072D01*
X109586496Y-112000000D01*
X104668511Y-112000000D01*
X104455266Y-111423719D01*
X104453859Y-111419712D01*
X104453859Y-111419710D01*
X104280455Y-110897540D01*
X104087925Y-110317771D01*
X104086652Y-110313709D01*
X103758154Y-109200042D01*
X103757019Y-109195939D01*
X103466334Y-108071822D01*
X103465338Y-108067683D01*
X103212793Y-106934387D01*
X103211937Y-106930216D01*
X102997818Y-105789018D01*
X102997104Y-105784822D01*
X102877140Y-105000000D01*
X161336496Y-105000000D01*
X161356458Y-105189928D01*
X161415473Y-105371556D01*
X161510960Y-105536944D01*
X161638747Y-105678866D01*
X161737843Y-105750864D01*
X161787484Y-105786930D01*
X161793248Y-105791118D01*
X161799276Y-105793802D01*
X161799278Y-105793803D01*
X161961681Y-105866109D01*
X161967712Y-105868794D01*
X162041697Y-105884520D01*
X162104170Y-105918248D01*
X162138492Y-105980398D01*
X162141500Y-106007767D01*
X162141500Y-106048134D01*
X162148255Y-106110316D01*
X162199385Y-106246705D01*
X162286739Y-106363261D01*
X162403295Y-106450615D01*
X162539684Y-106501745D01*
X162601866Y-106508500D01*
X163058928Y-106508500D01*
X163065522Y-106508673D01*
X163240217Y-106517829D01*
X163240222Y-106517829D01*
X163246809Y-106518174D01*
X163253324Y-106517142D01*
X163253326Y-106517142D01*
X163298095Y-106510051D01*
X163317806Y-106508500D01*
X163798134Y-106508500D01*
X163860316Y-106501745D01*
X163996705Y-106450615D01*
X164113261Y-106363261D01*
X164149487Y-106314925D01*
X164206345Y-106272411D01*
X164277164Y-106267385D01*
X164339457Y-106301445D01*
X164351138Y-106314925D01*
X164381717Y-106355726D01*
X164394276Y-106368285D01*
X164496351Y-106444786D01*
X164511946Y-106453324D01*
X164632394Y-106498478D01*
X164647649Y-106502105D01*
X164698514Y-106507631D01*
X164705328Y-106508000D01*
X165027885Y-106508000D01*
X165043124Y-106503525D01*
X165044329Y-106502135D01*
X165046000Y-106494452D01*
X165046000Y-106489884D01*
X165554000Y-106489884D01*
X165558475Y-106505123D01*
X165559865Y-106506328D01*
X165567548Y-106507999D01*
X165894669Y-106507999D01*
X165901490Y-106507629D01*
X165952352Y-106502105D01*
X165967604Y-106498479D01*
X166088054Y-106453324D01*
X166103649Y-106444786D01*
X166205724Y-106368285D01*
X166218285Y-106355724D01*
X166294786Y-106253649D01*
X166303324Y-106238054D01*
X166348478Y-106117606D01*
X166352105Y-106102351D01*
X166357631Y-106051486D01*
X166358000Y-106044672D01*
X166358000Y-105897115D01*
X166353525Y-105881876D01*
X166352135Y-105880671D01*
X166344452Y-105879000D01*
X165572115Y-105879000D01*
X165556876Y-105883475D01*
X165555671Y-105884865D01*
X165554000Y-105892548D01*
X165554000Y-106489884D01*
X165046000Y-106489884D01*
X165046000Y-105352885D01*
X165554000Y-105352885D01*
X165558475Y-105368124D01*
X165559865Y-105369329D01*
X165567548Y-105371000D01*
X166339884Y-105371000D01*
X166355123Y-105366525D01*
X166356328Y-105365135D01*
X166357999Y-105357452D01*
X166357999Y-105205331D01*
X166357629Y-105198510D01*
X166352105Y-105147648D01*
X166348479Y-105132396D01*
X166315427Y-105044230D01*
X166310244Y-104973422D01*
X166315427Y-104955770D01*
X166348478Y-104867606D01*
X166352105Y-104852351D01*
X166357631Y-104801486D01*
X166358000Y-104794672D01*
X166358000Y-104647115D01*
X166353525Y-104631876D01*
X166352135Y-104630671D01*
X166344452Y-104629000D01*
X165572115Y-104629000D01*
X165556876Y-104633475D01*
X165555671Y-104634865D01*
X165554000Y-104642548D01*
X165554000Y-105352885D01*
X165046000Y-105352885D01*
X165046000Y-104102885D01*
X165554000Y-104102885D01*
X165558475Y-104118124D01*
X165559865Y-104119329D01*
X165567548Y-104121000D01*
X166339884Y-104121000D01*
X166355123Y-104116525D01*
X166356328Y-104115135D01*
X166357999Y-104107452D01*
X166357999Y-103955331D01*
X166357629Y-103948510D01*
X166352105Y-103897648D01*
X166348479Y-103882396D01*
X166303324Y-103761946D01*
X166294786Y-103746351D01*
X166218285Y-103644276D01*
X166205724Y-103631715D01*
X166103649Y-103555214D01*
X166088054Y-103546676D01*
X165967606Y-103501522D01*
X165952351Y-103497895D01*
X165901486Y-103492369D01*
X165894672Y-103492000D01*
X165572115Y-103492000D01*
X165556876Y-103496475D01*
X165555671Y-103497865D01*
X165554000Y-103505548D01*
X165554000Y-104102885D01*
X165046000Y-104102885D01*
X165046000Y-103510116D01*
X165041525Y-103494877D01*
X165040135Y-103493672D01*
X165032452Y-103492001D01*
X164705331Y-103492001D01*
X164698510Y-103492371D01*
X164647648Y-103497895D01*
X164632396Y-103501521D01*
X164511946Y-103546676D01*
X164496351Y-103555214D01*
X164394276Y-103631715D01*
X164381717Y-103644274D01*
X164351138Y-103685075D01*
X164294278Y-103727589D01*
X164223460Y-103732614D01*
X164161166Y-103698554D01*
X164149486Y-103685074D01*
X164118642Y-103643919D01*
X164113261Y-103636739D01*
X163996705Y-103549385D01*
X163860316Y-103498255D01*
X163798134Y-103491500D01*
X163317806Y-103491500D01*
X163298095Y-103489949D01*
X163253326Y-103482858D01*
X163253324Y-103482858D01*
X163246809Y-103481826D01*
X163240222Y-103482171D01*
X163240217Y-103482171D01*
X163065522Y-103491327D01*
X163058928Y-103491500D01*
X162601866Y-103491500D01*
X162539684Y-103498255D01*
X162403295Y-103549385D01*
X162286739Y-103636739D01*
X162199385Y-103753295D01*
X162148255Y-103889684D01*
X162141500Y-103951866D01*
X162141500Y-103992233D01*
X162121498Y-104060354D01*
X162067842Y-104106847D01*
X162041698Y-104115480D01*
X161967712Y-104131206D01*
X161961682Y-104133891D01*
X161961681Y-104133891D01*
X161799278Y-104206197D01*
X161799276Y-104206198D01*
X161793248Y-104208882D01*
X161638747Y-104321134D01*
X161510960Y-104463056D01*
X161415473Y-104628444D01*
X161356458Y-104810072D01*
X161336496Y-105000000D01*
X102877140Y-105000000D01*
X102870379Y-104955770D01*
X102821660Y-104637043D01*
X102821089Y-104632833D01*
X102819891Y-104622721D01*
X102684522Y-103479805D01*
X102684093Y-103475584D01*
X102586553Y-102318565D01*
X102586267Y-102314317D01*
X102535039Y-101297064D01*
X103207707Y-101297064D01*
X103236825Y-101489599D01*
X103239028Y-101495585D01*
X103239029Y-101495591D01*
X103301860Y-101666360D01*
X103301862Y-101666365D01*
X103304063Y-101672346D01*
X103406674Y-101837840D01*
X103540466Y-101979322D01*
X103699975Y-102091011D01*
X103705838Y-102093548D01*
X103872825Y-102165810D01*
X103872829Y-102165811D01*
X103878684Y-102168345D01*
X103884931Y-102169650D01*
X103884934Y-102169651D01*
X104064557Y-102207176D01*
X104064562Y-102207177D01*
X104069293Y-102208165D01*
X104075685Y-102208500D01*
X104218663Y-102208500D01*
X104287951Y-102201462D01*
X104357378Y-102194410D01*
X104357379Y-102194410D01*
X104363727Y-102193765D01*
X104444843Y-102168345D01*
X104543451Y-102137444D01*
X104543456Y-102137442D01*
X104549541Y-102135535D01*
X104636475Y-102087346D01*
X104714271Y-102044223D01*
X104714274Y-102044221D01*
X104719850Y-102041130D01*
X104724691Y-102036981D01*
X104724695Y-102036978D01*
X104862855Y-101918560D01*
X104867698Y-101914409D01*
X104987046Y-101760547D01*
X105027779Y-101677768D01*
X105070200Y-101591556D01*
X105073018Y-101585829D01*
X105074628Y-101579649D01*
X105120492Y-101403575D01*
X105120492Y-101403572D01*
X105122102Y-101397393D01*
X105132293Y-101202936D01*
X105103175Y-101010401D01*
X105100972Y-101004415D01*
X105100971Y-101004409D01*
X105038140Y-100833640D01*
X105038138Y-100833635D01*
X105035937Y-100827654D01*
X104933326Y-100662160D01*
X104799534Y-100520678D01*
X104640025Y-100408989D01*
X104592013Y-100388212D01*
X104467175Y-100334190D01*
X104467171Y-100334189D01*
X104461316Y-100331655D01*
X104455069Y-100330350D01*
X104455066Y-100330349D01*
X104275443Y-100292824D01*
X104275438Y-100292823D01*
X104270707Y-100291835D01*
X104264315Y-100291500D01*
X104121337Y-100291500D01*
X104052049Y-100298538D01*
X103982622Y-100305590D01*
X103982621Y-100305590D01*
X103976273Y-100306235D01*
X103919939Y-100323889D01*
X103796549Y-100362556D01*
X103796544Y-100362558D01*
X103790459Y-100364465D01*
X103714713Y-100406452D01*
X103625729Y-100455777D01*
X103625726Y-100455779D01*
X103620150Y-100458870D01*
X103615309Y-100463019D01*
X103615305Y-100463022D01*
X103552311Y-100517015D01*
X103472302Y-100585591D01*
X103352954Y-100739453D01*
X103350138Y-100745176D01*
X103350136Y-100745179D01*
X103306608Y-100833640D01*
X103266982Y-100914171D01*
X103265373Y-100920349D01*
X103265372Y-100920351D01*
X103243477Y-101004409D01*
X103217898Y-101102607D01*
X103207707Y-101297064D01*
X102535039Y-101297064D01*
X102527869Y-101154676D01*
X102527727Y-101150421D01*
X102508537Y-99989473D01*
X102508539Y-99985216D01*
X102527111Y-98909366D01*
X102528579Y-98824308D01*
X102528724Y-98820058D01*
X102550004Y-98403575D01*
X102555446Y-98297064D01*
X103207707Y-98297064D01*
X103236825Y-98489599D01*
X103239028Y-98495585D01*
X103239029Y-98495591D01*
X103301860Y-98666360D01*
X103301862Y-98666365D01*
X103304063Y-98672346D01*
X103307425Y-98677768D01*
X103395649Y-98820058D01*
X103406674Y-98837840D01*
X103540466Y-98979322D01*
X103699975Y-99091011D01*
X103705838Y-99093548D01*
X103872825Y-99165810D01*
X103872829Y-99165811D01*
X103878684Y-99168345D01*
X103884931Y-99169650D01*
X103884934Y-99169651D01*
X104064557Y-99207176D01*
X104064562Y-99207177D01*
X104069293Y-99208165D01*
X104075685Y-99208500D01*
X104218663Y-99208500D01*
X104287951Y-99201462D01*
X104357378Y-99194410D01*
X104357379Y-99194410D01*
X104363727Y-99193765D01*
X104444843Y-99168345D01*
X104543451Y-99137444D01*
X104543456Y-99137442D01*
X104549541Y-99135535D01*
X104636475Y-99087346D01*
X104714271Y-99044223D01*
X104714274Y-99044221D01*
X104719850Y-99041130D01*
X104724691Y-99036981D01*
X104724695Y-99036978D01*
X104862855Y-98918560D01*
X104867698Y-98914409D01*
X104987046Y-98760547D01*
X105027779Y-98677768D01*
X105070200Y-98591556D01*
X105073018Y-98585829D01*
X105074628Y-98579649D01*
X105120492Y-98403575D01*
X105120492Y-98403572D01*
X105122102Y-98397393D01*
X105127694Y-98290683D01*
X105131959Y-98209317D01*
X105131959Y-98209313D01*
X105132293Y-98202936D01*
X105103175Y-98010401D01*
X105100972Y-98004415D01*
X105100971Y-98004409D01*
X105038140Y-97833640D01*
X105038138Y-97833635D01*
X105035937Y-97827654D01*
X104933326Y-97662160D01*
X104927700Y-97656210D01*
X104803919Y-97525315D01*
X104799534Y-97520678D01*
X104640025Y-97408989D01*
X104592013Y-97388212D01*
X104467175Y-97334190D01*
X104467171Y-97334189D01*
X104461316Y-97331655D01*
X104455069Y-97330350D01*
X104455066Y-97330349D01*
X104275443Y-97292824D01*
X104275438Y-97292823D01*
X104270707Y-97291835D01*
X104264315Y-97291500D01*
X104121337Y-97291500D01*
X104052049Y-97298538D01*
X103982622Y-97305590D01*
X103982621Y-97305590D01*
X103976273Y-97306235D01*
X103919939Y-97323889D01*
X103796549Y-97362556D01*
X103796544Y-97362558D01*
X103790459Y-97364465D01*
X103714713Y-97406452D01*
X103625729Y-97455777D01*
X103625726Y-97455779D01*
X103620150Y-97458870D01*
X103615309Y-97463019D01*
X103615305Y-97463022D01*
X103552311Y-97517015D01*
X103472302Y-97585591D01*
X103468391Y-97590633D01*
X103468390Y-97590634D01*
X103416503Y-97657526D01*
X103352954Y-97739453D01*
X103350138Y-97745176D01*
X103350136Y-97745179D01*
X103306608Y-97833640D01*
X103266982Y-97914171D01*
X103265373Y-97920349D01*
X103265372Y-97920351D01*
X103243477Y-98004409D01*
X103217898Y-98102607D01*
X103217564Y-98108986D01*
X103209619Y-98260589D01*
X103207707Y-98297064D01*
X102555446Y-98297064D01*
X102587973Y-97660444D01*
X102588261Y-97656212D01*
X102600099Y-97517015D01*
X102686652Y-96499246D01*
X102687083Y-96495030D01*
X102687084Y-96495028D01*
X102804708Y-95508131D01*
X102824495Y-95342113D01*
X102825070Y-95337895D01*
X103001354Y-94190258D01*
X103002071Y-94186062D01*
X103037122Y-94000000D01*
X136586496Y-94000000D01*
X136606458Y-94189928D01*
X136665473Y-94371556D01*
X136760960Y-94536944D01*
X136888747Y-94678866D01*
X137043248Y-94791118D01*
X137049276Y-94793802D01*
X137049278Y-94793803D01*
X137211681Y-94866109D01*
X137217712Y-94868794D01*
X137291697Y-94884520D01*
X137354170Y-94918248D01*
X137388492Y-94980398D01*
X137391500Y-95007767D01*
X137391500Y-95048134D01*
X137398255Y-95110316D01*
X137449385Y-95246705D01*
X137536739Y-95363261D01*
X137653295Y-95450615D01*
X137789684Y-95501745D01*
X137851866Y-95508500D01*
X138308928Y-95508500D01*
X138315522Y-95508673D01*
X138490217Y-95517829D01*
X138490222Y-95517829D01*
X138496809Y-95518174D01*
X138503324Y-95517142D01*
X138503326Y-95517142D01*
X138548095Y-95510051D01*
X138567806Y-95508500D01*
X139048134Y-95508500D01*
X139110316Y-95501745D01*
X139246705Y-95450615D01*
X139363261Y-95363261D01*
X139399487Y-95314925D01*
X139456345Y-95272411D01*
X139527164Y-95267385D01*
X139589457Y-95301445D01*
X139601138Y-95314925D01*
X139631717Y-95355726D01*
X139644276Y-95368285D01*
X139746351Y-95444786D01*
X139761946Y-95453324D01*
X139882394Y-95498478D01*
X139897649Y-95502105D01*
X139948514Y-95507631D01*
X139955328Y-95508000D01*
X140277885Y-95508000D01*
X140293124Y-95503525D01*
X140294329Y-95502135D01*
X140296000Y-95494452D01*
X140296000Y-95489884D01*
X140804000Y-95489884D01*
X140808475Y-95505123D01*
X140809865Y-95506328D01*
X140817548Y-95507999D01*
X141144669Y-95507999D01*
X141151490Y-95507629D01*
X141202352Y-95502105D01*
X141217604Y-95498479D01*
X141338054Y-95453324D01*
X141353649Y-95444786D01*
X141455724Y-95368285D01*
X141468285Y-95355724D01*
X141544786Y-95253649D01*
X141553324Y-95238054D01*
X141598478Y-95117606D01*
X141602105Y-95102351D01*
X141607631Y-95051486D01*
X141608000Y-95044672D01*
X141608000Y-94897115D01*
X141603525Y-94881876D01*
X141602135Y-94880671D01*
X141594452Y-94879000D01*
X140822115Y-94879000D01*
X140806876Y-94883475D01*
X140805671Y-94884865D01*
X140804000Y-94892548D01*
X140804000Y-95489884D01*
X140296000Y-95489884D01*
X140296000Y-94352885D01*
X140804000Y-94352885D01*
X140808475Y-94368124D01*
X140809865Y-94369329D01*
X140817548Y-94371000D01*
X141589884Y-94371000D01*
X141605123Y-94366525D01*
X141606328Y-94365135D01*
X141607999Y-94357452D01*
X141607999Y-94205331D01*
X141607629Y-94198510D01*
X141602105Y-94147648D01*
X141598479Y-94132396D01*
X141565427Y-94044230D01*
X141560244Y-93973422D01*
X141565427Y-93955770D01*
X141598478Y-93867606D01*
X141602105Y-93852351D01*
X141607631Y-93801486D01*
X141608000Y-93794672D01*
X141608000Y-93647115D01*
X141603525Y-93631876D01*
X141602135Y-93630671D01*
X141594452Y-93629000D01*
X140822115Y-93629000D01*
X140806876Y-93633475D01*
X140805671Y-93634865D01*
X140804000Y-93642548D01*
X140804000Y-94352885D01*
X140296000Y-94352885D01*
X140296000Y-93102885D01*
X140804000Y-93102885D01*
X140808475Y-93118124D01*
X140809865Y-93119329D01*
X140817548Y-93121000D01*
X141589884Y-93121000D01*
X141605123Y-93116525D01*
X141606328Y-93115135D01*
X141607999Y-93107452D01*
X141607999Y-92955331D01*
X141607629Y-92948510D01*
X141602105Y-92897648D01*
X141598479Y-92882396D01*
X141553324Y-92761946D01*
X141544786Y-92746351D01*
X141468285Y-92644276D01*
X141455724Y-92631715D01*
X141353649Y-92555214D01*
X141338054Y-92546676D01*
X141217606Y-92501522D01*
X141202351Y-92497895D01*
X141151486Y-92492369D01*
X141144672Y-92492000D01*
X140822115Y-92492000D01*
X140806876Y-92496475D01*
X140805671Y-92497865D01*
X140804000Y-92505548D01*
X140804000Y-93102885D01*
X140296000Y-93102885D01*
X140296000Y-92510116D01*
X140291525Y-92494877D01*
X140290135Y-92493672D01*
X140282452Y-92492001D01*
X139955331Y-92492001D01*
X139948510Y-92492371D01*
X139897648Y-92497895D01*
X139882396Y-92501521D01*
X139761946Y-92546676D01*
X139746351Y-92555214D01*
X139644276Y-92631715D01*
X139631717Y-92644274D01*
X139601138Y-92685075D01*
X139544278Y-92727589D01*
X139473460Y-92732614D01*
X139411166Y-92698554D01*
X139399486Y-92685074D01*
X139368642Y-92643919D01*
X139363261Y-92636739D01*
X139246705Y-92549385D01*
X139110316Y-92498255D01*
X139048134Y-92491500D01*
X138567806Y-92491500D01*
X138548095Y-92489949D01*
X138503326Y-92482858D01*
X138503324Y-92482858D01*
X138496809Y-92481826D01*
X138490222Y-92482171D01*
X138490217Y-92482171D01*
X138315522Y-92491327D01*
X138308928Y-92491500D01*
X137851866Y-92491500D01*
X137789684Y-92498255D01*
X137653295Y-92549385D01*
X137536739Y-92636739D01*
X137449385Y-92753295D01*
X137398255Y-92889684D01*
X137391500Y-92951866D01*
X137391500Y-92992233D01*
X137371498Y-93060354D01*
X137317842Y-93106847D01*
X137291698Y-93115480D01*
X137217712Y-93131206D01*
X137211682Y-93133891D01*
X137211681Y-93133891D01*
X137049278Y-93206197D01*
X137049276Y-93206198D01*
X137043248Y-93208882D01*
X136888747Y-93321134D01*
X136760960Y-93463056D01*
X136665473Y-93628444D01*
X136606458Y-93810072D01*
X136586496Y-94000000D01*
X103037122Y-94000000D01*
X103186662Y-93206197D01*
X103217029Y-93045004D01*
X103217885Y-93040846D01*
X103217886Y-93040844D01*
X103336562Y-92510116D01*
X103471261Y-91907736D01*
X103472260Y-91903598D01*
X103763770Y-90779693D01*
X103764908Y-90775591D01*
X104094219Y-89662174D01*
X104095495Y-89658112D01*
X104462240Y-88556431D01*
X104463653Y-88552415D01*
X104867394Y-87463783D01*
X104868927Y-87459852D01*
X105309237Y-86385426D01*
X105310917Y-86381517D01*
X105787255Y-85322615D01*
X105789067Y-85318763D01*
X106300898Y-84276570D01*
X106302839Y-84272781D01*
X106365950Y-84154545D01*
X106849601Y-83248447D01*
X106851661Y-83244740D01*
X107432689Y-82239505D01*
X107434881Y-82235856D01*
X108049557Y-81250788D01*
X108051871Y-81247214D01*
X108699474Y-80283476D01*
X108701908Y-80279983D01*
X109381691Y-79338681D01*
X109384241Y-79335273D01*
X109680037Y-78953546D01*
X110095441Y-78417465D01*
X110098092Y-78414160D01*
X110435277Y-78008131D01*
X110820155Y-77544669D01*
X143892001Y-77544669D01*
X143892371Y-77551490D01*
X143897895Y-77602352D01*
X143901521Y-77617604D01*
X143946676Y-77738054D01*
X143955214Y-77753649D01*
X144031715Y-77855724D01*
X144044276Y-77868285D01*
X144146351Y-77944786D01*
X144161946Y-77953324D01*
X144282394Y-77998478D01*
X144297649Y-78002105D01*
X144348514Y-78007631D01*
X144355328Y-78008000D01*
X144677885Y-78008000D01*
X144693124Y-78003525D01*
X144694329Y-78002135D01*
X144696000Y-77994452D01*
X144696000Y-77989884D01*
X145204000Y-77989884D01*
X145208475Y-78005123D01*
X145209865Y-78006328D01*
X145217548Y-78007999D01*
X145544669Y-78007999D01*
X145551490Y-78007629D01*
X145602352Y-78002105D01*
X145617604Y-77998479D01*
X145738054Y-77953324D01*
X145753649Y-77944786D01*
X145855724Y-77868285D01*
X145868283Y-77855726D01*
X145898862Y-77814925D01*
X145955722Y-77772411D01*
X146026540Y-77767386D01*
X146088834Y-77801446D01*
X146100513Y-77814925D01*
X146136739Y-77863261D01*
X146253295Y-77950615D01*
X146389684Y-78001745D01*
X146451866Y-78008500D01*
X146932193Y-78008500D01*
X146951904Y-78010051D01*
X146996673Y-78017142D01*
X146996675Y-78017142D01*
X147003190Y-78018174D01*
X147009778Y-78017829D01*
X147009782Y-78017829D01*
X147184496Y-78008673D01*
X147191090Y-78008500D01*
X147648134Y-78008500D01*
X147710316Y-78001745D01*
X147846705Y-77950615D01*
X147963261Y-77863261D01*
X148050615Y-77746705D01*
X148101745Y-77610316D01*
X148108500Y-77548134D01*
X148108500Y-77507767D01*
X148128502Y-77439646D01*
X148182158Y-77393153D01*
X148208303Y-77384520D01*
X148282288Y-77368794D01*
X148288319Y-77366109D01*
X148450722Y-77293803D01*
X148450724Y-77293802D01*
X148456752Y-77291118D01*
X148611253Y-77178866D01*
X148739040Y-77036944D01*
X148834527Y-76871556D01*
X148893542Y-76689928D01*
X148897740Y-76649992D01*
X148912814Y-76506565D01*
X148913504Y-76500000D01*
X148893542Y-76310072D01*
X148834527Y-76128444D01*
X148739040Y-75963056D01*
X148611253Y-75821134D01*
X148456752Y-75708882D01*
X148450724Y-75706198D01*
X148450722Y-75706197D01*
X148288319Y-75633891D01*
X148288318Y-75633891D01*
X148282288Y-75631206D01*
X148208303Y-75615480D01*
X148145830Y-75581752D01*
X148111508Y-75519602D01*
X148108500Y-75492233D01*
X148108500Y-75451866D01*
X148101745Y-75389684D01*
X148050615Y-75253295D01*
X147963261Y-75136739D01*
X147846705Y-75049385D01*
X147710316Y-74998255D01*
X147648134Y-74991500D01*
X147191090Y-74991500D01*
X147184496Y-74991327D01*
X147009782Y-74982171D01*
X147009778Y-74982171D01*
X147003190Y-74981826D01*
X146996675Y-74982858D01*
X146996673Y-74982858D01*
X146966697Y-74987606D01*
X146957195Y-74989111D01*
X146951904Y-74989949D01*
X146932193Y-74991500D01*
X146451866Y-74991500D01*
X146389684Y-74998255D01*
X146253295Y-75049385D01*
X146136739Y-75136739D01*
X146131358Y-75143919D01*
X146100514Y-75185074D01*
X146043655Y-75227589D01*
X145972836Y-75232615D01*
X145910543Y-75198555D01*
X145898862Y-75185075D01*
X145868283Y-75144274D01*
X145855724Y-75131715D01*
X145753649Y-75055214D01*
X145738054Y-75046676D01*
X145617606Y-75001522D01*
X145602351Y-74997895D01*
X145551486Y-74992369D01*
X145544672Y-74992000D01*
X145222115Y-74992000D01*
X145206876Y-74996475D01*
X145205671Y-74997865D01*
X145204000Y-75005548D01*
X145204000Y-77989884D01*
X144696000Y-77989884D01*
X144696000Y-77397115D01*
X144691525Y-77381876D01*
X144690135Y-77380671D01*
X144682452Y-77379000D01*
X143910116Y-77379000D01*
X143894877Y-77383475D01*
X143893672Y-77384865D01*
X143892001Y-77392548D01*
X143892001Y-77544669D01*
X110820155Y-77544669D01*
X110839910Y-77520881D01*
X110842679Y-77517660D01*
X111433800Y-76852885D01*
X143892000Y-76852885D01*
X143896475Y-76868124D01*
X143897865Y-76869329D01*
X143905548Y-76871000D01*
X144677885Y-76871000D01*
X144693124Y-76866525D01*
X144694329Y-76865135D01*
X144696000Y-76857452D01*
X144696000Y-76147115D01*
X144691525Y-76131876D01*
X144690135Y-76130671D01*
X144682452Y-76129000D01*
X143910116Y-76129000D01*
X143894877Y-76133475D01*
X143893672Y-76134865D01*
X143892001Y-76142548D01*
X143892001Y-76294669D01*
X143892371Y-76301490D01*
X143897895Y-76352352D01*
X143901521Y-76367604D01*
X143934573Y-76455770D01*
X143939756Y-76526578D01*
X143934573Y-76544230D01*
X143901522Y-76632394D01*
X143897895Y-76647649D01*
X143892369Y-76698514D01*
X143892000Y-76705328D01*
X143892000Y-76852885D01*
X111433800Y-76852885D01*
X111614211Y-76649994D01*
X111617093Y-76646861D01*
X112244018Y-75988054D01*
X112417527Y-75805721D01*
X112420507Y-75802694D01*
X112557395Y-75668248D01*
X112940625Y-75291852D01*
X113248862Y-74989113D01*
X113251949Y-74986181D01*
X113509256Y-74750000D01*
X120586496Y-74750000D01*
X120606458Y-74939928D01*
X120665473Y-75121556D01*
X120760960Y-75286944D01*
X120888747Y-75428866D01*
X121043248Y-75541118D01*
X121049276Y-75543802D01*
X121049278Y-75543803D01*
X121211681Y-75616109D01*
X121217712Y-75618794D01*
X121291697Y-75634520D01*
X121354170Y-75668248D01*
X121388492Y-75730398D01*
X121391500Y-75757767D01*
X121391500Y-75798134D01*
X121398255Y-75860316D01*
X121449385Y-75996705D01*
X121536739Y-76113261D01*
X121653295Y-76200615D01*
X121789684Y-76251745D01*
X121851866Y-76258500D01*
X122308928Y-76258500D01*
X122315522Y-76258673D01*
X122490217Y-76267829D01*
X122490222Y-76267829D01*
X122496809Y-76268174D01*
X122503324Y-76267142D01*
X122503326Y-76267142D01*
X122548095Y-76260051D01*
X122567806Y-76258500D01*
X123048134Y-76258500D01*
X123110316Y-76251745D01*
X123246705Y-76200615D01*
X123363261Y-76113261D01*
X123399487Y-76064925D01*
X123456345Y-76022411D01*
X123527164Y-76017385D01*
X123589457Y-76051445D01*
X123601138Y-76064925D01*
X123631717Y-76105726D01*
X123644276Y-76118285D01*
X123746351Y-76194786D01*
X123761946Y-76203324D01*
X123882394Y-76248478D01*
X123897649Y-76252105D01*
X123948514Y-76257631D01*
X123955328Y-76258000D01*
X124277885Y-76258000D01*
X124293124Y-76253525D01*
X124294329Y-76252135D01*
X124296000Y-76244452D01*
X124296000Y-76239884D01*
X124804000Y-76239884D01*
X124808475Y-76255123D01*
X124809865Y-76256328D01*
X124817548Y-76257999D01*
X125144669Y-76257999D01*
X125151490Y-76257629D01*
X125202352Y-76252105D01*
X125217604Y-76248479D01*
X125338054Y-76203324D01*
X125353649Y-76194786D01*
X125455724Y-76118285D01*
X125468285Y-76105724D01*
X125544786Y-76003649D01*
X125553324Y-75988054D01*
X125598478Y-75867606D01*
X125602105Y-75852351D01*
X125607631Y-75801486D01*
X125608000Y-75794672D01*
X125608000Y-75647115D01*
X125603525Y-75631876D01*
X125602135Y-75630671D01*
X125594452Y-75629000D01*
X124822115Y-75629000D01*
X124806876Y-75633475D01*
X124805671Y-75634865D01*
X124804000Y-75642548D01*
X124804000Y-76239884D01*
X124296000Y-76239884D01*
X124296000Y-75602885D01*
X143892000Y-75602885D01*
X143896475Y-75618124D01*
X143897865Y-75619329D01*
X143905548Y-75621000D01*
X144677885Y-75621000D01*
X144693124Y-75616525D01*
X144694329Y-75615135D01*
X144696000Y-75607452D01*
X144696000Y-75010116D01*
X144691525Y-74994877D01*
X144690135Y-74993672D01*
X144682452Y-74992001D01*
X144355331Y-74992001D01*
X144348510Y-74992371D01*
X144297648Y-74997895D01*
X144282396Y-75001521D01*
X144161946Y-75046676D01*
X144146351Y-75055214D01*
X144044276Y-75131715D01*
X144031715Y-75144276D01*
X143955214Y-75246351D01*
X143946676Y-75261946D01*
X143901522Y-75382394D01*
X143897895Y-75397649D01*
X143892369Y-75448514D01*
X143892000Y-75455328D01*
X143892000Y-75602885D01*
X124296000Y-75602885D01*
X124296000Y-75102885D01*
X124804000Y-75102885D01*
X124808475Y-75118124D01*
X124809865Y-75119329D01*
X124817548Y-75121000D01*
X125589884Y-75121000D01*
X125605123Y-75116525D01*
X125606328Y-75115135D01*
X125607999Y-75107452D01*
X125607999Y-74955331D01*
X125607629Y-74948510D01*
X125602105Y-74897648D01*
X125598479Y-74882396D01*
X125565427Y-74794230D01*
X125560244Y-74723422D01*
X125565427Y-74705770D01*
X125598478Y-74617606D01*
X125602105Y-74602351D01*
X125607631Y-74551486D01*
X125608000Y-74544672D01*
X125608000Y-74397115D01*
X125603525Y-74381876D01*
X125602135Y-74380671D01*
X125594452Y-74379000D01*
X124822115Y-74379000D01*
X124806876Y-74383475D01*
X124805671Y-74384865D01*
X124804000Y-74392548D01*
X124804000Y-75102885D01*
X124296000Y-75102885D01*
X124296000Y-73852885D01*
X124804000Y-73852885D01*
X124808475Y-73868124D01*
X124809865Y-73869329D01*
X124817548Y-73871000D01*
X125589884Y-73871000D01*
X125605123Y-73866525D01*
X125606328Y-73865135D01*
X125607999Y-73857452D01*
X125607999Y-73705331D01*
X125607629Y-73698510D01*
X125602105Y-73647648D01*
X125598479Y-73632396D01*
X125553324Y-73511946D01*
X125544786Y-73496351D01*
X125468285Y-73394276D01*
X125455724Y-73381715D01*
X125353649Y-73305214D01*
X125338054Y-73296676D01*
X125217606Y-73251522D01*
X125202351Y-73247895D01*
X125151486Y-73242369D01*
X125144672Y-73242000D01*
X124822115Y-73242000D01*
X124806876Y-73246475D01*
X124805671Y-73247865D01*
X124804000Y-73255548D01*
X124804000Y-73852885D01*
X124296000Y-73852885D01*
X124296000Y-73260116D01*
X124291525Y-73244877D01*
X124290135Y-73243672D01*
X124282452Y-73242001D01*
X123955331Y-73242001D01*
X123948510Y-73242371D01*
X123897648Y-73247895D01*
X123882396Y-73251521D01*
X123761946Y-73296676D01*
X123746351Y-73305214D01*
X123644276Y-73381715D01*
X123631717Y-73394274D01*
X123601138Y-73435075D01*
X123544278Y-73477589D01*
X123473460Y-73482614D01*
X123411166Y-73448554D01*
X123399486Y-73435074D01*
X123368642Y-73393919D01*
X123363261Y-73386739D01*
X123246705Y-73299385D01*
X123110316Y-73248255D01*
X123048134Y-73241500D01*
X122567806Y-73241500D01*
X122548095Y-73239949D01*
X122503326Y-73232858D01*
X122503324Y-73232858D01*
X122496809Y-73231826D01*
X122490222Y-73232171D01*
X122490217Y-73232171D01*
X122315522Y-73241327D01*
X122308928Y-73241500D01*
X121851866Y-73241500D01*
X121789684Y-73248255D01*
X121653295Y-73299385D01*
X121536739Y-73386739D01*
X121449385Y-73503295D01*
X121398255Y-73639684D01*
X121391500Y-73701866D01*
X121391500Y-73742233D01*
X121371498Y-73810354D01*
X121317842Y-73856847D01*
X121291698Y-73865480D01*
X121217712Y-73881206D01*
X121211682Y-73883891D01*
X121211681Y-73883891D01*
X121049278Y-73956197D01*
X121049276Y-73956198D01*
X121043248Y-73958882D01*
X120888747Y-74071134D01*
X120884326Y-74076044D01*
X120884325Y-74076045D01*
X120771803Y-74201014D01*
X120760960Y-74213056D01*
X120665473Y-74378444D01*
X120606458Y-74560072D01*
X120586496Y-74750000D01*
X113509256Y-74750000D01*
X113920283Y-74372721D01*
X114107355Y-74201009D01*
X114110533Y-74198189D01*
X114392745Y-73956197D01*
X114991963Y-73442376D01*
X114995239Y-73439662D01*
X115901688Y-72714063D01*
X115905056Y-72711459D01*
X115920907Y-72699627D01*
X116835517Y-72016885D01*
X116838935Y-72014422D01*
X117792352Y-71351660D01*
X117795887Y-71349291D01*
X118771108Y-70719143D01*
X118774723Y-70716893D01*
X119770681Y-70120046D01*
X119774369Y-70117920D01*
X120789905Y-69555068D01*
X120793663Y-69553067D01*
X121827665Y-69024827D01*
X121831488Y-69022955D01*
X122719670Y-68606424D01*
X122882735Y-68529952D01*
X122886595Y-68528220D01*
X123953918Y-68071003D01*
X123957825Y-68069407D01*
X125039970Y-67648512D01*
X125043963Y-67647036D01*
X126139707Y-67262940D01*
X126143748Y-67261600D01*
X127251822Y-66914745D01*
X127255906Y-66913542D01*
X128328519Y-66617179D01*
X128351252Y-66613094D01*
X128366240Y-66611802D01*
X128372078Y-66610370D01*
X128372345Y-66610344D01*
X128372594Y-66610244D01*
X128378432Y-66608812D01*
X128382716Y-66607026D01*
X128384218Y-66606552D01*
X128810426Y-66477566D01*
X128812908Y-66476815D01*
X129235209Y-66309973D01*
X129237521Y-66308831D01*
X129237531Y-66308827D01*
X129433815Y-66211911D01*
X129642348Y-66108947D01*
X130031564Y-65875099D01*
X130033674Y-65873582D01*
X130398109Y-65611532D01*
X130398112Y-65611529D01*
X130400217Y-65610016D01*
X130402222Y-65608308D01*
X130743831Y-65317178D01*
X130745806Y-65315495D01*
X130884306Y-65176226D01*
X131064163Y-64995369D01*
X131065987Y-64993535D01*
X131067655Y-64991556D01*
X131356903Y-64648320D01*
X131356908Y-64648314D01*
X131358588Y-64646320D01*
X131621625Y-64276204D01*
X131853313Y-63885698D01*
X131854442Y-63883379D01*
X131854448Y-63883368D01*
X132050943Y-63479787D01*
X132050949Y-63479774D01*
X132052080Y-63477451D01*
X132053026Y-63475017D01*
X132215638Y-63056654D01*
X132215641Y-63056644D01*
X132216579Y-63054232D01*
X132287055Y-62816620D01*
X132344960Y-62621388D01*
X132344962Y-62621380D01*
X132345694Y-62618913D01*
X132438549Y-62174444D01*
X132494514Y-61723843D01*
X132512136Y-61296189D01*
X132512533Y-61290122D01*
X132512766Y-61287523D01*
X132513575Y-61282716D01*
X132513728Y-61270164D01*
X132509773Y-61242548D01*
X132508500Y-61224686D01*
X132508500Y-60053250D01*
X132510246Y-60032345D01*
X132512770Y-60017344D01*
X132512770Y-60017341D01*
X132513576Y-60012552D01*
X132513729Y-60000000D01*
X134486540Y-60000000D01*
X134506359Y-60315020D01*
X134565505Y-60625072D01*
X134663044Y-60925266D01*
X134664731Y-60928852D01*
X134664733Y-60928856D01*
X134795750Y-61207283D01*
X134795754Y-61207290D01*
X134797438Y-61210869D01*
X134799562Y-61214215D01*
X134799562Y-61214216D01*
X134807956Y-61227442D01*
X134966568Y-61477375D01*
X135167767Y-61720582D01*
X135170657Y-61723296D01*
X135170658Y-61723297D01*
X135173994Y-61726430D01*
X135397860Y-61936654D01*
X135653221Y-62122184D01*
X135929821Y-62274247D01*
X135933490Y-62275700D01*
X135933495Y-62275702D01*
X136219628Y-62388990D01*
X136223298Y-62390443D01*
X136529025Y-62468940D01*
X136842179Y-62508500D01*
X137157821Y-62508500D01*
X137470975Y-62468940D01*
X137776702Y-62390443D01*
X137780372Y-62388990D01*
X138066505Y-62275702D01*
X138066510Y-62275700D01*
X138070179Y-62274247D01*
X138346779Y-62122184D01*
X138602140Y-61936654D01*
X138826006Y-61726430D01*
X138829342Y-61723297D01*
X138829343Y-61723296D01*
X138832233Y-61720582D01*
X139033432Y-61477375D01*
X139192044Y-61227442D01*
X139200438Y-61214216D01*
X139200438Y-61214215D01*
X139202562Y-61210869D01*
X139204246Y-61207290D01*
X139204250Y-61207283D01*
X139335267Y-60928856D01*
X139335269Y-60928852D01*
X139336956Y-60925266D01*
X139434495Y-60625072D01*
X139493641Y-60315020D01*
X139513460Y-60000000D01*
X139493641Y-59684980D01*
X139434495Y-59374928D01*
X139336956Y-59074734D01*
X139330667Y-59061369D01*
X139204250Y-58792717D01*
X139204246Y-58792710D01*
X139202562Y-58789131D01*
X139033432Y-58522625D01*
X138832233Y-58279418D01*
X138602140Y-58063346D01*
X138346779Y-57877816D01*
X138178620Y-57785369D01*
X138073648Y-57727660D01*
X138073647Y-57727659D01*
X138070179Y-57725753D01*
X138066510Y-57724300D01*
X138066505Y-57724298D01*
X137780372Y-57611010D01*
X137780371Y-57611010D01*
X137776702Y-57609557D01*
X137470975Y-57531060D01*
X137157821Y-57491500D01*
X136842179Y-57491500D01*
X136529025Y-57531060D01*
X136223298Y-57609557D01*
X136219629Y-57611010D01*
X136219628Y-57611010D01*
X135933495Y-57724298D01*
X135933490Y-57724300D01*
X135929821Y-57725753D01*
X135926353Y-57727659D01*
X135926352Y-57727660D01*
X135821381Y-57785369D01*
X135653221Y-57877816D01*
X135397860Y-58063346D01*
X135167767Y-58279418D01*
X134966568Y-58522625D01*
X134797438Y-58789131D01*
X134795754Y-58792710D01*
X134795750Y-58792717D01*
X134669333Y-59061369D01*
X134663044Y-59074734D01*
X134565505Y-59374928D01*
X134506359Y-59684980D01*
X134488833Y-59963559D01*
X134486540Y-60000000D01*
X132513729Y-60000000D01*
X132511464Y-59984183D01*
X132510326Y-59960508D01*
X132527391Y-59591395D01*
X132528465Y-59579806D01*
X132584172Y-59180453D01*
X132586311Y-59169013D01*
X132647422Y-58909186D01*
X132678628Y-58776504D01*
X132681811Y-58765319D01*
X132684366Y-58757698D01*
X132745880Y-58574163D01*
X132809950Y-58383007D01*
X132814154Y-58372155D01*
X132977023Y-58003291D01*
X132982211Y-57992873D01*
X133178412Y-57640625D01*
X133184538Y-57630730D01*
X133412418Y-57298067D01*
X133419432Y-57288780D01*
X133677020Y-56978577D01*
X133684861Y-56969976D01*
X133969976Y-56684861D01*
X133978577Y-56677020D01*
X134054812Y-56613716D01*
X134288780Y-56419432D01*
X134298067Y-56412418D01*
X134630730Y-56184538D01*
X134640625Y-56178412D01*
X134992873Y-55982211D01*
X135003291Y-55977023D01*
X135372155Y-55814154D01*
X135383007Y-55809950D01*
X135574163Y-55745880D01*
X135765328Y-55681808D01*
X135776504Y-55678628D01*
X136169013Y-55586311D01*
X136180453Y-55584172D01*
X136579806Y-55528465D01*
X136591395Y-55527391D01*
X136994182Y-55508769D01*
X137005818Y-55508769D01*
X137408605Y-55527391D01*
G37*
%TD.AperFunction*%
%TD*%
M02*
