%TF.GenerationSoftware,KiCad,Pcbnew,(6.0.7)*%
%TF.CreationDate,2022-08-24T17:41:01+02:00*%
%TF.ProjectId,TVZ_kuglica,54565a5f-6b75-4676-9c69-63612e6b6963,rev?*%
%TF.SameCoordinates,Original*%
%TF.FileFunction,Copper,L2,Bot*%
%TF.FilePolarity,Positive*%
%FSLAX46Y46*%
G04 Gerber Fmt 4.6, Leading zero omitted, Abs format (unit mm)*
G04 Created by KiCad (PCBNEW (6.0.7)) date 2022-08-24 17:41:01*
%MOMM*%
%LPD*%
G01*
G04 APERTURE LIST*
G04 Aperture macros list*
%AMRoundRect*
0 Rectangle with rounded corners*
0 $1 Rounding radius*
0 $2 $3 $4 $5 $6 $7 $8 $9 X,Y pos of 4 corners*
0 Add a 4 corners polygon primitive as box body*
4,1,4,$2,$3,$4,$5,$6,$7,$8,$9,$2,$3,0*
0 Add four circle primitives for the rounded corners*
1,1,$1+$1,$2,$3*
1,1,$1+$1,$4,$5*
1,1,$1+$1,$6,$7*
1,1,$1+$1,$8,$9*
0 Add four rect primitives between the rounded corners*
20,1,$1+$1,$2,$3,$4,$5,0*
20,1,$1+$1,$4,$5,$6,$7,0*
20,1,$1+$1,$6,$7,$8,$9,0*
20,1,$1+$1,$8,$9,$2,$3,0*%
G04 Aperture macros list end*
%TA.AperFunction,SMDPad,CuDef*%
%ADD10R,0.800000X1.000000*%
%TD*%
%TA.AperFunction,SMDPad,CuDef*%
%ADD11R,1.500000X0.700000*%
%TD*%
%TA.AperFunction,SMDPad,CuDef*%
%ADD12RoundRect,0.200000X-0.200000X-0.275000X0.200000X-0.275000X0.200000X0.275000X-0.200000X0.275000X0*%
%TD*%
%TA.AperFunction,SMDPad,CuDef*%
%ADD13RoundRect,0.200000X0.200000X0.275000X-0.200000X0.275000X-0.200000X-0.275000X0.200000X-0.275000X0*%
%TD*%
%TA.AperFunction,SMDPad,CuDef*%
%ADD14RoundRect,0.500000X3.000000X2.000000X-3.000000X2.000000X-3.000000X-2.000000X3.000000X-2.000000X0*%
%TD*%
%TA.AperFunction,ViaPad*%
%ADD15C,0.800000*%
%TD*%
%TA.AperFunction,Conductor*%
%ADD16C,0.762000*%
%TD*%
%TA.AperFunction,Conductor*%
%ADD17C,1.524000*%
%TD*%
G04 APERTURE END LIST*
D10*
%TO.P,SW1,*%
%TO.N,*%
X105280000Y-103400000D03*
X105280000Y-96100000D03*
X103070000Y-96100000D03*
X103070000Y-103400000D03*
D11*
%TO.P,SW1,1,A*%
%TO.N,Net-(R2-Pad1)*%
X105930000Y-102000000D03*
%TO.P,SW1,2,B*%
%TO.N,VCC*%
X105930000Y-99000000D03*
%TO.P,SW1,3,C*%
%TO.N,unconnected-(SW1-Pad3)*%
X105930000Y-97500000D03*
%TD*%
D12*
%TO.P,R2,1*%
%TO.N,Net-(R2-Pad1)*%
X118925000Y-74750000D03*
%TO.P,R2,2*%
%TO.N,Net-(D2-Pad1)*%
X120575000Y-74750000D03*
%TD*%
D13*
%TO.P,R3,1*%
%TO.N,Net-(R2-Pad1)*%
X152325000Y-76500000D03*
%TO.P,R3,2*%
%TO.N,Net-(D3-Pad1)*%
X150675000Y-76500000D03*
%TD*%
D12*
%TO.P,R5,1*%
%TO.N,Net-(R2-Pad1)*%
X107925000Y-112000000D03*
%TO.P,R5,2*%
%TO.N,Net-(D5-Pad1)*%
X109575000Y-112000000D03*
%TD*%
%TO.P,R6,1*%
%TO.N,Net-(R2-Pad1)*%
X122675000Y-123500000D03*
%TO.P,R6,2*%
%TO.N,Net-(D7-Pad1)*%
X124325000Y-123500000D03*
%TD*%
%TO.P,R7,1*%
%TO.N,Net-(R2-Pad1)*%
X159675000Y-105000000D03*
%TO.P,R7,2*%
%TO.N,Net-(D8-Pad1)*%
X161325000Y-105000000D03*
%TD*%
%TO.P,R8,1*%
%TO.N,Net-(R2-Pad1)*%
X121875000Y-94000000D03*
%TO.P,R8,2*%
%TO.N,Net-(D11-Pad1)*%
X123525000Y-94000000D03*
%TD*%
D14*
%TO.P,BT1,1,+*%
%TO.N,VCC*%
X142500000Y-70750000D03*
%TO.P,BT1,2*%
%TO.N,unconnected-(BT1-Pad2)*%
X131500000Y-129250000D03*
X142500000Y-129250000D03*
%TO.P,BT1,3,-*%
%TO.N,GND*%
X131500000Y-70750000D03*
%TD*%
D15*
%TO.N,GND*%
X156750000Y-90750000D03*
X151500000Y-129750000D03*
X131000000Y-78500000D03*
X161250000Y-114250000D03*
X128750000Y-102750000D03*
X121750000Y-129000000D03*
X115000000Y-117000000D03*
X114250000Y-94500000D03*
%TO.N,Net-(D2-Pad1)*%
X121500000Y-74750000D03*
%TO.N,Net-(D3-Pad1)*%
X148000000Y-76500000D03*
%TO.N,Net-(D5-Pad1)*%
X110500000Y-112000000D03*
%TO.N,Net-(D7-Pad1)*%
X136000000Y-128250000D03*
%TO.N,Net-(D8-Pad1)*%
X162250000Y-105000000D03*
%TO.N,Net-(D11-Pad1)*%
X137500000Y-94000000D03*
%TD*%
D16*
%TO.N,Net-(R2-Pad1)*%
X146178947Y-67321053D02*
X155303947Y-76446053D01*
X138178947Y-67321053D02*
X146178947Y-67321053D01*
X128250000Y-75000000D02*
X135200000Y-75000000D01*
X125000000Y-71750000D02*
X128250000Y-75000000D01*
X120750000Y-71750000D02*
X125000000Y-71750000D01*
X136800000Y-68700000D02*
X138178947Y-67321053D01*
X135200000Y-75000000D02*
X136800000Y-73400000D01*
X118925000Y-73575000D02*
X120750000Y-71750000D01*
X136800000Y-73400000D02*
X136800000Y-68700000D01*
X118925000Y-74750000D02*
X118925000Y-73575000D01*
X118925000Y-74750000D02*
X118925000Y-92175000D01*
X159675000Y-80817107D02*
X159675000Y-105000000D01*
X159675000Y-105000000D02*
X108000000Y-105000000D01*
X122675000Y-123500000D02*
X118250000Y-123500000D01*
X155250000Y-76500000D02*
X155303947Y-76446053D01*
X107925000Y-112000000D02*
X107925000Y-104925000D01*
X120750000Y-94000000D02*
X121875000Y-94000000D01*
X107925000Y-112000000D02*
X107925000Y-113175000D01*
X108000000Y-105000000D02*
X107925000Y-104925000D01*
X118925000Y-92175000D02*
X120750000Y-94000000D01*
X107000000Y-102000000D02*
X105930000Y-102000000D01*
X107925000Y-113175000D02*
X118250000Y-123500000D01*
X152325000Y-76500000D02*
X155250000Y-76500000D01*
X155303947Y-76446053D02*
X159675000Y-80817107D01*
X107925000Y-102925000D02*
X107000000Y-102000000D01*
X107925000Y-104925000D02*
X107925000Y-102925000D01*
%TO.N,VCC*%
X142500000Y-70750000D02*
X142500000Y-82500000D01*
X141500000Y-99000000D02*
X105930000Y-99000000D01*
X144250000Y-96250000D02*
X141500000Y-99000000D01*
X142500000Y-82500000D02*
X144250000Y-84250000D01*
X144250000Y-84250000D02*
X144250000Y-96250000D01*
%TO.N,Net-(D2-Pad1)*%
X120575000Y-74750000D02*
X121500000Y-74750000D01*
%TO.N,Net-(D3-Pad1)*%
X150675000Y-76500000D02*
X148000000Y-76500000D01*
%TO.N,Net-(D5-Pad1)*%
X109575000Y-112000000D02*
X110500000Y-112000000D01*
%TO.N,Net-(D7-Pad1)*%
X134500000Y-123500000D02*
X136000000Y-125000000D01*
X124325000Y-123500000D02*
X134500000Y-123500000D01*
X136000000Y-125000000D02*
X136000000Y-128250000D01*
%TO.N,Net-(D8-Pad1)*%
X161325000Y-105000000D02*
X162250000Y-105000000D01*
%TO.N,Net-(D11-Pad1)*%
X123525000Y-94000000D02*
X137500000Y-94000000D01*
D17*
%TO.N,unconnected-(BT1-Pad2)*%
X131500000Y-129250000D02*
X134750000Y-132500000D01*
X139250000Y-132500000D02*
X142500000Y-129250000D01*
X134750000Y-132500000D02*
X139250000Y-132500000D01*
%TD*%
%TA.AperFunction,Conductor*%
%TO.N,GND*%
G36*
X137408605Y-55527391D02*
G01*
X137420194Y-55528465D01*
X137819547Y-55584172D01*
X137830987Y-55586311D01*
X138223496Y-55678628D01*
X138234672Y-55681808D01*
X138425837Y-55745881D01*
X138616993Y-55809950D01*
X138627845Y-55814154D01*
X138996709Y-55977023D01*
X139007127Y-55982211D01*
X139359375Y-56178412D01*
X139369270Y-56184538D01*
X139701933Y-56412418D01*
X139711220Y-56419432D01*
X139945189Y-56613716D01*
X140021423Y-56677020D01*
X140030024Y-56684861D01*
X140315139Y-56969976D01*
X140322980Y-56978577D01*
X140580568Y-57288780D01*
X140587582Y-57298067D01*
X140815462Y-57630730D01*
X140821588Y-57640625D01*
X141017789Y-57992873D01*
X141022977Y-58003291D01*
X141185846Y-58372155D01*
X141190050Y-58383007D01*
X141254120Y-58574163D01*
X141315635Y-58757698D01*
X141318189Y-58765319D01*
X141321372Y-58776504D01*
X141352578Y-58909186D01*
X141413689Y-59169013D01*
X141415828Y-59180453D01*
X141471535Y-59579806D01*
X141472609Y-59591395D01*
X141489502Y-59956785D01*
X141488136Y-59981989D01*
X141487690Y-59984850D01*
X141487690Y-59984856D01*
X141486309Y-59993724D01*
X141487473Y-60002626D01*
X141487473Y-60002628D01*
X141490436Y-60025283D01*
X141491500Y-60041621D01*
X141491500Y-61216915D01*
X141489754Y-61237818D01*
X141486424Y-61257612D01*
X141486271Y-61270164D01*
X141486961Y-61274985D01*
X141487030Y-61276038D01*
X141487188Y-61279014D01*
X141505518Y-61723840D01*
X141561483Y-62174439D01*
X141654337Y-62618905D01*
X141655071Y-62621378D01*
X141655071Y-62621380D01*
X141712976Y-62816609D01*
X141783451Y-63054222D01*
X141947949Y-63477438D01*
X141949083Y-63479767D01*
X141949086Y-63479774D01*
X142145580Y-63883352D01*
X142145586Y-63883363D01*
X142146715Y-63885682D01*
X142148037Y-63887911D01*
X142148038Y-63887912D01*
X142207489Y-63988115D01*
X142378402Y-64276186D01*
X142379910Y-64278308D01*
X142379912Y-64278311D01*
X142511499Y-64463465D01*
X142641437Y-64646300D01*
X142643117Y-64648294D01*
X142643122Y-64648300D01*
X142932368Y-64991534D01*
X142934036Y-64993513D01*
X143254215Y-65315471D01*
X143599802Y-65609990D01*
X143601907Y-65611503D01*
X143601910Y-65611506D01*
X143607538Y-65615553D01*
X143968453Y-65875072D01*
X144357667Y-66108918D01*
X144527095Y-66192574D01*
X144579320Y-66240668D01*
X144597253Y-66309363D01*
X144575201Y-66376848D01*
X144520164Y-66421697D01*
X144471311Y-66431553D01*
X138258872Y-66431553D01*
X138239161Y-66430002D01*
X138232274Y-66428911D01*
X138232272Y-66428911D01*
X138225757Y-66427879D01*
X138219169Y-66428224D01*
X138219165Y-66428224D01*
X138158948Y-66431380D01*
X138152354Y-66431553D01*
X138132327Y-66431553D01*
X138129056Y-66431897D01*
X138129052Y-66431897D01*
X138112408Y-66433646D01*
X138105834Y-66434163D01*
X138045631Y-66437318D01*
X138045629Y-66437318D01*
X138039032Y-66437664D01*
X138025919Y-66441178D01*
X138006477Y-66444781D01*
X138005235Y-66444911D01*
X137999562Y-66445507D01*
X137999558Y-66445508D01*
X137992991Y-66446198D01*
X137937966Y-66464076D01*
X137929365Y-66466871D01*
X137923041Y-66468744D01*
X137858423Y-66486059D01*
X137846331Y-66492220D01*
X137828072Y-66499783D01*
X137815162Y-66503978D01*
X137762972Y-66534110D01*
X137757223Y-66537429D01*
X137751427Y-66540576D01*
X137691822Y-66570946D01*
X137681277Y-66579485D01*
X137664992Y-66590678D01*
X137658945Y-66594169D01*
X137658942Y-66594172D01*
X137653232Y-66597468D01*
X137648332Y-66601880D01*
X137648328Y-66601883D01*
X137603522Y-66642228D01*
X137598501Y-66646516D01*
X137582941Y-66659116D01*
X137568794Y-66673263D01*
X137564010Y-66677804D01*
X137514278Y-66722583D01*
X137506295Y-66733571D01*
X137493458Y-66748599D01*
X136227546Y-68014511D01*
X136212518Y-68027348D01*
X136201530Y-68035331D01*
X136197117Y-68040233D01*
X136197115Y-68040234D01*
X136156751Y-68085063D01*
X136152210Y-68089847D01*
X136138063Y-68103994D01*
X136135986Y-68106559D01*
X136125463Y-68119554D01*
X136121175Y-68124575D01*
X136080830Y-68169381D01*
X136080827Y-68169385D01*
X136076415Y-68174285D01*
X136073119Y-68179995D01*
X136073116Y-68179998D01*
X136069625Y-68186045D01*
X136058432Y-68202330D01*
X136049893Y-68212875D01*
X136020212Y-68271127D01*
X136019523Y-68272480D01*
X136016376Y-68278276D01*
X135982925Y-68336215D01*
X135980884Y-68342497D01*
X135978731Y-68349123D01*
X135971167Y-68367384D01*
X135965006Y-68379476D01*
X135963296Y-68385859D01*
X135947691Y-68444094D01*
X135945818Y-68450418D01*
X135925145Y-68514044D01*
X135924455Y-68520611D01*
X135924454Y-68520615D01*
X135923728Y-68527529D01*
X135920125Y-68546972D01*
X135916611Y-68560085D01*
X135916265Y-68566682D01*
X135916265Y-68566684D01*
X135913110Y-68626887D01*
X135912593Y-68633461D01*
X135911108Y-68647592D01*
X135910500Y-68653380D01*
X135910500Y-68673407D01*
X135910327Y-68680001D01*
X135906826Y-68746810D01*
X135907858Y-68753325D01*
X135907858Y-68753327D01*
X135908949Y-68760214D01*
X135910500Y-68779925D01*
X135910500Y-72979367D01*
X135890498Y-73047488D01*
X135873595Y-73068462D01*
X134868462Y-74073595D01*
X134806150Y-74107621D01*
X134779367Y-74110500D01*
X128670633Y-74110500D01*
X128602512Y-74090498D01*
X128581538Y-74073595D01*
X125685489Y-71177546D01*
X125672652Y-71162518D01*
X125664669Y-71151530D01*
X125614937Y-71106751D01*
X125610153Y-71102210D01*
X125596006Y-71088063D01*
X125580446Y-71075463D01*
X125575425Y-71071175D01*
X125530619Y-71030830D01*
X125530615Y-71030827D01*
X125525715Y-71026415D01*
X125520005Y-71023119D01*
X125520002Y-71023116D01*
X125513955Y-71019625D01*
X125497670Y-71008432D01*
X125487125Y-70999893D01*
X125427520Y-70969523D01*
X125421724Y-70966376D01*
X125415975Y-70963057D01*
X125363785Y-70932925D01*
X125350875Y-70928730D01*
X125332616Y-70921167D01*
X125320524Y-70915006D01*
X125255906Y-70897691D01*
X125249582Y-70895818D01*
X125240981Y-70893023D01*
X125185956Y-70875145D01*
X125179389Y-70874455D01*
X125179385Y-70874454D01*
X125173712Y-70873858D01*
X125172470Y-70873728D01*
X125153028Y-70870125D01*
X125139915Y-70866611D01*
X125133318Y-70866265D01*
X125133316Y-70866265D01*
X125073113Y-70863110D01*
X125066539Y-70862593D01*
X125049895Y-70860844D01*
X125049891Y-70860844D01*
X125046620Y-70860500D01*
X125026593Y-70860500D01*
X125019999Y-70860327D01*
X124959782Y-70857171D01*
X124959778Y-70857171D01*
X124953190Y-70856826D01*
X124946675Y-70857858D01*
X124946673Y-70857858D01*
X124939786Y-70858949D01*
X124920075Y-70860500D01*
X120829925Y-70860500D01*
X120810214Y-70858949D01*
X120803327Y-70857858D01*
X120803325Y-70857858D01*
X120796810Y-70856826D01*
X120790222Y-70857171D01*
X120790218Y-70857171D01*
X120730001Y-70860327D01*
X120723407Y-70860500D01*
X120703380Y-70860500D01*
X120700109Y-70860844D01*
X120700105Y-70860844D01*
X120683461Y-70862593D01*
X120676887Y-70863110D01*
X120616684Y-70866265D01*
X120616682Y-70866265D01*
X120610085Y-70866611D01*
X120596972Y-70870125D01*
X120577530Y-70873728D01*
X120576288Y-70873858D01*
X120570615Y-70874454D01*
X120570611Y-70874455D01*
X120564044Y-70875145D01*
X120509019Y-70893023D01*
X120500418Y-70895818D01*
X120494094Y-70897691D01*
X120429476Y-70915006D01*
X120417384Y-70921167D01*
X120399125Y-70928730D01*
X120386215Y-70932925D01*
X120334025Y-70963057D01*
X120328276Y-70966376D01*
X120322480Y-70969523D01*
X120262875Y-70999893D01*
X120252330Y-71008432D01*
X120236045Y-71019625D01*
X120229998Y-71023116D01*
X120229995Y-71023119D01*
X120224285Y-71026415D01*
X120219385Y-71030827D01*
X120219381Y-71030830D01*
X120174575Y-71071175D01*
X120169554Y-71075463D01*
X120153994Y-71088063D01*
X120139847Y-71102210D01*
X120135063Y-71106751D01*
X120085331Y-71151530D01*
X120077348Y-71162518D01*
X120064511Y-71177546D01*
X118352546Y-72889511D01*
X118337518Y-72902348D01*
X118326530Y-72910331D01*
X118322117Y-72915233D01*
X118322115Y-72915234D01*
X118281751Y-72960063D01*
X118277210Y-72964847D01*
X118263063Y-72978994D01*
X118260986Y-72981559D01*
X118250463Y-72994554D01*
X118246175Y-72999575D01*
X118205830Y-73044381D01*
X118205827Y-73044385D01*
X118201415Y-73049285D01*
X118198119Y-73054995D01*
X118198116Y-73054998D01*
X118194625Y-73061045D01*
X118183432Y-73077330D01*
X118174893Y-73087875D01*
X118144523Y-73147480D01*
X118141376Y-73153276D01*
X118107925Y-73211215D01*
X118105884Y-73217497D01*
X118103731Y-73224123D01*
X118096167Y-73242384D01*
X118090006Y-73254476D01*
X118088296Y-73260859D01*
X118072691Y-73319094D01*
X118070818Y-73325418D01*
X118050145Y-73389044D01*
X118049455Y-73395611D01*
X118049454Y-73395615D01*
X118048728Y-73402529D01*
X118045125Y-73421972D01*
X118041611Y-73435085D01*
X118041265Y-73441682D01*
X118041265Y-73441684D01*
X118038110Y-73501887D01*
X118037593Y-73508461D01*
X118035500Y-73528380D01*
X118035500Y-73548407D01*
X118035327Y-73555001D01*
X118033376Y-73592240D01*
X118031826Y-73621810D01*
X118032858Y-73628325D01*
X118032858Y-73628327D01*
X118033949Y-73635214D01*
X118035500Y-73654925D01*
X118035500Y-74286559D01*
X118029734Y-74324238D01*
X118023247Y-74344938D01*
X118016500Y-74418365D01*
X118016500Y-74421263D01*
X118016501Y-74750860D01*
X118016501Y-75081634D01*
X118023247Y-75155062D01*
X118025246Y-75161440D01*
X118025246Y-75161441D01*
X118029734Y-75175762D01*
X118035500Y-75213441D01*
X118035500Y-92095075D01*
X118033949Y-92114785D01*
X118031826Y-92128190D01*
X118032171Y-92134778D01*
X118032171Y-92134782D01*
X118035327Y-92194999D01*
X118035500Y-92201593D01*
X118035500Y-92221620D01*
X118035844Y-92224891D01*
X118035844Y-92224895D01*
X118037593Y-92241539D01*
X118038110Y-92248113D01*
X118041611Y-92314915D01*
X118043320Y-92321292D01*
X118043320Y-92321293D01*
X118045124Y-92328023D01*
X118048728Y-92347470D01*
X118050145Y-92360956D01*
X118052187Y-92367240D01*
X118070818Y-92424582D01*
X118072691Y-92430906D01*
X118090006Y-92495524D01*
X118096167Y-92507616D01*
X118103730Y-92525875D01*
X118107925Y-92538785D01*
X118138057Y-92590975D01*
X118141376Y-92596724D01*
X118144523Y-92602520D01*
X118174893Y-92662125D01*
X118179050Y-92667258D01*
X118183432Y-92672670D01*
X118194625Y-92688955D01*
X118198116Y-92695002D01*
X118198119Y-92695005D01*
X118201415Y-92700715D01*
X118205827Y-92705615D01*
X118205830Y-92705619D01*
X118246175Y-92750425D01*
X118250463Y-92755446D01*
X118263063Y-92771006D01*
X118277210Y-92785153D01*
X118281751Y-92789937D01*
X118326530Y-92839669D01*
X118337518Y-92847652D01*
X118352546Y-92860489D01*
X120064511Y-94572454D01*
X120077348Y-94587482D01*
X120085331Y-94598470D01*
X120090233Y-94602883D01*
X120090234Y-94602885D01*
X120135063Y-94643249D01*
X120139847Y-94647790D01*
X120153994Y-94661937D01*
X120156559Y-94664014D01*
X120169554Y-94674537D01*
X120174568Y-94678819D01*
X120178933Y-94682749D01*
X120219381Y-94719170D01*
X120219385Y-94719173D01*
X120224285Y-94723585D01*
X120229995Y-94726881D01*
X120229998Y-94726884D01*
X120236045Y-94730375D01*
X120252330Y-94741568D01*
X120262875Y-94750107D01*
X120322480Y-94780477D01*
X120328276Y-94783624D01*
X120386215Y-94817075D01*
X120399125Y-94821270D01*
X120417384Y-94828833D01*
X120429476Y-94834994D01*
X120486641Y-94850312D01*
X120494094Y-94852309D01*
X120500419Y-94854182D01*
X120564044Y-94874855D01*
X120570611Y-94875545D01*
X120570615Y-94875546D01*
X120576288Y-94876142D01*
X120577530Y-94876272D01*
X120596972Y-94879875D01*
X120610085Y-94883389D01*
X120616682Y-94883735D01*
X120616684Y-94883735D01*
X120676887Y-94886890D01*
X120683461Y-94887407D01*
X120700105Y-94889156D01*
X120700109Y-94889156D01*
X120703380Y-94889500D01*
X120723407Y-94889500D01*
X120730001Y-94889673D01*
X120790218Y-94892829D01*
X120790222Y-94892829D01*
X120796810Y-94893174D01*
X120803325Y-94892142D01*
X120803327Y-94892142D01*
X120810214Y-94891051D01*
X120829925Y-94889500D01*
X121286724Y-94889500D01*
X121351994Y-94907724D01*
X121374799Y-94921535D01*
X121374804Y-94921537D01*
X121381301Y-94925472D01*
X121388548Y-94927743D01*
X121388550Y-94927744D01*
X121447986Y-94946370D01*
X121544938Y-94976753D01*
X121618365Y-94983500D01*
X121621263Y-94983500D01*
X121875665Y-94983499D01*
X122131634Y-94983499D01*
X122134492Y-94983236D01*
X122134501Y-94983236D01*
X122170004Y-94979974D01*
X122205062Y-94976753D01*
X122302014Y-94946370D01*
X122361450Y-94927744D01*
X122361452Y-94927743D01*
X122368699Y-94925472D01*
X122515381Y-94836639D01*
X122610905Y-94741115D01*
X122673217Y-94707089D01*
X122744032Y-94712154D01*
X122789095Y-94741115D01*
X122884619Y-94836639D01*
X123031301Y-94925472D01*
X123038548Y-94927743D01*
X123038550Y-94927744D01*
X123097986Y-94946370D01*
X123194938Y-94976753D01*
X123268365Y-94983500D01*
X123271263Y-94983500D01*
X123525665Y-94983499D01*
X123781634Y-94983499D01*
X123784492Y-94983236D01*
X123784501Y-94983236D01*
X123820004Y-94979974D01*
X123855062Y-94976753D01*
X123952014Y-94946370D01*
X124011450Y-94927744D01*
X124011452Y-94927743D01*
X124018699Y-94925472D01*
X124025196Y-94921537D01*
X124025201Y-94921535D01*
X124048006Y-94907724D01*
X124113276Y-94889500D01*
X137301881Y-94889500D01*
X137328078Y-94892253D01*
X137398056Y-94907128D01*
X137398061Y-94907128D01*
X137404513Y-94908500D01*
X137595487Y-94908500D01*
X137601939Y-94907128D01*
X137601944Y-94907128D01*
X137694721Y-94887407D01*
X137782288Y-94868794D01*
X137788319Y-94866109D01*
X137950722Y-94793803D01*
X137950724Y-94793802D01*
X137956752Y-94791118D01*
X138111253Y-94678866D01*
X138139234Y-94647790D01*
X138234621Y-94541852D01*
X138234622Y-94541851D01*
X138239040Y-94536944D01*
X138334527Y-94371556D01*
X138393542Y-94189928D01*
X138413504Y-94000000D01*
X138393542Y-93810072D01*
X138334527Y-93628444D01*
X138239040Y-93463056D01*
X138111253Y-93321134D01*
X137956752Y-93208882D01*
X137950724Y-93206198D01*
X137950722Y-93206197D01*
X137788319Y-93133891D01*
X137788318Y-93133891D01*
X137782288Y-93131206D01*
X137688888Y-93111353D01*
X137601944Y-93092872D01*
X137601939Y-93092872D01*
X137595487Y-93091500D01*
X137404513Y-93091500D01*
X137398061Y-93092872D01*
X137398056Y-93092872D01*
X137328078Y-93107747D01*
X137301881Y-93110500D01*
X124113276Y-93110500D01*
X124048006Y-93092276D01*
X124025201Y-93078465D01*
X124025196Y-93078463D01*
X124018699Y-93074528D01*
X124011452Y-93072257D01*
X124011450Y-93072256D01*
X123945164Y-93051483D01*
X123855062Y-93023247D01*
X123781635Y-93016500D01*
X123778737Y-93016500D01*
X123524335Y-93016501D01*
X123268366Y-93016501D01*
X123265508Y-93016764D01*
X123265499Y-93016764D01*
X123229996Y-93020026D01*
X123194938Y-93023247D01*
X123188560Y-93025246D01*
X123188559Y-93025246D01*
X123038550Y-93072256D01*
X123038548Y-93072257D01*
X123031301Y-93074528D01*
X122884619Y-93163361D01*
X122789095Y-93258885D01*
X122726783Y-93292911D01*
X122655968Y-93287846D01*
X122610905Y-93258885D01*
X122515381Y-93163361D01*
X122368699Y-93074528D01*
X122361452Y-93072257D01*
X122361450Y-93072256D01*
X122295164Y-93051483D01*
X122205062Y-93023247D01*
X122131635Y-93016500D01*
X122128737Y-93016500D01*
X121874335Y-93016501D01*
X121618366Y-93016501D01*
X121615508Y-93016764D01*
X121615499Y-93016764D01*
X121579996Y-93020026D01*
X121544938Y-93023247D01*
X121538560Y-93025246D01*
X121538559Y-93025246D01*
X121388550Y-93072256D01*
X121388548Y-93072257D01*
X121381301Y-93074528D01*
X121374804Y-93078463D01*
X121374799Y-93078465D01*
X121351994Y-93092276D01*
X121286724Y-93110500D01*
X121170633Y-93110500D01*
X121102512Y-93090498D01*
X121081538Y-93073595D01*
X119851405Y-91843462D01*
X119817379Y-91781150D01*
X119814500Y-91754367D01*
X119814500Y-75737506D01*
X119834502Y-75669385D01*
X119888158Y-75622892D01*
X119958432Y-75612788D01*
X120005771Y-75629730D01*
X120058952Y-75661937D01*
X120081301Y-75675472D01*
X120088548Y-75677743D01*
X120088550Y-75677744D01*
X120092000Y-75678825D01*
X120244938Y-75726753D01*
X120318365Y-75733500D01*
X120321263Y-75733500D01*
X120575665Y-75733499D01*
X120831634Y-75733499D01*
X120834492Y-75733236D01*
X120834501Y-75733236D01*
X120870004Y-75729974D01*
X120905062Y-75726753D01*
X120915171Y-75723585D01*
X121061450Y-75677744D01*
X121061452Y-75677743D01*
X121068699Y-75675472D01*
X121075196Y-75671537D01*
X121075201Y-75671535D01*
X121098006Y-75657724D01*
X121163276Y-75639500D01*
X121301881Y-75639500D01*
X121328077Y-75642253D01*
X121335959Y-75643928D01*
X121398056Y-75657128D01*
X121398061Y-75657128D01*
X121404513Y-75658500D01*
X121595487Y-75658500D01*
X121601939Y-75657128D01*
X121601944Y-75657128D01*
X121688887Y-75638647D01*
X121782288Y-75618794D01*
X121807100Y-75607747D01*
X121950722Y-75543803D01*
X121950724Y-75543802D01*
X121956752Y-75541118D01*
X121988902Y-75517760D01*
X122086369Y-75446945D01*
X122111253Y-75428866D01*
X122239040Y-75286944D01*
X122334527Y-75121556D01*
X122393542Y-74939928D01*
X122413504Y-74750000D01*
X122393542Y-74560072D01*
X122334527Y-74378444D01*
X122311497Y-74338554D01*
X122242341Y-74218774D01*
X122239040Y-74213056D01*
X122228198Y-74201014D01*
X122115675Y-74076045D01*
X122115674Y-74076044D01*
X122111253Y-74071134D01*
X121982903Y-73977882D01*
X121962094Y-73962763D01*
X121962093Y-73962762D01*
X121956752Y-73958882D01*
X121950724Y-73956198D01*
X121950722Y-73956197D01*
X121788319Y-73883891D01*
X121788318Y-73883891D01*
X121782288Y-73881206D01*
X121688887Y-73861353D01*
X121601944Y-73842872D01*
X121601939Y-73842872D01*
X121595487Y-73841500D01*
X121404513Y-73841500D01*
X121398061Y-73842872D01*
X121398056Y-73842872D01*
X121328078Y-73857747D01*
X121301881Y-73860500D01*
X121163276Y-73860500D01*
X121098006Y-73842276D01*
X121075201Y-73828465D01*
X121075196Y-73828463D01*
X121068699Y-73824528D01*
X121061452Y-73822257D01*
X121061450Y-73822256D01*
X120995164Y-73801483D01*
X120905062Y-73773247D01*
X120831635Y-73766500D01*
X120828737Y-73766500D01*
X120574335Y-73766501D01*
X120318366Y-73766501D01*
X120309955Y-73767274D01*
X120305443Y-73767688D01*
X120235778Y-73754001D01*
X120184572Y-73704823D01*
X120168082Y-73635768D01*
X120191544Y-73568760D01*
X120204822Y-73553121D01*
X121081538Y-72676405D01*
X121143850Y-72642379D01*
X121170633Y-72639500D01*
X124579367Y-72639500D01*
X124647488Y-72659502D01*
X124668462Y-72676405D01*
X127564511Y-75572454D01*
X127577348Y-75587482D01*
X127585331Y-75598470D01*
X127590233Y-75602883D01*
X127590234Y-75602885D01*
X127635063Y-75643249D01*
X127639847Y-75647790D01*
X127653994Y-75661937D01*
X127656559Y-75664014D01*
X127669554Y-75674537D01*
X127674575Y-75678825D01*
X127719381Y-75719170D01*
X127719385Y-75719173D01*
X127724285Y-75723585D01*
X127729995Y-75726881D01*
X127729998Y-75726884D01*
X127736045Y-75730375D01*
X127752330Y-75741568D01*
X127762875Y-75750107D01*
X127822480Y-75780477D01*
X127828276Y-75783624D01*
X127834025Y-75786943D01*
X127886215Y-75817075D01*
X127899125Y-75821270D01*
X127917384Y-75828833D01*
X127929476Y-75834994D01*
X127994138Y-75852320D01*
X128000386Y-75854172D01*
X128064044Y-75874855D01*
X128077526Y-75876272D01*
X128077536Y-75876273D01*
X128096980Y-75879877D01*
X128103705Y-75881679D01*
X128103710Y-75881680D01*
X128110085Y-75883388D01*
X128116675Y-75883733D01*
X128116679Y-75883734D01*
X128176880Y-75886889D01*
X128183455Y-75887406D01*
X128203380Y-75889500D01*
X128223414Y-75889500D01*
X128230008Y-75889673D01*
X128290218Y-75892829D01*
X128290223Y-75892829D01*
X128296810Y-75893174D01*
X128303325Y-75892142D01*
X128303327Y-75892142D01*
X128310214Y-75891051D01*
X128329925Y-75889500D01*
X135120075Y-75889500D01*
X135139786Y-75891051D01*
X135146673Y-75892142D01*
X135146675Y-75892142D01*
X135153190Y-75893174D01*
X135159778Y-75892829D01*
X135159782Y-75892829D01*
X135219999Y-75889673D01*
X135226593Y-75889500D01*
X135246620Y-75889500D01*
X135249891Y-75889156D01*
X135249895Y-75889156D01*
X135266539Y-75887407D01*
X135273113Y-75886890D01*
X135333316Y-75883735D01*
X135333318Y-75883735D01*
X135339915Y-75883389D01*
X135346297Y-75881679D01*
X135347761Y-75881286D01*
X135353028Y-75879875D01*
X135372470Y-75876272D01*
X135373712Y-75876142D01*
X135379385Y-75875546D01*
X135379389Y-75875545D01*
X135385956Y-75874855D01*
X135449585Y-75854181D01*
X135455906Y-75852309D01*
X135463359Y-75850312D01*
X135520524Y-75834994D01*
X135532616Y-75828833D01*
X135550875Y-75821270D01*
X135563785Y-75817075D01*
X135615975Y-75786943D01*
X135621724Y-75783624D01*
X135627520Y-75780477D01*
X135687125Y-75750107D01*
X135697670Y-75741568D01*
X135713955Y-75730375D01*
X135720002Y-75726884D01*
X135720005Y-75726881D01*
X135725715Y-75723585D01*
X135730615Y-75719173D01*
X135730619Y-75719170D01*
X135775425Y-75678825D01*
X135780446Y-75674537D01*
X135793441Y-75664014D01*
X135796006Y-75661937D01*
X135810153Y-75647790D01*
X135814937Y-75643249D01*
X135859766Y-75602885D01*
X135859767Y-75602883D01*
X135864669Y-75598470D01*
X135872652Y-75587482D01*
X135885489Y-75572454D01*
X137372454Y-74085489D01*
X137387482Y-74072652D01*
X137398470Y-74064669D01*
X137443249Y-74014937D01*
X137447790Y-74010153D01*
X137461937Y-73996006D01*
X137474537Y-73980446D01*
X137478825Y-73975425D01*
X137519170Y-73930619D01*
X137519173Y-73930615D01*
X137523585Y-73925715D01*
X137526881Y-73920005D01*
X137526884Y-73920002D01*
X137530375Y-73913955D01*
X137541568Y-73897670D01*
X137545950Y-73892258D01*
X137550107Y-73887125D01*
X137580477Y-73827520D01*
X137583624Y-73821724D01*
X137608578Y-73778502D01*
X137617075Y-73763785D01*
X137621270Y-73750875D01*
X137628833Y-73732616D01*
X137634994Y-73720524D01*
X137652309Y-73655906D01*
X137654182Y-73649582D01*
X137672813Y-73592240D01*
X137674855Y-73585956D01*
X137676272Y-73572470D01*
X137679876Y-73553023D01*
X137681680Y-73546293D01*
X137681680Y-73546292D01*
X137683389Y-73539915D01*
X137683976Y-73528711D01*
X137686890Y-73473113D01*
X137687407Y-73466539D01*
X137689156Y-73449895D01*
X137689156Y-73449891D01*
X137689500Y-73446620D01*
X137689500Y-73426593D01*
X137689673Y-73419999D01*
X137692829Y-73359782D01*
X137692829Y-73359778D01*
X137693174Y-73353190D01*
X137691051Y-73339785D01*
X137689500Y-73320075D01*
X137689500Y-69120633D01*
X137709502Y-69052512D01*
X137726405Y-69031538D01*
X138293051Y-68464892D01*
X138355363Y-68430866D01*
X138426178Y-68435931D01*
X138483014Y-68478478D01*
X138507825Y-68544998D01*
X138505660Y-68578891D01*
X138492733Y-68643002D01*
X138492732Y-68643009D01*
X138491808Y-68647592D01*
X138491500Y-68653672D01*
X138491500Y-72846328D01*
X138491808Y-72852408D01*
X138492733Y-72856995D01*
X138492733Y-72856996D01*
X138527931Y-73031557D01*
X138530900Y-73046284D01*
X138606905Y-73228873D01*
X138610332Y-73233992D01*
X138610334Y-73233996D01*
X138713496Y-73388099D01*
X138713500Y-73388104D01*
X138716927Y-73393223D01*
X138856777Y-73533073D01*
X138861896Y-73536500D01*
X138861901Y-73536504D01*
X139016004Y-73639666D01*
X139016008Y-73639668D01*
X139021127Y-73643095D01*
X139203716Y-73719100D01*
X139209752Y-73720317D01*
X139209755Y-73720318D01*
X139393004Y-73757267D01*
X139397592Y-73758192D01*
X139403672Y-73758500D01*
X141484500Y-73758500D01*
X141552621Y-73778502D01*
X141599114Y-73832158D01*
X141610500Y-73884500D01*
X141610500Y-82420075D01*
X141608949Y-82439785D01*
X141606826Y-82453190D01*
X141607171Y-82459778D01*
X141607171Y-82459782D01*
X141610327Y-82519999D01*
X141610500Y-82526593D01*
X141610500Y-82546620D01*
X141610844Y-82549891D01*
X141610844Y-82549895D01*
X141612593Y-82566539D01*
X141613110Y-82573113D01*
X141616611Y-82639915D01*
X141618320Y-82646292D01*
X141618320Y-82646293D01*
X141620124Y-82653023D01*
X141623728Y-82672470D01*
X141625145Y-82685956D01*
X141627187Y-82692240D01*
X141645818Y-82749582D01*
X141647691Y-82755906D01*
X141665006Y-82820524D01*
X141671167Y-82832616D01*
X141678730Y-82850875D01*
X141682925Y-82863785D01*
X141713057Y-82915975D01*
X141716376Y-82921724D01*
X141719523Y-82927520D01*
X141749893Y-82987125D01*
X141754050Y-82992258D01*
X141758432Y-82997670D01*
X141769625Y-83013955D01*
X141773116Y-83020002D01*
X141773119Y-83020005D01*
X141776415Y-83025715D01*
X141780827Y-83030615D01*
X141780830Y-83030619D01*
X141821175Y-83075425D01*
X141825463Y-83080446D01*
X141838063Y-83096006D01*
X141852210Y-83110153D01*
X141856751Y-83114937D01*
X141901530Y-83164669D01*
X141912518Y-83172652D01*
X141927546Y-83185489D01*
X143323595Y-84581538D01*
X143357621Y-84643850D01*
X143360500Y-84670633D01*
X143360500Y-95829367D01*
X143340498Y-95897488D01*
X143323595Y-95918462D01*
X141168462Y-98073595D01*
X141106150Y-98107621D01*
X141079367Y-98110500D01*
X107304493Y-98110500D01*
X107236372Y-98090498D01*
X107189879Y-98036842D01*
X107179775Y-97966568D01*
X107180161Y-97964542D01*
X107181745Y-97960316D01*
X107188500Y-97898134D01*
X107188500Y-97101866D01*
X107188114Y-97098308D01*
X107182598Y-97047540D01*
X107181745Y-97039684D01*
X107130615Y-96903295D01*
X107043261Y-96786739D01*
X106926705Y-96699385D01*
X106790316Y-96648255D01*
X106728134Y-96641500D01*
X106314500Y-96641500D01*
X106246379Y-96621498D01*
X106199886Y-96567842D01*
X106188500Y-96515500D01*
X106188500Y-95551866D01*
X106181745Y-95489684D01*
X106130615Y-95353295D01*
X106043261Y-95236739D01*
X105926705Y-95149385D01*
X105790316Y-95098255D01*
X105728134Y-95091500D01*
X104831866Y-95091500D01*
X104769684Y-95098255D01*
X104633295Y-95149385D01*
X104516739Y-95236739D01*
X104429385Y-95353295D01*
X104378255Y-95489684D01*
X104371500Y-95551866D01*
X104371500Y-96648134D01*
X104378255Y-96710316D01*
X104429385Y-96846705D01*
X104516739Y-96963261D01*
X104618710Y-97039684D01*
X104621065Y-97041449D01*
X104663580Y-97098308D01*
X104671500Y-97142275D01*
X104671500Y-97230793D01*
X104651498Y-97298914D01*
X104597842Y-97345407D01*
X104527568Y-97355511D01*
X104495461Y-97346431D01*
X104493095Y-97345407D01*
X104461316Y-97331655D01*
X104455069Y-97330350D01*
X104455066Y-97330349D01*
X104275443Y-97292824D01*
X104275438Y-97292823D01*
X104270707Y-97291835D01*
X104264315Y-97291500D01*
X104121337Y-97291500D01*
X104052049Y-97298538D01*
X103982622Y-97305590D01*
X103982621Y-97305590D01*
X103976273Y-97306235D01*
X103919939Y-97323889D01*
X103796549Y-97362556D01*
X103796544Y-97362558D01*
X103790459Y-97364465D01*
X103710137Y-97408989D01*
X103625729Y-97455777D01*
X103625726Y-97455779D01*
X103620150Y-97458870D01*
X103615309Y-97463019D01*
X103615305Y-97463022D01*
X103477145Y-97581440D01*
X103472302Y-97585591D01*
X103352954Y-97739453D01*
X103350138Y-97745176D01*
X103350136Y-97745179D01*
X103274873Y-97898134D01*
X103266982Y-97914171D01*
X103265373Y-97920349D01*
X103265372Y-97920351D01*
X103235029Y-98036842D01*
X103217898Y-98102607D01*
X103213496Y-98186597D01*
X103209619Y-98260589D01*
X103207707Y-98297064D01*
X103236825Y-98489599D01*
X103239028Y-98495585D01*
X103239029Y-98495591D01*
X103301860Y-98666360D01*
X103301862Y-98666365D01*
X103304063Y-98672346D01*
X103307425Y-98677768D01*
X103395649Y-98820058D01*
X103406674Y-98837840D01*
X103540466Y-98979322D01*
X103699975Y-99091011D01*
X103705838Y-99093548D01*
X103872825Y-99165810D01*
X103872829Y-99165811D01*
X103878684Y-99168345D01*
X103884931Y-99169650D01*
X103884934Y-99169651D01*
X104064557Y-99207176D01*
X104064562Y-99207177D01*
X104069293Y-99208165D01*
X104075685Y-99208500D01*
X104218663Y-99208500D01*
X104287951Y-99201462D01*
X104357378Y-99194410D01*
X104357379Y-99194410D01*
X104363727Y-99193765D01*
X104507821Y-99148609D01*
X104578806Y-99147325D01*
X104639217Y-99184622D01*
X104669873Y-99248659D01*
X104671500Y-99268843D01*
X104671500Y-99398134D01*
X104678255Y-99460316D01*
X104729385Y-99596705D01*
X104816739Y-99713261D01*
X104933295Y-99800615D01*
X105069684Y-99851745D01*
X105131866Y-99858500D01*
X105673752Y-99858500D01*
X105712689Y-99864667D01*
X105744044Y-99874855D01*
X105750607Y-99875545D01*
X105750608Y-99875545D01*
X105767392Y-99877309D01*
X105883380Y-99889500D01*
X141420075Y-99889500D01*
X141439786Y-99891051D01*
X141446673Y-99892142D01*
X141446675Y-99892142D01*
X141453190Y-99893174D01*
X141459778Y-99892829D01*
X141459782Y-99892829D01*
X141519999Y-99889673D01*
X141526593Y-99889500D01*
X141546620Y-99889500D01*
X141549891Y-99889156D01*
X141549895Y-99889156D01*
X141566539Y-99887407D01*
X141573113Y-99886890D01*
X141633316Y-99883735D01*
X141633318Y-99883735D01*
X141639915Y-99883389D01*
X141653028Y-99879875D01*
X141672470Y-99876272D01*
X141673712Y-99876142D01*
X141679385Y-99875546D01*
X141679389Y-99875545D01*
X141685956Y-99874855D01*
X141749581Y-99854182D01*
X141755906Y-99852309D01*
X141768363Y-99848971D01*
X141820524Y-99834994D01*
X141832616Y-99828833D01*
X141850875Y-99821270D01*
X141863785Y-99817075D01*
X141921724Y-99783624D01*
X141927520Y-99780477D01*
X141987125Y-99750107D01*
X141997670Y-99741568D01*
X142013955Y-99730375D01*
X142020002Y-99726884D01*
X142020005Y-99726881D01*
X142025715Y-99723585D01*
X142030615Y-99719173D01*
X142030619Y-99719170D01*
X142075425Y-99678825D01*
X142080446Y-99674537D01*
X142093441Y-99664014D01*
X142096006Y-99661937D01*
X142110153Y-99647790D01*
X142114937Y-99643249D01*
X142159766Y-99602885D01*
X142159767Y-99602883D01*
X142164669Y-99598470D01*
X142172652Y-99587482D01*
X142185489Y-99572454D01*
X144822454Y-96935489D01*
X144837482Y-96922652D01*
X144848470Y-96914669D01*
X144893249Y-96864937D01*
X144897790Y-96860153D01*
X144911937Y-96846006D01*
X144924543Y-96830439D01*
X144928827Y-96825424D01*
X144969166Y-96780623D01*
X144969167Y-96780622D01*
X144973585Y-96775715D01*
X144980374Y-96763956D01*
X144991567Y-96747671D01*
X144995948Y-96742260D01*
X144995949Y-96742259D01*
X145000106Y-96737125D01*
X145003106Y-96731238D01*
X145030478Y-96677519D01*
X145033624Y-96671724D01*
X145047174Y-96648255D01*
X145067075Y-96613785D01*
X145069117Y-96607501D01*
X145069119Y-96607496D01*
X145071269Y-96600879D01*
X145078834Y-96582615D01*
X145081994Y-96576413D01*
X145081994Y-96576412D01*
X145084994Y-96570525D01*
X145102310Y-96505899D01*
X145104181Y-96499582D01*
X145104968Y-96497162D01*
X145124855Y-96435956D01*
X145125546Y-96429386D01*
X145126275Y-96422456D01*
X145129876Y-96403023D01*
X145131679Y-96396293D01*
X145133388Y-96389915D01*
X145136889Y-96323120D01*
X145137406Y-96316546D01*
X145139156Y-96299893D01*
X145139500Y-96296620D01*
X145139500Y-96276586D01*
X145139673Y-96269992D01*
X145142829Y-96209782D01*
X145142829Y-96209777D01*
X145143174Y-96203190D01*
X145141051Y-96189785D01*
X145139500Y-96170075D01*
X145139500Y-84329925D01*
X145141051Y-84310214D01*
X145142142Y-84303327D01*
X145142142Y-84303325D01*
X145143174Y-84296810D01*
X145142114Y-84276570D01*
X145139673Y-84230001D01*
X145139500Y-84223407D01*
X145139500Y-84203380D01*
X145137407Y-84183461D01*
X145136890Y-84176887D01*
X145133735Y-84116684D01*
X145133735Y-84116682D01*
X145133389Y-84110085D01*
X145129875Y-84096972D01*
X145126272Y-84077529D01*
X145125546Y-84070615D01*
X145125545Y-84070611D01*
X145124855Y-84064044D01*
X145104182Y-84000418D01*
X145102309Y-83994094D01*
X145086704Y-83935859D01*
X145084994Y-83929476D01*
X145078833Y-83917384D01*
X145071269Y-83899123D01*
X145069116Y-83892497D01*
X145067075Y-83886215D01*
X145033624Y-83828276D01*
X145030477Y-83822480D01*
X145000107Y-83762875D01*
X144991568Y-83752330D01*
X144980375Y-83736045D01*
X144976884Y-83729998D01*
X144976881Y-83729995D01*
X144973585Y-83724285D01*
X144969173Y-83719385D01*
X144969170Y-83719381D01*
X144928825Y-83674575D01*
X144924537Y-83669554D01*
X144914014Y-83656559D01*
X144911937Y-83653994D01*
X144897790Y-83639847D01*
X144893249Y-83635063D01*
X144852885Y-83590234D01*
X144852883Y-83590233D01*
X144848470Y-83585331D01*
X144837482Y-83577348D01*
X144822454Y-83564511D01*
X143426405Y-82168462D01*
X143392379Y-82106150D01*
X143389500Y-82079367D01*
X143389500Y-73884500D01*
X143409502Y-73816379D01*
X143463158Y-73769886D01*
X143515500Y-73758500D01*
X145596328Y-73758500D01*
X145602408Y-73758192D01*
X145606996Y-73757267D01*
X145790245Y-73720318D01*
X145790248Y-73720317D01*
X145796284Y-73719100D01*
X145978873Y-73643095D01*
X145983992Y-73639668D01*
X145983996Y-73639666D01*
X146138099Y-73536504D01*
X146138104Y-73536500D01*
X146143223Y-73533073D01*
X146283073Y-73393223D01*
X146286500Y-73388104D01*
X146286504Y-73388099D01*
X146389666Y-73233996D01*
X146389668Y-73233992D01*
X146393095Y-73228873D01*
X146469100Y-73046284D01*
X146472070Y-73031557D01*
X146507267Y-72856996D01*
X146507267Y-72856995D01*
X146508192Y-72852408D01*
X146508500Y-72846328D01*
X146508500Y-69212739D01*
X146528502Y-69144618D01*
X146582158Y-69098125D01*
X146652432Y-69088021D01*
X146717012Y-69117515D01*
X146723595Y-69123644D01*
X152984584Y-75384633D01*
X153018610Y-75446945D01*
X153013545Y-75517760D01*
X152970998Y-75574596D01*
X152904478Y-75599407D01*
X152830219Y-75581505D01*
X152818699Y-75574528D01*
X152811452Y-75572257D01*
X152811450Y-75572256D01*
X152712088Y-75541118D01*
X152655062Y-75523247D01*
X152581635Y-75516500D01*
X152578737Y-75516500D01*
X152324335Y-75516501D01*
X152068366Y-75516501D01*
X152065508Y-75516764D01*
X152065499Y-75516764D01*
X152029996Y-75520026D01*
X151994938Y-75523247D01*
X151988560Y-75525246D01*
X151988559Y-75525246D01*
X151838550Y-75572256D01*
X151838548Y-75572257D01*
X151831301Y-75574528D01*
X151684619Y-75663361D01*
X151589095Y-75758885D01*
X151526783Y-75792911D01*
X151455968Y-75787846D01*
X151410905Y-75758885D01*
X151315381Y-75663361D01*
X151168699Y-75574528D01*
X151161452Y-75572257D01*
X151161450Y-75572256D01*
X151062088Y-75541118D01*
X151005062Y-75523247D01*
X150931635Y-75516500D01*
X150928737Y-75516500D01*
X150674335Y-75516501D01*
X150418366Y-75516501D01*
X150415508Y-75516764D01*
X150415499Y-75516764D01*
X150379996Y-75520026D01*
X150344938Y-75523247D01*
X150338560Y-75525246D01*
X150338559Y-75525246D01*
X150188550Y-75572256D01*
X150188548Y-75572257D01*
X150181301Y-75574528D01*
X150174804Y-75578463D01*
X150174799Y-75578465D01*
X150151994Y-75592276D01*
X150086724Y-75610500D01*
X148198119Y-75610500D01*
X148171922Y-75607747D01*
X148101944Y-75592872D01*
X148101939Y-75592872D01*
X148095487Y-75591500D01*
X147904513Y-75591500D01*
X147898061Y-75592872D01*
X147898056Y-75592872D01*
X147811112Y-75611353D01*
X147717712Y-75631206D01*
X147711682Y-75633891D01*
X147711681Y-75633891D01*
X147549278Y-75706197D01*
X147549276Y-75706198D01*
X147543248Y-75708882D01*
X147537907Y-75712762D01*
X147537906Y-75712763D01*
X147509730Y-75733234D01*
X147388747Y-75821134D01*
X147384326Y-75826044D01*
X147384325Y-75826045D01*
X147324193Y-75892829D01*
X147260960Y-75963056D01*
X147165473Y-76128444D01*
X147106458Y-76310072D01*
X147086496Y-76500000D01*
X147087186Y-76506565D01*
X147102261Y-76649992D01*
X147106458Y-76689928D01*
X147165473Y-76871556D01*
X147260960Y-77036944D01*
X147388747Y-77178866D01*
X147543248Y-77291118D01*
X147549276Y-77293802D01*
X147549278Y-77293803D01*
X147645490Y-77336639D01*
X147717712Y-77368794D01*
X147811113Y-77388647D01*
X147898056Y-77407128D01*
X147898061Y-77407128D01*
X147904513Y-77408500D01*
X148095487Y-77408500D01*
X148101939Y-77407128D01*
X148101944Y-77407128D01*
X148171922Y-77392253D01*
X148198119Y-77389500D01*
X150086724Y-77389500D01*
X150151994Y-77407724D01*
X150174799Y-77421535D01*
X150174804Y-77421537D01*
X150181301Y-77425472D01*
X150188548Y-77427743D01*
X150188550Y-77427744D01*
X150254836Y-77448517D01*
X150344938Y-77476753D01*
X150418365Y-77483500D01*
X150421263Y-77483500D01*
X150675665Y-77483499D01*
X150931634Y-77483499D01*
X150934492Y-77483236D01*
X150934501Y-77483236D01*
X150970004Y-77479974D01*
X151005062Y-77476753D01*
X151011447Y-77474752D01*
X151161450Y-77427744D01*
X151161452Y-77427743D01*
X151168699Y-77425472D01*
X151315381Y-77336639D01*
X151410905Y-77241115D01*
X151473217Y-77207089D01*
X151544032Y-77212154D01*
X151589095Y-77241115D01*
X151684619Y-77336639D01*
X151831301Y-77425472D01*
X151838548Y-77427743D01*
X151838550Y-77427744D01*
X151904836Y-77448517D01*
X151994938Y-77476753D01*
X152068365Y-77483500D01*
X152071263Y-77483500D01*
X152325665Y-77483499D01*
X152581634Y-77483499D01*
X152584492Y-77483236D01*
X152584501Y-77483236D01*
X152620004Y-77479974D01*
X152655062Y-77476753D01*
X152661447Y-77474752D01*
X152811450Y-77427744D01*
X152811452Y-77427743D01*
X152818699Y-77425472D01*
X152825196Y-77421537D01*
X152825201Y-77421535D01*
X152848006Y-77407724D01*
X152913276Y-77389500D01*
X154937261Y-77389500D01*
X155005382Y-77409502D01*
X155026356Y-77426405D01*
X158748595Y-81148645D01*
X158782621Y-81210957D01*
X158785500Y-81237740D01*
X158785500Y-103984500D01*
X158765498Y-104052621D01*
X158711842Y-104099114D01*
X158659500Y-104110500D01*
X108940500Y-104110500D01*
X108872379Y-104090498D01*
X108825886Y-104036842D01*
X108814500Y-103984500D01*
X108814500Y-103004925D01*
X108816051Y-102985214D01*
X108817142Y-102978327D01*
X108817142Y-102978325D01*
X108818174Y-102971810D01*
X108814673Y-102905001D01*
X108814500Y-102898407D01*
X108814500Y-102878380D01*
X108812407Y-102858461D01*
X108811890Y-102851887D01*
X108808735Y-102791684D01*
X108808735Y-102791682D01*
X108808389Y-102785085D01*
X108804875Y-102771972D01*
X108801272Y-102752529D01*
X108800546Y-102745615D01*
X108800545Y-102745611D01*
X108799855Y-102739044D01*
X108779182Y-102675418D01*
X108777309Y-102669094D01*
X108761704Y-102610859D01*
X108759994Y-102604476D01*
X108753833Y-102592384D01*
X108746269Y-102574123D01*
X108744116Y-102567497D01*
X108742075Y-102561215D01*
X108708624Y-102503276D01*
X108705477Y-102497480D01*
X108675107Y-102437875D01*
X108666568Y-102427330D01*
X108655375Y-102411045D01*
X108651884Y-102404998D01*
X108651881Y-102404995D01*
X108648585Y-102399285D01*
X108644173Y-102394385D01*
X108644170Y-102394381D01*
X108603825Y-102349575D01*
X108599537Y-102344554D01*
X108589014Y-102331559D01*
X108586937Y-102328994D01*
X108572790Y-102314847D01*
X108568249Y-102310063D01*
X108527885Y-102265234D01*
X108527883Y-102265233D01*
X108523470Y-102260331D01*
X108512482Y-102252348D01*
X108497454Y-102239511D01*
X107685489Y-101427546D01*
X107672652Y-101412518D01*
X107664669Y-101401530D01*
X107614937Y-101356751D01*
X107610153Y-101352210D01*
X107596006Y-101338063D01*
X107580446Y-101325463D01*
X107575425Y-101321175D01*
X107530619Y-101280830D01*
X107530615Y-101280827D01*
X107525715Y-101276415D01*
X107520005Y-101273119D01*
X107520002Y-101273116D01*
X107513955Y-101269625D01*
X107497670Y-101258432D01*
X107487125Y-101249893D01*
X107427520Y-101219523D01*
X107421724Y-101216376D01*
X107415975Y-101213057D01*
X107363785Y-101182925D01*
X107350875Y-101178730D01*
X107332616Y-101171167D01*
X107320524Y-101165006D01*
X107255906Y-101147691D01*
X107249582Y-101145818D01*
X107217312Y-101135333D01*
X107185956Y-101125145D01*
X107179389Y-101124455D01*
X107179385Y-101124454D01*
X107173712Y-101123858D01*
X107172470Y-101123728D01*
X107153028Y-101120125D01*
X107139915Y-101116611D01*
X107133318Y-101116265D01*
X107133316Y-101116265D01*
X107073113Y-101113110D01*
X107066539Y-101112593D01*
X107049895Y-101110844D01*
X107049891Y-101110844D01*
X107046620Y-101110500D01*
X107026593Y-101110500D01*
X107019999Y-101110327D01*
X106959782Y-101107171D01*
X106959778Y-101107171D01*
X106953190Y-101106826D01*
X106946675Y-101107858D01*
X106946673Y-101107858D01*
X106939786Y-101108949D01*
X106920075Y-101110500D01*
X105883380Y-101110500D01*
X105773197Y-101122081D01*
X105750608Y-101124455D01*
X105750607Y-101124455D01*
X105744044Y-101125145D01*
X105737766Y-101127185D01*
X105737765Y-101127185D01*
X105712688Y-101135333D01*
X105673752Y-101141500D01*
X105231379Y-101141500D01*
X105163258Y-101121498D01*
X105116765Y-101067842D01*
X105106796Y-101034344D01*
X105104129Y-101016712D01*
X105103175Y-101010401D01*
X105100972Y-101004415D01*
X105100971Y-101004409D01*
X105038140Y-100833640D01*
X105038138Y-100833635D01*
X105035937Y-100827654D01*
X104933326Y-100662160D01*
X104799534Y-100520678D01*
X104640025Y-100408989D01*
X104592013Y-100388212D01*
X104467175Y-100334190D01*
X104467171Y-100334189D01*
X104461316Y-100331655D01*
X104455069Y-100330350D01*
X104455066Y-100330349D01*
X104275443Y-100292824D01*
X104275438Y-100292823D01*
X104270707Y-100291835D01*
X104264315Y-100291500D01*
X104121337Y-100291500D01*
X104052049Y-100298538D01*
X103982622Y-100305590D01*
X103982621Y-100305590D01*
X103976273Y-100306235D01*
X103919939Y-100323889D01*
X103796549Y-100362556D01*
X103796544Y-100362558D01*
X103790459Y-100364465D01*
X103714713Y-100406452D01*
X103625729Y-100455777D01*
X103625726Y-100455779D01*
X103620150Y-100458870D01*
X103615309Y-100463019D01*
X103615305Y-100463022D01*
X103552311Y-100517015D01*
X103472302Y-100585591D01*
X103352954Y-100739453D01*
X103350138Y-100745176D01*
X103350136Y-100745179D01*
X103306608Y-100833640D01*
X103266982Y-100914171D01*
X103265373Y-100920349D01*
X103265372Y-100920351D01*
X103226954Y-101067842D01*
X103217898Y-101102607D01*
X103214628Y-101165006D01*
X103208558Y-101280830D01*
X103207707Y-101297064D01*
X103236825Y-101489599D01*
X103239028Y-101495585D01*
X103239029Y-101495591D01*
X103301860Y-101666360D01*
X103301862Y-101666365D01*
X103304063Y-101672346D01*
X103406674Y-101837840D01*
X103540466Y-101979322D01*
X103699975Y-102091011D01*
X103705838Y-102093548D01*
X103872825Y-102165810D01*
X103872829Y-102165811D01*
X103878684Y-102168345D01*
X103884931Y-102169650D01*
X103884934Y-102169651D01*
X104064557Y-102207176D01*
X104064562Y-102207177D01*
X104069293Y-102208165D01*
X104075685Y-102208500D01*
X104218663Y-102208500D01*
X104287951Y-102201462D01*
X104357378Y-102194410D01*
X104357379Y-102194410D01*
X104363727Y-102193765D01*
X104507821Y-102148609D01*
X104578806Y-102147325D01*
X104639217Y-102184622D01*
X104669873Y-102248659D01*
X104671500Y-102268843D01*
X104671500Y-102357725D01*
X104651498Y-102425846D01*
X104621065Y-102458551D01*
X104516739Y-102536739D01*
X104429385Y-102653295D01*
X104378255Y-102789684D01*
X104371500Y-102851866D01*
X104371500Y-103948134D01*
X104378255Y-104010316D01*
X104429385Y-104146705D01*
X104516739Y-104263261D01*
X104633295Y-104350615D01*
X104769684Y-104401745D01*
X104831866Y-104408500D01*
X105728134Y-104408500D01*
X105790316Y-104401745D01*
X105926705Y-104350615D01*
X106043261Y-104263261D01*
X106130615Y-104146705D01*
X106181745Y-104010316D01*
X106188500Y-103948134D01*
X106188500Y-103015500D01*
X106208502Y-102947379D01*
X106262158Y-102900886D01*
X106314500Y-102889500D01*
X106579367Y-102889500D01*
X106647488Y-102909502D01*
X106668462Y-102926405D01*
X106998595Y-103256538D01*
X107032621Y-103318850D01*
X107035500Y-103345633D01*
X107035500Y-104845075D01*
X107033949Y-104864785D01*
X107031826Y-104878190D01*
X107032171Y-104884778D01*
X107032171Y-104884782D01*
X107035327Y-104944999D01*
X107035500Y-104951593D01*
X107035500Y-111536559D01*
X107029734Y-111574238D01*
X107023247Y-111594938D01*
X107016500Y-111668365D01*
X107016500Y-111671263D01*
X107016501Y-112000860D01*
X107016501Y-112331634D01*
X107023247Y-112405062D01*
X107025246Y-112411440D01*
X107025246Y-112411441D01*
X107029734Y-112425762D01*
X107035500Y-112463441D01*
X107035500Y-113095075D01*
X107033949Y-113114785D01*
X107031826Y-113128190D01*
X107032171Y-113134778D01*
X107032171Y-113134782D01*
X107035327Y-113194999D01*
X107035500Y-113201593D01*
X107035500Y-113221620D01*
X107035844Y-113224891D01*
X107035844Y-113224895D01*
X107037593Y-113241539D01*
X107038110Y-113248113D01*
X107041611Y-113314915D01*
X107043320Y-113321292D01*
X107043320Y-113321293D01*
X107045124Y-113328023D01*
X107048728Y-113347470D01*
X107050145Y-113360956D01*
X107052187Y-113367240D01*
X107070818Y-113424582D01*
X107072691Y-113430906D01*
X107090006Y-113495524D01*
X107096167Y-113507616D01*
X107103730Y-113525875D01*
X107107925Y-113538785D01*
X107138057Y-113590975D01*
X107141376Y-113596724D01*
X107144523Y-113602520D01*
X107174893Y-113662125D01*
X107179050Y-113667258D01*
X107183432Y-113672670D01*
X107194625Y-113688955D01*
X107198116Y-113695002D01*
X107198119Y-113695005D01*
X107201415Y-113700715D01*
X107205827Y-113705615D01*
X107205830Y-113705619D01*
X107246175Y-113750425D01*
X107250463Y-113755446D01*
X107263063Y-113771006D01*
X107277210Y-113785153D01*
X107281751Y-113789937D01*
X107326530Y-113839669D01*
X107337518Y-113847652D01*
X107352546Y-113860489D01*
X117564511Y-124072454D01*
X117577348Y-124087482D01*
X117585331Y-124098470D01*
X117590233Y-124102883D01*
X117590234Y-124102885D01*
X117635063Y-124143249D01*
X117639847Y-124147790D01*
X117653994Y-124161937D01*
X117656559Y-124164014D01*
X117669554Y-124174537D01*
X117674568Y-124178819D01*
X117689575Y-124192331D01*
X117719381Y-124219170D01*
X117719385Y-124219173D01*
X117724285Y-124223585D01*
X117729995Y-124226881D01*
X117729998Y-124226884D01*
X117736045Y-124230375D01*
X117752330Y-124241568D01*
X117762875Y-124250107D01*
X117822480Y-124280477D01*
X117828276Y-124283624D01*
X117886215Y-124317075D01*
X117899125Y-124321270D01*
X117917384Y-124328833D01*
X117929476Y-124334994D01*
X117994138Y-124352320D01*
X118000386Y-124354172D01*
X118064044Y-124374855D01*
X118077536Y-124376273D01*
X118096980Y-124379877D01*
X118103705Y-124381679D01*
X118103710Y-124381680D01*
X118110085Y-124383388D01*
X118116675Y-124383733D01*
X118116679Y-124383734D01*
X118176880Y-124386889D01*
X118183455Y-124387406D01*
X118203380Y-124389500D01*
X118223414Y-124389500D01*
X118230008Y-124389673D01*
X118290218Y-124392829D01*
X118290223Y-124392829D01*
X118296810Y-124393174D01*
X118303325Y-124392142D01*
X118303327Y-124392142D01*
X118310214Y-124391051D01*
X118329925Y-124389500D01*
X122086724Y-124389500D01*
X122151994Y-124407724D01*
X122174799Y-124421535D01*
X122174804Y-124421537D01*
X122181301Y-124425472D01*
X122188548Y-124427743D01*
X122188550Y-124427744D01*
X122254836Y-124448517D01*
X122344938Y-124476753D01*
X122418365Y-124483500D01*
X122421263Y-124483500D01*
X122675665Y-124483499D01*
X122931634Y-124483499D01*
X122934492Y-124483236D01*
X122934501Y-124483236D01*
X122970004Y-124479974D01*
X123005062Y-124476753D01*
X123011447Y-124474752D01*
X123161450Y-124427744D01*
X123161452Y-124427743D01*
X123168699Y-124425472D01*
X123315381Y-124336639D01*
X123410905Y-124241115D01*
X123473217Y-124207089D01*
X123544032Y-124212154D01*
X123589095Y-124241115D01*
X123684619Y-124336639D01*
X123831301Y-124425472D01*
X123838548Y-124427743D01*
X123838550Y-124427744D01*
X123904836Y-124448517D01*
X123994938Y-124476753D01*
X124068365Y-124483500D01*
X124071263Y-124483500D01*
X124325665Y-124483499D01*
X124581634Y-124483499D01*
X124584492Y-124483236D01*
X124584501Y-124483236D01*
X124620004Y-124479974D01*
X124655062Y-124476753D01*
X124661447Y-124474752D01*
X124811450Y-124427744D01*
X124811452Y-124427743D01*
X124818699Y-124425472D01*
X124825196Y-124421537D01*
X124825201Y-124421535D01*
X124848006Y-124407724D01*
X124913276Y-124389500D01*
X134079367Y-124389500D01*
X134147488Y-124409502D01*
X134168462Y-124426405D01*
X135073595Y-125331538D01*
X135107621Y-125393850D01*
X135110500Y-125420633D01*
X135110500Y-126222767D01*
X135090498Y-126290888D01*
X135036842Y-126337381D01*
X134966568Y-126347485D01*
X134936079Y-126339091D01*
X134801976Y-126283269D01*
X134801973Y-126283268D01*
X134796284Y-126280900D01*
X134790248Y-126279683D01*
X134790245Y-126279682D01*
X134606996Y-126242733D01*
X134606995Y-126242733D01*
X134602408Y-126241808D01*
X134596328Y-126241500D01*
X128403672Y-126241500D01*
X128397592Y-126241808D01*
X128393005Y-126242733D01*
X128393004Y-126242733D01*
X128209755Y-126279682D01*
X128209752Y-126279683D01*
X128203716Y-126280900D01*
X128021127Y-126356905D01*
X128016008Y-126360332D01*
X128016004Y-126360334D01*
X127861901Y-126463496D01*
X127861896Y-126463500D01*
X127856777Y-126466927D01*
X127716927Y-126606777D01*
X127713500Y-126611896D01*
X127713496Y-126611901D01*
X127610334Y-126766004D01*
X127610332Y-126766008D01*
X127606905Y-126771127D01*
X127530900Y-126953716D01*
X127491808Y-127147592D01*
X127491500Y-127153672D01*
X127491500Y-131346328D01*
X127491808Y-131352408D01*
X127492733Y-131356995D01*
X127492733Y-131356996D01*
X127513791Y-131461430D01*
X127530900Y-131546284D01*
X127606905Y-131728873D01*
X127610332Y-131733992D01*
X127610334Y-131733996D01*
X127713496Y-131888099D01*
X127713500Y-131888104D01*
X127716927Y-131893223D01*
X127856777Y-132033073D01*
X127861896Y-132036500D01*
X127861901Y-132036504D01*
X128016004Y-132139666D01*
X128016008Y-132139668D01*
X128021127Y-132143095D01*
X128203716Y-132219100D01*
X128209752Y-132220317D01*
X128209755Y-132220318D01*
X128393004Y-132257267D01*
X128397592Y-132258192D01*
X128403672Y-132258500D01*
X132659552Y-132258500D01*
X132727673Y-132278502D01*
X132748647Y-132295405D01*
X133786436Y-133333194D01*
X133797296Y-133345576D01*
X133811009Y-133363447D01*
X133837441Y-133387498D01*
X133871882Y-133418837D01*
X133876178Y-133422936D01*
X133892304Y-133439062D01*
X133894460Y-133440865D01*
X133894468Y-133440872D01*
X133912530Y-133455974D01*
X133916506Y-133459442D01*
X133940169Y-133480973D01*
X133978752Y-133516081D01*
X133983501Y-133519060D01*
X133994164Y-133525749D01*
X134008029Y-133535823D01*
X134021978Y-133547486D01*
X134026849Y-133550264D01*
X134026860Y-133550272D01*
X134095073Y-133589180D01*
X134099601Y-133591890D01*
X134166117Y-133633616D01*
X134166126Y-133633621D01*
X134170874Y-133636599D01*
X134187749Y-133643382D01*
X134203174Y-133650839D01*
X134218978Y-133659854D01*
X134224266Y-133661726D01*
X134224269Y-133661728D01*
X134298327Y-133687953D01*
X134303235Y-133689808D01*
X134381301Y-133721190D01*
X134386796Y-133722328D01*
X134399104Y-133724877D01*
X134415615Y-133729487D01*
X134424333Y-133732574D01*
X134432762Y-133735559D01*
X134504216Y-133747260D01*
X134515803Y-133749157D01*
X134520994Y-133750119D01*
X134598861Y-133766245D01*
X134598865Y-133766245D01*
X134603382Y-133767181D01*
X134607989Y-133767447D01*
X134607992Y-133767447D01*
X134631494Y-133768802D01*
X134644599Y-133770249D01*
X134651027Y-133771301D01*
X134651034Y-133771301D01*
X134656575Y-133772209D01*
X134662188Y-133772121D01*
X134662190Y-133772121D01*
X134764355Y-133770516D01*
X134766334Y-133770500D01*
X139157819Y-133770500D01*
X139174266Y-133771578D01*
X139191012Y-133773783D01*
X139191016Y-133773783D01*
X139196582Y-133774516D01*
X139278768Y-133770640D01*
X139284703Y-133770500D01*
X139307535Y-133770500D01*
X139310321Y-133770251D01*
X139310329Y-133770251D01*
X139333813Y-133768155D01*
X139339077Y-133767796D01*
X139397108Y-133765059D01*
X139423123Y-133763832D01*
X139428582Y-133762582D01*
X139428587Y-133762581D01*
X139440855Y-133759771D01*
X139457786Y-133757090D01*
X139462363Y-133756682D01*
X139475895Y-133755474D01*
X139557052Y-133733272D01*
X139562171Y-133731986D01*
X139604341Y-133722328D01*
X139644193Y-133713201D01*
X139649350Y-133711001D01*
X139649357Y-133710999D01*
X139660917Y-133706068D01*
X139677104Y-133700431D01*
X139689231Y-133697113D01*
X139689234Y-133697112D01*
X139694651Y-133695630D01*
X139699714Y-133693215D01*
X139699725Y-133693211D01*
X139770616Y-133659397D01*
X139775418Y-133657228D01*
X139852802Y-133624221D01*
X139867998Y-133614239D01*
X139882926Y-133605827D01*
X139899351Y-133597993D01*
X139903909Y-133594718D01*
X139967689Y-133548887D01*
X139972038Y-133545898D01*
X140038502Y-133502240D01*
X140038503Y-133502239D01*
X140042358Y-133499707D01*
X140063386Y-133480970D01*
X140073686Y-133472719D01*
X140078971Y-133468922D01*
X140078972Y-133468921D01*
X140083526Y-133465649D01*
X140158602Y-133388177D01*
X140159991Y-133386767D01*
X141251353Y-132295405D01*
X141313665Y-132261379D01*
X141340448Y-132258500D01*
X145596328Y-132258500D01*
X145602408Y-132258192D01*
X145606996Y-132257267D01*
X145790245Y-132220318D01*
X145790248Y-132220317D01*
X145796284Y-132219100D01*
X145978873Y-132143095D01*
X145983992Y-132139668D01*
X145983996Y-132139666D01*
X146138099Y-132036504D01*
X146138104Y-132036500D01*
X146143223Y-132033073D01*
X146283073Y-131893223D01*
X146286500Y-131888104D01*
X146286504Y-131888099D01*
X146389666Y-131733996D01*
X146389668Y-131733992D01*
X146393095Y-131728873D01*
X146469100Y-131546284D01*
X146486210Y-131461430D01*
X146507267Y-131356996D01*
X146507267Y-131356995D01*
X146508192Y-131352408D01*
X146508500Y-131346328D01*
X146508500Y-127153672D01*
X146508192Y-127147592D01*
X146469100Y-126953716D01*
X146393095Y-126771127D01*
X146389668Y-126766008D01*
X146389666Y-126766004D01*
X146286504Y-126611901D01*
X146286500Y-126611896D01*
X146283073Y-126606777D01*
X146143223Y-126466927D01*
X146138104Y-126463500D01*
X146138099Y-126463496D01*
X145983996Y-126360334D01*
X145983992Y-126360332D01*
X145978873Y-126356905D01*
X145796284Y-126280900D01*
X145790248Y-126279683D01*
X145790245Y-126279682D01*
X145606996Y-126242733D01*
X145606995Y-126242733D01*
X145602408Y-126241808D01*
X145596328Y-126241500D01*
X139403672Y-126241500D01*
X139397592Y-126241808D01*
X139393005Y-126242733D01*
X139393004Y-126242733D01*
X139209755Y-126279682D01*
X139209752Y-126279683D01*
X139203716Y-126280900D01*
X139021127Y-126356905D01*
X139016008Y-126360332D01*
X139016004Y-126360334D01*
X138861901Y-126463496D01*
X138861896Y-126463500D01*
X138856777Y-126466927D01*
X138716927Y-126606777D01*
X138713500Y-126611896D01*
X138713496Y-126611901D01*
X138610334Y-126766004D01*
X138610332Y-126766008D01*
X138606905Y-126771127D01*
X138530900Y-126953716D01*
X138491808Y-127147592D01*
X138491500Y-127153672D01*
X138491500Y-131103500D01*
X138471498Y-131171621D01*
X138417842Y-131218114D01*
X138365500Y-131229500D01*
X135634500Y-131229500D01*
X135566379Y-131209498D01*
X135519886Y-131155842D01*
X135508500Y-131103500D01*
X135508500Y-129219670D01*
X135528502Y-129151549D01*
X135582158Y-129105056D01*
X135652432Y-129094952D01*
X135685748Y-129104563D01*
X135717712Y-129118794D01*
X135811112Y-129138647D01*
X135898056Y-129157128D01*
X135898061Y-129157128D01*
X135904513Y-129158500D01*
X136095487Y-129158500D01*
X136101939Y-129157128D01*
X136101944Y-129157128D01*
X136188888Y-129138647D01*
X136282288Y-129118794D01*
X136288319Y-129116109D01*
X136450722Y-129043803D01*
X136450724Y-129043802D01*
X136456752Y-129041118D01*
X136611253Y-128928866D01*
X136739040Y-128786944D01*
X136834527Y-128621556D01*
X136893542Y-128439928D01*
X136913504Y-128250000D01*
X136893542Y-128060072D01*
X136892064Y-128055523D01*
X136889500Y-128031133D01*
X136889500Y-125079925D01*
X136891051Y-125060214D01*
X136892142Y-125053327D01*
X136892142Y-125053325D01*
X136893174Y-125046810D01*
X136890534Y-124996425D01*
X136889673Y-124980008D01*
X136889500Y-124973414D01*
X136889500Y-124953380D01*
X136887406Y-124933454D01*
X136886889Y-124926880D01*
X136883734Y-124866681D01*
X136883734Y-124866678D01*
X136883388Y-124860085D01*
X136879876Y-124846977D01*
X136876275Y-124827544D01*
X136875546Y-124820614D01*
X136875545Y-124820610D01*
X136874855Y-124814044D01*
X136854178Y-124750408D01*
X136852307Y-124744091D01*
X136836703Y-124685855D01*
X136834994Y-124679475D01*
X136828834Y-124667385D01*
X136821269Y-124649121D01*
X136819119Y-124642504D01*
X136819117Y-124642499D01*
X136817075Y-124636215D01*
X136783624Y-124578276D01*
X136780478Y-124572481D01*
X136753106Y-124518762D01*
X136753104Y-124518759D01*
X136750106Y-124512875D01*
X136745948Y-124507740D01*
X136741567Y-124502329D01*
X136730372Y-124486041D01*
X136728905Y-124483500D01*
X136723585Y-124474285D01*
X136678827Y-124424576D01*
X136674543Y-124419561D01*
X136664012Y-124406556D01*
X136664009Y-124406552D01*
X136661937Y-124403994D01*
X136647790Y-124389847D01*
X136643249Y-124385063D01*
X136602885Y-124340234D01*
X136602883Y-124340233D01*
X136598470Y-124335331D01*
X136587482Y-124327348D01*
X136572454Y-124314511D01*
X135185489Y-122927546D01*
X135172652Y-122912518D01*
X135164669Y-122901530D01*
X135114937Y-122856751D01*
X135110153Y-122852210D01*
X135096006Y-122838063D01*
X135080446Y-122825463D01*
X135075425Y-122821175D01*
X135030619Y-122780830D01*
X135030615Y-122780827D01*
X135025715Y-122776415D01*
X135020005Y-122773119D01*
X135020002Y-122773116D01*
X135013955Y-122769625D01*
X134997670Y-122758432D01*
X134987125Y-122749893D01*
X134927520Y-122719523D01*
X134921724Y-122716376D01*
X134915975Y-122713057D01*
X134863785Y-122682925D01*
X134850875Y-122678730D01*
X134832616Y-122671167D01*
X134820524Y-122665006D01*
X134755906Y-122647691D01*
X134749582Y-122645818D01*
X134740981Y-122643023D01*
X134685956Y-122625145D01*
X134679389Y-122624455D01*
X134679385Y-122624454D01*
X134673712Y-122623858D01*
X134672470Y-122623728D01*
X134653028Y-122620125D01*
X134639915Y-122616611D01*
X134633318Y-122616265D01*
X134633316Y-122616265D01*
X134573113Y-122613110D01*
X134566539Y-122612593D01*
X134549895Y-122610844D01*
X134549891Y-122610844D01*
X134546620Y-122610500D01*
X134526593Y-122610500D01*
X134519999Y-122610327D01*
X134459782Y-122607171D01*
X134459778Y-122607171D01*
X134453190Y-122606826D01*
X134446675Y-122607858D01*
X134446673Y-122607858D01*
X134439786Y-122608949D01*
X134420075Y-122610500D01*
X124913276Y-122610500D01*
X124848006Y-122592276D01*
X124825201Y-122578465D01*
X124825196Y-122578463D01*
X124818699Y-122574528D01*
X124811452Y-122572257D01*
X124811450Y-122572256D01*
X124745164Y-122551483D01*
X124655062Y-122523247D01*
X124581635Y-122516500D01*
X124578737Y-122516500D01*
X124324335Y-122516501D01*
X124068366Y-122516501D01*
X124065508Y-122516764D01*
X124065499Y-122516764D01*
X124029996Y-122520026D01*
X123994938Y-122523247D01*
X123988560Y-122525246D01*
X123988559Y-122525246D01*
X123838550Y-122572256D01*
X123838548Y-122572257D01*
X123831301Y-122574528D01*
X123684619Y-122663361D01*
X123589095Y-122758885D01*
X123526783Y-122792911D01*
X123455968Y-122787846D01*
X123410905Y-122758885D01*
X123315381Y-122663361D01*
X123168699Y-122574528D01*
X123161452Y-122572257D01*
X123161450Y-122572256D01*
X123095164Y-122551483D01*
X123005062Y-122523247D01*
X122931635Y-122516500D01*
X122928737Y-122516500D01*
X122674335Y-122516501D01*
X122418366Y-122516501D01*
X122415508Y-122516764D01*
X122415499Y-122516764D01*
X122379996Y-122520026D01*
X122344938Y-122523247D01*
X122338560Y-122525246D01*
X122338559Y-122525246D01*
X122188550Y-122572256D01*
X122188548Y-122572257D01*
X122181301Y-122574528D01*
X122174804Y-122578463D01*
X122174799Y-122578465D01*
X122151994Y-122592276D01*
X122086724Y-122610500D01*
X118670633Y-122610500D01*
X118602512Y-122590498D01*
X118581538Y-122573595D01*
X109204822Y-113196879D01*
X109170796Y-113134567D01*
X109175861Y-113063752D01*
X109218408Y-113006916D01*
X109284928Y-112982105D01*
X109305445Y-112982313D01*
X109310629Y-112982789D01*
X109318365Y-112983500D01*
X109321263Y-112983500D01*
X109575665Y-112983499D01*
X109831634Y-112983499D01*
X109834492Y-112983236D01*
X109834501Y-112983236D01*
X109870004Y-112979974D01*
X109905062Y-112976753D01*
X109911441Y-112974754D01*
X110061450Y-112927744D01*
X110061452Y-112927743D01*
X110068699Y-112925472D01*
X110075196Y-112921537D01*
X110075201Y-112921535D01*
X110098006Y-112907724D01*
X110163276Y-112889500D01*
X110301881Y-112889500D01*
X110328078Y-112892253D01*
X110398056Y-112907128D01*
X110398061Y-112907128D01*
X110404513Y-112908500D01*
X110595487Y-112908500D01*
X110601939Y-112907128D01*
X110601944Y-112907128D01*
X110688887Y-112888647D01*
X110782288Y-112868794D01*
X110854510Y-112836639D01*
X110950722Y-112793803D01*
X110950724Y-112793802D01*
X110956752Y-112791118D01*
X111111253Y-112678866D01*
X111239040Y-112536944D01*
X111334527Y-112371556D01*
X111393542Y-112189928D01*
X111413504Y-112000000D01*
X111393542Y-111810072D01*
X111334527Y-111628444D01*
X111311497Y-111588554D01*
X111242341Y-111468774D01*
X111239040Y-111463056D01*
X111201827Y-111421726D01*
X111115675Y-111326045D01*
X111115674Y-111326044D01*
X111111253Y-111321134D01*
X110956752Y-111208882D01*
X110950724Y-111206198D01*
X110950722Y-111206197D01*
X110788319Y-111133891D01*
X110788318Y-111133891D01*
X110782288Y-111131206D01*
X110688888Y-111111353D01*
X110601944Y-111092872D01*
X110601939Y-111092872D01*
X110595487Y-111091500D01*
X110404513Y-111091500D01*
X110398061Y-111092872D01*
X110398056Y-111092872D01*
X110328078Y-111107747D01*
X110301881Y-111110500D01*
X110163276Y-111110500D01*
X110098006Y-111092276D01*
X110075201Y-111078465D01*
X110075196Y-111078463D01*
X110068699Y-111074528D01*
X110061452Y-111072257D01*
X110061450Y-111072256D01*
X109995164Y-111051483D01*
X109905062Y-111023247D01*
X109831635Y-111016500D01*
X109828737Y-111016500D01*
X109574335Y-111016501D01*
X109318366Y-111016501D01*
X109315508Y-111016764D01*
X109315499Y-111016764D01*
X109279996Y-111020026D01*
X109244938Y-111023247D01*
X109238560Y-111025246D01*
X109238559Y-111025246D01*
X109088550Y-111072256D01*
X109088548Y-111072257D01*
X109081301Y-111074528D01*
X109074805Y-111078462D01*
X109074803Y-111078463D01*
X109005771Y-111120270D01*
X108937141Y-111138449D01*
X108869578Y-111116638D01*
X108824532Y-111061762D01*
X108814500Y-111012494D01*
X108814500Y-106015500D01*
X108834502Y-105947379D01*
X108888158Y-105900886D01*
X108940500Y-105889500D01*
X159086724Y-105889500D01*
X159151994Y-105907724D01*
X159174799Y-105921535D01*
X159174804Y-105921537D01*
X159181301Y-105925472D01*
X159188548Y-105927743D01*
X159188550Y-105927744D01*
X159251206Y-105947379D01*
X159344938Y-105976753D01*
X159418365Y-105983500D01*
X159421263Y-105983500D01*
X159675665Y-105983499D01*
X159931634Y-105983499D01*
X159934492Y-105983236D01*
X159934501Y-105983236D01*
X159970004Y-105979974D01*
X160005062Y-105976753D01*
X160011447Y-105974752D01*
X160161450Y-105927744D01*
X160161452Y-105927743D01*
X160168699Y-105925472D01*
X160315381Y-105836639D01*
X160410905Y-105741115D01*
X160473217Y-105707089D01*
X160544032Y-105712154D01*
X160589095Y-105741115D01*
X160684619Y-105836639D01*
X160831301Y-105925472D01*
X160838548Y-105927743D01*
X160838550Y-105927744D01*
X160901206Y-105947379D01*
X160994938Y-105976753D01*
X161068365Y-105983500D01*
X161071263Y-105983500D01*
X161325665Y-105983499D01*
X161581634Y-105983499D01*
X161584492Y-105983236D01*
X161584501Y-105983236D01*
X161620004Y-105979974D01*
X161655062Y-105976753D01*
X161661447Y-105974752D01*
X161811450Y-105927744D01*
X161811452Y-105927743D01*
X161818699Y-105925472D01*
X161825196Y-105921537D01*
X161825201Y-105921535D01*
X161848006Y-105907724D01*
X161913276Y-105889500D01*
X162051881Y-105889500D01*
X162078078Y-105892253D01*
X162148056Y-105907128D01*
X162148061Y-105907128D01*
X162154513Y-105908500D01*
X162345487Y-105908500D01*
X162351939Y-105907128D01*
X162351944Y-105907128D01*
X162438888Y-105888647D01*
X162532288Y-105868794D01*
X162604510Y-105836639D01*
X162700722Y-105793803D01*
X162700724Y-105793802D01*
X162706752Y-105791118D01*
X162712517Y-105786930D01*
X162775575Y-105741115D01*
X162861253Y-105678866D01*
X162989040Y-105536944D01*
X163084527Y-105371556D01*
X163143542Y-105189928D01*
X163163504Y-105000000D01*
X163151394Y-104884782D01*
X163144232Y-104816635D01*
X163144232Y-104816633D01*
X163143542Y-104810072D01*
X163084527Y-104628444D01*
X162989040Y-104463056D01*
X162939586Y-104408131D01*
X162865675Y-104326045D01*
X162865674Y-104326044D01*
X162861253Y-104321134D01*
X162706752Y-104208882D01*
X162700724Y-104206198D01*
X162700722Y-104206197D01*
X162538319Y-104133891D01*
X162538318Y-104133891D01*
X162532288Y-104131206D01*
X162438887Y-104111353D01*
X162351944Y-104092872D01*
X162351939Y-104092872D01*
X162345487Y-104091500D01*
X162154513Y-104091500D01*
X162148061Y-104092872D01*
X162148056Y-104092872D01*
X162078078Y-104107747D01*
X162051881Y-104110500D01*
X161913276Y-104110500D01*
X161848006Y-104092276D01*
X161825201Y-104078465D01*
X161825196Y-104078463D01*
X161818699Y-104074528D01*
X161811452Y-104072257D01*
X161811450Y-104072256D01*
X161698443Y-104036842D01*
X161655062Y-104023247D01*
X161581635Y-104016500D01*
X161578737Y-104016500D01*
X161324335Y-104016501D01*
X161068366Y-104016501D01*
X161065508Y-104016764D01*
X161065499Y-104016764D01*
X161029996Y-104020026D01*
X160994938Y-104023247D01*
X160988560Y-104025246D01*
X160988559Y-104025246D01*
X160838550Y-104072256D01*
X160838548Y-104072257D01*
X160831301Y-104074528D01*
X160824805Y-104078462D01*
X160824803Y-104078463D01*
X160755771Y-104120270D01*
X160687141Y-104138449D01*
X160619578Y-104116638D01*
X160574532Y-104061762D01*
X160564500Y-104012494D01*
X160564500Y-80897032D01*
X160566051Y-80877321D01*
X160567142Y-80870434D01*
X160567142Y-80870432D01*
X160568174Y-80863917D01*
X160564673Y-80797115D01*
X160564500Y-80790521D01*
X160564500Y-80770487D01*
X160562406Y-80750561D01*
X160561889Y-80743987D01*
X160558734Y-80683786D01*
X160558733Y-80683782D01*
X160558388Y-80677192D01*
X160556680Y-80670817D01*
X160556679Y-80670812D01*
X160554877Y-80664087D01*
X160551273Y-80644643D01*
X160550545Y-80637717D01*
X160549855Y-80631151D01*
X160529172Y-80567493D01*
X160527320Y-80561245D01*
X160509994Y-80496583D01*
X160503833Y-80484491D01*
X160496269Y-80466230D01*
X160494116Y-80459604D01*
X160492075Y-80453322D01*
X160458624Y-80395383D01*
X160455477Y-80389587D01*
X160425107Y-80329982D01*
X160416568Y-80319437D01*
X160405375Y-80303152D01*
X160401884Y-80297105D01*
X160401881Y-80297102D01*
X160398585Y-80291392D01*
X160394173Y-80286492D01*
X160394170Y-80286488D01*
X160353825Y-80241682D01*
X160349537Y-80236661D01*
X160339014Y-80223666D01*
X160336937Y-80221101D01*
X160322790Y-80206954D01*
X160318249Y-80202170D01*
X160277885Y-80157341D01*
X160277883Y-80157340D01*
X160273470Y-80152438D01*
X160262482Y-80144455D01*
X160247454Y-80131618D01*
X155899953Y-75784116D01*
X147521737Y-67405900D01*
X147487711Y-67343588D01*
X147492776Y-67272772D01*
X147535323Y-67215937D01*
X147601843Y-67191126D01*
X147648469Y-67196558D01*
X147856326Y-67261622D01*
X147860269Y-67262931D01*
X148636684Y-67535091D01*
X148956035Y-67647035D01*
X148960028Y-67648511D01*
X150042158Y-68069400D01*
X150046080Y-68071002D01*
X151113393Y-68528215D01*
X151117263Y-68529951D01*
X151924561Y-68908549D01*
X152168510Y-69022954D01*
X152172331Y-69024825D01*
X152472791Y-69178321D01*
X153206335Y-69553066D01*
X153210093Y-69555067D01*
X154225629Y-70117919D01*
X154229317Y-70120045D01*
X155225275Y-70716892D01*
X155228890Y-70719142D01*
X156204111Y-71349290D01*
X156207647Y-71351660D01*
X156440158Y-71513288D01*
X157161046Y-72014409D01*
X157164481Y-72016884D01*
X157864400Y-72539362D01*
X158094942Y-72711458D01*
X158098310Y-72714062D01*
X159004760Y-73439660D01*
X159008039Y-73442376D01*
X159779241Y-74103672D01*
X159889465Y-74198188D01*
X159892649Y-74201013D01*
X160748050Y-74986179D01*
X160751137Y-74989111D01*
X161048556Y-75281226D01*
X161560578Y-75784116D01*
X161579491Y-75802692D01*
X161582471Y-75805719D01*
X161656711Y-75883734D01*
X162382905Y-76646859D01*
X162385787Y-76649992D01*
X162885664Y-77212154D01*
X163126947Y-77483500D01*
X163157320Y-77517658D01*
X163160089Y-77520879D01*
X163901920Y-78414175D01*
X163904558Y-78417464D01*
X163971017Y-78503229D01*
X164615757Y-79335271D01*
X164618307Y-79338679D01*
X165298090Y-80279981D01*
X165300524Y-80283474D01*
X165487147Y-80561199D01*
X165948137Y-81247227D01*
X165950433Y-81250772D01*
X166523067Y-82168462D01*
X166565119Y-82235854D01*
X166567302Y-82239489D01*
X167106670Y-83172648D01*
X167148338Y-83244738D01*
X167150398Y-83248445D01*
X167422247Y-83757742D01*
X167697160Y-84272779D01*
X167699101Y-84276568D01*
X168210932Y-85318761D01*
X168212744Y-85322613D01*
X168689082Y-86381515D01*
X168690763Y-86385426D01*
X169131072Y-87459850D01*
X169132600Y-87463768D01*
X169270858Y-87836561D01*
X169536347Y-88552413D01*
X169537756Y-88556418D01*
X169671265Y-88957472D01*
X169904504Y-89658110D01*
X169905780Y-89662172D01*
X170235092Y-90775589D01*
X170236230Y-90779691D01*
X170527739Y-91903595D01*
X170528738Y-91907733D01*
X170661490Y-92501406D01*
X170778627Y-93025248D01*
X170782114Y-93040844D01*
X170782970Y-93045002D01*
X170813337Y-93206197D01*
X170997929Y-94186060D01*
X170998646Y-94190256D01*
X171174930Y-95337893D01*
X171175505Y-95342111D01*
X171192212Y-95482285D01*
X171303093Y-96412599D01*
X171312917Y-96495028D01*
X171313348Y-96499244D01*
X171394957Y-97458870D01*
X171411739Y-97656210D01*
X171412027Y-97660442D01*
X171434000Y-98090498D01*
X171471276Y-98820056D01*
X171471421Y-98824306D01*
X171474017Y-98974685D01*
X171491461Y-99985214D01*
X171491463Y-99989471D01*
X171472273Y-101150419D01*
X171472131Y-101154674D01*
X171413733Y-102314314D01*
X171413447Y-102318562D01*
X171406801Y-102397402D01*
X171364009Y-102905001D01*
X171315907Y-103475582D01*
X171315478Y-103479803D01*
X171178911Y-104632831D01*
X171178339Y-104637050D01*
X171002896Y-105784820D01*
X171002182Y-105789016D01*
X170788063Y-106930214D01*
X170787207Y-106934385D01*
X170534663Y-108067681D01*
X170533667Y-108071820D01*
X170242982Y-109195937D01*
X170241847Y-109200040D01*
X169913348Y-110313707D01*
X169912075Y-110317769D01*
X169546142Y-111419710D01*
X169544735Y-111423717D01*
X169167135Y-112444161D01*
X169141793Y-112512645D01*
X169140259Y-112516586D01*
X168949313Y-112983500D01*
X168700737Y-113591334D01*
X168699059Y-113595247D01*
X168223497Y-114654498D01*
X168221688Y-114658351D01*
X167710626Y-115700907D01*
X167708688Y-115704698D01*
X167162679Y-116729432D01*
X167160614Y-116733154D01*
X166580311Y-117738836D01*
X166578121Y-117742487D01*
X165964175Y-118727992D01*
X165961868Y-118731560D01*
X165660512Y-119180738D01*
X165314981Y-119695759D01*
X165312550Y-119699254D01*
X164633443Y-120641074D01*
X164630895Y-120644484D01*
X163920382Y-121562796D01*
X163917720Y-121566119D01*
X163176577Y-122459918D01*
X163173807Y-122463145D01*
X162402906Y-123331383D01*
X162400046Y-123334497D01*
X161733865Y-124035585D01*
X161600218Y-124176235D01*
X161597234Y-124179271D01*
X161344620Y-124427744D01*
X160783153Y-124980008D01*
X160769446Y-124993490D01*
X160766370Y-124996415D01*
X159911549Y-125782204D01*
X159908404Y-125784999D01*
X159027512Y-126541473D01*
X159027496Y-126541487D01*
X159024236Y-126544192D01*
X158734066Y-126776818D01*
X158118321Y-127270453D01*
X158114956Y-127273060D01*
X157184980Y-127968335D01*
X157181546Y-127970812D01*
X156228642Y-128634253D01*
X156225140Y-128636604D01*
X155595970Y-129043803D01*
X155250356Y-129267484D01*
X155246744Y-129269736D01*
X154251220Y-129867315D01*
X154247533Y-129869444D01*
X153232422Y-130433034D01*
X153228666Y-130435038D01*
X152195037Y-130964043D01*
X152191231Y-130965910D01*
X151654472Y-131218114D01*
X151140345Y-131459684D01*
X151136462Y-131461429D01*
X150069504Y-131919417D01*
X150065564Y-131921030D01*
X148983744Y-132342711D01*
X148979752Y-132344190D01*
X148398863Y-132548291D01*
X147884270Y-132729097D01*
X147880274Y-132730426D01*
X147256645Y-132926139D01*
X146772432Y-133078099D01*
X146768350Y-133079305D01*
X146714535Y-133094217D01*
X145649367Y-133389363D01*
X145645301Y-133390416D01*
X144516509Y-133662490D01*
X144512388Y-133663410D01*
X143375016Y-133897202D01*
X143370846Y-133897986D01*
X142226287Y-134093211D01*
X142222078Y-134093856D01*
X141071549Y-134250307D01*
X141067322Y-134250809D01*
X139912186Y-134368303D01*
X139907944Y-134368662D01*
X139704373Y-134382440D01*
X138749483Y-134447067D01*
X138745280Y-134447281D01*
X137681736Y-134483230D01*
X137584810Y-134486506D01*
X137580554Y-134486578D01*
X136419449Y-134486578D01*
X136415193Y-134486506D01*
X136318134Y-134483225D01*
X135254722Y-134447281D01*
X135250519Y-134447067D01*
X134295629Y-134382440D01*
X134092058Y-134368662D01*
X134087816Y-134368303D01*
X132932680Y-134250810D01*
X132928452Y-134250308D01*
X131777924Y-134093856D01*
X131773716Y-134093211D01*
X131142176Y-133985490D01*
X130629157Y-133897986D01*
X130624986Y-133897202D01*
X129487614Y-133663410D01*
X129483493Y-133662490D01*
X128354701Y-133390416D01*
X128350635Y-133389364D01*
X127231652Y-133079306D01*
X127227570Y-133078100D01*
X126743355Y-132926139D01*
X126119728Y-132730426D01*
X126115732Y-132729097D01*
X125601139Y-132548291D01*
X125020250Y-132344190D01*
X125016258Y-132342711D01*
X123934438Y-131921031D01*
X123930498Y-131919418D01*
X123879635Y-131897585D01*
X122863538Y-131461429D01*
X122859657Y-131459685D01*
X122369760Y-131229500D01*
X121808771Y-130965911D01*
X121804976Y-130964049D01*
X120771334Y-130435038D01*
X120767580Y-130433035D01*
X119752469Y-129869445D01*
X119748782Y-129867316D01*
X118753258Y-129269737D01*
X118749646Y-129267485D01*
X118255591Y-128947733D01*
X117774862Y-128636605D01*
X117771360Y-128634254D01*
X116818456Y-127970813D01*
X116815013Y-127968329D01*
X115885066Y-127273075D01*
X115881700Y-127270469D01*
X115494124Y-126959755D01*
X114975741Y-126544174D01*
X114972504Y-126541487D01*
X114091598Y-125785000D01*
X114088453Y-125782204D01*
X113233632Y-124996417D01*
X113230556Y-124993492D01*
X113216848Y-124980008D01*
X112547391Y-124321526D01*
X112402767Y-124179273D01*
X112399783Y-124176237D01*
X112266136Y-124035587D01*
X111599955Y-123334499D01*
X111597111Y-123331403D01*
X110826206Y-122463161D01*
X110823438Y-122459937D01*
X110082267Y-121566102D01*
X110079606Y-121562779D01*
X110076534Y-121558809D01*
X109369087Y-120644460D01*
X109366577Y-120641101D01*
X108687451Y-119699256D01*
X108685020Y-119695761D01*
X108038139Y-118731569D01*
X108035827Y-118727994D01*
X107421880Y-117742489D01*
X107419690Y-117738838D01*
X106839387Y-116733156D01*
X106837322Y-116729434D01*
X106291313Y-115704700D01*
X106289375Y-115700909D01*
X105778313Y-114658353D01*
X105776504Y-114654500D01*
X105300942Y-113595249D01*
X105299264Y-113591336D01*
X105112554Y-113134782D01*
X104859742Y-112516588D01*
X104858208Y-112512647D01*
X104858208Y-112512645D01*
X104455266Y-111423719D01*
X104453859Y-111419712D01*
X104453859Y-111419710D01*
X104320048Y-111016766D01*
X104087925Y-110317771D01*
X104086652Y-110313709D01*
X103758154Y-109200042D01*
X103757019Y-109195939D01*
X103466334Y-108071822D01*
X103465338Y-108067683D01*
X103212793Y-106934387D01*
X103211937Y-106930216D01*
X102997818Y-105789018D01*
X102997104Y-105784822D01*
X102856471Y-104864786D01*
X102821660Y-104637043D01*
X102821089Y-104632832D01*
X102811198Y-104549319D01*
X102823049Y-104479319D01*
X102870864Y-104426838D01*
X102936323Y-104408500D01*
X103518134Y-104408500D01*
X103580316Y-104401745D01*
X103716705Y-104350615D01*
X103833261Y-104263261D01*
X103920615Y-104146705D01*
X103971745Y-104010316D01*
X103978500Y-103948134D01*
X103978500Y-102851866D01*
X103971745Y-102789684D01*
X103920615Y-102653295D01*
X103833261Y-102536739D01*
X103716705Y-102449385D01*
X103580316Y-102398255D01*
X103518134Y-102391500D01*
X102709969Y-102391500D01*
X102641848Y-102371498D01*
X102595355Y-102317842D01*
X102584128Y-102271837D01*
X102527869Y-101154676D01*
X102527727Y-101150421D01*
X102508537Y-99989473D01*
X102508539Y-99985216D01*
X102525983Y-98974685D01*
X102528579Y-98824308D01*
X102528724Y-98820058D01*
X102566000Y-98090498D01*
X102587973Y-97660448D01*
X102588261Y-97656213D01*
X102625033Y-97223823D01*
X102650736Y-97157642D01*
X102708138Y-97115863D01*
X102750580Y-97108500D01*
X103518134Y-97108500D01*
X103580316Y-97101745D01*
X103716705Y-97050615D01*
X103833261Y-96963261D01*
X103920615Y-96846705D01*
X103971745Y-96710316D01*
X103978500Y-96648134D01*
X103978500Y-95551866D01*
X103971745Y-95489684D01*
X103920615Y-95353295D01*
X103833261Y-95236739D01*
X103716705Y-95149385D01*
X103580316Y-95098255D01*
X103518134Y-95091500D01*
X103009749Y-95091500D01*
X102941628Y-95071498D01*
X102895135Y-95017842D01*
X102885210Y-94946370D01*
X103001354Y-94190258D01*
X103002071Y-94186062D01*
X103171889Y-93284619D01*
X103217029Y-93045004D01*
X103217885Y-93040846D01*
X103217886Y-93040844D01*
X103355688Y-92424582D01*
X103471261Y-91907736D01*
X103472260Y-91903598D01*
X103763770Y-90779693D01*
X103764908Y-90775591D01*
X104094219Y-89662174D01*
X104095495Y-89658112D01*
X104462240Y-88556431D01*
X104463653Y-88552415D01*
X104867394Y-87463783D01*
X104868927Y-87459852D01*
X105309237Y-86385426D01*
X105310917Y-86381517D01*
X105787255Y-85322615D01*
X105789067Y-85318763D01*
X106300898Y-84276570D01*
X106302839Y-84272781D01*
X106449891Y-83997285D01*
X106849601Y-83248447D01*
X106851661Y-83244740D01*
X106893331Y-83172648D01*
X107134208Y-82755906D01*
X107432689Y-82239505D01*
X107434881Y-82235856D01*
X108049557Y-81250788D01*
X108051871Y-81247214D01*
X108058238Y-81237740D01*
X108508602Y-80567524D01*
X108699474Y-80283476D01*
X108701908Y-80279983D01*
X109381691Y-79338681D01*
X109384241Y-79335273D01*
X109680037Y-78953546D01*
X110095441Y-78417465D01*
X110098092Y-78414160D01*
X110839904Y-77520888D01*
X110842679Y-77517660D01*
X110878510Y-77477365D01*
X111265769Y-77041852D01*
X111614211Y-76649994D01*
X111617093Y-76646861D01*
X112169980Y-76065857D01*
X112417527Y-75805721D01*
X112420507Y-75802694D01*
X112439423Y-75784116D01*
X112940625Y-75291852D01*
X113248862Y-74989113D01*
X113251949Y-74986181D01*
X113973103Y-74324238D01*
X114107355Y-74201009D01*
X114110533Y-74198189D01*
X114236123Y-74090498D01*
X114991963Y-73442376D01*
X114995239Y-73439662D01*
X115901688Y-72714063D01*
X115905056Y-72711459D01*
X115974658Y-72659502D01*
X116835517Y-72016885D01*
X116838935Y-72014422D01*
X117792352Y-71351660D01*
X117795887Y-71349291D01*
X118771108Y-70719143D01*
X118774723Y-70716893D01*
X119770681Y-70120046D01*
X119774369Y-70117920D01*
X120789905Y-69555068D01*
X120793663Y-69553067D01*
X121827665Y-69024827D01*
X121831488Y-69022955D01*
X121831490Y-69022954D01*
X122882735Y-68529952D01*
X122886595Y-68528220D01*
X123953918Y-68071003D01*
X123957825Y-68069407D01*
X125039970Y-67648512D01*
X125043963Y-67647036D01*
X126139707Y-67262940D01*
X126143748Y-67261600D01*
X127251822Y-66914745D01*
X127255906Y-66913542D01*
X128328519Y-66617179D01*
X128351252Y-66613094D01*
X128366240Y-66611802D01*
X128372078Y-66610370D01*
X128372345Y-66610344D01*
X128372594Y-66610244D01*
X128378432Y-66608812D01*
X128382716Y-66607026D01*
X128384218Y-66606552D01*
X128747136Y-66496720D01*
X128812908Y-66476815D01*
X128885236Y-66448240D01*
X129232799Y-66310925D01*
X129235209Y-66309973D01*
X129237521Y-66308831D01*
X129237531Y-66308827D01*
X129472978Y-66192574D01*
X129642348Y-66108947D01*
X130031564Y-65875099D01*
X130033674Y-65873582D01*
X130398109Y-65611532D01*
X130398112Y-65611529D01*
X130400217Y-65610016D01*
X130402222Y-65608308D01*
X130743831Y-65317178D01*
X130745806Y-65315495D01*
X130884306Y-65176226D01*
X131064163Y-64995369D01*
X131065987Y-64993535D01*
X131067655Y-64991556D01*
X131356903Y-64648320D01*
X131356908Y-64648314D01*
X131358588Y-64646320D01*
X131621625Y-64276204D01*
X131853313Y-63885698D01*
X131854442Y-63883379D01*
X131854448Y-63883368D01*
X132050943Y-63479787D01*
X132050949Y-63479774D01*
X132052080Y-63477451D01*
X132053026Y-63475017D01*
X132215638Y-63056654D01*
X132215641Y-63056644D01*
X132216579Y-63054232D01*
X132287055Y-62816620D01*
X132344960Y-62621388D01*
X132344962Y-62621380D01*
X132345694Y-62618913D01*
X132438549Y-62174444D01*
X132494514Y-61723843D01*
X132512136Y-61296189D01*
X132512533Y-61290122D01*
X132512766Y-61287523D01*
X132513575Y-61282716D01*
X132513728Y-61270164D01*
X132509773Y-61242548D01*
X132508500Y-61224686D01*
X132508500Y-60053250D01*
X132510246Y-60032345D01*
X132512770Y-60017344D01*
X132512770Y-60017341D01*
X132513576Y-60012552D01*
X132513729Y-60000000D01*
X134486540Y-60000000D01*
X134506359Y-60315020D01*
X134565505Y-60625072D01*
X134663044Y-60925266D01*
X134664731Y-60928852D01*
X134664733Y-60928856D01*
X134795750Y-61207283D01*
X134795754Y-61207290D01*
X134797438Y-61210869D01*
X134799562Y-61214215D01*
X134799562Y-61214216D01*
X134807956Y-61227442D01*
X134966568Y-61477375D01*
X135167767Y-61720582D01*
X135170657Y-61723296D01*
X135170658Y-61723297D01*
X135173994Y-61726430D01*
X135397860Y-61936654D01*
X135653221Y-62122184D01*
X135929821Y-62274247D01*
X135933490Y-62275700D01*
X135933495Y-62275702D01*
X136219628Y-62388990D01*
X136223298Y-62390443D01*
X136529025Y-62468940D01*
X136842179Y-62508500D01*
X137157821Y-62508500D01*
X137470975Y-62468940D01*
X137776702Y-62390443D01*
X137780372Y-62388990D01*
X138066505Y-62275702D01*
X138066510Y-62275700D01*
X138070179Y-62274247D01*
X138346779Y-62122184D01*
X138602140Y-61936654D01*
X138826006Y-61726430D01*
X138829342Y-61723297D01*
X138829343Y-61723296D01*
X138832233Y-61720582D01*
X139033432Y-61477375D01*
X139192044Y-61227442D01*
X139200438Y-61214216D01*
X139200438Y-61214215D01*
X139202562Y-61210869D01*
X139204246Y-61207290D01*
X139204250Y-61207283D01*
X139335267Y-60928856D01*
X139335269Y-60928852D01*
X139336956Y-60925266D01*
X139434495Y-60625072D01*
X139493641Y-60315020D01*
X139513460Y-60000000D01*
X139493641Y-59684980D01*
X139434495Y-59374928D01*
X139336956Y-59074734D01*
X139330667Y-59061369D01*
X139204250Y-58792717D01*
X139204246Y-58792710D01*
X139202562Y-58789131D01*
X139033432Y-58522625D01*
X138832233Y-58279418D01*
X138602140Y-58063346D01*
X138346779Y-57877816D01*
X138178620Y-57785369D01*
X138073648Y-57727660D01*
X138073647Y-57727659D01*
X138070179Y-57725753D01*
X138066510Y-57724300D01*
X138066505Y-57724298D01*
X137780372Y-57611010D01*
X137780371Y-57611010D01*
X137776702Y-57609557D01*
X137470975Y-57531060D01*
X137157821Y-57491500D01*
X136842179Y-57491500D01*
X136529025Y-57531060D01*
X136223298Y-57609557D01*
X136219629Y-57611010D01*
X136219628Y-57611010D01*
X135933495Y-57724298D01*
X135933490Y-57724300D01*
X135929821Y-57725753D01*
X135926353Y-57727659D01*
X135926352Y-57727660D01*
X135821381Y-57785369D01*
X135653221Y-57877816D01*
X135397860Y-58063346D01*
X135167767Y-58279418D01*
X134966568Y-58522625D01*
X134797438Y-58789131D01*
X134795754Y-58792710D01*
X134795750Y-58792717D01*
X134669333Y-59061369D01*
X134663044Y-59074734D01*
X134565505Y-59374928D01*
X134506359Y-59684980D01*
X134488833Y-59963559D01*
X134486540Y-60000000D01*
X132513729Y-60000000D01*
X132511464Y-59984183D01*
X132510326Y-59960508D01*
X132527391Y-59591395D01*
X132528465Y-59579806D01*
X132584172Y-59180453D01*
X132586311Y-59169013D01*
X132647422Y-58909186D01*
X132678628Y-58776504D01*
X132681811Y-58765319D01*
X132684366Y-58757698D01*
X132745880Y-58574163D01*
X132809950Y-58383007D01*
X132814154Y-58372155D01*
X132977023Y-58003291D01*
X132982211Y-57992873D01*
X133178412Y-57640625D01*
X133184538Y-57630730D01*
X133412418Y-57298067D01*
X133419432Y-57288780D01*
X133677020Y-56978577D01*
X133684861Y-56969976D01*
X133969976Y-56684861D01*
X133978577Y-56677020D01*
X134054812Y-56613716D01*
X134288780Y-56419432D01*
X134298067Y-56412418D01*
X134630730Y-56184538D01*
X134640625Y-56178412D01*
X134992873Y-55982211D01*
X135003291Y-55977023D01*
X135372155Y-55814154D01*
X135383007Y-55809950D01*
X135574163Y-55745880D01*
X135765328Y-55681808D01*
X135776504Y-55678628D01*
X136169013Y-55586311D01*
X136180453Y-55584172D01*
X136579806Y-55528465D01*
X136591395Y-55527391D01*
X136994182Y-55508769D01*
X137005818Y-55508769D01*
X137408605Y-55527391D01*
G37*
%TD.AperFunction*%
%TD*%
M02*
