%TF.GenerationSoftware,KiCad,Pcbnew,(5.1.10)-1*%
%TF.CreationDate,2021-10-17T11:08:17+02:00*%
%TF.ProjectId,TVZ_kuglica,54565a5f-6b75-4676-9c69-63612e6b6963,rev?*%
%TF.SameCoordinates,Original*%
%TF.FileFunction,Copper,L1,Top*%
%TF.FilePolarity,Positive*%
%FSLAX46Y46*%
G04 Gerber Fmt 4.6, Leading zero omitted, Abs format (unit mm)*
G04 Created by KiCad (PCBNEW (5.1.10)-1) date 2021-10-17 11:08:17*
%MOMM*%
%LPD*%
G01*
G04 APERTURE LIST*
%TA.AperFunction,SMDPad,CuDef*%
%ADD10R,1.100000X0.750000*%
%TD*%
%TA.AperFunction,ViaPad*%
%ADD11C,0.800000*%
%TD*%
%TA.AperFunction,Conductor*%
%ADD12C,0.762000*%
%TD*%
%TA.AperFunction,Conductor*%
%ADD13C,0.254000*%
%TD*%
%TA.AperFunction,Conductor*%
%ADD14C,0.100000*%
%TD*%
G04 APERTURE END LIST*
D10*
%TO.P,D1,1*%
%TO.N,Net-(D1-Pad1)*%
X110700000Y-86875000D03*
%TO.P,D1,2*%
%TO.N,GND*%
X112800000Y-86875000D03*
%TO.P,D1,1*%
%TO.N,Net-(D1-Pad1)*%
X110700000Y-88125000D03*
%TO.P,D1,2*%
%TO.N,GND*%
X112800000Y-88125000D03*
%TD*%
%TO.P,D2,2*%
%TO.N,GND*%
X120800000Y-76375000D03*
%TO.P,D2,1*%
%TO.N,Net-(D1-Pad1)*%
X118700000Y-76375000D03*
%TO.P,D2,2*%
%TO.N,GND*%
X120800000Y-75125000D03*
%TO.P,D2,1*%
%TO.N,Net-(D1-Pad1)*%
X118700000Y-75125000D03*
%TD*%
%TO.P,D3,1*%
%TO.N,Net-(D1-Pad1)*%
X153450000Y-73625000D03*
%TO.P,D3,2*%
%TO.N,GND*%
X155550000Y-73625000D03*
%TO.P,D3,1*%
%TO.N,Net-(D1-Pad1)*%
X153450000Y-74875000D03*
%TO.P,D3,2*%
%TO.N,GND*%
X155550000Y-74875000D03*
%TD*%
%TO.P,D4,2*%
%TO.N,GND*%
X131800000Y-109625000D03*
%TO.P,D4,1*%
%TO.N,Net-(D1-Pad1)*%
X129700000Y-109625000D03*
%TO.P,D4,2*%
%TO.N,GND*%
X131800000Y-108375000D03*
%TO.P,D4,1*%
%TO.N,Net-(D1-Pad1)*%
X129700000Y-108375000D03*
%TD*%
%TO.P,D5,1*%
%TO.N,Net-(D1-Pad1)*%
X115950000Y-114375000D03*
%TO.P,D5,2*%
%TO.N,GND*%
X118050000Y-114375000D03*
%TO.P,D5,1*%
%TO.N,Net-(D1-Pad1)*%
X115950000Y-115625000D03*
%TO.P,D5,2*%
%TO.N,GND*%
X118050000Y-115625000D03*
%TD*%
%TO.P,D6,2*%
%TO.N,GND*%
X117300000Y-101875000D03*
%TO.P,D6,1*%
%TO.N,Net-(D1-Pad1)*%
X115200000Y-101875000D03*
%TO.P,D6,2*%
%TO.N,GND*%
X117300000Y-100625000D03*
%TO.P,D6,1*%
%TO.N,Net-(D1-Pad1)*%
X115200000Y-100625000D03*
%TD*%
%TO.P,D7,1*%
%TO.N,Net-(D1-Pad1)*%
X142200000Y-129125000D03*
%TO.P,D7,2*%
%TO.N,GND*%
X144300000Y-129125000D03*
%TO.P,D7,1*%
%TO.N,Net-(D1-Pad1)*%
X142200000Y-130375000D03*
%TO.P,D7,2*%
%TO.N,GND*%
X144300000Y-130375000D03*
%TD*%
%TO.P,D8,2*%
%TO.N,GND*%
X160300000Y-111375000D03*
%TO.P,D8,1*%
%TO.N,Net-(D1-Pad1)*%
X158200000Y-111375000D03*
%TO.P,D8,2*%
%TO.N,GND*%
X160300000Y-110125000D03*
%TO.P,D8,1*%
%TO.N,Net-(D1-Pad1)*%
X158200000Y-110125000D03*
%TD*%
%TO.P,D9,1*%
%TO.N,Net-(D1-Pad1)*%
X133450000Y-73625000D03*
%TO.P,D9,2*%
%TO.N,GND*%
X135550000Y-73625000D03*
%TO.P,D9,1*%
%TO.N,Net-(D1-Pad1)*%
X133450000Y-74875000D03*
%TO.P,D9,2*%
%TO.N,GND*%
X135550000Y-74875000D03*
%TD*%
%TO.P,D10,2*%
%TO.N,GND*%
X147050000Y-103625000D03*
%TO.P,D10,1*%
%TO.N,Net-(D1-Pad1)*%
X144950000Y-103625000D03*
%TO.P,D10,2*%
%TO.N,GND*%
X147050000Y-102375000D03*
%TO.P,D10,1*%
%TO.N,Net-(D1-Pad1)*%
X144950000Y-102375000D03*
%TD*%
%TO.P,D11,1*%
%TO.N,Net-(D1-Pad1)*%
X125950000Y-126125000D03*
%TO.P,D11,2*%
%TO.N,GND*%
X128050000Y-126125000D03*
%TO.P,D11,1*%
%TO.N,Net-(D1-Pad1)*%
X125950000Y-127375000D03*
%TO.P,D11,2*%
%TO.N,GND*%
X128050000Y-127375000D03*
%TD*%
D11*
%TO.N,Net-(D1-Pad1)*%
X144000000Y-103000000D03*
X157250000Y-110750000D03*
X141250000Y-129750000D03*
X109750000Y-87500000D03*
X117750000Y-75750000D03*
X132500000Y-74250000D03*
X152500000Y-74250000D03*
X128750000Y-109000000D03*
X114250000Y-101250000D03*
X115000000Y-115000000D03*
X125000000Y-126750000D03*
%TO.N,GND*%
X118500000Y-126000000D03*
X134750000Y-125750000D03*
X135000000Y-133000000D03*
X145250000Y-126250000D03*
X153750000Y-127750000D03*
X154250000Y-77250000D03*
X130750000Y-73250000D03*
X120250000Y-84000000D03*
X126250000Y-93250000D03*
X120250000Y-105250000D03*
X128250000Y-104000000D03*
X108000000Y-107250000D03*
X118000000Y-110250000D03*
X138000000Y-112250000D03*
X149750000Y-117000000D03*
X147000000Y-108250000D03*
X165000000Y-105250000D03*
X161250000Y-117250000D03*
X155250000Y-97750000D03*
X157750000Y-90000000D03*
X139750000Y-94750000D03*
X161250000Y-110750000D03*
X132750000Y-109000000D03*
X148000000Y-103000000D03*
X119000000Y-115000000D03*
X118250000Y-101250000D03*
X145250000Y-129750000D03*
X113750000Y-87500000D03*
X136500000Y-74250000D03*
X156500000Y-74250000D03*
X121750000Y-75750000D03*
X129000000Y-126750000D03*
%TD*%
D12*
%TO.N,Net-(D1-Pad1)*%
X115325000Y-115000000D02*
X115950000Y-114375000D01*
X115325000Y-115000000D02*
X115950000Y-115625000D01*
X115000000Y-115000000D02*
X115325000Y-115000000D01*
X114575000Y-101250000D02*
X115200000Y-100625000D01*
X114575000Y-101250000D02*
X115200000Y-101875000D01*
X114250000Y-101250000D02*
X114575000Y-101250000D01*
X129075000Y-109000000D02*
X129700000Y-109625000D01*
X129075000Y-109000000D02*
X129700000Y-108375000D01*
X128750000Y-109000000D02*
X129075000Y-109000000D01*
X152825000Y-74250000D02*
X153450000Y-74875000D01*
X152825000Y-74250000D02*
X153450000Y-73625000D01*
X157575000Y-110750000D02*
X158200000Y-110125000D01*
X157575000Y-110750000D02*
X158200000Y-111375000D01*
X157250000Y-110750000D02*
X157575000Y-110750000D01*
X144325000Y-103000000D02*
X144950000Y-102375000D01*
X144325000Y-103000000D02*
X144950000Y-103625000D01*
X144000000Y-103000000D02*
X144325000Y-103000000D01*
X110075000Y-87500000D02*
X110700000Y-86875000D01*
X110075000Y-87500000D02*
X110700000Y-88125000D01*
X109750000Y-87500000D02*
X110075000Y-87500000D01*
X118075000Y-75750000D02*
X118700000Y-75125000D01*
X118075000Y-75750000D02*
X118700000Y-76375000D01*
X117750000Y-75750000D02*
X118075000Y-75750000D01*
X132825000Y-74250000D02*
X133450000Y-73625000D01*
X132825000Y-74250000D02*
X133450000Y-74875000D01*
X141575000Y-129750000D02*
X142200000Y-130375000D01*
X141575000Y-129750000D02*
X142200000Y-129125000D01*
X141250000Y-129750000D02*
X141575000Y-129750000D01*
X125325000Y-126750000D02*
X125950000Y-126125000D01*
X125325000Y-126750000D02*
X125950000Y-127375000D01*
X125000000Y-126750000D02*
X125325000Y-126750000D01*
%TD*%
D13*
%TO.N,GND*%
X161910197Y-122839803D02*
X161929443Y-122855597D01*
X161951399Y-122867333D01*
X161975224Y-122874560D01*
X162000000Y-122877000D01*
X162024776Y-122874560D01*
X162048601Y-122867333D01*
X162070557Y-122855597D01*
X162089803Y-122839803D01*
X164440342Y-120489264D01*
X163824120Y-121319689D01*
X162352204Y-123050560D01*
X160768823Y-124680064D01*
X159080926Y-126201055D01*
X157295931Y-127606843D01*
X155421695Y-128891239D01*
X153466456Y-130048599D01*
X151438820Y-131073832D01*
X149347702Y-131962428D01*
X147202263Y-132710493D01*
X145011999Y-133314718D01*
X142786467Y-133772464D01*
X140535523Y-134081705D01*
X138269022Y-134241089D01*
X135996953Y-134249911D01*
X133729262Y-134108134D01*
X131475992Y-133816385D01*
X129246983Y-133375938D01*
X127052076Y-132788738D01*
X124900917Y-132057366D01*
X122802939Y-131185029D01*
X120767401Y-130175574D01*
X119860225Y-129648061D01*
X140215000Y-129648061D01*
X140215000Y-129851939D01*
X140254774Y-130051898D01*
X140332795Y-130240256D01*
X140446063Y-130409774D01*
X140590226Y-130553937D01*
X140759744Y-130667205D01*
X140948102Y-130745226D01*
X141012724Y-130758080D01*
X141024188Y-130874482D01*
X141060498Y-130994180D01*
X141119463Y-131104494D01*
X141198815Y-131201185D01*
X141295506Y-131280537D01*
X141405820Y-131339502D01*
X141525518Y-131375812D01*
X141650000Y-131388072D01*
X142120375Y-131388072D01*
X142199999Y-131395914D01*
X142279623Y-131388072D01*
X142750000Y-131388072D01*
X142874482Y-131375812D01*
X142994180Y-131339502D01*
X143104494Y-131280537D01*
X143201185Y-131201185D01*
X143250000Y-131141704D01*
X143298815Y-131201185D01*
X143395506Y-131280537D01*
X143505820Y-131339502D01*
X143625518Y-131375812D01*
X143750000Y-131388072D01*
X144014250Y-131385000D01*
X144173000Y-131226250D01*
X144173000Y-130502000D01*
X144427000Y-130502000D01*
X144427000Y-131226250D01*
X144585750Y-131385000D01*
X144850000Y-131388072D01*
X144974482Y-131375812D01*
X145094180Y-131339502D01*
X145204494Y-131280537D01*
X145301185Y-131201185D01*
X145380537Y-131104494D01*
X145439502Y-130994180D01*
X145475812Y-130874482D01*
X145488072Y-130750000D01*
X145485000Y-130660750D01*
X145326250Y-130502000D01*
X144427000Y-130502000D01*
X144173000Y-130502000D01*
X144153000Y-130502000D01*
X144153000Y-130248000D01*
X144173000Y-130248000D01*
X144173000Y-129252000D01*
X144427000Y-129252000D01*
X144427000Y-130248000D01*
X145326250Y-130248000D01*
X145485000Y-130089250D01*
X145488072Y-130000000D01*
X145475812Y-129875518D01*
X145439502Y-129755820D01*
X145436391Y-129750000D01*
X145439502Y-129744180D01*
X145475812Y-129624482D01*
X145488072Y-129500000D01*
X145485000Y-129410750D01*
X145326250Y-129252000D01*
X144427000Y-129252000D01*
X144173000Y-129252000D01*
X144153000Y-129252000D01*
X144153000Y-128998000D01*
X144173000Y-128998000D01*
X144173000Y-128273750D01*
X144427000Y-128273750D01*
X144427000Y-128998000D01*
X145326250Y-128998000D01*
X145485000Y-128839250D01*
X145488072Y-128750000D01*
X145475812Y-128625518D01*
X145439502Y-128505820D01*
X145380537Y-128395506D01*
X145301185Y-128298815D01*
X145204494Y-128219463D01*
X145094180Y-128160498D01*
X144974482Y-128124188D01*
X144850000Y-128111928D01*
X144585750Y-128115000D01*
X144427000Y-128273750D01*
X144173000Y-128273750D01*
X144014250Y-128115000D01*
X143750000Y-128111928D01*
X143625518Y-128124188D01*
X143505820Y-128160498D01*
X143395506Y-128219463D01*
X143298815Y-128298815D01*
X143250000Y-128358296D01*
X143201185Y-128298815D01*
X143104494Y-128219463D01*
X142994180Y-128160498D01*
X142874482Y-128124188D01*
X142750000Y-128111928D01*
X142279623Y-128111928D01*
X142199999Y-128104086D01*
X142120375Y-128111928D01*
X141650000Y-128111928D01*
X141525518Y-128124188D01*
X141405820Y-128160498D01*
X141295506Y-128219463D01*
X141198815Y-128298815D01*
X141119463Y-128395506D01*
X141060498Y-128505820D01*
X141024188Y-128625518D01*
X141012724Y-128741920D01*
X140948102Y-128754774D01*
X140759744Y-128832795D01*
X140590226Y-128946063D01*
X140446063Y-129090226D01*
X140332795Y-129259744D01*
X140254774Y-129448102D01*
X140215000Y-129648061D01*
X119860225Y-129648061D01*
X118803237Y-129033435D01*
X116919085Y-127763634D01*
X115479732Y-126648061D01*
X123965000Y-126648061D01*
X123965000Y-126851939D01*
X124004774Y-127051898D01*
X124082795Y-127240256D01*
X124196063Y-127409774D01*
X124340226Y-127553937D01*
X124509744Y-127667205D01*
X124698102Y-127745226D01*
X124762724Y-127758080D01*
X124774188Y-127874482D01*
X124810498Y-127994180D01*
X124869463Y-128104494D01*
X124948815Y-128201185D01*
X125045506Y-128280537D01*
X125155820Y-128339502D01*
X125275518Y-128375812D01*
X125400000Y-128388072D01*
X125870375Y-128388072D01*
X125949999Y-128395914D01*
X126029623Y-128388072D01*
X126500000Y-128388072D01*
X126624482Y-128375812D01*
X126744180Y-128339502D01*
X126854494Y-128280537D01*
X126951185Y-128201185D01*
X127000000Y-128141704D01*
X127048815Y-128201185D01*
X127145506Y-128280537D01*
X127255820Y-128339502D01*
X127375518Y-128375812D01*
X127500000Y-128388072D01*
X127764250Y-128385000D01*
X127923000Y-128226250D01*
X127923000Y-127502000D01*
X128177000Y-127502000D01*
X128177000Y-128226250D01*
X128335750Y-128385000D01*
X128600000Y-128388072D01*
X128724482Y-128375812D01*
X128844180Y-128339502D01*
X128954494Y-128280537D01*
X129051185Y-128201185D01*
X129130537Y-128104494D01*
X129189502Y-127994180D01*
X129225812Y-127874482D01*
X129238072Y-127750000D01*
X129235000Y-127660750D01*
X129076250Y-127502000D01*
X128177000Y-127502000D01*
X127923000Y-127502000D01*
X127903000Y-127502000D01*
X127903000Y-127248000D01*
X127923000Y-127248000D01*
X127923000Y-126252000D01*
X128177000Y-126252000D01*
X128177000Y-127248000D01*
X129076250Y-127248000D01*
X129235000Y-127089250D01*
X129238072Y-127000000D01*
X129225812Y-126875518D01*
X129189502Y-126755820D01*
X129186391Y-126750000D01*
X129189502Y-126744180D01*
X129225812Y-126624482D01*
X129238072Y-126500000D01*
X129235000Y-126410750D01*
X129076250Y-126252000D01*
X128177000Y-126252000D01*
X127923000Y-126252000D01*
X127903000Y-126252000D01*
X127903000Y-125998000D01*
X127923000Y-125998000D01*
X127923000Y-125273750D01*
X128177000Y-125273750D01*
X128177000Y-125998000D01*
X129076250Y-125998000D01*
X129235000Y-125839250D01*
X129238072Y-125750000D01*
X129225812Y-125625518D01*
X129189502Y-125505820D01*
X129130537Y-125395506D01*
X129051185Y-125298815D01*
X128954494Y-125219463D01*
X128844180Y-125160498D01*
X128724482Y-125124188D01*
X128600000Y-125111928D01*
X128335750Y-125115000D01*
X128177000Y-125273750D01*
X127923000Y-125273750D01*
X127764250Y-125115000D01*
X127500000Y-125111928D01*
X127375518Y-125124188D01*
X127255820Y-125160498D01*
X127145506Y-125219463D01*
X127048815Y-125298815D01*
X127000000Y-125358296D01*
X126951185Y-125298815D01*
X126854494Y-125219463D01*
X126744180Y-125160498D01*
X126624482Y-125124188D01*
X126500000Y-125111928D01*
X126029623Y-125111928D01*
X125949999Y-125104086D01*
X125870375Y-125111928D01*
X125400000Y-125111928D01*
X125275518Y-125124188D01*
X125155820Y-125160498D01*
X125045506Y-125219463D01*
X124948815Y-125298815D01*
X124869463Y-125395506D01*
X124810498Y-125505820D01*
X124774188Y-125625518D01*
X124762724Y-125741920D01*
X124698102Y-125754774D01*
X124509744Y-125832795D01*
X124340226Y-125946063D01*
X124196063Y-126090226D01*
X124082795Y-126259744D01*
X124004774Y-126448102D01*
X123965000Y-126648061D01*
X115479732Y-126648061D01*
X115123223Y-126371749D01*
X113423564Y-124863914D01*
X111827572Y-123246751D01*
X110342263Y-121527368D01*
X109610626Y-120557246D01*
X111893183Y-122839803D01*
X111912190Y-122855437D01*
X111934120Y-122867222D01*
X111957928Y-122874503D01*
X111982699Y-122877000D01*
X112007480Y-122874615D01*
X112031321Y-122867442D01*
X112053304Y-122855756D01*
X112072585Y-122840006D01*
X114493921Y-120429606D01*
X116892979Y-122839598D01*
X116912429Y-122855597D01*
X116934385Y-122867333D01*
X116958210Y-122874560D01*
X116982986Y-122877000D01*
X117007762Y-122874560D01*
X117031587Y-122867333D01*
X117053543Y-122855597D01*
X117072789Y-122839803D01*
X119482986Y-120429606D01*
X121893183Y-122839803D01*
X121912429Y-122855597D01*
X121934385Y-122867333D01*
X121958210Y-122874560D01*
X121982986Y-122877000D01*
X122007762Y-122874560D01*
X122031587Y-122867333D01*
X122053543Y-122855597D01*
X122072789Y-122839803D01*
X124482986Y-120429606D01*
X126893183Y-122839803D01*
X126912190Y-122855437D01*
X126934120Y-122867222D01*
X126957928Y-122874503D01*
X126982699Y-122877000D01*
X127007480Y-122874615D01*
X127031321Y-122867442D01*
X127053304Y-122855756D01*
X127072585Y-122840006D01*
X129493921Y-120429606D01*
X131892979Y-122839598D01*
X131912429Y-122855597D01*
X131934385Y-122867333D01*
X131958210Y-122874560D01*
X131982986Y-122877000D01*
X132007762Y-122874560D01*
X132031587Y-122867333D01*
X132053543Y-122855597D01*
X132072789Y-122839803D01*
X134482986Y-120429606D01*
X136893183Y-122839803D01*
X136912429Y-122855597D01*
X136934385Y-122867333D01*
X136958210Y-122874560D01*
X136982986Y-122877000D01*
X137007762Y-122874560D01*
X137031587Y-122867333D01*
X137053543Y-122855597D01*
X137072789Y-122839803D01*
X139482986Y-120429606D01*
X141893183Y-122839803D01*
X141912190Y-122855437D01*
X141934120Y-122867222D01*
X141957928Y-122874503D01*
X141982699Y-122877000D01*
X142007480Y-122874615D01*
X142031321Y-122867442D01*
X142053304Y-122855756D01*
X142072585Y-122840006D01*
X144493921Y-120429606D01*
X146892979Y-122839598D01*
X146912429Y-122855597D01*
X146934385Y-122867333D01*
X146958210Y-122874560D01*
X146982986Y-122877000D01*
X147007762Y-122874560D01*
X147031587Y-122867333D01*
X147053543Y-122855597D01*
X147072789Y-122839803D01*
X149482986Y-120429606D01*
X151893183Y-122839803D01*
X151912429Y-122855597D01*
X151934385Y-122867333D01*
X151958210Y-122874560D01*
X151982986Y-122877000D01*
X152007762Y-122874560D01*
X152031587Y-122867333D01*
X152053543Y-122855597D01*
X152072789Y-122839803D01*
X154482986Y-120429606D01*
X156893183Y-122839803D01*
X156912190Y-122855437D01*
X156934120Y-122867222D01*
X156957928Y-122874503D01*
X156982699Y-122877000D01*
X157007480Y-122874615D01*
X157031321Y-122867442D01*
X157053304Y-122855756D01*
X157072585Y-122840006D01*
X159496967Y-120426573D01*
X161910197Y-122839803D01*
%TA.AperFunction,Conductor*%
D14*
G36*
X161910197Y-122839803D02*
G01*
X161929443Y-122855597D01*
X161951399Y-122867333D01*
X161975224Y-122874560D01*
X162000000Y-122877000D01*
X162024776Y-122874560D01*
X162048601Y-122867333D01*
X162070557Y-122855597D01*
X162089803Y-122839803D01*
X164440342Y-120489264D01*
X163824120Y-121319689D01*
X162352204Y-123050560D01*
X160768823Y-124680064D01*
X159080926Y-126201055D01*
X157295931Y-127606843D01*
X155421695Y-128891239D01*
X153466456Y-130048599D01*
X151438820Y-131073832D01*
X149347702Y-131962428D01*
X147202263Y-132710493D01*
X145011999Y-133314718D01*
X142786467Y-133772464D01*
X140535523Y-134081705D01*
X138269022Y-134241089D01*
X135996953Y-134249911D01*
X133729262Y-134108134D01*
X131475992Y-133816385D01*
X129246983Y-133375938D01*
X127052076Y-132788738D01*
X124900917Y-132057366D01*
X122802939Y-131185029D01*
X120767401Y-130175574D01*
X119860225Y-129648061D01*
X140215000Y-129648061D01*
X140215000Y-129851939D01*
X140254774Y-130051898D01*
X140332795Y-130240256D01*
X140446063Y-130409774D01*
X140590226Y-130553937D01*
X140759744Y-130667205D01*
X140948102Y-130745226D01*
X141012724Y-130758080D01*
X141024188Y-130874482D01*
X141060498Y-130994180D01*
X141119463Y-131104494D01*
X141198815Y-131201185D01*
X141295506Y-131280537D01*
X141405820Y-131339502D01*
X141525518Y-131375812D01*
X141650000Y-131388072D01*
X142120375Y-131388072D01*
X142199999Y-131395914D01*
X142279623Y-131388072D01*
X142750000Y-131388072D01*
X142874482Y-131375812D01*
X142994180Y-131339502D01*
X143104494Y-131280537D01*
X143201185Y-131201185D01*
X143250000Y-131141704D01*
X143298815Y-131201185D01*
X143395506Y-131280537D01*
X143505820Y-131339502D01*
X143625518Y-131375812D01*
X143750000Y-131388072D01*
X144014250Y-131385000D01*
X144173000Y-131226250D01*
X144173000Y-130502000D01*
X144427000Y-130502000D01*
X144427000Y-131226250D01*
X144585750Y-131385000D01*
X144850000Y-131388072D01*
X144974482Y-131375812D01*
X145094180Y-131339502D01*
X145204494Y-131280537D01*
X145301185Y-131201185D01*
X145380537Y-131104494D01*
X145439502Y-130994180D01*
X145475812Y-130874482D01*
X145488072Y-130750000D01*
X145485000Y-130660750D01*
X145326250Y-130502000D01*
X144427000Y-130502000D01*
X144173000Y-130502000D01*
X144153000Y-130502000D01*
X144153000Y-130248000D01*
X144173000Y-130248000D01*
X144173000Y-129252000D01*
X144427000Y-129252000D01*
X144427000Y-130248000D01*
X145326250Y-130248000D01*
X145485000Y-130089250D01*
X145488072Y-130000000D01*
X145475812Y-129875518D01*
X145439502Y-129755820D01*
X145436391Y-129750000D01*
X145439502Y-129744180D01*
X145475812Y-129624482D01*
X145488072Y-129500000D01*
X145485000Y-129410750D01*
X145326250Y-129252000D01*
X144427000Y-129252000D01*
X144173000Y-129252000D01*
X144153000Y-129252000D01*
X144153000Y-128998000D01*
X144173000Y-128998000D01*
X144173000Y-128273750D01*
X144427000Y-128273750D01*
X144427000Y-128998000D01*
X145326250Y-128998000D01*
X145485000Y-128839250D01*
X145488072Y-128750000D01*
X145475812Y-128625518D01*
X145439502Y-128505820D01*
X145380537Y-128395506D01*
X145301185Y-128298815D01*
X145204494Y-128219463D01*
X145094180Y-128160498D01*
X144974482Y-128124188D01*
X144850000Y-128111928D01*
X144585750Y-128115000D01*
X144427000Y-128273750D01*
X144173000Y-128273750D01*
X144014250Y-128115000D01*
X143750000Y-128111928D01*
X143625518Y-128124188D01*
X143505820Y-128160498D01*
X143395506Y-128219463D01*
X143298815Y-128298815D01*
X143250000Y-128358296D01*
X143201185Y-128298815D01*
X143104494Y-128219463D01*
X142994180Y-128160498D01*
X142874482Y-128124188D01*
X142750000Y-128111928D01*
X142279623Y-128111928D01*
X142199999Y-128104086D01*
X142120375Y-128111928D01*
X141650000Y-128111928D01*
X141525518Y-128124188D01*
X141405820Y-128160498D01*
X141295506Y-128219463D01*
X141198815Y-128298815D01*
X141119463Y-128395506D01*
X141060498Y-128505820D01*
X141024188Y-128625518D01*
X141012724Y-128741920D01*
X140948102Y-128754774D01*
X140759744Y-128832795D01*
X140590226Y-128946063D01*
X140446063Y-129090226D01*
X140332795Y-129259744D01*
X140254774Y-129448102D01*
X140215000Y-129648061D01*
X119860225Y-129648061D01*
X118803237Y-129033435D01*
X116919085Y-127763634D01*
X115479732Y-126648061D01*
X123965000Y-126648061D01*
X123965000Y-126851939D01*
X124004774Y-127051898D01*
X124082795Y-127240256D01*
X124196063Y-127409774D01*
X124340226Y-127553937D01*
X124509744Y-127667205D01*
X124698102Y-127745226D01*
X124762724Y-127758080D01*
X124774188Y-127874482D01*
X124810498Y-127994180D01*
X124869463Y-128104494D01*
X124948815Y-128201185D01*
X125045506Y-128280537D01*
X125155820Y-128339502D01*
X125275518Y-128375812D01*
X125400000Y-128388072D01*
X125870375Y-128388072D01*
X125949999Y-128395914D01*
X126029623Y-128388072D01*
X126500000Y-128388072D01*
X126624482Y-128375812D01*
X126744180Y-128339502D01*
X126854494Y-128280537D01*
X126951185Y-128201185D01*
X127000000Y-128141704D01*
X127048815Y-128201185D01*
X127145506Y-128280537D01*
X127255820Y-128339502D01*
X127375518Y-128375812D01*
X127500000Y-128388072D01*
X127764250Y-128385000D01*
X127923000Y-128226250D01*
X127923000Y-127502000D01*
X128177000Y-127502000D01*
X128177000Y-128226250D01*
X128335750Y-128385000D01*
X128600000Y-128388072D01*
X128724482Y-128375812D01*
X128844180Y-128339502D01*
X128954494Y-128280537D01*
X129051185Y-128201185D01*
X129130537Y-128104494D01*
X129189502Y-127994180D01*
X129225812Y-127874482D01*
X129238072Y-127750000D01*
X129235000Y-127660750D01*
X129076250Y-127502000D01*
X128177000Y-127502000D01*
X127923000Y-127502000D01*
X127903000Y-127502000D01*
X127903000Y-127248000D01*
X127923000Y-127248000D01*
X127923000Y-126252000D01*
X128177000Y-126252000D01*
X128177000Y-127248000D01*
X129076250Y-127248000D01*
X129235000Y-127089250D01*
X129238072Y-127000000D01*
X129225812Y-126875518D01*
X129189502Y-126755820D01*
X129186391Y-126750000D01*
X129189502Y-126744180D01*
X129225812Y-126624482D01*
X129238072Y-126500000D01*
X129235000Y-126410750D01*
X129076250Y-126252000D01*
X128177000Y-126252000D01*
X127923000Y-126252000D01*
X127903000Y-126252000D01*
X127903000Y-125998000D01*
X127923000Y-125998000D01*
X127923000Y-125273750D01*
X128177000Y-125273750D01*
X128177000Y-125998000D01*
X129076250Y-125998000D01*
X129235000Y-125839250D01*
X129238072Y-125750000D01*
X129225812Y-125625518D01*
X129189502Y-125505820D01*
X129130537Y-125395506D01*
X129051185Y-125298815D01*
X128954494Y-125219463D01*
X128844180Y-125160498D01*
X128724482Y-125124188D01*
X128600000Y-125111928D01*
X128335750Y-125115000D01*
X128177000Y-125273750D01*
X127923000Y-125273750D01*
X127764250Y-125115000D01*
X127500000Y-125111928D01*
X127375518Y-125124188D01*
X127255820Y-125160498D01*
X127145506Y-125219463D01*
X127048815Y-125298815D01*
X127000000Y-125358296D01*
X126951185Y-125298815D01*
X126854494Y-125219463D01*
X126744180Y-125160498D01*
X126624482Y-125124188D01*
X126500000Y-125111928D01*
X126029623Y-125111928D01*
X125949999Y-125104086D01*
X125870375Y-125111928D01*
X125400000Y-125111928D01*
X125275518Y-125124188D01*
X125155820Y-125160498D01*
X125045506Y-125219463D01*
X124948815Y-125298815D01*
X124869463Y-125395506D01*
X124810498Y-125505820D01*
X124774188Y-125625518D01*
X124762724Y-125741920D01*
X124698102Y-125754774D01*
X124509744Y-125832795D01*
X124340226Y-125946063D01*
X124196063Y-126090226D01*
X124082795Y-126259744D01*
X124004774Y-126448102D01*
X123965000Y-126648061D01*
X115479732Y-126648061D01*
X115123223Y-126371749D01*
X113423564Y-124863914D01*
X111827572Y-123246751D01*
X110342263Y-121527368D01*
X109610626Y-120557246D01*
X111893183Y-122839803D01*
X111912190Y-122855437D01*
X111934120Y-122867222D01*
X111957928Y-122874503D01*
X111982699Y-122877000D01*
X112007480Y-122874615D01*
X112031321Y-122867442D01*
X112053304Y-122855756D01*
X112072585Y-122840006D01*
X114493921Y-120429606D01*
X116892979Y-122839598D01*
X116912429Y-122855597D01*
X116934385Y-122867333D01*
X116958210Y-122874560D01*
X116982986Y-122877000D01*
X117007762Y-122874560D01*
X117031587Y-122867333D01*
X117053543Y-122855597D01*
X117072789Y-122839803D01*
X119482986Y-120429606D01*
X121893183Y-122839803D01*
X121912429Y-122855597D01*
X121934385Y-122867333D01*
X121958210Y-122874560D01*
X121982986Y-122877000D01*
X122007762Y-122874560D01*
X122031587Y-122867333D01*
X122053543Y-122855597D01*
X122072789Y-122839803D01*
X124482986Y-120429606D01*
X126893183Y-122839803D01*
X126912190Y-122855437D01*
X126934120Y-122867222D01*
X126957928Y-122874503D01*
X126982699Y-122877000D01*
X127007480Y-122874615D01*
X127031321Y-122867442D01*
X127053304Y-122855756D01*
X127072585Y-122840006D01*
X129493921Y-120429606D01*
X131892979Y-122839598D01*
X131912429Y-122855597D01*
X131934385Y-122867333D01*
X131958210Y-122874560D01*
X131982986Y-122877000D01*
X132007762Y-122874560D01*
X132031587Y-122867333D01*
X132053543Y-122855597D01*
X132072789Y-122839803D01*
X134482986Y-120429606D01*
X136893183Y-122839803D01*
X136912429Y-122855597D01*
X136934385Y-122867333D01*
X136958210Y-122874560D01*
X136982986Y-122877000D01*
X137007762Y-122874560D01*
X137031587Y-122867333D01*
X137053543Y-122855597D01*
X137072789Y-122839803D01*
X139482986Y-120429606D01*
X141893183Y-122839803D01*
X141912190Y-122855437D01*
X141934120Y-122867222D01*
X141957928Y-122874503D01*
X141982699Y-122877000D01*
X142007480Y-122874615D01*
X142031321Y-122867442D01*
X142053304Y-122855756D01*
X142072585Y-122840006D01*
X144493921Y-120429606D01*
X146892979Y-122839598D01*
X146912429Y-122855597D01*
X146934385Y-122867333D01*
X146958210Y-122874560D01*
X146982986Y-122877000D01*
X147007762Y-122874560D01*
X147031587Y-122867333D01*
X147053543Y-122855597D01*
X147072789Y-122839803D01*
X149482986Y-120429606D01*
X151893183Y-122839803D01*
X151912429Y-122855597D01*
X151934385Y-122867333D01*
X151958210Y-122874560D01*
X151982986Y-122877000D01*
X152007762Y-122874560D01*
X152031587Y-122867333D01*
X152053543Y-122855597D01*
X152072789Y-122839803D01*
X154482986Y-120429606D01*
X156893183Y-122839803D01*
X156912190Y-122855437D01*
X156934120Y-122867222D01*
X156957928Y-122874503D01*
X156982699Y-122877000D01*
X157007480Y-122874615D01*
X157031321Y-122867442D01*
X157053304Y-122855756D01*
X157072585Y-122840006D01*
X159496967Y-120426573D01*
X161910197Y-122839803D01*
G37*
%TD.AperFunction*%
D13*
X154410197Y-82589803D02*
X154429443Y-82605597D01*
X154451399Y-82617333D01*
X154475224Y-82624560D01*
X154500000Y-82627000D01*
X154524776Y-82624560D01*
X154548601Y-82617333D01*
X154570557Y-82605597D01*
X154589803Y-82589803D01*
X157000000Y-80179606D01*
X159410197Y-82589803D01*
X159429443Y-82605597D01*
X159451399Y-82617333D01*
X159475224Y-82624560D01*
X159500000Y-82627000D01*
X159524776Y-82624560D01*
X159548601Y-82617333D01*
X159570557Y-82605597D01*
X159589803Y-82589803D01*
X162000000Y-80179606D01*
X164410197Y-82589803D01*
X164429443Y-82605597D01*
X164451399Y-82617333D01*
X164475224Y-82624560D01*
X164500000Y-82627000D01*
X164524776Y-82624560D01*
X164548601Y-82617333D01*
X164570557Y-82605597D01*
X164589803Y-82589803D01*
X165768388Y-81411218D01*
X166697162Y-82907865D01*
X167764630Y-84913581D01*
X168696830Y-86985643D01*
X169489658Y-89114933D01*
X170139624Y-91292080D01*
X170643873Y-93507517D01*
X171000188Y-95751501D01*
X171207004Y-98014175D01*
X171263407Y-100285560D01*
X171169153Y-102555700D01*
X170924654Y-104814605D01*
X170530986Y-107052337D01*
X169989882Y-109259064D01*
X169303718Y-111425077D01*
X168475512Y-113540851D01*
X167508906Y-115597090D01*
X166408155Y-117584736D01*
X165666366Y-118736760D01*
X164589803Y-117660197D01*
X164570557Y-117644403D01*
X164548601Y-117632667D01*
X164524776Y-117625440D01*
X164500000Y-117623000D01*
X164475224Y-117625440D01*
X164451399Y-117632667D01*
X164429443Y-117644403D01*
X164410197Y-117660197D01*
X162000000Y-120070394D01*
X159589803Y-117660197D01*
X159570557Y-117644403D01*
X159548601Y-117632667D01*
X159524776Y-117625440D01*
X159500000Y-117623000D01*
X159491493Y-117623838D01*
X159482986Y-117623000D01*
X159458210Y-117625440D01*
X159434385Y-117632667D01*
X159412429Y-117644403D01*
X159393183Y-117660197D01*
X156982986Y-120070394D01*
X154572789Y-117660197D01*
X154553543Y-117644403D01*
X154531587Y-117632667D01*
X154507762Y-117625440D01*
X154482986Y-117623000D01*
X154458210Y-117625440D01*
X154434385Y-117632667D01*
X154412429Y-117644403D01*
X154393183Y-117660197D01*
X151982986Y-120070394D01*
X149572789Y-117660197D01*
X149553543Y-117644403D01*
X149531587Y-117632667D01*
X149507762Y-117625440D01*
X149482986Y-117623000D01*
X149458210Y-117625440D01*
X149434385Y-117632667D01*
X149412429Y-117644403D01*
X149393183Y-117660197D01*
X146982986Y-120070394D01*
X145868716Y-118956124D01*
X145867002Y-118950607D01*
X145855117Y-118928730D01*
X145839193Y-118909592D01*
X144572179Y-117659592D01*
X144553543Y-117644403D01*
X144553151Y-117644194D01*
X144552818Y-117643922D01*
X144542188Y-117638333D01*
X144531587Y-117632667D01*
X144531168Y-117632540D01*
X144530782Y-117632337D01*
X144519264Y-117628929D01*
X144507762Y-117625440D01*
X144507328Y-117625397D01*
X144506908Y-117625273D01*
X144494930Y-117624176D01*
X144482986Y-117623000D01*
X144482551Y-117623043D01*
X144482116Y-117623003D01*
X144470192Y-117624260D01*
X144458210Y-117625440D01*
X144457790Y-117625567D01*
X144457357Y-117625613D01*
X144445915Y-117629170D01*
X144434385Y-117632667D01*
X144433999Y-117632873D01*
X144433582Y-117633003D01*
X144423032Y-117638735D01*
X144412429Y-117644403D01*
X144412091Y-117644680D01*
X144411707Y-117644889D01*
X144402504Y-117652548D01*
X144393183Y-117660197D01*
X141982986Y-120070394D01*
X139572789Y-117660197D01*
X139553543Y-117644403D01*
X139531587Y-117632667D01*
X139507762Y-117625440D01*
X139482986Y-117623000D01*
X139458210Y-117625440D01*
X139434385Y-117632667D01*
X139412429Y-117644403D01*
X139393183Y-117660197D01*
X136982986Y-120070394D01*
X134572789Y-117660197D01*
X134553543Y-117644403D01*
X134531587Y-117632667D01*
X134507762Y-117625440D01*
X134482986Y-117623000D01*
X134458210Y-117625440D01*
X134434385Y-117632667D01*
X134412429Y-117644403D01*
X134393183Y-117660197D01*
X131982986Y-120070394D01*
X130868716Y-118956124D01*
X130867002Y-118950607D01*
X130855117Y-118928730D01*
X130839193Y-118909592D01*
X129572179Y-117659592D01*
X129553543Y-117644403D01*
X129553151Y-117644194D01*
X129552818Y-117643922D01*
X129542188Y-117638333D01*
X129531587Y-117632667D01*
X129531168Y-117632540D01*
X129530782Y-117632337D01*
X129519264Y-117628929D01*
X129507762Y-117625440D01*
X129507328Y-117625397D01*
X129506908Y-117625273D01*
X129494930Y-117624176D01*
X129482986Y-117623000D01*
X129482551Y-117623043D01*
X129482116Y-117623003D01*
X129470192Y-117624260D01*
X129458210Y-117625440D01*
X129457790Y-117625567D01*
X129457357Y-117625613D01*
X129445915Y-117629170D01*
X129434385Y-117632667D01*
X129433999Y-117632873D01*
X129433582Y-117633003D01*
X129423032Y-117638735D01*
X129412429Y-117644403D01*
X129412091Y-117644680D01*
X129411707Y-117644889D01*
X129402504Y-117652548D01*
X129393183Y-117660197D01*
X126982986Y-120070394D01*
X124572789Y-117660197D01*
X124553543Y-117644403D01*
X124531587Y-117632667D01*
X124507762Y-117625440D01*
X124482986Y-117623000D01*
X124458210Y-117625440D01*
X124434385Y-117632667D01*
X124412429Y-117644403D01*
X124393183Y-117660197D01*
X121982986Y-120070394D01*
X119572789Y-117660197D01*
X119553543Y-117644403D01*
X119531587Y-117632667D01*
X119507762Y-117625440D01*
X119482986Y-117623000D01*
X119458210Y-117625440D01*
X119434385Y-117632667D01*
X119412429Y-117644403D01*
X119393183Y-117660197D01*
X116982986Y-120070394D01*
X115868716Y-118956124D01*
X115867002Y-118950607D01*
X115855117Y-118928730D01*
X115839193Y-118909592D01*
X114572179Y-117659592D01*
X114553543Y-117644403D01*
X114553151Y-117644194D01*
X114552818Y-117643922D01*
X114542188Y-117638333D01*
X114531587Y-117632667D01*
X114531168Y-117632540D01*
X114530782Y-117632337D01*
X114519264Y-117628929D01*
X114507762Y-117625440D01*
X114507328Y-117625397D01*
X114506908Y-117625273D01*
X114494930Y-117624176D01*
X114482986Y-117623000D01*
X114482551Y-117623043D01*
X114482116Y-117623003D01*
X114470192Y-117624260D01*
X114458210Y-117625440D01*
X114457790Y-117625567D01*
X114457357Y-117625613D01*
X114445915Y-117629170D01*
X114434385Y-117632667D01*
X114433999Y-117632873D01*
X114433582Y-117633003D01*
X114423032Y-117638735D01*
X114412429Y-117644403D01*
X114412091Y-117644680D01*
X114411707Y-117644889D01*
X114402504Y-117652548D01*
X114393183Y-117660197D01*
X111982986Y-120070394D01*
X109572789Y-117660197D01*
X109553543Y-117644403D01*
X109531587Y-117632667D01*
X109507762Y-117625440D01*
X109482986Y-117623000D01*
X109458210Y-117625440D01*
X109434385Y-117632667D01*
X109412429Y-117644403D01*
X109393183Y-117660197D01*
X108327468Y-118725912D01*
X107729304Y-117812605D01*
X106613144Y-115833557D01*
X106164478Y-114898061D01*
X113965000Y-114898061D01*
X113965000Y-115101939D01*
X114004774Y-115301898D01*
X114082795Y-115490256D01*
X114196063Y-115659774D01*
X114340226Y-115803937D01*
X114509744Y-115917205D01*
X114698102Y-115995226D01*
X114762724Y-116008080D01*
X114774188Y-116124482D01*
X114810498Y-116244180D01*
X114869463Y-116354494D01*
X114948815Y-116451185D01*
X115045506Y-116530537D01*
X115155820Y-116589502D01*
X115275518Y-116625812D01*
X115400000Y-116638072D01*
X115870375Y-116638072D01*
X115949999Y-116645914D01*
X116029623Y-116638072D01*
X116500000Y-116638072D01*
X116624482Y-116625812D01*
X116744180Y-116589502D01*
X116854494Y-116530537D01*
X116951185Y-116451185D01*
X117000000Y-116391704D01*
X117048815Y-116451185D01*
X117145506Y-116530537D01*
X117255820Y-116589502D01*
X117375518Y-116625812D01*
X117500000Y-116638072D01*
X117764250Y-116635000D01*
X117923000Y-116476250D01*
X117923000Y-115752000D01*
X118177000Y-115752000D01*
X118177000Y-116476250D01*
X118335750Y-116635000D01*
X118600000Y-116638072D01*
X118724482Y-116625812D01*
X118844180Y-116589502D01*
X118954494Y-116530537D01*
X119051185Y-116451185D01*
X119130537Y-116354494D01*
X119189502Y-116244180D01*
X119225812Y-116124482D01*
X119238072Y-116000000D01*
X119235000Y-115910750D01*
X119076250Y-115752000D01*
X118177000Y-115752000D01*
X117923000Y-115752000D01*
X117903000Y-115752000D01*
X117903000Y-115498000D01*
X117923000Y-115498000D01*
X117923000Y-114502000D01*
X118177000Y-114502000D01*
X118177000Y-115498000D01*
X119076250Y-115498000D01*
X119235000Y-115339250D01*
X119238072Y-115250000D01*
X119225812Y-115125518D01*
X119189502Y-115005820D01*
X119186391Y-115000000D01*
X119189502Y-114994180D01*
X119225812Y-114874482D01*
X119238072Y-114750000D01*
X119235000Y-114660750D01*
X119076250Y-114502000D01*
X118177000Y-114502000D01*
X117923000Y-114502000D01*
X117903000Y-114502000D01*
X117903000Y-114248000D01*
X117923000Y-114248000D01*
X117923000Y-113523750D01*
X118177000Y-113523750D01*
X118177000Y-114248000D01*
X119076250Y-114248000D01*
X119235000Y-114089250D01*
X119238072Y-114000000D01*
X119225812Y-113875518D01*
X119189502Y-113755820D01*
X119130537Y-113645506D01*
X119051185Y-113548815D01*
X118954494Y-113469463D01*
X118844180Y-113410498D01*
X118724482Y-113374188D01*
X118600000Y-113361928D01*
X118335750Y-113365000D01*
X118177000Y-113523750D01*
X117923000Y-113523750D01*
X117764250Y-113365000D01*
X117500000Y-113361928D01*
X117375518Y-113374188D01*
X117255820Y-113410498D01*
X117145506Y-113469463D01*
X117048815Y-113548815D01*
X117000000Y-113608296D01*
X116951185Y-113548815D01*
X116854494Y-113469463D01*
X116744180Y-113410498D01*
X116624482Y-113374188D01*
X116500000Y-113361928D01*
X116029623Y-113361928D01*
X115949999Y-113354086D01*
X115870375Y-113361928D01*
X115400000Y-113361928D01*
X115275518Y-113374188D01*
X115155820Y-113410498D01*
X115045506Y-113469463D01*
X114948815Y-113548815D01*
X114869463Y-113645506D01*
X114810498Y-113755820D01*
X114774188Y-113875518D01*
X114762724Y-113991920D01*
X114698102Y-114004774D01*
X114509744Y-114082795D01*
X114340226Y-114196063D01*
X114196063Y-114340226D01*
X114082795Y-114509744D01*
X114004774Y-114698102D01*
X113965000Y-114898061D01*
X106164478Y-114898061D01*
X105630601Y-113784897D01*
X104785986Y-111675609D01*
X104451670Y-110648061D01*
X156215000Y-110648061D01*
X156215000Y-110851939D01*
X156254774Y-111051898D01*
X156332795Y-111240256D01*
X156446063Y-111409774D01*
X156590226Y-111553937D01*
X156759744Y-111667205D01*
X156948102Y-111745226D01*
X157012724Y-111758080D01*
X157024188Y-111874482D01*
X157060498Y-111994180D01*
X157119463Y-112104494D01*
X157198815Y-112201185D01*
X157295506Y-112280537D01*
X157405820Y-112339502D01*
X157525518Y-112375812D01*
X157650000Y-112388072D01*
X158120375Y-112388072D01*
X158199999Y-112395914D01*
X158279623Y-112388072D01*
X158750000Y-112388072D01*
X158874482Y-112375812D01*
X158994180Y-112339502D01*
X159104494Y-112280537D01*
X159201185Y-112201185D01*
X159250000Y-112141704D01*
X159298815Y-112201185D01*
X159395506Y-112280537D01*
X159505820Y-112339502D01*
X159625518Y-112375812D01*
X159750000Y-112388072D01*
X160014250Y-112385000D01*
X160173000Y-112226250D01*
X160173000Y-111502000D01*
X160427000Y-111502000D01*
X160427000Y-112226250D01*
X160585750Y-112385000D01*
X160850000Y-112388072D01*
X160974482Y-112375812D01*
X161094180Y-112339502D01*
X161204494Y-112280537D01*
X161301185Y-112201185D01*
X161380537Y-112104494D01*
X161439502Y-111994180D01*
X161475812Y-111874482D01*
X161488072Y-111750000D01*
X161485000Y-111660750D01*
X161326250Y-111502000D01*
X160427000Y-111502000D01*
X160173000Y-111502000D01*
X160153000Y-111502000D01*
X160153000Y-111248000D01*
X160173000Y-111248000D01*
X160173000Y-110252000D01*
X160427000Y-110252000D01*
X160427000Y-111248000D01*
X161326250Y-111248000D01*
X161485000Y-111089250D01*
X161488072Y-111000000D01*
X161475812Y-110875518D01*
X161439502Y-110755820D01*
X161436391Y-110750000D01*
X161439502Y-110744180D01*
X161475812Y-110624482D01*
X161488072Y-110500000D01*
X161485000Y-110410750D01*
X161326250Y-110252000D01*
X160427000Y-110252000D01*
X160173000Y-110252000D01*
X160153000Y-110252000D01*
X160153000Y-109998000D01*
X160173000Y-109998000D01*
X160173000Y-109273750D01*
X160427000Y-109273750D01*
X160427000Y-109998000D01*
X161326250Y-109998000D01*
X161485000Y-109839250D01*
X161488072Y-109750000D01*
X161475812Y-109625518D01*
X161439502Y-109505820D01*
X161380537Y-109395506D01*
X161301185Y-109298815D01*
X161204494Y-109219463D01*
X161094180Y-109160498D01*
X160974482Y-109124188D01*
X160850000Y-109111928D01*
X160585750Y-109115000D01*
X160427000Y-109273750D01*
X160173000Y-109273750D01*
X160014250Y-109115000D01*
X159750000Y-109111928D01*
X159625518Y-109124188D01*
X159505820Y-109160498D01*
X159395506Y-109219463D01*
X159298815Y-109298815D01*
X159250000Y-109358296D01*
X159201185Y-109298815D01*
X159104494Y-109219463D01*
X158994180Y-109160498D01*
X158874482Y-109124188D01*
X158750000Y-109111928D01*
X158279623Y-109111928D01*
X158199999Y-109104086D01*
X158120375Y-109111928D01*
X157650000Y-109111928D01*
X157525518Y-109124188D01*
X157405820Y-109160498D01*
X157295506Y-109219463D01*
X157198815Y-109298815D01*
X157119463Y-109395506D01*
X157060498Y-109505820D01*
X157024188Y-109625518D01*
X157012724Y-109741920D01*
X156948102Y-109754774D01*
X156759744Y-109832795D01*
X156590226Y-109946063D01*
X156446063Y-110090226D01*
X156332795Y-110259744D01*
X156254774Y-110448102D01*
X156215000Y-110648061D01*
X104451670Y-110648061D01*
X104083026Y-109515005D01*
X103926658Y-108898061D01*
X127715000Y-108898061D01*
X127715000Y-109101939D01*
X127754774Y-109301898D01*
X127832795Y-109490256D01*
X127946063Y-109659774D01*
X128090226Y-109803937D01*
X128259744Y-109917205D01*
X128448102Y-109995226D01*
X128512724Y-110008080D01*
X128524188Y-110124482D01*
X128560498Y-110244180D01*
X128619463Y-110354494D01*
X128698815Y-110451185D01*
X128795506Y-110530537D01*
X128905820Y-110589502D01*
X129025518Y-110625812D01*
X129150000Y-110638072D01*
X129620375Y-110638072D01*
X129699999Y-110645914D01*
X129779623Y-110638072D01*
X130250000Y-110638072D01*
X130374482Y-110625812D01*
X130494180Y-110589502D01*
X130604494Y-110530537D01*
X130701185Y-110451185D01*
X130750000Y-110391704D01*
X130798815Y-110451185D01*
X130895506Y-110530537D01*
X131005820Y-110589502D01*
X131125518Y-110625812D01*
X131250000Y-110638072D01*
X131514250Y-110635000D01*
X131673000Y-110476250D01*
X131673000Y-109752000D01*
X131927000Y-109752000D01*
X131927000Y-110476250D01*
X132085750Y-110635000D01*
X132350000Y-110638072D01*
X132474482Y-110625812D01*
X132594180Y-110589502D01*
X132704494Y-110530537D01*
X132801185Y-110451185D01*
X132880537Y-110354494D01*
X132939502Y-110244180D01*
X132975812Y-110124482D01*
X132988072Y-110000000D01*
X132985000Y-109910750D01*
X132826250Y-109752000D01*
X131927000Y-109752000D01*
X131673000Y-109752000D01*
X131653000Y-109752000D01*
X131653000Y-109498000D01*
X131673000Y-109498000D01*
X131673000Y-108502000D01*
X131927000Y-108502000D01*
X131927000Y-109498000D01*
X132826250Y-109498000D01*
X132985000Y-109339250D01*
X132988072Y-109250000D01*
X132975812Y-109125518D01*
X132939502Y-109005820D01*
X132936391Y-109000000D01*
X132939502Y-108994180D01*
X132975812Y-108874482D01*
X132988072Y-108750000D01*
X132985000Y-108660750D01*
X132826250Y-108502000D01*
X131927000Y-108502000D01*
X131673000Y-108502000D01*
X131653000Y-108502000D01*
X131653000Y-108248000D01*
X131673000Y-108248000D01*
X131673000Y-107523750D01*
X131927000Y-107523750D01*
X131927000Y-108248000D01*
X132826250Y-108248000D01*
X132985000Y-108089250D01*
X132988072Y-108000000D01*
X132975812Y-107875518D01*
X132939502Y-107755820D01*
X132880537Y-107645506D01*
X132801185Y-107548815D01*
X132704494Y-107469463D01*
X132594180Y-107410498D01*
X132474482Y-107374188D01*
X132350000Y-107361928D01*
X132085750Y-107365000D01*
X131927000Y-107523750D01*
X131673000Y-107523750D01*
X131514250Y-107365000D01*
X131250000Y-107361928D01*
X131125518Y-107374188D01*
X131005820Y-107410498D01*
X130895506Y-107469463D01*
X130798815Y-107548815D01*
X130750000Y-107608296D01*
X130701185Y-107548815D01*
X130604494Y-107469463D01*
X130494180Y-107410498D01*
X130374482Y-107374188D01*
X130250000Y-107361928D01*
X129779623Y-107361928D01*
X129699999Y-107354086D01*
X129620375Y-107361928D01*
X129150000Y-107361928D01*
X129025518Y-107374188D01*
X128905820Y-107410498D01*
X128795506Y-107469463D01*
X128698815Y-107548815D01*
X128619463Y-107645506D01*
X128560498Y-107755820D01*
X128524188Y-107875518D01*
X128512724Y-107991920D01*
X128448102Y-108004774D01*
X128259744Y-108082795D01*
X128090226Y-108196063D01*
X127946063Y-108340226D01*
X127832795Y-108509744D01*
X127754774Y-108698102D01*
X127715000Y-108898061D01*
X103926658Y-108898061D01*
X103524797Y-107312547D01*
X103113763Y-105077935D01*
X102860675Y-102898061D01*
X142965000Y-102898061D01*
X142965000Y-103101939D01*
X143004774Y-103301898D01*
X143082795Y-103490256D01*
X143196063Y-103659774D01*
X143340226Y-103803937D01*
X143509744Y-103917205D01*
X143698102Y-103995226D01*
X143762724Y-104008080D01*
X143774188Y-104124482D01*
X143810498Y-104244180D01*
X143869463Y-104354494D01*
X143948815Y-104451185D01*
X144045506Y-104530537D01*
X144155820Y-104589502D01*
X144275518Y-104625812D01*
X144400000Y-104638072D01*
X144870375Y-104638072D01*
X144949999Y-104645914D01*
X145029623Y-104638072D01*
X145500000Y-104638072D01*
X145624482Y-104625812D01*
X145744180Y-104589502D01*
X145854494Y-104530537D01*
X145951185Y-104451185D01*
X146000000Y-104391704D01*
X146048815Y-104451185D01*
X146145506Y-104530537D01*
X146255820Y-104589502D01*
X146375518Y-104625812D01*
X146500000Y-104638072D01*
X146764250Y-104635000D01*
X146923000Y-104476250D01*
X146923000Y-103752000D01*
X147177000Y-103752000D01*
X147177000Y-104476250D01*
X147335750Y-104635000D01*
X147600000Y-104638072D01*
X147724482Y-104625812D01*
X147844180Y-104589502D01*
X147954494Y-104530537D01*
X148051185Y-104451185D01*
X148130537Y-104354494D01*
X148189502Y-104244180D01*
X148225812Y-104124482D01*
X148238072Y-104000000D01*
X148235000Y-103910750D01*
X148076250Y-103752000D01*
X147177000Y-103752000D01*
X146923000Y-103752000D01*
X146903000Y-103752000D01*
X146903000Y-103498000D01*
X146923000Y-103498000D01*
X146923000Y-102502000D01*
X147177000Y-102502000D01*
X147177000Y-103498000D01*
X148076250Y-103498000D01*
X148235000Y-103339250D01*
X148238072Y-103250000D01*
X148225812Y-103125518D01*
X148189502Y-103005820D01*
X148186391Y-103000000D01*
X148189502Y-102994180D01*
X148225812Y-102874482D01*
X148238072Y-102750000D01*
X148235000Y-102660750D01*
X148076250Y-102502000D01*
X147177000Y-102502000D01*
X146923000Y-102502000D01*
X146903000Y-102502000D01*
X146903000Y-102248000D01*
X146923000Y-102248000D01*
X146923000Y-101523750D01*
X147177000Y-101523750D01*
X147177000Y-102248000D01*
X148076250Y-102248000D01*
X148235000Y-102089250D01*
X148238072Y-102000000D01*
X148225812Y-101875518D01*
X148189502Y-101755820D01*
X148130537Y-101645506D01*
X148051185Y-101548815D01*
X147954494Y-101469463D01*
X147844180Y-101410498D01*
X147724482Y-101374188D01*
X147600000Y-101361928D01*
X147335750Y-101365000D01*
X147177000Y-101523750D01*
X146923000Y-101523750D01*
X146764250Y-101365000D01*
X146500000Y-101361928D01*
X146375518Y-101374188D01*
X146255820Y-101410498D01*
X146145506Y-101469463D01*
X146048815Y-101548815D01*
X146000000Y-101608296D01*
X145951185Y-101548815D01*
X145854494Y-101469463D01*
X145744180Y-101410498D01*
X145624482Y-101374188D01*
X145500000Y-101361928D01*
X145029623Y-101361928D01*
X144949999Y-101354086D01*
X144870375Y-101361928D01*
X144400000Y-101361928D01*
X144275518Y-101374188D01*
X144155820Y-101410498D01*
X144045506Y-101469463D01*
X143948815Y-101548815D01*
X143869463Y-101645506D01*
X143810498Y-101755820D01*
X143774188Y-101875518D01*
X143762724Y-101991920D01*
X143698102Y-102004774D01*
X143509744Y-102082795D01*
X143340226Y-102196063D01*
X143196063Y-102340226D01*
X143082795Y-102509744D01*
X143004774Y-102698102D01*
X142965000Y-102898061D01*
X102860675Y-102898061D01*
X102851726Y-102820985D01*
X102769006Y-101143137D01*
X103085000Y-101143137D01*
X103085000Y-101356863D01*
X103126696Y-101566483D01*
X103208485Y-101763940D01*
X103327225Y-101941647D01*
X103478353Y-102092775D01*
X103656060Y-102211515D01*
X103853517Y-102293304D01*
X104063137Y-102335000D01*
X104276863Y-102335000D01*
X104486483Y-102293304D01*
X104683940Y-102211515D01*
X104861647Y-102092775D01*
X105012775Y-101941647D01*
X105131515Y-101763940D01*
X105213304Y-101566483D01*
X105255000Y-101356863D01*
X105255000Y-101148061D01*
X113215000Y-101148061D01*
X113215000Y-101351939D01*
X113254774Y-101551898D01*
X113332795Y-101740256D01*
X113446063Y-101909774D01*
X113590226Y-102053937D01*
X113759744Y-102167205D01*
X113948102Y-102245226D01*
X114012724Y-102258080D01*
X114024188Y-102374482D01*
X114060498Y-102494180D01*
X114119463Y-102604494D01*
X114198815Y-102701185D01*
X114295506Y-102780537D01*
X114405820Y-102839502D01*
X114525518Y-102875812D01*
X114650000Y-102888072D01*
X115120375Y-102888072D01*
X115199999Y-102895914D01*
X115279623Y-102888072D01*
X115750000Y-102888072D01*
X115874482Y-102875812D01*
X115994180Y-102839502D01*
X116104494Y-102780537D01*
X116201185Y-102701185D01*
X116250000Y-102641704D01*
X116298815Y-102701185D01*
X116395506Y-102780537D01*
X116505820Y-102839502D01*
X116625518Y-102875812D01*
X116750000Y-102888072D01*
X117014250Y-102885000D01*
X117173000Y-102726250D01*
X117173000Y-102002000D01*
X117427000Y-102002000D01*
X117427000Y-102726250D01*
X117585750Y-102885000D01*
X117850000Y-102888072D01*
X117974482Y-102875812D01*
X118094180Y-102839502D01*
X118204494Y-102780537D01*
X118301185Y-102701185D01*
X118380537Y-102604494D01*
X118439502Y-102494180D01*
X118475812Y-102374482D01*
X118488072Y-102250000D01*
X118485000Y-102160750D01*
X118326250Y-102002000D01*
X117427000Y-102002000D01*
X117173000Y-102002000D01*
X117153000Y-102002000D01*
X117153000Y-101748000D01*
X117173000Y-101748000D01*
X117173000Y-100752000D01*
X117427000Y-100752000D01*
X117427000Y-101748000D01*
X118326250Y-101748000D01*
X118485000Y-101589250D01*
X118488072Y-101500000D01*
X118475812Y-101375518D01*
X118439502Y-101255820D01*
X118436391Y-101250000D01*
X118439502Y-101244180D01*
X118475812Y-101124482D01*
X118488072Y-101000000D01*
X118485000Y-100910750D01*
X118326250Y-100752000D01*
X117427000Y-100752000D01*
X117173000Y-100752000D01*
X117153000Y-100752000D01*
X117153000Y-100498000D01*
X117173000Y-100498000D01*
X117173000Y-99773750D01*
X117427000Y-99773750D01*
X117427000Y-100498000D01*
X118326250Y-100498000D01*
X118485000Y-100339250D01*
X118488072Y-100250000D01*
X118475812Y-100125518D01*
X118439502Y-100005820D01*
X118380537Y-99895506D01*
X118301185Y-99798815D01*
X118204494Y-99719463D01*
X118094180Y-99660498D01*
X117974482Y-99624188D01*
X117850000Y-99611928D01*
X117585750Y-99615000D01*
X117427000Y-99773750D01*
X117173000Y-99773750D01*
X117014250Y-99615000D01*
X116750000Y-99611928D01*
X116625518Y-99624188D01*
X116505820Y-99660498D01*
X116395506Y-99719463D01*
X116298815Y-99798815D01*
X116250000Y-99858296D01*
X116201185Y-99798815D01*
X116104494Y-99719463D01*
X115994180Y-99660498D01*
X115874482Y-99624188D01*
X115750000Y-99611928D01*
X115279623Y-99611928D01*
X115199999Y-99604086D01*
X115120375Y-99611928D01*
X114650000Y-99611928D01*
X114525518Y-99624188D01*
X114405820Y-99660498D01*
X114295506Y-99719463D01*
X114198815Y-99798815D01*
X114119463Y-99895506D01*
X114060498Y-100005820D01*
X114024188Y-100125518D01*
X114012724Y-100241920D01*
X113948102Y-100254774D01*
X113759744Y-100332795D01*
X113590226Y-100446063D01*
X113446063Y-100590226D01*
X113332795Y-100759744D01*
X113254774Y-100948102D01*
X113215000Y-101148061D01*
X105255000Y-101148061D01*
X105255000Y-101143137D01*
X105213304Y-100933517D01*
X105131515Y-100736060D01*
X105012775Y-100558353D01*
X104861647Y-100407225D01*
X104683940Y-100288485D01*
X104486483Y-100206696D01*
X104276863Y-100165000D01*
X104063137Y-100165000D01*
X103853517Y-100206696D01*
X103656060Y-100288485D01*
X103478353Y-100407225D01*
X103327225Y-100558353D01*
X103208485Y-100736060D01*
X103126696Y-100933517D01*
X103085000Y-101143137D01*
X102769006Y-101143137D01*
X102739845Y-100551658D01*
X102778607Y-98279882D01*
X102790035Y-98143137D01*
X103085000Y-98143137D01*
X103085000Y-98356863D01*
X103126696Y-98566483D01*
X103208485Y-98763940D01*
X103327225Y-98941647D01*
X103478353Y-99092775D01*
X103656060Y-99211515D01*
X103853517Y-99293304D01*
X104063137Y-99335000D01*
X104276863Y-99335000D01*
X104486483Y-99293304D01*
X104683940Y-99211515D01*
X104861647Y-99092775D01*
X105012775Y-98941647D01*
X105131515Y-98763940D01*
X105213304Y-98566483D01*
X105255000Y-98356863D01*
X105255000Y-98143137D01*
X105213304Y-97933517D01*
X105131515Y-97736060D01*
X105012775Y-97558353D01*
X104861647Y-97407225D01*
X104683940Y-97288485D01*
X104486483Y-97206696D01*
X104276863Y-97165000D01*
X104063137Y-97165000D01*
X103853517Y-97206696D01*
X103656060Y-97288485D01*
X103478353Y-97407225D01*
X103327225Y-97558353D01*
X103208485Y-97736060D01*
X103126696Y-97933517D01*
X103085000Y-98143137D01*
X102790035Y-98143137D01*
X102967842Y-96015687D01*
X103306719Y-93768999D01*
X103793749Y-91549706D01*
X104426782Y-89367594D01*
X105142758Y-87398061D01*
X108715000Y-87398061D01*
X108715000Y-87601939D01*
X108754774Y-87801898D01*
X108832795Y-87990256D01*
X108946063Y-88159774D01*
X109090226Y-88303937D01*
X109259744Y-88417205D01*
X109448102Y-88495226D01*
X109512724Y-88508080D01*
X109524188Y-88624482D01*
X109560498Y-88744180D01*
X109619463Y-88854494D01*
X109698815Y-88951185D01*
X109795506Y-89030537D01*
X109905820Y-89089502D01*
X110025518Y-89125812D01*
X110150000Y-89138072D01*
X110620375Y-89138072D01*
X110699999Y-89145914D01*
X110779623Y-89138072D01*
X111250000Y-89138072D01*
X111374482Y-89125812D01*
X111494180Y-89089502D01*
X111604494Y-89030537D01*
X111701185Y-88951185D01*
X111750000Y-88891704D01*
X111798815Y-88951185D01*
X111895506Y-89030537D01*
X112005820Y-89089502D01*
X112125518Y-89125812D01*
X112250000Y-89138072D01*
X112514250Y-89135000D01*
X112673000Y-88976250D01*
X112673000Y-88252000D01*
X112927000Y-88252000D01*
X112927000Y-88976250D01*
X113085750Y-89135000D01*
X113350000Y-89138072D01*
X113474482Y-89125812D01*
X113594180Y-89089502D01*
X113704494Y-89030537D01*
X113801185Y-88951185D01*
X113880537Y-88854494D01*
X113939502Y-88744180D01*
X113975812Y-88624482D01*
X113988072Y-88500000D01*
X113985000Y-88410750D01*
X113826250Y-88252000D01*
X112927000Y-88252000D01*
X112673000Y-88252000D01*
X112653000Y-88252000D01*
X112653000Y-87998000D01*
X112673000Y-87998000D01*
X112673000Y-87002000D01*
X112927000Y-87002000D01*
X112927000Y-87998000D01*
X113826250Y-87998000D01*
X113985000Y-87839250D01*
X113988072Y-87750000D01*
X113975812Y-87625518D01*
X113939502Y-87505820D01*
X113936391Y-87500000D01*
X113939502Y-87494180D01*
X113975812Y-87374482D01*
X113988072Y-87250000D01*
X113985000Y-87160750D01*
X113826250Y-87002000D01*
X112927000Y-87002000D01*
X112673000Y-87002000D01*
X112653000Y-87002000D01*
X112653000Y-86748000D01*
X112673000Y-86748000D01*
X112673000Y-86023750D01*
X112927000Y-86023750D01*
X112927000Y-86748000D01*
X113826250Y-86748000D01*
X113985000Y-86589250D01*
X113988072Y-86500000D01*
X113975812Y-86375518D01*
X113939502Y-86255820D01*
X113880537Y-86145506D01*
X113801185Y-86048815D01*
X113704494Y-85969463D01*
X113594180Y-85910498D01*
X113474482Y-85874188D01*
X113350000Y-85861928D01*
X113085750Y-85865000D01*
X112927000Y-86023750D01*
X112673000Y-86023750D01*
X112514250Y-85865000D01*
X112250000Y-85861928D01*
X112125518Y-85874188D01*
X112005820Y-85910498D01*
X111895506Y-85969463D01*
X111798815Y-86048815D01*
X111750000Y-86108296D01*
X111701185Y-86048815D01*
X111604494Y-85969463D01*
X111494180Y-85910498D01*
X111374482Y-85874188D01*
X111250000Y-85861928D01*
X110779623Y-85861928D01*
X110699999Y-85854086D01*
X110620375Y-85861928D01*
X110150000Y-85861928D01*
X110025518Y-85874188D01*
X109905820Y-85910498D01*
X109795506Y-85969463D01*
X109698815Y-86048815D01*
X109619463Y-86145506D01*
X109560498Y-86255820D01*
X109524188Y-86375518D01*
X109512724Y-86491920D01*
X109448102Y-86504774D01*
X109259744Y-86582795D01*
X109090226Y-86696063D01*
X108946063Y-86840226D01*
X108832795Y-87009744D01*
X108754774Y-87198102D01*
X108715000Y-87398061D01*
X105142758Y-87398061D01*
X105203052Y-87232203D01*
X106119133Y-85152960D01*
X107170992Y-83139015D01*
X108222902Y-81414188D01*
X109392979Y-82589598D01*
X109412429Y-82605597D01*
X109434385Y-82617333D01*
X109458210Y-82624560D01*
X109482986Y-82627000D01*
X109507762Y-82624560D01*
X109531587Y-82617333D01*
X109553543Y-82605597D01*
X109572789Y-82589803D01*
X111982986Y-80179606D01*
X114393183Y-82589803D01*
X114412429Y-82605597D01*
X114434385Y-82617333D01*
X114458210Y-82624560D01*
X114482986Y-82627000D01*
X114507762Y-82624560D01*
X114531587Y-82617333D01*
X114553543Y-82605597D01*
X114572789Y-82589803D01*
X116982986Y-80179606D01*
X119393183Y-82589803D01*
X119412190Y-82605437D01*
X119434120Y-82617222D01*
X119457928Y-82624503D01*
X119482699Y-82627000D01*
X119507480Y-82624615D01*
X119531321Y-82617442D01*
X119553304Y-82605756D01*
X119572585Y-82590006D01*
X121993921Y-80179606D01*
X124392979Y-82589598D01*
X124412429Y-82605597D01*
X124434385Y-82617333D01*
X124458210Y-82624560D01*
X124482986Y-82627000D01*
X124507762Y-82624560D01*
X124531587Y-82617333D01*
X124553543Y-82605597D01*
X124572789Y-82589803D01*
X126982986Y-80179606D01*
X129393183Y-82589803D01*
X129412429Y-82605597D01*
X129434385Y-82617333D01*
X129458210Y-82624560D01*
X129482986Y-82627000D01*
X129507762Y-82624560D01*
X129531587Y-82617333D01*
X129553543Y-82605597D01*
X129572789Y-82589803D01*
X131982986Y-80179606D01*
X134393183Y-82589803D01*
X134412190Y-82605437D01*
X134434120Y-82617222D01*
X134457928Y-82624503D01*
X134482699Y-82627000D01*
X134507480Y-82624615D01*
X134531321Y-82617442D01*
X134553304Y-82605756D01*
X134572585Y-82590006D01*
X136993921Y-80179606D01*
X139392979Y-82589598D01*
X139412429Y-82605597D01*
X139434385Y-82617333D01*
X139458210Y-82624560D01*
X139482986Y-82627000D01*
X139507762Y-82624560D01*
X139531587Y-82617333D01*
X139553543Y-82605597D01*
X139572789Y-82589803D01*
X141982986Y-80179606D01*
X144393183Y-82589803D01*
X144412429Y-82605597D01*
X144434385Y-82617333D01*
X144458210Y-82624560D01*
X144482986Y-82627000D01*
X144507762Y-82624560D01*
X144531587Y-82617333D01*
X144553543Y-82605597D01*
X144572789Y-82589803D01*
X146982986Y-80179606D01*
X149393183Y-82589803D01*
X149412190Y-82605437D01*
X149434120Y-82617222D01*
X149457928Y-82624503D01*
X149482699Y-82627000D01*
X149507480Y-82624615D01*
X149531321Y-82617442D01*
X149553304Y-82605756D01*
X149572585Y-82590006D01*
X151996967Y-80176573D01*
X154410197Y-82589803D01*
%TA.AperFunction,Conductor*%
D14*
G36*
X154410197Y-82589803D02*
G01*
X154429443Y-82605597D01*
X154451399Y-82617333D01*
X154475224Y-82624560D01*
X154500000Y-82627000D01*
X154524776Y-82624560D01*
X154548601Y-82617333D01*
X154570557Y-82605597D01*
X154589803Y-82589803D01*
X157000000Y-80179606D01*
X159410197Y-82589803D01*
X159429443Y-82605597D01*
X159451399Y-82617333D01*
X159475224Y-82624560D01*
X159500000Y-82627000D01*
X159524776Y-82624560D01*
X159548601Y-82617333D01*
X159570557Y-82605597D01*
X159589803Y-82589803D01*
X162000000Y-80179606D01*
X164410197Y-82589803D01*
X164429443Y-82605597D01*
X164451399Y-82617333D01*
X164475224Y-82624560D01*
X164500000Y-82627000D01*
X164524776Y-82624560D01*
X164548601Y-82617333D01*
X164570557Y-82605597D01*
X164589803Y-82589803D01*
X165768388Y-81411218D01*
X166697162Y-82907865D01*
X167764630Y-84913581D01*
X168696830Y-86985643D01*
X169489658Y-89114933D01*
X170139624Y-91292080D01*
X170643873Y-93507517D01*
X171000188Y-95751501D01*
X171207004Y-98014175D01*
X171263407Y-100285560D01*
X171169153Y-102555700D01*
X170924654Y-104814605D01*
X170530986Y-107052337D01*
X169989882Y-109259064D01*
X169303718Y-111425077D01*
X168475512Y-113540851D01*
X167508906Y-115597090D01*
X166408155Y-117584736D01*
X165666366Y-118736760D01*
X164589803Y-117660197D01*
X164570557Y-117644403D01*
X164548601Y-117632667D01*
X164524776Y-117625440D01*
X164500000Y-117623000D01*
X164475224Y-117625440D01*
X164451399Y-117632667D01*
X164429443Y-117644403D01*
X164410197Y-117660197D01*
X162000000Y-120070394D01*
X159589803Y-117660197D01*
X159570557Y-117644403D01*
X159548601Y-117632667D01*
X159524776Y-117625440D01*
X159500000Y-117623000D01*
X159491493Y-117623838D01*
X159482986Y-117623000D01*
X159458210Y-117625440D01*
X159434385Y-117632667D01*
X159412429Y-117644403D01*
X159393183Y-117660197D01*
X156982986Y-120070394D01*
X154572789Y-117660197D01*
X154553543Y-117644403D01*
X154531587Y-117632667D01*
X154507762Y-117625440D01*
X154482986Y-117623000D01*
X154458210Y-117625440D01*
X154434385Y-117632667D01*
X154412429Y-117644403D01*
X154393183Y-117660197D01*
X151982986Y-120070394D01*
X149572789Y-117660197D01*
X149553543Y-117644403D01*
X149531587Y-117632667D01*
X149507762Y-117625440D01*
X149482986Y-117623000D01*
X149458210Y-117625440D01*
X149434385Y-117632667D01*
X149412429Y-117644403D01*
X149393183Y-117660197D01*
X146982986Y-120070394D01*
X145868716Y-118956124D01*
X145867002Y-118950607D01*
X145855117Y-118928730D01*
X145839193Y-118909592D01*
X144572179Y-117659592D01*
X144553543Y-117644403D01*
X144553151Y-117644194D01*
X144552818Y-117643922D01*
X144542188Y-117638333D01*
X144531587Y-117632667D01*
X144531168Y-117632540D01*
X144530782Y-117632337D01*
X144519264Y-117628929D01*
X144507762Y-117625440D01*
X144507328Y-117625397D01*
X144506908Y-117625273D01*
X144494930Y-117624176D01*
X144482986Y-117623000D01*
X144482551Y-117623043D01*
X144482116Y-117623003D01*
X144470192Y-117624260D01*
X144458210Y-117625440D01*
X144457790Y-117625567D01*
X144457357Y-117625613D01*
X144445915Y-117629170D01*
X144434385Y-117632667D01*
X144433999Y-117632873D01*
X144433582Y-117633003D01*
X144423032Y-117638735D01*
X144412429Y-117644403D01*
X144412091Y-117644680D01*
X144411707Y-117644889D01*
X144402504Y-117652548D01*
X144393183Y-117660197D01*
X141982986Y-120070394D01*
X139572789Y-117660197D01*
X139553543Y-117644403D01*
X139531587Y-117632667D01*
X139507762Y-117625440D01*
X139482986Y-117623000D01*
X139458210Y-117625440D01*
X139434385Y-117632667D01*
X139412429Y-117644403D01*
X139393183Y-117660197D01*
X136982986Y-120070394D01*
X134572789Y-117660197D01*
X134553543Y-117644403D01*
X134531587Y-117632667D01*
X134507762Y-117625440D01*
X134482986Y-117623000D01*
X134458210Y-117625440D01*
X134434385Y-117632667D01*
X134412429Y-117644403D01*
X134393183Y-117660197D01*
X131982986Y-120070394D01*
X130868716Y-118956124D01*
X130867002Y-118950607D01*
X130855117Y-118928730D01*
X130839193Y-118909592D01*
X129572179Y-117659592D01*
X129553543Y-117644403D01*
X129553151Y-117644194D01*
X129552818Y-117643922D01*
X129542188Y-117638333D01*
X129531587Y-117632667D01*
X129531168Y-117632540D01*
X129530782Y-117632337D01*
X129519264Y-117628929D01*
X129507762Y-117625440D01*
X129507328Y-117625397D01*
X129506908Y-117625273D01*
X129494930Y-117624176D01*
X129482986Y-117623000D01*
X129482551Y-117623043D01*
X129482116Y-117623003D01*
X129470192Y-117624260D01*
X129458210Y-117625440D01*
X129457790Y-117625567D01*
X129457357Y-117625613D01*
X129445915Y-117629170D01*
X129434385Y-117632667D01*
X129433999Y-117632873D01*
X129433582Y-117633003D01*
X129423032Y-117638735D01*
X129412429Y-117644403D01*
X129412091Y-117644680D01*
X129411707Y-117644889D01*
X129402504Y-117652548D01*
X129393183Y-117660197D01*
X126982986Y-120070394D01*
X124572789Y-117660197D01*
X124553543Y-117644403D01*
X124531587Y-117632667D01*
X124507762Y-117625440D01*
X124482986Y-117623000D01*
X124458210Y-117625440D01*
X124434385Y-117632667D01*
X124412429Y-117644403D01*
X124393183Y-117660197D01*
X121982986Y-120070394D01*
X119572789Y-117660197D01*
X119553543Y-117644403D01*
X119531587Y-117632667D01*
X119507762Y-117625440D01*
X119482986Y-117623000D01*
X119458210Y-117625440D01*
X119434385Y-117632667D01*
X119412429Y-117644403D01*
X119393183Y-117660197D01*
X116982986Y-120070394D01*
X115868716Y-118956124D01*
X115867002Y-118950607D01*
X115855117Y-118928730D01*
X115839193Y-118909592D01*
X114572179Y-117659592D01*
X114553543Y-117644403D01*
X114553151Y-117644194D01*
X114552818Y-117643922D01*
X114542188Y-117638333D01*
X114531587Y-117632667D01*
X114531168Y-117632540D01*
X114530782Y-117632337D01*
X114519264Y-117628929D01*
X114507762Y-117625440D01*
X114507328Y-117625397D01*
X114506908Y-117625273D01*
X114494930Y-117624176D01*
X114482986Y-117623000D01*
X114482551Y-117623043D01*
X114482116Y-117623003D01*
X114470192Y-117624260D01*
X114458210Y-117625440D01*
X114457790Y-117625567D01*
X114457357Y-117625613D01*
X114445915Y-117629170D01*
X114434385Y-117632667D01*
X114433999Y-117632873D01*
X114433582Y-117633003D01*
X114423032Y-117638735D01*
X114412429Y-117644403D01*
X114412091Y-117644680D01*
X114411707Y-117644889D01*
X114402504Y-117652548D01*
X114393183Y-117660197D01*
X111982986Y-120070394D01*
X109572789Y-117660197D01*
X109553543Y-117644403D01*
X109531587Y-117632667D01*
X109507762Y-117625440D01*
X109482986Y-117623000D01*
X109458210Y-117625440D01*
X109434385Y-117632667D01*
X109412429Y-117644403D01*
X109393183Y-117660197D01*
X108327468Y-118725912D01*
X107729304Y-117812605D01*
X106613144Y-115833557D01*
X106164478Y-114898061D01*
X113965000Y-114898061D01*
X113965000Y-115101939D01*
X114004774Y-115301898D01*
X114082795Y-115490256D01*
X114196063Y-115659774D01*
X114340226Y-115803937D01*
X114509744Y-115917205D01*
X114698102Y-115995226D01*
X114762724Y-116008080D01*
X114774188Y-116124482D01*
X114810498Y-116244180D01*
X114869463Y-116354494D01*
X114948815Y-116451185D01*
X115045506Y-116530537D01*
X115155820Y-116589502D01*
X115275518Y-116625812D01*
X115400000Y-116638072D01*
X115870375Y-116638072D01*
X115949999Y-116645914D01*
X116029623Y-116638072D01*
X116500000Y-116638072D01*
X116624482Y-116625812D01*
X116744180Y-116589502D01*
X116854494Y-116530537D01*
X116951185Y-116451185D01*
X117000000Y-116391704D01*
X117048815Y-116451185D01*
X117145506Y-116530537D01*
X117255820Y-116589502D01*
X117375518Y-116625812D01*
X117500000Y-116638072D01*
X117764250Y-116635000D01*
X117923000Y-116476250D01*
X117923000Y-115752000D01*
X118177000Y-115752000D01*
X118177000Y-116476250D01*
X118335750Y-116635000D01*
X118600000Y-116638072D01*
X118724482Y-116625812D01*
X118844180Y-116589502D01*
X118954494Y-116530537D01*
X119051185Y-116451185D01*
X119130537Y-116354494D01*
X119189502Y-116244180D01*
X119225812Y-116124482D01*
X119238072Y-116000000D01*
X119235000Y-115910750D01*
X119076250Y-115752000D01*
X118177000Y-115752000D01*
X117923000Y-115752000D01*
X117903000Y-115752000D01*
X117903000Y-115498000D01*
X117923000Y-115498000D01*
X117923000Y-114502000D01*
X118177000Y-114502000D01*
X118177000Y-115498000D01*
X119076250Y-115498000D01*
X119235000Y-115339250D01*
X119238072Y-115250000D01*
X119225812Y-115125518D01*
X119189502Y-115005820D01*
X119186391Y-115000000D01*
X119189502Y-114994180D01*
X119225812Y-114874482D01*
X119238072Y-114750000D01*
X119235000Y-114660750D01*
X119076250Y-114502000D01*
X118177000Y-114502000D01*
X117923000Y-114502000D01*
X117903000Y-114502000D01*
X117903000Y-114248000D01*
X117923000Y-114248000D01*
X117923000Y-113523750D01*
X118177000Y-113523750D01*
X118177000Y-114248000D01*
X119076250Y-114248000D01*
X119235000Y-114089250D01*
X119238072Y-114000000D01*
X119225812Y-113875518D01*
X119189502Y-113755820D01*
X119130537Y-113645506D01*
X119051185Y-113548815D01*
X118954494Y-113469463D01*
X118844180Y-113410498D01*
X118724482Y-113374188D01*
X118600000Y-113361928D01*
X118335750Y-113365000D01*
X118177000Y-113523750D01*
X117923000Y-113523750D01*
X117764250Y-113365000D01*
X117500000Y-113361928D01*
X117375518Y-113374188D01*
X117255820Y-113410498D01*
X117145506Y-113469463D01*
X117048815Y-113548815D01*
X117000000Y-113608296D01*
X116951185Y-113548815D01*
X116854494Y-113469463D01*
X116744180Y-113410498D01*
X116624482Y-113374188D01*
X116500000Y-113361928D01*
X116029623Y-113361928D01*
X115949999Y-113354086D01*
X115870375Y-113361928D01*
X115400000Y-113361928D01*
X115275518Y-113374188D01*
X115155820Y-113410498D01*
X115045506Y-113469463D01*
X114948815Y-113548815D01*
X114869463Y-113645506D01*
X114810498Y-113755820D01*
X114774188Y-113875518D01*
X114762724Y-113991920D01*
X114698102Y-114004774D01*
X114509744Y-114082795D01*
X114340226Y-114196063D01*
X114196063Y-114340226D01*
X114082795Y-114509744D01*
X114004774Y-114698102D01*
X113965000Y-114898061D01*
X106164478Y-114898061D01*
X105630601Y-113784897D01*
X104785986Y-111675609D01*
X104451670Y-110648061D01*
X156215000Y-110648061D01*
X156215000Y-110851939D01*
X156254774Y-111051898D01*
X156332795Y-111240256D01*
X156446063Y-111409774D01*
X156590226Y-111553937D01*
X156759744Y-111667205D01*
X156948102Y-111745226D01*
X157012724Y-111758080D01*
X157024188Y-111874482D01*
X157060498Y-111994180D01*
X157119463Y-112104494D01*
X157198815Y-112201185D01*
X157295506Y-112280537D01*
X157405820Y-112339502D01*
X157525518Y-112375812D01*
X157650000Y-112388072D01*
X158120375Y-112388072D01*
X158199999Y-112395914D01*
X158279623Y-112388072D01*
X158750000Y-112388072D01*
X158874482Y-112375812D01*
X158994180Y-112339502D01*
X159104494Y-112280537D01*
X159201185Y-112201185D01*
X159250000Y-112141704D01*
X159298815Y-112201185D01*
X159395506Y-112280537D01*
X159505820Y-112339502D01*
X159625518Y-112375812D01*
X159750000Y-112388072D01*
X160014250Y-112385000D01*
X160173000Y-112226250D01*
X160173000Y-111502000D01*
X160427000Y-111502000D01*
X160427000Y-112226250D01*
X160585750Y-112385000D01*
X160850000Y-112388072D01*
X160974482Y-112375812D01*
X161094180Y-112339502D01*
X161204494Y-112280537D01*
X161301185Y-112201185D01*
X161380537Y-112104494D01*
X161439502Y-111994180D01*
X161475812Y-111874482D01*
X161488072Y-111750000D01*
X161485000Y-111660750D01*
X161326250Y-111502000D01*
X160427000Y-111502000D01*
X160173000Y-111502000D01*
X160153000Y-111502000D01*
X160153000Y-111248000D01*
X160173000Y-111248000D01*
X160173000Y-110252000D01*
X160427000Y-110252000D01*
X160427000Y-111248000D01*
X161326250Y-111248000D01*
X161485000Y-111089250D01*
X161488072Y-111000000D01*
X161475812Y-110875518D01*
X161439502Y-110755820D01*
X161436391Y-110750000D01*
X161439502Y-110744180D01*
X161475812Y-110624482D01*
X161488072Y-110500000D01*
X161485000Y-110410750D01*
X161326250Y-110252000D01*
X160427000Y-110252000D01*
X160173000Y-110252000D01*
X160153000Y-110252000D01*
X160153000Y-109998000D01*
X160173000Y-109998000D01*
X160173000Y-109273750D01*
X160427000Y-109273750D01*
X160427000Y-109998000D01*
X161326250Y-109998000D01*
X161485000Y-109839250D01*
X161488072Y-109750000D01*
X161475812Y-109625518D01*
X161439502Y-109505820D01*
X161380537Y-109395506D01*
X161301185Y-109298815D01*
X161204494Y-109219463D01*
X161094180Y-109160498D01*
X160974482Y-109124188D01*
X160850000Y-109111928D01*
X160585750Y-109115000D01*
X160427000Y-109273750D01*
X160173000Y-109273750D01*
X160014250Y-109115000D01*
X159750000Y-109111928D01*
X159625518Y-109124188D01*
X159505820Y-109160498D01*
X159395506Y-109219463D01*
X159298815Y-109298815D01*
X159250000Y-109358296D01*
X159201185Y-109298815D01*
X159104494Y-109219463D01*
X158994180Y-109160498D01*
X158874482Y-109124188D01*
X158750000Y-109111928D01*
X158279623Y-109111928D01*
X158199999Y-109104086D01*
X158120375Y-109111928D01*
X157650000Y-109111928D01*
X157525518Y-109124188D01*
X157405820Y-109160498D01*
X157295506Y-109219463D01*
X157198815Y-109298815D01*
X157119463Y-109395506D01*
X157060498Y-109505820D01*
X157024188Y-109625518D01*
X157012724Y-109741920D01*
X156948102Y-109754774D01*
X156759744Y-109832795D01*
X156590226Y-109946063D01*
X156446063Y-110090226D01*
X156332795Y-110259744D01*
X156254774Y-110448102D01*
X156215000Y-110648061D01*
X104451670Y-110648061D01*
X104083026Y-109515005D01*
X103926658Y-108898061D01*
X127715000Y-108898061D01*
X127715000Y-109101939D01*
X127754774Y-109301898D01*
X127832795Y-109490256D01*
X127946063Y-109659774D01*
X128090226Y-109803937D01*
X128259744Y-109917205D01*
X128448102Y-109995226D01*
X128512724Y-110008080D01*
X128524188Y-110124482D01*
X128560498Y-110244180D01*
X128619463Y-110354494D01*
X128698815Y-110451185D01*
X128795506Y-110530537D01*
X128905820Y-110589502D01*
X129025518Y-110625812D01*
X129150000Y-110638072D01*
X129620375Y-110638072D01*
X129699999Y-110645914D01*
X129779623Y-110638072D01*
X130250000Y-110638072D01*
X130374482Y-110625812D01*
X130494180Y-110589502D01*
X130604494Y-110530537D01*
X130701185Y-110451185D01*
X130750000Y-110391704D01*
X130798815Y-110451185D01*
X130895506Y-110530537D01*
X131005820Y-110589502D01*
X131125518Y-110625812D01*
X131250000Y-110638072D01*
X131514250Y-110635000D01*
X131673000Y-110476250D01*
X131673000Y-109752000D01*
X131927000Y-109752000D01*
X131927000Y-110476250D01*
X132085750Y-110635000D01*
X132350000Y-110638072D01*
X132474482Y-110625812D01*
X132594180Y-110589502D01*
X132704494Y-110530537D01*
X132801185Y-110451185D01*
X132880537Y-110354494D01*
X132939502Y-110244180D01*
X132975812Y-110124482D01*
X132988072Y-110000000D01*
X132985000Y-109910750D01*
X132826250Y-109752000D01*
X131927000Y-109752000D01*
X131673000Y-109752000D01*
X131653000Y-109752000D01*
X131653000Y-109498000D01*
X131673000Y-109498000D01*
X131673000Y-108502000D01*
X131927000Y-108502000D01*
X131927000Y-109498000D01*
X132826250Y-109498000D01*
X132985000Y-109339250D01*
X132988072Y-109250000D01*
X132975812Y-109125518D01*
X132939502Y-109005820D01*
X132936391Y-109000000D01*
X132939502Y-108994180D01*
X132975812Y-108874482D01*
X132988072Y-108750000D01*
X132985000Y-108660750D01*
X132826250Y-108502000D01*
X131927000Y-108502000D01*
X131673000Y-108502000D01*
X131653000Y-108502000D01*
X131653000Y-108248000D01*
X131673000Y-108248000D01*
X131673000Y-107523750D01*
X131927000Y-107523750D01*
X131927000Y-108248000D01*
X132826250Y-108248000D01*
X132985000Y-108089250D01*
X132988072Y-108000000D01*
X132975812Y-107875518D01*
X132939502Y-107755820D01*
X132880537Y-107645506D01*
X132801185Y-107548815D01*
X132704494Y-107469463D01*
X132594180Y-107410498D01*
X132474482Y-107374188D01*
X132350000Y-107361928D01*
X132085750Y-107365000D01*
X131927000Y-107523750D01*
X131673000Y-107523750D01*
X131514250Y-107365000D01*
X131250000Y-107361928D01*
X131125518Y-107374188D01*
X131005820Y-107410498D01*
X130895506Y-107469463D01*
X130798815Y-107548815D01*
X130750000Y-107608296D01*
X130701185Y-107548815D01*
X130604494Y-107469463D01*
X130494180Y-107410498D01*
X130374482Y-107374188D01*
X130250000Y-107361928D01*
X129779623Y-107361928D01*
X129699999Y-107354086D01*
X129620375Y-107361928D01*
X129150000Y-107361928D01*
X129025518Y-107374188D01*
X128905820Y-107410498D01*
X128795506Y-107469463D01*
X128698815Y-107548815D01*
X128619463Y-107645506D01*
X128560498Y-107755820D01*
X128524188Y-107875518D01*
X128512724Y-107991920D01*
X128448102Y-108004774D01*
X128259744Y-108082795D01*
X128090226Y-108196063D01*
X127946063Y-108340226D01*
X127832795Y-108509744D01*
X127754774Y-108698102D01*
X127715000Y-108898061D01*
X103926658Y-108898061D01*
X103524797Y-107312547D01*
X103113763Y-105077935D01*
X102860675Y-102898061D01*
X142965000Y-102898061D01*
X142965000Y-103101939D01*
X143004774Y-103301898D01*
X143082795Y-103490256D01*
X143196063Y-103659774D01*
X143340226Y-103803937D01*
X143509744Y-103917205D01*
X143698102Y-103995226D01*
X143762724Y-104008080D01*
X143774188Y-104124482D01*
X143810498Y-104244180D01*
X143869463Y-104354494D01*
X143948815Y-104451185D01*
X144045506Y-104530537D01*
X144155820Y-104589502D01*
X144275518Y-104625812D01*
X144400000Y-104638072D01*
X144870375Y-104638072D01*
X144949999Y-104645914D01*
X145029623Y-104638072D01*
X145500000Y-104638072D01*
X145624482Y-104625812D01*
X145744180Y-104589502D01*
X145854494Y-104530537D01*
X145951185Y-104451185D01*
X146000000Y-104391704D01*
X146048815Y-104451185D01*
X146145506Y-104530537D01*
X146255820Y-104589502D01*
X146375518Y-104625812D01*
X146500000Y-104638072D01*
X146764250Y-104635000D01*
X146923000Y-104476250D01*
X146923000Y-103752000D01*
X147177000Y-103752000D01*
X147177000Y-104476250D01*
X147335750Y-104635000D01*
X147600000Y-104638072D01*
X147724482Y-104625812D01*
X147844180Y-104589502D01*
X147954494Y-104530537D01*
X148051185Y-104451185D01*
X148130537Y-104354494D01*
X148189502Y-104244180D01*
X148225812Y-104124482D01*
X148238072Y-104000000D01*
X148235000Y-103910750D01*
X148076250Y-103752000D01*
X147177000Y-103752000D01*
X146923000Y-103752000D01*
X146903000Y-103752000D01*
X146903000Y-103498000D01*
X146923000Y-103498000D01*
X146923000Y-102502000D01*
X147177000Y-102502000D01*
X147177000Y-103498000D01*
X148076250Y-103498000D01*
X148235000Y-103339250D01*
X148238072Y-103250000D01*
X148225812Y-103125518D01*
X148189502Y-103005820D01*
X148186391Y-103000000D01*
X148189502Y-102994180D01*
X148225812Y-102874482D01*
X148238072Y-102750000D01*
X148235000Y-102660750D01*
X148076250Y-102502000D01*
X147177000Y-102502000D01*
X146923000Y-102502000D01*
X146903000Y-102502000D01*
X146903000Y-102248000D01*
X146923000Y-102248000D01*
X146923000Y-101523750D01*
X147177000Y-101523750D01*
X147177000Y-102248000D01*
X148076250Y-102248000D01*
X148235000Y-102089250D01*
X148238072Y-102000000D01*
X148225812Y-101875518D01*
X148189502Y-101755820D01*
X148130537Y-101645506D01*
X148051185Y-101548815D01*
X147954494Y-101469463D01*
X147844180Y-101410498D01*
X147724482Y-101374188D01*
X147600000Y-101361928D01*
X147335750Y-101365000D01*
X147177000Y-101523750D01*
X146923000Y-101523750D01*
X146764250Y-101365000D01*
X146500000Y-101361928D01*
X146375518Y-101374188D01*
X146255820Y-101410498D01*
X146145506Y-101469463D01*
X146048815Y-101548815D01*
X146000000Y-101608296D01*
X145951185Y-101548815D01*
X145854494Y-101469463D01*
X145744180Y-101410498D01*
X145624482Y-101374188D01*
X145500000Y-101361928D01*
X145029623Y-101361928D01*
X144949999Y-101354086D01*
X144870375Y-101361928D01*
X144400000Y-101361928D01*
X144275518Y-101374188D01*
X144155820Y-101410498D01*
X144045506Y-101469463D01*
X143948815Y-101548815D01*
X143869463Y-101645506D01*
X143810498Y-101755820D01*
X143774188Y-101875518D01*
X143762724Y-101991920D01*
X143698102Y-102004774D01*
X143509744Y-102082795D01*
X143340226Y-102196063D01*
X143196063Y-102340226D01*
X143082795Y-102509744D01*
X143004774Y-102698102D01*
X142965000Y-102898061D01*
X102860675Y-102898061D01*
X102851726Y-102820985D01*
X102769006Y-101143137D01*
X103085000Y-101143137D01*
X103085000Y-101356863D01*
X103126696Y-101566483D01*
X103208485Y-101763940D01*
X103327225Y-101941647D01*
X103478353Y-102092775D01*
X103656060Y-102211515D01*
X103853517Y-102293304D01*
X104063137Y-102335000D01*
X104276863Y-102335000D01*
X104486483Y-102293304D01*
X104683940Y-102211515D01*
X104861647Y-102092775D01*
X105012775Y-101941647D01*
X105131515Y-101763940D01*
X105213304Y-101566483D01*
X105255000Y-101356863D01*
X105255000Y-101148061D01*
X113215000Y-101148061D01*
X113215000Y-101351939D01*
X113254774Y-101551898D01*
X113332795Y-101740256D01*
X113446063Y-101909774D01*
X113590226Y-102053937D01*
X113759744Y-102167205D01*
X113948102Y-102245226D01*
X114012724Y-102258080D01*
X114024188Y-102374482D01*
X114060498Y-102494180D01*
X114119463Y-102604494D01*
X114198815Y-102701185D01*
X114295506Y-102780537D01*
X114405820Y-102839502D01*
X114525518Y-102875812D01*
X114650000Y-102888072D01*
X115120375Y-102888072D01*
X115199999Y-102895914D01*
X115279623Y-102888072D01*
X115750000Y-102888072D01*
X115874482Y-102875812D01*
X115994180Y-102839502D01*
X116104494Y-102780537D01*
X116201185Y-102701185D01*
X116250000Y-102641704D01*
X116298815Y-102701185D01*
X116395506Y-102780537D01*
X116505820Y-102839502D01*
X116625518Y-102875812D01*
X116750000Y-102888072D01*
X117014250Y-102885000D01*
X117173000Y-102726250D01*
X117173000Y-102002000D01*
X117427000Y-102002000D01*
X117427000Y-102726250D01*
X117585750Y-102885000D01*
X117850000Y-102888072D01*
X117974482Y-102875812D01*
X118094180Y-102839502D01*
X118204494Y-102780537D01*
X118301185Y-102701185D01*
X118380537Y-102604494D01*
X118439502Y-102494180D01*
X118475812Y-102374482D01*
X118488072Y-102250000D01*
X118485000Y-102160750D01*
X118326250Y-102002000D01*
X117427000Y-102002000D01*
X117173000Y-102002000D01*
X117153000Y-102002000D01*
X117153000Y-101748000D01*
X117173000Y-101748000D01*
X117173000Y-100752000D01*
X117427000Y-100752000D01*
X117427000Y-101748000D01*
X118326250Y-101748000D01*
X118485000Y-101589250D01*
X118488072Y-101500000D01*
X118475812Y-101375518D01*
X118439502Y-101255820D01*
X118436391Y-101250000D01*
X118439502Y-101244180D01*
X118475812Y-101124482D01*
X118488072Y-101000000D01*
X118485000Y-100910750D01*
X118326250Y-100752000D01*
X117427000Y-100752000D01*
X117173000Y-100752000D01*
X117153000Y-100752000D01*
X117153000Y-100498000D01*
X117173000Y-100498000D01*
X117173000Y-99773750D01*
X117427000Y-99773750D01*
X117427000Y-100498000D01*
X118326250Y-100498000D01*
X118485000Y-100339250D01*
X118488072Y-100250000D01*
X118475812Y-100125518D01*
X118439502Y-100005820D01*
X118380537Y-99895506D01*
X118301185Y-99798815D01*
X118204494Y-99719463D01*
X118094180Y-99660498D01*
X117974482Y-99624188D01*
X117850000Y-99611928D01*
X117585750Y-99615000D01*
X117427000Y-99773750D01*
X117173000Y-99773750D01*
X117014250Y-99615000D01*
X116750000Y-99611928D01*
X116625518Y-99624188D01*
X116505820Y-99660498D01*
X116395506Y-99719463D01*
X116298815Y-99798815D01*
X116250000Y-99858296D01*
X116201185Y-99798815D01*
X116104494Y-99719463D01*
X115994180Y-99660498D01*
X115874482Y-99624188D01*
X115750000Y-99611928D01*
X115279623Y-99611928D01*
X115199999Y-99604086D01*
X115120375Y-99611928D01*
X114650000Y-99611928D01*
X114525518Y-99624188D01*
X114405820Y-99660498D01*
X114295506Y-99719463D01*
X114198815Y-99798815D01*
X114119463Y-99895506D01*
X114060498Y-100005820D01*
X114024188Y-100125518D01*
X114012724Y-100241920D01*
X113948102Y-100254774D01*
X113759744Y-100332795D01*
X113590226Y-100446063D01*
X113446063Y-100590226D01*
X113332795Y-100759744D01*
X113254774Y-100948102D01*
X113215000Y-101148061D01*
X105255000Y-101148061D01*
X105255000Y-101143137D01*
X105213304Y-100933517D01*
X105131515Y-100736060D01*
X105012775Y-100558353D01*
X104861647Y-100407225D01*
X104683940Y-100288485D01*
X104486483Y-100206696D01*
X104276863Y-100165000D01*
X104063137Y-100165000D01*
X103853517Y-100206696D01*
X103656060Y-100288485D01*
X103478353Y-100407225D01*
X103327225Y-100558353D01*
X103208485Y-100736060D01*
X103126696Y-100933517D01*
X103085000Y-101143137D01*
X102769006Y-101143137D01*
X102739845Y-100551658D01*
X102778607Y-98279882D01*
X102790035Y-98143137D01*
X103085000Y-98143137D01*
X103085000Y-98356863D01*
X103126696Y-98566483D01*
X103208485Y-98763940D01*
X103327225Y-98941647D01*
X103478353Y-99092775D01*
X103656060Y-99211515D01*
X103853517Y-99293304D01*
X104063137Y-99335000D01*
X104276863Y-99335000D01*
X104486483Y-99293304D01*
X104683940Y-99211515D01*
X104861647Y-99092775D01*
X105012775Y-98941647D01*
X105131515Y-98763940D01*
X105213304Y-98566483D01*
X105255000Y-98356863D01*
X105255000Y-98143137D01*
X105213304Y-97933517D01*
X105131515Y-97736060D01*
X105012775Y-97558353D01*
X104861647Y-97407225D01*
X104683940Y-97288485D01*
X104486483Y-97206696D01*
X104276863Y-97165000D01*
X104063137Y-97165000D01*
X103853517Y-97206696D01*
X103656060Y-97288485D01*
X103478353Y-97407225D01*
X103327225Y-97558353D01*
X103208485Y-97736060D01*
X103126696Y-97933517D01*
X103085000Y-98143137D01*
X102790035Y-98143137D01*
X102967842Y-96015687D01*
X103306719Y-93768999D01*
X103793749Y-91549706D01*
X104426782Y-89367594D01*
X105142758Y-87398061D01*
X108715000Y-87398061D01*
X108715000Y-87601939D01*
X108754774Y-87801898D01*
X108832795Y-87990256D01*
X108946063Y-88159774D01*
X109090226Y-88303937D01*
X109259744Y-88417205D01*
X109448102Y-88495226D01*
X109512724Y-88508080D01*
X109524188Y-88624482D01*
X109560498Y-88744180D01*
X109619463Y-88854494D01*
X109698815Y-88951185D01*
X109795506Y-89030537D01*
X109905820Y-89089502D01*
X110025518Y-89125812D01*
X110150000Y-89138072D01*
X110620375Y-89138072D01*
X110699999Y-89145914D01*
X110779623Y-89138072D01*
X111250000Y-89138072D01*
X111374482Y-89125812D01*
X111494180Y-89089502D01*
X111604494Y-89030537D01*
X111701185Y-88951185D01*
X111750000Y-88891704D01*
X111798815Y-88951185D01*
X111895506Y-89030537D01*
X112005820Y-89089502D01*
X112125518Y-89125812D01*
X112250000Y-89138072D01*
X112514250Y-89135000D01*
X112673000Y-88976250D01*
X112673000Y-88252000D01*
X112927000Y-88252000D01*
X112927000Y-88976250D01*
X113085750Y-89135000D01*
X113350000Y-89138072D01*
X113474482Y-89125812D01*
X113594180Y-89089502D01*
X113704494Y-89030537D01*
X113801185Y-88951185D01*
X113880537Y-88854494D01*
X113939502Y-88744180D01*
X113975812Y-88624482D01*
X113988072Y-88500000D01*
X113985000Y-88410750D01*
X113826250Y-88252000D01*
X112927000Y-88252000D01*
X112673000Y-88252000D01*
X112653000Y-88252000D01*
X112653000Y-87998000D01*
X112673000Y-87998000D01*
X112673000Y-87002000D01*
X112927000Y-87002000D01*
X112927000Y-87998000D01*
X113826250Y-87998000D01*
X113985000Y-87839250D01*
X113988072Y-87750000D01*
X113975812Y-87625518D01*
X113939502Y-87505820D01*
X113936391Y-87500000D01*
X113939502Y-87494180D01*
X113975812Y-87374482D01*
X113988072Y-87250000D01*
X113985000Y-87160750D01*
X113826250Y-87002000D01*
X112927000Y-87002000D01*
X112673000Y-87002000D01*
X112653000Y-87002000D01*
X112653000Y-86748000D01*
X112673000Y-86748000D01*
X112673000Y-86023750D01*
X112927000Y-86023750D01*
X112927000Y-86748000D01*
X113826250Y-86748000D01*
X113985000Y-86589250D01*
X113988072Y-86500000D01*
X113975812Y-86375518D01*
X113939502Y-86255820D01*
X113880537Y-86145506D01*
X113801185Y-86048815D01*
X113704494Y-85969463D01*
X113594180Y-85910498D01*
X113474482Y-85874188D01*
X113350000Y-85861928D01*
X113085750Y-85865000D01*
X112927000Y-86023750D01*
X112673000Y-86023750D01*
X112514250Y-85865000D01*
X112250000Y-85861928D01*
X112125518Y-85874188D01*
X112005820Y-85910498D01*
X111895506Y-85969463D01*
X111798815Y-86048815D01*
X111750000Y-86108296D01*
X111701185Y-86048815D01*
X111604494Y-85969463D01*
X111494180Y-85910498D01*
X111374482Y-85874188D01*
X111250000Y-85861928D01*
X110779623Y-85861928D01*
X110699999Y-85854086D01*
X110620375Y-85861928D01*
X110150000Y-85861928D01*
X110025518Y-85874188D01*
X109905820Y-85910498D01*
X109795506Y-85969463D01*
X109698815Y-86048815D01*
X109619463Y-86145506D01*
X109560498Y-86255820D01*
X109524188Y-86375518D01*
X109512724Y-86491920D01*
X109448102Y-86504774D01*
X109259744Y-86582795D01*
X109090226Y-86696063D01*
X108946063Y-86840226D01*
X108832795Y-87009744D01*
X108754774Y-87198102D01*
X108715000Y-87398061D01*
X105142758Y-87398061D01*
X105203052Y-87232203D01*
X106119133Y-85152960D01*
X107170992Y-83139015D01*
X108222902Y-81414188D01*
X109392979Y-82589598D01*
X109412429Y-82605597D01*
X109434385Y-82617333D01*
X109458210Y-82624560D01*
X109482986Y-82627000D01*
X109507762Y-82624560D01*
X109531587Y-82617333D01*
X109553543Y-82605597D01*
X109572789Y-82589803D01*
X111982986Y-80179606D01*
X114393183Y-82589803D01*
X114412429Y-82605597D01*
X114434385Y-82617333D01*
X114458210Y-82624560D01*
X114482986Y-82627000D01*
X114507762Y-82624560D01*
X114531587Y-82617333D01*
X114553543Y-82605597D01*
X114572789Y-82589803D01*
X116982986Y-80179606D01*
X119393183Y-82589803D01*
X119412190Y-82605437D01*
X119434120Y-82617222D01*
X119457928Y-82624503D01*
X119482699Y-82627000D01*
X119507480Y-82624615D01*
X119531321Y-82617442D01*
X119553304Y-82605756D01*
X119572585Y-82590006D01*
X121993921Y-80179606D01*
X124392979Y-82589598D01*
X124412429Y-82605597D01*
X124434385Y-82617333D01*
X124458210Y-82624560D01*
X124482986Y-82627000D01*
X124507762Y-82624560D01*
X124531587Y-82617333D01*
X124553543Y-82605597D01*
X124572789Y-82589803D01*
X126982986Y-80179606D01*
X129393183Y-82589803D01*
X129412429Y-82605597D01*
X129434385Y-82617333D01*
X129458210Y-82624560D01*
X129482986Y-82627000D01*
X129507762Y-82624560D01*
X129531587Y-82617333D01*
X129553543Y-82605597D01*
X129572789Y-82589803D01*
X131982986Y-80179606D01*
X134393183Y-82589803D01*
X134412190Y-82605437D01*
X134434120Y-82617222D01*
X134457928Y-82624503D01*
X134482699Y-82627000D01*
X134507480Y-82624615D01*
X134531321Y-82617442D01*
X134553304Y-82605756D01*
X134572585Y-82590006D01*
X136993921Y-80179606D01*
X139392979Y-82589598D01*
X139412429Y-82605597D01*
X139434385Y-82617333D01*
X139458210Y-82624560D01*
X139482986Y-82627000D01*
X139507762Y-82624560D01*
X139531587Y-82617333D01*
X139553543Y-82605597D01*
X139572789Y-82589803D01*
X141982986Y-80179606D01*
X144393183Y-82589803D01*
X144412429Y-82605597D01*
X144434385Y-82617333D01*
X144458210Y-82624560D01*
X144482986Y-82627000D01*
X144507762Y-82624560D01*
X144531587Y-82617333D01*
X144553543Y-82605597D01*
X144572789Y-82589803D01*
X146982986Y-80179606D01*
X149393183Y-82589803D01*
X149412190Y-82605437D01*
X149434120Y-82617222D01*
X149457928Y-82624503D01*
X149482699Y-82627000D01*
X149507480Y-82624615D01*
X149531321Y-82617442D01*
X149553304Y-82605756D01*
X149572585Y-82590006D01*
X151996967Y-80176573D01*
X154410197Y-82589803D01*
G37*
%TD.AperFunction*%
D13*
X137886138Y-55831059D02*
X138610388Y-56053867D01*
X139283738Y-56401409D01*
X139884901Y-56862699D01*
X140394872Y-57423149D01*
X140797540Y-58065057D01*
X141080170Y-58768122D01*
X141236190Y-59521513D01*
X141265000Y-60021169D01*
X141265001Y-61306272D01*
X141266298Y-61319440D01*
X141278413Y-61656049D01*
X141278863Y-61659632D01*
X141278707Y-61663242D01*
X141287438Y-61747410D01*
X141429908Y-62624862D01*
X141435629Y-62647269D01*
X141438736Y-62670183D01*
X141462234Y-62751474D01*
X141757835Y-63589830D01*
X141767433Y-63610870D01*
X141774549Y-63632871D01*
X141812059Y-63708691D01*
X141812071Y-63708717D01*
X141812077Y-63708725D01*
X142251461Y-64481476D01*
X142264630Y-64500478D01*
X142275533Y-64520879D01*
X142325894Y-64588881D01*
X142895182Y-65271616D01*
X142911512Y-65287990D01*
X142925851Y-65306132D01*
X142987458Y-65364142D01*
X143668651Y-65935276D01*
X143687625Y-65948502D01*
X143704950Y-65963817D01*
X143775855Y-66010000D01*
X144547423Y-66451478D01*
X144568436Y-66461133D01*
X144588200Y-66473139D01*
X144666163Y-66506036D01*
X145503715Y-66803905D01*
X145508021Y-66805017D01*
X145525587Y-66811299D01*
X145542755Y-66816572D01*
X147746053Y-67464098D01*
X149878711Y-68247813D01*
X151954729Y-69171140D01*
X153965017Y-70230036D01*
X155900673Y-71419812D01*
X157753239Y-72735268D01*
X159514561Y-74170616D01*
X161176886Y-75719540D01*
X162732884Y-77375207D01*
X164175738Y-79130360D01*
X164599132Y-79721262D01*
X164500000Y-79820394D01*
X162089803Y-77410197D01*
X162070557Y-77394403D01*
X162048601Y-77382667D01*
X162024776Y-77375440D01*
X162000000Y-77373000D01*
X161975224Y-77375440D01*
X161951399Y-77382667D01*
X161929443Y-77394403D01*
X161910197Y-77410197D01*
X159500000Y-79820394D01*
X157089803Y-77410197D01*
X157070557Y-77394403D01*
X157048601Y-77382667D01*
X157024776Y-77375440D01*
X157000000Y-77373000D01*
X156975224Y-77375440D01*
X156951399Y-77382667D01*
X156929443Y-77394403D01*
X156910197Y-77410197D01*
X154500000Y-79820394D01*
X152089803Y-77410197D01*
X152070557Y-77394403D01*
X152048601Y-77382667D01*
X152024776Y-77375440D01*
X152000000Y-77373000D01*
X151991493Y-77373838D01*
X151982986Y-77373000D01*
X151958210Y-77375440D01*
X151934385Y-77382667D01*
X151912429Y-77394403D01*
X151893183Y-77410197D01*
X149482986Y-79820394D01*
X147072789Y-77410197D01*
X147053543Y-77394403D01*
X147031587Y-77382667D01*
X147007762Y-77375440D01*
X146982986Y-77373000D01*
X146958210Y-77375440D01*
X146934385Y-77382667D01*
X146912429Y-77394403D01*
X146893183Y-77410197D01*
X144482986Y-79820394D01*
X142072789Y-77410197D01*
X142053543Y-77394403D01*
X142031587Y-77382667D01*
X142007762Y-77375440D01*
X141982986Y-77373000D01*
X141958210Y-77375440D01*
X141934385Y-77382667D01*
X141912429Y-77394403D01*
X141893183Y-77410197D01*
X139482986Y-79820394D01*
X138368716Y-78706124D01*
X138367002Y-78700607D01*
X138355117Y-78678730D01*
X138339193Y-78659592D01*
X137072179Y-77409592D01*
X137053543Y-77394403D01*
X137053151Y-77394194D01*
X137052818Y-77393922D01*
X137042188Y-77388333D01*
X137031587Y-77382667D01*
X137031168Y-77382540D01*
X137030782Y-77382337D01*
X137019264Y-77378929D01*
X137007762Y-77375440D01*
X137007328Y-77375397D01*
X137006908Y-77375273D01*
X136994930Y-77374176D01*
X136982986Y-77373000D01*
X136982551Y-77373043D01*
X136982116Y-77373003D01*
X136970192Y-77374260D01*
X136958210Y-77375440D01*
X136957790Y-77375567D01*
X136957357Y-77375613D01*
X136945915Y-77379170D01*
X136934385Y-77382667D01*
X136933999Y-77382873D01*
X136933582Y-77383003D01*
X136923032Y-77388735D01*
X136912429Y-77394403D01*
X136912091Y-77394680D01*
X136911707Y-77394889D01*
X136902504Y-77402548D01*
X136893183Y-77410197D01*
X134482986Y-79820394D01*
X132072789Y-77410197D01*
X132053543Y-77394403D01*
X132031587Y-77382667D01*
X132007762Y-77375440D01*
X131982986Y-77373000D01*
X131958210Y-77375440D01*
X131934385Y-77382667D01*
X131912429Y-77394403D01*
X131893183Y-77410197D01*
X129482986Y-79820394D01*
X127072789Y-77410197D01*
X127053543Y-77394403D01*
X127031587Y-77382667D01*
X127007762Y-77375440D01*
X126982986Y-77373000D01*
X126958210Y-77375440D01*
X126934385Y-77382667D01*
X126912429Y-77394403D01*
X126893183Y-77410197D01*
X124482986Y-79820394D01*
X123368716Y-78706124D01*
X123367002Y-78700607D01*
X123355117Y-78678730D01*
X123339193Y-78659592D01*
X122072179Y-77409592D01*
X122053543Y-77394403D01*
X122053151Y-77394194D01*
X122052818Y-77393922D01*
X122042188Y-77388333D01*
X122031587Y-77382667D01*
X122031168Y-77382540D01*
X122030782Y-77382337D01*
X122019264Y-77378929D01*
X122007762Y-77375440D01*
X122007328Y-77375397D01*
X122006908Y-77375273D01*
X121994930Y-77374176D01*
X121982986Y-77373000D01*
X121982551Y-77373043D01*
X121982116Y-77373003D01*
X121970192Y-77374260D01*
X121958210Y-77375440D01*
X121957790Y-77375567D01*
X121957357Y-77375613D01*
X121945915Y-77379170D01*
X121934385Y-77382667D01*
X121933999Y-77382873D01*
X121933582Y-77383003D01*
X121923032Y-77388735D01*
X121912429Y-77394403D01*
X121912091Y-77394680D01*
X121911707Y-77394889D01*
X121902504Y-77402548D01*
X121893183Y-77410197D01*
X119482986Y-79820394D01*
X117072789Y-77410197D01*
X117053543Y-77394403D01*
X117031587Y-77382667D01*
X117007762Y-77375440D01*
X116982986Y-77373000D01*
X116958210Y-77375440D01*
X116934385Y-77382667D01*
X116912429Y-77394403D01*
X116893183Y-77410197D01*
X114482986Y-79820394D01*
X112072789Y-77410197D01*
X112053543Y-77394403D01*
X112031587Y-77382667D01*
X112007762Y-77375440D01*
X111982986Y-77373000D01*
X111958210Y-77375440D01*
X111934385Y-77382667D01*
X111912429Y-77394403D01*
X111893183Y-77410197D01*
X109482986Y-79820394D01*
X109390812Y-79728220D01*
X109663000Y-79342048D01*
X111092189Y-77575730D01*
X112635284Y-75908027D01*
X112909974Y-75648061D01*
X116715000Y-75648061D01*
X116715000Y-75851939D01*
X116754774Y-76051898D01*
X116832795Y-76240256D01*
X116946063Y-76409774D01*
X117090226Y-76553937D01*
X117259744Y-76667205D01*
X117448102Y-76745226D01*
X117512724Y-76758080D01*
X117524188Y-76874482D01*
X117560498Y-76994180D01*
X117619463Y-77104494D01*
X117698815Y-77201185D01*
X117795506Y-77280537D01*
X117905820Y-77339502D01*
X118025518Y-77375812D01*
X118150000Y-77388072D01*
X118620375Y-77388072D01*
X118699999Y-77395914D01*
X118779623Y-77388072D01*
X119250000Y-77388072D01*
X119374482Y-77375812D01*
X119494180Y-77339502D01*
X119604494Y-77280537D01*
X119701185Y-77201185D01*
X119750000Y-77141704D01*
X119798815Y-77201185D01*
X119895506Y-77280537D01*
X120005820Y-77339502D01*
X120125518Y-77375812D01*
X120250000Y-77388072D01*
X120514250Y-77385000D01*
X120673000Y-77226250D01*
X120673000Y-76502000D01*
X120927000Y-76502000D01*
X120927000Y-77226250D01*
X121085750Y-77385000D01*
X121350000Y-77388072D01*
X121474482Y-77375812D01*
X121594180Y-77339502D01*
X121704494Y-77280537D01*
X121801185Y-77201185D01*
X121880537Y-77104494D01*
X121939502Y-76994180D01*
X121975812Y-76874482D01*
X121988072Y-76750000D01*
X121985000Y-76660750D01*
X121826250Y-76502000D01*
X120927000Y-76502000D01*
X120673000Y-76502000D01*
X120653000Y-76502000D01*
X120653000Y-76248000D01*
X120673000Y-76248000D01*
X120673000Y-75252000D01*
X120927000Y-75252000D01*
X120927000Y-76248000D01*
X121826250Y-76248000D01*
X121985000Y-76089250D01*
X121988072Y-76000000D01*
X121975812Y-75875518D01*
X121939502Y-75755820D01*
X121936391Y-75750000D01*
X121939502Y-75744180D01*
X121975812Y-75624482D01*
X121988072Y-75500000D01*
X121985000Y-75410750D01*
X121826250Y-75252000D01*
X120927000Y-75252000D01*
X120673000Y-75252000D01*
X120653000Y-75252000D01*
X120653000Y-74998000D01*
X120673000Y-74998000D01*
X120673000Y-74273750D01*
X120927000Y-74273750D01*
X120927000Y-74998000D01*
X121826250Y-74998000D01*
X121985000Y-74839250D01*
X121988072Y-74750000D01*
X121975812Y-74625518D01*
X121939502Y-74505820D01*
X121880537Y-74395506D01*
X121801185Y-74298815D01*
X121704494Y-74219463D01*
X121594180Y-74160498D01*
X121553181Y-74148061D01*
X131465000Y-74148061D01*
X131465000Y-74351939D01*
X131504774Y-74551898D01*
X131582795Y-74740256D01*
X131696063Y-74909774D01*
X131840226Y-75053937D01*
X132009744Y-75167205D01*
X132198102Y-75245226D01*
X132262724Y-75258080D01*
X132274188Y-75374482D01*
X132310498Y-75494180D01*
X132369463Y-75604494D01*
X132448815Y-75701185D01*
X132545506Y-75780537D01*
X132655820Y-75839502D01*
X132775518Y-75875812D01*
X132900000Y-75888072D01*
X133370375Y-75888072D01*
X133449999Y-75895914D01*
X133529623Y-75888072D01*
X134000000Y-75888072D01*
X134124482Y-75875812D01*
X134244180Y-75839502D01*
X134354494Y-75780537D01*
X134451185Y-75701185D01*
X134500000Y-75641704D01*
X134548815Y-75701185D01*
X134645506Y-75780537D01*
X134755820Y-75839502D01*
X134875518Y-75875812D01*
X135000000Y-75888072D01*
X135264250Y-75885000D01*
X135423000Y-75726250D01*
X135423000Y-75002000D01*
X135677000Y-75002000D01*
X135677000Y-75726250D01*
X135835750Y-75885000D01*
X136100000Y-75888072D01*
X136224482Y-75875812D01*
X136344180Y-75839502D01*
X136454494Y-75780537D01*
X136551185Y-75701185D01*
X136630537Y-75604494D01*
X136689502Y-75494180D01*
X136725812Y-75374482D01*
X136738072Y-75250000D01*
X136735000Y-75160750D01*
X136576250Y-75002000D01*
X135677000Y-75002000D01*
X135423000Y-75002000D01*
X135403000Y-75002000D01*
X135403000Y-74748000D01*
X135423000Y-74748000D01*
X135423000Y-73752000D01*
X135677000Y-73752000D01*
X135677000Y-74748000D01*
X136576250Y-74748000D01*
X136735000Y-74589250D01*
X136738072Y-74500000D01*
X136725812Y-74375518D01*
X136689502Y-74255820D01*
X136686391Y-74250000D01*
X136689502Y-74244180D01*
X136718659Y-74148061D01*
X151465000Y-74148061D01*
X151465000Y-74351939D01*
X151504774Y-74551898D01*
X151582795Y-74740256D01*
X151696063Y-74909774D01*
X151840226Y-75053937D01*
X152009744Y-75167205D01*
X152198102Y-75245226D01*
X152262724Y-75258080D01*
X152274188Y-75374482D01*
X152310498Y-75494180D01*
X152369463Y-75604494D01*
X152448815Y-75701185D01*
X152545506Y-75780537D01*
X152655820Y-75839502D01*
X152775518Y-75875812D01*
X152900000Y-75888072D01*
X153370375Y-75888072D01*
X153449999Y-75895914D01*
X153529623Y-75888072D01*
X154000000Y-75888072D01*
X154124482Y-75875812D01*
X154244180Y-75839502D01*
X154354494Y-75780537D01*
X154451185Y-75701185D01*
X154500000Y-75641704D01*
X154548815Y-75701185D01*
X154645506Y-75780537D01*
X154755820Y-75839502D01*
X154875518Y-75875812D01*
X155000000Y-75888072D01*
X155264250Y-75885000D01*
X155423000Y-75726250D01*
X155423000Y-75002000D01*
X155677000Y-75002000D01*
X155677000Y-75726250D01*
X155835750Y-75885000D01*
X156100000Y-75888072D01*
X156224482Y-75875812D01*
X156344180Y-75839502D01*
X156454494Y-75780537D01*
X156551185Y-75701185D01*
X156630537Y-75604494D01*
X156689502Y-75494180D01*
X156725812Y-75374482D01*
X156738072Y-75250000D01*
X156735000Y-75160750D01*
X156576250Y-75002000D01*
X155677000Y-75002000D01*
X155423000Y-75002000D01*
X155403000Y-75002000D01*
X155403000Y-74748000D01*
X155423000Y-74748000D01*
X155423000Y-73752000D01*
X155677000Y-73752000D01*
X155677000Y-74748000D01*
X156576250Y-74748000D01*
X156735000Y-74589250D01*
X156738072Y-74500000D01*
X156725812Y-74375518D01*
X156689502Y-74255820D01*
X156686391Y-74250000D01*
X156689502Y-74244180D01*
X156725812Y-74124482D01*
X156738072Y-74000000D01*
X156735000Y-73910750D01*
X156576250Y-73752000D01*
X155677000Y-73752000D01*
X155423000Y-73752000D01*
X155403000Y-73752000D01*
X155403000Y-73498000D01*
X155423000Y-73498000D01*
X155423000Y-72773750D01*
X155677000Y-72773750D01*
X155677000Y-73498000D01*
X156576250Y-73498000D01*
X156735000Y-73339250D01*
X156738072Y-73250000D01*
X156725812Y-73125518D01*
X156689502Y-73005820D01*
X156630537Y-72895506D01*
X156551185Y-72798815D01*
X156454494Y-72719463D01*
X156344180Y-72660498D01*
X156224482Y-72624188D01*
X156100000Y-72611928D01*
X155835750Y-72615000D01*
X155677000Y-72773750D01*
X155423000Y-72773750D01*
X155264250Y-72615000D01*
X155000000Y-72611928D01*
X154875518Y-72624188D01*
X154755820Y-72660498D01*
X154645506Y-72719463D01*
X154548815Y-72798815D01*
X154500000Y-72858296D01*
X154451185Y-72798815D01*
X154354494Y-72719463D01*
X154244180Y-72660498D01*
X154124482Y-72624188D01*
X154000000Y-72611928D01*
X153529623Y-72611928D01*
X153449999Y-72604086D01*
X153370375Y-72611928D01*
X152900000Y-72611928D01*
X152775518Y-72624188D01*
X152655820Y-72660498D01*
X152545506Y-72719463D01*
X152448815Y-72798815D01*
X152369463Y-72895506D01*
X152310498Y-73005820D01*
X152274188Y-73125518D01*
X152262724Y-73241920D01*
X152198102Y-73254774D01*
X152009744Y-73332795D01*
X151840226Y-73446063D01*
X151696063Y-73590226D01*
X151582795Y-73759744D01*
X151504774Y-73948102D01*
X151465000Y-74148061D01*
X136718659Y-74148061D01*
X136725812Y-74124482D01*
X136738072Y-74000000D01*
X136735000Y-73910750D01*
X136576250Y-73752000D01*
X135677000Y-73752000D01*
X135423000Y-73752000D01*
X135403000Y-73752000D01*
X135403000Y-73498000D01*
X135423000Y-73498000D01*
X135423000Y-72773750D01*
X135677000Y-72773750D01*
X135677000Y-73498000D01*
X136576250Y-73498000D01*
X136735000Y-73339250D01*
X136738072Y-73250000D01*
X136725812Y-73125518D01*
X136689502Y-73005820D01*
X136630537Y-72895506D01*
X136551185Y-72798815D01*
X136454494Y-72719463D01*
X136344180Y-72660498D01*
X136224482Y-72624188D01*
X136100000Y-72611928D01*
X135835750Y-72615000D01*
X135677000Y-72773750D01*
X135423000Y-72773750D01*
X135264250Y-72615000D01*
X135000000Y-72611928D01*
X134875518Y-72624188D01*
X134755820Y-72660498D01*
X134645506Y-72719463D01*
X134548815Y-72798815D01*
X134500000Y-72858296D01*
X134451185Y-72798815D01*
X134354494Y-72719463D01*
X134244180Y-72660498D01*
X134124482Y-72624188D01*
X134000000Y-72611928D01*
X133529623Y-72611928D01*
X133449999Y-72604086D01*
X133370375Y-72611928D01*
X132900000Y-72611928D01*
X132775518Y-72624188D01*
X132655820Y-72660498D01*
X132545506Y-72719463D01*
X132448815Y-72798815D01*
X132369463Y-72895506D01*
X132310498Y-73005820D01*
X132274188Y-73125518D01*
X132262724Y-73241920D01*
X132198102Y-73254774D01*
X132009744Y-73332795D01*
X131840226Y-73446063D01*
X131696063Y-73590226D01*
X131582795Y-73759744D01*
X131504774Y-73948102D01*
X131465000Y-74148061D01*
X121553181Y-74148061D01*
X121474482Y-74124188D01*
X121350000Y-74111928D01*
X121085750Y-74115000D01*
X120927000Y-74273750D01*
X120673000Y-74273750D01*
X120514250Y-74115000D01*
X120250000Y-74111928D01*
X120125518Y-74124188D01*
X120005820Y-74160498D01*
X119895506Y-74219463D01*
X119798815Y-74298815D01*
X119750000Y-74358296D01*
X119701185Y-74298815D01*
X119604494Y-74219463D01*
X119494180Y-74160498D01*
X119374482Y-74124188D01*
X119250000Y-74111928D01*
X118779623Y-74111928D01*
X118699999Y-74104086D01*
X118620375Y-74111928D01*
X118150000Y-74111928D01*
X118025518Y-74124188D01*
X117905820Y-74160498D01*
X117795506Y-74219463D01*
X117698815Y-74298815D01*
X117619463Y-74395506D01*
X117560498Y-74505820D01*
X117524188Y-74625518D01*
X117512724Y-74741920D01*
X117448102Y-74754774D01*
X117259744Y-74832795D01*
X117090226Y-74946063D01*
X116946063Y-75090226D01*
X116832795Y-75259744D01*
X116754774Y-75448102D01*
X116715000Y-75648061D01*
X112909974Y-75648061D01*
X114285522Y-74346247D01*
X116035631Y-72897273D01*
X117877934Y-71567463D01*
X119804304Y-70362683D01*
X121806298Y-69288211D01*
X123875077Y-68348792D01*
X126001593Y-67548534D01*
X128186747Y-66887862D01*
X128436510Y-66822338D01*
X128452528Y-66817563D01*
X128459226Y-66815987D01*
X128804024Y-66713600D01*
X128807380Y-66712269D01*
X128810916Y-66711517D01*
X128890228Y-66682021D01*
X129704199Y-66324712D01*
X129724464Y-66313571D01*
X129745874Y-66304834D01*
X129818696Y-66261767D01*
X129818710Y-66261759D01*
X129818715Y-66261755D01*
X130556543Y-65765956D01*
X130574511Y-65751406D01*
X130594041Y-65739012D01*
X130658097Y-65683720D01*
X131296470Y-65065093D01*
X131311582Y-65047586D01*
X131328603Y-65031934D01*
X131381840Y-64966192D01*
X131381856Y-64966173D01*
X131381861Y-64966165D01*
X131900590Y-64244277D01*
X131912363Y-64224370D01*
X131926343Y-64205952D01*
X131967109Y-64131800D01*
X132349809Y-63329453D01*
X132357869Y-63307780D01*
X132368369Y-63287173D01*
X132395359Y-63206974D01*
X132629927Y-62349538D01*
X132634022Y-62326778D01*
X132640706Y-62304640D01*
X132653067Y-62220928D01*
X132731782Y-61338949D01*
X132735000Y-61306272D01*
X132735000Y-60032731D01*
X132762021Y-59729963D01*
X134258266Y-59729963D01*
X134258266Y-60270037D01*
X134363629Y-60799734D01*
X134570307Y-61298698D01*
X134870356Y-61747753D01*
X135252247Y-62129644D01*
X135701302Y-62429693D01*
X136200266Y-62636371D01*
X136729963Y-62741734D01*
X137270037Y-62741734D01*
X137799734Y-62636371D01*
X138298698Y-62429693D01*
X138747753Y-62129644D01*
X139129644Y-61747753D01*
X139429693Y-61298698D01*
X139636371Y-60799734D01*
X139741734Y-60270037D01*
X139741734Y-59729963D01*
X139636371Y-59200266D01*
X139429693Y-58701302D01*
X139129644Y-58252247D01*
X138747753Y-57870356D01*
X138298698Y-57570307D01*
X137799734Y-57363629D01*
X137270037Y-57258266D01*
X136729963Y-57258266D01*
X136200266Y-57363629D01*
X135701302Y-57570307D01*
X135252247Y-57870356D01*
X134870356Y-58252247D01*
X134570307Y-58701302D01*
X134363629Y-59200266D01*
X134258266Y-59729963D01*
X132762021Y-59729963D01*
X132805281Y-59245253D01*
X133005231Y-58514357D01*
X133331450Y-57830425D01*
X133773626Y-57215072D01*
X134317789Y-56687741D01*
X134946726Y-56265114D01*
X135640570Y-55960537D01*
X136377386Y-55783643D01*
X137133871Y-55740024D01*
X137886138Y-55831059D01*
%TA.AperFunction,Conductor*%
D14*
G36*
X137886138Y-55831059D02*
G01*
X138610388Y-56053867D01*
X139283738Y-56401409D01*
X139884901Y-56862699D01*
X140394872Y-57423149D01*
X140797540Y-58065057D01*
X141080170Y-58768122D01*
X141236190Y-59521513D01*
X141265000Y-60021169D01*
X141265001Y-61306272D01*
X141266298Y-61319440D01*
X141278413Y-61656049D01*
X141278863Y-61659632D01*
X141278707Y-61663242D01*
X141287438Y-61747410D01*
X141429908Y-62624862D01*
X141435629Y-62647269D01*
X141438736Y-62670183D01*
X141462234Y-62751474D01*
X141757835Y-63589830D01*
X141767433Y-63610870D01*
X141774549Y-63632871D01*
X141812059Y-63708691D01*
X141812071Y-63708717D01*
X141812077Y-63708725D01*
X142251461Y-64481476D01*
X142264630Y-64500478D01*
X142275533Y-64520879D01*
X142325894Y-64588881D01*
X142895182Y-65271616D01*
X142911512Y-65287990D01*
X142925851Y-65306132D01*
X142987458Y-65364142D01*
X143668651Y-65935276D01*
X143687625Y-65948502D01*
X143704950Y-65963817D01*
X143775855Y-66010000D01*
X144547423Y-66451478D01*
X144568436Y-66461133D01*
X144588200Y-66473139D01*
X144666163Y-66506036D01*
X145503715Y-66803905D01*
X145508021Y-66805017D01*
X145525587Y-66811299D01*
X145542755Y-66816572D01*
X147746053Y-67464098D01*
X149878711Y-68247813D01*
X151954729Y-69171140D01*
X153965017Y-70230036D01*
X155900673Y-71419812D01*
X157753239Y-72735268D01*
X159514561Y-74170616D01*
X161176886Y-75719540D01*
X162732884Y-77375207D01*
X164175738Y-79130360D01*
X164599132Y-79721262D01*
X164500000Y-79820394D01*
X162089803Y-77410197D01*
X162070557Y-77394403D01*
X162048601Y-77382667D01*
X162024776Y-77375440D01*
X162000000Y-77373000D01*
X161975224Y-77375440D01*
X161951399Y-77382667D01*
X161929443Y-77394403D01*
X161910197Y-77410197D01*
X159500000Y-79820394D01*
X157089803Y-77410197D01*
X157070557Y-77394403D01*
X157048601Y-77382667D01*
X157024776Y-77375440D01*
X157000000Y-77373000D01*
X156975224Y-77375440D01*
X156951399Y-77382667D01*
X156929443Y-77394403D01*
X156910197Y-77410197D01*
X154500000Y-79820394D01*
X152089803Y-77410197D01*
X152070557Y-77394403D01*
X152048601Y-77382667D01*
X152024776Y-77375440D01*
X152000000Y-77373000D01*
X151991493Y-77373838D01*
X151982986Y-77373000D01*
X151958210Y-77375440D01*
X151934385Y-77382667D01*
X151912429Y-77394403D01*
X151893183Y-77410197D01*
X149482986Y-79820394D01*
X147072789Y-77410197D01*
X147053543Y-77394403D01*
X147031587Y-77382667D01*
X147007762Y-77375440D01*
X146982986Y-77373000D01*
X146958210Y-77375440D01*
X146934385Y-77382667D01*
X146912429Y-77394403D01*
X146893183Y-77410197D01*
X144482986Y-79820394D01*
X142072789Y-77410197D01*
X142053543Y-77394403D01*
X142031587Y-77382667D01*
X142007762Y-77375440D01*
X141982986Y-77373000D01*
X141958210Y-77375440D01*
X141934385Y-77382667D01*
X141912429Y-77394403D01*
X141893183Y-77410197D01*
X139482986Y-79820394D01*
X138368716Y-78706124D01*
X138367002Y-78700607D01*
X138355117Y-78678730D01*
X138339193Y-78659592D01*
X137072179Y-77409592D01*
X137053543Y-77394403D01*
X137053151Y-77394194D01*
X137052818Y-77393922D01*
X137042188Y-77388333D01*
X137031587Y-77382667D01*
X137031168Y-77382540D01*
X137030782Y-77382337D01*
X137019264Y-77378929D01*
X137007762Y-77375440D01*
X137007328Y-77375397D01*
X137006908Y-77375273D01*
X136994930Y-77374176D01*
X136982986Y-77373000D01*
X136982551Y-77373043D01*
X136982116Y-77373003D01*
X136970192Y-77374260D01*
X136958210Y-77375440D01*
X136957790Y-77375567D01*
X136957357Y-77375613D01*
X136945915Y-77379170D01*
X136934385Y-77382667D01*
X136933999Y-77382873D01*
X136933582Y-77383003D01*
X136923032Y-77388735D01*
X136912429Y-77394403D01*
X136912091Y-77394680D01*
X136911707Y-77394889D01*
X136902504Y-77402548D01*
X136893183Y-77410197D01*
X134482986Y-79820394D01*
X132072789Y-77410197D01*
X132053543Y-77394403D01*
X132031587Y-77382667D01*
X132007762Y-77375440D01*
X131982986Y-77373000D01*
X131958210Y-77375440D01*
X131934385Y-77382667D01*
X131912429Y-77394403D01*
X131893183Y-77410197D01*
X129482986Y-79820394D01*
X127072789Y-77410197D01*
X127053543Y-77394403D01*
X127031587Y-77382667D01*
X127007762Y-77375440D01*
X126982986Y-77373000D01*
X126958210Y-77375440D01*
X126934385Y-77382667D01*
X126912429Y-77394403D01*
X126893183Y-77410197D01*
X124482986Y-79820394D01*
X123368716Y-78706124D01*
X123367002Y-78700607D01*
X123355117Y-78678730D01*
X123339193Y-78659592D01*
X122072179Y-77409592D01*
X122053543Y-77394403D01*
X122053151Y-77394194D01*
X122052818Y-77393922D01*
X122042188Y-77388333D01*
X122031587Y-77382667D01*
X122031168Y-77382540D01*
X122030782Y-77382337D01*
X122019264Y-77378929D01*
X122007762Y-77375440D01*
X122007328Y-77375397D01*
X122006908Y-77375273D01*
X121994930Y-77374176D01*
X121982986Y-77373000D01*
X121982551Y-77373043D01*
X121982116Y-77373003D01*
X121970192Y-77374260D01*
X121958210Y-77375440D01*
X121957790Y-77375567D01*
X121957357Y-77375613D01*
X121945915Y-77379170D01*
X121934385Y-77382667D01*
X121933999Y-77382873D01*
X121933582Y-77383003D01*
X121923032Y-77388735D01*
X121912429Y-77394403D01*
X121912091Y-77394680D01*
X121911707Y-77394889D01*
X121902504Y-77402548D01*
X121893183Y-77410197D01*
X119482986Y-79820394D01*
X117072789Y-77410197D01*
X117053543Y-77394403D01*
X117031587Y-77382667D01*
X117007762Y-77375440D01*
X116982986Y-77373000D01*
X116958210Y-77375440D01*
X116934385Y-77382667D01*
X116912429Y-77394403D01*
X116893183Y-77410197D01*
X114482986Y-79820394D01*
X112072789Y-77410197D01*
X112053543Y-77394403D01*
X112031587Y-77382667D01*
X112007762Y-77375440D01*
X111982986Y-77373000D01*
X111958210Y-77375440D01*
X111934385Y-77382667D01*
X111912429Y-77394403D01*
X111893183Y-77410197D01*
X109482986Y-79820394D01*
X109390812Y-79728220D01*
X109663000Y-79342048D01*
X111092189Y-77575730D01*
X112635284Y-75908027D01*
X112909974Y-75648061D01*
X116715000Y-75648061D01*
X116715000Y-75851939D01*
X116754774Y-76051898D01*
X116832795Y-76240256D01*
X116946063Y-76409774D01*
X117090226Y-76553937D01*
X117259744Y-76667205D01*
X117448102Y-76745226D01*
X117512724Y-76758080D01*
X117524188Y-76874482D01*
X117560498Y-76994180D01*
X117619463Y-77104494D01*
X117698815Y-77201185D01*
X117795506Y-77280537D01*
X117905820Y-77339502D01*
X118025518Y-77375812D01*
X118150000Y-77388072D01*
X118620375Y-77388072D01*
X118699999Y-77395914D01*
X118779623Y-77388072D01*
X119250000Y-77388072D01*
X119374482Y-77375812D01*
X119494180Y-77339502D01*
X119604494Y-77280537D01*
X119701185Y-77201185D01*
X119750000Y-77141704D01*
X119798815Y-77201185D01*
X119895506Y-77280537D01*
X120005820Y-77339502D01*
X120125518Y-77375812D01*
X120250000Y-77388072D01*
X120514250Y-77385000D01*
X120673000Y-77226250D01*
X120673000Y-76502000D01*
X120927000Y-76502000D01*
X120927000Y-77226250D01*
X121085750Y-77385000D01*
X121350000Y-77388072D01*
X121474482Y-77375812D01*
X121594180Y-77339502D01*
X121704494Y-77280537D01*
X121801185Y-77201185D01*
X121880537Y-77104494D01*
X121939502Y-76994180D01*
X121975812Y-76874482D01*
X121988072Y-76750000D01*
X121985000Y-76660750D01*
X121826250Y-76502000D01*
X120927000Y-76502000D01*
X120673000Y-76502000D01*
X120653000Y-76502000D01*
X120653000Y-76248000D01*
X120673000Y-76248000D01*
X120673000Y-75252000D01*
X120927000Y-75252000D01*
X120927000Y-76248000D01*
X121826250Y-76248000D01*
X121985000Y-76089250D01*
X121988072Y-76000000D01*
X121975812Y-75875518D01*
X121939502Y-75755820D01*
X121936391Y-75750000D01*
X121939502Y-75744180D01*
X121975812Y-75624482D01*
X121988072Y-75500000D01*
X121985000Y-75410750D01*
X121826250Y-75252000D01*
X120927000Y-75252000D01*
X120673000Y-75252000D01*
X120653000Y-75252000D01*
X120653000Y-74998000D01*
X120673000Y-74998000D01*
X120673000Y-74273750D01*
X120927000Y-74273750D01*
X120927000Y-74998000D01*
X121826250Y-74998000D01*
X121985000Y-74839250D01*
X121988072Y-74750000D01*
X121975812Y-74625518D01*
X121939502Y-74505820D01*
X121880537Y-74395506D01*
X121801185Y-74298815D01*
X121704494Y-74219463D01*
X121594180Y-74160498D01*
X121553181Y-74148061D01*
X131465000Y-74148061D01*
X131465000Y-74351939D01*
X131504774Y-74551898D01*
X131582795Y-74740256D01*
X131696063Y-74909774D01*
X131840226Y-75053937D01*
X132009744Y-75167205D01*
X132198102Y-75245226D01*
X132262724Y-75258080D01*
X132274188Y-75374482D01*
X132310498Y-75494180D01*
X132369463Y-75604494D01*
X132448815Y-75701185D01*
X132545506Y-75780537D01*
X132655820Y-75839502D01*
X132775518Y-75875812D01*
X132900000Y-75888072D01*
X133370375Y-75888072D01*
X133449999Y-75895914D01*
X133529623Y-75888072D01*
X134000000Y-75888072D01*
X134124482Y-75875812D01*
X134244180Y-75839502D01*
X134354494Y-75780537D01*
X134451185Y-75701185D01*
X134500000Y-75641704D01*
X134548815Y-75701185D01*
X134645506Y-75780537D01*
X134755820Y-75839502D01*
X134875518Y-75875812D01*
X135000000Y-75888072D01*
X135264250Y-75885000D01*
X135423000Y-75726250D01*
X135423000Y-75002000D01*
X135677000Y-75002000D01*
X135677000Y-75726250D01*
X135835750Y-75885000D01*
X136100000Y-75888072D01*
X136224482Y-75875812D01*
X136344180Y-75839502D01*
X136454494Y-75780537D01*
X136551185Y-75701185D01*
X136630537Y-75604494D01*
X136689502Y-75494180D01*
X136725812Y-75374482D01*
X136738072Y-75250000D01*
X136735000Y-75160750D01*
X136576250Y-75002000D01*
X135677000Y-75002000D01*
X135423000Y-75002000D01*
X135403000Y-75002000D01*
X135403000Y-74748000D01*
X135423000Y-74748000D01*
X135423000Y-73752000D01*
X135677000Y-73752000D01*
X135677000Y-74748000D01*
X136576250Y-74748000D01*
X136735000Y-74589250D01*
X136738072Y-74500000D01*
X136725812Y-74375518D01*
X136689502Y-74255820D01*
X136686391Y-74250000D01*
X136689502Y-74244180D01*
X136718659Y-74148061D01*
X151465000Y-74148061D01*
X151465000Y-74351939D01*
X151504774Y-74551898D01*
X151582795Y-74740256D01*
X151696063Y-74909774D01*
X151840226Y-75053937D01*
X152009744Y-75167205D01*
X152198102Y-75245226D01*
X152262724Y-75258080D01*
X152274188Y-75374482D01*
X152310498Y-75494180D01*
X152369463Y-75604494D01*
X152448815Y-75701185D01*
X152545506Y-75780537D01*
X152655820Y-75839502D01*
X152775518Y-75875812D01*
X152900000Y-75888072D01*
X153370375Y-75888072D01*
X153449999Y-75895914D01*
X153529623Y-75888072D01*
X154000000Y-75888072D01*
X154124482Y-75875812D01*
X154244180Y-75839502D01*
X154354494Y-75780537D01*
X154451185Y-75701185D01*
X154500000Y-75641704D01*
X154548815Y-75701185D01*
X154645506Y-75780537D01*
X154755820Y-75839502D01*
X154875518Y-75875812D01*
X155000000Y-75888072D01*
X155264250Y-75885000D01*
X155423000Y-75726250D01*
X155423000Y-75002000D01*
X155677000Y-75002000D01*
X155677000Y-75726250D01*
X155835750Y-75885000D01*
X156100000Y-75888072D01*
X156224482Y-75875812D01*
X156344180Y-75839502D01*
X156454494Y-75780537D01*
X156551185Y-75701185D01*
X156630537Y-75604494D01*
X156689502Y-75494180D01*
X156725812Y-75374482D01*
X156738072Y-75250000D01*
X156735000Y-75160750D01*
X156576250Y-75002000D01*
X155677000Y-75002000D01*
X155423000Y-75002000D01*
X155403000Y-75002000D01*
X155403000Y-74748000D01*
X155423000Y-74748000D01*
X155423000Y-73752000D01*
X155677000Y-73752000D01*
X155677000Y-74748000D01*
X156576250Y-74748000D01*
X156735000Y-74589250D01*
X156738072Y-74500000D01*
X156725812Y-74375518D01*
X156689502Y-74255820D01*
X156686391Y-74250000D01*
X156689502Y-74244180D01*
X156725812Y-74124482D01*
X156738072Y-74000000D01*
X156735000Y-73910750D01*
X156576250Y-73752000D01*
X155677000Y-73752000D01*
X155423000Y-73752000D01*
X155403000Y-73752000D01*
X155403000Y-73498000D01*
X155423000Y-73498000D01*
X155423000Y-72773750D01*
X155677000Y-72773750D01*
X155677000Y-73498000D01*
X156576250Y-73498000D01*
X156735000Y-73339250D01*
X156738072Y-73250000D01*
X156725812Y-73125518D01*
X156689502Y-73005820D01*
X156630537Y-72895506D01*
X156551185Y-72798815D01*
X156454494Y-72719463D01*
X156344180Y-72660498D01*
X156224482Y-72624188D01*
X156100000Y-72611928D01*
X155835750Y-72615000D01*
X155677000Y-72773750D01*
X155423000Y-72773750D01*
X155264250Y-72615000D01*
X155000000Y-72611928D01*
X154875518Y-72624188D01*
X154755820Y-72660498D01*
X154645506Y-72719463D01*
X154548815Y-72798815D01*
X154500000Y-72858296D01*
X154451185Y-72798815D01*
X154354494Y-72719463D01*
X154244180Y-72660498D01*
X154124482Y-72624188D01*
X154000000Y-72611928D01*
X153529623Y-72611928D01*
X153449999Y-72604086D01*
X153370375Y-72611928D01*
X152900000Y-72611928D01*
X152775518Y-72624188D01*
X152655820Y-72660498D01*
X152545506Y-72719463D01*
X152448815Y-72798815D01*
X152369463Y-72895506D01*
X152310498Y-73005820D01*
X152274188Y-73125518D01*
X152262724Y-73241920D01*
X152198102Y-73254774D01*
X152009744Y-73332795D01*
X151840226Y-73446063D01*
X151696063Y-73590226D01*
X151582795Y-73759744D01*
X151504774Y-73948102D01*
X151465000Y-74148061D01*
X136718659Y-74148061D01*
X136725812Y-74124482D01*
X136738072Y-74000000D01*
X136735000Y-73910750D01*
X136576250Y-73752000D01*
X135677000Y-73752000D01*
X135423000Y-73752000D01*
X135403000Y-73752000D01*
X135403000Y-73498000D01*
X135423000Y-73498000D01*
X135423000Y-72773750D01*
X135677000Y-72773750D01*
X135677000Y-73498000D01*
X136576250Y-73498000D01*
X136735000Y-73339250D01*
X136738072Y-73250000D01*
X136725812Y-73125518D01*
X136689502Y-73005820D01*
X136630537Y-72895506D01*
X136551185Y-72798815D01*
X136454494Y-72719463D01*
X136344180Y-72660498D01*
X136224482Y-72624188D01*
X136100000Y-72611928D01*
X135835750Y-72615000D01*
X135677000Y-72773750D01*
X135423000Y-72773750D01*
X135264250Y-72615000D01*
X135000000Y-72611928D01*
X134875518Y-72624188D01*
X134755820Y-72660498D01*
X134645506Y-72719463D01*
X134548815Y-72798815D01*
X134500000Y-72858296D01*
X134451185Y-72798815D01*
X134354494Y-72719463D01*
X134244180Y-72660498D01*
X134124482Y-72624188D01*
X134000000Y-72611928D01*
X133529623Y-72611928D01*
X133449999Y-72604086D01*
X133370375Y-72611928D01*
X132900000Y-72611928D01*
X132775518Y-72624188D01*
X132655820Y-72660498D01*
X132545506Y-72719463D01*
X132448815Y-72798815D01*
X132369463Y-72895506D01*
X132310498Y-73005820D01*
X132274188Y-73125518D01*
X132262724Y-73241920D01*
X132198102Y-73254774D01*
X132009744Y-73332795D01*
X131840226Y-73446063D01*
X131696063Y-73590226D01*
X131582795Y-73759744D01*
X131504774Y-73948102D01*
X131465000Y-74148061D01*
X121553181Y-74148061D01*
X121474482Y-74124188D01*
X121350000Y-74111928D01*
X121085750Y-74115000D01*
X120927000Y-74273750D01*
X120673000Y-74273750D01*
X120514250Y-74115000D01*
X120250000Y-74111928D01*
X120125518Y-74124188D01*
X120005820Y-74160498D01*
X119895506Y-74219463D01*
X119798815Y-74298815D01*
X119750000Y-74358296D01*
X119701185Y-74298815D01*
X119604494Y-74219463D01*
X119494180Y-74160498D01*
X119374482Y-74124188D01*
X119250000Y-74111928D01*
X118779623Y-74111928D01*
X118699999Y-74104086D01*
X118620375Y-74111928D01*
X118150000Y-74111928D01*
X118025518Y-74124188D01*
X117905820Y-74160498D01*
X117795506Y-74219463D01*
X117698815Y-74298815D01*
X117619463Y-74395506D01*
X117560498Y-74505820D01*
X117524188Y-74625518D01*
X117512724Y-74741920D01*
X117448102Y-74754774D01*
X117259744Y-74832795D01*
X117090226Y-74946063D01*
X116946063Y-75090226D01*
X116832795Y-75259744D01*
X116754774Y-75448102D01*
X116715000Y-75648061D01*
X112909974Y-75648061D01*
X114285522Y-74346247D01*
X116035631Y-72897273D01*
X117877934Y-71567463D01*
X119804304Y-70362683D01*
X121806298Y-69288211D01*
X123875077Y-68348792D01*
X126001593Y-67548534D01*
X128186747Y-66887862D01*
X128436510Y-66822338D01*
X128452528Y-66817563D01*
X128459226Y-66815987D01*
X128804024Y-66713600D01*
X128807380Y-66712269D01*
X128810916Y-66711517D01*
X128890228Y-66682021D01*
X129704199Y-66324712D01*
X129724464Y-66313571D01*
X129745874Y-66304834D01*
X129818696Y-66261767D01*
X129818710Y-66261759D01*
X129818715Y-66261755D01*
X130556543Y-65765956D01*
X130574511Y-65751406D01*
X130594041Y-65739012D01*
X130658097Y-65683720D01*
X131296470Y-65065093D01*
X131311582Y-65047586D01*
X131328603Y-65031934D01*
X131381840Y-64966192D01*
X131381856Y-64966173D01*
X131381861Y-64966165D01*
X131900590Y-64244277D01*
X131912363Y-64224370D01*
X131926343Y-64205952D01*
X131967109Y-64131800D01*
X132349809Y-63329453D01*
X132357869Y-63307780D01*
X132368369Y-63287173D01*
X132395359Y-63206974D01*
X132629927Y-62349538D01*
X132634022Y-62326778D01*
X132640706Y-62304640D01*
X132653067Y-62220928D01*
X132731782Y-61338949D01*
X132735000Y-61306272D01*
X132735000Y-60032731D01*
X132762021Y-59729963D01*
X134258266Y-59729963D01*
X134258266Y-60270037D01*
X134363629Y-60799734D01*
X134570307Y-61298698D01*
X134870356Y-61747753D01*
X135252247Y-62129644D01*
X135701302Y-62429693D01*
X136200266Y-62636371D01*
X136729963Y-62741734D01*
X137270037Y-62741734D01*
X137799734Y-62636371D01*
X138298698Y-62429693D01*
X138747753Y-62129644D01*
X139129644Y-61747753D01*
X139429693Y-61298698D01*
X139636371Y-60799734D01*
X139741734Y-60270037D01*
X139741734Y-59729963D01*
X139636371Y-59200266D01*
X139429693Y-58701302D01*
X139129644Y-58252247D01*
X138747753Y-57870356D01*
X138298698Y-57570307D01*
X137799734Y-57363629D01*
X137270037Y-57258266D01*
X136729963Y-57258266D01*
X136200266Y-57363629D01*
X135701302Y-57570307D01*
X135252247Y-57870356D01*
X134870356Y-58252247D01*
X134570307Y-58701302D01*
X134363629Y-59200266D01*
X134258266Y-59729963D01*
X132762021Y-59729963D01*
X132805281Y-59245253D01*
X133005231Y-58514357D01*
X133331450Y-57830425D01*
X133773626Y-57215072D01*
X134317789Y-56687741D01*
X134946726Y-56265114D01*
X135640570Y-55960537D01*
X136377386Y-55783643D01*
X137133871Y-55740024D01*
X137886138Y-55831059D01*
G37*
%TD.AperFunction*%
%TD*%
M02*
