%TF.GenerationSoftware,KiCad,Pcbnew,(5.1.10)-1*%
%TF.CreationDate,2021-10-20T07:51:27+02:00*%
%TF.ProjectId,TVZ_kuglica,54565a5f-6b75-4676-9c69-63612e6b6963,rev?*%
%TF.SameCoordinates,Original*%
%TF.FileFunction,Legend,Bot*%
%TF.FilePolarity,Positive*%
%FSLAX46Y46*%
G04 Gerber Fmt 4.6, Leading zero omitted, Abs format (unit mm)*
G04 Created by KiCad (PCBNEW (5.1.10)-1) date 2021-10-20 07:51:27*
%MOMM*%
%LPD*%
G01*
G04 APERTURE LIST*
%ADD10C,0.200000*%
%ADD11C,0.010000*%
%ADD12C,0.120000*%
%ADD13C,0.500000*%
G04 APERTURE END LIST*
D10*
X110616666Y-100983333D02*
X110350000Y-100983333D01*
X110216666Y-101050000D01*
X110083333Y-101183333D01*
X110016666Y-101450000D01*
X110016666Y-101916666D01*
X110083333Y-102183333D01*
X110216666Y-102316666D01*
X110350000Y-102383333D01*
X110616666Y-102383333D01*
X110750000Y-102316666D01*
X110883333Y-102183333D01*
X110950000Y-101916666D01*
X110950000Y-101450000D01*
X110883333Y-101183333D01*
X110750000Y-101050000D01*
X110616666Y-100983333D01*
X109416666Y-102383333D02*
X109416666Y-100983333D01*
X108616666Y-102383333D01*
X108616666Y-100983333D01*
X110833333Y-97233333D02*
X110566666Y-97233333D01*
X110433333Y-97300000D01*
X110300000Y-97433333D01*
X110233333Y-97700000D01*
X110233333Y-98166666D01*
X110300000Y-98433333D01*
X110433333Y-98566666D01*
X110566666Y-98633333D01*
X110833333Y-98633333D01*
X110966666Y-98566666D01*
X111100000Y-98433333D01*
X111166666Y-98166666D01*
X111166666Y-97700000D01*
X111100000Y-97433333D01*
X110966666Y-97300000D01*
X110833333Y-97233333D01*
X109166666Y-97900000D02*
X109633333Y-97900000D01*
X109633333Y-98633333D02*
X109633333Y-97233333D01*
X108966666Y-97233333D01*
X107966666Y-97900000D02*
X108433333Y-97900000D01*
X108433333Y-98633333D02*
X108433333Y-97233333D01*
X107766666Y-97233333D01*
X136178571Y-86321428D02*
X137250000Y-86321428D01*
X137464285Y-86250000D01*
X137607142Y-86107142D01*
X137678571Y-85892857D01*
X137678571Y-85750000D01*
X137678571Y-87750000D02*
X137678571Y-87035714D01*
X136178571Y-87035714D01*
X137535714Y-89107142D02*
X137607142Y-89035714D01*
X137678571Y-88821428D01*
X137678571Y-88678571D01*
X137607142Y-88464285D01*
X137464285Y-88321428D01*
X137321428Y-88250000D01*
X137035714Y-88178571D01*
X136821428Y-88178571D01*
X136535714Y-88250000D01*
X136392857Y-88321428D01*
X136250000Y-88464285D01*
X136178571Y-88678571D01*
X136178571Y-88821428D01*
X136250000Y-89035714D01*
X136321428Y-89107142D01*
X136178571Y-90178571D02*
X137250000Y-90178571D01*
X137464285Y-90107142D01*
X137607142Y-89964285D01*
X137678571Y-89750000D01*
X137678571Y-89607142D01*
X137678571Y-91607142D02*
X137678571Y-90892857D01*
X136178571Y-90892857D01*
X137535714Y-92964285D02*
X137607142Y-92892857D01*
X137678571Y-92678571D01*
X137678571Y-92535714D01*
X137607142Y-92321428D01*
X137464285Y-92178571D01*
X137321428Y-92107142D01*
X137035714Y-92035714D01*
X136821428Y-92035714D01*
X136535714Y-92107142D01*
X136392857Y-92178571D01*
X136250000Y-92321428D01*
X136178571Y-92535714D01*
X136178571Y-92678571D01*
X136250000Y-92892857D01*
X136321428Y-92964285D01*
X136178571Y-94035714D02*
X137250000Y-94035714D01*
X137464285Y-93964285D01*
X137607142Y-93821428D01*
X137678571Y-93607142D01*
X137678571Y-93464285D01*
X137678571Y-95464285D02*
X137678571Y-94750000D01*
X136178571Y-94750000D01*
X137535714Y-96821428D02*
X137607142Y-96750000D01*
X137678571Y-96535714D01*
X137678571Y-96392857D01*
X137607142Y-96178571D01*
X137464285Y-96035714D01*
X137321428Y-95964285D01*
X137035714Y-95892857D01*
X136821428Y-95892857D01*
X136535714Y-95964285D01*
X136392857Y-96035714D01*
X136250000Y-96178571D01*
X136178571Y-96392857D01*
X136178571Y-96535714D01*
X136250000Y-96750000D01*
X136321428Y-96821428D01*
X136178571Y-97892857D02*
X137250000Y-97892857D01*
X137464285Y-97821428D01*
X137607142Y-97678571D01*
X137678571Y-97464285D01*
X137678571Y-97321428D01*
X137678571Y-99321428D02*
X137678571Y-98607142D01*
X136178571Y-98607142D01*
X137535714Y-100678571D02*
X137607142Y-100607142D01*
X137678571Y-100392857D01*
X137678571Y-100250000D01*
X137607142Y-100035714D01*
X137464285Y-99892857D01*
X137321428Y-99821428D01*
X137035714Y-99750000D01*
X136821428Y-99750000D01*
X136535714Y-99821428D01*
X136392857Y-99892857D01*
X136250000Y-100035714D01*
X136178571Y-100250000D01*
X136178571Y-100392857D01*
X136250000Y-100607142D01*
X136321428Y-100678571D01*
D11*
%TO.C,G\u002A\u002A\u002A*%
G36*
X107888892Y-105976177D02*
G01*
X107830420Y-105976556D01*
X107785129Y-105977253D01*
X107751672Y-105978322D01*
X107728703Y-105979818D01*
X107714874Y-105981792D01*
X107708840Y-105984301D01*
X107708436Y-105986184D01*
X107711260Y-105994930D01*
X107718336Y-106017349D01*
X107729201Y-106051955D01*
X107743393Y-106097262D01*
X107760447Y-106151786D01*
X107779902Y-106214039D01*
X107801293Y-106282538D01*
X107824157Y-106355795D01*
X107848032Y-106432326D01*
X107872454Y-106510645D01*
X107896960Y-106589266D01*
X107921086Y-106666704D01*
X107944370Y-106741472D01*
X107966349Y-106812086D01*
X107986558Y-106877060D01*
X108004536Y-106934908D01*
X108019818Y-106984145D01*
X108031941Y-107023284D01*
X108040444Y-107050841D01*
X108043917Y-107062196D01*
X108045972Y-107068736D01*
X108047517Y-107074186D01*
X108047865Y-107077871D01*
X108046331Y-107079119D01*
X108042228Y-107077256D01*
X108034869Y-107071608D01*
X108023570Y-107061502D01*
X108007643Y-107046265D01*
X107986402Y-107025223D01*
X107959161Y-106997703D01*
X107925233Y-106963031D01*
X107883934Y-106920534D01*
X107834575Y-106869538D01*
X107776472Y-106809371D01*
X107708938Y-106739357D01*
X107631286Y-106658826D01*
X107603148Y-106629645D01*
X107464157Y-106485508D01*
X107293642Y-106484785D01*
X107123128Y-106484063D01*
X107206318Y-106569391D01*
X107244827Y-106608881D01*
X107289098Y-106654266D01*
X107333799Y-106700081D01*
X107373600Y-106740862D01*
X107375533Y-106742843D01*
X107461558Y-106830966D01*
X107372547Y-106836599D01*
X107311234Y-106842307D01*
X107263357Y-106851259D01*
X107226665Y-106864255D01*
X107198909Y-106882092D01*
X107177838Y-106905571D01*
X107177696Y-106905775D01*
X107166602Y-106923970D01*
X107158913Y-106942990D01*
X107154860Y-106964560D01*
X107154672Y-106990403D01*
X107158580Y-107022243D01*
X107166813Y-107061805D01*
X107179601Y-107110812D01*
X107197173Y-107170987D01*
X107219759Y-107244057D01*
X107224982Y-107260636D01*
X107242582Y-107316614D01*
X107258508Y-107367738D01*
X107272158Y-107412033D01*
X107282926Y-107447523D01*
X107290210Y-107472233D01*
X107293405Y-107484185D01*
X107293500Y-107484870D01*
X107285792Y-107486664D01*
X107263579Y-107488261D01*
X107228231Y-107489628D01*
X107181118Y-107490731D01*
X107123611Y-107491536D01*
X107057078Y-107492008D01*
X106999813Y-107492125D01*
X106913565Y-107492341D01*
X106841932Y-107492983D01*
X106785155Y-107494046D01*
X106743477Y-107495523D01*
X106717140Y-107497407D01*
X106706387Y-107499691D01*
X106706125Y-107500149D01*
X106709277Y-107511451D01*
X106717340Y-107531585D01*
X106723731Y-107545790D01*
X106755352Y-107595252D01*
X106800312Y-107638762D01*
X106856761Y-107674978D01*
X106922847Y-107702557D01*
X106951252Y-107710790D01*
X106964956Y-107713738D01*
X106981846Y-107716145D01*
X107003418Y-107718048D01*
X107031172Y-107719483D01*
X107066605Y-107720485D01*
X107111215Y-107721091D01*
X107166499Y-107721337D01*
X107233957Y-107721260D01*
X107315085Y-107720896D01*
X107358393Y-107720635D01*
X107443364Y-107720076D01*
X107513946Y-107719527D01*
X107571621Y-107718914D01*
X107617876Y-107718164D01*
X107654195Y-107717202D01*
X107682062Y-107715954D01*
X107702962Y-107714344D01*
X107718381Y-107712300D01*
X107729801Y-107709746D01*
X107738709Y-107706608D01*
X107746589Y-107702812D01*
X107749907Y-107701027D01*
X107775104Y-107682825D01*
X107797448Y-107659599D01*
X107801280Y-107654305D01*
X107812120Y-107635338D01*
X107817959Y-107615808D01*
X107820072Y-107589880D01*
X107820078Y-107568435D01*
X107819150Y-107549164D01*
X107816578Y-107528231D01*
X107811833Y-107503557D01*
X107804391Y-107473064D01*
X107793727Y-107434672D01*
X107779313Y-107386303D01*
X107760624Y-107325877D01*
X107750845Y-107294724D01*
X107733308Y-107238899D01*
X107717434Y-107188113D01*
X107703821Y-107144304D01*
X107693070Y-107109408D01*
X107685778Y-107085362D01*
X107682545Y-107074105D01*
X107682438Y-107073544D01*
X107687903Y-107077520D01*
X107703159Y-107090888D01*
X107726502Y-107112096D01*
X107756227Y-107139589D01*
X107790627Y-107171814D01*
X107799516Y-107180199D01*
X107837568Y-107215913D01*
X107884396Y-107259499D01*
X107936999Y-107308186D01*
X107992374Y-107359201D01*
X108047522Y-107409773D01*
X108095188Y-107453263D01*
X108160521Y-107512670D01*
X108215721Y-107562367D01*
X108262476Y-107603237D01*
X108302477Y-107636166D01*
X108337411Y-107662038D01*
X108368967Y-107681736D01*
X108398836Y-107696147D01*
X108428704Y-107706153D01*
X108460262Y-107712640D01*
X108495198Y-107716492D01*
X108535202Y-107718594D01*
X108581962Y-107719829D01*
X108605172Y-107720327D01*
X108659027Y-107721140D01*
X108703219Y-107721068D01*
X108736147Y-107720152D01*
X108756205Y-107718433D01*
X108761938Y-107716335D01*
X108759515Y-107705368D01*
X108753220Y-107684386D01*
X108746063Y-107662781D01*
X108737663Y-107637273D01*
X108731908Y-107617708D01*
X108730188Y-107609472D01*
X108735635Y-107610300D01*
X108749853Y-107619526D01*
X108767891Y-107633638D01*
X108807730Y-107663474D01*
X108848026Y-107685710D01*
X108895705Y-107704355D01*
X108910431Y-107708287D01*
X108930337Y-107711490D01*
X108957248Y-107714074D01*
X108992986Y-107716147D01*
X109039377Y-107717818D01*
X109098243Y-107719199D01*
X109160526Y-107720240D01*
X109388457Y-107723582D01*
X109424915Y-107835743D01*
X109459114Y-107930680D01*
X109496014Y-108011757D01*
X109537047Y-108080936D01*
X109583642Y-108140179D01*
X109637229Y-108191450D01*
X109699238Y-108236712D01*
X109731244Y-108256206D01*
X109786762Y-108283073D01*
X109849737Y-108304851D01*
X109916720Y-108321042D01*
X109984261Y-108331147D01*
X110048908Y-108334668D01*
X110107213Y-108331106D01*
X110155725Y-108319963D01*
X110160420Y-108318211D01*
X110217550Y-108290076D01*
X110264285Y-108253422D01*
X110303330Y-108205707D01*
X110330650Y-108158257D01*
X110352334Y-108107599D01*
X110365786Y-108056239D01*
X110372196Y-107998633D01*
X110372851Y-107972344D01*
X110083307Y-107972344D01*
X110083075Y-108009315D01*
X110081622Y-108034720D01*
X110078077Y-108052861D01*
X110071566Y-108068043D01*
X110061219Y-108084570D01*
X110060282Y-108085956D01*
X110044868Y-108106116D01*
X110035033Y-108112454D01*
X110031380Y-108109768D01*
X110027427Y-108099525D01*
X110019412Y-108076389D01*
X110008081Y-108042596D01*
X109994178Y-108000382D01*
X109978449Y-107951985D01*
X109967802Y-107918908D01*
X109951780Y-107868243D01*
X109937811Y-107822724D01*
X109926514Y-107784480D01*
X109918509Y-107755640D01*
X109914412Y-107738335D01*
X109914160Y-107734257D01*
X109924942Y-107733591D01*
X109944220Y-107740568D01*
X109967957Y-107753087D01*
X109992116Y-107769048D01*
X110010796Y-107784535D01*
X110033000Y-107809597D01*
X110054350Y-107839783D01*
X110062199Y-107853281D01*
X110072102Y-107873828D01*
X110078327Y-107893076D01*
X110081709Y-107915752D01*
X110083089Y-107946582D01*
X110083307Y-107972344D01*
X110372851Y-107972344D01*
X110373156Y-107960121D01*
X110368662Y-107880831D01*
X110354141Y-107811654D01*
X110328354Y-107749482D01*
X110290065Y-107691208D01*
X110246427Y-107642077D01*
X110211668Y-107608816D01*
X110180514Y-107584095D01*
X110147140Y-107563682D01*
X110119250Y-107549648D01*
X110047429Y-107520834D01*
X109974607Y-107501385D01*
X109905738Y-107492536D01*
X109889015Y-107492125D01*
X109843289Y-107492125D01*
X109791388Y-107331391D01*
X109774109Y-107277869D01*
X109753353Y-107213557D01*
X109730513Y-107142775D01*
X109706982Y-107069841D01*
X109684155Y-106999076D01*
X109669733Y-106954359D01*
X109599980Y-106738062D01*
X109343678Y-106738063D01*
X109281701Y-106738257D01*
X109225123Y-106738809D01*
X109175812Y-106739670D01*
X109135639Y-106740794D01*
X109106475Y-106742131D01*
X109090188Y-106743635D01*
X109087375Y-106744602D01*
X109089682Y-106753261D01*
X109096296Y-106775572D01*
X109106758Y-106810045D01*
X109120609Y-106855189D01*
X109137390Y-106909513D01*
X109156641Y-106971528D01*
X109177905Y-107039742D01*
X109200720Y-107112665D01*
X109202469Y-107118245D01*
X109225363Y-107191334D01*
X109246741Y-107259717D01*
X109266146Y-107321920D01*
X109283120Y-107376467D01*
X109297206Y-107421886D01*
X109307944Y-107456703D01*
X109314877Y-107479442D01*
X109317547Y-107488630D01*
X109317563Y-107488737D01*
X109309908Y-107489482D01*
X109288072Y-107490170D01*
X109253750Y-107490783D01*
X109208635Y-107491303D01*
X109154422Y-107491711D01*
X109092806Y-107491989D01*
X109025480Y-107492118D01*
X109005283Y-107492125D01*
X108693004Y-107492125D01*
X108219228Y-105976063D01*
X107961890Y-105976063D01*
X107888892Y-105976177D01*
G37*
X107888892Y-105976177D02*
X107830420Y-105976556D01*
X107785129Y-105977253D01*
X107751672Y-105978322D01*
X107728703Y-105979818D01*
X107714874Y-105981792D01*
X107708840Y-105984301D01*
X107708436Y-105986184D01*
X107711260Y-105994930D01*
X107718336Y-106017349D01*
X107729201Y-106051955D01*
X107743393Y-106097262D01*
X107760447Y-106151786D01*
X107779902Y-106214039D01*
X107801293Y-106282538D01*
X107824157Y-106355795D01*
X107848032Y-106432326D01*
X107872454Y-106510645D01*
X107896960Y-106589266D01*
X107921086Y-106666704D01*
X107944370Y-106741472D01*
X107966349Y-106812086D01*
X107986558Y-106877060D01*
X108004536Y-106934908D01*
X108019818Y-106984145D01*
X108031941Y-107023284D01*
X108040444Y-107050841D01*
X108043917Y-107062196D01*
X108045972Y-107068736D01*
X108047517Y-107074186D01*
X108047865Y-107077871D01*
X108046331Y-107079119D01*
X108042228Y-107077256D01*
X108034869Y-107071608D01*
X108023570Y-107061502D01*
X108007643Y-107046265D01*
X107986402Y-107025223D01*
X107959161Y-106997703D01*
X107925233Y-106963031D01*
X107883934Y-106920534D01*
X107834575Y-106869538D01*
X107776472Y-106809371D01*
X107708938Y-106739357D01*
X107631286Y-106658826D01*
X107603148Y-106629645D01*
X107464157Y-106485508D01*
X107293642Y-106484785D01*
X107123128Y-106484063D01*
X107206318Y-106569391D01*
X107244827Y-106608881D01*
X107289098Y-106654266D01*
X107333799Y-106700081D01*
X107373600Y-106740862D01*
X107375533Y-106742843D01*
X107461558Y-106830966D01*
X107372547Y-106836599D01*
X107311234Y-106842307D01*
X107263357Y-106851259D01*
X107226665Y-106864255D01*
X107198909Y-106882092D01*
X107177838Y-106905571D01*
X107177696Y-106905775D01*
X107166602Y-106923970D01*
X107158913Y-106942990D01*
X107154860Y-106964560D01*
X107154672Y-106990403D01*
X107158580Y-107022243D01*
X107166813Y-107061805D01*
X107179601Y-107110812D01*
X107197173Y-107170987D01*
X107219759Y-107244057D01*
X107224982Y-107260636D01*
X107242582Y-107316614D01*
X107258508Y-107367738D01*
X107272158Y-107412033D01*
X107282926Y-107447523D01*
X107290210Y-107472233D01*
X107293405Y-107484185D01*
X107293500Y-107484870D01*
X107285792Y-107486664D01*
X107263579Y-107488261D01*
X107228231Y-107489628D01*
X107181118Y-107490731D01*
X107123611Y-107491536D01*
X107057078Y-107492008D01*
X106999813Y-107492125D01*
X106913565Y-107492341D01*
X106841932Y-107492983D01*
X106785155Y-107494046D01*
X106743477Y-107495523D01*
X106717140Y-107497407D01*
X106706387Y-107499691D01*
X106706125Y-107500149D01*
X106709277Y-107511451D01*
X106717340Y-107531585D01*
X106723731Y-107545790D01*
X106755352Y-107595252D01*
X106800312Y-107638762D01*
X106856761Y-107674978D01*
X106922847Y-107702557D01*
X106951252Y-107710790D01*
X106964956Y-107713738D01*
X106981846Y-107716145D01*
X107003418Y-107718048D01*
X107031172Y-107719483D01*
X107066605Y-107720485D01*
X107111215Y-107721091D01*
X107166499Y-107721337D01*
X107233957Y-107721260D01*
X107315085Y-107720896D01*
X107358393Y-107720635D01*
X107443364Y-107720076D01*
X107513946Y-107719527D01*
X107571621Y-107718914D01*
X107617876Y-107718164D01*
X107654195Y-107717202D01*
X107682062Y-107715954D01*
X107702962Y-107714344D01*
X107718381Y-107712300D01*
X107729801Y-107709746D01*
X107738709Y-107706608D01*
X107746589Y-107702812D01*
X107749907Y-107701027D01*
X107775104Y-107682825D01*
X107797448Y-107659599D01*
X107801280Y-107654305D01*
X107812120Y-107635338D01*
X107817959Y-107615808D01*
X107820072Y-107589880D01*
X107820078Y-107568435D01*
X107819150Y-107549164D01*
X107816578Y-107528231D01*
X107811833Y-107503557D01*
X107804391Y-107473064D01*
X107793727Y-107434672D01*
X107779313Y-107386303D01*
X107760624Y-107325877D01*
X107750845Y-107294724D01*
X107733308Y-107238899D01*
X107717434Y-107188113D01*
X107703821Y-107144304D01*
X107693070Y-107109408D01*
X107685778Y-107085362D01*
X107682545Y-107074105D01*
X107682438Y-107073544D01*
X107687903Y-107077520D01*
X107703159Y-107090888D01*
X107726502Y-107112096D01*
X107756227Y-107139589D01*
X107790627Y-107171814D01*
X107799516Y-107180199D01*
X107837568Y-107215913D01*
X107884396Y-107259499D01*
X107936999Y-107308186D01*
X107992374Y-107359201D01*
X108047522Y-107409773D01*
X108095188Y-107453263D01*
X108160521Y-107512670D01*
X108215721Y-107562367D01*
X108262476Y-107603237D01*
X108302477Y-107636166D01*
X108337411Y-107662038D01*
X108368967Y-107681736D01*
X108398836Y-107696147D01*
X108428704Y-107706153D01*
X108460262Y-107712640D01*
X108495198Y-107716492D01*
X108535202Y-107718594D01*
X108581962Y-107719829D01*
X108605172Y-107720327D01*
X108659027Y-107721140D01*
X108703219Y-107721068D01*
X108736147Y-107720152D01*
X108756205Y-107718433D01*
X108761938Y-107716335D01*
X108759515Y-107705368D01*
X108753220Y-107684386D01*
X108746063Y-107662781D01*
X108737663Y-107637273D01*
X108731908Y-107617708D01*
X108730188Y-107609472D01*
X108735635Y-107610300D01*
X108749853Y-107619526D01*
X108767891Y-107633638D01*
X108807730Y-107663474D01*
X108848026Y-107685710D01*
X108895705Y-107704355D01*
X108910431Y-107708287D01*
X108930337Y-107711490D01*
X108957248Y-107714074D01*
X108992986Y-107716147D01*
X109039377Y-107717818D01*
X109098243Y-107719199D01*
X109160526Y-107720240D01*
X109388457Y-107723582D01*
X109424915Y-107835743D01*
X109459114Y-107930680D01*
X109496014Y-108011757D01*
X109537047Y-108080936D01*
X109583642Y-108140179D01*
X109637229Y-108191450D01*
X109699238Y-108236712D01*
X109731244Y-108256206D01*
X109786762Y-108283073D01*
X109849737Y-108304851D01*
X109916720Y-108321042D01*
X109984261Y-108331147D01*
X110048908Y-108334668D01*
X110107213Y-108331106D01*
X110155725Y-108319963D01*
X110160420Y-108318211D01*
X110217550Y-108290076D01*
X110264285Y-108253422D01*
X110303330Y-108205707D01*
X110330650Y-108158257D01*
X110352334Y-108107599D01*
X110365786Y-108056239D01*
X110372196Y-107998633D01*
X110372851Y-107972344D01*
X110083307Y-107972344D01*
X110083075Y-108009315D01*
X110081622Y-108034720D01*
X110078077Y-108052861D01*
X110071566Y-108068043D01*
X110061219Y-108084570D01*
X110060282Y-108085956D01*
X110044868Y-108106116D01*
X110035033Y-108112454D01*
X110031380Y-108109768D01*
X110027427Y-108099525D01*
X110019412Y-108076389D01*
X110008081Y-108042596D01*
X109994178Y-108000382D01*
X109978449Y-107951985D01*
X109967802Y-107918908D01*
X109951780Y-107868243D01*
X109937811Y-107822724D01*
X109926514Y-107784480D01*
X109918509Y-107755640D01*
X109914412Y-107738335D01*
X109914160Y-107734257D01*
X109924942Y-107733591D01*
X109944220Y-107740568D01*
X109967957Y-107753087D01*
X109992116Y-107769048D01*
X110010796Y-107784535D01*
X110033000Y-107809597D01*
X110054350Y-107839783D01*
X110062199Y-107853281D01*
X110072102Y-107873828D01*
X110078327Y-107893076D01*
X110081709Y-107915752D01*
X110083089Y-107946582D01*
X110083307Y-107972344D01*
X110372851Y-107972344D01*
X110373156Y-107960121D01*
X110368662Y-107880831D01*
X110354141Y-107811654D01*
X110328354Y-107749482D01*
X110290065Y-107691208D01*
X110246427Y-107642077D01*
X110211668Y-107608816D01*
X110180514Y-107584095D01*
X110147140Y-107563682D01*
X110119250Y-107549648D01*
X110047429Y-107520834D01*
X109974607Y-107501385D01*
X109905738Y-107492536D01*
X109889015Y-107492125D01*
X109843289Y-107492125D01*
X109791388Y-107331391D01*
X109774109Y-107277869D01*
X109753353Y-107213557D01*
X109730513Y-107142775D01*
X109706982Y-107069841D01*
X109684155Y-106999076D01*
X109669733Y-106954359D01*
X109599980Y-106738062D01*
X109343678Y-106738063D01*
X109281701Y-106738257D01*
X109225123Y-106738809D01*
X109175812Y-106739670D01*
X109135639Y-106740794D01*
X109106475Y-106742131D01*
X109090188Y-106743635D01*
X109087375Y-106744602D01*
X109089682Y-106753261D01*
X109096296Y-106775572D01*
X109106758Y-106810045D01*
X109120609Y-106855189D01*
X109137390Y-106909513D01*
X109156641Y-106971528D01*
X109177905Y-107039742D01*
X109200720Y-107112665D01*
X109202469Y-107118245D01*
X109225363Y-107191334D01*
X109246741Y-107259717D01*
X109266146Y-107321920D01*
X109283120Y-107376467D01*
X109297206Y-107421886D01*
X109307944Y-107456703D01*
X109314877Y-107479442D01*
X109317547Y-107488630D01*
X109317563Y-107488737D01*
X109309908Y-107489482D01*
X109288072Y-107490170D01*
X109253750Y-107490783D01*
X109208635Y-107491303D01*
X109154422Y-107491711D01*
X109092806Y-107491989D01*
X109025480Y-107492118D01*
X109005283Y-107492125D01*
X108693004Y-107492125D01*
X108219228Y-105976063D01*
X107961890Y-105976063D01*
X107888892Y-105976177D01*
G36*
X109215721Y-105810609D02*
G01*
X109168635Y-105814585D01*
X109137925Y-105820409D01*
X109080352Y-105841801D01*
X109023314Y-105873897D01*
X108970993Y-105913665D01*
X108927574Y-105958074D01*
X108905667Y-105988715D01*
X108880701Y-106044254D01*
X108867328Y-106106605D01*
X108865508Y-106171778D01*
X108875199Y-106235780D01*
X108896362Y-106294623D01*
X108908997Y-106317375D01*
X108951320Y-106371145D01*
X109005016Y-106418082D01*
X109066043Y-106455135D01*
X109119547Y-106476251D01*
X109155024Y-106483912D01*
X109198598Y-106489053D01*
X109245397Y-106491538D01*
X109290546Y-106491229D01*
X109329170Y-106487990D01*
X109353282Y-106482813D01*
X109425287Y-106454220D01*
X109484297Y-106420284D01*
X109532719Y-106379496D01*
X109551395Y-106358867D01*
X109587395Y-106309714D01*
X109610832Y-106261650D01*
X109623282Y-106209973D01*
X109626315Y-106149983D01*
X109625916Y-106136186D01*
X109623473Y-106097909D01*
X109618709Y-106068889D01*
X109610083Y-106042524D01*
X109597709Y-106015550D01*
X109559841Y-105956178D01*
X109509677Y-105903888D01*
X109450049Y-105860951D01*
X109383790Y-105829638D01*
X109354326Y-105820409D01*
X109315002Y-105813521D01*
X109266655Y-105810254D01*
X109215721Y-105810609D01*
G37*
X109215721Y-105810609D02*
X109168635Y-105814585D01*
X109137925Y-105820409D01*
X109080352Y-105841801D01*
X109023314Y-105873897D01*
X108970993Y-105913665D01*
X108927574Y-105958074D01*
X108905667Y-105988715D01*
X108880701Y-106044254D01*
X108867328Y-106106605D01*
X108865508Y-106171778D01*
X108875199Y-106235780D01*
X108896362Y-106294623D01*
X108908997Y-106317375D01*
X108951320Y-106371145D01*
X109005016Y-106418082D01*
X109066043Y-106455135D01*
X109119547Y-106476251D01*
X109155024Y-106483912D01*
X109198598Y-106489053D01*
X109245397Y-106491538D01*
X109290546Y-106491229D01*
X109329170Y-106487990D01*
X109353282Y-106482813D01*
X109425287Y-106454220D01*
X109484297Y-106420284D01*
X109532719Y-106379496D01*
X109551395Y-106358867D01*
X109587395Y-106309714D01*
X109610832Y-106261650D01*
X109623282Y-106209973D01*
X109626315Y-106149983D01*
X109625916Y-106136186D01*
X109623473Y-106097909D01*
X109618709Y-106068889D01*
X109610083Y-106042524D01*
X109597709Y-106015550D01*
X109559841Y-105956178D01*
X109509677Y-105903888D01*
X109450049Y-105860951D01*
X109383790Y-105829638D01*
X109354326Y-105820409D01*
X109315002Y-105813521D01*
X109266655Y-105810254D01*
X109215721Y-105810609D01*
D12*
%TO.C,SW1*%
X103780000Y-96300000D02*
X104570000Y-96300000D01*
X104570000Y-103200000D02*
X103780000Y-103200000D01*
X105620000Y-101350000D02*
X105620000Y-99650000D01*
X102770000Y-102600000D02*
X102770000Y-96900000D01*
X101480000Y-99850000D02*
X102770000Y-99850000D01*
X101270000Y-100950000D02*
X101270000Y-100050000D01*
X102770000Y-101150000D02*
X101480000Y-101150000D01*
X101480000Y-99850000D02*
X101270000Y-100050000D01*
X101480000Y-101150000D02*
X101270000Y-100950000D01*
X105620000Y-98350000D02*
X105620000Y-98150000D01*
D13*
%TO.C,BT1*%
X133000000Y-80000000D02*
X133000000Y-83000000D01*
X134500000Y-81500000D02*
X131500000Y-81500000D01*
X133250000Y-106500000D02*
X133250000Y-109500000D01*
D12*
%TO.C,R1*%
X119762742Y-75272500D02*
X120237258Y-75272500D01*
X119762742Y-74227500D02*
X120237258Y-74227500D01*
%TO.C,R2*%
X126762742Y-108477500D02*
X127237258Y-108477500D01*
X126762742Y-109522500D02*
X127237258Y-109522500D01*
%TO.C,R3*%
X155262742Y-111272500D02*
X155737258Y-111272500D01*
X155262742Y-110227500D02*
X155737258Y-110227500D01*
%TD*%
M02*
