M48
; DRILL file {KiCad (5.1.10)-1} date 10/20/21 07:51:28
; FORMAT={-:-/ absolute / inch / decimal}
; #@! TF.CreationDate,2021-10-20T07:51:28+02:00
; #@! TF.GenerationSoftware,Kicad,Pcbnew,(5.1.10)-1
; #@! TF.FileFunction,Plated,1,2,PTH
FMAT,2
INCH
T1C0.0157
%
G90
G05
T1
X4.1929Y-3.4547
X4.4587Y-4.5276
X4.685Y-4.1929
X4.7047Y-3.1496
X4.7244Y-3.5433
X4.7736Y-4.9311
X4.7933Y-2.9429
X4.9508Y-2.9429
X5.0Y-3.9961
X5.0689Y-4.2913
X5.2264Y-4.2913
X5.2264Y-4.9114
X5.4921Y-5.1772
X5.5118Y-2.9134
X5.7776Y-4.1043
X5.9646Y-4.5571
X6.0531Y-4.9409
X6.1909Y-4.3602
X6.2008Y-3.5925
X6.3287Y-3.1594
X6.3484Y-4.3602
X6.5453Y-4.2126
T0
M30
