%TF.GenerationSoftware,KiCad,Pcbnew,(5.1.10)-1*%
%TF.CreationDate,2021-10-20T07:51:27+02:00*%
%TF.ProjectId,TVZ_kuglica,54565a5f-6b75-4676-9c69-63612e6b6963,rev?*%
%TF.SameCoordinates,Original*%
%TF.FileFunction,Paste,Bot*%
%TF.FilePolarity,Positive*%
%FSLAX46Y46*%
G04 Gerber Fmt 4.6, Leading zero omitted, Abs format (unit mm)*
G04 Created by KiCad (PCBNEW (5.1.10)-1) date 2021-10-20 07:51:27*
%MOMM*%
%LPD*%
G01*
G04 APERTURE LIST*
%ADD10R,1.500000X0.700000*%
%ADD11R,0.800000X1.000000*%
%ADD12R,3.800000X3.500000*%
%ADD13R,2.800000X5.700000*%
G04 APERTURE END LIST*
D10*
%TO.C,SW1*%
X105930000Y-102000000D03*
X105930000Y-99000000D03*
X105930000Y-97500000D03*
D11*
X103070000Y-103400000D03*
X103070000Y-96100000D03*
X105280000Y-96100000D03*
X105280000Y-103400000D03*
%TD*%
D12*
%TO.C,BT1*%
X137000000Y-83000000D03*
D13*
X137000000Y-105500000D03*
%TD*%
%TO.C,R1*%
G36*
G01*
X118775000Y-75025000D02*
X118775000Y-74475000D01*
G75*
G02*
X118975000Y-74275000I200000J0D01*
G01*
X119375000Y-74275000D01*
G75*
G02*
X119575000Y-74475000I0J-200000D01*
G01*
X119575000Y-75025000D01*
G75*
G02*
X119375000Y-75225000I-200000J0D01*
G01*
X118975000Y-75225000D01*
G75*
G02*
X118775000Y-75025000I0J200000D01*
G01*
G37*
G36*
G01*
X120425000Y-75025000D02*
X120425000Y-74475000D01*
G75*
G02*
X120625000Y-74275000I200000J0D01*
G01*
X121025000Y-74275000D01*
G75*
G02*
X121225000Y-74475000I0J-200000D01*
G01*
X121225000Y-75025000D01*
G75*
G02*
X121025000Y-75225000I-200000J0D01*
G01*
X120625000Y-75225000D01*
G75*
G02*
X120425000Y-75025000I0J200000D01*
G01*
G37*
%TD*%
%TO.C,R2*%
G36*
G01*
X127425000Y-109275000D02*
X127425000Y-108725000D01*
G75*
G02*
X127625000Y-108525000I200000J0D01*
G01*
X128025000Y-108525000D01*
G75*
G02*
X128225000Y-108725000I0J-200000D01*
G01*
X128225000Y-109275000D01*
G75*
G02*
X128025000Y-109475000I-200000J0D01*
G01*
X127625000Y-109475000D01*
G75*
G02*
X127425000Y-109275000I0J200000D01*
G01*
G37*
G36*
G01*
X125775000Y-109275000D02*
X125775000Y-108725000D01*
G75*
G02*
X125975000Y-108525000I200000J0D01*
G01*
X126375000Y-108525000D01*
G75*
G02*
X126575000Y-108725000I0J-200000D01*
G01*
X126575000Y-109275000D01*
G75*
G02*
X126375000Y-109475000I-200000J0D01*
G01*
X125975000Y-109475000D01*
G75*
G02*
X125775000Y-109275000I0J200000D01*
G01*
G37*
%TD*%
%TO.C,R3*%
G36*
G01*
X154275000Y-111025000D02*
X154275000Y-110475000D01*
G75*
G02*
X154475000Y-110275000I200000J0D01*
G01*
X154875000Y-110275000D01*
G75*
G02*
X155075000Y-110475000I0J-200000D01*
G01*
X155075000Y-111025000D01*
G75*
G02*
X154875000Y-111225000I-200000J0D01*
G01*
X154475000Y-111225000D01*
G75*
G02*
X154275000Y-111025000I0J200000D01*
G01*
G37*
G36*
G01*
X155925000Y-111025000D02*
X155925000Y-110475000D01*
G75*
G02*
X156125000Y-110275000I200000J0D01*
G01*
X156525000Y-110275000D01*
G75*
G02*
X156725000Y-110475000I0J-200000D01*
G01*
X156725000Y-111025000D01*
G75*
G02*
X156525000Y-111225000I-200000J0D01*
G01*
X156125000Y-111225000D01*
G75*
G02*
X155925000Y-111025000I0J200000D01*
G01*
G37*
%TD*%
M02*
