%TF.GenerationSoftware,KiCad,Pcbnew,(5.1.10)-1*%
%TF.CreationDate,2021-10-20T07:51:27+02:00*%
%TF.ProjectId,TVZ_kuglica,54565a5f-6b75-4676-9c69-63612e6b6963,rev?*%
%TF.SameCoordinates,Original*%
%TF.FileFunction,Copper,L1,Top*%
%TF.FilePolarity,Positive*%
%FSLAX46Y46*%
G04 Gerber Fmt 4.6, Leading zero omitted, Abs format (unit mm)*
G04 Created by KiCad (PCBNEW (5.1.10)-1) date 2021-10-20 07:51:27*
%MOMM*%
%LPD*%
G01*
G04 APERTURE LIST*
%TA.AperFunction,SMDPad,CuDef*%
%ADD10R,1.100000X0.750000*%
%TD*%
%TA.AperFunction,ViaPad*%
%ADD11C,0.800000*%
%TD*%
%TA.AperFunction,Conductor*%
%ADD12C,0.762000*%
%TD*%
%TA.AperFunction,Conductor*%
%ADD13C,0.254000*%
%TD*%
%TA.AperFunction,Conductor*%
%ADD14C,0.100000*%
%TD*%
G04 APERTURE END LIST*
D10*
%TO.P,D4,2*%
%TO.N,GND*%
X131800000Y-109625000D03*
%TO.P,D4,1*%
%TO.N,Net-(D4-Pad1)*%
X129700000Y-109625000D03*
%TO.P,D4,2*%
%TO.N,GND*%
X131800000Y-108375000D03*
%TO.P,D4,1*%
%TO.N,Net-(D4-Pad1)*%
X129700000Y-108375000D03*
%TD*%
%TO.P,D8,2*%
%TO.N,GND*%
X160300000Y-111375000D03*
%TO.P,D8,1*%
%TO.N,Net-(D8-Pad1)*%
X158200000Y-111375000D03*
%TO.P,D8,2*%
%TO.N,GND*%
X160300000Y-110125000D03*
%TO.P,D8,1*%
%TO.N,Net-(D8-Pad1)*%
X158200000Y-110125000D03*
%TD*%
%TO.P,D3,1*%
%TO.N,Net-(D3-Pad1)*%
X122700000Y-74125000D03*
%TO.P,D3,2*%
%TO.N,GND*%
X124800000Y-74125000D03*
%TO.P,D3,1*%
%TO.N,Net-(D3-Pad1)*%
X122700000Y-75375000D03*
%TO.P,D3,2*%
%TO.N,GND*%
X124800000Y-75375000D03*
%TD*%
D11*
%TO.N,GND*%
X140000000Y-74000000D03*
X119500000Y-80000000D03*
X106500000Y-87750000D03*
X120000000Y-90000000D03*
X127000000Y-101500000D03*
X146750000Y-104250000D03*
X166250000Y-107000000D03*
X157500000Y-91250000D03*
X151500000Y-115750000D03*
X113250000Y-115000000D03*
X119000000Y-106500000D03*
X121250000Y-125250000D03*
X132750000Y-124750000D03*
X139500000Y-131500000D03*
X153750000Y-125500000D03*
X160750000Y-80250000D03*
X125750000Y-74750000D03*
X132750000Y-109000000D03*
X161250000Y-110750000D03*
%TO.N,Net-(D3-Pad1)*%
X121750000Y-74750000D03*
%TO.N,Net-(D4-Pad1)*%
X128750000Y-109000000D03*
%TO.N,Net-(D8-Pad1)*%
X157250000Y-110750000D03*
%TD*%
D12*
%TO.N,Net-(D3-Pad1)*%
X122075000Y-74750000D02*
X122700000Y-74125000D01*
X122075000Y-74750000D02*
X122700000Y-75375000D01*
X121750000Y-74750000D02*
X122075000Y-74750000D01*
%TO.N,Net-(D4-Pad1)*%
X129075000Y-109000000D02*
X129700000Y-108375000D01*
X129075000Y-109000000D02*
X129700000Y-109625000D01*
X128750000Y-109000000D02*
X129075000Y-109000000D01*
%TO.N,Net-(D8-Pad1)*%
X157575000Y-110750000D02*
X158200000Y-110125000D01*
X157575000Y-110750000D02*
X158200000Y-111375000D01*
X157250000Y-110750000D02*
X157575000Y-110750000D01*
%TD*%
D13*
%TO.N,GND*%
X137886138Y-55831059D02*
X138610388Y-56053867D01*
X139283738Y-56401409D01*
X139884901Y-56862699D01*
X140394872Y-57423149D01*
X140797540Y-58065057D01*
X141080170Y-58768122D01*
X141236190Y-59521513D01*
X141265000Y-60021169D01*
X141265001Y-61306272D01*
X141266298Y-61319440D01*
X141278413Y-61656049D01*
X141278863Y-61659632D01*
X141278707Y-61663242D01*
X141287438Y-61747410D01*
X141429908Y-62624862D01*
X141435629Y-62647269D01*
X141438736Y-62670183D01*
X141462234Y-62751474D01*
X141757835Y-63589830D01*
X141767433Y-63610870D01*
X141774549Y-63632871D01*
X141812059Y-63708691D01*
X141812071Y-63708717D01*
X141812077Y-63708725D01*
X142251461Y-64481476D01*
X142264630Y-64500478D01*
X142275533Y-64520879D01*
X142325894Y-64588881D01*
X142895182Y-65271616D01*
X142911512Y-65287990D01*
X142925851Y-65306132D01*
X142987458Y-65364142D01*
X143668651Y-65935276D01*
X143687625Y-65948502D01*
X143704950Y-65963817D01*
X143775855Y-66010000D01*
X144547423Y-66451478D01*
X144568436Y-66461133D01*
X144588200Y-66473139D01*
X144666163Y-66506036D01*
X145503715Y-66803905D01*
X145508021Y-66805017D01*
X145525587Y-66811299D01*
X145542755Y-66816572D01*
X147746053Y-67464098D01*
X149878711Y-68247813D01*
X151954729Y-69171140D01*
X153965017Y-70230036D01*
X155900673Y-71419812D01*
X157753239Y-72735268D01*
X159514561Y-74170616D01*
X161176886Y-75719540D01*
X162732884Y-77375207D01*
X164175738Y-79130360D01*
X165499106Y-80977290D01*
X166697162Y-82907865D01*
X167764630Y-84913581D01*
X168696830Y-86985643D01*
X169489658Y-89114933D01*
X170139624Y-91292080D01*
X170643873Y-93507517D01*
X171000188Y-95751501D01*
X171207004Y-98014175D01*
X171263407Y-100285560D01*
X171169153Y-102555700D01*
X170924654Y-104814605D01*
X170530986Y-107052337D01*
X169989882Y-109259064D01*
X169303718Y-111425077D01*
X168475512Y-113540851D01*
X167508906Y-115597090D01*
X166408155Y-117584736D01*
X165178083Y-119495080D01*
X163824120Y-121319689D01*
X162352204Y-123050560D01*
X160768823Y-124680064D01*
X159080926Y-126201055D01*
X157295931Y-127606843D01*
X155421695Y-128891239D01*
X153466456Y-130048599D01*
X151438820Y-131073832D01*
X149347702Y-131962428D01*
X147202263Y-132710493D01*
X145011999Y-133314718D01*
X142786467Y-133772464D01*
X140535523Y-134081705D01*
X138269022Y-134241089D01*
X135996953Y-134249911D01*
X133729262Y-134108134D01*
X131475992Y-133816385D01*
X129246983Y-133375938D01*
X127052076Y-132788738D01*
X124900917Y-132057366D01*
X122802939Y-131185029D01*
X120767401Y-130175574D01*
X118803237Y-129033435D01*
X116919085Y-127763634D01*
X115123223Y-126371749D01*
X113423564Y-124863914D01*
X111827572Y-123246751D01*
X110342263Y-121527368D01*
X108974171Y-119713331D01*
X107729304Y-117812605D01*
X106613144Y-115833557D01*
X105630601Y-113784897D01*
X104785986Y-111675609D01*
X104451670Y-110648061D01*
X156215000Y-110648061D01*
X156215000Y-110851939D01*
X156254774Y-111051898D01*
X156332795Y-111240256D01*
X156446063Y-111409774D01*
X156590226Y-111553937D01*
X156759744Y-111667205D01*
X156948102Y-111745226D01*
X157012724Y-111758080D01*
X157024188Y-111874482D01*
X157060498Y-111994180D01*
X157119463Y-112104494D01*
X157198815Y-112201185D01*
X157295506Y-112280537D01*
X157405820Y-112339502D01*
X157525518Y-112375812D01*
X157650000Y-112388072D01*
X158120375Y-112388072D01*
X158199999Y-112395914D01*
X158279623Y-112388072D01*
X158750000Y-112388072D01*
X158874482Y-112375812D01*
X158994180Y-112339502D01*
X159104494Y-112280537D01*
X159201185Y-112201185D01*
X159250000Y-112141704D01*
X159298815Y-112201185D01*
X159395506Y-112280537D01*
X159505820Y-112339502D01*
X159625518Y-112375812D01*
X159750000Y-112388072D01*
X160014250Y-112385000D01*
X160173000Y-112226250D01*
X160173000Y-111502000D01*
X160427000Y-111502000D01*
X160427000Y-112226250D01*
X160585750Y-112385000D01*
X160850000Y-112388072D01*
X160974482Y-112375812D01*
X161094180Y-112339502D01*
X161204494Y-112280537D01*
X161301185Y-112201185D01*
X161380537Y-112104494D01*
X161439502Y-111994180D01*
X161475812Y-111874482D01*
X161488072Y-111750000D01*
X161485000Y-111660750D01*
X161326250Y-111502000D01*
X160427000Y-111502000D01*
X160173000Y-111502000D01*
X160153000Y-111502000D01*
X160153000Y-111248000D01*
X160173000Y-111248000D01*
X160173000Y-110252000D01*
X160427000Y-110252000D01*
X160427000Y-111248000D01*
X161326250Y-111248000D01*
X161485000Y-111089250D01*
X161488072Y-111000000D01*
X161475812Y-110875518D01*
X161439502Y-110755820D01*
X161436391Y-110750000D01*
X161439502Y-110744180D01*
X161475812Y-110624482D01*
X161488072Y-110500000D01*
X161485000Y-110410750D01*
X161326250Y-110252000D01*
X160427000Y-110252000D01*
X160173000Y-110252000D01*
X160153000Y-110252000D01*
X160153000Y-109998000D01*
X160173000Y-109998000D01*
X160173000Y-109273750D01*
X160427000Y-109273750D01*
X160427000Y-109998000D01*
X161326250Y-109998000D01*
X161485000Y-109839250D01*
X161488072Y-109750000D01*
X161475812Y-109625518D01*
X161439502Y-109505820D01*
X161380537Y-109395506D01*
X161301185Y-109298815D01*
X161204494Y-109219463D01*
X161094180Y-109160498D01*
X160974482Y-109124188D01*
X160850000Y-109111928D01*
X160585750Y-109115000D01*
X160427000Y-109273750D01*
X160173000Y-109273750D01*
X160014250Y-109115000D01*
X159750000Y-109111928D01*
X159625518Y-109124188D01*
X159505820Y-109160498D01*
X159395506Y-109219463D01*
X159298815Y-109298815D01*
X159250000Y-109358296D01*
X159201185Y-109298815D01*
X159104494Y-109219463D01*
X158994180Y-109160498D01*
X158874482Y-109124188D01*
X158750000Y-109111928D01*
X158279623Y-109111928D01*
X158199999Y-109104086D01*
X158120375Y-109111928D01*
X157650000Y-109111928D01*
X157525518Y-109124188D01*
X157405820Y-109160498D01*
X157295506Y-109219463D01*
X157198815Y-109298815D01*
X157119463Y-109395506D01*
X157060498Y-109505820D01*
X157024188Y-109625518D01*
X157012724Y-109741920D01*
X156948102Y-109754774D01*
X156759744Y-109832795D01*
X156590226Y-109946063D01*
X156446063Y-110090226D01*
X156332795Y-110259744D01*
X156254774Y-110448102D01*
X156215000Y-110648061D01*
X104451670Y-110648061D01*
X104083026Y-109515005D01*
X103926658Y-108898061D01*
X127715000Y-108898061D01*
X127715000Y-109101939D01*
X127754774Y-109301898D01*
X127832795Y-109490256D01*
X127946063Y-109659774D01*
X128090226Y-109803937D01*
X128259744Y-109917205D01*
X128448102Y-109995226D01*
X128512724Y-110008080D01*
X128524188Y-110124482D01*
X128560498Y-110244180D01*
X128619463Y-110354494D01*
X128698815Y-110451185D01*
X128795506Y-110530537D01*
X128905820Y-110589502D01*
X129025518Y-110625812D01*
X129150000Y-110638072D01*
X129620375Y-110638072D01*
X129699999Y-110645914D01*
X129779623Y-110638072D01*
X130250000Y-110638072D01*
X130374482Y-110625812D01*
X130494180Y-110589502D01*
X130604494Y-110530537D01*
X130701185Y-110451185D01*
X130750000Y-110391704D01*
X130798815Y-110451185D01*
X130895506Y-110530537D01*
X131005820Y-110589502D01*
X131125518Y-110625812D01*
X131250000Y-110638072D01*
X131514250Y-110635000D01*
X131673000Y-110476250D01*
X131673000Y-109752000D01*
X131927000Y-109752000D01*
X131927000Y-110476250D01*
X132085750Y-110635000D01*
X132350000Y-110638072D01*
X132474482Y-110625812D01*
X132594180Y-110589502D01*
X132704494Y-110530537D01*
X132801185Y-110451185D01*
X132880537Y-110354494D01*
X132939502Y-110244180D01*
X132975812Y-110124482D01*
X132988072Y-110000000D01*
X132985000Y-109910750D01*
X132826250Y-109752000D01*
X131927000Y-109752000D01*
X131673000Y-109752000D01*
X131653000Y-109752000D01*
X131653000Y-109498000D01*
X131673000Y-109498000D01*
X131673000Y-108502000D01*
X131927000Y-108502000D01*
X131927000Y-109498000D01*
X132826250Y-109498000D01*
X132985000Y-109339250D01*
X132988072Y-109250000D01*
X132975812Y-109125518D01*
X132939502Y-109005820D01*
X132936391Y-109000000D01*
X132939502Y-108994180D01*
X132975812Y-108874482D01*
X132988072Y-108750000D01*
X132985000Y-108660750D01*
X132826250Y-108502000D01*
X131927000Y-108502000D01*
X131673000Y-108502000D01*
X131653000Y-108502000D01*
X131653000Y-108248000D01*
X131673000Y-108248000D01*
X131673000Y-107523750D01*
X131927000Y-107523750D01*
X131927000Y-108248000D01*
X132826250Y-108248000D01*
X132985000Y-108089250D01*
X132988072Y-108000000D01*
X132975812Y-107875518D01*
X132939502Y-107755820D01*
X132880537Y-107645506D01*
X132801185Y-107548815D01*
X132704494Y-107469463D01*
X132594180Y-107410498D01*
X132474482Y-107374188D01*
X132350000Y-107361928D01*
X132085750Y-107365000D01*
X131927000Y-107523750D01*
X131673000Y-107523750D01*
X131514250Y-107365000D01*
X131250000Y-107361928D01*
X131125518Y-107374188D01*
X131005820Y-107410498D01*
X130895506Y-107469463D01*
X130798815Y-107548815D01*
X130750000Y-107608296D01*
X130701185Y-107548815D01*
X130604494Y-107469463D01*
X130494180Y-107410498D01*
X130374482Y-107374188D01*
X130250000Y-107361928D01*
X129779623Y-107361928D01*
X129699999Y-107354086D01*
X129620375Y-107361928D01*
X129150000Y-107361928D01*
X129025518Y-107374188D01*
X128905820Y-107410498D01*
X128795506Y-107469463D01*
X128698815Y-107548815D01*
X128619463Y-107645506D01*
X128560498Y-107755820D01*
X128524188Y-107875518D01*
X128512724Y-107991920D01*
X128448102Y-108004774D01*
X128259744Y-108082795D01*
X128090226Y-108196063D01*
X127946063Y-108340226D01*
X127832795Y-108509744D01*
X127754774Y-108698102D01*
X127715000Y-108898061D01*
X103926658Y-108898061D01*
X103524797Y-107312547D01*
X103113763Y-105077935D01*
X102851726Y-102820985D01*
X102769006Y-101143137D01*
X103085000Y-101143137D01*
X103085000Y-101356863D01*
X103126696Y-101566483D01*
X103208485Y-101763940D01*
X103327225Y-101941647D01*
X103478353Y-102092775D01*
X103656060Y-102211515D01*
X103853517Y-102293304D01*
X104063137Y-102335000D01*
X104276863Y-102335000D01*
X104486483Y-102293304D01*
X104683940Y-102211515D01*
X104861647Y-102092775D01*
X105012775Y-101941647D01*
X105131515Y-101763940D01*
X105213304Y-101566483D01*
X105255000Y-101356863D01*
X105255000Y-101143137D01*
X105213304Y-100933517D01*
X105131515Y-100736060D01*
X105012775Y-100558353D01*
X104861647Y-100407225D01*
X104683940Y-100288485D01*
X104486483Y-100206696D01*
X104276863Y-100165000D01*
X104063137Y-100165000D01*
X103853517Y-100206696D01*
X103656060Y-100288485D01*
X103478353Y-100407225D01*
X103327225Y-100558353D01*
X103208485Y-100736060D01*
X103126696Y-100933517D01*
X103085000Y-101143137D01*
X102769006Y-101143137D01*
X102739845Y-100551658D01*
X102778607Y-98279882D01*
X102790035Y-98143137D01*
X103085000Y-98143137D01*
X103085000Y-98356863D01*
X103126696Y-98566483D01*
X103208485Y-98763940D01*
X103327225Y-98941647D01*
X103478353Y-99092775D01*
X103656060Y-99211515D01*
X103853517Y-99293304D01*
X104063137Y-99335000D01*
X104276863Y-99335000D01*
X104486483Y-99293304D01*
X104683940Y-99211515D01*
X104861647Y-99092775D01*
X105012775Y-98941647D01*
X105131515Y-98763940D01*
X105213304Y-98566483D01*
X105255000Y-98356863D01*
X105255000Y-98143137D01*
X105213304Y-97933517D01*
X105131515Y-97736060D01*
X105012775Y-97558353D01*
X104861647Y-97407225D01*
X104683940Y-97288485D01*
X104486483Y-97206696D01*
X104276863Y-97165000D01*
X104063137Y-97165000D01*
X103853517Y-97206696D01*
X103656060Y-97288485D01*
X103478353Y-97407225D01*
X103327225Y-97558353D01*
X103208485Y-97736060D01*
X103126696Y-97933517D01*
X103085000Y-98143137D01*
X102790035Y-98143137D01*
X102967842Y-96015687D01*
X103306719Y-93768999D01*
X103793749Y-91549706D01*
X104426782Y-89367594D01*
X105203052Y-87232203D01*
X106119133Y-85152960D01*
X107170992Y-83139015D01*
X108354015Y-81199200D01*
X109663000Y-79342048D01*
X111092189Y-77575730D01*
X112635284Y-75908027D01*
X113966613Y-74648061D01*
X120715000Y-74648061D01*
X120715000Y-74851939D01*
X120754774Y-75051898D01*
X120832795Y-75240256D01*
X120946063Y-75409774D01*
X121090226Y-75553937D01*
X121259744Y-75667205D01*
X121448102Y-75745226D01*
X121512724Y-75758080D01*
X121524188Y-75874482D01*
X121560498Y-75994180D01*
X121619463Y-76104494D01*
X121698815Y-76201185D01*
X121795506Y-76280537D01*
X121905820Y-76339502D01*
X122025518Y-76375812D01*
X122150000Y-76388072D01*
X122620375Y-76388072D01*
X122699999Y-76395914D01*
X122779623Y-76388072D01*
X123250000Y-76388072D01*
X123374482Y-76375812D01*
X123494180Y-76339502D01*
X123604494Y-76280537D01*
X123701185Y-76201185D01*
X123750000Y-76141704D01*
X123798815Y-76201185D01*
X123895506Y-76280537D01*
X124005820Y-76339502D01*
X124125518Y-76375812D01*
X124250000Y-76388072D01*
X124514250Y-76385000D01*
X124673000Y-76226250D01*
X124673000Y-75502000D01*
X124927000Y-75502000D01*
X124927000Y-76226250D01*
X125085750Y-76385000D01*
X125350000Y-76388072D01*
X125474482Y-76375812D01*
X125594180Y-76339502D01*
X125704494Y-76280537D01*
X125801185Y-76201185D01*
X125880537Y-76104494D01*
X125939502Y-75994180D01*
X125975812Y-75874482D01*
X125988072Y-75750000D01*
X125985000Y-75660750D01*
X125826250Y-75502000D01*
X124927000Y-75502000D01*
X124673000Y-75502000D01*
X124653000Y-75502000D01*
X124653000Y-75248000D01*
X124673000Y-75248000D01*
X124673000Y-74252000D01*
X124927000Y-74252000D01*
X124927000Y-75248000D01*
X125826250Y-75248000D01*
X125985000Y-75089250D01*
X125988072Y-75000000D01*
X125975812Y-74875518D01*
X125939502Y-74755820D01*
X125936391Y-74750000D01*
X125939502Y-74744180D01*
X125975812Y-74624482D01*
X125988072Y-74500000D01*
X125985000Y-74410750D01*
X125826250Y-74252000D01*
X124927000Y-74252000D01*
X124673000Y-74252000D01*
X124653000Y-74252000D01*
X124653000Y-73998000D01*
X124673000Y-73998000D01*
X124673000Y-73273750D01*
X124927000Y-73273750D01*
X124927000Y-73998000D01*
X125826250Y-73998000D01*
X125985000Y-73839250D01*
X125988072Y-73750000D01*
X125975812Y-73625518D01*
X125939502Y-73505820D01*
X125880537Y-73395506D01*
X125801185Y-73298815D01*
X125704494Y-73219463D01*
X125594180Y-73160498D01*
X125474482Y-73124188D01*
X125350000Y-73111928D01*
X125085750Y-73115000D01*
X124927000Y-73273750D01*
X124673000Y-73273750D01*
X124514250Y-73115000D01*
X124250000Y-73111928D01*
X124125518Y-73124188D01*
X124005820Y-73160498D01*
X123895506Y-73219463D01*
X123798815Y-73298815D01*
X123750000Y-73358296D01*
X123701185Y-73298815D01*
X123604494Y-73219463D01*
X123494180Y-73160498D01*
X123374482Y-73124188D01*
X123250000Y-73111928D01*
X122779623Y-73111928D01*
X122699999Y-73104086D01*
X122620375Y-73111928D01*
X122150000Y-73111928D01*
X122025518Y-73124188D01*
X121905820Y-73160498D01*
X121795506Y-73219463D01*
X121698815Y-73298815D01*
X121619463Y-73395506D01*
X121560498Y-73505820D01*
X121524188Y-73625518D01*
X121512724Y-73741920D01*
X121448102Y-73754774D01*
X121259744Y-73832795D01*
X121090226Y-73946063D01*
X120946063Y-74090226D01*
X120832795Y-74259744D01*
X120754774Y-74448102D01*
X120715000Y-74648061D01*
X113966613Y-74648061D01*
X114285522Y-74346247D01*
X116035631Y-72897273D01*
X117877934Y-71567463D01*
X119804304Y-70362683D01*
X121806298Y-69288211D01*
X123875077Y-68348792D01*
X126001593Y-67548534D01*
X128186747Y-66887862D01*
X128436510Y-66822338D01*
X128452528Y-66817563D01*
X128459226Y-66815987D01*
X128804024Y-66713600D01*
X128807380Y-66712269D01*
X128810916Y-66711517D01*
X128890228Y-66682021D01*
X129704199Y-66324712D01*
X129724464Y-66313571D01*
X129745874Y-66304834D01*
X129818696Y-66261767D01*
X129818710Y-66261759D01*
X129818715Y-66261755D01*
X130556543Y-65765956D01*
X130574511Y-65751406D01*
X130594041Y-65739012D01*
X130658097Y-65683720D01*
X131296470Y-65065093D01*
X131311582Y-65047586D01*
X131328603Y-65031934D01*
X131381840Y-64966192D01*
X131381856Y-64966173D01*
X131381861Y-64966165D01*
X131900590Y-64244277D01*
X131912363Y-64224370D01*
X131926343Y-64205952D01*
X131967109Y-64131800D01*
X132349809Y-63329453D01*
X132357869Y-63307780D01*
X132368369Y-63287173D01*
X132395359Y-63206974D01*
X132629927Y-62349538D01*
X132634022Y-62326778D01*
X132640706Y-62304640D01*
X132653067Y-62220928D01*
X132731782Y-61338949D01*
X132735000Y-61306272D01*
X132735000Y-60032731D01*
X132762021Y-59729963D01*
X134258266Y-59729963D01*
X134258266Y-60270037D01*
X134363629Y-60799734D01*
X134570307Y-61298698D01*
X134870356Y-61747753D01*
X135252247Y-62129644D01*
X135701302Y-62429693D01*
X136200266Y-62636371D01*
X136729963Y-62741734D01*
X137270037Y-62741734D01*
X137799734Y-62636371D01*
X138298698Y-62429693D01*
X138747753Y-62129644D01*
X139129644Y-61747753D01*
X139429693Y-61298698D01*
X139636371Y-60799734D01*
X139741734Y-60270037D01*
X139741734Y-59729963D01*
X139636371Y-59200266D01*
X139429693Y-58701302D01*
X139129644Y-58252247D01*
X138747753Y-57870356D01*
X138298698Y-57570307D01*
X137799734Y-57363629D01*
X137270037Y-57258266D01*
X136729963Y-57258266D01*
X136200266Y-57363629D01*
X135701302Y-57570307D01*
X135252247Y-57870356D01*
X134870356Y-58252247D01*
X134570307Y-58701302D01*
X134363629Y-59200266D01*
X134258266Y-59729963D01*
X132762021Y-59729963D01*
X132805281Y-59245253D01*
X133005231Y-58514357D01*
X133331450Y-57830425D01*
X133773626Y-57215072D01*
X134317789Y-56687741D01*
X134946726Y-56265114D01*
X135640570Y-55960537D01*
X136377386Y-55783643D01*
X137133871Y-55740024D01*
X137886138Y-55831059D01*
%TA.AperFunction,Conductor*%
D14*
G36*
X137886138Y-55831059D02*
G01*
X138610388Y-56053867D01*
X139283738Y-56401409D01*
X139884901Y-56862699D01*
X140394872Y-57423149D01*
X140797540Y-58065057D01*
X141080170Y-58768122D01*
X141236190Y-59521513D01*
X141265000Y-60021169D01*
X141265001Y-61306272D01*
X141266298Y-61319440D01*
X141278413Y-61656049D01*
X141278863Y-61659632D01*
X141278707Y-61663242D01*
X141287438Y-61747410D01*
X141429908Y-62624862D01*
X141435629Y-62647269D01*
X141438736Y-62670183D01*
X141462234Y-62751474D01*
X141757835Y-63589830D01*
X141767433Y-63610870D01*
X141774549Y-63632871D01*
X141812059Y-63708691D01*
X141812071Y-63708717D01*
X141812077Y-63708725D01*
X142251461Y-64481476D01*
X142264630Y-64500478D01*
X142275533Y-64520879D01*
X142325894Y-64588881D01*
X142895182Y-65271616D01*
X142911512Y-65287990D01*
X142925851Y-65306132D01*
X142987458Y-65364142D01*
X143668651Y-65935276D01*
X143687625Y-65948502D01*
X143704950Y-65963817D01*
X143775855Y-66010000D01*
X144547423Y-66451478D01*
X144568436Y-66461133D01*
X144588200Y-66473139D01*
X144666163Y-66506036D01*
X145503715Y-66803905D01*
X145508021Y-66805017D01*
X145525587Y-66811299D01*
X145542755Y-66816572D01*
X147746053Y-67464098D01*
X149878711Y-68247813D01*
X151954729Y-69171140D01*
X153965017Y-70230036D01*
X155900673Y-71419812D01*
X157753239Y-72735268D01*
X159514561Y-74170616D01*
X161176886Y-75719540D01*
X162732884Y-77375207D01*
X164175738Y-79130360D01*
X165499106Y-80977290D01*
X166697162Y-82907865D01*
X167764630Y-84913581D01*
X168696830Y-86985643D01*
X169489658Y-89114933D01*
X170139624Y-91292080D01*
X170643873Y-93507517D01*
X171000188Y-95751501D01*
X171207004Y-98014175D01*
X171263407Y-100285560D01*
X171169153Y-102555700D01*
X170924654Y-104814605D01*
X170530986Y-107052337D01*
X169989882Y-109259064D01*
X169303718Y-111425077D01*
X168475512Y-113540851D01*
X167508906Y-115597090D01*
X166408155Y-117584736D01*
X165178083Y-119495080D01*
X163824120Y-121319689D01*
X162352204Y-123050560D01*
X160768823Y-124680064D01*
X159080926Y-126201055D01*
X157295931Y-127606843D01*
X155421695Y-128891239D01*
X153466456Y-130048599D01*
X151438820Y-131073832D01*
X149347702Y-131962428D01*
X147202263Y-132710493D01*
X145011999Y-133314718D01*
X142786467Y-133772464D01*
X140535523Y-134081705D01*
X138269022Y-134241089D01*
X135996953Y-134249911D01*
X133729262Y-134108134D01*
X131475992Y-133816385D01*
X129246983Y-133375938D01*
X127052076Y-132788738D01*
X124900917Y-132057366D01*
X122802939Y-131185029D01*
X120767401Y-130175574D01*
X118803237Y-129033435D01*
X116919085Y-127763634D01*
X115123223Y-126371749D01*
X113423564Y-124863914D01*
X111827572Y-123246751D01*
X110342263Y-121527368D01*
X108974171Y-119713331D01*
X107729304Y-117812605D01*
X106613144Y-115833557D01*
X105630601Y-113784897D01*
X104785986Y-111675609D01*
X104451670Y-110648061D01*
X156215000Y-110648061D01*
X156215000Y-110851939D01*
X156254774Y-111051898D01*
X156332795Y-111240256D01*
X156446063Y-111409774D01*
X156590226Y-111553937D01*
X156759744Y-111667205D01*
X156948102Y-111745226D01*
X157012724Y-111758080D01*
X157024188Y-111874482D01*
X157060498Y-111994180D01*
X157119463Y-112104494D01*
X157198815Y-112201185D01*
X157295506Y-112280537D01*
X157405820Y-112339502D01*
X157525518Y-112375812D01*
X157650000Y-112388072D01*
X158120375Y-112388072D01*
X158199999Y-112395914D01*
X158279623Y-112388072D01*
X158750000Y-112388072D01*
X158874482Y-112375812D01*
X158994180Y-112339502D01*
X159104494Y-112280537D01*
X159201185Y-112201185D01*
X159250000Y-112141704D01*
X159298815Y-112201185D01*
X159395506Y-112280537D01*
X159505820Y-112339502D01*
X159625518Y-112375812D01*
X159750000Y-112388072D01*
X160014250Y-112385000D01*
X160173000Y-112226250D01*
X160173000Y-111502000D01*
X160427000Y-111502000D01*
X160427000Y-112226250D01*
X160585750Y-112385000D01*
X160850000Y-112388072D01*
X160974482Y-112375812D01*
X161094180Y-112339502D01*
X161204494Y-112280537D01*
X161301185Y-112201185D01*
X161380537Y-112104494D01*
X161439502Y-111994180D01*
X161475812Y-111874482D01*
X161488072Y-111750000D01*
X161485000Y-111660750D01*
X161326250Y-111502000D01*
X160427000Y-111502000D01*
X160173000Y-111502000D01*
X160153000Y-111502000D01*
X160153000Y-111248000D01*
X160173000Y-111248000D01*
X160173000Y-110252000D01*
X160427000Y-110252000D01*
X160427000Y-111248000D01*
X161326250Y-111248000D01*
X161485000Y-111089250D01*
X161488072Y-111000000D01*
X161475812Y-110875518D01*
X161439502Y-110755820D01*
X161436391Y-110750000D01*
X161439502Y-110744180D01*
X161475812Y-110624482D01*
X161488072Y-110500000D01*
X161485000Y-110410750D01*
X161326250Y-110252000D01*
X160427000Y-110252000D01*
X160173000Y-110252000D01*
X160153000Y-110252000D01*
X160153000Y-109998000D01*
X160173000Y-109998000D01*
X160173000Y-109273750D01*
X160427000Y-109273750D01*
X160427000Y-109998000D01*
X161326250Y-109998000D01*
X161485000Y-109839250D01*
X161488072Y-109750000D01*
X161475812Y-109625518D01*
X161439502Y-109505820D01*
X161380537Y-109395506D01*
X161301185Y-109298815D01*
X161204494Y-109219463D01*
X161094180Y-109160498D01*
X160974482Y-109124188D01*
X160850000Y-109111928D01*
X160585750Y-109115000D01*
X160427000Y-109273750D01*
X160173000Y-109273750D01*
X160014250Y-109115000D01*
X159750000Y-109111928D01*
X159625518Y-109124188D01*
X159505820Y-109160498D01*
X159395506Y-109219463D01*
X159298815Y-109298815D01*
X159250000Y-109358296D01*
X159201185Y-109298815D01*
X159104494Y-109219463D01*
X158994180Y-109160498D01*
X158874482Y-109124188D01*
X158750000Y-109111928D01*
X158279623Y-109111928D01*
X158199999Y-109104086D01*
X158120375Y-109111928D01*
X157650000Y-109111928D01*
X157525518Y-109124188D01*
X157405820Y-109160498D01*
X157295506Y-109219463D01*
X157198815Y-109298815D01*
X157119463Y-109395506D01*
X157060498Y-109505820D01*
X157024188Y-109625518D01*
X157012724Y-109741920D01*
X156948102Y-109754774D01*
X156759744Y-109832795D01*
X156590226Y-109946063D01*
X156446063Y-110090226D01*
X156332795Y-110259744D01*
X156254774Y-110448102D01*
X156215000Y-110648061D01*
X104451670Y-110648061D01*
X104083026Y-109515005D01*
X103926658Y-108898061D01*
X127715000Y-108898061D01*
X127715000Y-109101939D01*
X127754774Y-109301898D01*
X127832795Y-109490256D01*
X127946063Y-109659774D01*
X128090226Y-109803937D01*
X128259744Y-109917205D01*
X128448102Y-109995226D01*
X128512724Y-110008080D01*
X128524188Y-110124482D01*
X128560498Y-110244180D01*
X128619463Y-110354494D01*
X128698815Y-110451185D01*
X128795506Y-110530537D01*
X128905820Y-110589502D01*
X129025518Y-110625812D01*
X129150000Y-110638072D01*
X129620375Y-110638072D01*
X129699999Y-110645914D01*
X129779623Y-110638072D01*
X130250000Y-110638072D01*
X130374482Y-110625812D01*
X130494180Y-110589502D01*
X130604494Y-110530537D01*
X130701185Y-110451185D01*
X130750000Y-110391704D01*
X130798815Y-110451185D01*
X130895506Y-110530537D01*
X131005820Y-110589502D01*
X131125518Y-110625812D01*
X131250000Y-110638072D01*
X131514250Y-110635000D01*
X131673000Y-110476250D01*
X131673000Y-109752000D01*
X131927000Y-109752000D01*
X131927000Y-110476250D01*
X132085750Y-110635000D01*
X132350000Y-110638072D01*
X132474482Y-110625812D01*
X132594180Y-110589502D01*
X132704494Y-110530537D01*
X132801185Y-110451185D01*
X132880537Y-110354494D01*
X132939502Y-110244180D01*
X132975812Y-110124482D01*
X132988072Y-110000000D01*
X132985000Y-109910750D01*
X132826250Y-109752000D01*
X131927000Y-109752000D01*
X131673000Y-109752000D01*
X131653000Y-109752000D01*
X131653000Y-109498000D01*
X131673000Y-109498000D01*
X131673000Y-108502000D01*
X131927000Y-108502000D01*
X131927000Y-109498000D01*
X132826250Y-109498000D01*
X132985000Y-109339250D01*
X132988072Y-109250000D01*
X132975812Y-109125518D01*
X132939502Y-109005820D01*
X132936391Y-109000000D01*
X132939502Y-108994180D01*
X132975812Y-108874482D01*
X132988072Y-108750000D01*
X132985000Y-108660750D01*
X132826250Y-108502000D01*
X131927000Y-108502000D01*
X131673000Y-108502000D01*
X131653000Y-108502000D01*
X131653000Y-108248000D01*
X131673000Y-108248000D01*
X131673000Y-107523750D01*
X131927000Y-107523750D01*
X131927000Y-108248000D01*
X132826250Y-108248000D01*
X132985000Y-108089250D01*
X132988072Y-108000000D01*
X132975812Y-107875518D01*
X132939502Y-107755820D01*
X132880537Y-107645506D01*
X132801185Y-107548815D01*
X132704494Y-107469463D01*
X132594180Y-107410498D01*
X132474482Y-107374188D01*
X132350000Y-107361928D01*
X132085750Y-107365000D01*
X131927000Y-107523750D01*
X131673000Y-107523750D01*
X131514250Y-107365000D01*
X131250000Y-107361928D01*
X131125518Y-107374188D01*
X131005820Y-107410498D01*
X130895506Y-107469463D01*
X130798815Y-107548815D01*
X130750000Y-107608296D01*
X130701185Y-107548815D01*
X130604494Y-107469463D01*
X130494180Y-107410498D01*
X130374482Y-107374188D01*
X130250000Y-107361928D01*
X129779623Y-107361928D01*
X129699999Y-107354086D01*
X129620375Y-107361928D01*
X129150000Y-107361928D01*
X129025518Y-107374188D01*
X128905820Y-107410498D01*
X128795506Y-107469463D01*
X128698815Y-107548815D01*
X128619463Y-107645506D01*
X128560498Y-107755820D01*
X128524188Y-107875518D01*
X128512724Y-107991920D01*
X128448102Y-108004774D01*
X128259744Y-108082795D01*
X128090226Y-108196063D01*
X127946063Y-108340226D01*
X127832795Y-108509744D01*
X127754774Y-108698102D01*
X127715000Y-108898061D01*
X103926658Y-108898061D01*
X103524797Y-107312547D01*
X103113763Y-105077935D01*
X102851726Y-102820985D01*
X102769006Y-101143137D01*
X103085000Y-101143137D01*
X103085000Y-101356863D01*
X103126696Y-101566483D01*
X103208485Y-101763940D01*
X103327225Y-101941647D01*
X103478353Y-102092775D01*
X103656060Y-102211515D01*
X103853517Y-102293304D01*
X104063137Y-102335000D01*
X104276863Y-102335000D01*
X104486483Y-102293304D01*
X104683940Y-102211515D01*
X104861647Y-102092775D01*
X105012775Y-101941647D01*
X105131515Y-101763940D01*
X105213304Y-101566483D01*
X105255000Y-101356863D01*
X105255000Y-101143137D01*
X105213304Y-100933517D01*
X105131515Y-100736060D01*
X105012775Y-100558353D01*
X104861647Y-100407225D01*
X104683940Y-100288485D01*
X104486483Y-100206696D01*
X104276863Y-100165000D01*
X104063137Y-100165000D01*
X103853517Y-100206696D01*
X103656060Y-100288485D01*
X103478353Y-100407225D01*
X103327225Y-100558353D01*
X103208485Y-100736060D01*
X103126696Y-100933517D01*
X103085000Y-101143137D01*
X102769006Y-101143137D01*
X102739845Y-100551658D01*
X102778607Y-98279882D01*
X102790035Y-98143137D01*
X103085000Y-98143137D01*
X103085000Y-98356863D01*
X103126696Y-98566483D01*
X103208485Y-98763940D01*
X103327225Y-98941647D01*
X103478353Y-99092775D01*
X103656060Y-99211515D01*
X103853517Y-99293304D01*
X104063137Y-99335000D01*
X104276863Y-99335000D01*
X104486483Y-99293304D01*
X104683940Y-99211515D01*
X104861647Y-99092775D01*
X105012775Y-98941647D01*
X105131515Y-98763940D01*
X105213304Y-98566483D01*
X105255000Y-98356863D01*
X105255000Y-98143137D01*
X105213304Y-97933517D01*
X105131515Y-97736060D01*
X105012775Y-97558353D01*
X104861647Y-97407225D01*
X104683940Y-97288485D01*
X104486483Y-97206696D01*
X104276863Y-97165000D01*
X104063137Y-97165000D01*
X103853517Y-97206696D01*
X103656060Y-97288485D01*
X103478353Y-97407225D01*
X103327225Y-97558353D01*
X103208485Y-97736060D01*
X103126696Y-97933517D01*
X103085000Y-98143137D01*
X102790035Y-98143137D01*
X102967842Y-96015687D01*
X103306719Y-93768999D01*
X103793749Y-91549706D01*
X104426782Y-89367594D01*
X105203052Y-87232203D01*
X106119133Y-85152960D01*
X107170992Y-83139015D01*
X108354015Y-81199200D01*
X109663000Y-79342048D01*
X111092189Y-77575730D01*
X112635284Y-75908027D01*
X113966613Y-74648061D01*
X120715000Y-74648061D01*
X120715000Y-74851939D01*
X120754774Y-75051898D01*
X120832795Y-75240256D01*
X120946063Y-75409774D01*
X121090226Y-75553937D01*
X121259744Y-75667205D01*
X121448102Y-75745226D01*
X121512724Y-75758080D01*
X121524188Y-75874482D01*
X121560498Y-75994180D01*
X121619463Y-76104494D01*
X121698815Y-76201185D01*
X121795506Y-76280537D01*
X121905820Y-76339502D01*
X122025518Y-76375812D01*
X122150000Y-76388072D01*
X122620375Y-76388072D01*
X122699999Y-76395914D01*
X122779623Y-76388072D01*
X123250000Y-76388072D01*
X123374482Y-76375812D01*
X123494180Y-76339502D01*
X123604494Y-76280537D01*
X123701185Y-76201185D01*
X123750000Y-76141704D01*
X123798815Y-76201185D01*
X123895506Y-76280537D01*
X124005820Y-76339502D01*
X124125518Y-76375812D01*
X124250000Y-76388072D01*
X124514250Y-76385000D01*
X124673000Y-76226250D01*
X124673000Y-75502000D01*
X124927000Y-75502000D01*
X124927000Y-76226250D01*
X125085750Y-76385000D01*
X125350000Y-76388072D01*
X125474482Y-76375812D01*
X125594180Y-76339502D01*
X125704494Y-76280537D01*
X125801185Y-76201185D01*
X125880537Y-76104494D01*
X125939502Y-75994180D01*
X125975812Y-75874482D01*
X125988072Y-75750000D01*
X125985000Y-75660750D01*
X125826250Y-75502000D01*
X124927000Y-75502000D01*
X124673000Y-75502000D01*
X124653000Y-75502000D01*
X124653000Y-75248000D01*
X124673000Y-75248000D01*
X124673000Y-74252000D01*
X124927000Y-74252000D01*
X124927000Y-75248000D01*
X125826250Y-75248000D01*
X125985000Y-75089250D01*
X125988072Y-75000000D01*
X125975812Y-74875518D01*
X125939502Y-74755820D01*
X125936391Y-74750000D01*
X125939502Y-74744180D01*
X125975812Y-74624482D01*
X125988072Y-74500000D01*
X125985000Y-74410750D01*
X125826250Y-74252000D01*
X124927000Y-74252000D01*
X124673000Y-74252000D01*
X124653000Y-74252000D01*
X124653000Y-73998000D01*
X124673000Y-73998000D01*
X124673000Y-73273750D01*
X124927000Y-73273750D01*
X124927000Y-73998000D01*
X125826250Y-73998000D01*
X125985000Y-73839250D01*
X125988072Y-73750000D01*
X125975812Y-73625518D01*
X125939502Y-73505820D01*
X125880537Y-73395506D01*
X125801185Y-73298815D01*
X125704494Y-73219463D01*
X125594180Y-73160498D01*
X125474482Y-73124188D01*
X125350000Y-73111928D01*
X125085750Y-73115000D01*
X124927000Y-73273750D01*
X124673000Y-73273750D01*
X124514250Y-73115000D01*
X124250000Y-73111928D01*
X124125518Y-73124188D01*
X124005820Y-73160498D01*
X123895506Y-73219463D01*
X123798815Y-73298815D01*
X123750000Y-73358296D01*
X123701185Y-73298815D01*
X123604494Y-73219463D01*
X123494180Y-73160498D01*
X123374482Y-73124188D01*
X123250000Y-73111928D01*
X122779623Y-73111928D01*
X122699999Y-73104086D01*
X122620375Y-73111928D01*
X122150000Y-73111928D01*
X122025518Y-73124188D01*
X121905820Y-73160498D01*
X121795506Y-73219463D01*
X121698815Y-73298815D01*
X121619463Y-73395506D01*
X121560498Y-73505820D01*
X121524188Y-73625518D01*
X121512724Y-73741920D01*
X121448102Y-73754774D01*
X121259744Y-73832795D01*
X121090226Y-73946063D01*
X120946063Y-74090226D01*
X120832795Y-74259744D01*
X120754774Y-74448102D01*
X120715000Y-74648061D01*
X113966613Y-74648061D01*
X114285522Y-74346247D01*
X116035631Y-72897273D01*
X117877934Y-71567463D01*
X119804304Y-70362683D01*
X121806298Y-69288211D01*
X123875077Y-68348792D01*
X126001593Y-67548534D01*
X128186747Y-66887862D01*
X128436510Y-66822338D01*
X128452528Y-66817563D01*
X128459226Y-66815987D01*
X128804024Y-66713600D01*
X128807380Y-66712269D01*
X128810916Y-66711517D01*
X128890228Y-66682021D01*
X129704199Y-66324712D01*
X129724464Y-66313571D01*
X129745874Y-66304834D01*
X129818696Y-66261767D01*
X129818710Y-66261759D01*
X129818715Y-66261755D01*
X130556543Y-65765956D01*
X130574511Y-65751406D01*
X130594041Y-65739012D01*
X130658097Y-65683720D01*
X131296470Y-65065093D01*
X131311582Y-65047586D01*
X131328603Y-65031934D01*
X131381840Y-64966192D01*
X131381856Y-64966173D01*
X131381861Y-64966165D01*
X131900590Y-64244277D01*
X131912363Y-64224370D01*
X131926343Y-64205952D01*
X131967109Y-64131800D01*
X132349809Y-63329453D01*
X132357869Y-63307780D01*
X132368369Y-63287173D01*
X132395359Y-63206974D01*
X132629927Y-62349538D01*
X132634022Y-62326778D01*
X132640706Y-62304640D01*
X132653067Y-62220928D01*
X132731782Y-61338949D01*
X132735000Y-61306272D01*
X132735000Y-60032731D01*
X132762021Y-59729963D01*
X134258266Y-59729963D01*
X134258266Y-60270037D01*
X134363629Y-60799734D01*
X134570307Y-61298698D01*
X134870356Y-61747753D01*
X135252247Y-62129644D01*
X135701302Y-62429693D01*
X136200266Y-62636371D01*
X136729963Y-62741734D01*
X137270037Y-62741734D01*
X137799734Y-62636371D01*
X138298698Y-62429693D01*
X138747753Y-62129644D01*
X139129644Y-61747753D01*
X139429693Y-61298698D01*
X139636371Y-60799734D01*
X139741734Y-60270037D01*
X139741734Y-59729963D01*
X139636371Y-59200266D01*
X139429693Y-58701302D01*
X139129644Y-58252247D01*
X138747753Y-57870356D01*
X138298698Y-57570307D01*
X137799734Y-57363629D01*
X137270037Y-57258266D01*
X136729963Y-57258266D01*
X136200266Y-57363629D01*
X135701302Y-57570307D01*
X135252247Y-57870356D01*
X134870356Y-58252247D01*
X134570307Y-58701302D01*
X134363629Y-59200266D01*
X134258266Y-59729963D01*
X132762021Y-59729963D01*
X132805281Y-59245253D01*
X133005231Y-58514357D01*
X133331450Y-57830425D01*
X133773626Y-57215072D01*
X134317789Y-56687741D01*
X134946726Y-56265114D01*
X135640570Y-55960537D01*
X136377386Y-55783643D01*
X137133871Y-55740024D01*
X137886138Y-55831059D01*
G37*
%TD.AperFunction*%
%TD*%
M02*
