%TF.GenerationSoftware,KiCad,Pcbnew,(5.1.10)-1*%
%TF.CreationDate,2021-10-20T07:51:27+02:00*%
%TF.ProjectId,TVZ_kuglica,54565a5f-6b75-4676-9c69-63612e6b6963,rev?*%
%TF.SameCoordinates,Original*%
%TF.FileFunction,Copper,L2,Bot*%
%TF.FilePolarity,Positive*%
%FSLAX46Y46*%
G04 Gerber Fmt 4.6, Leading zero omitted, Abs format (unit mm)*
G04 Created by KiCad (PCBNEW (5.1.10)-1) date 2021-10-20 07:51:27*
%MOMM*%
%LPD*%
G01*
G04 APERTURE LIST*
%TA.AperFunction,SMDPad,CuDef*%
%ADD10R,1.500000X0.700000*%
%TD*%
%TA.AperFunction,SMDPad,CuDef*%
%ADD11R,0.800000X1.000000*%
%TD*%
%TA.AperFunction,SMDPad,CuDef*%
%ADD12R,3.800000X3.500000*%
%TD*%
%TA.AperFunction,SMDPad,CuDef*%
%ADD13R,2.800000X5.700000*%
%TD*%
%TA.AperFunction,ViaPad*%
%ADD14C,0.800000*%
%TD*%
%TA.AperFunction,Conductor*%
%ADD15C,0.762000*%
%TD*%
%TA.AperFunction,Conductor*%
%ADD16C,0.254000*%
%TD*%
%TA.AperFunction,Conductor*%
%ADD17C,0.100000*%
%TD*%
G04 APERTURE END LIST*
D10*
%TO.P,SW1,1*%
%TO.N,Net-(R1-Pad1)*%
X105930000Y-102000000D03*
%TO.P,SW1,2*%
%TO.N,VCC*%
X105930000Y-99000000D03*
%TO.P,SW1,3*%
%TO.N,Net-(SW1-Pad3)*%
X105930000Y-97500000D03*
D11*
%TO.P,SW1,*%
%TO.N,*%
X103070000Y-103400000D03*
X103070000Y-96100000D03*
X105280000Y-96100000D03*
X105280000Y-103400000D03*
%TD*%
D12*
%TO.P,BT1,1*%
%TO.N,VCC*%
X137000000Y-83000000D03*
D13*
%TO.P,BT1,2*%
%TO.N,GND*%
X137000000Y-105500000D03*
%TD*%
%TO.P,R1,1*%
%TO.N,Net-(R1-Pad1)*%
%TA.AperFunction,SMDPad,CuDef*%
G36*
G01*
X118775000Y-75025000D02*
X118775000Y-74475000D01*
G75*
G02*
X118975000Y-74275000I200000J0D01*
G01*
X119375000Y-74275000D01*
G75*
G02*
X119575000Y-74475000I0J-200000D01*
G01*
X119575000Y-75025000D01*
G75*
G02*
X119375000Y-75225000I-200000J0D01*
G01*
X118975000Y-75225000D01*
G75*
G02*
X118775000Y-75025000I0J200000D01*
G01*
G37*
%TD.AperFunction*%
%TO.P,R1,2*%
%TO.N,Net-(D3-Pad1)*%
%TA.AperFunction,SMDPad,CuDef*%
G36*
G01*
X120425000Y-75025000D02*
X120425000Y-74475000D01*
G75*
G02*
X120625000Y-74275000I200000J0D01*
G01*
X121025000Y-74275000D01*
G75*
G02*
X121225000Y-74475000I0J-200000D01*
G01*
X121225000Y-75025000D01*
G75*
G02*
X121025000Y-75225000I-200000J0D01*
G01*
X120625000Y-75225000D01*
G75*
G02*
X120425000Y-75025000I0J200000D01*
G01*
G37*
%TD.AperFunction*%
%TD*%
%TO.P,R2,2*%
%TO.N,Net-(D4-Pad1)*%
%TA.AperFunction,SMDPad,CuDef*%
G36*
G01*
X127425000Y-109275000D02*
X127425000Y-108725000D01*
G75*
G02*
X127625000Y-108525000I200000J0D01*
G01*
X128025000Y-108525000D01*
G75*
G02*
X128225000Y-108725000I0J-200000D01*
G01*
X128225000Y-109275000D01*
G75*
G02*
X128025000Y-109475000I-200000J0D01*
G01*
X127625000Y-109475000D01*
G75*
G02*
X127425000Y-109275000I0J200000D01*
G01*
G37*
%TD.AperFunction*%
%TO.P,R2,1*%
%TO.N,Net-(R1-Pad1)*%
%TA.AperFunction,SMDPad,CuDef*%
G36*
G01*
X125775000Y-109275000D02*
X125775000Y-108725000D01*
G75*
G02*
X125975000Y-108525000I200000J0D01*
G01*
X126375000Y-108525000D01*
G75*
G02*
X126575000Y-108725000I0J-200000D01*
G01*
X126575000Y-109275000D01*
G75*
G02*
X126375000Y-109475000I-200000J0D01*
G01*
X125975000Y-109475000D01*
G75*
G02*
X125775000Y-109275000I0J200000D01*
G01*
G37*
%TD.AperFunction*%
%TD*%
%TO.P,R3,1*%
%TO.N,Net-(R1-Pad1)*%
%TA.AperFunction,SMDPad,CuDef*%
G36*
G01*
X154275000Y-111025000D02*
X154275000Y-110475000D01*
G75*
G02*
X154475000Y-110275000I200000J0D01*
G01*
X154875000Y-110275000D01*
G75*
G02*
X155075000Y-110475000I0J-200000D01*
G01*
X155075000Y-111025000D01*
G75*
G02*
X154875000Y-111225000I-200000J0D01*
G01*
X154475000Y-111225000D01*
G75*
G02*
X154275000Y-111025000I0J200000D01*
G01*
G37*
%TD.AperFunction*%
%TO.P,R3,2*%
%TO.N,Net-(D8-Pad1)*%
%TA.AperFunction,SMDPad,CuDef*%
G36*
G01*
X155925000Y-111025000D02*
X155925000Y-110475000D01*
G75*
G02*
X156125000Y-110275000I200000J0D01*
G01*
X156525000Y-110275000D01*
G75*
G02*
X156725000Y-110475000I0J-200000D01*
G01*
X156725000Y-111025000D01*
G75*
G02*
X156525000Y-111225000I-200000J0D01*
G01*
X156125000Y-111225000D01*
G75*
G02*
X155925000Y-111025000I0J200000D01*
G01*
G37*
%TD.AperFunction*%
%TD*%
D14*
%TO.N,GND*%
X140000000Y-74000000D03*
X119500000Y-80000000D03*
X106500000Y-87750000D03*
X120000000Y-90000000D03*
X127000000Y-101500000D03*
X146750000Y-104250000D03*
X166250000Y-107000000D03*
X157500000Y-91250000D03*
X151500000Y-115750000D03*
X113250000Y-115000000D03*
X119000000Y-106500000D03*
X121250000Y-125250000D03*
X132750000Y-124750000D03*
X139500000Y-131500000D03*
X153750000Y-125500000D03*
X160750000Y-80250000D03*
X125750000Y-74750000D03*
X132750000Y-109000000D03*
X161250000Y-110750000D03*
%TO.N,Net-(D3-Pad1)*%
X121750000Y-74750000D03*
%TO.N,Net-(D4-Pad1)*%
X128750000Y-109000000D03*
%TO.N,Net-(D8-Pad1)*%
X157250000Y-110750000D03*
%TD*%
D15*
%TO.N,VCC*%
X137000000Y-83000000D02*
X137000000Y-77750000D01*
X137000000Y-77750000D02*
X132000000Y-72750000D01*
X132000000Y-72750000D02*
X118000000Y-72750000D01*
X118000000Y-72750000D02*
X114250000Y-76500000D01*
X114250000Y-76500000D02*
X114250000Y-96250000D01*
X111500000Y-99000000D02*
X105930000Y-99000000D01*
X114250000Y-96250000D02*
X111500000Y-99000000D01*
%TO.N,Net-(D3-Pad1)*%
X120825000Y-74750000D02*
X121750000Y-74750000D01*
%TO.N,Net-(D4-Pad1)*%
X127825000Y-109000000D02*
X128750000Y-109000000D01*
%TO.N,Net-(D8-Pad1)*%
X156325000Y-110750000D02*
X157250000Y-110750000D01*
%TO.N,Net-(R1-Pad1)*%
X154675000Y-110750000D02*
X126750000Y-110750000D01*
X126175000Y-110175000D02*
X126175000Y-109000000D01*
X126750000Y-110750000D02*
X126175000Y-110175000D01*
X126175000Y-109000000D02*
X126175000Y-106675000D01*
X126175000Y-106675000D02*
X121500000Y-102000000D01*
X119175000Y-74750000D02*
X118000000Y-74750000D01*
X118000000Y-74750000D02*
X116750000Y-76000000D01*
X116750000Y-101250000D02*
X116000000Y-102000000D01*
X116000000Y-102000000D02*
X105930000Y-102000000D01*
X116750000Y-102000000D02*
X116000000Y-102000000D01*
X116750000Y-76000000D02*
X116750000Y-101250000D01*
X116750000Y-101250000D02*
X116750000Y-102000000D01*
X116750000Y-101250000D02*
X117500000Y-102000000D01*
X117500000Y-102000000D02*
X116750000Y-102000000D01*
X121500000Y-102000000D02*
X117500000Y-102000000D01*
%TD*%
D16*
%TO.N,GND*%
X137886138Y-55831059D02*
X138610388Y-56053867D01*
X139283738Y-56401409D01*
X139884901Y-56862699D01*
X140394872Y-57423149D01*
X140797540Y-58065057D01*
X141080170Y-58768122D01*
X141236190Y-59521513D01*
X141265000Y-60021169D01*
X141265001Y-61306272D01*
X141266298Y-61319440D01*
X141278413Y-61656049D01*
X141278863Y-61659632D01*
X141278707Y-61663242D01*
X141287438Y-61747410D01*
X141429908Y-62624862D01*
X141435629Y-62647269D01*
X141438736Y-62670183D01*
X141462234Y-62751474D01*
X141757835Y-63589830D01*
X141767433Y-63610870D01*
X141774549Y-63632871D01*
X141812059Y-63708691D01*
X141812071Y-63708717D01*
X141812077Y-63708725D01*
X142251461Y-64481476D01*
X142264630Y-64500478D01*
X142275533Y-64520879D01*
X142325894Y-64588881D01*
X142895182Y-65271616D01*
X142911512Y-65287990D01*
X142925851Y-65306132D01*
X142987458Y-65364142D01*
X143668651Y-65935276D01*
X143687625Y-65948502D01*
X143704950Y-65963817D01*
X143775855Y-66010000D01*
X144547423Y-66451478D01*
X144568436Y-66461133D01*
X144588200Y-66473139D01*
X144666163Y-66506036D01*
X145503715Y-66803905D01*
X145508021Y-66805017D01*
X145525587Y-66811299D01*
X145542755Y-66816572D01*
X147746053Y-67464098D01*
X149878711Y-68247813D01*
X151954729Y-69171140D01*
X153965017Y-70230036D01*
X155900673Y-71419812D01*
X157753239Y-72735268D01*
X159514561Y-74170616D01*
X161176886Y-75719540D01*
X162732884Y-77375207D01*
X164175738Y-79130360D01*
X165499106Y-80977290D01*
X166697162Y-82907865D01*
X167764630Y-84913581D01*
X168696830Y-86985643D01*
X169489658Y-89114933D01*
X170139624Y-91292080D01*
X170643873Y-93507517D01*
X171000188Y-95751501D01*
X171207004Y-98014175D01*
X171263407Y-100285560D01*
X171169153Y-102555700D01*
X170924654Y-104814605D01*
X170530986Y-107052337D01*
X169989882Y-109259064D01*
X169303718Y-111425077D01*
X168475512Y-113540851D01*
X167508906Y-115597090D01*
X166408155Y-117584736D01*
X165178083Y-119495080D01*
X163824120Y-121319689D01*
X162352204Y-123050560D01*
X160768823Y-124680064D01*
X159080926Y-126201055D01*
X157295931Y-127606843D01*
X155421695Y-128891239D01*
X153466456Y-130048599D01*
X151438820Y-131073832D01*
X149347702Y-131962428D01*
X147202263Y-132710493D01*
X145011999Y-133314718D01*
X142786467Y-133772464D01*
X140535523Y-134081705D01*
X138269022Y-134241089D01*
X135996953Y-134249911D01*
X133729262Y-134108134D01*
X131475992Y-133816385D01*
X129246983Y-133375938D01*
X127052076Y-132788738D01*
X124900917Y-132057366D01*
X122802939Y-131185029D01*
X120767401Y-130175574D01*
X118803237Y-129033435D01*
X116919085Y-127763634D01*
X115123223Y-126371749D01*
X113423564Y-124863914D01*
X111827572Y-123246751D01*
X110342263Y-121527368D01*
X108974171Y-119713331D01*
X107729304Y-117812605D01*
X106613144Y-115833557D01*
X105630601Y-113784897D01*
X104785986Y-111675609D01*
X104083026Y-109515005D01*
X103524797Y-107312547D01*
X103113763Y-105077935D01*
X103051083Y-104538072D01*
X103470000Y-104538072D01*
X103594482Y-104525812D01*
X103714180Y-104489502D01*
X103824494Y-104430537D01*
X103921185Y-104351185D01*
X104000537Y-104254494D01*
X104059502Y-104144180D01*
X104095812Y-104024482D01*
X104108072Y-103900000D01*
X104108072Y-102900000D01*
X104095812Y-102775518D01*
X104059502Y-102655820D01*
X104000537Y-102545506D01*
X103921185Y-102448815D01*
X103824494Y-102369463D01*
X103714180Y-102310498D01*
X103594482Y-102274188D01*
X103470000Y-102261928D01*
X102824164Y-102261928D01*
X102739845Y-100551658D01*
X102778607Y-98279882D01*
X102790035Y-98143137D01*
X103085000Y-98143137D01*
X103085000Y-98356863D01*
X103126696Y-98566483D01*
X103208485Y-98763940D01*
X103327225Y-98941647D01*
X103478353Y-99092775D01*
X103656060Y-99211515D01*
X103853517Y-99293304D01*
X104063137Y-99335000D01*
X104276863Y-99335000D01*
X104486483Y-99293304D01*
X104541928Y-99270338D01*
X104541928Y-99350000D01*
X104554188Y-99474482D01*
X104590498Y-99594180D01*
X104649463Y-99704494D01*
X104728815Y-99801185D01*
X104825506Y-99880537D01*
X104935820Y-99939502D01*
X105055518Y-99975812D01*
X105180000Y-99988072D01*
X105687229Y-99988072D01*
X105730829Y-100001298D01*
X105880098Y-100016000D01*
X111450098Y-100016000D01*
X111500000Y-100020915D01*
X111549902Y-100016000D01*
X111699171Y-100001298D01*
X111890687Y-99943202D01*
X112067190Y-99848860D01*
X112221896Y-99721896D01*
X112253712Y-99683128D01*
X114933133Y-97003708D01*
X114971896Y-96971896D01*
X115098860Y-96817190D01*
X115193202Y-96640687D01*
X115251298Y-96449171D01*
X115266000Y-96299902D01*
X115266000Y-96299895D01*
X115270914Y-96250001D01*
X115266000Y-96200107D01*
X115266000Y-76920840D01*
X115734000Y-76452840D01*
X115734001Y-100829158D01*
X115579160Y-100984000D01*
X105880098Y-100984000D01*
X105730829Y-100998702D01*
X105687229Y-101011928D01*
X105228901Y-101011928D01*
X105213304Y-100933517D01*
X105131515Y-100736060D01*
X105012775Y-100558353D01*
X104861647Y-100407225D01*
X104683940Y-100288485D01*
X104486483Y-100206696D01*
X104276863Y-100165000D01*
X104063137Y-100165000D01*
X103853517Y-100206696D01*
X103656060Y-100288485D01*
X103478353Y-100407225D01*
X103327225Y-100558353D01*
X103208485Y-100736060D01*
X103126696Y-100933517D01*
X103085000Y-101143137D01*
X103085000Y-101356863D01*
X103126696Y-101566483D01*
X103208485Y-101763940D01*
X103327225Y-101941647D01*
X103478353Y-102092775D01*
X103656060Y-102211515D01*
X103853517Y-102293304D01*
X104063137Y-102335000D01*
X104276863Y-102335000D01*
X104486483Y-102293304D01*
X104541928Y-102270338D01*
X104541928Y-102350000D01*
X104542928Y-102360151D01*
X104525506Y-102369463D01*
X104428815Y-102448815D01*
X104349463Y-102545506D01*
X104290498Y-102655820D01*
X104254188Y-102775518D01*
X104241928Y-102900000D01*
X104241928Y-103900000D01*
X104254188Y-104024482D01*
X104290498Y-104144180D01*
X104349463Y-104254494D01*
X104428815Y-104351185D01*
X104525506Y-104430537D01*
X104635820Y-104489502D01*
X104755518Y-104525812D01*
X104880000Y-104538072D01*
X105680000Y-104538072D01*
X105804482Y-104525812D01*
X105924180Y-104489502D01*
X106034494Y-104430537D01*
X106131185Y-104351185D01*
X106210537Y-104254494D01*
X106269502Y-104144180D01*
X106305812Y-104024482D01*
X106318072Y-103900000D01*
X106318072Y-103016000D01*
X115950098Y-103016000D01*
X116000000Y-103020915D01*
X116049902Y-103016000D01*
X116700098Y-103016000D01*
X116750000Y-103020915D01*
X116799902Y-103016000D01*
X117450105Y-103016000D01*
X117499999Y-103020914D01*
X117549893Y-103016000D01*
X121079160Y-103016000D01*
X125159001Y-107095842D01*
X125159000Y-108541822D01*
X125153031Y-108561500D01*
X125136928Y-108725000D01*
X125136928Y-109275000D01*
X125153031Y-109438500D01*
X125159001Y-109458179D01*
X125159000Y-110125098D01*
X125154085Y-110175000D01*
X125159000Y-110224901D01*
X125173702Y-110374170D01*
X125231798Y-110565686D01*
X125326140Y-110742190D01*
X125453104Y-110896896D01*
X125491873Y-110928713D01*
X125996287Y-111433127D01*
X126028104Y-111471896D01*
X126182810Y-111598860D01*
X126310676Y-111667205D01*
X126359313Y-111693202D01*
X126550829Y-111751298D01*
X126750000Y-111770915D01*
X126799902Y-111766000D01*
X154092026Y-111766000D01*
X154154284Y-111799278D01*
X154311500Y-111846969D01*
X154475000Y-111863072D01*
X154875000Y-111863072D01*
X155038500Y-111846969D01*
X155195716Y-111799278D01*
X155340608Y-111721831D01*
X155467606Y-111617606D01*
X155500000Y-111578134D01*
X155532394Y-111617606D01*
X155659392Y-111721831D01*
X155804284Y-111799278D01*
X155961500Y-111846969D01*
X156125000Y-111863072D01*
X156525000Y-111863072D01*
X156688500Y-111846969D01*
X156845716Y-111799278D01*
X156907974Y-111766000D01*
X157052541Y-111766000D01*
X157148061Y-111785000D01*
X157351939Y-111785000D01*
X157551898Y-111745226D01*
X157740256Y-111667205D01*
X157909774Y-111553937D01*
X158053937Y-111409774D01*
X158167205Y-111240256D01*
X158245226Y-111051898D01*
X158285000Y-110851939D01*
X158285000Y-110648061D01*
X158245226Y-110448102D01*
X158167205Y-110259744D01*
X158053937Y-110090226D01*
X157909774Y-109946063D01*
X157740256Y-109832795D01*
X157551898Y-109754774D01*
X157351939Y-109715000D01*
X157148061Y-109715000D01*
X157052541Y-109734000D01*
X156907974Y-109734000D01*
X156845716Y-109700722D01*
X156688500Y-109653031D01*
X156525000Y-109636928D01*
X156125000Y-109636928D01*
X155961500Y-109653031D01*
X155804284Y-109700722D01*
X155659392Y-109778169D01*
X155532394Y-109882394D01*
X155500000Y-109921866D01*
X155467606Y-109882394D01*
X155340608Y-109778169D01*
X155195716Y-109700722D01*
X155038500Y-109653031D01*
X154875000Y-109636928D01*
X154475000Y-109636928D01*
X154311500Y-109653031D01*
X154154284Y-109700722D01*
X154092026Y-109734000D01*
X129479711Y-109734000D01*
X129553937Y-109659774D01*
X129667205Y-109490256D01*
X129745226Y-109301898D01*
X129785000Y-109101939D01*
X129785000Y-108898061D01*
X129745226Y-108698102D01*
X129667205Y-108509744D01*
X129553937Y-108340226D01*
X129409774Y-108196063D01*
X129240256Y-108082795D01*
X129051898Y-108004774D01*
X128851939Y-107965000D01*
X128648061Y-107965000D01*
X128552541Y-107984000D01*
X128407974Y-107984000D01*
X128345716Y-107950722D01*
X128188500Y-107903031D01*
X128025000Y-107886928D01*
X127625000Y-107886928D01*
X127461500Y-107903031D01*
X127304284Y-107950722D01*
X127191000Y-108011274D01*
X127191000Y-106724893D01*
X127195914Y-106674999D01*
X127191000Y-106625105D01*
X127191000Y-106625098D01*
X127176298Y-106475829D01*
X127174978Y-106471475D01*
X127158674Y-106417732D01*
X127118202Y-106284313D01*
X127023860Y-106107810D01*
X126896896Y-105953104D01*
X126858133Y-105921292D01*
X122253712Y-101316872D01*
X122221896Y-101278104D01*
X122067190Y-101151140D01*
X121890687Y-101056798D01*
X121699171Y-100998702D01*
X121549902Y-100984000D01*
X121500000Y-100979085D01*
X121450098Y-100984000D01*
X117920841Y-100984000D01*
X117766000Y-100829160D01*
X117766000Y-76420840D01*
X118420841Y-75766000D01*
X118592026Y-75766000D01*
X118654284Y-75799278D01*
X118811500Y-75846969D01*
X118975000Y-75863072D01*
X119375000Y-75863072D01*
X119538500Y-75846969D01*
X119695716Y-75799278D01*
X119840608Y-75721831D01*
X119967606Y-75617606D01*
X120000000Y-75578134D01*
X120032394Y-75617606D01*
X120159392Y-75721831D01*
X120304284Y-75799278D01*
X120461500Y-75846969D01*
X120625000Y-75863072D01*
X121025000Y-75863072D01*
X121188500Y-75846969D01*
X121345716Y-75799278D01*
X121407974Y-75766000D01*
X121552541Y-75766000D01*
X121648061Y-75785000D01*
X121851939Y-75785000D01*
X122051898Y-75745226D01*
X122240256Y-75667205D01*
X122409774Y-75553937D01*
X122553937Y-75409774D01*
X122667205Y-75240256D01*
X122745226Y-75051898D01*
X122785000Y-74851939D01*
X122785000Y-74648061D01*
X122745226Y-74448102D01*
X122667205Y-74259744D01*
X122553937Y-74090226D01*
X122409774Y-73946063D01*
X122240256Y-73832795D01*
X122079000Y-73766000D01*
X131579160Y-73766000D01*
X135984001Y-78170842D01*
X135984000Y-80611928D01*
X135100000Y-80611928D01*
X134975518Y-80624188D01*
X134855820Y-80660498D01*
X134745506Y-80719463D01*
X134648815Y-80798815D01*
X134569463Y-80895506D01*
X134510498Y-81005820D01*
X134474188Y-81125518D01*
X134461928Y-81250000D01*
X134461928Y-84750000D01*
X134474188Y-84874482D01*
X134510498Y-84994180D01*
X134569463Y-85104494D01*
X134648815Y-85201185D01*
X134745506Y-85280537D01*
X134855820Y-85339502D01*
X134975518Y-85375812D01*
X135100000Y-85388072D01*
X138900000Y-85388072D01*
X139024482Y-85375812D01*
X139144180Y-85339502D01*
X139254494Y-85280537D01*
X139351185Y-85201185D01*
X139430537Y-85104494D01*
X139489502Y-84994180D01*
X139525812Y-84874482D01*
X139538072Y-84750000D01*
X139538072Y-81250000D01*
X139525812Y-81125518D01*
X139489502Y-81005820D01*
X139430537Y-80895506D01*
X139351185Y-80798815D01*
X139254494Y-80719463D01*
X139144180Y-80660498D01*
X139024482Y-80624188D01*
X138900000Y-80611928D01*
X138016000Y-80611928D01*
X138016000Y-77799902D01*
X138020915Y-77750000D01*
X138001298Y-77550829D01*
X137943202Y-77359313D01*
X137935857Y-77345571D01*
X137848860Y-77182810D01*
X137721896Y-77028104D01*
X137683133Y-76996292D01*
X132753712Y-72066872D01*
X132721896Y-72028104D01*
X132567190Y-71901140D01*
X132390687Y-71806798D01*
X132199171Y-71748702D01*
X132049902Y-71734000D01*
X132000000Y-71729085D01*
X131950098Y-71734000D01*
X118049902Y-71734000D01*
X118000000Y-71729085D01*
X117950098Y-71734000D01*
X117922330Y-71736735D01*
X117800829Y-71748702D01*
X117609312Y-71806798D01*
X117582256Y-71821260D01*
X117432810Y-71901140D01*
X117278104Y-72028104D01*
X117246292Y-72066867D01*
X113566872Y-75746288D01*
X113528104Y-75778104D01*
X113401140Y-75932810D01*
X113306798Y-76109314D01*
X113271464Y-76225794D01*
X113248702Y-76300830D01*
X113229085Y-76500000D01*
X113234000Y-76549902D01*
X113234001Y-95829158D01*
X111079160Y-97984000D01*
X107302925Y-97984000D01*
X107305812Y-97974482D01*
X107318072Y-97850000D01*
X107318072Y-97150000D01*
X107305812Y-97025518D01*
X107269502Y-96905820D01*
X107210537Y-96795506D01*
X107131185Y-96698815D01*
X107034494Y-96619463D01*
X106924180Y-96560498D01*
X106804482Y-96524188D01*
X106680000Y-96511928D01*
X106318072Y-96511928D01*
X106318072Y-95600000D01*
X106305812Y-95475518D01*
X106269502Y-95355820D01*
X106210537Y-95245506D01*
X106131185Y-95148815D01*
X106034494Y-95069463D01*
X105924180Y-95010498D01*
X105804482Y-94974188D01*
X105680000Y-94961928D01*
X104880000Y-94961928D01*
X104755518Y-94974188D01*
X104635820Y-95010498D01*
X104525506Y-95069463D01*
X104428815Y-95148815D01*
X104349463Y-95245506D01*
X104290498Y-95355820D01*
X104254188Y-95475518D01*
X104241928Y-95600000D01*
X104241928Y-96600000D01*
X104254188Y-96724482D01*
X104290498Y-96844180D01*
X104349463Y-96954494D01*
X104428815Y-97051185D01*
X104525506Y-97130537D01*
X104542928Y-97139849D01*
X104541928Y-97150000D01*
X104541928Y-97229662D01*
X104486483Y-97206696D01*
X104276863Y-97165000D01*
X104063137Y-97165000D01*
X103853517Y-97206696D01*
X103656060Y-97288485D01*
X103478353Y-97407225D01*
X103327225Y-97558353D01*
X103208485Y-97736060D01*
X103126696Y-97933517D01*
X103085000Y-98143137D01*
X102790035Y-98143137D01*
X102865678Y-97238072D01*
X103470000Y-97238072D01*
X103594482Y-97225812D01*
X103714180Y-97189502D01*
X103824494Y-97130537D01*
X103921185Y-97051185D01*
X104000537Y-96954494D01*
X104059502Y-96844180D01*
X104095812Y-96724482D01*
X104108072Y-96600000D01*
X104108072Y-95600000D01*
X104095812Y-95475518D01*
X104059502Y-95355820D01*
X104000537Y-95245506D01*
X103921185Y-95148815D01*
X103824494Y-95069463D01*
X103714180Y-95010498D01*
X103594482Y-94974188D01*
X103470000Y-94961928D01*
X103126785Y-94961928D01*
X103306719Y-93768999D01*
X103793749Y-91549706D01*
X104426782Y-89367594D01*
X105203052Y-87232203D01*
X106119133Y-85152960D01*
X107170992Y-83139015D01*
X108354015Y-81199200D01*
X109663000Y-79342048D01*
X111092189Y-77575730D01*
X112635284Y-75908027D01*
X114285522Y-74346247D01*
X116035631Y-72897273D01*
X117877934Y-71567463D01*
X119804304Y-70362683D01*
X121806298Y-69288211D01*
X123875077Y-68348792D01*
X126001593Y-67548534D01*
X128186747Y-66887862D01*
X128436510Y-66822338D01*
X128452528Y-66817563D01*
X128459226Y-66815987D01*
X128804024Y-66713600D01*
X128807380Y-66712269D01*
X128810916Y-66711517D01*
X128890228Y-66682021D01*
X129704199Y-66324712D01*
X129724464Y-66313571D01*
X129745874Y-66304834D01*
X129818696Y-66261767D01*
X129818710Y-66261759D01*
X129818715Y-66261755D01*
X130556543Y-65765956D01*
X130574511Y-65751406D01*
X130594041Y-65739012D01*
X130658097Y-65683720D01*
X131296470Y-65065093D01*
X131311582Y-65047586D01*
X131328603Y-65031934D01*
X131381840Y-64966192D01*
X131381856Y-64966173D01*
X131381861Y-64966165D01*
X131900590Y-64244277D01*
X131912363Y-64224370D01*
X131926343Y-64205952D01*
X131967109Y-64131800D01*
X132349809Y-63329453D01*
X132357869Y-63307780D01*
X132368369Y-63287173D01*
X132395359Y-63206974D01*
X132629927Y-62349538D01*
X132634022Y-62326778D01*
X132640706Y-62304640D01*
X132653067Y-62220928D01*
X132731782Y-61338949D01*
X132735000Y-61306272D01*
X132735000Y-60032731D01*
X132762021Y-59729963D01*
X134258266Y-59729963D01*
X134258266Y-60270037D01*
X134363629Y-60799734D01*
X134570307Y-61298698D01*
X134870356Y-61747753D01*
X135252247Y-62129644D01*
X135701302Y-62429693D01*
X136200266Y-62636371D01*
X136729963Y-62741734D01*
X137270037Y-62741734D01*
X137799734Y-62636371D01*
X138298698Y-62429693D01*
X138747753Y-62129644D01*
X139129644Y-61747753D01*
X139429693Y-61298698D01*
X139636371Y-60799734D01*
X139741734Y-60270037D01*
X139741734Y-59729963D01*
X139636371Y-59200266D01*
X139429693Y-58701302D01*
X139129644Y-58252247D01*
X138747753Y-57870356D01*
X138298698Y-57570307D01*
X137799734Y-57363629D01*
X137270037Y-57258266D01*
X136729963Y-57258266D01*
X136200266Y-57363629D01*
X135701302Y-57570307D01*
X135252247Y-57870356D01*
X134870356Y-58252247D01*
X134570307Y-58701302D01*
X134363629Y-59200266D01*
X134258266Y-59729963D01*
X132762021Y-59729963D01*
X132805281Y-59245253D01*
X133005231Y-58514357D01*
X133331450Y-57830425D01*
X133773626Y-57215072D01*
X134317789Y-56687741D01*
X134946726Y-56265114D01*
X135640570Y-55960537D01*
X136377386Y-55783643D01*
X137133871Y-55740024D01*
X137886138Y-55831059D01*
%TA.AperFunction,Conductor*%
D17*
G36*
X137886138Y-55831059D02*
G01*
X138610388Y-56053867D01*
X139283738Y-56401409D01*
X139884901Y-56862699D01*
X140394872Y-57423149D01*
X140797540Y-58065057D01*
X141080170Y-58768122D01*
X141236190Y-59521513D01*
X141265000Y-60021169D01*
X141265001Y-61306272D01*
X141266298Y-61319440D01*
X141278413Y-61656049D01*
X141278863Y-61659632D01*
X141278707Y-61663242D01*
X141287438Y-61747410D01*
X141429908Y-62624862D01*
X141435629Y-62647269D01*
X141438736Y-62670183D01*
X141462234Y-62751474D01*
X141757835Y-63589830D01*
X141767433Y-63610870D01*
X141774549Y-63632871D01*
X141812059Y-63708691D01*
X141812071Y-63708717D01*
X141812077Y-63708725D01*
X142251461Y-64481476D01*
X142264630Y-64500478D01*
X142275533Y-64520879D01*
X142325894Y-64588881D01*
X142895182Y-65271616D01*
X142911512Y-65287990D01*
X142925851Y-65306132D01*
X142987458Y-65364142D01*
X143668651Y-65935276D01*
X143687625Y-65948502D01*
X143704950Y-65963817D01*
X143775855Y-66010000D01*
X144547423Y-66451478D01*
X144568436Y-66461133D01*
X144588200Y-66473139D01*
X144666163Y-66506036D01*
X145503715Y-66803905D01*
X145508021Y-66805017D01*
X145525587Y-66811299D01*
X145542755Y-66816572D01*
X147746053Y-67464098D01*
X149878711Y-68247813D01*
X151954729Y-69171140D01*
X153965017Y-70230036D01*
X155900673Y-71419812D01*
X157753239Y-72735268D01*
X159514561Y-74170616D01*
X161176886Y-75719540D01*
X162732884Y-77375207D01*
X164175738Y-79130360D01*
X165499106Y-80977290D01*
X166697162Y-82907865D01*
X167764630Y-84913581D01*
X168696830Y-86985643D01*
X169489658Y-89114933D01*
X170139624Y-91292080D01*
X170643873Y-93507517D01*
X171000188Y-95751501D01*
X171207004Y-98014175D01*
X171263407Y-100285560D01*
X171169153Y-102555700D01*
X170924654Y-104814605D01*
X170530986Y-107052337D01*
X169989882Y-109259064D01*
X169303718Y-111425077D01*
X168475512Y-113540851D01*
X167508906Y-115597090D01*
X166408155Y-117584736D01*
X165178083Y-119495080D01*
X163824120Y-121319689D01*
X162352204Y-123050560D01*
X160768823Y-124680064D01*
X159080926Y-126201055D01*
X157295931Y-127606843D01*
X155421695Y-128891239D01*
X153466456Y-130048599D01*
X151438820Y-131073832D01*
X149347702Y-131962428D01*
X147202263Y-132710493D01*
X145011999Y-133314718D01*
X142786467Y-133772464D01*
X140535523Y-134081705D01*
X138269022Y-134241089D01*
X135996953Y-134249911D01*
X133729262Y-134108134D01*
X131475992Y-133816385D01*
X129246983Y-133375938D01*
X127052076Y-132788738D01*
X124900917Y-132057366D01*
X122802939Y-131185029D01*
X120767401Y-130175574D01*
X118803237Y-129033435D01*
X116919085Y-127763634D01*
X115123223Y-126371749D01*
X113423564Y-124863914D01*
X111827572Y-123246751D01*
X110342263Y-121527368D01*
X108974171Y-119713331D01*
X107729304Y-117812605D01*
X106613144Y-115833557D01*
X105630601Y-113784897D01*
X104785986Y-111675609D01*
X104083026Y-109515005D01*
X103524797Y-107312547D01*
X103113763Y-105077935D01*
X103051083Y-104538072D01*
X103470000Y-104538072D01*
X103594482Y-104525812D01*
X103714180Y-104489502D01*
X103824494Y-104430537D01*
X103921185Y-104351185D01*
X104000537Y-104254494D01*
X104059502Y-104144180D01*
X104095812Y-104024482D01*
X104108072Y-103900000D01*
X104108072Y-102900000D01*
X104095812Y-102775518D01*
X104059502Y-102655820D01*
X104000537Y-102545506D01*
X103921185Y-102448815D01*
X103824494Y-102369463D01*
X103714180Y-102310498D01*
X103594482Y-102274188D01*
X103470000Y-102261928D01*
X102824164Y-102261928D01*
X102739845Y-100551658D01*
X102778607Y-98279882D01*
X102790035Y-98143137D01*
X103085000Y-98143137D01*
X103085000Y-98356863D01*
X103126696Y-98566483D01*
X103208485Y-98763940D01*
X103327225Y-98941647D01*
X103478353Y-99092775D01*
X103656060Y-99211515D01*
X103853517Y-99293304D01*
X104063137Y-99335000D01*
X104276863Y-99335000D01*
X104486483Y-99293304D01*
X104541928Y-99270338D01*
X104541928Y-99350000D01*
X104554188Y-99474482D01*
X104590498Y-99594180D01*
X104649463Y-99704494D01*
X104728815Y-99801185D01*
X104825506Y-99880537D01*
X104935820Y-99939502D01*
X105055518Y-99975812D01*
X105180000Y-99988072D01*
X105687229Y-99988072D01*
X105730829Y-100001298D01*
X105880098Y-100016000D01*
X111450098Y-100016000D01*
X111500000Y-100020915D01*
X111549902Y-100016000D01*
X111699171Y-100001298D01*
X111890687Y-99943202D01*
X112067190Y-99848860D01*
X112221896Y-99721896D01*
X112253712Y-99683128D01*
X114933133Y-97003708D01*
X114971896Y-96971896D01*
X115098860Y-96817190D01*
X115193202Y-96640687D01*
X115251298Y-96449171D01*
X115266000Y-96299902D01*
X115266000Y-96299895D01*
X115270914Y-96250001D01*
X115266000Y-96200107D01*
X115266000Y-76920840D01*
X115734000Y-76452840D01*
X115734001Y-100829158D01*
X115579160Y-100984000D01*
X105880098Y-100984000D01*
X105730829Y-100998702D01*
X105687229Y-101011928D01*
X105228901Y-101011928D01*
X105213304Y-100933517D01*
X105131515Y-100736060D01*
X105012775Y-100558353D01*
X104861647Y-100407225D01*
X104683940Y-100288485D01*
X104486483Y-100206696D01*
X104276863Y-100165000D01*
X104063137Y-100165000D01*
X103853517Y-100206696D01*
X103656060Y-100288485D01*
X103478353Y-100407225D01*
X103327225Y-100558353D01*
X103208485Y-100736060D01*
X103126696Y-100933517D01*
X103085000Y-101143137D01*
X103085000Y-101356863D01*
X103126696Y-101566483D01*
X103208485Y-101763940D01*
X103327225Y-101941647D01*
X103478353Y-102092775D01*
X103656060Y-102211515D01*
X103853517Y-102293304D01*
X104063137Y-102335000D01*
X104276863Y-102335000D01*
X104486483Y-102293304D01*
X104541928Y-102270338D01*
X104541928Y-102350000D01*
X104542928Y-102360151D01*
X104525506Y-102369463D01*
X104428815Y-102448815D01*
X104349463Y-102545506D01*
X104290498Y-102655820D01*
X104254188Y-102775518D01*
X104241928Y-102900000D01*
X104241928Y-103900000D01*
X104254188Y-104024482D01*
X104290498Y-104144180D01*
X104349463Y-104254494D01*
X104428815Y-104351185D01*
X104525506Y-104430537D01*
X104635820Y-104489502D01*
X104755518Y-104525812D01*
X104880000Y-104538072D01*
X105680000Y-104538072D01*
X105804482Y-104525812D01*
X105924180Y-104489502D01*
X106034494Y-104430537D01*
X106131185Y-104351185D01*
X106210537Y-104254494D01*
X106269502Y-104144180D01*
X106305812Y-104024482D01*
X106318072Y-103900000D01*
X106318072Y-103016000D01*
X115950098Y-103016000D01*
X116000000Y-103020915D01*
X116049902Y-103016000D01*
X116700098Y-103016000D01*
X116750000Y-103020915D01*
X116799902Y-103016000D01*
X117450105Y-103016000D01*
X117499999Y-103020914D01*
X117549893Y-103016000D01*
X121079160Y-103016000D01*
X125159001Y-107095842D01*
X125159000Y-108541822D01*
X125153031Y-108561500D01*
X125136928Y-108725000D01*
X125136928Y-109275000D01*
X125153031Y-109438500D01*
X125159001Y-109458179D01*
X125159000Y-110125098D01*
X125154085Y-110175000D01*
X125159000Y-110224901D01*
X125173702Y-110374170D01*
X125231798Y-110565686D01*
X125326140Y-110742190D01*
X125453104Y-110896896D01*
X125491873Y-110928713D01*
X125996287Y-111433127D01*
X126028104Y-111471896D01*
X126182810Y-111598860D01*
X126310676Y-111667205D01*
X126359313Y-111693202D01*
X126550829Y-111751298D01*
X126750000Y-111770915D01*
X126799902Y-111766000D01*
X154092026Y-111766000D01*
X154154284Y-111799278D01*
X154311500Y-111846969D01*
X154475000Y-111863072D01*
X154875000Y-111863072D01*
X155038500Y-111846969D01*
X155195716Y-111799278D01*
X155340608Y-111721831D01*
X155467606Y-111617606D01*
X155500000Y-111578134D01*
X155532394Y-111617606D01*
X155659392Y-111721831D01*
X155804284Y-111799278D01*
X155961500Y-111846969D01*
X156125000Y-111863072D01*
X156525000Y-111863072D01*
X156688500Y-111846969D01*
X156845716Y-111799278D01*
X156907974Y-111766000D01*
X157052541Y-111766000D01*
X157148061Y-111785000D01*
X157351939Y-111785000D01*
X157551898Y-111745226D01*
X157740256Y-111667205D01*
X157909774Y-111553937D01*
X158053937Y-111409774D01*
X158167205Y-111240256D01*
X158245226Y-111051898D01*
X158285000Y-110851939D01*
X158285000Y-110648061D01*
X158245226Y-110448102D01*
X158167205Y-110259744D01*
X158053937Y-110090226D01*
X157909774Y-109946063D01*
X157740256Y-109832795D01*
X157551898Y-109754774D01*
X157351939Y-109715000D01*
X157148061Y-109715000D01*
X157052541Y-109734000D01*
X156907974Y-109734000D01*
X156845716Y-109700722D01*
X156688500Y-109653031D01*
X156525000Y-109636928D01*
X156125000Y-109636928D01*
X155961500Y-109653031D01*
X155804284Y-109700722D01*
X155659392Y-109778169D01*
X155532394Y-109882394D01*
X155500000Y-109921866D01*
X155467606Y-109882394D01*
X155340608Y-109778169D01*
X155195716Y-109700722D01*
X155038500Y-109653031D01*
X154875000Y-109636928D01*
X154475000Y-109636928D01*
X154311500Y-109653031D01*
X154154284Y-109700722D01*
X154092026Y-109734000D01*
X129479711Y-109734000D01*
X129553937Y-109659774D01*
X129667205Y-109490256D01*
X129745226Y-109301898D01*
X129785000Y-109101939D01*
X129785000Y-108898061D01*
X129745226Y-108698102D01*
X129667205Y-108509744D01*
X129553937Y-108340226D01*
X129409774Y-108196063D01*
X129240256Y-108082795D01*
X129051898Y-108004774D01*
X128851939Y-107965000D01*
X128648061Y-107965000D01*
X128552541Y-107984000D01*
X128407974Y-107984000D01*
X128345716Y-107950722D01*
X128188500Y-107903031D01*
X128025000Y-107886928D01*
X127625000Y-107886928D01*
X127461500Y-107903031D01*
X127304284Y-107950722D01*
X127191000Y-108011274D01*
X127191000Y-106724893D01*
X127195914Y-106674999D01*
X127191000Y-106625105D01*
X127191000Y-106625098D01*
X127176298Y-106475829D01*
X127174978Y-106471475D01*
X127158674Y-106417732D01*
X127118202Y-106284313D01*
X127023860Y-106107810D01*
X126896896Y-105953104D01*
X126858133Y-105921292D01*
X122253712Y-101316872D01*
X122221896Y-101278104D01*
X122067190Y-101151140D01*
X121890687Y-101056798D01*
X121699171Y-100998702D01*
X121549902Y-100984000D01*
X121500000Y-100979085D01*
X121450098Y-100984000D01*
X117920841Y-100984000D01*
X117766000Y-100829160D01*
X117766000Y-76420840D01*
X118420841Y-75766000D01*
X118592026Y-75766000D01*
X118654284Y-75799278D01*
X118811500Y-75846969D01*
X118975000Y-75863072D01*
X119375000Y-75863072D01*
X119538500Y-75846969D01*
X119695716Y-75799278D01*
X119840608Y-75721831D01*
X119967606Y-75617606D01*
X120000000Y-75578134D01*
X120032394Y-75617606D01*
X120159392Y-75721831D01*
X120304284Y-75799278D01*
X120461500Y-75846969D01*
X120625000Y-75863072D01*
X121025000Y-75863072D01*
X121188500Y-75846969D01*
X121345716Y-75799278D01*
X121407974Y-75766000D01*
X121552541Y-75766000D01*
X121648061Y-75785000D01*
X121851939Y-75785000D01*
X122051898Y-75745226D01*
X122240256Y-75667205D01*
X122409774Y-75553937D01*
X122553937Y-75409774D01*
X122667205Y-75240256D01*
X122745226Y-75051898D01*
X122785000Y-74851939D01*
X122785000Y-74648061D01*
X122745226Y-74448102D01*
X122667205Y-74259744D01*
X122553937Y-74090226D01*
X122409774Y-73946063D01*
X122240256Y-73832795D01*
X122079000Y-73766000D01*
X131579160Y-73766000D01*
X135984001Y-78170842D01*
X135984000Y-80611928D01*
X135100000Y-80611928D01*
X134975518Y-80624188D01*
X134855820Y-80660498D01*
X134745506Y-80719463D01*
X134648815Y-80798815D01*
X134569463Y-80895506D01*
X134510498Y-81005820D01*
X134474188Y-81125518D01*
X134461928Y-81250000D01*
X134461928Y-84750000D01*
X134474188Y-84874482D01*
X134510498Y-84994180D01*
X134569463Y-85104494D01*
X134648815Y-85201185D01*
X134745506Y-85280537D01*
X134855820Y-85339502D01*
X134975518Y-85375812D01*
X135100000Y-85388072D01*
X138900000Y-85388072D01*
X139024482Y-85375812D01*
X139144180Y-85339502D01*
X139254494Y-85280537D01*
X139351185Y-85201185D01*
X139430537Y-85104494D01*
X139489502Y-84994180D01*
X139525812Y-84874482D01*
X139538072Y-84750000D01*
X139538072Y-81250000D01*
X139525812Y-81125518D01*
X139489502Y-81005820D01*
X139430537Y-80895506D01*
X139351185Y-80798815D01*
X139254494Y-80719463D01*
X139144180Y-80660498D01*
X139024482Y-80624188D01*
X138900000Y-80611928D01*
X138016000Y-80611928D01*
X138016000Y-77799902D01*
X138020915Y-77750000D01*
X138001298Y-77550829D01*
X137943202Y-77359313D01*
X137935857Y-77345571D01*
X137848860Y-77182810D01*
X137721896Y-77028104D01*
X137683133Y-76996292D01*
X132753712Y-72066872D01*
X132721896Y-72028104D01*
X132567190Y-71901140D01*
X132390687Y-71806798D01*
X132199171Y-71748702D01*
X132049902Y-71734000D01*
X132000000Y-71729085D01*
X131950098Y-71734000D01*
X118049902Y-71734000D01*
X118000000Y-71729085D01*
X117950098Y-71734000D01*
X117922330Y-71736735D01*
X117800829Y-71748702D01*
X117609312Y-71806798D01*
X117582256Y-71821260D01*
X117432810Y-71901140D01*
X117278104Y-72028104D01*
X117246292Y-72066867D01*
X113566872Y-75746288D01*
X113528104Y-75778104D01*
X113401140Y-75932810D01*
X113306798Y-76109314D01*
X113271464Y-76225794D01*
X113248702Y-76300830D01*
X113229085Y-76500000D01*
X113234000Y-76549902D01*
X113234001Y-95829158D01*
X111079160Y-97984000D01*
X107302925Y-97984000D01*
X107305812Y-97974482D01*
X107318072Y-97850000D01*
X107318072Y-97150000D01*
X107305812Y-97025518D01*
X107269502Y-96905820D01*
X107210537Y-96795506D01*
X107131185Y-96698815D01*
X107034494Y-96619463D01*
X106924180Y-96560498D01*
X106804482Y-96524188D01*
X106680000Y-96511928D01*
X106318072Y-96511928D01*
X106318072Y-95600000D01*
X106305812Y-95475518D01*
X106269502Y-95355820D01*
X106210537Y-95245506D01*
X106131185Y-95148815D01*
X106034494Y-95069463D01*
X105924180Y-95010498D01*
X105804482Y-94974188D01*
X105680000Y-94961928D01*
X104880000Y-94961928D01*
X104755518Y-94974188D01*
X104635820Y-95010498D01*
X104525506Y-95069463D01*
X104428815Y-95148815D01*
X104349463Y-95245506D01*
X104290498Y-95355820D01*
X104254188Y-95475518D01*
X104241928Y-95600000D01*
X104241928Y-96600000D01*
X104254188Y-96724482D01*
X104290498Y-96844180D01*
X104349463Y-96954494D01*
X104428815Y-97051185D01*
X104525506Y-97130537D01*
X104542928Y-97139849D01*
X104541928Y-97150000D01*
X104541928Y-97229662D01*
X104486483Y-97206696D01*
X104276863Y-97165000D01*
X104063137Y-97165000D01*
X103853517Y-97206696D01*
X103656060Y-97288485D01*
X103478353Y-97407225D01*
X103327225Y-97558353D01*
X103208485Y-97736060D01*
X103126696Y-97933517D01*
X103085000Y-98143137D01*
X102790035Y-98143137D01*
X102865678Y-97238072D01*
X103470000Y-97238072D01*
X103594482Y-97225812D01*
X103714180Y-97189502D01*
X103824494Y-97130537D01*
X103921185Y-97051185D01*
X104000537Y-96954494D01*
X104059502Y-96844180D01*
X104095812Y-96724482D01*
X104108072Y-96600000D01*
X104108072Y-95600000D01*
X104095812Y-95475518D01*
X104059502Y-95355820D01*
X104000537Y-95245506D01*
X103921185Y-95148815D01*
X103824494Y-95069463D01*
X103714180Y-95010498D01*
X103594482Y-94974188D01*
X103470000Y-94961928D01*
X103126785Y-94961928D01*
X103306719Y-93768999D01*
X103793749Y-91549706D01*
X104426782Y-89367594D01*
X105203052Y-87232203D01*
X106119133Y-85152960D01*
X107170992Y-83139015D01*
X108354015Y-81199200D01*
X109663000Y-79342048D01*
X111092189Y-77575730D01*
X112635284Y-75908027D01*
X114285522Y-74346247D01*
X116035631Y-72897273D01*
X117877934Y-71567463D01*
X119804304Y-70362683D01*
X121806298Y-69288211D01*
X123875077Y-68348792D01*
X126001593Y-67548534D01*
X128186747Y-66887862D01*
X128436510Y-66822338D01*
X128452528Y-66817563D01*
X128459226Y-66815987D01*
X128804024Y-66713600D01*
X128807380Y-66712269D01*
X128810916Y-66711517D01*
X128890228Y-66682021D01*
X129704199Y-66324712D01*
X129724464Y-66313571D01*
X129745874Y-66304834D01*
X129818696Y-66261767D01*
X129818710Y-66261759D01*
X129818715Y-66261755D01*
X130556543Y-65765956D01*
X130574511Y-65751406D01*
X130594041Y-65739012D01*
X130658097Y-65683720D01*
X131296470Y-65065093D01*
X131311582Y-65047586D01*
X131328603Y-65031934D01*
X131381840Y-64966192D01*
X131381856Y-64966173D01*
X131381861Y-64966165D01*
X131900590Y-64244277D01*
X131912363Y-64224370D01*
X131926343Y-64205952D01*
X131967109Y-64131800D01*
X132349809Y-63329453D01*
X132357869Y-63307780D01*
X132368369Y-63287173D01*
X132395359Y-63206974D01*
X132629927Y-62349538D01*
X132634022Y-62326778D01*
X132640706Y-62304640D01*
X132653067Y-62220928D01*
X132731782Y-61338949D01*
X132735000Y-61306272D01*
X132735000Y-60032731D01*
X132762021Y-59729963D01*
X134258266Y-59729963D01*
X134258266Y-60270037D01*
X134363629Y-60799734D01*
X134570307Y-61298698D01*
X134870356Y-61747753D01*
X135252247Y-62129644D01*
X135701302Y-62429693D01*
X136200266Y-62636371D01*
X136729963Y-62741734D01*
X137270037Y-62741734D01*
X137799734Y-62636371D01*
X138298698Y-62429693D01*
X138747753Y-62129644D01*
X139129644Y-61747753D01*
X139429693Y-61298698D01*
X139636371Y-60799734D01*
X139741734Y-60270037D01*
X139741734Y-59729963D01*
X139636371Y-59200266D01*
X139429693Y-58701302D01*
X139129644Y-58252247D01*
X138747753Y-57870356D01*
X138298698Y-57570307D01*
X137799734Y-57363629D01*
X137270037Y-57258266D01*
X136729963Y-57258266D01*
X136200266Y-57363629D01*
X135701302Y-57570307D01*
X135252247Y-57870356D01*
X134870356Y-58252247D01*
X134570307Y-58701302D01*
X134363629Y-59200266D01*
X134258266Y-59729963D01*
X132762021Y-59729963D01*
X132805281Y-59245253D01*
X133005231Y-58514357D01*
X133331450Y-57830425D01*
X133773626Y-57215072D01*
X134317789Y-56687741D01*
X134946726Y-56265114D01*
X135640570Y-55960537D01*
X136377386Y-55783643D01*
X137133871Y-55740024D01*
X137886138Y-55831059D01*
G37*
%TD.AperFunction*%
%TD*%
M02*
