M48
; DRILL file {KiCad (5.1.10)-1} date 10/17/21 11:08:02
; FORMAT={-:-/ absolute / inch / decimal}
; #@! TF.CreationDate,2021-10-17T11:08:02+02:00
; #@! TF.GenerationSoftware,Kicad,Pcbnew,(5.1.10)-1
; #@! TF.FileFunction,Plated,1,2,PTH
FMAT,2
INCH
T1C0.0157
%
G90
G05
T1
X4.252Y-4.2224
X4.3209Y-3.4449
X4.4193Y-4.065
X4.4783Y-3.4449
X4.4783Y-4.7244
X4.498Y-3.75
X4.5276Y-4.5276
X4.5768Y-4.065
X4.5965Y-3.002
X4.6457Y-4.3406
X4.6555Y-3.75
X4.685Y-4.5276
X4.7343Y-3.3071
X4.7343Y-4.1437
X4.7539Y-3.002
X4.7736Y-5.0197
X4.9705Y-3.6713
X5.0492Y-4.0945
X5.0689Y-4.2913
X5.1476Y-2.8839
X5.2165Y-2.9232
X5.2264Y-4.2913
X5.2756Y-5.2264
X5.374Y-2.9232
X5.4331Y-4.4193
X5.502Y-3.7303
X5.5709Y-5.1476
X5.6693Y-4.0551
X5.7874Y-4.2618
X5.8268Y-4.0551
X5.8957Y-2.874
X5.9252Y-4.6555
X5.9941Y-3.1693
X6.0531Y-2.874
X6.1122Y-3.8484
X6.1909Y-4.3602
X6.2106Y-3.5433
X6.3484Y-4.3602
X6.3484Y-4.6161
X6.4961Y-4.1437
T0
M30
