%TF.GenerationSoftware,KiCad,Pcbnew,(5.1.10)-1*%
%TF.CreationDate,2021-10-19T21:24:23+02:00*%
%TF.ProjectId,TVZ_kuglica,54565a5f-6b75-4676-9c69-63612e6b6963,rev?*%
%TF.SameCoordinates,Original*%
%TF.FileFunction,Copper,L2,Bot*%
%TF.FilePolarity,Positive*%
%FSLAX46Y46*%
G04 Gerber Fmt 4.6, Leading zero omitted, Abs format (unit mm)*
G04 Created by KiCad (PCBNEW (5.1.10)-1) date 2021-10-19 21:24:23*
%MOMM*%
%LPD*%
G01*
G04 APERTURE LIST*
%TA.AperFunction,SMDPad,CuDef*%
%ADD10O,6.000000X3.000000*%
%TD*%
%TA.AperFunction,SMDPad,CuDef*%
%ADD11R,1.500000X0.700000*%
%TD*%
%TA.AperFunction,SMDPad,CuDef*%
%ADD12R,0.800000X1.000000*%
%TD*%
%TA.AperFunction,ViaPad*%
%ADD13C,0.800000*%
%TD*%
%TA.AperFunction,Conductor*%
%ADD14C,1.524000*%
%TD*%
%TA.AperFunction,Conductor*%
%ADD15C,0.762000*%
%TD*%
%TA.AperFunction,Conductor*%
%ADD16C,0.254000*%
%TD*%
%TA.AperFunction,Conductor*%
%ADD17C,0.100000*%
%TD*%
G04 APERTURE END LIST*
D10*
%TO.P,BT1,1*%
%TO.N,VCC*%
X126500000Y-70750000D03*
%TO.P,BT1,2*%
%TO.N,GND*%
X145500000Y-70750000D03*
%TD*%
D11*
%TO.P,SW1,1*%
%TO.N,Net-(D1-Pad1)*%
X105930000Y-102000000D03*
%TO.P,SW1,2*%
%TO.N,VCC*%
X105930000Y-99000000D03*
%TO.P,SW1,3*%
%TO.N,Net-(SW1-Pad3)*%
X105930000Y-97500000D03*
D12*
%TO.P,SW1,*%
%TO.N,*%
X103070000Y-103400000D03*
X103070000Y-96100000D03*
X105280000Y-96100000D03*
X105280000Y-103400000D03*
%TD*%
D13*
%TO.N,Net-(D1-Pad1)*%
X144000000Y-103000000D03*
X157250000Y-110750000D03*
X114250000Y-95250000D03*
X109750000Y-87500000D03*
X116750000Y-76250000D03*
X132500000Y-74250000D03*
X149750000Y-73000000D03*
X128750000Y-109000000D03*
X112250000Y-103250000D03*
X115000000Y-115000000D03*
%TO.N,GND*%
X152250000Y-80500000D03*
X130750000Y-73250000D03*
X120250000Y-84000000D03*
X126250000Y-93250000D03*
X120250000Y-105250000D03*
X128250000Y-104000000D03*
X108000000Y-107250000D03*
X113750000Y-120000000D03*
X118000000Y-110250000D03*
X121250000Y-127500000D03*
X134000000Y-132750000D03*
X138000000Y-112250000D03*
X141500000Y-130750000D03*
X150500000Y-118250000D03*
X147000000Y-108250000D03*
X165000000Y-105250000D03*
X161250000Y-117250000D03*
X155250000Y-97750000D03*
X157750000Y-90000000D03*
X139750000Y-94750000D03*
X161250000Y-110750000D03*
X132750000Y-109000000D03*
X148000000Y-103000000D03*
X119000000Y-115000000D03*
X116250000Y-103250000D03*
X118250000Y-95250000D03*
X113750000Y-87500000D03*
X136500000Y-74250000D03*
X153750000Y-73000000D03*
X120750000Y-76250000D03*
%TD*%
D14*
%TO.N,Net-(D1-Pad1)*%
X126000000Y-77750000D02*
X124500000Y-76250000D01*
X115000000Y-115000000D02*
X112250000Y-112250000D01*
X112250000Y-112250000D02*
X112250000Y-103250000D01*
X112250000Y-103250000D02*
X114250000Y-101250000D01*
X114250000Y-101250000D02*
X114250000Y-95250000D01*
X114250000Y-95250000D02*
X114250000Y-92000000D01*
X116750000Y-80500000D02*
X116750000Y-77750000D01*
X116750000Y-77750000D02*
X116750000Y-76250000D01*
X111250000Y-86000000D02*
X111375000Y-85875000D01*
X111375000Y-85875000D02*
X116750000Y-80500000D01*
X109750000Y-87500000D02*
X111375000Y-85875000D01*
X111250000Y-89000000D02*
X111250000Y-86000000D01*
X114250000Y-92000000D02*
X111250000Y-89000000D01*
X111250000Y-89000000D02*
X109750000Y-87500000D01*
X116750000Y-76250000D02*
X118000000Y-75000000D01*
X123250000Y-75000000D02*
X124500000Y-76250000D01*
X157250000Y-110750000D02*
X151750000Y-110750000D01*
X145500000Y-104500000D02*
X143750000Y-104500000D01*
X142250000Y-103000000D02*
X134750000Y-103000000D01*
X143750000Y-104500000D02*
X142250000Y-103000000D01*
X144000000Y-103000000D02*
X142250000Y-103000000D01*
X151750000Y-110750000D02*
X145500000Y-104500000D01*
X145500000Y-104500000D02*
X144000000Y-103000000D01*
X128750000Y-114250000D02*
X124750000Y-118250000D01*
X118250000Y-118250000D02*
X115000000Y-115000000D01*
X124750000Y-118250000D02*
X118250000Y-118250000D01*
X130125000Y-109625000D02*
X128750000Y-111000000D01*
X128750000Y-111000000D02*
X128750000Y-114250000D01*
X128750000Y-109000000D02*
X128750000Y-111000000D01*
X134750000Y-103000000D02*
X130125000Y-107625000D01*
X130125000Y-107625000D02*
X130125000Y-109625000D01*
X130125000Y-107625000D02*
X128750000Y-109000000D01*
X118750000Y-74250000D02*
X116750000Y-76250000D01*
X123250000Y-75000000D02*
X122500000Y-74250000D01*
X116750000Y-77750000D02*
X120250000Y-74250000D01*
X120250000Y-74250000D02*
X118750000Y-74250000D01*
X122500000Y-74250000D02*
X120250000Y-74250000D01*
X129000000Y-77750000D02*
X126000000Y-77750000D01*
X132500000Y-74250000D02*
X129000000Y-77750000D01*
X132500000Y-74250000D02*
X134750000Y-72000000D01*
X134750000Y-72000000D02*
X139750000Y-72000000D01*
X139750000Y-72000000D02*
X142000000Y-74250000D01*
X148500000Y-74250000D02*
X149750000Y-73000000D01*
X142000000Y-74250000D02*
X148500000Y-74250000D01*
D15*
%TO.N,VCC*%
X105930000Y-99000000D02*
X108750000Y-99000000D01*
X108750000Y-99000000D02*
X109750000Y-98000000D01*
X109750000Y-98000000D02*
X109750000Y-94000000D01*
X109750000Y-94000000D02*
X107250000Y-91500000D01*
X107250000Y-91500000D02*
X107250000Y-86000000D01*
X107250000Y-86000000D02*
X113500000Y-79750000D01*
X113500000Y-79750000D02*
X113500000Y-77000000D01*
X119750000Y-70750000D02*
X126500000Y-70750000D01*
X113500000Y-77000000D02*
X119750000Y-70750000D01*
%TD*%
D16*
%TO.N,GND*%
X137886138Y-55831059D02*
X138610388Y-56053867D01*
X139283738Y-56401409D01*
X139884901Y-56862699D01*
X140394872Y-57423149D01*
X140797540Y-58065057D01*
X141080170Y-58768122D01*
X141236190Y-59521513D01*
X141265000Y-60021169D01*
X141265001Y-61306272D01*
X141266298Y-61319440D01*
X141278413Y-61656049D01*
X141278863Y-61659632D01*
X141278707Y-61663242D01*
X141287438Y-61747410D01*
X141429908Y-62624862D01*
X141435629Y-62647269D01*
X141438736Y-62670183D01*
X141462234Y-62751474D01*
X141757835Y-63589830D01*
X141767433Y-63610870D01*
X141774549Y-63632871D01*
X141812059Y-63708691D01*
X141812071Y-63708717D01*
X141812077Y-63708725D01*
X142251461Y-64481476D01*
X142264630Y-64500478D01*
X142275533Y-64520879D01*
X142325894Y-64588881D01*
X142895182Y-65271616D01*
X142911512Y-65287990D01*
X142925851Y-65306132D01*
X142987458Y-65364142D01*
X143668651Y-65935276D01*
X143687625Y-65948502D01*
X143704950Y-65963817D01*
X143775855Y-66010000D01*
X144547423Y-66451478D01*
X144568436Y-66461133D01*
X144588200Y-66473139D01*
X144666163Y-66506036D01*
X145503715Y-66803905D01*
X145508021Y-66805017D01*
X145525587Y-66811299D01*
X145542755Y-66816572D01*
X147746053Y-67464098D01*
X149878711Y-68247813D01*
X151954729Y-69171140D01*
X153965017Y-70230036D01*
X155900673Y-71419812D01*
X157753239Y-72735268D01*
X159514561Y-74170616D01*
X161176886Y-75719540D01*
X162732884Y-77375207D01*
X164175738Y-79130360D01*
X165499106Y-80977290D01*
X166697162Y-82907865D01*
X167764630Y-84913581D01*
X168696830Y-86985643D01*
X169489658Y-89114933D01*
X170139624Y-91292080D01*
X170643873Y-93507517D01*
X171000188Y-95751501D01*
X171207004Y-98014175D01*
X171263407Y-100285560D01*
X171169153Y-102555700D01*
X170924654Y-104814605D01*
X170530986Y-107052337D01*
X169989882Y-109259064D01*
X169303718Y-111425077D01*
X168475512Y-113540851D01*
X167508906Y-115597090D01*
X166408155Y-117584736D01*
X165178083Y-119495080D01*
X163824120Y-121319689D01*
X162352204Y-123050560D01*
X160768823Y-124680064D01*
X159080926Y-126201055D01*
X157295931Y-127606843D01*
X155421695Y-128891239D01*
X153466456Y-130048599D01*
X151438820Y-131073832D01*
X149347702Y-131962428D01*
X147202263Y-132710493D01*
X145011999Y-133314718D01*
X142786467Y-133772464D01*
X140535523Y-134081705D01*
X138269022Y-134241089D01*
X135996953Y-134249911D01*
X133729262Y-134108134D01*
X131475992Y-133816385D01*
X129246983Y-133375938D01*
X127052076Y-132788738D01*
X124900917Y-132057366D01*
X122802939Y-131185029D01*
X120767401Y-130175574D01*
X118803237Y-129033435D01*
X116919085Y-127763634D01*
X115123223Y-126371749D01*
X113423564Y-124863914D01*
X111827572Y-123246751D01*
X110342263Y-121527368D01*
X108974171Y-119713331D01*
X107729304Y-117812605D01*
X106613144Y-115833557D01*
X105630601Y-113784897D01*
X104785986Y-111675609D01*
X104083026Y-109515005D01*
X103524797Y-107312547D01*
X103113763Y-105077935D01*
X103051083Y-104538072D01*
X103470000Y-104538072D01*
X103594482Y-104525812D01*
X103714180Y-104489502D01*
X103824494Y-104430537D01*
X103921185Y-104351185D01*
X104000537Y-104254494D01*
X104059502Y-104144180D01*
X104095812Y-104024482D01*
X104108072Y-103900000D01*
X104108072Y-103885000D01*
X104241928Y-103885000D01*
X104241928Y-103900000D01*
X104254188Y-104024482D01*
X104290498Y-104144180D01*
X104349463Y-104254494D01*
X104428815Y-104351185D01*
X104525506Y-104430537D01*
X104635820Y-104489502D01*
X104755518Y-104525812D01*
X104880000Y-104538072D01*
X105680000Y-104538072D01*
X105804482Y-104525812D01*
X105924180Y-104489502D01*
X106034494Y-104430537D01*
X106131185Y-104351185D01*
X106210537Y-104254494D01*
X106269502Y-104144180D01*
X106305812Y-104024482D01*
X106318072Y-103900000D01*
X106318072Y-103885000D01*
X110211858Y-103885000D01*
X110853001Y-104617735D01*
X110853000Y-112181375D01*
X110846241Y-112250000D01*
X110860387Y-112393622D01*
X110873214Y-112523859D01*
X110953096Y-112787194D01*
X111082817Y-113029886D01*
X111257392Y-113242607D01*
X111310704Y-113286359D01*
X114060696Y-116036353D01*
X114060707Y-116036362D01*
X117213645Y-119189302D01*
X117257392Y-119242608D01*
X117470113Y-119417183D01*
X117712805Y-119546904D01*
X117954215Y-119620135D01*
X117976140Y-119626786D01*
X118249999Y-119653759D01*
X118318624Y-119647000D01*
X124681375Y-119647000D01*
X124750000Y-119653759D01*
X124818625Y-119647000D01*
X125023860Y-119626786D01*
X125287195Y-119546904D01*
X125529887Y-119417183D01*
X125742608Y-119242608D01*
X125786364Y-119189291D01*
X129689302Y-115286355D01*
X129742608Y-115242608D01*
X129917183Y-115029887D01*
X130046904Y-114787195D01*
X130126786Y-114523860D01*
X130144041Y-114348667D01*
X130153759Y-114250001D01*
X130147000Y-114181376D01*
X130147000Y-111578655D01*
X131064296Y-110661360D01*
X131117608Y-110617608D01*
X131292183Y-110404887D01*
X131348164Y-110300153D01*
X131421904Y-110162196D01*
X131501786Y-109898860D01*
X131528759Y-109625000D01*
X131522000Y-109556375D01*
X131522000Y-108203655D01*
X135328656Y-104397000D01*
X141671344Y-104397000D01*
X142713645Y-105439302D01*
X142757392Y-105492608D01*
X142970113Y-105667183D01*
X143212805Y-105796904D01*
X143431930Y-105863375D01*
X143476140Y-105876786D01*
X143749999Y-105903759D01*
X143818624Y-105897000D01*
X144921345Y-105897000D01*
X150713641Y-111689297D01*
X150757392Y-111742608D01*
X150970113Y-111917183D01*
X151212804Y-112046904D01*
X151476140Y-112126786D01*
X151750000Y-112153759D01*
X151818625Y-112147000D01*
X157318625Y-112147000D01*
X157523860Y-112126786D01*
X157787195Y-112046904D01*
X158029887Y-111917183D01*
X158242608Y-111742608D01*
X158417183Y-111529887D01*
X158546904Y-111287195D01*
X158626786Y-111023860D01*
X158653759Y-110750000D01*
X158626786Y-110476140D01*
X158546904Y-110212805D01*
X158417183Y-109970113D01*
X158242608Y-109757392D01*
X158029887Y-109582817D01*
X157787195Y-109453096D01*
X157523860Y-109373214D01*
X157318625Y-109353000D01*
X152328656Y-109353000D01*
X146536364Y-103560709D01*
X146492608Y-103507392D01*
X146439302Y-103463645D01*
X145036363Y-102060708D01*
X144992608Y-102007392D01*
X144779887Y-101832817D01*
X144537195Y-101703096D01*
X144273860Y-101623214D01*
X144068625Y-101603000D01*
X144000000Y-101596241D01*
X143931375Y-101603000D01*
X142318625Y-101603000D01*
X142250000Y-101596241D01*
X142181375Y-101603000D01*
X134818625Y-101603000D01*
X134750000Y-101596241D01*
X134476140Y-101623214D01*
X134212804Y-101703096D01*
X134098973Y-101763940D01*
X133970113Y-101832817D01*
X133757392Y-102007392D01*
X133713641Y-102060703D01*
X129185705Y-106588640D01*
X129132392Y-106632393D01*
X129088646Y-106685698D01*
X127810704Y-107963641D01*
X127757392Y-108007393D01*
X127582817Y-108220114D01*
X127453096Y-108462806D01*
X127406138Y-108617607D01*
X127373214Y-108726141D01*
X127346241Y-109000000D01*
X127353000Y-109068625D01*
X127353001Y-110931366D01*
X127346241Y-111000000D01*
X127353000Y-111068625D01*
X127353001Y-113671342D01*
X124171345Y-116853000D01*
X118828657Y-116853000D01*
X116036362Y-114060707D01*
X116036353Y-114060696D01*
X113647000Y-111671345D01*
X113647000Y-103828655D01*
X115189306Y-102286351D01*
X115242607Y-102242608D01*
X115287819Y-102187518D01*
X115381954Y-102072813D01*
X115417183Y-102029887D01*
X115546904Y-101787195D01*
X115626786Y-101523860D01*
X115647000Y-101318625D01*
X115647000Y-101318624D01*
X115653759Y-101250001D01*
X115647000Y-101181376D01*
X115647000Y-92068625D01*
X115653759Y-92000000D01*
X115637171Y-91831575D01*
X115626786Y-91726140D01*
X115573325Y-91549902D01*
X115546904Y-91462804D01*
X115417183Y-91220113D01*
X115409539Y-91210799D01*
X115242608Y-91007392D01*
X115189297Y-90963641D01*
X112647000Y-88421345D01*
X112647000Y-86578655D01*
X117689301Y-81536355D01*
X117742607Y-81492608D01*
X117917183Y-81279887D01*
X118046904Y-81037195D01*
X118126786Y-80773860D01*
X118147000Y-80568625D01*
X118147000Y-80568624D01*
X118153759Y-80500000D01*
X118147000Y-80431375D01*
X118147000Y-78328655D01*
X120828657Y-75647000D01*
X121921344Y-75647000D01*
X122310697Y-76036353D01*
X122310702Y-76036357D01*
X123560697Y-77286353D01*
X123560702Y-77286357D01*
X124963645Y-78689302D01*
X125007392Y-78742608D01*
X125220113Y-78917183D01*
X125462805Y-79046904D01*
X125714365Y-79123214D01*
X125726140Y-79126786D01*
X125999999Y-79153759D01*
X126068624Y-79147000D01*
X128931375Y-79147000D01*
X129000000Y-79153759D01*
X129068625Y-79147000D01*
X129273860Y-79126786D01*
X129537195Y-79046904D01*
X129779887Y-78917183D01*
X129992608Y-78742608D01*
X130036364Y-78689291D01*
X133536353Y-75189304D01*
X133536362Y-75189293D01*
X135328656Y-73397000D01*
X139171345Y-73397000D01*
X140963641Y-75189296D01*
X141007392Y-75242608D01*
X141220112Y-75417182D01*
X141220113Y-75417183D01*
X141462804Y-75546904D01*
X141726140Y-75626786D01*
X142000000Y-75653760D01*
X142068632Y-75647000D01*
X148431375Y-75647000D01*
X148500000Y-75653759D01*
X148568625Y-75647000D01*
X148773860Y-75626786D01*
X149037195Y-75546904D01*
X149279887Y-75417183D01*
X149492608Y-75242608D01*
X149536364Y-75189292D01*
X150786353Y-73939303D01*
X150917183Y-73779887D01*
X151046903Y-73537196D01*
X151126786Y-73273860D01*
X151153759Y-73000000D01*
X151126786Y-72726141D01*
X151046903Y-72462805D01*
X150917183Y-72220114D01*
X150742607Y-72007393D01*
X150529886Y-71832817D01*
X150287195Y-71703097D01*
X150023859Y-71623214D01*
X149750000Y-71596241D01*
X149476140Y-71623214D01*
X149212804Y-71703097D01*
X148970113Y-71832817D01*
X148810697Y-71963647D01*
X147921345Y-72853000D01*
X142578656Y-72853000D01*
X140786364Y-71060709D01*
X140742608Y-71007392D01*
X140529887Y-70832817D01*
X140287195Y-70703096D01*
X140023860Y-70623214D01*
X139818625Y-70603000D01*
X139750000Y-70596241D01*
X139681375Y-70603000D01*
X134818632Y-70603000D01*
X134750000Y-70596240D01*
X134476140Y-70623214D01*
X134212804Y-70703096D01*
X134018967Y-70806704D01*
X133970113Y-70832817D01*
X133757392Y-71007392D01*
X133713641Y-71060704D01*
X131560707Y-73213638D01*
X131560696Y-73213647D01*
X128421345Y-76353000D01*
X126578656Y-76353000D01*
X125536357Y-75310702D01*
X125536353Y-75310697D01*
X124286357Y-74060702D01*
X124286353Y-74060697D01*
X123536363Y-73310708D01*
X123492608Y-73257392D01*
X123279887Y-73082817D01*
X123037195Y-72953096D01*
X122812713Y-72885000D01*
X128104882Y-72885000D01*
X128418533Y-72854108D01*
X128820982Y-72732026D01*
X129191881Y-72533777D01*
X129516977Y-72266977D01*
X129783777Y-71941881D01*
X129982026Y-71570982D01*
X130104108Y-71168533D01*
X130145330Y-70750000D01*
X130104108Y-70331467D01*
X129982026Y-69929018D01*
X129783777Y-69558119D01*
X129516977Y-69233023D01*
X129191881Y-68966223D01*
X128820982Y-68767974D01*
X128418533Y-68645892D01*
X128104882Y-68615000D01*
X123288837Y-68615000D01*
X123875077Y-68348792D01*
X126001593Y-67548534D01*
X128186747Y-66887862D01*
X128436510Y-66822338D01*
X128452528Y-66817563D01*
X128459226Y-66815987D01*
X128804024Y-66713600D01*
X128807380Y-66712269D01*
X128810916Y-66711517D01*
X128890228Y-66682021D01*
X129704199Y-66324712D01*
X129724464Y-66313571D01*
X129745874Y-66304834D01*
X129818696Y-66261767D01*
X129818710Y-66261759D01*
X129818715Y-66261755D01*
X130556543Y-65765956D01*
X130574511Y-65751406D01*
X130594041Y-65739012D01*
X130658097Y-65683720D01*
X131296470Y-65065093D01*
X131311582Y-65047586D01*
X131328603Y-65031934D01*
X131381840Y-64966192D01*
X131381856Y-64966173D01*
X131381861Y-64966165D01*
X131900590Y-64244277D01*
X131912363Y-64224370D01*
X131926343Y-64205952D01*
X131967109Y-64131800D01*
X132349809Y-63329453D01*
X132357869Y-63307780D01*
X132368369Y-63287173D01*
X132395359Y-63206974D01*
X132629927Y-62349538D01*
X132634022Y-62326778D01*
X132640706Y-62304640D01*
X132653067Y-62220928D01*
X132731782Y-61338949D01*
X132735000Y-61306272D01*
X132735000Y-60032731D01*
X132762021Y-59729963D01*
X134258266Y-59729963D01*
X134258266Y-60270037D01*
X134363629Y-60799734D01*
X134570307Y-61298698D01*
X134870356Y-61747753D01*
X135252247Y-62129644D01*
X135701302Y-62429693D01*
X136200266Y-62636371D01*
X136729963Y-62741734D01*
X137270037Y-62741734D01*
X137799734Y-62636371D01*
X138298698Y-62429693D01*
X138747753Y-62129644D01*
X139129644Y-61747753D01*
X139429693Y-61298698D01*
X139636371Y-60799734D01*
X139741734Y-60270037D01*
X139741734Y-59729963D01*
X139636371Y-59200266D01*
X139429693Y-58701302D01*
X139129644Y-58252247D01*
X138747753Y-57870356D01*
X138298698Y-57570307D01*
X137799734Y-57363629D01*
X137270037Y-57258266D01*
X136729963Y-57258266D01*
X136200266Y-57363629D01*
X135701302Y-57570307D01*
X135252247Y-57870356D01*
X134870356Y-58252247D01*
X134570307Y-58701302D01*
X134363629Y-59200266D01*
X134258266Y-59729963D01*
X132762021Y-59729963D01*
X132805281Y-59245253D01*
X133005231Y-58514357D01*
X133331450Y-57830425D01*
X133773626Y-57215072D01*
X134317789Y-56687741D01*
X134946726Y-56265114D01*
X135640570Y-55960537D01*
X136377386Y-55783643D01*
X137133871Y-55740024D01*
X137886138Y-55831059D01*
%TA.AperFunction,Conductor*%
D17*
G36*
X137886138Y-55831059D02*
G01*
X138610388Y-56053867D01*
X139283738Y-56401409D01*
X139884901Y-56862699D01*
X140394872Y-57423149D01*
X140797540Y-58065057D01*
X141080170Y-58768122D01*
X141236190Y-59521513D01*
X141265000Y-60021169D01*
X141265001Y-61306272D01*
X141266298Y-61319440D01*
X141278413Y-61656049D01*
X141278863Y-61659632D01*
X141278707Y-61663242D01*
X141287438Y-61747410D01*
X141429908Y-62624862D01*
X141435629Y-62647269D01*
X141438736Y-62670183D01*
X141462234Y-62751474D01*
X141757835Y-63589830D01*
X141767433Y-63610870D01*
X141774549Y-63632871D01*
X141812059Y-63708691D01*
X141812071Y-63708717D01*
X141812077Y-63708725D01*
X142251461Y-64481476D01*
X142264630Y-64500478D01*
X142275533Y-64520879D01*
X142325894Y-64588881D01*
X142895182Y-65271616D01*
X142911512Y-65287990D01*
X142925851Y-65306132D01*
X142987458Y-65364142D01*
X143668651Y-65935276D01*
X143687625Y-65948502D01*
X143704950Y-65963817D01*
X143775855Y-66010000D01*
X144547423Y-66451478D01*
X144568436Y-66461133D01*
X144588200Y-66473139D01*
X144666163Y-66506036D01*
X145503715Y-66803905D01*
X145508021Y-66805017D01*
X145525587Y-66811299D01*
X145542755Y-66816572D01*
X147746053Y-67464098D01*
X149878711Y-68247813D01*
X151954729Y-69171140D01*
X153965017Y-70230036D01*
X155900673Y-71419812D01*
X157753239Y-72735268D01*
X159514561Y-74170616D01*
X161176886Y-75719540D01*
X162732884Y-77375207D01*
X164175738Y-79130360D01*
X165499106Y-80977290D01*
X166697162Y-82907865D01*
X167764630Y-84913581D01*
X168696830Y-86985643D01*
X169489658Y-89114933D01*
X170139624Y-91292080D01*
X170643873Y-93507517D01*
X171000188Y-95751501D01*
X171207004Y-98014175D01*
X171263407Y-100285560D01*
X171169153Y-102555700D01*
X170924654Y-104814605D01*
X170530986Y-107052337D01*
X169989882Y-109259064D01*
X169303718Y-111425077D01*
X168475512Y-113540851D01*
X167508906Y-115597090D01*
X166408155Y-117584736D01*
X165178083Y-119495080D01*
X163824120Y-121319689D01*
X162352204Y-123050560D01*
X160768823Y-124680064D01*
X159080926Y-126201055D01*
X157295931Y-127606843D01*
X155421695Y-128891239D01*
X153466456Y-130048599D01*
X151438820Y-131073832D01*
X149347702Y-131962428D01*
X147202263Y-132710493D01*
X145011999Y-133314718D01*
X142786467Y-133772464D01*
X140535523Y-134081705D01*
X138269022Y-134241089D01*
X135996953Y-134249911D01*
X133729262Y-134108134D01*
X131475992Y-133816385D01*
X129246983Y-133375938D01*
X127052076Y-132788738D01*
X124900917Y-132057366D01*
X122802939Y-131185029D01*
X120767401Y-130175574D01*
X118803237Y-129033435D01*
X116919085Y-127763634D01*
X115123223Y-126371749D01*
X113423564Y-124863914D01*
X111827572Y-123246751D01*
X110342263Y-121527368D01*
X108974171Y-119713331D01*
X107729304Y-117812605D01*
X106613144Y-115833557D01*
X105630601Y-113784897D01*
X104785986Y-111675609D01*
X104083026Y-109515005D01*
X103524797Y-107312547D01*
X103113763Y-105077935D01*
X103051083Y-104538072D01*
X103470000Y-104538072D01*
X103594482Y-104525812D01*
X103714180Y-104489502D01*
X103824494Y-104430537D01*
X103921185Y-104351185D01*
X104000537Y-104254494D01*
X104059502Y-104144180D01*
X104095812Y-104024482D01*
X104108072Y-103900000D01*
X104108072Y-103885000D01*
X104241928Y-103885000D01*
X104241928Y-103900000D01*
X104254188Y-104024482D01*
X104290498Y-104144180D01*
X104349463Y-104254494D01*
X104428815Y-104351185D01*
X104525506Y-104430537D01*
X104635820Y-104489502D01*
X104755518Y-104525812D01*
X104880000Y-104538072D01*
X105680000Y-104538072D01*
X105804482Y-104525812D01*
X105924180Y-104489502D01*
X106034494Y-104430537D01*
X106131185Y-104351185D01*
X106210537Y-104254494D01*
X106269502Y-104144180D01*
X106305812Y-104024482D01*
X106318072Y-103900000D01*
X106318072Y-103885000D01*
X110211858Y-103885000D01*
X110853001Y-104617735D01*
X110853000Y-112181375D01*
X110846241Y-112250000D01*
X110860387Y-112393622D01*
X110873214Y-112523859D01*
X110953096Y-112787194D01*
X111082817Y-113029886D01*
X111257392Y-113242607D01*
X111310704Y-113286359D01*
X114060696Y-116036353D01*
X114060707Y-116036362D01*
X117213645Y-119189302D01*
X117257392Y-119242608D01*
X117470113Y-119417183D01*
X117712805Y-119546904D01*
X117954215Y-119620135D01*
X117976140Y-119626786D01*
X118249999Y-119653759D01*
X118318624Y-119647000D01*
X124681375Y-119647000D01*
X124750000Y-119653759D01*
X124818625Y-119647000D01*
X125023860Y-119626786D01*
X125287195Y-119546904D01*
X125529887Y-119417183D01*
X125742608Y-119242608D01*
X125786364Y-119189291D01*
X129689302Y-115286355D01*
X129742608Y-115242608D01*
X129917183Y-115029887D01*
X130046904Y-114787195D01*
X130126786Y-114523860D01*
X130144041Y-114348667D01*
X130153759Y-114250001D01*
X130147000Y-114181376D01*
X130147000Y-111578655D01*
X131064296Y-110661360D01*
X131117608Y-110617608D01*
X131292183Y-110404887D01*
X131348164Y-110300153D01*
X131421904Y-110162196D01*
X131501786Y-109898860D01*
X131528759Y-109625000D01*
X131522000Y-109556375D01*
X131522000Y-108203655D01*
X135328656Y-104397000D01*
X141671344Y-104397000D01*
X142713645Y-105439302D01*
X142757392Y-105492608D01*
X142970113Y-105667183D01*
X143212805Y-105796904D01*
X143431930Y-105863375D01*
X143476140Y-105876786D01*
X143749999Y-105903759D01*
X143818624Y-105897000D01*
X144921345Y-105897000D01*
X150713641Y-111689297D01*
X150757392Y-111742608D01*
X150970113Y-111917183D01*
X151212804Y-112046904D01*
X151476140Y-112126786D01*
X151750000Y-112153759D01*
X151818625Y-112147000D01*
X157318625Y-112147000D01*
X157523860Y-112126786D01*
X157787195Y-112046904D01*
X158029887Y-111917183D01*
X158242608Y-111742608D01*
X158417183Y-111529887D01*
X158546904Y-111287195D01*
X158626786Y-111023860D01*
X158653759Y-110750000D01*
X158626786Y-110476140D01*
X158546904Y-110212805D01*
X158417183Y-109970113D01*
X158242608Y-109757392D01*
X158029887Y-109582817D01*
X157787195Y-109453096D01*
X157523860Y-109373214D01*
X157318625Y-109353000D01*
X152328656Y-109353000D01*
X146536364Y-103560709D01*
X146492608Y-103507392D01*
X146439302Y-103463645D01*
X145036363Y-102060708D01*
X144992608Y-102007392D01*
X144779887Y-101832817D01*
X144537195Y-101703096D01*
X144273860Y-101623214D01*
X144068625Y-101603000D01*
X144000000Y-101596241D01*
X143931375Y-101603000D01*
X142318625Y-101603000D01*
X142250000Y-101596241D01*
X142181375Y-101603000D01*
X134818625Y-101603000D01*
X134750000Y-101596241D01*
X134476140Y-101623214D01*
X134212804Y-101703096D01*
X134098973Y-101763940D01*
X133970113Y-101832817D01*
X133757392Y-102007392D01*
X133713641Y-102060703D01*
X129185705Y-106588640D01*
X129132392Y-106632393D01*
X129088646Y-106685698D01*
X127810704Y-107963641D01*
X127757392Y-108007393D01*
X127582817Y-108220114D01*
X127453096Y-108462806D01*
X127406138Y-108617607D01*
X127373214Y-108726141D01*
X127346241Y-109000000D01*
X127353000Y-109068625D01*
X127353001Y-110931366D01*
X127346241Y-111000000D01*
X127353000Y-111068625D01*
X127353001Y-113671342D01*
X124171345Y-116853000D01*
X118828657Y-116853000D01*
X116036362Y-114060707D01*
X116036353Y-114060696D01*
X113647000Y-111671345D01*
X113647000Y-103828655D01*
X115189306Y-102286351D01*
X115242607Y-102242608D01*
X115287819Y-102187518D01*
X115381954Y-102072813D01*
X115417183Y-102029887D01*
X115546904Y-101787195D01*
X115626786Y-101523860D01*
X115647000Y-101318625D01*
X115647000Y-101318624D01*
X115653759Y-101250001D01*
X115647000Y-101181376D01*
X115647000Y-92068625D01*
X115653759Y-92000000D01*
X115637171Y-91831575D01*
X115626786Y-91726140D01*
X115573325Y-91549902D01*
X115546904Y-91462804D01*
X115417183Y-91220113D01*
X115409539Y-91210799D01*
X115242608Y-91007392D01*
X115189297Y-90963641D01*
X112647000Y-88421345D01*
X112647000Y-86578655D01*
X117689301Y-81536355D01*
X117742607Y-81492608D01*
X117917183Y-81279887D01*
X118046904Y-81037195D01*
X118126786Y-80773860D01*
X118147000Y-80568625D01*
X118147000Y-80568624D01*
X118153759Y-80500000D01*
X118147000Y-80431375D01*
X118147000Y-78328655D01*
X120828657Y-75647000D01*
X121921344Y-75647000D01*
X122310697Y-76036353D01*
X122310702Y-76036357D01*
X123560697Y-77286353D01*
X123560702Y-77286357D01*
X124963645Y-78689302D01*
X125007392Y-78742608D01*
X125220113Y-78917183D01*
X125462805Y-79046904D01*
X125714365Y-79123214D01*
X125726140Y-79126786D01*
X125999999Y-79153759D01*
X126068624Y-79147000D01*
X128931375Y-79147000D01*
X129000000Y-79153759D01*
X129068625Y-79147000D01*
X129273860Y-79126786D01*
X129537195Y-79046904D01*
X129779887Y-78917183D01*
X129992608Y-78742608D01*
X130036364Y-78689291D01*
X133536353Y-75189304D01*
X133536362Y-75189293D01*
X135328656Y-73397000D01*
X139171345Y-73397000D01*
X140963641Y-75189296D01*
X141007392Y-75242608D01*
X141220112Y-75417182D01*
X141220113Y-75417183D01*
X141462804Y-75546904D01*
X141726140Y-75626786D01*
X142000000Y-75653760D01*
X142068632Y-75647000D01*
X148431375Y-75647000D01*
X148500000Y-75653759D01*
X148568625Y-75647000D01*
X148773860Y-75626786D01*
X149037195Y-75546904D01*
X149279887Y-75417183D01*
X149492608Y-75242608D01*
X149536364Y-75189292D01*
X150786353Y-73939303D01*
X150917183Y-73779887D01*
X151046903Y-73537196D01*
X151126786Y-73273860D01*
X151153759Y-73000000D01*
X151126786Y-72726141D01*
X151046903Y-72462805D01*
X150917183Y-72220114D01*
X150742607Y-72007393D01*
X150529886Y-71832817D01*
X150287195Y-71703097D01*
X150023859Y-71623214D01*
X149750000Y-71596241D01*
X149476140Y-71623214D01*
X149212804Y-71703097D01*
X148970113Y-71832817D01*
X148810697Y-71963647D01*
X147921345Y-72853000D01*
X142578656Y-72853000D01*
X140786364Y-71060709D01*
X140742608Y-71007392D01*
X140529887Y-70832817D01*
X140287195Y-70703096D01*
X140023860Y-70623214D01*
X139818625Y-70603000D01*
X139750000Y-70596241D01*
X139681375Y-70603000D01*
X134818632Y-70603000D01*
X134750000Y-70596240D01*
X134476140Y-70623214D01*
X134212804Y-70703096D01*
X134018967Y-70806704D01*
X133970113Y-70832817D01*
X133757392Y-71007392D01*
X133713641Y-71060704D01*
X131560707Y-73213638D01*
X131560696Y-73213647D01*
X128421345Y-76353000D01*
X126578656Y-76353000D01*
X125536357Y-75310702D01*
X125536353Y-75310697D01*
X124286357Y-74060702D01*
X124286353Y-74060697D01*
X123536363Y-73310708D01*
X123492608Y-73257392D01*
X123279887Y-73082817D01*
X123037195Y-72953096D01*
X122812713Y-72885000D01*
X128104882Y-72885000D01*
X128418533Y-72854108D01*
X128820982Y-72732026D01*
X129191881Y-72533777D01*
X129516977Y-72266977D01*
X129783777Y-71941881D01*
X129982026Y-71570982D01*
X130104108Y-71168533D01*
X130145330Y-70750000D01*
X130104108Y-70331467D01*
X129982026Y-69929018D01*
X129783777Y-69558119D01*
X129516977Y-69233023D01*
X129191881Y-68966223D01*
X128820982Y-68767974D01*
X128418533Y-68645892D01*
X128104882Y-68615000D01*
X123288837Y-68615000D01*
X123875077Y-68348792D01*
X126001593Y-67548534D01*
X128186747Y-66887862D01*
X128436510Y-66822338D01*
X128452528Y-66817563D01*
X128459226Y-66815987D01*
X128804024Y-66713600D01*
X128807380Y-66712269D01*
X128810916Y-66711517D01*
X128890228Y-66682021D01*
X129704199Y-66324712D01*
X129724464Y-66313571D01*
X129745874Y-66304834D01*
X129818696Y-66261767D01*
X129818710Y-66261759D01*
X129818715Y-66261755D01*
X130556543Y-65765956D01*
X130574511Y-65751406D01*
X130594041Y-65739012D01*
X130658097Y-65683720D01*
X131296470Y-65065093D01*
X131311582Y-65047586D01*
X131328603Y-65031934D01*
X131381840Y-64966192D01*
X131381856Y-64966173D01*
X131381861Y-64966165D01*
X131900590Y-64244277D01*
X131912363Y-64224370D01*
X131926343Y-64205952D01*
X131967109Y-64131800D01*
X132349809Y-63329453D01*
X132357869Y-63307780D01*
X132368369Y-63287173D01*
X132395359Y-63206974D01*
X132629927Y-62349538D01*
X132634022Y-62326778D01*
X132640706Y-62304640D01*
X132653067Y-62220928D01*
X132731782Y-61338949D01*
X132735000Y-61306272D01*
X132735000Y-60032731D01*
X132762021Y-59729963D01*
X134258266Y-59729963D01*
X134258266Y-60270037D01*
X134363629Y-60799734D01*
X134570307Y-61298698D01*
X134870356Y-61747753D01*
X135252247Y-62129644D01*
X135701302Y-62429693D01*
X136200266Y-62636371D01*
X136729963Y-62741734D01*
X137270037Y-62741734D01*
X137799734Y-62636371D01*
X138298698Y-62429693D01*
X138747753Y-62129644D01*
X139129644Y-61747753D01*
X139429693Y-61298698D01*
X139636371Y-60799734D01*
X139741734Y-60270037D01*
X139741734Y-59729963D01*
X139636371Y-59200266D01*
X139429693Y-58701302D01*
X139129644Y-58252247D01*
X138747753Y-57870356D01*
X138298698Y-57570307D01*
X137799734Y-57363629D01*
X137270037Y-57258266D01*
X136729963Y-57258266D01*
X136200266Y-57363629D01*
X135701302Y-57570307D01*
X135252247Y-57870356D01*
X134870356Y-58252247D01*
X134570307Y-58701302D01*
X134363629Y-59200266D01*
X134258266Y-59729963D01*
X132762021Y-59729963D01*
X132805281Y-59245253D01*
X133005231Y-58514357D01*
X133331450Y-57830425D01*
X133773626Y-57215072D01*
X134317789Y-56687741D01*
X134946726Y-56265114D01*
X135640570Y-55960537D01*
X136377386Y-55783643D01*
X137133871Y-55740024D01*
X137886138Y-55831059D01*
G37*
%TD.AperFunction*%
%TD*%
D16*
%TO.N,VCC*%
X124873000Y-72123000D02*
X122000000Y-72123000D01*
X121975224Y-72125440D01*
X121951399Y-72132667D01*
X121929443Y-72144403D01*
X121917349Y-72153574D01*
X121101352Y-72853000D01*
X120318624Y-72853000D01*
X120249999Y-72846241D01*
X120181374Y-72853000D01*
X118818624Y-72853000D01*
X118749999Y-72846241D01*
X118577793Y-72863202D01*
X118476140Y-72873214D01*
X118212805Y-72953096D01*
X117970113Y-73082817D01*
X117757392Y-73257392D01*
X117713645Y-73310698D01*
X116237150Y-74787195D01*
X115810704Y-75213641D01*
X115757393Y-75257392D01*
X115582818Y-75470113D01*
X115453097Y-75712805D01*
X115373214Y-75976140D01*
X115365996Y-76049428D01*
X115346241Y-76250000D01*
X115353000Y-76318625D01*
X115353000Y-77681375D01*
X115346241Y-77750000D01*
X115353000Y-77818624D01*
X115353001Y-77818634D01*
X115353000Y-79921344D01*
X110435702Y-84838643D01*
X110435697Y-84838647D01*
X110310699Y-84963645D01*
X110257393Y-85007392D01*
X110213646Y-85060698D01*
X108810698Y-86463647D01*
X108757393Y-86507393D01*
X108679676Y-86602092D01*
X108582818Y-86720114D01*
X108453097Y-86962805D01*
X108373214Y-87226141D01*
X108346241Y-87500000D01*
X108373214Y-87773859D01*
X108453097Y-88037195D01*
X108582818Y-88279886D01*
X108757393Y-88492607D01*
X108810698Y-88536353D01*
X110213649Y-89939306D01*
X110257392Y-89992607D01*
X110310694Y-90036351D01*
X110310696Y-90036353D01*
X110310707Y-90036362D01*
X112853001Y-92578657D01*
X112853000Y-95318624D01*
X112853001Y-95318634D01*
X112853001Y-95998973D01*
X109486974Y-99365000D01*
X102760092Y-99365000D01*
X102778607Y-98279882D01*
X102790035Y-98143137D01*
X103085000Y-98143137D01*
X103085000Y-98356863D01*
X103126696Y-98566483D01*
X103208485Y-98763940D01*
X103327225Y-98941647D01*
X103478353Y-99092775D01*
X103656060Y-99211515D01*
X103853517Y-99293304D01*
X104063137Y-99335000D01*
X104276863Y-99335000D01*
X104486483Y-99293304D01*
X104683940Y-99211515D01*
X104861647Y-99092775D01*
X105012775Y-98941647D01*
X105131515Y-98763940D01*
X105213304Y-98566483D01*
X105228901Y-98488072D01*
X106680000Y-98488072D01*
X106804482Y-98475812D01*
X106924180Y-98439502D01*
X107034494Y-98380537D01*
X107131185Y-98301185D01*
X107210537Y-98204494D01*
X107269502Y-98094180D01*
X107305812Y-97974482D01*
X107318072Y-97850000D01*
X107318072Y-97150000D01*
X107305812Y-97025518D01*
X107269502Y-96905820D01*
X107210537Y-96795506D01*
X107131185Y-96698815D01*
X107034494Y-96619463D01*
X106924180Y-96560498D01*
X106804482Y-96524188D01*
X106680000Y-96511928D01*
X106318072Y-96511928D01*
X106318072Y-95600000D01*
X106305812Y-95475518D01*
X106269502Y-95355820D01*
X106210537Y-95245506D01*
X106131185Y-95148815D01*
X106034494Y-95069463D01*
X105924180Y-95010498D01*
X105804482Y-94974188D01*
X105680000Y-94961928D01*
X104880000Y-94961928D01*
X104755518Y-94974188D01*
X104635820Y-95010498D01*
X104525506Y-95069463D01*
X104428815Y-95148815D01*
X104349463Y-95245506D01*
X104290498Y-95355820D01*
X104254188Y-95475518D01*
X104241928Y-95600000D01*
X104241928Y-96600000D01*
X104254188Y-96724482D01*
X104290498Y-96844180D01*
X104349463Y-96954494D01*
X104428815Y-97051185D01*
X104525506Y-97130537D01*
X104542928Y-97139849D01*
X104541928Y-97150000D01*
X104541928Y-97229662D01*
X104486483Y-97206696D01*
X104276863Y-97165000D01*
X104063137Y-97165000D01*
X103853517Y-97206696D01*
X103656060Y-97288485D01*
X103478353Y-97407225D01*
X103327225Y-97558353D01*
X103208485Y-97736060D01*
X103126696Y-97933517D01*
X103085000Y-98143137D01*
X102790035Y-98143137D01*
X102865678Y-97238072D01*
X103470000Y-97238072D01*
X103594482Y-97225812D01*
X103714180Y-97189502D01*
X103824494Y-97130537D01*
X103921185Y-97051185D01*
X104000537Y-96954494D01*
X104059502Y-96844180D01*
X104095812Y-96724482D01*
X104108072Y-96600000D01*
X104108072Y-95600000D01*
X104095812Y-95475518D01*
X104059502Y-95355820D01*
X104000537Y-95245506D01*
X103921185Y-95148815D01*
X103824494Y-95069463D01*
X103714180Y-95010498D01*
X103594482Y-94974188D01*
X103470000Y-94961928D01*
X103126785Y-94961928D01*
X103306719Y-93768999D01*
X103793749Y-91549706D01*
X104426782Y-89367594D01*
X105203052Y-87232203D01*
X106119133Y-85152960D01*
X107170992Y-83139015D01*
X108354015Y-81199200D01*
X109663000Y-79342048D01*
X111092189Y-77575730D01*
X112635284Y-75908027D01*
X114285522Y-74346247D01*
X116035631Y-72897273D01*
X117877934Y-71567463D01*
X119804304Y-70362683D01*
X121640863Y-69377000D01*
X124873000Y-69377000D01*
X124873000Y-72123000D01*
%TA.AperFunction,Conductor*%
D17*
G36*
X124873000Y-72123000D02*
G01*
X122000000Y-72123000D01*
X121975224Y-72125440D01*
X121951399Y-72132667D01*
X121929443Y-72144403D01*
X121917349Y-72153574D01*
X121101352Y-72853000D01*
X120318624Y-72853000D01*
X120249999Y-72846241D01*
X120181374Y-72853000D01*
X118818624Y-72853000D01*
X118749999Y-72846241D01*
X118577793Y-72863202D01*
X118476140Y-72873214D01*
X118212805Y-72953096D01*
X117970113Y-73082817D01*
X117757392Y-73257392D01*
X117713645Y-73310698D01*
X116237150Y-74787195D01*
X115810704Y-75213641D01*
X115757393Y-75257392D01*
X115582818Y-75470113D01*
X115453097Y-75712805D01*
X115373214Y-75976140D01*
X115365996Y-76049428D01*
X115346241Y-76250000D01*
X115353000Y-76318625D01*
X115353000Y-77681375D01*
X115346241Y-77750000D01*
X115353000Y-77818624D01*
X115353001Y-77818634D01*
X115353000Y-79921344D01*
X110435702Y-84838643D01*
X110435697Y-84838647D01*
X110310699Y-84963645D01*
X110257393Y-85007392D01*
X110213646Y-85060698D01*
X108810698Y-86463647D01*
X108757393Y-86507393D01*
X108679676Y-86602092D01*
X108582818Y-86720114D01*
X108453097Y-86962805D01*
X108373214Y-87226141D01*
X108346241Y-87500000D01*
X108373214Y-87773859D01*
X108453097Y-88037195D01*
X108582818Y-88279886D01*
X108757393Y-88492607D01*
X108810698Y-88536353D01*
X110213649Y-89939306D01*
X110257392Y-89992607D01*
X110310694Y-90036351D01*
X110310696Y-90036353D01*
X110310707Y-90036362D01*
X112853001Y-92578657D01*
X112853000Y-95318624D01*
X112853001Y-95318634D01*
X112853001Y-95998973D01*
X109486974Y-99365000D01*
X102760092Y-99365000D01*
X102778607Y-98279882D01*
X102790035Y-98143137D01*
X103085000Y-98143137D01*
X103085000Y-98356863D01*
X103126696Y-98566483D01*
X103208485Y-98763940D01*
X103327225Y-98941647D01*
X103478353Y-99092775D01*
X103656060Y-99211515D01*
X103853517Y-99293304D01*
X104063137Y-99335000D01*
X104276863Y-99335000D01*
X104486483Y-99293304D01*
X104683940Y-99211515D01*
X104861647Y-99092775D01*
X105012775Y-98941647D01*
X105131515Y-98763940D01*
X105213304Y-98566483D01*
X105228901Y-98488072D01*
X106680000Y-98488072D01*
X106804482Y-98475812D01*
X106924180Y-98439502D01*
X107034494Y-98380537D01*
X107131185Y-98301185D01*
X107210537Y-98204494D01*
X107269502Y-98094180D01*
X107305812Y-97974482D01*
X107318072Y-97850000D01*
X107318072Y-97150000D01*
X107305812Y-97025518D01*
X107269502Y-96905820D01*
X107210537Y-96795506D01*
X107131185Y-96698815D01*
X107034494Y-96619463D01*
X106924180Y-96560498D01*
X106804482Y-96524188D01*
X106680000Y-96511928D01*
X106318072Y-96511928D01*
X106318072Y-95600000D01*
X106305812Y-95475518D01*
X106269502Y-95355820D01*
X106210537Y-95245506D01*
X106131185Y-95148815D01*
X106034494Y-95069463D01*
X105924180Y-95010498D01*
X105804482Y-94974188D01*
X105680000Y-94961928D01*
X104880000Y-94961928D01*
X104755518Y-94974188D01*
X104635820Y-95010498D01*
X104525506Y-95069463D01*
X104428815Y-95148815D01*
X104349463Y-95245506D01*
X104290498Y-95355820D01*
X104254188Y-95475518D01*
X104241928Y-95600000D01*
X104241928Y-96600000D01*
X104254188Y-96724482D01*
X104290498Y-96844180D01*
X104349463Y-96954494D01*
X104428815Y-97051185D01*
X104525506Y-97130537D01*
X104542928Y-97139849D01*
X104541928Y-97150000D01*
X104541928Y-97229662D01*
X104486483Y-97206696D01*
X104276863Y-97165000D01*
X104063137Y-97165000D01*
X103853517Y-97206696D01*
X103656060Y-97288485D01*
X103478353Y-97407225D01*
X103327225Y-97558353D01*
X103208485Y-97736060D01*
X103126696Y-97933517D01*
X103085000Y-98143137D01*
X102790035Y-98143137D01*
X102865678Y-97238072D01*
X103470000Y-97238072D01*
X103594482Y-97225812D01*
X103714180Y-97189502D01*
X103824494Y-97130537D01*
X103921185Y-97051185D01*
X104000537Y-96954494D01*
X104059502Y-96844180D01*
X104095812Y-96724482D01*
X104108072Y-96600000D01*
X104108072Y-95600000D01*
X104095812Y-95475518D01*
X104059502Y-95355820D01*
X104000537Y-95245506D01*
X103921185Y-95148815D01*
X103824494Y-95069463D01*
X103714180Y-95010498D01*
X103594482Y-94974188D01*
X103470000Y-94961928D01*
X103126785Y-94961928D01*
X103306719Y-93768999D01*
X103793749Y-91549706D01*
X104426782Y-89367594D01*
X105203052Y-87232203D01*
X106119133Y-85152960D01*
X107170992Y-83139015D01*
X108354015Y-81199200D01*
X109663000Y-79342048D01*
X111092189Y-77575730D01*
X112635284Y-75908027D01*
X114285522Y-74346247D01*
X116035631Y-72897273D01*
X117877934Y-71567463D01*
X119804304Y-70362683D01*
X121640863Y-69377000D01*
X124873000Y-69377000D01*
X124873000Y-72123000D01*
G37*
%TD.AperFunction*%
%TD*%
D16*
%TO.N,Net-(D1-Pad1)*%
X114123000Y-101197394D02*
X112160197Y-103160197D01*
X112144403Y-103179443D01*
X112132667Y-103201399D01*
X112125440Y-103225224D01*
X112123000Y-103250000D01*
X112123000Y-104911996D01*
X110595577Y-103166370D01*
X110577425Y-103149331D01*
X110556298Y-103136160D01*
X110533007Y-103127364D01*
X110500000Y-103123000D01*
X106318072Y-103123000D01*
X106318072Y-102900000D01*
X106305812Y-102775518D01*
X106269502Y-102655820D01*
X106210537Y-102545506D01*
X106131185Y-102448815D01*
X106034494Y-102369463D01*
X105924180Y-102310498D01*
X105804482Y-102274188D01*
X105680000Y-102261928D01*
X104880000Y-102261928D01*
X104755518Y-102274188D01*
X104635820Y-102310498D01*
X104525506Y-102369463D01*
X104428815Y-102448815D01*
X104349463Y-102545506D01*
X104290498Y-102655820D01*
X104254188Y-102775518D01*
X104241928Y-102900000D01*
X104241928Y-103123000D01*
X104108072Y-103123000D01*
X104108072Y-102900000D01*
X104095812Y-102775518D01*
X104059502Y-102655820D01*
X104000537Y-102545506D01*
X103921185Y-102448815D01*
X103824494Y-102369463D01*
X103714180Y-102310498D01*
X103594482Y-102274188D01*
X103470000Y-102261928D01*
X102824164Y-102261928D01*
X102769006Y-101143137D01*
X103085000Y-101143137D01*
X103085000Y-101356863D01*
X103126696Y-101566483D01*
X103208485Y-101763940D01*
X103327225Y-101941647D01*
X103478353Y-102092775D01*
X103656060Y-102211515D01*
X103853517Y-102293304D01*
X104063137Y-102335000D01*
X104276863Y-102335000D01*
X104486483Y-102293304D01*
X104683940Y-102211515D01*
X104861647Y-102092775D01*
X105012775Y-101941647D01*
X105131515Y-101763940D01*
X105213304Y-101566483D01*
X105255000Y-101356863D01*
X105255000Y-101143137D01*
X105213304Y-100933517D01*
X105131515Y-100736060D01*
X105012775Y-100558353D01*
X104861647Y-100407225D01*
X104683940Y-100288485D01*
X104486483Y-100206696D01*
X104276863Y-100165000D01*
X104063137Y-100165000D01*
X103853517Y-100206696D01*
X103656060Y-100288485D01*
X103478353Y-100407225D01*
X103327225Y-100558353D01*
X103208485Y-100736060D01*
X103126696Y-100933517D01*
X103085000Y-101143137D01*
X102769006Y-101143137D01*
X102739845Y-100551658D01*
X102747091Y-100127000D01*
X109750000Y-100127000D01*
X109774776Y-100124560D01*
X109798601Y-100117333D01*
X109820557Y-100105597D01*
X109839803Y-100089803D01*
X114123000Y-95806606D01*
X114123000Y-101197394D01*
%TA.AperFunction,Conductor*%
D17*
G36*
X114123000Y-101197394D02*
G01*
X112160197Y-103160197D01*
X112144403Y-103179443D01*
X112132667Y-103201399D01*
X112125440Y-103225224D01*
X112123000Y-103250000D01*
X112123000Y-104911996D01*
X110595577Y-103166370D01*
X110577425Y-103149331D01*
X110556298Y-103136160D01*
X110533007Y-103127364D01*
X110500000Y-103123000D01*
X106318072Y-103123000D01*
X106318072Y-102900000D01*
X106305812Y-102775518D01*
X106269502Y-102655820D01*
X106210537Y-102545506D01*
X106131185Y-102448815D01*
X106034494Y-102369463D01*
X105924180Y-102310498D01*
X105804482Y-102274188D01*
X105680000Y-102261928D01*
X104880000Y-102261928D01*
X104755518Y-102274188D01*
X104635820Y-102310498D01*
X104525506Y-102369463D01*
X104428815Y-102448815D01*
X104349463Y-102545506D01*
X104290498Y-102655820D01*
X104254188Y-102775518D01*
X104241928Y-102900000D01*
X104241928Y-103123000D01*
X104108072Y-103123000D01*
X104108072Y-102900000D01*
X104095812Y-102775518D01*
X104059502Y-102655820D01*
X104000537Y-102545506D01*
X103921185Y-102448815D01*
X103824494Y-102369463D01*
X103714180Y-102310498D01*
X103594482Y-102274188D01*
X103470000Y-102261928D01*
X102824164Y-102261928D01*
X102769006Y-101143137D01*
X103085000Y-101143137D01*
X103085000Y-101356863D01*
X103126696Y-101566483D01*
X103208485Y-101763940D01*
X103327225Y-101941647D01*
X103478353Y-102092775D01*
X103656060Y-102211515D01*
X103853517Y-102293304D01*
X104063137Y-102335000D01*
X104276863Y-102335000D01*
X104486483Y-102293304D01*
X104683940Y-102211515D01*
X104861647Y-102092775D01*
X105012775Y-101941647D01*
X105131515Y-101763940D01*
X105213304Y-101566483D01*
X105255000Y-101356863D01*
X105255000Y-101143137D01*
X105213304Y-100933517D01*
X105131515Y-100736060D01*
X105012775Y-100558353D01*
X104861647Y-100407225D01*
X104683940Y-100288485D01*
X104486483Y-100206696D01*
X104276863Y-100165000D01*
X104063137Y-100165000D01*
X103853517Y-100206696D01*
X103656060Y-100288485D01*
X103478353Y-100407225D01*
X103327225Y-100558353D01*
X103208485Y-100736060D01*
X103126696Y-100933517D01*
X103085000Y-101143137D01*
X102769006Y-101143137D01*
X102739845Y-100551658D01*
X102747091Y-100127000D01*
X109750000Y-100127000D01*
X109774776Y-100124560D01*
X109798601Y-100117333D01*
X109820557Y-100105597D01*
X109839803Y-100089803D01*
X114123000Y-95806606D01*
X114123000Y-101197394D01*
G37*
%TD.AperFunction*%
%TD*%
M02*
