%TF.GenerationSoftware,KiCad,Pcbnew,(5.1.10)-1*%
%TF.CreationDate,2021-10-20T07:52:33+02:00*%
%TF.ProjectId,TVZ_kuglica,54565a5f-6b75-4676-9c69-63612e6b6963,rev?*%
%TF.SameCoordinates,Original*%
%TF.FileFunction,Copper,L2,Bot*%
%TF.FilePolarity,Positive*%
%FSLAX46Y46*%
G04 Gerber Fmt 4.6, Leading zero omitted, Abs format (unit mm)*
G04 Created by KiCad (PCBNEW (5.1.10)-1) date 2021-10-20 07:52:33*
%MOMM*%
%LPD*%
G01*
G04 APERTURE LIST*
%TA.AperFunction,SMDPad,CuDef*%
%ADD10O,6.000000X3.000000*%
%TD*%
%TA.AperFunction,SMDPad,CuDef*%
%ADD11R,1.500000X0.700000*%
%TD*%
%TA.AperFunction,SMDPad,CuDef*%
%ADD12R,0.800000X1.000000*%
%TD*%
%TA.AperFunction,ViaPad*%
%ADD13C,0.800000*%
%TD*%
%TA.AperFunction,Conductor*%
%ADD14C,0.762000*%
%TD*%
%TA.AperFunction,Conductor*%
%ADD15C,0.254000*%
%TD*%
%TA.AperFunction,Conductor*%
%ADD16C,0.100000*%
%TD*%
G04 APERTURE END LIST*
D10*
%TO.P,BT1,1*%
%TO.N,VCC*%
X126500000Y-71750000D03*
%TO.P,BT1,2*%
%TO.N,GND*%
X145500000Y-71750000D03*
%TD*%
D11*
%TO.P,SW1,1*%
%TO.N,Net-(R1-Pad1)*%
X105930000Y-102000000D03*
%TO.P,SW1,2*%
%TO.N,VCC*%
X105930000Y-99000000D03*
%TO.P,SW1,3*%
%TO.N,Net-(SW1-Pad3)*%
X105930000Y-97500000D03*
D12*
%TO.P,SW1,*%
%TO.N,*%
X103070000Y-103400000D03*
X103070000Y-96100000D03*
X105280000Y-96100000D03*
X105280000Y-103400000D03*
%TD*%
%TO.P,R1,2*%
%TO.N,Net-(D1-Pad1)*%
%TA.AperFunction,SMDPad,CuDef*%
G36*
G01*
X108425000Y-87775000D02*
X108425000Y-87225000D01*
G75*
G02*
X108625000Y-87025000I200000J0D01*
G01*
X109025000Y-87025000D01*
G75*
G02*
X109225000Y-87225000I0J-200000D01*
G01*
X109225000Y-87775000D01*
G75*
G02*
X109025000Y-87975000I-200000J0D01*
G01*
X108625000Y-87975000D01*
G75*
G02*
X108425000Y-87775000I0J200000D01*
G01*
G37*
%TD.AperFunction*%
%TO.P,R1,1*%
%TO.N,Net-(R1-Pad1)*%
%TA.AperFunction,SMDPad,CuDef*%
G36*
G01*
X106775000Y-87775000D02*
X106775000Y-87225000D01*
G75*
G02*
X106975000Y-87025000I200000J0D01*
G01*
X107375000Y-87025000D01*
G75*
G02*
X107575000Y-87225000I0J-200000D01*
G01*
X107575000Y-87775000D01*
G75*
G02*
X107375000Y-87975000I-200000J0D01*
G01*
X106975000Y-87975000D01*
G75*
G02*
X106775000Y-87775000I0J200000D01*
G01*
G37*
%TD.AperFunction*%
%TD*%
%TO.P,R2,1*%
%TO.N,Net-(R1-Pad1)*%
%TA.AperFunction,SMDPad,CuDef*%
G36*
G01*
X118525000Y-75025000D02*
X118525000Y-74475000D01*
G75*
G02*
X118725000Y-74275000I200000J0D01*
G01*
X119125000Y-74275000D01*
G75*
G02*
X119325000Y-74475000I0J-200000D01*
G01*
X119325000Y-75025000D01*
G75*
G02*
X119125000Y-75225000I-200000J0D01*
G01*
X118725000Y-75225000D01*
G75*
G02*
X118525000Y-75025000I0J200000D01*
G01*
G37*
%TD.AperFunction*%
%TO.P,R2,2*%
%TO.N,Net-(D2-Pad1)*%
%TA.AperFunction,SMDPad,CuDef*%
G36*
G01*
X120175000Y-75025000D02*
X120175000Y-74475000D01*
G75*
G02*
X120375000Y-74275000I200000J0D01*
G01*
X120775000Y-74275000D01*
G75*
G02*
X120975000Y-74475000I0J-200000D01*
G01*
X120975000Y-75025000D01*
G75*
G02*
X120775000Y-75225000I-200000J0D01*
G01*
X120375000Y-75225000D01*
G75*
G02*
X120175000Y-75025000I0J200000D01*
G01*
G37*
%TD.AperFunction*%
%TD*%
%TO.P,R3,2*%
%TO.N,Net-(D3-Pad1)*%
%TA.AperFunction,SMDPad,CuDef*%
G36*
G01*
X153425000Y-76775000D02*
X153425000Y-76225000D01*
G75*
G02*
X153625000Y-76025000I200000J0D01*
G01*
X154025000Y-76025000D01*
G75*
G02*
X154225000Y-76225000I0J-200000D01*
G01*
X154225000Y-76775000D01*
G75*
G02*
X154025000Y-76975000I-200000J0D01*
G01*
X153625000Y-76975000D01*
G75*
G02*
X153425000Y-76775000I0J200000D01*
G01*
G37*
%TD.AperFunction*%
%TO.P,R3,1*%
%TO.N,Net-(R1-Pad1)*%
%TA.AperFunction,SMDPad,CuDef*%
G36*
G01*
X151775000Y-76775000D02*
X151775000Y-76225000D01*
G75*
G02*
X151975000Y-76025000I200000J0D01*
G01*
X152375000Y-76025000D01*
G75*
G02*
X152575000Y-76225000I0J-200000D01*
G01*
X152575000Y-76775000D01*
G75*
G02*
X152375000Y-76975000I-200000J0D01*
G01*
X151975000Y-76975000D01*
G75*
G02*
X151775000Y-76775000I0J200000D01*
G01*
G37*
%TD.AperFunction*%
%TD*%
%TO.P,R4,1*%
%TO.N,Net-(R1-Pad1)*%
%TA.AperFunction,SMDPad,CuDef*%
G36*
G01*
X119275000Y-112525000D02*
X119275000Y-111975000D01*
G75*
G02*
X119475000Y-111775000I200000J0D01*
G01*
X119875000Y-111775000D01*
G75*
G02*
X120075000Y-111975000I0J-200000D01*
G01*
X120075000Y-112525000D01*
G75*
G02*
X119875000Y-112725000I-200000J0D01*
G01*
X119475000Y-112725000D01*
G75*
G02*
X119275000Y-112525000I0J200000D01*
G01*
G37*
%TD.AperFunction*%
%TO.P,R4,2*%
%TO.N,Net-(D4-Pad1)*%
%TA.AperFunction,SMDPad,CuDef*%
G36*
G01*
X120925000Y-112525000D02*
X120925000Y-111975000D01*
G75*
G02*
X121125000Y-111775000I200000J0D01*
G01*
X121525000Y-111775000D01*
G75*
G02*
X121725000Y-111975000I0J-200000D01*
G01*
X121725000Y-112525000D01*
G75*
G02*
X121525000Y-112725000I-200000J0D01*
G01*
X121125000Y-112725000D01*
G75*
G02*
X120925000Y-112525000I0J200000D01*
G01*
G37*
%TD.AperFunction*%
%TD*%
%TO.P,R5,2*%
%TO.N,Net-(D5-Pad1)*%
%TA.AperFunction,SMDPad,CuDef*%
G36*
G01*
X113675000Y-115275000D02*
X113675000Y-114725000D01*
G75*
G02*
X113875000Y-114525000I200000J0D01*
G01*
X114275000Y-114525000D01*
G75*
G02*
X114475000Y-114725000I0J-200000D01*
G01*
X114475000Y-115275000D01*
G75*
G02*
X114275000Y-115475000I-200000J0D01*
G01*
X113875000Y-115475000D01*
G75*
G02*
X113675000Y-115275000I0J200000D01*
G01*
G37*
%TD.AperFunction*%
%TO.P,R5,1*%
%TO.N,Net-(R1-Pad1)*%
%TA.AperFunction,SMDPad,CuDef*%
G36*
G01*
X112025000Y-115275000D02*
X112025000Y-114725000D01*
G75*
G02*
X112225000Y-114525000I200000J0D01*
G01*
X112625000Y-114525000D01*
G75*
G02*
X112825000Y-114725000I0J-200000D01*
G01*
X112825000Y-115275000D01*
G75*
G02*
X112625000Y-115475000I-200000J0D01*
G01*
X112225000Y-115475000D01*
G75*
G02*
X112025000Y-115275000I0J200000D01*
G01*
G37*
%TD.AperFunction*%
%TD*%
%TO.P,R6,1*%
%TO.N,Net-(R1-Pad1)*%
%TA.AperFunction,SMDPad,CuDef*%
G36*
G01*
X111275000Y-101525000D02*
X111275000Y-100975000D01*
G75*
G02*
X111475000Y-100775000I200000J0D01*
G01*
X111875000Y-100775000D01*
G75*
G02*
X112075000Y-100975000I0J-200000D01*
G01*
X112075000Y-101525000D01*
G75*
G02*
X111875000Y-101725000I-200000J0D01*
G01*
X111475000Y-101725000D01*
G75*
G02*
X111275000Y-101525000I0J200000D01*
G01*
G37*
%TD.AperFunction*%
%TO.P,R6,2*%
%TO.N,Net-(D6-Pad1)*%
%TA.AperFunction,SMDPad,CuDef*%
G36*
G01*
X112925000Y-101525000D02*
X112925000Y-100975000D01*
G75*
G02*
X113125000Y-100775000I200000J0D01*
G01*
X113525000Y-100775000D01*
G75*
G02*
X113725000Y-100975000I0J-200000D01*
G01*
X113725000Y-101525000D01*
G75*
G02*
X113525000Y-101725000I-200000J0D01*
G01*
X113125000Y-101725000D01*
G75*
G02*
X112925000Y-101525000I0J200000D01*
G01*
G37*
%TD.AperFunction*%
%TD*%
%TO.P,R7,2*%
%TO.N,Net-(D7-Pad1)*%
%TA.AperFunction,SMDPad,CuDef*%
G36*
G01*
X137425000Y-132525000D02*
X137425000Y-131975000D01*
G75*
G02*
X137625000Y-131775000I200000J0D01*
G01*
X138025000Y-131775000D01*
G75*
G02*
X138225000Y-131975000I0J-200000D01*
G01*
X138225000Y-132525000D01*
G75*
G02*
X138025000Y-132725000I-200000J0D01*
G01*
X137625000Y-132725000D01*
G75*
G02*
X137425000Y-132525000I0J200000D01*
G01*
G37*
%TD.AperFunction*%
%TO.P,R7,1*%
%TO.N,Net-(R1-Pad1)*%
%TA.AperFunction,SMDPad,CuDef*%
G36*
G01*
X135775000Y-132525000D02*
X135775000Y-131975000D01*
G75*
G02*
X135975000Y-131775000I200000J0D01*
G01*
X136375000Y-131775000D01*
G75*
G02*
X136575000Y-131975000I0J-200000D01*
G01*
X136575000Y-132525000D01*
G75*
G02*
X136375000Y-132725000I-200000J0D01*
G01*
X135975000Y-132725000D01*
G75*
G02*
X135775000Y-132525000I0J200000D01*
G01*
G37*
%TD.AperFunction*%
%TD*%
%TO.P,R8,1*%
%TO.N,Net-(R1-Pad1)*%
%TA.AperFunction,SMDPad,CuDef*%
G36*
G01*
X154275000Y-111025000D02*
X154275000Y-110475000D01*
G75*
G02*
X154475000Y-110275000I200000J0D01*
G01*
X154875000Y-110275000D01*
G75*
G02*
X155075000Y-110475000I0J-200000D01*
G01*
X155075000Y-111025000D01*
G75*
G02*
X154875000Y-111225000I-200000J0D01*
G01*
X154475000Y-111225000D01*
G75*
G02*
X154275000Y-111025000I0J200000D01*
G01*
G37*
%TD.AperFunction*%
%TO.P,R8,2*%
%TO.N,Net-(D8-Pad1)*%
%TA.AperFunction,SMDPad,CuDef*%
G36*
G01*
X155925000Y-111025000D02*
X155925000Y-110475000D01*
G75*
G02*
X156125000Y-110275000I200000J0D01*
G01*
X156525000Y-110275000D01*
G75*
G02*
X156725000Y-110475000I0J-200000D01*
G01*
X156725000Y-111025000D01*
G75*
G02*
X156525000Y-111225000I-200000J0D01*
G01*
X156125000Y-111225000D01*
G75*
G02*
X155925000Y-111025000I0J200000D01*
G01*
G37*
%TD.AperFunction*%
%TD*%
%TO.P,R9,2*%
%TO.N,Net-(D9-Pad1)*%
%TA.AperFunction,SMDPad,CuDef*%
G36*
G01*
X132925000Y-74025000D02*
X132925000Y-73475000D01*
G75*
G02*
X133125000Y-73275000I200000J0D01*
G01*
X133525000Y-73275000D01*
G75*
G02*
X133725000Y-73475000I0J-200000D01*
G01*
X133725000Y-74025000D01*
G75*
G02*
X133525000Y-74225000I-200000J0D01*
G01*
X133125000Y-74225000D01*
G75*
G02*
X132925000Y-74025000I0J200000D01*
G01*
G37*
%TD.AperFunction*%
%TO.P,R9,1*%
%TO.N,Net-(R1-Pad1)*%
%TA.AperFunction,SMDPad,CuDef*%
G36*
G01*
X131275000Y-74025000D02*
X131275000Y-73475000D01*
G75*
G02*
X131475000Y-73275000I200000J0D01*
G01*
X131875000Y-73275000D01*
G75*
G02*
X132075000Y-73475000I0J-200000D01*
G01*
X132075000Y-74025000D01*
G75*
G02*
X131875000Y-74225000I-200000J0D01*
G01*
X131475000Y-74225000D01*
G75*
G02*
X131275000Y-74025000I0J200000D01*
G01*
G37*
%TD.AperFunction*%
%TD*%
%TO.P,R10,1*%
%TO.N,Net-(R1-Pad1)*%
%TA.AperFunction,SMDPad,CuDef*%
G36*
G01*
X119275000Y-106025000D02*
X119275000Y-105475000D01*
G75*
G02*
X119475000Y-105275000I200000J0D01*
G01*
X119875000Y-105275000D01*
G75*
G02*
X120075000Y-105475000I0J-200000D01*
G01*
X120075000Y-106025000D01*
G75*
G02*
X119875000Y-106225000I-200000J0D01*
G01*
X119475000Y-106225000D01*
G75*
G02*
X119275000Y-106025000I0J200000D01*
G01*
G37*
%TD.AperFunction*%
%TO.P,R10,2*%
%TO.N,Net-(D10-Pad1)*%
%TA.AperFunction,SMDPad,CuDef*%
G36*
G01*
X120925000Y-106025000D02*
X120925000Y-105475000D01*
G75*
G02*
X121125000Y-105275000I200000J0D01*
G01*
X121525000Y-105275000D01*
G75*
G02*
X121725000Y-105475000I0J-200000D01*
G01*
X121725000Y-106025000D01*
G75*
G02*
X121525000Y-106225000I-200000J0D01*
G01*
X121125000Y-106225000D01*
G75*
G02*
X120925000Y-106025000I0J200000D01*
G01*
G37*
%TD.AperFunction*%
%TD*%
%TO.P,R11,2*%
%TO.N,Net-(D11-Pad1)*%
%TA.AperFunction,SMDPad,CuDef*%
G36*
G01*
X120925000Y-127025000D02*
X120925000Y-126475000D01*
G75*
G02*
X121125000Y-126275000I200000J0D01*
G01*
X121525000Y-126275000D01*
G75*
G02*
X121725000Y-126475000I0J-200000D01*
G01*
X121725000Y-127025000D01*
G75*
G02*
X121525000Y-127225000I-200000J0D01*
G01*
X121125000Y-127225000D01*
G75*
G02*
X120925000Y-127025000I0J200000D01*
G01*
G37*
%TD.AperFunction*%
%TO.P,R11,1*%
%TO.N,Net-(R1-Pad1)*%
%TA.AperFunction,SMDPad,CuDef*%
G36*
G01*
X119275000Y-127025000D02*
X119275000Y-126475000D01*
G75*
G02*
X119475000Y-126275000I200000J0D01*
G01*
X119875000Y-126275000D01*
G75*
G02*
X120075000Y-126475000I0J-200000D01*
G01*
X120075000Y-127025000D01*
G75*
G02*
X119875000Y-127225000I-200000J0D01*
G01*
X119475000Y-127225000D01*
G75*
G02*
X119275000Y-127025000I0J200000D01*
G01*
G37*
%TD.AperFunction*%
%TD*%
%TO.P,R12,1*%
%TO.N,Net-(R1-Pad1)*%
%TA.AperFunction,SMDPad,CuDef*%
G36*
G01*
X119275000Y-94275000D02*
X119275000Y-93725000D01*
G75*
G02*
X119475000Y-93525000I200000J0D01*
G01*
X119875000Y-93525000D01*
G75*
G02*
X120075000Y-93725000I0J-200000D01*
G01*
X120075000Y-94275000D01*
G75*
G02*
X119875000Y-94475000I-200000J0D01*
G01*
X119475000Y-94475000D01*
G75*
G02*
X119275000Y-94275000I0J200000D01*
G01*
G37*
%TD.AperFunction*%
%TO.P,R12,2*%
%TO.N,Net-(D12-Pad1)*%
%TA.AperFunction,SMDPad,CuDef*%
G36*
G01*
X120925000Y-94275000D02*
X120925000Y-93725000D01*
G75*
G02*
X121125000Y-93525000I200000J0D01*
G01*
X121525000Y-93525000D01*
G75*
G02*
X121725000Y-93725000I0J-200000D01*
G01*
X121725000Y-94275000D01*
G75*
G02*
X121525000Y-94475000I-200000J0D01*
G01*
X121125000Y-94475000D01*
G75*
G02*
X120925000Y-94275000I0J200000D01*
G01*
G37*
%TD.AperFunction*%
%TD*%
D13*
%TO.N,Net-(D1-Pad1)*%
X109750000Y-87500000D03*
%TO.N,GND*%
X125500000Y-74750000D03*
X113750000Y-87500000D03*
X158750000Y-76500000D03*
X139500000Y-76500000D03*
X142000000Y-94000000D03*
X118250000Y-101250000D03*
X149750000Y-105750000D03*
X161250000Y-110750000D03*
X137250000Y-112250000D03*
X129000000Y-126750000D03*
X119000000Y-115000000D03*
X145250000Y-129750000D03*
X151500000Y-79500000D03*
X129750000Y-73500000D03*
X120500000Y-81500000D03*
X126750000Y-92000000D03*
X158250000Y-90250000D03*
X154500000Y-99000000D03*
X166750000Y-103750000D03*
X147250000Y-108250000D03*
X163000000Y-116750000D03*
X145250000Y-116250000D03*
X124000000Y-107500000D03*
X111000000Y-107500000D03*
X115500000Y-125500000D03*
X139750000Y-125500000D03*
X141250000Y-132750000D03*
X154250000Y-123750000D03*
%TO.N,Net-(D2-Pad1)*%
X121500000Y-74750000D03*
%TO.N,Net-(D3-Pad1)*%
X154750000Y-76500000D03*
%TO.N,Net-(D4-Pad1)*%
X133250000Y-112250000D03*
%TO.N,Net-(D5-Pad1)*%
X115000000Y-115000000D03*
%TO.N,Net-(D6-Pad1)*%
X114250000Y-101250000D03*
%TO.N,Net-(D7-Pad1)*%
X141250000Y-129750000D03*
%TO.N,Net-(D8-Pad1)*%
X157250000Y-110750000D03*
%TO.N,Net-(D9-Pad1)*%
X135500000Y-76500000D03*
%TO.N,Net-(D10-Pad1)*%
X145750000Y-105750000D03*
%TO.N,Net-(D11-Pad1)*%
X125000000Y-126750000D03*
%TO.N,Net-(D12-Pad1)*%
X138000000Y-94000000D03*
%TD*%
D14*
%TO.N,Net-(D1-Pad1)*%
X108825000Y-87500000D02*
X109750000Y-87500000D01*
%TO.N,VCC*%
X126500000Y-71750000D02*
X126500000Y-79250000D01*
X106750000Y-99000000D02*
X105930000Y-99000000D01*
X126500000Y-79250000D02*
X106750000Y-99000000D01*
%TO.N,Net-(D2-Pad1)*%
X120575000Y-74750000D02*
X121500000Y-74750000D01*
%TO.N,Net-(D3-Pad1)*%
X154750000Y-76500000D02*
X153825000Y-76500000D01*
%TO.N,Net-(D4-Pad1)*%
X121325000Y-112250000D02*
X133250000Y-112250000D01*
%TO.N,Net-(D5-Pad1)*%
X114075000Y-115000000D02*
X115000000Y-115000000D01*
%TO.N,Net-(D6-Pad1)*%
X114250000Y-101250000D02*
X113325000Y-101250000D01*
%TO.N,Net-(D7-Pad1)*%
X138750000Y-132250000D02*
X141250000Y-129750000D01*
X137825000Y-132250000D02*
X138750000Y-132250000D01*
%TO.N,Net-(D8-Pad1)*%
X156325000Y-110750000D02*
X157250000Y-110750000D01*
%TO.N,Net-(D9-Pad1)*%
X135500000Y-75925000D02*
X133325000Y-73750000D01*
X135500000Y-76500000D02*
X135500000Y-75925000D01*
%TO.N,Net-(D10-Pad1)*%
X121325000Y-105750000D02*
X145750000Y-105750000D01*
%TO.N,Net-(D11-Pad1)*%
X125000000Y-126750000D02*
X121325000Y-126750000D01*
%TO.N,Net-(D12-Pad1)*%
X138000000Y-94000000D02*
X121325000Y-94000000D01*
%TO.N,Net-(R1-Pad1)*%
X111675000Y-101250000D02*
X109500000Y-101250000D01*
X108750000Y-102000000D02*
X105930000Y-102000000D01*
X109500000Y-101250000D02*
X108750000Y-102000000D01*
X112500000Y-105750000D02*
X108750000Y-102000000D01*
X119000000Y-112250000D02*
X119675000Y-112250000D01*
X113500000Y-106000000D02*
X113750000Y-105750000D01*
X113500000Y-106750000D02*
X113500000Y-106000000D01*
X113750000Y-105750000D02*
X112500000Y-105750000D01*
X119675000Y-105750000D02*
X113750000Y-105750000D01*
X112500000Y-105750000D02*
X113500000Y-106750000D01*
X112425000Y-115000000D02*
X112425000Y-111825000D01*
X116000000Y-109250000D02*
X116125000Y-109375000D01*
X115000000Y-109250000D02*
X116000000Y-109250000D01*
X115500000Y-108750000D02*
X116125000Y-109375000D01*
X112425000Y-111825000D02*
X115000000Y-109250000D01*
X116125000Y-109375000D02*
X119000000Y-112250000D01*
X115000000Y-109250000D02*
X115500000Y-108750000D01*
X115000000Y-109250000D02*
X115000000Y-108250000D01*
X115000000Y-108250000D02*
X115500000Y-108750000D01*
X113500000Y-106750000D02*
X115000000Y-108250000D01*
X112425000Y-115000000D02*
X112425000Y-119675000D01*
X119500000Y-126750000D02*
X119675000Y-126750000D01*
X112425000Y-119675000D02*
X119500000Y-126750000D01*
X107175000Y-87500000D02*
X107175000Y-86325000D01*
X118750000Y-74750000D02*
X118925000Y-74750000D01*
X107175000Y-86325000D02*
X118750000Y-74750000D01*
X118925000Y-74275000D02*
X124200000Y-69000000D01*
X118925000Y-74750000D02*
X118925000Y-74275000D01*
X124200000Y-69000000D02*
X130000000Y-69000000D01*
X131675000Y-70675000D02*
X131675000Y-73750000D01*
X130000000Y-69000000D02*
X131675000Y-70675000D01*
X131675000Y-73750000D02*
X131675000Y-77325000D01*
X111675000Y-101250000D02*
X111675000Y-97575000D01*
X111675000Y-97575000D02*
X117925000Y-91325000D01*
X118675000Y-91325000D02*
X119675000Y-90325000D01*
X119675000Y-90325000D02*
X119675000Y-91325000D01*
X119675000Y-89325000D02*
X119675000Y-90325000D01*
X117925000Y-91325000D02*
X118575000Y-91325000D01*
X118575000Y-91325000D02*
X119675000Y-91325000D01*
X118675000Y-91325000D02*
X119675000Y-92325000D01*
X118575000Y-91325000D02*
X118675000Y-91325000D01*
X119675000Y-92325000D02*
X119675000Y-94000000D01*
X119675000Y-91325000D02*
X119675000Y-92325000D01*
X154675000Y-110750000D02*
X147250000Y-110750000D01*
X147250000Y-110750000D02*
X136175000Y-121825000D01*
X119675000Y-126750000D02*
X119675000Y-128175000D01*
X119675000Y-128175000D02*
X120575000Y-129075000D01*
X134825000Y-129075000D02*
X136175000Y-129075000D01*
X136175000Y-130425000D02*
X134825000Y-129075000D01*
X120575000Y-129075000D02*
X134825000Y-129075000D01*
X136175000Y-129075000D02*
X136175000Y-130425000D01*
X136175000Y-130425000D02*
X136175000Y-132250000D01*
X136075000Y-127825000D02*
X134825000Y-129075000D01*
X136175000Y-127825000D02*
X136075000Y-127825000D01*
X136175000Y-121825000D02*
X136175000Y-127825000D01*
X136175000Y-127825000D02*
X136175000Y-129075000D01*
X152175000Y-76500000D02*
X145000000Y-76500000D01*
X145000000Y-76500000D02*
X140375000Y-81125000D01*
X127875000Y-81125000D02*
X119675000Y-89325000D01*
X128875000Y-80375000D02*
X129625000Y-81125000D01*
X128875000Y-80125000D02*
X128875000Y-80375000D01*
X129625000Y-81125000D02*
X127875000Y-81125000D01*
X140375000Y-81125000D02*
X129625000Y-81125000D01*
X131675000Y-77325000D02*
X128875000Y-80125000D01*
X128875000Y-80125000D02*
X127875000Y-81125000D01*
%TD*%
D15*
%TO.N,GND*%
X137886138Y-55831059D02*
X138610388Y-56053867D01*
X139283738Y-56401409D01*
X139884901Y-56862699D01*
X140394872Y-57423149D01*
X140797540Y-58065057D01*
X141080170Y-58768122D01*
X141236190Y-59521513D01*
X141265000Y-60021169D01*
X141265001Y-61306272D01*
X141266298Y-61319440D01*
X141278413Y-61656049D01*
X141278863Y-61659632D01*
X141278707Y-61663242D01*
X141287438Y-61747410D01*
X141429908Y-62624862D01*
X141435629Y-62647269D01*
X141438736Y-62670183D01*
X141462234Y-62751474D01*
X141757835Y-63589830D01*
X141767433Y-63610870D01*
X141774549Y-63632871D01*
X141812059Y-63708691D01*
X141812071Y-63708717D01*
X141812077Y-63708725D01*
X142251461Y-64481476D01*
X142264630Y-64500478D01*
X142275533Y-64520879D01*
X142325894Y-64588881D01*
X142895182Y-65271616D01*
X142911512Y-65287990D01*
X142925851Y-65306132D01*
X142987458Y-65364142D01*
X143668651Y-65935276D01*
X143687625Y-65948502D01*
X143704950Y-65963817D01*
X143775855Y-66010000D01*
X144547423Y-66451478D01*
X144568436Y-66461133D01*
X144588200Y-66473139D01*
X144666163Y-66506036D01*
X145503715Y-66803905D01*
X145508021Y-66805017D01*
X145525587Y-66811299D01*
X145542755Y-66816572D01*
X147746053Y-67464098D01*
X149878711Y-68247813D01*
X151954729Y-69171140D01*
X153965017Y-70230036D01*
X155900673Y-71419812D01*
X157753239Y-72735268D01*
X159514561Y-74170616D01*
X161176886Y-75719540D01*
X162732884Y-77375207D01*
X164175738Y-79130360D01*
X165499106Y-80977290D01*
X166697162Y-82907865D01*
X167764630Y-84913581D01*
X168696830Y-86985643D01*
X169489658Y-89114933D01*
X170139624Y-91292080D01*
X170643873Y-93507517D01*
X171000188Y-95751501D01*
X171207004Y-98014175D01*
X171263407Y-100285560D01*
X171169153Y-102555700D01*
X170924654Y-104814605D01*
X170530986Y-107052337D01*
X169989882Y-109259064D01*
X169303718Y-111425077D01*
X168475512Y-113540851D01*
X167508906Y-115597090D01*
X166408155Y-117584736D01*
X165178083Y-119495080D01*
X163824120Y-121319689D01*
X162352204Y-123050560D01*
X160768823Y-124680064D01*
X159080926Y-126201055D01*
X157295931Y-127606843D01*
X155421695Y-128891239D01*
X153466456Y-130048599D01*
X151438820Y-131073832D01*
X149347702Y-131962428D01*
X147202263Y-132710493D01*
X145011999Y-133314718D01*
X142786467Y-133772464D01*
X140535523Y-134081705D01*
X138269022Y-134241089D01*
X135996953Y-134249911D01*
X133729262Y-134108134D01*
X131475992Y-133816385D01*
X129246983Y-133375938D01*
X127052076Y-132788738D01*
X124900917Y-132057366D01*
X122802939Y-131185029D01*
X120767401Y-130175574D01*
X120622383Y-130091247D01*
X120624893Y-130091000D01*
X134404160Y-130091000D01*
X135159000Y-130845841D01*
X135159001Y-131791820D01*
X135153031Y-131811500D01*
X135136928Y-131975000D01*
X135136928Y-132525000D01*
X135153031Y-132688500D01*
X135200722Y-132845716D01*
X135278169Y-132990608D01*
X135382394Y-133117606D01*
X135509392Y-133221831D01*
X135654284Y-133299278D01*
X135811500Y-133346969D01*
X135975000Y-133363072D01*
X136375000Y-133363072D01*
X136538500Y-133346969D01*
X136695716Y-133299278D01*
X136840608Y-133221831D01*
X136967606Y-133117606D01*
X137000000Y-133078134D01*
X137032394Y-133117606D01*
X137159392Y-133221831D01*
X137304284Y-133299278D01*
X137461500Y-133346969D01*
X137625000Y-133363072D01*
X138025000Y-133363072D01*
X138188500Y-133346969D01*
X138345716Y-133299278D01*
X138407974Y-133266000D01*
X138700098Y-133266000D01*
X138750000Y-133270915D01*
X138799902Y-133266000D01*
X138949171Y-133251298D01*
X139140687Y-133193202D01*
X139317190Y-133098860D01*
X139471896Y-132971896D01*
X139503712Y-132933128D01*
X141828797Y-130608044D01*
X141909774Y-130553937D01*
X142053937Y-130409774D01*
X142167205Y-130240256D01*
X142245226Y-130051898D01*
X142285000Y-129851939D01*
X142285000Y-129648061D01*
X142245226Y-129448102D01*
X142167205Y-129259744D01*
X142053937Y-129090226D01*
X141909774Y-128946063D01*
X141740256Y-128832795D01*
X141551898Y-128754774D01*
X141351939Y-128715000D01*
X141148061Y-128715000D01*
X140948102Y-128754774D01*
X140759744Y-128832795D01*
X140590226Y-128946063D01*
X140446063Y-129090226D01*
X140391956Y-129171203D01*
X138356613Y-131206547D01*
X138345716Y-131200722D01*
X138188500Y-131153031D01*
X138025000Y-131136928D01*
X137625000Y-131136928D01*
X137461500Y-131153031D01*
X137304284Y-131200722D01*
X137191000Y-131261274D01*
X137191000Y-130474893D01*
X137195914Y-130424999D01*
X137191000Y-130375105D01*
X137191000Y-129124902D01*
X137195915Y-129075000D01*
X137191000Y-129025098D01*
X137191000Y-127874902D01*
X137195915Y-127825000D01*
X137191000Y-127775098D01*
X137191000Y-122245840D01*
X147670841Y-111766000D01*
X154092026Y-111766000D01*
X154154284Y-111799278D01*
X154311500Y-111846969D01*
X154475000Y-111863072D01*
X154875000Y-111863072D01*
X155038500Y-111846969D01*
X155195716Y-111799278D01*
X155340608Y-111721831D01*
X155467606Y-111617606D01*
X155500000Y-111578134D01*
X155532394Y-111617606D01*
X155659392Y-111721831D01*
X155804284Y-111799278D01*
X155961500Y-111846969D01*
X156125000Y-111863072D01*
X156525000Y-111863072D01*
X156688500Y-111846969D01*
X156845716Y-111799278D01*
X156907974Y-111766000D01*
X157052541Y-111766000D01*
X157148061Y-111785000D01*
X157351939Y-111785000D01*
X157551898Y-111745226D01*
X157740256Y-111667205D01*
X157909774Y-111553937D01*
X158053937Y-111409774D01*
X158167205Y-111240256D01*
X158245226Y-111051898D01*
X158285000Y-110851939D01*
X158285000Y-110648061D01*
X158245226Y-110448102D01*
X158167205Y-110259744D01*
X158053937Y-110090226D01*
X157909774Y-109946063D01*
X157740256Y-109832795D01*
X157551898Y-109754774D01*
X157351939Y-109715000D01*
X157148061Y-109715000D01*
X157052541Y-109734000D01*
X156907974Y-109734000D01*
X156845716Y-109700722D01*
X156688500Y-109653031D01*
X156525000Y-109636928D01*
X156125000Y-109636928D01*
X155961500Y-109653031D01*
X155804284Y-109700722D01*
X155659392Y-109778169D01*
X155532394Y-109882394D01*
X155500000Y-109921866D01*
X155467606Y-109882394D01*
X155340608Y-109778169D01*
X155195716Y-109700722D01*
X155038500Y-109653031D01*
X154875000Y-109636928D01*
X154475000Y-109636928D01*
X154311500Y-109653031D01*
X154154284Y-109700722D01*
X154092026Y-109734000D01*
X147299893Y-109734000D01*
X147249999Y-109729086D01*
X147200105Y-109734000D01*
X147200098Y-109734000D01*
X147050829Y-109748702D01*
X146859313Y-109806798D01*
X146682810Y-109901140D01*
X146528104Y-110028104D01*
X146496292Y-110066867D01*
X135491872Y-121071288D01*
X135453104Y-121103104D01*
X135326140Y-121257810D01*
X135231798Y-121434314D01*
X135184121Y-121591484D01*
X135173702Y-121625830D01*
X135154085Y-121825000D01*
X135159000Y-121874902D01*
X135159001Y-127304158D01*
X134404160Y-128059000D01*
X120995841Y-128059000D01*
X120691000Y-127754160D01*
X120691000Y-127738726D01*
X120804284Y-127799278D01*
X120961500Y-127846969D01*
X121125000Y-127863072D01*
X121525000Y-127863072D01*
X121688500Y-127846969D01*
X121845716Y-127799278D01*
X121907974Y-127766000D01*
X124802541Y-127766000D01*
X124898061Y-127785000D01*
X125101939Y-127785000D01*
X125301898Y-127745226D01*
X125490256Y-127667205D01*
X125659774Y-127553937D01*
X125803937Y-127409774D01*
X125917205Y-127240256D01*
X125995226Y-127051898D01*
X126035000Y-126851939D01*
X126035000Y-126648061D01*
X125995226Y-126448102D01*
X125917205Y-126259744D01*
X125803937Y-126090226D01*
X125659774Y-125946063D01*
X125490256Y-125832795D01*
X125301898Y-125754774D01*
X125101939Y-125715000D01*
X124898061Y-125715000D01*
X124802541Y-125734000D01*
X121907974Y-125734000D01*
X121845716Y-125700722D01*
X121688500Y-125653031D01*
X121525000Y-125636928D01*
X121125000Y-125636928D01*
X120961500Y-125653031D01*
X120804284Y-125700722D01*
X120659392Y-125778169D01*
X120532394Y-125882394D01*
X120500000Y-125921866D01*
X120467606Y-125882394D01*
X120340608Y-125778169D01*
X120195716Y-125700722D01*
X120038500Y-125653031D01*
X119875000Y-125636928D01*
X119823769Y-125636928D01*
X113441000Y-119254160D01*
X113441000Y-115988726D01*
X113554284Y-116049278D01*
X113711500Y-116096969D01*
X113875000Y-116113072D01*
X114275000Y-116113072D01*
X114438500Y-116096969D01*
X114595716Y-116049278D01*
X114657974Y-116016000D01*
X114802541Y-116016000D01*
X114898061Y-116035000D01*
X115101939Y-116035000D01*
X115301898Y-115995226D01*
X115490256Y-115917205D01*
X115659774Y-115803937D01*
X115803937Y-115659774D01*
X115917205Y-115490256D01*
X115995226Y-115301898D01*
X116035000Y-115101939D01*
X116035000Y-114898061D01*
X115995226Y-114698102D01*
X115917205Y-114509744D01*
X115803937Y-114340226D01*
X115659774Y-114196063D01*
X115490256Y-114082795D01*
X115301898Y-114004774D01*
X115101939Y-113965000D01*
X114898061Y-113965000D01*
X114802541Y-113984000D01*
X114657974Y-113984000D01*
X114595716Y-113950722D01*
X114438500Y-113903031D01*
X114275000Y-113886928D01*
X113875000Y-113886928D01*
X113711500Y-113903031D01*
X113554284Y-113950722D01*
X113441000Y-114011274D01*
X113441000Y-112245840D01*
X115420841Y-110266000D01*
X115579160Y-110266000D01*
X118246292Y-112933133D01*
X118278104Y-112971896D01*
X118432810Y-113098860D01*
X118609313Y-113193202D01*
X118800829Y-113251298D01*
X118906522Y-113261708D01*
X119000000Y-113270915D01*
X119049902Y-113266000D01*
X119092026Y-113266000D01*
X119154284Y-113299278D01*
X119311500Y-113346969D01*
X119475000Y-113363072D01*
X119875000Y-113363072D01*
X120038500Y-113346969D01*
X120195716Y-113299278D01*
X120340608Y-113221831D01*
X120467606Y-113117606D01*
X120500000Y-113078134D01*
X120532394Y-113117606D01*
X120659392Y-113221831D01*
X120804284Y-113299278D01*
X120961500Y-113346969D01*
X121125000Y-113363072D01*
X121525000Y-113363072D01*
X121688500Y-113346969D01*
X121845716Y-113299278D01*
X121907974Y-113266000D01*
X133052541Y-113266000D01*
X133148061Y-113285000D01*
X133351939Y-113285000D01*
X133551898Y-113245226D01*
X133740256Y-113167205D01*
X133909774Y-113053937D01*
X134053937Y-112909774D01*
X134167205Y-112740256D01*
X134245226Y-112551898D01*
X134285000Y-112351939D01*
X134285000Y-112148061D01*
X134245226Y-111948102D01*
X134167205Y-111759744D01*
X134053937Y-111590226D01*
X133909774Y-111446063D01*
X133740256Y-111332795D01*
X133551898Y-111254774D01*
X133351939Y-111215000D01*
X133148061Y-111215000D01*
X133052541Y-111234000D01*
X121907974Y-111234000D01*
X121845716Y-111200722D01*
X121688500Y-111153031D01*
X121525000Y-111136928D01*
X121125000Y-111136928D01*
X120961500Y-111153031D01*
X120804284Y-111200722D01*
X120659392Y-111278169D01*
X120532394Y-111382394D01*
X120500000Y-111421866D01*
X120467606Y-111382394D01*
X120340608Y-111278169D01*
X120195716Y-111200722D01*
X120038500Y-111153031D01*
X119875000Y-111136928D01*
X119475000Y-111136928D01*
X119337328Y-111150487D01*
X116808134Y-108621294D01*
X116753713Y-108566873D01*
X116721896Y-108528104D01*
X116683127Y-108496287D01*
X116253710Y-108066870D01*
X116221896Y-108028104D01*
X116183130Y-107996290D01*
X115753713Y-107566873D01*
X115721896Y-107528104D01*
X115683133Y-107496292D01*
X114952840Y-106766000D01*
X119092026Y-106766000D01*
X119154284Y-106799278D01*
X119311500Y-106846969D01*
X119475000Y-106863072D01*
X119875000Y-106863072D01*
X120038500Y-106846969D01*
X120195716Y-106799278D01*
X120340608Y-106721831D01*
X120467606Y-106617606D01*
X120500000Y-106578134D01*
X120532394Y-106617606D01*
X120659392Y-106721831D01*
X120804284Y-106799278D01*
X120961500Y-106846969D01*
X121125000Y-106863072D01*
X121525000Y-106863072D01*
X121688500Y-106846969D01*
X121845716Y-106799278D01*
X121907974Y-106766000D01*
X145552541Y-106766000D01*
X145648061Y-106785000D01*
X145851939Y-106785000D01*
X146051898Y-106745226D01*
X146240256Y-106667205D01*
X146409774Y-106553937D01*
X146553937Y-106409774D01*
X146667205Y-106240256D01*
X146745226Y-106051898D01*
X146785000Y-105851939D01*
X146785000Y-105648061D01*
X146745226Y-105448102D01*
X146667205Y-105259744D01*
X146553937Y-105090226D01*
X146409774Y-104946063D01*
X146240256Y-104832795D01*
X146051898Y-104754774D01*
X145851939Y-104715000D01*
X145648061Y-104715000D01*
X145552541Y-104734000D01*
X121907974Y-104734000D01*
X121845716Y-104700722D01*
X121688500Y-104653031D01*
X121525000Y-104636928D01*
X121125000Y-104636928D01*
X120961500Y-104653031D01*
X120804284Y-104700722D01*
X120659392Y-104778169D01*
X120532394Y-104882394D01*
X120500000Y-104921866D01*
X120467606Y-104882394D01*
X120340608Y-104778169D01*
X120195716Y-104700722D01*
X120038500Y-104653031D01*
X119875000Y-104636928D01*
X119475000Y-104636928D01*
X119311500Y-104653031D01*
X119154284Y-104700722D01*
X119092026Y-104734000D01*
X113799893Y-104734000D01*
X113749999Y-104729086D01*
X113700105Y-104734000D01*
X112920841Y-104734000D01*
X110452840Y-102266000D01*
X111092026Y-102266000D01*
X111154284Y-102299278D01*
X111311500Y-102346969D01*
X111475000Y-102363072D01*
X111875000Y-102363072D01*
X112038500Y-102346969D01*
X112195716Y-102299278D01*
X112340608Y-102221831D01*
X112467606Y-102117606D01*
X112500000Y-102078134D01*
X112532394Y-102117606D01*
X112659392Y-102221831D01*
X112804284Y-102299278D01*
X112961500Y-102346969D01*
X113125000Y-102363072D01*
X113525000Y-102363072D01*
X113688500Y-102346969D01*
X113845716Y-102299278D01*
X113907974Y-102266000D01*
X114052541Y-102266000D01*
X114148061Y-102285000D01*
X114351939Y-102285000D01*
X114551898Y-102245226D01*
X114740256Y-102167205D01*
X114909774Y-102053937D01*
X115053937Y-101909774D01*
X115167205Y-101740256D01*
X115245226Y-101551898D01*
X115285000Y-101351939D01*
X115285000Y-101148061D01*
X115245226Y-100948102D01*
X115167205Y-100759744D01*
X115053937Y-100590226D01*
X114909774Y-100446063D01*
X114740256Y-100332795D01*
X114551898Y-100254774D01*
X114351939Y-100215000D01*
X114148061Y-100215000D01*
X114052541Y-100234000D01*
X113907974Y-100234000D01*
X113845716Y-100200722D01*
X113688500Y-100153031D01*
X113525000Y-100136928D01*
X113125000Y-100136928D01*
X112961500Y-100153031D01*
X112804284Y-100200722D01*
X112691000Y-100261274D01*
X112691000Y-97995840D01*
X118300000Y-92386841D01*
X118659000Y-92745841D01*
X118659001Y-93541821D01*
X118653031Y-93561500D01*
X118636928Y-93725000D01*
X118636928Y-94275000D01*
X118653031Y-94438500D01*
X118700722Y-94595716D01*
X118778169Y-94740608D01*
X118882394Y-94867606D01*
X119009392Y-94971831D01*
X119154284Y-95049278D01*
X119311500Y-95096969D01*
X119475000Y-95113072D01*
X119875000Y-95113072D01*
X120038500Y-95096969D01*
X120195716Y-95049278D01*
X120340608Y-94971831D01*
X120467606Y-94867606D01*
X120500000Y-94828134D01*
X120532394Y-94867606D01*
X120659392Y-94971831D01*
X120804284Y-95049278D01*
X120961500Y-95096969D01*
X121125000Y-95113072D01*
X121525000Y-95113072D01*
X121688500Y-95096969D01*
X121845716Y-95049278D01*
X121907974Y-95016000D01*
X137802541Y-95016000D01*
X137898061Y-95035000D01*
X138101939Y-95035000D01*
X138301898Y-94995226D01*
X138490256Y-94917205D01*
X138659774Y-94803937D01*
X138803937Y-94659774D01*
X138917205Y-94490256D01*
X138995226Y-94301898D01*
X139035000Y-94101939D01*
X139035000Y-93898061D01*
X138995226Y-93698102D01*
X138917205Y-93509744D01*
X138803937Y-93340226D01*
X138659774Y-93196063D01*
X138490256Y-93082795D01*
X138301898Y-93004774D01*
X138101939Y-92965000D01*
X137898061Y-92965000D01*
X137802541Y-92984000D01*
X121907974Y-92984000D01*
X121845716Y-92950722D01*
X121688500Y-92903031D01*
X121525000Y-92886928D01*
X121125000Y-92886928D01*
X120961500Y-92903031D01*
X120804284Y-92950722D01*
X120691000Y-93011274D01*
X120691000Y-92374902D01*
X120695915Y-92325000D01*
X120691000Y-92275098D01*
X120691000Y-91374902D01*
X120695915Y-91325000D01*
X120691000Y-91275098D01*
X120691000Y-90374902D01*
X120695915Y-90325000D01*
X120691000Y-90275098D01*
X120691000Y-89745840D01*
X128295841Y-82141000D01*
X129575105Y-82141000D01*
X129624999Y-82145914D01*
X129674893Y-82141000D01*
X140325098Y-82141000D01*
X140375000Y-82145915D01*
X140424902Y-82141000D01*
X140574171Y-82126298D01*
X140765687Y-82068202D01*
X140942190Y-81973860D01*
X141096896Y-81846896D01*
X141128712Y-81808128D01*
X145420841Y-77516000D01*
X151592026Y-77516000D01*
X151654284Y-77549278D01*
X151811500Y-77596969D01*
X151975000Y-77613072D01*
X152375000Y-77613072D01*
X152538500Y-77596969D01*
X152695716Y-77549278D01*
X152840608Y-77471831D01*
X152967606Y-77367606D01*
X153000000Y-77328134D01*
X153032394Y-77367606D01*
X153159392Y-77471831D01*
X153304284Y-77549278D01*
X153461500Y-77596969D01*
X153625000Y-77613072D01*
X154025000Y-77613072D01*
X154188500Y-77596969D01*
X154345716Y-77549278D01*
X154407974Y-77516000D01*
X154552541Y-77516000D01*
X154648061Y-77535000D01*
X154851939Y-77535000D01*
X155051898Y-77495226D01*
X155240256Y-77417205D01*
X155409774Y-77303937D01*
X155553937Y-77159774D01*
X155667205Y-76990256D01*
X155745226Y-76801898D01*
X155785000Y-76601939D01*
X155785000Y-76398061D01*
X155745226Y-76198102D01*
X155667205Y-76009744D01*
X155553937Y-75840226D01*
X155409774Y-75696063D01*
X155240256Y-75582795D01*
X155051898Y-75504774D01*
X154851939Y-75465000D01*
X154648061Y-75465000D01*
X154552541Y-75484000D01*
X154407974Y-75484000D01*
X154345716Y-75450722D01*
X154188500Y-75403031D01*
X154025000Y-75386928D01*
X153625000Y-75386928D01*
X153461500Y-75403031D01*
X153304284Y-75450722D01*
X153159392Y-75528169D01*
X153032394Y-75632394D01*
X153000000Y-75671866D01*
X152967606Y-75632394D01*
X152840608Y-75528169D01*
X152695716Y-75450722D01*
X152538500Y-75403031D01*
X152375000Y-75386928D01*
X151975000Y-75386928D01*
X151811500Y-75403031D01*
X151654284Y-75450722D01*
X151592026Y-75484000D01*
X145049902Y-75484000D01*
X145000000Y-75479085D01*
X144950098Y-75484000D01*
X144800829Y-75498702D01*
X144609313Y-75556798D01*
X144432810Y-75651140D01*
X144278104Y-75778104D01*
X144246292Y-75816867D01*
X139954160Y-80109000D01*
X130327840Y-80109000D01*
X132358133Y-78078708D01*
X132396896Y-78046896D01*
X132523860Y-77892190D01*
X132618202Y-77715687D01*
X132676298Y-77524171D01*
X132691000Y-77374902D01*
X132695915Y-77325000D01*
X132691000Y-77275098D01*
X132691000Y-74738726D01*
X132804284Y-74799278D01*
X132961500Y-74846969D01*
X132987710Y-74849550D01*
X134476816Y-76338657D01*
X134465000Y-76398061D01*
X134465000Y-76601939D01*
X134504774Y-76801898D01*
X134582795Y-76990256D01*
X134696063Y-77159774D01*
X134840226Y-77303937D01*
X135009744Y-77417205D01*
X135198102Y-77495226D01*
X135398061Y-77535000D01*
X135601939Y-77535000D01*
X135801898Y-77495226D01*
X135990256Y-77417205D01*
X136159774Y-77303937D01*
X136303937Y-77159774D01*
X136417205Y-76990256D01*
X136495226Y-76801898D01*
X136535000Y-76601939D01*
X136535000Y-76398061D01*
X136516000Y-76302541D01*
X136516000Y-75974893D01*
X136520914Y-75924999D01*
X136516000Y-75875105D01*
X136516000Y-75875099D01*
X136501298Y-75725830D01*
X136501298Y-75725828D01*
X136474255Y-75636679D01*
X136443202Y-75534313D01*
X136348860Y-75357810D01*
X136221896Y-75203104D01*
X136183133Y-75171292D01*
X134349550Y-73337710D01*
X134346969Y-73311500D01*
X134299278Y-73154284D01*
X134221831Y-73009392D01*
X134117606Y-72882394D01*
X133990608Y-72778169D01*
X133845716Y-72700722D01*
X133688500Y-72653031D01*
X133525000Y-72636928D01*
X133125000Y-72636928D01*
X132961500Y-72653031D01*
X132804284Y-72700722D01*
X132691000Y-72761274D01*
X132691000Y-70724902D01*
X132695915Y-70675000D01*
X132676298Y-70475829D01*
X132618202Y-70284313D01*
X132599080Y-70248538D01*
X132523860Y-70107810D01*
X132396896Y-69953104D01*
X132358133Y-69921292D01*
X130753712Y-68316872D01*
X130721896Y-68278104D01*
X130567190Y-68151140D01*
X130390687Y-68056798D01*
X130199171Y-67998702D01*
X130049902Y-67984000D01*
X130000000Y-67979085D01*
X129950098Y-67984000D01*
X124844435Y-67984000D01*
X126001593Y-67548534D01*
X128186747Y-66887862D01*
X128436510Y-66822338D01*
X128452528Y-66817563D01*
X128459226Y-66815987D01*
X128804024Y-66713600D01*
X128807380Y-66712269D01*
X128810916Y-66711517D01*
X128890228Y-66682021D01*
X129704199Y-66324712D01*
X129724464Y-66313571D01*
X129745874Y-66304834D01*
X129818696Y-66261767D01*
X129818710Y-66261759D01*
X129818715Y-66261755D01*
X130556543Y-65765956D01*
X130574511Y-65751406D01*
X130594041Y-65739012D01*
X130658097Y-65683720D01*
X131296470Y-65065093D01*
X131311582Y-65047586D01*
X131328603Y-65031934D01*
X131381840Y-64966192D01*
X131381856Y-64966173D01*
X131381861Y-64966165D01*
X131900590Y-64244277D01*
X131912363Y-64224370D01*
X131926343Y-64205952D01*
X131967109Y-64131800D01*
X132349809Y-63329453D01*
X132357869Y-63307780D01*
X132368369Y-63287173D01*
X132395359Y-63206974D01*
X132629927Y-62349538D01*
X132634022Y-62326778D01*
X132640706Y-62304640D01*
X132653067Y-62220928D01*
X132731782Y-61338949D01*
X132735000Y-61306272D01*
X132735000Y-60032731D01*
X132762021Y-59729963D01*
X134258266Y-59729963D01*
X134258266Y-60270037D01*
X134363629Y-60799734D01*
X134570307Y-61298698D01*
X134870356Y-61747753D01*
X135252247Y-62129644D01*
X135701302Y-62429693D01*
X136200266Y-62636371D01*
X136729963Y-62741734D01*
X137270037Y-62741734D01*
X137799734Y-62636371D01*
X138298698Y-62429693D01*
X138747753Y-62129644D01*
X139129644Y-61747753D01*
X139429693Y-61298698D01*
X139636371Y-60799734D01*
X139741734Y-60270037D01*
X139741734Y-59729963D01*
X139636371Y-59200266D01*
X139429693Y-58701302D01*
X139129644Y-58252247D01*
X138747753Y-57870356D01*
X138298698Y-57570307D01*
X137799734Y-57363629D01*
X137270037Y-57258266D01*
X136729963Y-57258266D01*
X136200266Y-57363629D01*
X135701302Y-57570307D01*
X135252247Y-57870356D01*
X134870356Y-58252247D01*
X134570307Y-58701302D01*
X134363629Y-59200266D01*
X134258266Y-59729963D01*
X132762021Y-59729963D01*
X132805281Y-59245253D01*
X133005231Y-58514357D01*
X133331450Y-57830425D01*
X133773626Y-57215072D01*
X134317789Y-56687741D01*
X134946726Y-56265114D01*
X135640570Y-55960537D01*
X136377386Y-55783643D01*
X137133871Y-55740024D01*
X137886138Y-55831059D01*
%TA.AperFunction,Conductor*%
D16*
G36*
X137886138Y-55831059D02*
G01*
X138610388Y-56053867D01*
X139283738Y-56401409D01*
X139884901Y-56862699D01*
X140394872Y-57423149D01*
X140797540Y-58065057D01*
X141080170Y-58768122D01*
X141236190Y-59521513D01*
X141265000Y-60021169D01*
X141265001Y-61306272D01*
X141266298Y-61319440D01*
X141278413Y-61656049D01*
X141278863Y-61659632D01*
X141278707Y-61663242D01*
X141287438Y-61747410D01*
X141429908Y-62624862D01*
X141435629Y-62647269D01*
X141438736Y-62670183D01*
X141462234Y-62751474D01*
X141757835Y-63589830D01*
X141767433Y-63610870D01*
X141774549Y-63632871D01*
X141812059Y-63708691D01*
X141812071Y-63708717D01*
X141812077Y-63708725D01*
X142251461Y-64481476D01*
X142264630Y-64500478D01*
X142275533Y-64520879D01*
X142325894Y-64588881D01*
X142895182Y-65271616D01*
X142911512Y-65287990D01*
X142925851Y-65306132D01*
X142987458Y-65364142D01*
X143668651Y-65935276D01*
X143687625Y-65948502D01*
X143704950Y-65963817D01*
X143775855Y-66010000D01*
X144547423Y-66451478D01*
X144568436Y-66461133D01*
X144588200Y-66473139D01*
X144666163Y-66506036D01*
X145503715Y-66803905D01*
X145508021Y-66805017D01*
X145525587Y-66811299D01*
X145542755Y-66816572D01*
X147746053Y-67464098D01*
X149878711Y-68247813D01*
X151954729Y-69171140D01*
X153965017Y-70230036D01*
X155900673Y-71419812D01*
X157753239Y-72735268D01*
X159514561Y-74170616D01*
X161176886Y-75719540D01*
X162732884Y-77375207D01*
X164175738Y-79130360D01*
X165499106Y-80977290D01*
X166697162Y-82907865D01*
X167764630Y-84913581D01*
X168696830Y-86985643D01*
X169489658Y-89114933D01*
X170139624Y-91292080D01*
X170643873Y-93507517D01*
X171000188Y-95751501D01*
X171207004Y-98014175D01*
X171263407Y-100285560D01*
X171169153Y-102555700D01*
X170924654Y-104814605D01*
X170530986Y-107052337D01*
X169989882Y-109259064D01*
X169303718Y-111425077D01*
X168475512Y-113540851D01*
X167508906Y-115597090D01*
X166408155Y-117584736D01*
X165178083Y-119495080D01*
X163824120Y-121319689D01*
X162352204Y-123050560D01*
X160768823Y-124680064D01*
X159080926Y-126201055D01*
X157295931Y-127606843D01*
X155421695Y-128891239D01*
X153466456Y-130048599D01*
X151438820Y-131073832D01*
X149347702Y-131962428D01*
X147202263Y-132710493D01*
X145011999Y-133314718D01*
X142786467Y-133772464D01*
X140535523Y-134081705D01*
X138269022Y-134241089D01*
X135996953Y-134249911D01*
X133729262Y-134108134D01*
X131475992Y-133816385D01*
X129246983Y-133375938D01*
X127052076Y-132788738D01*
X124900917Y-132057366D01*
X122802939Y-131185029D01*
X120767401Y-130175574D01*
X120622383Y-130091247D01*
X120624893Y-130091000D01*
X134404160Y-130091000D01*
X135159000Y-130845841D01*
X135159001Y-131791820D01*
X135153031Y-131811500D01*
X135136928Y-131975000D01*
X135136928Y-132525000D01*
X135153031Y-132688500D01*
X135200722Y-132845716D01*
X135278169Y-132990608D01*
X135382394Y-133117606D01*
X135509392Y-133221831D01*
X135654284Y-133299278D01*
X135811500Y-133346969D01*
X135975000Y-133363072D01*
X136375000Y-133363072D01*
X136538500Y-133346969D01*
X136695716Y-133299278D01*
X136840608Y-133221831D01*
X136967606Y-133117606D01*
X137000000Y-133078134D01*
X137032394Y-133117606D01*
X137159392Y-133221831D01*
X137304284Y-133299278D01*
X137461500Y-133346969D01*
X137625000Y-133363072D01*
X138025000Y-133363072D01*
X138188500Y-133346969D01*
X138345716Y-133299278D01*
X138407974Y-133266000D01*
X138700098Y-133266000D01*
X138750000Y-133270915D01*
X138799902Y-133266000D01*
X138949171Y-133251298D01*
X139140687Y-133193202D01*
X139317190Y-133098860D01*
X139471896Y-132971896D01*
X139503712Y-132933128D01*
X141828797Y-130608044D01*
X141909774Y-130553937D01*
X142053937Y-130409774D01*
X142167205Y-130240256D01*
X142245226Y-130051898D01*
X142285000Y-129851939D01*
X142285000Y-129648061D01*
X142245226Y-129448102D01*
X142167205Y-129259744D01*
X142053937Y-129090226D01*
X141909774Y-128946063D01*
X141740256Y-128832795D01*
X141551898Y-128754774D01*
X141351939Y-128715000D01*
X141148061Y-128715000D01*
X140948102Y-128754774D01*
X140759744Y-128832795D01*
X140590226Y-128946063D01*
X140446063Y-129090226D01*
X140391956Y-129171203D01*
X138356613Y-131206547D01*
X138345716Y-131200722D01*
X138188500Y-131153031D01*
X138025000Y-131136928D01*
X137625000Y-131136928D01*
X137461500Y-131153031D01*
X137304284Y-131200722D01*
X137191000Y-131261274D01*
X137191000Y-130474893D01*
X137195914Y-130424999D01*
X137191000Y-130375105D01*
X137191000Y-129124902D01*
X137195915Y-129075000D01*
X137191000Y-129025098D01*
X137191000Y-127874902D01*
X137195915Y-127825000D01*
X137191000Y-127775098D01*
X137191000Y-122245840D01*
X147670841Y-111766000D01*
X154092026Y-111766000D01*
X154154284Y-111799278D01*
X154311500Y-111846969D01*
X154475000Y-111863072D01*
X154875000Y-111863072D01*
X155038500Y-111846969D01*
X155195716Y-111799278D01*
X155340608Y-111721831D01*
X155467606Y-111617606D01*
X155500000Y-111578134D01*
X155532394Y-111617606D01*
X155659392Y-111721831D01*
X155804284Y-111799278D01*
X155961500Y-111846969D01*
X156125000Y-111863072D01*
X156525000Y-111863072D01*
X156688500Y-111846969D01*
X156845716Y-111799278D01*
X156907974Y-111766000D01*
X157052541Y-111766000D01*
X157148061Y-111785000D01*
X157351939Y-111785000D01*
X157551898Y-111745226D01*
X157740256Y-111667205D01*
X157909774Y-111553937D01*
X158053937Y-111409774D01*
X158167205Y-111240256D01*
X158245226Y-111051898D01*
X158285000Y-110851939D01*
X158285000Y-110648061D01*
X158245226Y-110448102D01*
X158167205Y-110259744D01*
X158053937Y-110090226D01*
X157909774Y-109946063D01*
X157740256Y-109832795D01*
X157551898Y-109754774D01*
X157351939Y-109715000D01*
X157148061Y-109715000D01*
X157052541Y-109734000D01*
X156907974Y-109734000D01*
X156845716Y-109700722D01*
X156688500Y-109653031D01*
X156525000Y-109636928D01*
X156125000Y-109636928D01*
X155961500Y-109653031D01*
X155804284Y-109700722D01*
X155659392Y-109778169D01*
X155532394Y-109882394D01*
X155500000Y-109921866D01*
X155467606Y-109882394D01*
X155340608Y-109778169D01*
X155195716Y-109700722D01*
X155038500Y-109653031D01*
X154875000Y-109636928D01*
X154475000Y-109636928D01*
X154311500Y-109653031D01*
X154154284Y-109700722D01*
X154092026Y-109734000D01*
X147299893Y-109734000D01*
X147249999Y-109729086D01*
X147200105Y-109734000D01*
X147200098Y-109734000D01*
X147050829Y-109748702D01*
X146859313Y-109806798D01*
X146682810Y-109901140D01*
X146528104Y-110028104D01*
X146496292Y-110066867D01*
X135491872Y-121071288D01*
X135453104Y-121103104D01*
X135326140Y-121257810D01*
X135231798Y-121434314D01*
X135184121Y-121591484D01*
X135173702Y-121625830D01*
X135154085Y-121825000D01*
X135159000Y-121874902D01*
X135159001Y-127304158D01*
X134404160Y-128059000D01*
X120995841Y-128059000D01*
X120691000Y-127754160D01*
X120691000Y-127738726D01*
X120804284Y-127799278D01*
X120961500Y-127846969D01*
X121125000Y-127863072D01*
X121525000Y-127863072D01*
X121688500Y-127846969D01*
X121845716Y-127799278D01*
X121907974Y-127766000D01*
X124802541Y-127766000D01*
X124898061Y-127785000D01*
X125101939Y-127785000D01*
X125301898Y-127745226D01*
X125490256Y-127667205D01*
X125659774Y-127553937D01*
X125803937Y-127409774D01*
X125917205Y-127240256D01*
X125995226Y-127051898D01*
X126035000Y-126851939D01*
X126035000Y-126648061D01*
X125995226Y-126448102D01*
X125917205Y-126259744D01*
X125803937Y-126090226D01*
X125659774Y-125946063D01*
X125490256Y-125832795D01*
X125301898Y-125754774D01*
X125101939Y-125715000D01*
X124898061Y-125715000D01*
X124802541Y-125734000D01*
X121907974Y-125734000D01*
X121845716Y-125700722D01*
X121688500Y-125653031D01*
X121525000Y-125636928D01*
X121125000Y-125636928D01*
X120961500Y-125653031D01*
X120804284Y-125700722D01*
X120659392Y-125778169D01*
X120532394Y-125882394D01*
X120500000Y-125921866D01*
X120467606Y-125882394D01*
X120340608Y-125778169D01*
X120195716Y-125700722D01*
X120038500Y-125653031D01*
X119875000Y-125636928D01*
X119823769Y-125636928D01*
X113441000Y-119254160D01*
X113441000Y-115988726D01*
X113554284Y-116049278D01*
X113711500Y-116096969D01*
X113875000Y-116113072D01*
X114275000Y-116113072D01*
X114438500Y-116096969D01*
X114595716Y-116049278D01*
X114657974Y-116016000D01*
X114802541Y-116016000D01*
X114898061Y-116035000D01*
X115101939Y-116035000D01*
X115301898Y-115995226D01*
X115490256Y-115917205D01*
X115659774Y-115803937D01*
X115803937Y-115659774D01*
X115917205Y-115490256D01*
X115995226Y-115301898D01*
X116035000Y-115101939D01*
X116035000Y-114898061D01*
X115995226Y-114698102D01*
X115917205Y-114509744D01*
X115803937Y-114340226D01*
X115659774Y-114196063D01*
X115490256Y-114082795D01*
X115301898Y-114004774D01*
X115101939Y-113965000D01*
X114898061Y-113965000D01*
X114802541Y-113984000D01*
X114657974Y-113984000D01*
X114595716Y-113950722D01*
X114438500Y-113903031D01*
X114275000Y-113886928D01*
X113875000Y-113886928D01*
X113711500Y-113903031D01*
X113554284Y-113950722D01*
X113441000Y-114011274D01*
X113441000Y-112245840D01*
X115420841Y-110266000D01*
X115579160Y-110266000D01*
X118246292Y-112933133D01*
X118278104Y-112971896D01*
X118432810Y-113098860D01*
X118609313Y-113193202D01*
X118800829Y-113251298D01*
X118906522Y-113261708D01*
X119000000Y-113270915D01*
X119049902Y-113266000D01*
X119092026Y-113266000D01*
X119154284Y-113299278D01*
X119311500Y-113346969D01*
X119475000Y-113363072D01*
X119875000Y-113363072D01*
X120038500Y-113346969D01*
X120195716Y-113299278D01*
X120340608Y-113221831D01*
X120467606Y-113117606D01*
X120500000Y-113078134D01*
X120532394Y-113117606D01*
X120659392Y-113221831D01*
X120804284Y-113299278D01*
X120961500Y-113346969D01*
X121125000Y-113363072D01*
X121525000Y-113363072D01*
X121688500Y-113346969D01*
X121845716Y-113299278D01*
X121907974Y-113266000D01*
X133052541Y-113266000D01*
X133148061Y-113285000D01*
X133351939Y-113285000D01*
X133551898Y-113245226D01*
X133740256Y-113167205D01*
X133909774Y-113053937D01*
X134053937Y-112909774D01*
X134167205Y-112740256D01*
X134245226Y-112551898D01*
X134285000Y-112351939D01*
X134285000Y-112148061D01*
X134245226Y-111948102D01*
X134167205Y-111759744D01*
X134053937Y-111590226D01*
X133909774Y-111446063D01*
X133740256Y-111332795D01*
X133551898Y-111254774D01*
X133351939Y-111215000D01*
X133148061Y-111215000D01*
X133052541Y-111234000D01*
X121907974Y-111234000D01*
X121845716Y-111200722D01*
X121688500Y-111153031D01*
X121525000Y-111136928D01*
X121125000Y-111136928D01*
X120961500Y-111153031D01*
X120804284Y-111200722D01*
X120659392Y-111278169D01*
X120532394Y-111382394D01*
X120500000Y-111421866D01*
X120467606Y-111382394D01*
X120340608Y-111278169D01*
X120195716Y-111200722D01*
X120038500Y-111153031D01*
X119875000Y-111136928D01*
X119475000Y-111136928D01*
X119337328Y-111150487D01*
X116808134Y-108621294D01*
X116753713Y-108566873D01*
X116721896Y-108528104D01*
X116683127Y-108496287D01*
X116253710Y-108066870D01*
X116221896Y-108028104D01*
X116183130Y-107996290D01*
X115753713Y-107566873D01*
X115721896Y-107528104D01*
X115683133Y-107496292D01*
X114952840Y-106766000D01*
X119092026Y-106766000D01*
X119154284Y-106799278D01*
X119311500Y-106846969D01*
X119475000Y-106863072D01*
X119875000Y-106863072D01*
X120038500Y-106846969D01*
X120195716Y-106799278D01*
X120340608Y-106721831D01*
X120467606Y-106617606D01*
X120500000Y-106578134D01*
X120532394Y-106617606D01*
X120659392Y-106721831D01*
X120804284Y-106799278D01*
X120961500Y-106846969D01*
X121125000Y-106863072D01*
X121525000Y-106863072D01*
X121688500Y-106846969D01*
X121845716Y-106799278D01*
X121907974Y-106766000D01*
X145552541Y-106766000D01*
X145648061Y-106785000D01*
X145851939Y-106785000D01*
X146051898Y-106745226D01*
X146240256Y-106667205D01*
X146409774Y-106553937D01*
X146553937Y-106409774D01*
X146667205Y-106240256D01*
X146745226Y-106051898D01*
X146785000Y-105851939D01*
X146785000Y-105648061D01*
X146745226Y-105448102D01*
X146667205Y-105259744D01*
X146553937Y-105090226D01*
X146409774Y-104946063D01*
X146240256Y-104832795D01*
X146051898Y-104754774D01*
X145851939Y-104715000D01*
X145648061Y-104715000D01*
X145552541Y-104734000D01*
X121907974Y-104734000D01*
X121845716Y-104700722D01*
X121688500Y-104653031D01*
X121525000Y-104636928D01*
X121125000Y-104636928D01*
X120961500Y-104653031D01*
X120804284Y-104700722D01*
X120659392Y-104778169D01*
X120532394Y-104882394D01*
X120500000Y-104921866D01*
X120467606Y-104882394D01*
X120340608Y-104778169D01*
X120195716Y-104700722D01*
X120038500Y-104653031D01*
X119875000Y-104636928D01*
X119475000Y-104636928D01*
X119311500Y-104653031D01*
X119154284Y-104700722D01*
X119092026Y-104734000D01*
X113799893Y-104734000D01*
X113749999Y-104729086D01*
X113700105Y-104734000D01*
X112920841Y-104734000D01*
X110452840Y-102266000D01*
X111092026Y-102266000D01*
X111154284Y-102299278D01*
X111311500Y-102346969D01*
X111475000Y-102363072D01*
X111875000Y-102363072D01*
X112038500Y-102346969D01*
X112195716Y-102299278D01*
X112340608Y-102221831D01*
X112467606Y-102117606D01*
X112500000Y-102078134D01*
X112532394Y-102117606D01*
X112659392Y-102221831D01*
X112804284Y-102299278D01*
X112961500Y-102346969D01*
X113125000Y-102363072D01*
X113525000Y-102363072D01*
X113688500Y-102346969D01*
X113845716Y-102299278D01*
X113907974Y-102266000D01*
X114052541Y-102266000D01*
X114148061Y-102285000D01*
X114351939Y-102285000D01*
X114551898Y-102245226D01*
X114740256Y-102167205D01*
X114909774Y-102053937D01*
X115053937Y-101909774D01*
X115167205Y-101740256D01*
X115245226Y-101551898D01*
X115285000Y-101351939D01*
X115285000Y-101148061D01*
X115245226Y-100948102D01*
X115167205Y-100759744D01*
X115053937Y-100590226D01*
X114909774Y-100446063D01*
X114740256Y-100332795D01*
X114551898Y-100254774D01*
X114351939Y-100215000D01*
X114148061Y-100215000D01*
X114052541Y-100234000D01*
X113907974Y-100234000D01*
X113845716Y-100200722D01*
X113688500Y-100153031D01*
X113525000Y-100136928D01*
X113125000Y-100136928D01*
X112961500Y-100153031D01*
X112804284Y-100200722D01*
X112691000Y-100261274D01*
X112691000Y-97995840D01*
X118300000Y-92386841D01*
X118659000Y-92745841D01*
X118659001Y-93541821D01*
X118653031Y-93561500D01*
X118636928Y-93725000D01*
X118636928Y-94275000D01*
X118653031Y-94438500D01*
X118700722Y-94595716D01*
X118778169Y-94740608D01*
X118882394Y-94867606D01*
X119009392Y-94971831D01*
X119154284Y-95049278D01*
X119311500Y-95096969D01*
X119475000Y-95113072D01*
X119875000Y-95113072D01*
X120038500Y-95096969D01*
X120195716Y-95049278D01*
X120340608Y-94971831D01*
X120467606Y-94867606D01*
X120500000Y-94828134D01*
X120532394Y-94867606D01*
X120659392Y-94971831D01*
X120804284Y-95049278D01*
X120961500Y-95096969D01*
X121125000Y-95113072D01*
X121525000Y-95113072D01*
X121688500Y-95096969D01*
X121845716Y-95049278D01*
X121907974Y-95016000D01*
X137802541Y-95016000D01*
X137898061Y-95035000D01*
X138101939Y-95035000D01*
X138301898Y-94995226D01*
X138490256Y-94917205D01*
X138659774Y-94803937D01*
X138803937Y-94659774D01*
X138917205Y-94490256D01*
X138995226Y-94301898D01*
X139035000Y-94101939D01*
X139035000Y-93898061D01*
X138995226Y-93698102D01*
X138917205Y-93509744D01*
X138803937Y-93340226D01*
X138659774Y-93196063D01*
X138490256Y-93082795D01*
X138301898Y-93004774D01*
X138101939Y-92965000D01*
X137898061Y-92965000D01*
X137802541Y-92984000D01*
X121907974Y-92984000D01*
X121845716Y-92950722D01*
X121688500Y-92903031D01*
X121525000Y-92886928D01*
X121125000Y-92886928D01*
X120961500Y-92903031D01*
X120804284Y-92950722D01*
X120691000Y-93011274D01*
X120691000Y-92374902D01*
X120695915Y-92325000D01*
X120691000Y-92275098D01*
X120691000Y-91374902D01*
X120695915Y-91325000D01*
X120691000Y-91275098D01*
X120691000Y-90374902D01*
X120695915Y-90325000D01*
X120691000Y-90275098D01*
X120691000Y-89745840D01*
X128295841Y-82141000D01*
X129575105Y-82141000D01*
X129624999Y-82145914D01*
X129674893Y-82141000D01*
X140325098Y-82141000D01*
X140375000Y-82145915D01*
X140424902Y-82141000D01*
X140574171Y-82126298D01*
X140765687Y-82068202D01*
X140942190Y-81973860D01*
X141096896Y-81846896D01*
X141128712Y-81808128D01*
X145420841Y-77516000D01*
X151592026Y-77516000D01*
X151654284Y-77549278D01*
X151811500Y-77596969D01*
X151975000Y-77613072D01*
X152375000Y-77613072D01*
X152538500Y-77596969D01*
X152695716Y-77549278D01*
X152840608Y-77471831D01*
X152967606Y-77367606D01*
X153000000Y-77328134D01*
X153032394Y-77367606D01*
X153159392Y-77471831D01*
X153304284Y-77549278D01*
X153461500Y-77596969D01*
X153625000Y-77613072D01*
X154025000Y-77613072D01*
X154188500Y-77596969D01*
X154345716Y-77549278D01*
X154407974Y-77516000D01*
X154552541Y-77516000D01*
X154648061Y-77535000D01*
X154851939Y-77535000D01*
X155051898Y-77495226D01*
X155240256Y-77417205D01*
X155409774Y-77303937D01*
X155553937Y-77159774D01*
X155667205Y-76990256D01*
X155745226Y-76801898D01*
X155785000Y-76601939D01*
X155785000Y-76398061D01*
X155745226Y-76198102D01*
X155667205Y-76009744D01*
X155553937Y-75840226D01*
X155409774Y-75696063D01*
X155240256Y-75582795D01*
X155051898Y-75504774D01*
X154851939Y-75465000D01*
X154648061Y-75465000D01*
X154552541Y-75484000D01*
X154407974Y-75484000D01*
X154345716Y-75450722D01*
X154188500Y-75403031D01*
X154025000Y-75386928D01*
X153625000Y-75386928D01*
X153461500Y-75403031D01*
X153304284Y-75450722D01*
X153159392Y-75528169D01*
X153032394Y-75632394D01*
X153000000Y-75671866D01*
X152967606Y-75632394D01*
X152840608Y-75528169D01*
X152695716Y-75450722D01*
X152538500Y-75403031D01*
X152375000Y-75386928D01*
X151975000Y-75386928D01*
X151811500Y-75403031D01*
X151654284Y-75450722D01*
X151592026Y-75484000D01*
X145049902Y-75484000D01*
X145000000Y-75479085D01*
X144950098Y-75484000D01*
X144800829Y-75498702D01*
X144609313Y-75556798D01*
X144432810Y-75651140D01*
X144278104Y-75778104D01*
X144246292Y-75816867D01*
X139954160Y-80109000D01*
X130327840Y-80109000D01*
X132358133Y-78078708D01*
X132396896Y-78046896D01*
X132523860Y-77892190D01*
X132618202Y-77715687D01*
X132676298Y-77524171D01*
X132691000Y-77374902D01*
X132695915Y-77325000D01*
X132691000Y-77275098D01*
X132691000Y-74738726D01*
X132804284Y-74799278D01*
X132961500Y-74846969D01*
X132987710Y-74849550D01*
X134476816Y-76338657D01*
X134465000Y-76398061D01*
X134465000Y-76601939D01*
X134504774Y-76801898D01*
X134582795Y-76990256D01*
X134696063Y-77159774D01*
X134840226Y-77303937D01*
X135009744Y-77417205D01*
X135198102Y-77495226D01*
X135398061Y-77535000D01*
X135601939Y-77535000D01*
X135801898Y-77495226D01*
X135990256Y-77417205D01*
X136159774Y-77303937D01*
X136303937Y-77159774D01*
X136417205Y-76990256D01*
X136495226Y-76801898D01*
X136535000Y-76601939D01*
X136535000Y-76398061D01*
X136516000Y-76302541D01*
X136516000Y-75974893D01*
X136520914Y-75924999D01*
X136516000Y-75875105D01*
X136516000Y-75875099D01*
X136501298Y-75725830D01*
X136501298Y-75725828D01*
X136474255Y-75636679D01*
X136443202Y-75534313D01*
X136348860Y-75357810D01*
X136221896Y-75203104D01*
X136183133Y-75171292D01*
X134349550Y-73337710D01*
X134346969Y-73311500D01*
X134299278Y-73154284D01*
X134221831Y-73009392D01*
X134117606Y-72882394D01*
X133990608Y-72778169D01*
X133845716Y-72700722D01*
X133688500Y-72653031D01*
X133525000Y-72636928D01*
X133125000Y-72636928D01*
X132961500Y-72653031D01*
X132804284Y-72700722D01*
X132691000Y-72761274D01*
X132691000Y-70724902D01*
X132695915Y-70675000D01*
X132676298Y-70475829D01*
X132618202Y-70284313D01*
X132599080Y-70248538D01*
X132523860Y-70107810D01*
X132396896Y-69953104D01*
X132358133Y-69921292D01*
X130753712Y-68316872D01*
X130721896Y-68278104D01*
X130567190Y-68151140D01*
X130390687Y-68056798D01*
X130199171Y-67998702D01*
X130049902Y-67984000D01*
X130000000Y-67979085D01*
X129950098Y-67984000D01*
X124844435Y-67984000D01*
X126001593Y-67548534D01*
X128186747Y-66887862D01*
X128436510Y-66822338D01*
X128452528Y-66817563D01*
X128459226Y-66815987D01*
X128804024Y-66713600D01*
X128807380Y-66712269D01*
X128810916Y-66711517D01*
X128890228Y-66682021D01*
X129704199Y-66324712D01*
X129724464Y-66313571D01*
X129745874Y-66304834D01*
X129818696Y-66261767D01*
X129818710Y-66261759D01*
X129818715Y-66261755D01*
X130556543Y-65765956D01*
X130574511Y-65751406D01*
X130594041Y-65739012D01*
X130658097Y-65683720D01*
X131296470Y-65065093D01*
X131311582Y-65047586D01*
X131328603Y-65031934D01*
X131381840Y-64966192D01*
X131381856Y-64966173D01*
X131381861Y-64966165D01*
X131900590Y-64244277D01*
X131912363Y-64224370D01*
X131926343Y-64205952D01*
X131967109Y-64131800D01*
X132349809Y-63329453D01*
X132357869Y-63307780D01*
X132368369Y-63287173D01*
X132395359Y-63206974D01*
X132629927Y-62349538D01*
X132634022Y-62326778D01*
X132640706Y-62304640D01*
X132653067Y-62220928D01*
X132731782Y-61338949D01*
X132735000Y-61306272D01*
X132735000Y-60032731D01*
X132762021Y-59729963D01*
X134258266Y-59729963D01*
X134258266Y-60270037D01*
X134363629Y-60799734D01*
X134570307Y-61298698D01*
X134870356Y-61747753D01*
X135252247Y-62129644D01*
X135701302Y-62429693D01*
X136200266Y-62636371D01*
X136729963Y-62741734D01*
X137270037Y-62741734D01*
X137799734Y-62636371D01*
X138298698Y-62429693D01*
X138747753Y-62129644D01*
X139129644Y-61747753D01*
X139429693Y-61298698D01*
X139636371Y-60799734D01*
X139741734Y-60270037D01*
X139741734Y-59729963D01*
X139636371Y-59200266D01*
X139429693Y-58701302D01*
X139129644Y-58252247D01*
X138747753Y-57870356D01*
X138298698Y-57570307D01*
X137799734Y-57363629D01*
X137270037Y-57258266D01*
X136729963Y-57258266D01*
X136200266Y-57363629D01*
X135701302Y-57570307D01*
X135252247Y-57870356D01*
X134870356Y-58252247D01*
X134570307Y-58701302D01*
X134363629Y-59200266D01*
X134258266Y-59729963D01*
X132762021Y-59729963D01*
X132805281Y-59245253D01*
X133005231Y-58514357D01*
X133331450Y-57830425D01*
X133773626Y-57215072D01*
X134317789Y-56687741D01*
X134946726Y-56265114D01*
X135640570Y-55960537D01*
X136377386Y-55783643D01*
X137133871Y-55740024D01*
X137886138Y-55831059D01*
G37*
%TD.AperFunction*%
D15*
X118241868Y-73521292D02*
X118203105Y-73553104D01*
X118076141Y-73707810D01*
X117981798Y-73884313D01*
X117923702Y-74075829D01*
X117920694Y-74106368D01*
X117916750Y-74146409D01*
X106491868Y-85571292D01*
X106453105Y-85603104D01*
X106326141Y-85757810D01*
X106231799Y-85934313D01*
X106173702Y-86125830D01*
X106154085Y-86325000D01*
X106159001Y-86374911D01*
X106159000Y-87041822D01*
X106153031Y-87061500D01*
X106136928Y-87225000D01*
X106136928Y-87775000D01*
X106153031Y-87938500D01*
X106200722Y-88095716D01*
X106278169Y-88240608D01*
X106382394Y-88367606D01*
X106509392Y-88471831D01*
X106654284Y-88549278D01*
X106811500Y-88596969D01*
X106975000Y-88613072D01*
X107375000Y-88613072D01*
X107538500Y-88596969D01*
X107695716Y-88549278D01*
X107840608Y-88471831D01*
X107967606Y-88367606D01*
X108000000Y-88328134D01*
X108032394Y-88367606D01*
X108159392Y-88471831D01*
X108304284Y-88549278D01*
X108461500Y-88596969D01*
X108625000Y-88613072D01*
X109025000Y-88613072D01*
X109188500Y-88596969D01*
X109345716Y-88549278D01*
X109407974Y-88516000D01*
X109552541Y-88516000D01*
X109648061Y-88535000D01*
X109851939Y-88535000D01*
X110051898Y-88495226D01*
X110240256Y-88417205D01*
X110409774Y-88303937D01*
X110553937Y-88159774D01*
X110667205Y-87990256D01*
X110745226Y-87801898D01*
X110785000Y-87601939D01*
X110785000Y-87398061D01*
X110745226Y-87198102D01*
X110667205Y-87009744D01*
X110553937Y-86840226D01*
X110409774Y-86696063D01*
X110240256Y-86582795D01*
X110051898Y-86504774D01*
X109851939Y-86465000D01*
X109648061Y-86465000D01*
X109552541Y-86484000D01*
X109407974Y-86484000D01*
X109345716Y-86450722D01*
X109188500Y-86403031D01*
X109025000Y-86386928D01*
X108625000Y-86386928D01*
X108541709Y-86395131D01*
X119073769Y-75863072D01*
X119125000Y-75863072D01*
X119288500Y-75846969D01*
X119445716Y-75799278D01*
X119590608Y-75721831D01*
X119717606Y-75617606D01*
X119750000Y-75578134D01*
X119782394Y-75617606D01*
X119909392Y-75721831D01*
X120054284Y-75799278D01*
X120211500Y-75846969D01*
X120375000Y-75863072D01*
X120775000Y-75863072D01*
X120938500Y-75846969D01*
X121095716Y-75799278D01*
X121157974Y-75766000D01*
X121302541Y-75766000D01*
X121398061Y-75785000D01*
X121601939Y-75785000D01*
X121801898Y-75745226D01*
X121990256Y-75667205D01*
X122159774Y-75553937D01*
X122303937Y-75409774D01*
X122417205Y-75240256D01*
X122495226Y-75051898D01*
X122535000Y-74851939D01*
X122535000Y-74648061D01*
X122495226Y-74448102D01*
X122417205Y-74259744D01*
X122303937Y-74090226D01*
X122159774Y-73946063D01*
X121990256Y-73832795D01*
X121801898Y-73754774D01*
X121601939Y-73715000D01*
X121398061Y-73715000D01*
X121302541Y-73734000D01*
X121157974Y-73734000D01*
X121095716Y-73700722D01*
X120973264Y-73663576D01*
X122857554Y-71779286D01*
X122895892Y-72168533D01*
X123017974Y-72570982D01*
X123216223Y-72941881D01*
X123483023Y-73266977D01*
X123808119Y-73533777D01*
X124179018Y-73732026D01*
X124581467Y-73854108D01*
X124895118Y-73885000D01*
X125484000Y-73885000D01*
X125484001Y-78829158D01*
X107301583Y-97011577D01*
X107269502Y-96905820D01*
X107210537Y-96795506D01*
X107131185Y-96698815D01*
X107034494Y-96619463D01*
X106924180Y-96560498D01*
X106804482Y-96524188D01*
X106680000Y-96511928D01*
X106318072Y-96511928D01*
X106318072Y-95600000D01*
X106305812Y-95475518D01*
X106269502Y-95355820D01*
X106210537Y-95245506D01*
X106131185Y-95148815D01*
X106034494Y-95069463D01*
X105924180Y-95010498D01*
X105804482Y-94974188D01*
X105680000Y-94961928D01*
X104880000Y-94961928D01*
X104755518Y-94974188D01*
X104635820Y-95010498D01*
X104525506Y-95069463D01*
X104428815Y-95148815D01*
X104349463Y-95245506D01*
X104290498Y-95355820D01*
X104254188Y-95475518D01*
X104241928Y-95600000D01*
X104241928Y-96600000D01*
X104254188Y-96724482D01*
X104290498Y-96844180D01*
X104349463Y-96954494D01*
X104428815Y-97051185D01*
X104525506Y-97130537D01*
X104542928Y-97139849D01*
X104541928Y-97150000D01*
X104541928Y-97229662D01*
X104486483Y-97206696D01*
X104276863Y-97165000D01*
X104063137Y-97165000D01*
X103853517Y-97206696D01*
X103656060Y-97288485D01*
X103478353Y-97407225D01*
X103327225Y-97558353D01*
X103208485Y-97736060D01*
X103126696Y-97933517D01*
X103085000Y-98143137D01*
X103085000Y-98356863D01*
X103126696Y-98566483D01*
X103208485Y-98763940D01*
X103327225Y-98941647D01*
X103478353Y-99092775D01*
X103656060Y-99211515D01*
X103853517Y-99293304D01*
X104063137Y-99335000D01*
X104276863Y-99335000D01*
X104486483Y-99293304D01*
X104541928Y-99270338D01*
X104541928Y-99350000D01*
X104554188Y-99474482D01*
X104590498Y-99594180D01*
X104649463Y-99704494D01*
X104728815Y-99801185D01*
X104825506Y-99880537D01*
X104935820Y-99939502D01*
X105055518Y-99975812D01*
X105180000Y-99988072D01*
X105687229Y-99988072D01*
X105730829Y-100001298D01*
X105880098Y-100016000D01*
X106700098Y-100016000D01*
X106750000Y-100020915D01*
X106799902Y-100016000D01*
X106949171Y-100001298D01*
X107140687Y-99943202D01*
X107317190Y-99848860D01*
X107471896Y-99721896D01*
X107503712Y-99683128D01*
X127183133Y-80003708D01*
X127221896Y-79971896D01*
X127348860Y-79817190D01*
X127410340Y-79702168D01*
X127443202Y-79640688D01*
X127501298Y-79449171D01*
X127520915Y-79250000D01*
X127516000Y-79200098D01*
X127516000Y-73885000D01*
X128104882Y-73885000D01*
X128418533Y-73854108D01*
X128820982Y-73732026D01*
X129191881Y-73533777D01*
X129516977Y-73266977D01*
X129783777Y-72941881D01*
X129982026Y-72570982D01*
X130104108Y-72168533D01*
X130145330Y-71750000D01*
X130104108Y-71331467D01*
X129982026Y-70929018D01*
X129783777Y-70558119D01*
X129516977Y-70233023D01*
X129252534Y-70016000D01*
X129579160Y-70016000D01*
X130659000Y-71095841D01*
X130659001Y-73291820D01*
X130653031Y-73311500D01*
X130636928Y-73475000D01*
X130636928Y-74025000D01*
X130653031Y-74188500D01*
X130659000Y-74208178D01*
X130659001Y-76904158D01*
X128191872Y-79371288D01*
X128153104Y-79403104D01*
X128121293Y-79441866D01*
X127191872Y-80371288D01*
X127153104Y-80403104D01*
X127121294Y-80441865D01*
X118991872Y-88571288D01*
X118953104Y-88603104D01*
X118826140Y-88757810D01*
X118731798Y-88934314D01*
X118675370Y-89120330D01*
X118673702Y-89125830D01*
X118654085Y-89325000D01*
X118659000Y-89374903D01*
X118659001Y-89904159D01*
X118254160Y-90309000D01*
X117974902Y-90309000D01*
X117925000Y-90304085D01*
X117875098Y-90309000D01*
X117725829Y-90323702D01*
X117534313Y-90381798D01*
X117357810Y-90476140D01*
X117203104Y-90603104D01*
X117171293Y-90641866D01*
X110991868Y-96821292D01*
X110953105Y-96853104D01*
X110826141Y-97007810D01*
X110816676Y-97025518D01*
X110731799Y-97184313D01*
X110673702Y-97375830D01*
X110654085Y-97575000D01*
X110659001Y-97624912D01*
X110659000Y-100234000D01*
X109549893Y-100234000D01*
X109499999Y-100229086D01*
X109450105Y-100234000D01*
X109450098Y-100234000D01*
X109300829Y-100248702D01*
X109109313Y-100306798D01*
X108932810Y-100401140D01*
X108778104Y-100528104D01*
X108746292Y-100566867D01*
X108329160Y-100984000D01*
X105880098Y-100984000D01*
X105730829Y-100998702D01*
X105687229Y-101011928D01*
X105228901Y-101011928D01*
X105213304Y-100933517D01*
X105131515Y-100736060D01*
X105012775Y-100558353D01*
X104861647Y-100407225D01*
X104683940Y-100288485D01*
X104486483Y-100206696D01*
X104276863Y-100165000D01*
X104063137Y-100165000D01*
X103853517Y-100206696D01*
X103656060Y-100288485D01*
X103478353Y-100407225D01*
X103327225Y-100558353D01*
X103208485Y-100736060D01*
X103126696Y-100933517D01*
X103085000Y-101143137D01*
X103085000Y-101356863D01*
X103126696Y-101566483D01*
X103208485Y-101763940D01*
X103327225Y-101941647D01*
X103478353Y-102092775D01*
X103656060Y-102211515D01*
X103853517Y-102293304D01*
X104063137Y-102335000D01*
X104276863Y-102335000D01*
X104486483Y-102293304D01*
X104541928Y-102270338D01*
X104541928Y-102350000D01*
X104542928Y-102360151D01*
X104525506Y-102369463D01*
X104428815Y-102448815D01*
X104349463Y-102545506D01*
X104290498Y-102655820D01*
X104254188Y-102775518D01*
X104241928Y-102900000D01*
X104241928Y-103900000D01*
X104254188Y-104024482D01*
X104290498Y-104144180D01*
X104349463Y-104254494D01*
X104428815Y-104351185D01*
X104525506Y-104430537D01*
X104635820Y-104489502D01*
X104755518Y-104525812D01*
X104880000Y-104538072D01*
X105680000Y-104538072D01*
X105804482Y-104525812D01*
X105924180Y-104489502D01*
X106034494Y-104430537D01*
X106131185Y-104351185D01*
X106210537Y-104254494D01*
X106269502Y-104144180D01*
X106305812Y-104024482D01*
X106318072Y-103900000D01*
X106318072Y-103016000D01*
X108329160Y-103016000D01*
X111746292Y-106433133D01*
X111778104Y-106471896D01*
X111816872Y-106503712D01*
X112746292Y-107433133D01*
X112778104Y-107471896D01*
X112816872Y-107503712D01*
X113984001Y-108670841D01*
X113984000Y-108829159D01*
X111741868Y-111071292D01*
X111703105Y-111103104D01*
X111576141Y-111257810D01*
X111529155Y-111345716D01*
X111481799Y-111434313D01*
X111423702Y-111625830D01*
X111404085Y-111825000D01*
X111409001Y-111874911D01*
X111409000Y-114541822D01*
X111403031Y-114561500D01*
X111386928Y-114725000D01*
X111386928Y-115275000D01*
X111403031Y-115438500D01*
X111409000Y-115458177D01*
X111409001Y-119625088D01*
X111404085Y-119675000D01*
X111423702Y-119874170D01*
X111474260Y-120040834D01*
X111481799Y-120065687D01*
X111576141Y-120242190D01*
X111703105Y-120396896D01*
X111741868Y-120428708D01*
X118659000Y-127345841D01*
X118659001Y-128125089D01*
X118654085Y-128175000D01*
X118673702Y-128374170D01*
X118725424Y-128544672D01*
X118731799Y-128565687D01*
X118826141Y-128742190D01*
X118953105Y-128896896D01*
X118991868Y-128928708D01*
X119504192Y-129441033D01*
X118803237Y-129033435D01*
X116919085Y-127763634D01*
X115123223Y-126371749D01*
X113423564Y-124863914D01*
X111827572Y-123246751D01*
X110342263Y-121527368D01*
X108974171Y-119713331D01*
X107729304Y-117812605D01*
X106613144Y-115833557D01*
X105630601Y-113784897D01*
X104785986Y-111675609D01*
X104083026Y-109515005D01*
X103524797Y-107312547D01*
X103113763Y-105077935D01*
X103051083Y-104538072D01*
X103470000Y-104538072D01*
X103594482Y-104525812D01*
X103714180Y-104489502D01*
X103824494Y-104430537D01*
X103921185Y-104351185D01*
X104000537Y-104254494D01*
X104059502Y-104144180D01*
X104095812Y-104024482D01*
X104108072Y-103900000D01*
X104108072Y-102900000D01*
X104095812Y-102775518D01*
X104059502Y-102655820D01*
X104000537Y-102545506D01*
X103921185Y-102448815D01*
X103824494Y-102369463D01*
X103714180Y-102310498D01*
X103594482Y-102274188D01*
X103470000Y-102261928D01*
X102824164Y-102261928D01*
X102739845Y-100551658D01*
X102778607Y-98279882D01*
X102865678Y-97238072D01*
X103470000Y-97238072D01*
X103594482Y-97225812D01*
X103714180Y-97189502D01*
X103824494Y-97130537D01*
X103921185Y-97051185D01*
X104000537Y-96954494D01*
X104059502Y-96844180D01*
X104095812Y-96724482D01*
X104108072Y-96600000D01*
X104108072Y-95600000D01*
X104095812Y-95475518D01*
X104059502Y-95355820D01*
X104000537Y-95245506D01*
X103921185Y-95148815D01*
X103824494Y-95069463D01*
X103714180Y-95010498D01*
X103594482Y-94974188D01*
X103470000Y-94961928D01*
X103126785Y-94961928D01*
X103306719Y-93768999D01*
X103793749Y-91549706D01*
X104426782Y-89367594D01*
X105203052Y-87232203D01*
X106119133Y-85152960D01*
X107170992Y-83139015D01*
X108354015Y-81199200D01*
X109663000Y-79342048D01*
X111092189Y-77575730D01*
X112635284Y-75908027D01*
X114285522Y-74346247D01*
X116035631Y-72897273D01*
X117877934Y-71567463D01*
X119804304Y-70362683D01*
X121806298Y-69288211D01*
X123031141Y-68732018D01*
X118241868Y-73521292D01*
%TA.AperFunction,Conductor*%
D16*
G36*
X118241868Y-73521292D02*
G01*
X118203105Y-73553104D01*
X118076141Y-73707810D01*
X117981798Y-73884313D01*
X117923702Y-74075829D01*
X117920694Y-74106368D01*
X117916750Y-74146409D01*
X106491868Y-85571292D01*
X106453105Y-85603104D01*
X106326141Y-85757810D01*
X106231799Y-85934313D01*
X106173702Y-86125830D01*
X106154085Y-86325000D01*
X106159001Y-86374911D01*
X106159000Y-87041822D01*
X106153031Y-87061500D01*
X106136928Y-87225000D01*
X106136928Y-87775000D01*
X106153031Y-87938500D01*
X106200722Y-88095716D01*
X106278169Y-88240608D01*
X106382394Y-88367606D01*
X106509392Y-88471831D01*
X106654284Y-88549278D01*
X106811500Y-88596969D01*
X106975000Y-88613072D01*
X107375000Y-88613072D01*
X107538500Y-88596969D01*
X107695716Y-88549278D01*
X107840608Y-88471831D01*
X107967606Y-88367606D01*
X108000000Y-88328134D01*
X108032394Y-88367606D01*
X108159392Y-88471831D01*
X108304284Y-88549278D01*
X108461500Y-88596969D01*
X108625000Y-88613072D01*
X109025000Y-88613072D01*
X109188500Y-88596969D01*
X109345716Y-88549278D01*
X109407974Y-88516000D01*
X109552541Y-88516000D01*
X109648061Y-88535000D01*
X109851939Y-88535000D01*
X110051898Y-88495226D01*
X110240256Y-88417205D01*
X110409774Y-88303937D01*
X110553937Y-88159774D01*
X110667205Y-87990256D01*
X110745226Y-87801898D01*
X110785000Y-87601939D01*
X110785000Y-87398061D01*
X110745226Y-87198102D01*
X110667205Y-87009744D01*
X110553937Y-86840226D01*
X110409774Y-86696063D01*
X110240256Y-86582795D01*
X110051898Y-86504774D01*
X109851939Y-86465000D01*
X109648061Y-86465000D01*
X109552541Y-86484000D01*
X109407974Y-86484000D01*
X109345716Y-86450722D01*
X109188500Y-86403031D01*
X109025000Y-86386928D01*
X108625000Y-86386928D01*
X108541709Y-86395131D01*
X119073769Y-75863072D01*
X119125000Y-75863072D01*
X119288500Y-75846969D01*
X119445716Y-75799278D01*
X119590608Y-75721831D01*
X119717606Y-75617606D01*
X119750000Y-75578134D01*
X119782394Y-75617606D01*
X119909392Y-75721831D01*
X120054284Y-75799278D01*
X120211500Y-75846969D01*
X120375000Y-75863072D01*
X120775000Y-75863072D01*
X120938500Y-75846969D01*
X121095716Y-75799278D01*
X121157974Y-75766000D01*
X121302541Y-75766000D01*
X121398061Y-75785000D01*
X121601939Y-75785000D01*
X121801898Y-75745226D01*
X121990256Y-75667205D01*
X122159774Y-75553937D01*
X122303937Y-75409774D01*
X122417205Y-75240256D01*
X122495226Y-75051898D01*
X122535000Y-74851939D01*
X122535000Y-74648061D01*
X122495226Y-74448102D01*
X122417205Y-74259744D01*
X122303937Y-74090226D01*
X122159774Y-73946063D01*
X121990256Y-73832795D01*
X121801898Y-73754774D01*
X121601939Y-73715000D01*
X121398061Y-73715000D01*
X121302541Y-73734000D01*
X121157974Y-73734000D01*
X121095716Y-73700722D01*
X120973264Y-73663576D01*
X122857554Y-71779286D01*
X122895892Y-72168533D01*
X123017974Y-72570982D01*
X123216223Y-72941881D01*
X123483023Y-73266977D01*
X123808119Y-73533777D01*
X124179018Y-73732026D01*
X124581467Y-73854108D01*
X124895118Y-73885000D01*
X125484000Y-73885000D01*
X125484001Y-78829158D01*
X107301583Y-97011577D01*
X107269502Y-96905820D01*
X107210537Y-96795506D01*
X107131185Y-96698815D01*
X107034494Y-96619463D01*
X106924180Y-96560498D01*
X106804482Y-96524188D01*
X106680000Y-96511928D01*
X106318072Y-96511928D01*
X106318072Y-95600000D01*
X106305812Y-95475518D01*
X106269502Y-95355820D01*
X106210537Y-95245506D01*
X106131185Y-95148815D01*
X106034494Y-95069463D01*
X105924180Y-95010498D01*
X105804482Y-94974188D01*
X105680000Y-94961928D01*
X104880000Y-94961928D01*
X104755518Y-94974188D01*
X104635820Y-95010498D01*
X104525506Y-95069463D01*
X104428815Y-95148815D01*
X104349463Y-95245506D01*
X104290498Y-95355820D01*
X104254188Y-95475518D01*
X104241928Y-95600000D01*
X104241928Y-96600000D01*
X104254188Y-96724482D01*
X104290498Y-96844180D01*
X104349463Y-96954494D01*
X104428815Y-97051185D01*
X104525506Y-97130537D01*
X104542928Y-97139849D01*
X104541928Y-97150000D01*
X104541928Y-97229662D01*
X104486483Y-97206696D01*
X104276863Y-97165000D01*
X104063137Y-97165000D01*
X103853517Y-97206696D01*
X103656060Y-97288485D01*
X103478353Y-97407225D01*
X103327225Y-97558353D01*
X103208485Y-97736060D01*
X103126696Y-97933517D01*
X103085000Y-98143137D01*
X103085000Y-98356863D01*
X103126696Y-98566483D01*
X103208485Y-98763940D01*
X103327225Y-98941647D01*
X103478353Y-99092775D01*
X103656060Y-99211515D01*
X103853517Y-99293304D01*
X104063137Y-99335000D01*
X104276863Y-99335000D01*
X104486483Y-99293304D01*
X104541928Y-99270338D01*
X104541928Y-99350000D01*
X104554188Y-99474482D01*
X104590498Y-99594180D01*
X104649463Y-99704494D01*
X104728815Y-99801185D01*
X104825506Y-99880537D01*
X104935820Y-99939502D01*
X105055518Y-99975812D01*
X105180000Y-99988072D01*
X105687229Y-99988072D01*
X105730829Y-100001298D01*
X105880098Y-100016000D01*
X106700098Y-100016000D01*
X106750000Y-100020915D01*
X106799902Y-100016000D01*
X106949171Y-100001298D01*
X107140687Y-99943202D01*
X107317190Y-99848860D01*
X107471896Y-99721896D01*
X107503712Y-99683128D01*
X127183133Y-80003708D01*
X127221896Y-79971896D01*
X127348860Y-79817190D01*
X127410340Y-79702168D01*
X127443202Y-79640688D01*
X127501298Y-79449171D01*
X127520915Y-79250000D01*
X127516000Y-79200098D01*
X127516000Y-73885000D01*
X128104882Y-73885000D01*
X128418533Y-73854108D01*
X128820982Y-73732026D01*
X129191881Y-73533777D01*
X129516977Y-73266977D01*
X129783777Y-72941881D01*
X129982026Y-72570982D01*
X130104108Y-72168533D01*
X130145330Y-71750000D01*
X130104108Y-71331467D01*
X129982026Y-70929018D01*
X129783777Y-70558119D01*
X129516977Y-70233023D01*
X129252534Y-70016000D01*
X129579160Y-70016000D01*
X130659000Y-71095841D01*
X130659001Y-73291820D01*
X130653031Y-73311500D01*
X130636928Y-73475000D01*
X130636928Y-74025000D01*
X130653031Y-74188500D01*
X130659000Y-74208178D01*
X130659001Y-76904158D01*
X128191872Y-79371288D01*
X128153104Y-79403104D01*
X128121293Y-79441866D01*
X127191872Y-80371288D01*
X127153104Y-80403104D01*
X127121294Y-80441865D01*
X118991872Y-88571288D01*
X118953104Y-88603104D01*
X118826140Y-88757810D01*
X118731798Y-88934314D01*
X118675370Y-89120330D01*
X118673702Y-89125830D01*
X118654085Y-89325000D01*
X118659000Y-89374903D01*
X118659001Y-89904159D01*
X118254160Y-90309000D01*
X117974902Y-90309000D01*
X117925000Y-90304085D01*
X117875098Y-90309000D01*
X117725829Y-90323702D01*
X117534313Y-90381798D01*
X117357810Y-90476140D01*
X117203104Y-90603104D01*
X117171293Y-90641866D01*
X110991868Y-96821292D01*
X110953105Y-96853104D01*
X110826141Y-97007810D01*
X110816676Y-97025518D01*
X110731799Y-97184313D01*
X110673702Y-97375830D01*
X110654085Y-97575000D01*
X110659001Y-97624912D01*
X110659000Y-100234000D01*
X109549893Y-100234000D01*
X109499999Y-100229086D01*
X109450105Y-100234000D01*
X109450098Y-100234000D01*
X109300829Y-100248702D01*
X109109313Y-100306798D01*
X108932810Y-100401140D01*
X108778104Y-100528104D01*
X108746292Y-100566867D01*
X108329160Y-100984000D01*
X105880098Y-100984000D01*
X105730829Y-100998702D01*
X105687229Y-101011928D01*
X105228901Y-101011928D01*
X105213304Y-100933517D01*
X105131515Y-100736060D01*
X105012775Y-100558353D01*
X104861647Y-100407225D01*
X104683940Y-100288485D01*
X104486483Y-100206696D01*
X104276863Y-100165000D01*
X104063137Y-100165000D01*
X103853517Y-100206696D01*
X103656060Y-100288485D01*
X103478353Y-100407225D01*
X103327225Y-100558353D01*
X103208485Y-100736060D01*
X103126696Y-100933517D01*
X103085000Y-101143137D01*
X103085000Y-101356863D01*
X103126696Y-101566483D01*
X103208485Y-101763940D01*
X103327225Y-101941647D01*
X103478353Y-102092775D01*
X103656060Y-102211515D01*
X103853517Y-102293304D01*
X104063137Y-102335000D01*
X104276863Y-102335000D01*
X104486483Y-102293304D01*
X104541928Y-102270338D01*
X104541928Y-102350000D01*
X104542928Y-102360151D01*
X104525506Y-102369463D01*
X104428815Y-102448815D01*
X104349463Y-102545506D01*
X104290498Y-102655820D01*
X104254188Y-102775518D01*
X104241928Y-102900000D01*
X104241928Y-103900000D01*
X104254188Y-104024482D01*
X104290498Y-104144180D01*
X104349463Y-104254494D01*
X104428815Y-104351185D01*
X104525506Y-104430537D01*
X104635820Y-104489502D01*
X104755518Y-104525812D01*
X104880000Y-104538072D01*
X105680000Y-104538072D01*
X105804482Y-104525812D01*
X105924180Y-104489502D01*
X106034494Y-104430537D01*
X106131185Y-104351185D01*
X106210537Y-104254494D01*
X106269502Y-104144180D01*
X106305812Y-104024482D01*
X106318072Y-103900000D01*
X106318072Y-103016000D01*
X108329160Y-103016000D01*
X111746292Y-106433133D01*
X111778104Y-106471896D01*
X111816872Y-106503712D01*
X112746292Y-107433133D01*
X112778104Y-107471896D01*
X112816872Y-107503712D01*
X113984001Y-108670841D01*
X113984000Y-108829159D01*
X111741868Y-111071292D01*
X111703105Y-111103104D01*
X111576141Y-111257810D01*
X111529155Y-111345716D01*
X111481799Y-111434313D01*
X111423702Y-111625830D01*
X111404085Y-111825000D01*
X111409001Y-111874911D01*
X111409000Y-114541822D01*
X111403031Y-114561500D01*
X111386928Y-114725000D01*
X111386928Y-115275000D01*
X111403031Y-115438500D01*
X111409000Y-115458177D01*
X111409001Y-119625088D01*
X111404085Y-119675000D01*
X111423702Y-119874170D01*
X111474260Y-120040834D01*
X111481799Y-120065687D01*
X111576141Y-120242190D01*
X111703105Y-120396896D01*
X111741868Y-120428708D01*
X118659000Y-127345841D01*
X118659001Y-128125089D01*
X118654085Y-128175000D01*
X118673702Y-128374170D01*
X118725424Y-128544672D01*
X118731799Y-128565687D01*
X118826141Y-128742190D01*
X118953105Y-128896896D01*
X118991868Y-128928708D01*
X119504192Y-129441033D01*
X118803237Y-129033435D01*
X116919085Y-127763634D01*
X115123223Y-126371749D01*
X113423564Y-124863914D01*
X111827572Y-123246751D01*
X110342263Y-121527368D01*
X108974171Y-119713331D01*
X107729304Y-117812605D01*
X106613144Y-115833557D01*
X105630601Y-113784897D01*
X104785986Y-111675609D01*
X104083026Y-109515005D01*
X103524797Y-107312547D01*
X103113763Y-105077935D01*
X103051083Y-104538072D01*
X103470000Y-104538072D01*
X103594482Y-104525812D01*
X103714180Y-104489502D01*
X103824494Y-104430537D01*
X103921185Y-104351185D01*
X104000537Y-104254494D01*
X104059502Y-104144180D01*
X104095812Y-104024482D01*
X104108072Y-103900000D01*
X104108072Y-102900000D01*
X104095812Y-102775518D01*
X104059502Y-102655820D01*
X104000537Y-102545506D01*
X103921185Y-102448815D01*
X103824494Y-102369463D01*
X103714180Y-102310498D01*
X103594482Y-102274188D01*
X103470000Y-102261928D01*
X102824164Y-102261928D01*
X102739845Y-100551658D01*
X102778607Y-98279882D01*
X102865678Y-97238072D01*
X103470000Y-97238072D01*
X103594482Y-97225812D01*
X103714180Y-97189502D01*
X103824494Y-97130537D01*
X103921185Y-97051185D01*
X104000537Y-96954494D01*
X104059502Y-96844180D01*
X104095812Y-96724482D01*
X104108072Y-96600000D01*
X104108072Y-95600000D01*
X104095812Y-95475518D01*
X104059502Y-95355820D01*
X104000537Y-95245506D01*
X103921185Y-95148815D01*
X103824494Y-95069463D01*
X103714180Y-95010498D01*
X103594482Y-94974188D01*
X103470000Y-94961928D01*
X103126785Y-94961928D01*
X103306719Y-93768999D01*
X103793749Y-91549706D01*
X104426782Y-89367594D01*
X105203052Y-87232203D01*
X106119133Y-85152960D01*
X107170992Y-83139015D01*
X108354015Y-81199200D01*
X109663000Y-79342048D01*
X111092189Y-77575730D01*
X112635284Y-75908027D01*
X114285522Y-74346247D01*
X116035631Y-72897273D01*
X117877934Y-71567463D01*
X119804304Y-70362683D01*
X121806298Y-69288211D01*
X123031141Y-68732018D01*
X118241868Y-73521292D01*
G37*
%TD.AperFunction*%
%TD*%
M02*
