M48
; DRILL file {KiCad (5.1.10)-1} date 10/20/21 07:52:34
; FORMAT={-:-/ absolute / inch / decimal}
; #@! TF.CreationDate,2021-10-20T07:52:34+02:00
; #@! TF.GenerationSoftware,Kicad,Pcbnew,(5.1.10)-1
; #@! TF.FileFunction,Plated,1,2,PTH
FMAT,2
INCH
T1C0.0157
%
G90
G05
T1
X4.3209Y-3.4449
X4.3701Y-4.2323
X4.4783Y-3.4449
X4.498Y-3.9862
X4.5276Y-4.5276
X4.5472Y-4.9409
X4.6555Y-3.9862
X4.685Y-4.5276
X4.7441Y-3.2087
X4.7835Y-2.9429
X4.8819Y-4.2323
X4.9213Y-4.9902
X4.9409Y-2.9429
X4.9902Y-3.622
X5.0787Y-4.9902
X5.1083Y-2.8937
X5.2461Y-4.4193
X5.3346Y-3.0118
X5.4035Y-4.4193
X5.4331Y-3.7008
X5.4921Y-3.0118
X5.502Y-4.9409
X5.561Y-5.1083
X5.561Y-5.2264
X5.5906Y-3.7008
X5.7185Y-4.5768
X5.7185Y-5.1083
X5.7382Y-4.1634
X5.7972Y-4.2618
X5.8957Y-4.1634
X5.9646Y-3.1299
X6.0728Y-4.872
X6.0827Y-3.8976
X6.0925Y-3.0118
X6.1909Y-4.3602
X6.2303Y-3.5531
X6.25Y-3.0118
X6.3484Y-4.3602
X6.4173Y-4.5965
X6.565Y-4.0846
T0
M30
