%TF.GenerationSoftware,KiCad,Pcbnew,(5.1.10)-1*%
%TF.CreationDate,2021-10-20T07:52:33+02:00*%
%TF.ProjectId,TVZ_kuglica,54565a5f-6b75-4676-9c69-63612e6b6963,rev?*%
%TF.SameCoordinates,Original*%
%TF.FileFunction,Soldermask,Bot*%
%TF.FilePolarity,Negative*%
%FSLAX46Y46*%
G04 Gerber Fmt 4.6, Leading zero omitted, Abs format (unit mm)*
G04 Created by KiCad (PCBNEW (5.1.10)-1) date 2021-10-20 07:52:33*
%MOMM*%
%LPD*%
G01*
G04 APERTURE LIST*
%ADD10O,6.000000X3.000000*%
%ADD11C,0.900000*%
%ADD12R,1.500000X0.700000*%
%ADD13R,0.800000X1.000000*%
G04 APERTURE END LIST*
D10*
%TO.C,BT1*%
X126500000Y-71750000D03*
X145500000Y-71750000D03*
%TD*%
D11*
%TO.C,SW1*%
X104170000Y-101250000D03*
X104170000Y-98250000D03*
D12*
X105930000Y-102000000D03*
X105930000Y-99000000D03*
X105930000Y-97500000D03*
D13*
X103070000Y-103400000D03*
X103070000Y-96100000D03*
X105280000Y-96100000D03*
X105280000Y-103400000D03*
%TD*%
%TO.C,R1*%
G36*
G01*
X108425000Y-87775000D02*
X108425000Y-87225000D01*
G75*
G02*
X108625000Y-87025000I200000J0D01*
G01*
X109025000Y-87025000D01*
G75*
G02*
X109225000Y-87225000I0J-200000D01*
G01*
X109225000Y-87775000D01*
G75*
G02*
X109025000Y-87975000I-200000J0D01*
G01*
X108625000Y-87975000D01*
G75*
G02*
X108425000Y-87775000I0J200000D01*
G01*
G37*
G36*
G01*
X106775000Y-87775000D02*
X106775000Y-87225000D01*
G75*
G02*
X106975000Y-87025000I200000J0D01*
G01*
X107375000Y-87025000D01*
G75*
G02*
X107575000Y-87225000I0J-200000D01*
G01*
X107575000Y-87775000D01*
G75*
G02*
X107375000Y-87975000I-200000J0D01*
G01*
X106975000Y-87975000D01*
G75*
G02*
X106775000Y-87775000I0J200000D01*
G01*
G37*
%TD*%
%TO.C,R2*%
G36*
G01*
X118525000Y-75025000D02*
X118525000Y-74475000D01*
G75*
G02*
X118725000Y-74275000I200000J0D01*
G01*
X119125000Y-74275000D01*
G75*
G02*
X119325000Y-74475000I0J-200000D01*
G01*
X119325000Y-75025000D01*
G75*
G02*
X119125000Y-75225000I-200000J0D01*
G01*
X118725000Y-75225000D01*
G75*
G02*
X118525000Y-75025000I0J200000D01*
G01*
G37*
G36*
G01*
X120175000Y-75025000D02*
X120175000Y-74475000D01*
G75*
G02*
X120375000Y-74275000I200000J0D01*
G01*
X120775000Y-74275000D01*
G75*
G02*
X120975000Y-74475000I0J-200000D01*
G01*
X120975000Y-75025000D01*
G75*
G02*
X120775000Y-75225000I-200000J0D01*
G01*
X120375000Y-75225000D01*
G75*
G02*
X120175000Y-75025000I0J200000D01*
G01*
G37*
%TD*%
%TO.C,R3*%
G36*
G01*
X153425000Y-76775000D02*
X153425000Y-76225000D01*
G75*
G02*
X153625000Y-76025000I200000J0D01*
G01*
X154025000Y-76025000D01*
G75*
G02*
X154225000Y-76225000I0J-200000D01*
G01*
X154225000Y-76775000D01*
G75*
G02*
X154025000Y-76975000I-200000J0D01*
G01*
X153625000Y-76975000D01*
G75*
G02*
X153425000Y-76775000I0J200000D01*
G01*
G37*
G36*
G01*
X151775000Y-76775000D02*
X151775000Y-76225000D01*
G75*
G02*
X151975000Y-76025000I200000J0D01*
G01*
X152375000Y-76025000D01*
G75*
G02*
X152575000Y-76225000I0J-200000D01*
G01*
X152575000Y-76775000D01*
G75*
G02*
X152375000Y-76975000I-200000J0D01*
G01*
X151975000Y-76975000D01*
G75*
G02*
X151775000Y-76775000I0J200000D01*
G01*
G37*
%TD*%
%TO.C,R4*%
G36*
G01*
X119275000Y-112525000D02*
X119275000Y-111975000D01*
G75*
G02*
X119475000Y-111775000I200000J0D01*
G01*
X119875000Y-111775000D01*
G75*
G02*
X120075000Y-111975000I0J-200000D01*
G01*
X120075000Y-112525000D01*
G75*
G02*
X119875000Y-112725000I-200000J0D01*
G01*
X119475000Y-112725000D01*
G75*
G02*
X119275000Y-112525000I0J200000D01*
G01*
G37*
G36*
G01*
X120925000Y-112525000D02*
X120925000Y-111975000D01*
G75*
G02*
X121125000Y-111775000I200000J0D01*
G01*
X121525000Y-111775000D01*
G75*
G02*
X121725000Y-111975000I0J-200000D01*
G01*
X121725000Y-112525000D01*
G75*
G02*
X121525000Y-112725000I-200000J0D01*
G01*
X121125000Y-112725000D01*
G75*
G02*
X120925000Y-112525000I0J200000D01*
G01*
G37*
%TD*%
%TO.C,R5*%
G36*
G01*
X113675000Y-115275000D02*
X113675000Y-114725000D01*
G75*
G02*
X113875000Y-114525000I200000J0D01*
G01*
X114275000Y-114525000D01*
G75*
G02*
X114475000Y-114725000I0J-200000D01*
G01*
X114475000Y-115275000D01*
G75*
G02*
X114275000Y-115475000I-200000J0D01*
G01*
X113875000Y-115475000D01*
G75*
G02*
X113675000Y-115275000I0J200000D01*
G01*
G37*
G36*
G01*
X112025000Y-115275000D02*
X112025000Y-114725000D01*
G75*
G02*
X112225000Y-114525000I200000J0D01*
G01*
X112625000Y-114525000D01*
G75*
G02*
X112825000Y-114725000I0J-200000D01*
G01*
X112825000Y-115275000D01*
G75*
G02*
X112625000Y-115475000I-200000J0D01*
G01*
X112225000Y-115475000D01*
G75*
G02*
X112025000Y-115275000I0J200000D01*
G01*
G37*
%TD*%
%TO.C,R6*%
G36*
G01*
X111275000Y-101525000D02*
X111275000Y-100975000D01*
G75*
G02*
X111475000Y-100775000I200000J0D01*
G01*
X111875000Y-100775000D01*
G75*
G02*
X112075000Y-100975000I0J-200000D01*
G01*
X112075000Y-101525000D01*
G75*
G02*
X111875000Y-101725000I-200000J0D01*
G01*
X111475000Y-101725000D01*
G75*
G02*
X111275000Y-101525000I0J200000D01*
G01*
G37*
G36*
G01*
X112925000Y-101525000D02*
X112925000Y-100975000D01*
G75*
G02*
X113125000Y-100775000I200000J0D01*
G01*
X113525000Y-100775000D01*
G75*
G02*
X113725000Y-100975000I0J-200000D01*
G01*
X113725000Y-101525000D01*
G75*
G02*
X113525000Y-101725000I-200000J0D01*
G01*
X113125000Y-101725000D01*
G75*
G02*
X112925000Y-101525000I0J200000D01*
G01*
G37*
%TD*%
%TO.C,R7*%
G36*
G01*
X137425000Y-132525000D02*
X137425000Y-131975000D01*
G75*
G02*
X137625000Y-131775000I200000J0D01*
G01*
X138025000Y-131775000D01*
G75*
G02*
X138225000Y-131975000I0J-200000D01*
G01*
X138225000Y-132525000D01*
G75*
G02*
X138025000Y-132725000I-200000J0D01*
G01*
X137625000Y-132725000D01*
G75*
G02*
X137425000Y-132525000I0J200000D01*
G01*
G37*
G36*
G01*
X135775000Y-132525000D02*
X135775000Y-131975000D01*
G75*
G02*
X135975000Y-131775000I200000J0D01*
G01*
X136375000Y-131775000D01*
G75*
G02*
X136575000Y-131975000I0J-200000D01*
G01*
X136575000Y-132525000D01*
G75*
G02*
X136375000Y-132725000I-200000J0D01*
G01*
X135975000Y-132725000D01*
G75*
G02*
X135775000Y-132525000I0J200000D01*
G01*
G37*
%TD*%
%TO.C,R8*%
G36*
G01*
X154275000Y-111025000D02*
X154275000Y-110475000D01*
G75*
G02*
X154475000Y-110275000I200000J0D01*
G01*
X154875000Y-110275000D01*
G75*
G02*
X155075000Y-110475000I0J-200000D01*
G01*
X155075000Y-111025000D01*
G75*
G02*
X154875000Y-111225000I-200000J0D01*
G01*
X154475000Y-111225000D01*
G75*
G02*
X154275000Y-111025000I0J200000D01*
G01*
G37*
G36*
G01*
X155925000Y-111025000D02*
X155925000Y-110475000D01*
G75*
G02*
X156125000Y-110275000I200000J0D01*
G01*
X156525000Y-110275000D01*
G75*
G02*
X156725000Y-110475000I0J-200000D01*
G01*
X156725000Y-111025000D01*
G75*
G02*
X156525000Y-111225000I-200000J0D01*
G01*
X156125000Y-111225000D01*
G75*
G02*
X155925000Y-111025000I0J200000D01*
G01*
G37*
%TD*%
%TO.C,R9*%
G36*
G01*
X132925000Y-74025000D02*
X132925000Y-73475000D01*
G75*
G02*
X133125000Y-73275000I200000J0D01*
G01*
X133525000Y-73275000D01*
G75*
G02*
X133725000Y-73475000I0J-200000D01*
G01*
X133725000Y-74025000D01*
G75*
G02*
X133525000Y-74225000I-200000J0D01*
G01*
X133125000Y-74225000D01*
G75*
G02*
X132925000Y-74025000I0J200000D01*
G01*
G37*
G36*
G01*
X131275000Y-74025000D02*
X131275000Y-73475000D01*
G75*
G02*
X131475000Y-73275000I200000J0D01*
G01*
X131875000Y-73275000D01*
G75*
G02*
X132075000Y-73475000I0J-200000D01*
G01*
X132075000Y-74025000D01*
G75*
G02*
X131875000Y-74225000I-200000J0D01*
G01*
X131475000Y-74225000D01*
G75*
G02*
X131275000Y-74025000I0J200000D01*
G01*
G37*
%TD*%
%TO.C,R10*%
G36*
G01*
X119275000Y-106025000D02*
X119275000Y-105475000D01*
G75*
G02*
X119475000Y-105275000I200000J0D01*
G01*
X119875000Y-105275000D01*
G75*
G02*
X120075000Y-105475000I0J-200000D01*
G01*
X120075000Y-106025000D01*
G75*
G02*
X119875000Y-106225000I-200000J0D01*
G01*
X119475000Y-106225000D01*
G75*
G02*
X119275000Y-106025000I0J200000D01*
G01*
G37*
G36*
G01*
X120925000Y-106025000D02*
X120925000Y-105475000D01*
G75*
G02*
X121125000Y-105275000I200000J0D01*
G01*
X121525000Y-105275000D01*
G75*
G02*
X121725000Y-105475000I0J-200000D01*
G01*
X121725000Y-106025000D01*
G75*
G02*
X121525000Y-106225000I-200000J0D01*
G01*
X121125000Y-106225000D01*
G75*
G02*
X120925000Y-106025000I0J200000D01*
G01*
G37*
%TD*%
%TO.C,R11*%
G36*
G01*
X120925000Y-127025000D02*
X120925000Y-126475000D01*
G75*
G02*
X121125000Y-126275000I200000J0D01*
G01*
X121525000Y-126275000D01*
G75*
G02*
X121725000Y-126475000I0J-200000D01*
G01*
X121725000Y-127025000D01*
G75*
G02*
X121525000Y-127225000I-200000J0D01*
G01*
X121125000Y-127225000D01*
G75*
G02*
X120925000Y-127025000I0J200000D01*
G01*
G37*
G36*
G01*
X119275000Y-127025000D02*
X119275000Y-126475000D01*
G75*
G02*
X119475000Y-126275000I200000J0D01*
G01*
X119875000Y-126275000D01*
G75*
G02*
X120075000Y-126475000I0J-200000D01*
G01*
X120075000Y-127025000D01*
G75*
G02*
X119875000Y-127225000I-200000J0D01*
G01*
X119475000Y-127225000D01*
G75*
G02*
X119275000Y-127025000I0J200000D01*
G01*
G37*
%TD*%
%TO.C,R12*%
G36*
G01*
X119275000Y-94275000D02*
X119275000Y-93725000D01*
G75*
G02*
X119475000Y-93525000I200000J0D01*
G01*
X119875000Y-93525000D01*
G75*
G02*
X120075000Y-93725000I0J-200000D01*
G01*
X120075000Y-94275000D01*
G75*
G02*
X119875000Y-94475000I-200000J0D01*
G01*
X119475000Y-94475000D01*
G75*
G02*
X119275000Y-94275000I0J200000D01*
G01*
G37*
G36*
G01*
X120925000Y-94275000D02*
X120925000Y-93725000D01*
G75*
G02*
X121125000Y-93525000I200000J0D01*
G01*
X121525000Y-93525000D01*
G75*
G02*
X121725000Y-93725000I0J-200000D01*
G01*
X121725000Y-94275000D01*
G75*
G02*
X121525000Y-94475000I-200000J0D01*
G01*
X121125000Y-94475000D01*
G75*
G02*
X120925000Y-94275000I0J200000D01*
G01*
G37*
%TD*%
M02*
