M48
; DRILL file {KiCad (5.1.10)-1} date 10/20/21 07:50:52
; FORMAT={-:-/ absolute / inch / decimal}
; #@! TF.CreationDate,2021-10-20T07:50:52+02:00
; #@! TF.GenerationSoftware,Kicad,Pcbnew,(5.1.10)-1
; #@! TF.FileFunction,Plated,1,2,PTH
FMAT,2
INCH
T1C0.0157
%
G90
G05
T1
X4.3504Y-4.4094
X4.3701Y-3.8091
X4.4488Y-4.626
X4.5079Y-4.4094
X4.5177Y-4.2323
X4.5276Y-3.8091
X4.626Y-3.435
X4.6358Y-4.0256
X4.7835Y-2.9429
X4.7933Y-5.0591
X4.9409Y-2.9429
X4.9409Y-3.6516
X4.9902Y-4.4783
X5.0591Y-4.065
X5.1575Y-2.9724
X5.2165Y-4.065
X5.3051Y-5.128
X5.374Y-5.2165
X5.4134Y-3.7008
X5.4626Y-5.128
X5.5709Y-3.7008
X5.6496Y-3.1398
X5.6693Y-3.8583
X5.689Y-2.9232
X5.8465Y-2.9232
X5.8661Y-4.1437
X5.9547Y-5.0886
X6.1909Y-4.3602
X6.2008Y-3.5827
X6.2894Y-3.1693
X6.3484Y-4.3602
X6.3583Y-4.5472
X6.4961Y-4.0354
T0
M30
