%TF.GenerationSoftware,KiCad,Pcbnew,(5.1.10)-1*%
%TF.CreationDate,2021-10-20T07:50:51+02:00*%
%TF.ProjectId,TVZ_kuglica,54565a5f-6b75-4676-9c69-63612e6b6963,rev?*%
%TF.SameCoordinates,Original*%
%TF.FileFunction,Copper,L2,Bot*%
%TF.FilePolarity,Positive*%
%FSLAX46Y46*%
G04 Gerber Fmt 4.6, Leading zero omitted, Abs format (unit mm)*
G04 Created by KiCad (PCBNEW (5.1.10)-1) date 2021-10-20 07:50:51*
%MOMM*%
%LPD*%
G01*
G04 APERTURE LIST*
%TA.AperFunction,SMDPad,CuDef*%
%ADD10R,1.500000X0.700000*%
%TD*%
%TA.AperFunction,SMDPad,CuDef*%
%ADD11R,0.800000X1.000000*%
%TD*%
%TA.AperFunction,SMDPad,CuDef*%
%ADD12O,6.000000X3.000000*%
%TD*%
%TA.AperFunction,ViaPad*%
%ADD13C,0.800000*%
%TD*%
%TA.AperFunction,Conductor*%
%ADD14C,0.762000*%
%TD*%
%TA.AperFunction,Conductor*%
%ADD15C,0.254000*%
%TD*%
%TA.AperFunction,Conductor*%
%ADD16C,0.100000*%
%TD*%
G04 APERTURE END LIST*
D10*
%TO.P,SW1,1*%
%TO.N,Net-(R1-Pad1)*%
X105930000Y-102000000D03*
%TO.P,SW1,2*%
%TO.N,VCC*%
X105930000Y-99000000D03*
%TO.P,SW1,3*%
%TO.N,Net-(SW1-Pad3)*%
X105930000Y-97500000D03*
D11*
%TO.P,SW1,*%
%TO.N,*%
X103070000Y-103400000D03*
X103070000Y-96100000D03*
X105280000Y-96100000D03*
X105280000Y-103400000D03*
%TD*%
D12*
%TO.P,BT1,1*%
%TO.N,VCC*%
X127250000Y-71500000D03*
%TO.P,BT1,2*%
%TO.N,GND*%
X146250000Y-71500000D03*
%TD*%
%TO.P,R1,1*%
%TO.N,Net-(R1-Pad1)*%
%TA.AperFunction,SMDPad,CuDef*%
G36*
G01*
X108025000Y-97025000D02*
X108025000Y-96475000D01*
G75*
G02*
X108225000Y-96275000I200000J0D01*
G01*
X108625000Y-96275000D01*
G75*
G02*
X108825000Y-96475000I0J-200000D01*
G01*
X108825000Y-97025000D01*
G75*
G02*
X108625000Y-97225000I-200000J0D01*
G01*
X108225000Y-97225000D01*
G75*
G02*
X108025000Y-97025000I0J200000D01*
G01*
G37*
%TD.AperFunction*%
%TO.P,R1,2*%
%TO.N,Net-(D1-Pad1)*%
%TA.AperFunction,SMDPad,CuDef*%
G36*
G01*
X109675000Y-97025000D02*
X109675000Y-96475000D01*
G75*
G02*
X109875000Y-96275000I200000J0D01*
G01*
X110275000Y-96275000D01*
G75*
G02*
X110475000Y-96475000I0J-200000D01*
G01*
X110475000Y-97025000D01*
G75*
G02*
X110275000Y-97225000I-200000J0D01*
G01*
X109875000Y-97225000D01*
G75*
G02*
X109675000Y-97025000I0J200000D01*
G01*
G37*
%TD.AperFunction*%
%TD*%
%TO.P,R2,2*%
%TO.N,Net-(D2-Pad1)*%
%TA.AperFunction,SMDPad,CuDef*%
G36*
G01*
X120175000Y-75025000D02*
X120175000Y-74475000D01*
G75*
G02*
X120375000Y-74275000I200000J0D01*
G01*
X120775000Y-74275000D01*
G75*
G02*
X120975000Y-74475000I0J-200000D01*
G01*
X120975000Y-75025000D01*
G75*
G02*
X120775000Y-75225000I-200000J0D01*
G01*
X120375000Y-75225000D01*
G75*
G02*
X120175000Y-75025000I0J200000D01*
G01*
G37*
%TD.AperFunction*%
%TO.P,R2,1*%
%TO.N,Net-(R1-Pad1)*%
%TA.AperFunction,SMDPad,CuDef*%
G36*
G01*
X118525000Y-75025000D02*
X118525000Y-74475000D01*
G75*
G02*
X118725000Y-74275000I200000J0D01*
G01*
X119125000Y-74275000D01*
G75*
G02*
X119325000Y-74475000I0J-200000D01*
G01*
X119325000Y-75025000D01*
G75*
G02*
X119125000Y-75225000I-200000J0D01*
G01*
X118725000Y-75225000D01*
G75*
G02*
X118525000Y-75025000I0J200000D01*
G01*
G37*
%TD.AperFunction*%
%TD*%
%TO.P,R3,1*%
%TO.N,Net-(R1-Pad1)*%
%TA.AperFunction,SMDPad,CuDef*%
G36*
G01*
X141525000Y-74525000D02*
X141525000Y-73975000D01*
G75*
G02*
X141725000Y-73775000I200000J0D01*
G01*
X142125000Y-73775000D01*
G75*
G02*
X142325000Y-73975000I0J-200000D01*
G01*
X142325000Y-74525000D01*
G75*
G02*
X142125000Y-74725000I-200000J0D01*
G01*
X141725000Y-74725000D01*
G75*
G02*
X141525000Y-74525000I0J200000D01*
G01*
G37*
%TD.AperFunction*%
%TO.P,R3,2*%
%TO.N,Net-(D3-Pad1)*%
%TA.AperFunction,SMDPad,CuDef*%
G36*
G01*
X143175000Y-74525000D02*
X143175000Y-73975000D01*
G75*
G02*
X143375000Y-73775000I200000J0D01*
G01*
X143775000Y-73775000D01*
G75*
G02*
X143975000Y-73975000I0J-200000D01*
G01*
X143975000Y-74525000D01*
G75*
G02*
X143775000Y-74725000I-200000J0D01*
G01*
X143375000Y-74725000D01*
G75*
G02*
X143175000Y-74525000I0J200000D01*
G01*
G37*
%TD.AperFunction*%
%TD*%
%TO.P,R4,2*%
%TO.N,Net-(D4-Pad1)*%
%TA.AperFunction,SMDPad,CuDef*%
G36*
G01*
X122675000Y-105775000D02*
X122675000Y-105225000D01*
G75*
G02*
X122875000Y-105025000I200000J0D01*
G01*
X123275000Y-105025000D01*
G75*
G02*
X123475000Y-105225000I0J-200000D01*
G01*
X123475000Y-105775000D01*
G75*
G02*
X123275000Y-105975000I-200000J0D01*
G01*
X122875000Y-105975000D01*
G75*
G02*
X122675000Y-105775000I0J200000D01*
G01*
G37*
%TD.AperFunction*%
%TO.P,R4,1*%
%TO.N,Net-(R1-Pad1)*%
%TA.AperFunction,SMDPad,CuDef*%
G36*
G01*
X121025000Y-105775000D02*
X121025000Y-105225000D01*
G75*
G02*
X121225000Y-105025000I200000J0D01*
G01*
X121625000Y-105025000D01*
G75*
G02*
X121825000Y-105225000I0J-200000D01*
G01*
X121825000Y-105775000D01*
G75*
G02*
X121625000Y-105975000I-200000J0D01*
G01*
X121225000Y-105975000D01*
G75*
G02*
X121025000Y-105775000I0J200000D01*
G01*
G37*
%TD.AperFunction*%
%TD*%
%TO.P,R5,1*%
%TO.N,Net-(R1-Pad1)*%
%TA.AperFunction,SMDPad,CuDef*%
G36*
G01*
X107525000Y-112275000D02*
X107525000Y-111725000D01*
G75*
G02*
X107725000Y-111525000I200000J0D01*
G01*
X108125000Y-111525000D01*
G75*
G02*
X108325000Y-111725000I0J-200000D01*
G01*
X108325000Y-112275000D01*
G75*
G02*
X108125000Y-112475000I-200000J0D01*
G01*
X107725000Y-112475000D01*
G75*
G02*
X107525000Y-112275000I0J200000D01*
G01*
G37*
%TD.AperFunction*%
%TO.P,R5,2*%
%TO.N,Net-(D5-Pad1)*%
%TA.AperFunction,SMDPad,CuDef*%
G36*
G01*
X109175000Y-112275000D02*
X109175000Y-111725000D01*
G75*
G02*
X109375000Y-111525000I200000J0D01*
G01*
X109775000Y-111525000D01*
G75*
G02*
X109975000Y-111725000I0J-200000D01*
G01*
X109975000Y-112275000D01*
G75*
G02*
X109775000Y-112475000I-200000J0D01*
G01*
X109375000Y-112475000D01*
G75*
G02*
X109175000Y-112275000I0J200000D01*
G01*
G37*
%TD.AperFunction*%
%TD*%
%TO.P,R6,2*%
%TO.N,Net-(D7-Pad1)*%
%TA.AperFunction,SMDPad,CuDef*%
G36*
G01*
X133425000Y-130525000D02*
X133425000Y-129975000D01*
G75*
G02*
X133625000Y-129775000I200000J0D01*
G01*
X134025000Y-129775000D01*
G75*
G02*
X134225000Y-129975000I0J-200000D01*
G01*
X134225000Y-130525000D01*
G75*
G02*
X134025000Y-130725000I-200000J0D01*
G01*
X133625000Y-130725000D01*
G75*
G02*
X133425000Y-130525000I0J200000D01*
G01*
G37*
%TD.AperFunction*%
%TO.P,R6,1*%
%TO.N,Net-(R1-Pad1)*%
%TA.AperFunction,SMDPad,CuDef*%
G36*
G01*
X131775000Y-130525000D02*
X131775000Y-129975000D01*
G75*
G02*
X131975000Y-129775000I200000J0D01*
G01*
X132375000Y-129775000D01*
G75*
G02*
X132575000Y-129975000I0J-200000D01*
G01*
X132575000Y-130525000D01*
G75*
G02*
X132375000Y-130725000I-200000J0D01*
G01*
X131975000Y-130725000D01*
G75*
G02*
X131775000Y-130525000I0J200000D01*
G01*
G37*
%TD.AperFunction*%
%TD*%
%TO.P,R7,1*%
%TO.N,Net-(R1-Pad1)*%
%TA.AperFunction,SMDPad,CuDef*%
G36*
G01*
X154275000Y-111025000D02*
X154275000Y-110475000D01*
G75*
G02*
X154475000Y-110275000I200000J0D01*
G01*
X154875000Y-110275000D01*
G75*
G02*
X155075000Y-110475000I0J-200000D01*
G01*
X155075000Y-111025000D01*
G75*
G02*
X154875000Y-111225000I-200000J0D01*
G01*
X154475000Y-111225000D01*
G75*
G02*
X154275000Y-111025000I0J200000D01*
G01*
G37*
%TD.AperFunction*%
%TO.P,R7,2*%
%TO.N,Net-(D8-Pad1)*%
%TA.AperFunction,SMDPad,CuDef*%
G36*
G01*
X155925000Y-111025000D02*
X155925000Y-110475000D01*
G75*
G02*
X156125000Y-110275000I200000J0D01*
G01*
X156525000Y-110275000D01*
G75*
G02*
X156725000Y-110475000I0J-200000D01*
G01*
X156725000Y-111025000D01*
G75*
G02*
X156525000Y-111225000I-200000J0D01*
G01*
X156125000Y-111225000D01*
G75*
G02*
X155925000Y-111025000I0J200000D01*
G01*
G37*
%TD.AperFunction*%
%TD*%
%TO.P,R8,2*%
%TO.N,Net-(D11-Pad1)*%
%TA.AperFunction,SMDPad,CuDef*%
G36*
G01*
X151525000Y-101575000D02*
X150975000Y-101575000D01*
G75*
G02*
X150775000Y-101375000I0J200000D01*
G01*
X150775000Y-100975000D01*
G75*
G02*
X150975000Y-100775000I200000J0D01*
G01*
X151525000Y-100775000D01*
G75*
G02*
X151725000Y-100975000I0J-200000D01*
G01*
X151725000Y-101375000D01*
G75*
G02*
X151525000Y-101575000I-200000J0D01*
G01*
G37*
%TD.AperFunction*%
%TO.P,R8,1*%
%TO.N,Net-(R1-Pad1)*%
%TA.AperFunction,SMDPad,CuDef*%
G36*
G01*
X151525000Y-103225000D02*
X150975000Y-103225000D01*
G75*
G02*
X150775000Y-103025000I0J200000D01*
G01*
X150775000Y-102625000D01*
G75*
G02*
X150975000Y-102425000I200000J0D01*
G01*
X151525000Y-102425000D01*
G75*
G02*
X151725000Y-102625000I0J-200000D01*
G01*
X151725000Y-103025000D01*
G75*
G02*
X151525000Y-103225000I-200000J0D01*
G01*
G37*
%TD.AperFunction*%
%TD*%
D13*
%TO.N,Net-(D1-Pad1)*%
X111000000Y-96750000D03*
%TO.N,GND*%
X159750000Y-80500000D03*
X143500000Y-79750000D03*
X131000000Y-75500000D03*
X117500000Y-87250000D03*
X117750000Y-102250000D03*
X125500000Y-92750000D03*
X144000000Y-98000000D03*
X157500000Y-91000000D03*
X165000000Y-102500000D03*
X149000000Y-105250000D03*
X114750000Y-107500000D03*
X113000000Y-117500000D03*
X126750000Y-113750000D03*
X161500000Y-115500000D03*
X151250000Y-129250000D03*
X121750000Y-128500000D03*
X136500000Y-132500000D03*
X148500000Y-74250000D03*
X125500000Y-74750000D03*
X115000000Y-96750000D03*
X132500000Y-103250000D03*
X114500000Y-112000000D03*
X138750000Y-130250000D03*
X161250000Y-110750000D03*
X141500000Y-94000000D03*
%TO.N,Net-(D2-Pad1)*%
X121500000Y-74750000D03*
%TO.N,Net-(D3-Pad1)*%
X144500000Y-74250000D03*
%TO.N,Net-(D4-Pad1)*%
X128500000Y-103250000D03*
%TO.N,Net-(D5-Pad1)*%
X110500000Y-112000000D03*
%TO.N,Net-(D7-Pad1)*%
X134750000Y-130250000D03*
%TO.N,Net-(D8-Pad1)*%
X157250000Y-110750000D03*
%TO.N,Net-(D11-Pad1)*%
X137500000Y-94000000D03*
%TD*%
D14*
%TO.N,Net-(D1-Pad1)*%
X110075000Y-96750000D02*
X111000000Y-96750000D01*
%TO.N,VCC*%
X127250000Y-86750000D02*
X127250000Y-71500000D01*
X115000000Y-99000000D02*
X127250000Y-86750000D01*
X105930000Y-99000000D02*
X115000000Y-99000000D01*
%TO.N,Net-(D2-Pad1)*%
X120575000Y-74750000D02*
X121500000Y-74750000D01*
%TO.N,Net-(D3-Pad1)*%
X143575000Y-74250000D02*
X144500000Y-74250000D01*
%TO.N,Net-(D4-Pad1)*%
X126250000Y-105500000D02*
X128500000Y-103250000D01*
X123075000Y-105500000D02*
X126250000Y-105500000D01*
%TO.N,Net-(D5-Pad1)*%
X109575000Y-112000000D02*
X110500000Y-112000000D01*
%TO.N,Net-(D7-Pad1)*%
X133825000Y-130250000D02*
X134750000Y-130250000D01*
%TO.N,Net-(D8-Pad1)*%
X156325000Y-110750000D02*
X157250000Y-110750000D01*
%TO.N,Net-(D11-Pad1)*%
X151250000Y-101175000D02*
X151250000Y-99250000D01*
X151250000Y-99250000D02*
X148500000Y-96500000D01*
X140000000Y-96500000D02*
X148500000Y-96500000D01*
X137500000Y-94000000D02*
X140000000Y-96500000D01*
%TO.N,Net-(R1-Pad1)*%
X112250000Y-102000000D02*
X113500000Y-103250000D01*
X134925000Y-94000000D02*
X134925000Y-97175000D01*
X134925000Y-97175000D02*
X148500000Y-110750000D01*
X132175000Y-130250000D02*
X129000000Y-130250000D01*
X129000000Y-130250000D02*
X120250000Y-121500000D01*
X107925000Y-112000000D02*
X106750000Y-112000000D01*
X106750000Y-112000000D02*
X106000000Y-111250000D01*
X106000000Y-111250000D02*
X106000000Y-108250000D01*
X106000000Y-108250000D02*
X109500000Y-104750000D01*
X109500000Y-102750000D02*
X110250000Y-102000000D01*
X109500000Y-102000000D02*
X110250000Y-102000000D01*
X109500000Y-104750000D02*
X109500000Y-103000000D01*
X110250000Y-102000000D02*
X112250000Y-102000000D01*
X109500000Y-103000000D02*
X109500000Y-102000000D01*
X109500000Y-102750000D02*
X108750000Y-102000000D01*
X109500000Y-103000000D02*
X109500000Y-102750000D01*
X108750000Y-102000000D02*
X109500000Y-102000000D01*
X105930000Y-102000000D02*
X108750000Y-102000000D01*
X120250000Y-104000000D02*
X119500000Y-103250000D01*
X119500000Y-103250000D02*
X120250000Y-103250000D01*
X113500000Y-103250000D02*
X119500000Y-103250000D01*
X120250000Y-104250000D02*
X120250000Y-103250000D01*
X120250000Y-104000000D02*
X121000000Y-103250000D01*
X120250000Y-104250000D02*
X120250000Y-104000000D01*
X120250000Y-103250000D02*
X121000000Y-103250000D01*
X118925000Y-74750000D02*
X117750000Y-74750000D01*
X123000000Y-99000000D02*
X131325000Y-90675000D01*
X134075000Y-90825000D02*
X134925000Y-91675000D01*
X134075000Y-90675000D02*
X134075000Y-90825000D01*
X134925000Y-91675000D02*
X134925000Y-94000000D01*
X134925000Y-90675000D02*
X134925000Y-91675000D01*
X131325000Y-90675000D02*
X134075000Y-90675000D01*
X134075000Y-90675000D02*
X134925000Y-90675000D01*
X134075000Y-90675000D02*
X134925000Y-89825000D01*
X134925000Y-89825000D02*
X134925000Y-90675000D01*
X134925000Y-84075000D02*
X134925000Y-89825000D01*
X123000000Y-102500000D02*
X122250000Y-103250000D01*
X121000000Y-103250000D02*
X122250000Y-103250000D01*
X123000000Y-102250000D02*
X123000000Y-99000000D01*
X123000000Y-102250000D02*
X123000000Y-102500000D01*
X134925000Y-71675000D02*
X132000000Y-68750000D01*
X132000000Y-68750000D02*
X124750000Y-68750000D01*
X124750000Y-68750000D02*
X122000000Y-71500000D01*
X122000000Y-71500000D02*
X120500000Y-71500000D01*
X118925000Y-73075000D02*
X118925000Y-74750000D01*
X120500000Y-71500000D02*
X118925000Y-73075000D01*
X135100000Y-74250000D02*
X134925000Y-74075000D01*
X135600000Y-74250000D02*
X134925000Y-73575000D01*
X134925000Y-73575000D02*
X134925000Y-71675000D01*
X134925000Y-74075000D02*
X134925000Y-73575000D01*
X135750000Y-74250000D02*
X135100000Y-74250000D01*
X135600000Y-74250000D02*
X134925000Y-74925000D01*
X135750000Y-74250000D02*
X135600000Y-74250000D01*
X134925000Y-74925000D02*
X134925000Y-74075000D01*
X134925000Y-84075000D02*
X134925000Y-74925000D01*
X141925000Y-74250000D02*
X135750000Y-74250000D01*
X108425000Y-84075000D02*
X117750000Y-74750000D01*
X108425000Y-96750000D02*
X108425000Y-84075000D01*
X150500000Y-110750000D02*
X151250000Y-110000000D01*
X150250000Y-110750000D02*
X150500000Y-110750000D01*
X151250000Y-110000000D02*
X151250000Y-110750000D01*
X151250000Y-102825000D02*
X151250000Y-110000000D01*
X148500000Y-110750000D02*
X150250000Y-110750000D01*
X150250000Y-110750000D02*
X151250000Y-110750000D01*
X152000000Y-110750000D02*
X151250000Y-110000000D01*
X151250000Y-110750000D02*
X152000000Y-110750000D01*
X152000000Y-110750000D02*
X154675000Y-110750000D01*
X121425000Y-105500000D02*
X120250000Y-105500000D01*
X120250000Y-105500000D02*
X120250000Y-104250000D01*
X120250000Y-121500000D02*
X120250000Y-105500000D01*
%TD*%
D15*
%TO.N,GND*%
X137886138Y-55831059D02*
X138610388Y-56053867D01*
X139283738Y-56401409D01*
X139884901Y-56862699D01*
X140394872Y-57423149D01*
X140797540Y-58065057D01*
X141080170Y-58768122D01*
X141236190Y-59521513D01*
X141265000Y-60021169D01*
X141265001Y-61306272D01*
X141266298Y-61319440D01*
X141278413Y-61656049D01*
X141278863Y-61659632D01*
X141278707Y-61663242D01*
X141287438Y-61747410D01*
X141429908Y-62624862D01*
X141435629Y-62647269D01*
X141438736Y-62670183D01*
X141462234Y-62751474D01*
X141757835Y-63589830D01*
X141767433Y-63610870D01*
X141774549Y-63632871D01*
X141812059Y-63708691D01*
X141812071Y-63708717D01*
X141812077Y-63708725D01*
X142251461Y-64481476D01*
X142264630Y-64500478D01*
X142275533Y-64520879D01*
X142325894Y-64588881D01*
X142895182Y-65271616D01*
X142911512Y-65287990D01*
X142925851Y-65306132D01*
X142987458Y-65364142D01*
X143668651Y-65935276D01*
X143687625Y-65948502D01*
X143704950Y-65963817D01*
X143775855Y-66010000D01*
X144547423Y-66451478D01*
X144568436Y-66461133D01*
X144588200Y-66473139D01*
X144666163Y-66506036D01*
X145503715Y-66803905D01*
X145508021Y-66805017D01*
X145525587Y-66811299D01*
X145542755Y-66816572D01*
X147746053Y-67464098D01*
X149878711Y-68247813D01*
X151954729Y-69171140D01*
X153965017Y-70230036D01*
X155900673Y-71419812D01*
X157753239Y-72735268D01*
X159514561Y-74170616D01*
X161176886Y-75719540D01*
X162732884Y-77375207D01*
X164175738Y-79130360D01*
X165499106Y-80977290D01*
X166697162Y-82907865D01*
X167764630Y-84913581D01*
X168696830Y-86985643D01*
X169489658Y-89114933D01*
X170139624Y-91292080D01*
X170643873Y-93507517D01*
X171000188Y-95751501D01*
X171207004Y-98014175D01*
X171263407Y-100285560D01*
X171169153Y-102555700D01*
X170924654Y-104814605D01*
X170530986Y-107052337D01*
X169989882Y-109259064D01*
X169303718Y-111425077D01*
X168475512Y-113540851D01*
X167508906Y-115597090D01*
X166408155Y-117584736D01*
X165178083Y-119495080D01*
X163824120Y-121319689D01*
X162352204Y-123050560D01*
X160768823Y-124680064D01*
X159080926Y-126201055D01*
X157295931Y-127606843D01*
X155421695Y-128891239D01*
X153466456Y-130048599D01*
X151438820Y-131073832D01*
X149347702Y-131962428D01*
X147202263Y-132710493D01*
X145011999Y-133314718D01*
X142786467Y-133772464D01*
X140535523Y-134081705D01*
X138269022Y-134241089D01*
X135996953Y-134249911D01*
X133729262Y-134108134D01*
X131475992Y-133816385D01*
X129246983Y-133375938D01*
X127052076Y-132788738D01*
X124900917Y-132057366D01*
X122802939Y-131185029D01*
X120767401Y-130175574D01*
X118803237Y-129033435D01*
X116919085Y-127763634D01*
X115123223Y-126371749D01*
X113423564Y-124863914D01*
X111827572Y-123246751D01*
X110342263Y-121527368D01*
X108974171Y-119713331D01*
X107729304Y-117812605D01*
X106613144Y-115833557D01*
X105630601Y-113784897D01*
X104785986Y-111675609D01*
X104083026Y-109515005D01*
X103524797Y-107312547D01*
X103113763Y-105077935D01*
X103051083Y-104538072D01*
X103470000Y-104538072D01*
X103594482Y-104525812D01*
X103714180Y-104489502D01*
X103824494Y-104430537D01*
X103921185Y-104351185D01*
X104000537Y-104254494D01*
X104059502Y-104144180D01*
X104095812Y-104024482D01*
X104108072Y-103900000D01*
X104108072Y-102900000D01*
X104095812Y-102775518D01*
X104059502Y-102655820D01*
X104000537Y-102545506D01*
X103921185Y-102448815D01*
X103824494Y-102369463D01*
X103714180Y-102310498D01*
X103594482Y-102274188D01*
X103470000Y-102261928D01*
X102824164Y-102261928D01*
X102739845Y-100551658D01*
X102778607Y-98279882D01*
X102865678Y-97238072D01*
X103470000Y-97238072D01*
X103594482Y-97225812D01*
X103714180Y-97189502D01*
X103824494Y-97130537D01*
X103921185Y-97051185D01*
X104000537Y-96954494D01*
X104059502Y-96844180D01*
X104095812Y-96724482D01*
X104108072Y-96600000D01*
X104108072Y-95600000D01*
X104095812Y-95475518D01*
X104059502Y-95355820D01*
X104000537Y-95245506D01*
X103921185Y-95148815D01*
X103824494Y-95069463D01*
X103714180Y-95010498D01*
X103594482Y-94974188D01*
X103470000Y-94961928D01*
X103126785Y-94961928D01*
X103306719Y-93768999D01*
X103793749Y-91549706D01*
X104426782Y-89367594D01*
X105203052Y-87232203D01*
X106119133Y-85152960D01*
X107170992Y-83139015D01*
X108354015Y-81199200D01*
X109663000Y-79342048D01*
X111092189Y-77575730D01*
X112635284Y-75908027D01*
X114285522Y-74346247D01*
X116035631Y-72897273D01*
X117877934Y-71567463D01*
X119804304Y-70362683D01*
X121806298Y-69288211D01*
X123580686Y-68482473D01*
X121579160Y-70484000D01*
X120549893Y-70484000D01*
X120499999Y-70479086D01*
X120450105Y-70484000D01*
X120450098Y-70484000D01*
X120320177Y-70496796D01*
X120300828Y-70498702D01*
X120248193Y-70514669D01*
X120109313Y-70556798D01*
X119932810Y-70651140D01*
X119778104Y-70778104D01*
X119746293Y-70816866D01*
X118241872Y-72321288D01*
X118203104Y-72353104D01*
X118076140Y-72507810D01*
X117981798Y-72684314D01*
X117930596Y-72853104D01*
X117923702Y-72875830D01*
X117904085Y-73075000D01*
X117909000Y-73124902D01*
X117909000Y-73734000D01*
X117799893Y-73734000D01*
X117749999Y-73729086D01*
X117700105Y-73734000D01*
X117700098Y-73734000D01*
X117570177Y-73746796D01*
X117550828Y-73748702D01*
X117509474Y-73761247D01*
X117359313Y-73806798D01*
X117182810Y-73901140D01*
X117028104Y-74028104D01*
X116996292Y-74066867D01*
X107741868Y-83321292D01*
X107703105Y-83353104D01*
X107576141Y-83507810D01*
X107481799Y-83684313D01*
X107423702Y-83875830D01*
X107404085Y-84075000D01*
X107409001Y-84124912D01*
X107409000Y-96291823D01*
X107403031Y-96311500D01*
X107386928Y-96475000D01*
X107386928Y-97025000D01*
X107403031Y-97188500D01*
X107450722Y-97345716D01*
X107528169Y-97490608D01*
X107632394Y-97617606D01*
X107759392Y-97721831D01*
X107904284Y-97799278D01*
X108061500Y-97846969D01*
X108225000Y-97863072D01*
X108625000Y-97863072D01*
X108788500Y-97846969D01*
X108945716Y-97799278D01*
X109090608Y-97721831D01*
X109217606Y-97617606D01*
X109250000Y-97578134D01*
X109282394Y-97617606D01*
X109409392Y-97721831D01*
X109554284Y-97799278D01*
X109711500Y-97846969D01*
X109875000Y-97863072D01*
X110275000Y-97863072D01*
X110438500Y-97846969D01*
X110595716Y-97799278D01*
X110657974Y-97766000D01*
X110802541Y-97766000D01*
X110898061Y-97785000D01*
X111101939Y-97785000D01*
X111301898Y-97745226D01*
X111490256Y-97667205D01*
X111659774Y-97553937D01*
X111803937Y-97409774D01*
X111917205Y-97240256D01*
X111995226Y-97051898D01*
X112035000Y-96851939D01*
X112035000Y-96648061D01*
X111995226Y-96448102D01*
X111917205Y-96259744D01*
X111803937Y-96090226D01*
X111659774Y-95946063D01*
X111490256Y-95832795D01*
X111301898Y-95754774D01*
X111101939Y-95715000D01*
X110898061Y-95715000D01*
X110802541Y-95734000D01*
X110657974Y-95734000D01*
X110595716Y-95700722D01*
X110438500Y-95653031D01*
X110275000Y-95636928D01*
X109875000Y-95636928D01*
X109711500Y-95653031D01*
X109554284Y-95700722D01*
X109441000Y-95761274D01*
X109441000Y-84495840D01*
X118170841Y-75766000D01*
X118342026Y-75766000D01*
X118404284Y-75799278D01*
X118561500Y-75846969D01*
X118725000Y-75863072D01*
X119125000Y-75863072D01*
X119288500Y-75846969D01*
X119445716Y-75799278D01*
X119590608Y-75721831D01*
X119717606Y-75617606D01*
X119750000Y-75578134D01*
X119782394Y-75617606D01*
X119909392Y-75721831D01*
X120054284Y-75799278D01*
X120211500Y-75846969D01*
X120375000Y-75863072D01*
X120775000Y-75863072D01*
X120938500Y-75846969D01*
X121095716Y-75799278D01*
X121157974Y-75766000D01*
X121302541Y-75766000D01*
X121398061Y-75785000D01*
X121601939Y-75785000D01*
X121801898Y-75745226D01*
X121990256Y-75667205D01*
X122159774Y-75553937D01*
X122303937Y-75409774D01*
X122417205Y-75240256D01*
X122495226Y-75051898D01*
X122535000Y-74851939D01*
X122535000Y-74648061D01*
X122495226Y-74448102D01*
X122417205Y-74259744D01*
X122303937Y-74090226D01*
X122159774Y-73946063D01*
X121990256Y-73832795D01*
X121801898Y-73754774D01*
X121601939Y-73715000D01*
X121398061Y-73715000D01*
X121302541Y-73734000D01*
X121157974Y-73734000D01*
X121095716Y-73700722D01*
X120938500Y-73653031D01*
X120775000Y-73636928D01*
X120375000Y-73636928D01*
X120211500Y-73653031D01*
X120054284Y-73700722D01*
X119941000Y-73761274D01*
X119941000Y-73495840D01*
X120920841Y-72516000D01*
X121950098Y-72516000D01*
X122000000Y-72520915D01*
X122049902Y-72516000D01*
X122199171Y-72501298D01*
X122390687Y-72443202D01*
X122567190Y-72348860D01*
X122721896Y-72221896D01*
X122753712Y-72183128D01*
X123623006Y-71313835D01*
X123604670Y-71500000D01*
X123645892Y-71918533D01*
X123767974Y-72320982D01*
X123966223Y-72691881D01*
X124233023Y-73016977D01*
X124558119Y-73283777D01*
X124929018Y-73482026D01*
X125331467Y-73604108D01*
X125645118Y-73635000D01*
X126234001Y-73635000D01*
X126234000Y-86329159D01*
X114579160Y-97984000D01*
X107302925Y-97984000D01*
X107305812Y-97974482D01*
X107318072Y-97850000D01*
X107318072Y-97150000D01*
X107305812Y-97025518D01*
X107269502Y-96905820D01*
X107210537Y-96795506D01*
X107131185Y-96698815D01*
X107034494Y-96619463D01*
X106924180Y-96560498D01*
X106804482Y-96524188D01*
X106680000Y-96511928D01*
X106318072Y-96511928D01*
X106318072Y-95600000D01*
X106305812Y-95475518D01*
X106269502Y-95355820D01*
X106210537Y-95245506D01*
X106131185Y-95148815D01*
X106034494Y-95069463D01*
X105924180Y-95010498D01*
X105804482Y-94974188D01*
X105680000Y-94961928D01*
X104880000Y-94961928D01*
X104755518Y-94974188D01*
X104635820Y-95010498D01*
X104525506Y-95069463D01*
X104428815Y-95148815D01*
X104349463Y-95245506D01*
X104290498Y-95355820D01*
X104254188Y-95475518D01*
X104241928Y-95600000D01*
X104241928Y-96600000D01*
X104254188Y-96724482D01*
X104290498Y-96844180D01*
X104349463Y-96954494D01*
X104428815Y-97051185D01*
X104525506Y-97130537D01*
X104542928Y-97139849D01*
X104541928Y-97150000D01*
X104541928Y-97229662D01*
X104486483Y-97206696D01*
X104276863Y-97165000D01*
X104063137Y-97165000D01*
X103853517Y-97206696D01*
X103656060Y-97288485D01*
X103478353Y-97407225D01*
X103327225Y-97558353D01*
X103208485Y-97736060D01*
X103126696Y-97933517D01*
X103085000Y-98143137D01*
X103085000Y-98356863D01*
X103126696Y-98566483D01*
X103208485Y-98763940D01*
X103327225Y-98941647D01*
X103478353Y-99092775D01*
X103656060Y-99211515D01*
X103853517Y-99293304D01*
X104063137Y-99335000D01*
X104276863Y-99335000D01*
X104486483Y-99293304D01*
X104541928Y-99270338D01*
X104541928Y-99350000D01*
X104554188Y-99474482D01*
X104590498Y-99594180D01*
X104649463Y-99704494D01*
X104728815Y-99801185D01*
X104825506Y-99880537D01*
X104935820Y-99939502D01*
X105055518Y-99975812D01*
X105180000Y-99988072D01*
X105687229Y-99988072D01*
X105730829Y-100001298D01*
X105880098Y-100016000D01*
X114950098Y-100016000D01*
X115000000Y-100020915D01*
X115049902Y-100016000D01*
X115199171Y-100001298D01*
X115390687Y-99943202D01*
X115567190Y-99848860D01*
X115721896Y-99721896D01*
X115753712Y-99683128D01*
X127933133Y-87503708D01*
X127971896Y-87471896D01*
X128098860Y-87317190D01*
X128193202Y-87140687D01*
X128251298Y-86949171D01*
X128265614Y-86803820D01*
X128270915Y-86750001D01*
X128266000Y-86700099D01*
X128266000Y-73635000D01*
X128854882Y-73635000D01*
X129168533Y-73604108D01*
X129570982Y-73482026D01*
X129941881Y-73283777D01*
X130266977Y-73016977D01*
X130533777Y-72691881D01*
X130732026Y-72320982D01*
X130854108Y-71918533D01*
X130895330Y-71500000D01*
X130854108Y-71081467D01*
X130732026Y-70679018D01*
X130533777Y-70308119D01*
X130266977Y-69983023D01*
X130002534Y-69766000D01*
X131579160Y-69766000D01*
X133909001Y-72095842D01*
X133909000Y-73525098D01*
X133904085Y-73575000D01*
X133909000Y-73624901D01*
X133909000Y-74025098D01*
X133904085Y-74075000D01*
X133909000Y-74124901D01*
X133909000Y-74875098D01*
X133904085Y-74925000D01*
X133909001Y-74974912D01*
X133909000Y-84025098D01*
X133909000Y-84025099D01*
X133909001Y-89404158D01*
X133654160Y-89659000D01*
X131374902Y-89659000D01*
X131325000Y-89654085D01*
X131125829Y-89673702D01*
X130934312Y-89731798D01*
X130908343Y-89745679D01*
X130757810Y-89826140D01*
X130603104Y-89953104D01*
X130571293Y-89991866D01*
X122316868Y-98246292D01*
X122278105Y-98278104D01*
X122151141Y-98432810D01*
X122093147Y-98541310D01*
X122056799Y-98609313D01*
X121998702Y-98800830D01*
X121979085Y-99000000D01*
X121984001Y-99049911D01*
X121984000Y-102079159D01*
X121829160Y-102234000D01*
X121049893Y-102234000D01*
X120999999Y-102229086D01*
X120950105Y-102234000D01*
X120299902Y-102234000D01*
X120250000Y-102229085D01*
X120200098Y-102234000D01*
X119549902Y-102234000D01*
X119500000Y-102229085D01*
X119450098Y-102234000D01*
X113920841Y-102234000D01*
X113003712Y-101316872D01*
X112971896Y-101278104D01*
X112817190Y-101151140D01*
X112640687Y-101056798D01*
X112449171Y-100998702D01*
X112299902Y-100984000D01*
X112250000Y-100979085D01*
X112200098Y-100984000D01*
X110299893Y-100984000D01*
X110249999Y-100979086D01*
X110200105Y-100984000D01*
X109549902Y-100984000D01*
X109500000Y-100979085D01*
X109450098Y-100984000D01*
X108799902Y-100984000D01*
X108750000Y-100979085D01*
X108700098Y-100984000D01*
X105880098Y-100984000D01*
X105730829Y-100998702D01*
X105687229Y-101011928D01*
X105228901Y-101011928D01*
X105213304Y-100933517D01*
X105131515Y-100736060D01*
X105012775Y-100558353D01*
X104861647Y-100407225D01*
X104683940Y-100288485D01*
X104486483Y-100206696D01*
X104276863Y-100165000D01*
X104063137Y-100165000D01*
X103853517Y-100206696D01*
X103656060Y-100288485D01*
X103478353Y-100407225D01*
X103327225Y-100558353D01*
X103208485Y-100736060D01*
X103126696Y-100933517D01*
X103085000Y-101143137D01*
X103085000Y-101356863D01*
X103126696Y-101566483D01*
X103208485Y-101763940D01*
X103327225Y-101941647D01*
X103478353Y-102092775D01*
X103656060Y-102211515D01*
X103853517Y-102293304D01*
X104063137Y-102335000D01*
X104276863Y-102335000D01*
X104486483Y-102293304D01*
X104541928Y-102270338D01*
X104541928Y-102350000D01*
X104542928Y-102360151D01*
X104525506Y-102369463D01*
X104428815Y-102448815D01*
X104349463Y-102545506D01*
X104290498Y-102655820D01*
X104254188Y-102775518D01*
X104241928Y-102900000D01*
X104241928Y-103900000D01*
X104254188Y-104024482D01*
X104290498Y-104144180D01*
X104349463Y-104254494D01*
X104428815Y-104351185D01*
X104525506Y-104430537D01*
X104635820Y-104489502D01*
X104755518Y-104525812D01*
X104880000Y-104538072D01*
X105680000Y-104538072D01*
X105804482Y-104525812D01*
X105924180Y-104489502D01*
X106034494Y-104430537D01*
X106131185Y-104351185D01*
X106210537Y-104254494D01*
X106269502Y-104144180D01*
X106305812Y-104024482D01*
X106318072Y-103900000D01*
X106318072Y-103016000D01*
X108329160Y-103016000D01*
X108484001Y-103170841D01*
X108484000Y-104329159D01*
X105316868Y-107496292D01*
X105278105Y-107528104D01*
X105151141Y-107682810D01*
X105095275Y-107787329D01*
X105056799Y-107859313D01*
X104998702Y-108050830D01*
X104979085Y-108250000D01*
X104984001Y-108299911D01*
X104984000Y-111200098D01*
X104979085Y-111250000D01*
X104984000Y-111299901D01*
X104998702Y-111449170D01*
X105056798Y-111640686D01*
X105151140Y-111817190D01*
X105278104Y-111971896D01*
X105316872Y-112003712D01*
X105996292Y-112683133D01*
X106028104Y-112721896D01*
X106182810Y-112848860D01*
X106359313Y-112943202D01*
X106550829Y-113001298D01*
X106700098Y-113016000D01*
X106700105Y-113016000D01*
X106749999Y-113020914D01*
X106799893Y-113016000D01*
X107342026Y-113016000D01*
X107404284Y-113049278D01*
X107561500Y-113096969D01*
X107725000Y-113113072D01*
X108125000Y-113113072D01*
X108288500Y-113096969D01*
X108445716Y-113049278D01*
X108590608Y-112971831D01*
X108717606Y-112867606D01*
X108750000Y-112828134D01*
X108782394Y-112867606D01*
X108909392Y-112971831D01*
X109054284Y-113049278D01*
X109211500Y-113096969D01*
X109375000Y-113113072D01*
X109775000Y-113113072D01*
X109938500Y-113096969D01*
X110095716Y-113049278D01*
X110157974Y-113016000D01*
X110302541Y-113016000D01*
X110398061Y-113035000D01*
X110601939Y-113035000D01*
X110801898Y-112995226D01*
X110990256Y-112917205D01*
X111159774Y-112803937D01*
X111303937Y-112659774D01*
X111417205Y-112490256D01*
X111495226Y-112301898D01*
X111535000Y-112101939D01*
X111535000Y-111898061D01*
X111495226Y-111698102D01*
X111417205Y-111509744D01*
X111303937Y-111340226D01*
X111159774Y-111196063D01*
X110990256Y-111082795D01*
X110801898Y-111004774D01*
X110601939Y-110965000D01*
X110398061Y-110965000D01*
X110302541Y-110984000D01*
X110157974Y-110984000D01*
X110095716Y-110950722D01*
X109938500Y-110903031D01*
X109775000Y-110886928D01*
X109375000Y-110886928D01*
X109211500Y-110903031D01*
X109054284Y-110950722D01*
X108909392Y-111028169D01*
X108782394Y-111132394D01*
X108750000Y-111171866D01*
X108717606Y-111132394D01*
X108590608Y-111028169D01*
X108445716Y-110950722D01*
X108288500Y-110903031D01*
X108125000Y-110886928D01*
X107725000Y-110886928D01*
X107561500Y-110903031D01*
X107404284Y-110950722D01*
X107342026Y-110984000D01*
X107170841Y-110984000D01*
X107016000Y-110829160D01*
X107016000Y-108670840D01*
X110183133Y-105503708D01*
X110221896Y-105471896D01*
X110348860Y-105317190D01*
X110443202Y-105140687D01*
X110490477Y-104984844D01*
X110501298Y-104949172D01*
X110512164Y-104838849D01*
X110516000Y-104799902D01*
X110516000Y-104799895D01*
X110520914Y-104750001D01*
X110516000Y-104700107D01*
X110516000Y-103170840D01*
X110670841Y-103016000D01*
X111829160Y-103016000D01*
X112746292Y-103933133D01*
X112778104Y-103971896D01*
X112932810Y-104098860D01*
X113109313Y-104193202D01*
X113284584Y-104246370D01*
X113300829Y-104251298D01*
X113500000Y-104270915D01*
X113549902Y-104266000D01*
X119079160Y-104266000D01*
X119234001Y-104420841D01*
X119234000Y-105450097D01*
X119229085Y-105500000D01*
X119234001Y-105549912D01*
X119234000Y-121450098D01*
X119229085Y-121500000D01*
X119246490Y-121676710D01*
X119248702Y-121699170D01*
X119306798Y-121890686D01*
X119401140Y-122067190D01*
X119528104Y-122221896D01*
X119566872Y-122253712D01*
X128246292Y-130933133D01*
X128278104Y-130971896D01*
X128378071Y-131053937D01*
X128432810Y-131098860D01*
X128609313Y-131193202D01*
X128800829Y-131251298D01*
X129000000Y-131270915D01*
X129049902Y-131266000D01*
X131592026Y-131266000D01*
X131654284Y-131299278D01*
X131811500Y-131346969D01*
X131975000Y-131363072D01*
X132375000Y-131363072D01*
X132538500Y-131346969D01*
X132695716Y-131299278D01*
X132840608Y-131221831D01*
X132967606Y-131117606D01*
X133000000Y-131078134D01*
X133032394Y-131117606D01*
X133159392Y-131221831D01*
X133304284Y-131299278D01*
X133461500Y-131346969D01*
X133625000Y-131363072D01*
X134025000Y-131363072D01*
X134188500Y-131346969D01*
X134345716Y-131299278D01*
X134407974Y-131266000D01*
X134552541Y-131266000D01*
X134648061Y-131285000D01*
X134851939Y-131285000D01*
X135051898Y-131245226D01*
X135240256Y-131167205D01*
X135409774Y-131053937D01*
X135553937Y-130909774D01*
X135667205Y-130740256D01*
X135745226Y-130551898D01*
X135785000Y-130351939D01*
X135785000Y-130148061D01*
X135745226Y-129948102D01*
X135667205Y-129759744D01*
X135553937Y-129590226D01*
X135409774Y-129446063D01*
X135240256Y-129332795D01*
X135051898Y-129254774D01*
X134851939Y-129215000D01*
X134648061Y-129215000D01*
X134552541Y-129234000D01*
X134407974Y-129234000D01*
X134345716Y-129200722D01*
X134188500Y-129153031D01*
X134025000Y-129136928D01*
X133625000Y-129136928D01*
X133461500Y-129153031D01*
X133304284Y-129200722D01*
X133159392Y-129278169D01*
X133032394Y-129382394D01*
X133000000Y-129421866D01*
X132967606Y-129382394D01*
X132840608Y-129278169D01*
X132695716Y-129200722D01*
X132538500Y-129153031D01*
X132375000Y-129136928D01*
X131975000Y-129136928D01*
X131811500Y-129153031D01*
X131654284Y-129200722D01*
X131592026Y-129234000D01*
X129420841Y-129234000D01*
X121266000Y-121079160D01*
X121266000Y-106613072D01*
X121625000Y-106613072D01*
X121788500Y-106596969D01*
X121945716Y-106549278D01*
X122090608Y-106471831D01*
X122217606Y-106367606D01*
X122250000Y-106328134D01*
X122282394Y-106367606D01*
X122409392Y-106471831D01*
X122554284Y-106549278D01*
X122711500Y-106596969D01*
X122875000Y-106613072D01*
X123275000Y-106613072D01*
X123438500Y-106596969D01*
X123595716Y-106549278D01*
X123657974Y-106516000D01*
X126200098Y-106516000D01*
X126250000Y-106520915D01*
X126299902Y-106516000D01*
X126449171Y-106501298D01*
X126640687Y-106443202D01*
X126817190Y-106348860D01*
X126971896Y-106221896D01*
X127003712Y-106183128D01*
X129078797Y-104108044D01*
X129159774Y-104053937D01*
X129303937Y-103909774D01*
X129417205Y-103740256D01*
X129495226Y-103551898D01*
X129535000Y-103351939D01*
X129535000Y-103148061D01*
X129495226Y-102948102D01*
X129417205Y-102759744D01*
X129303937Y-102590226D01*
X129159774Y-102446063D01*
X128990256Y-102332795D01*
X128801898Y-102254774D01*
X128601939Y-102215000D01*
X128398061Y-102215000D01*
X128198102Y-102254774D01*
X128009744Y-102332795D01*
X127840226Y-102446063D01*
X127696063Y-102590226D01*
X127641956Y-102671203D01*
X125829160Y-104484000D01*
X123657974Y-104484000D01*
X123595716Y-104450722D01*
X123438500Y-104403031D01*
X123275000Y-104386928D01*
X122875000Y-104386928D01*
X122711500Y-104403031D01*
X122554284Y-104450722D01*
X122409392Y-104528169D01*
X122282394Y-104632394D01*
X122250000Y-104671866D01*
X122217606Y-104632394D01*
X122090608Y-104528169D01*
X121945716Y-104450722D01*
X121788500Y-104403031D01*
X121625000Y-104386928D01*
X121299912Y-104386928D01*
X121420841Y-104266000D01*
X122200098Y-104266000D01*
X122250000Y-104270915D01*
X122299902Y-104266000D01*
X122449171Y-104251298D01*
X122640687Y-104193202D01*
X122817190Y-104098860D01*
X122971896Y-103971896D01*
X123003712Y-103933128D01*
X123683133Y-103253708D01*
X123721896Y-103221896D01*
X123848860Y-103067190D01*
X123943202Y-102890687D01*
X124001016Y-102700099D01*
X124001298Y-102699171D01*
X124008229Y-102628802D01*
X124016000Y-102549901D01*
X124016000Y-102549895D01*
X124020914Y-102500001D01*
X124016000Y-102450107D01*
X124016000Y-99420840D01*
X131745841Y-91691000D01*
X133504160Y-91691000D01*
X133909000Y-92095841D01*
X133909001Y-93950089D01*
X133909000Y-93950099D01*
X133909001Y-97125089D01*
X133904085Y-97175000D01*
X133923702Y-97374170D01*
X133971865Y-97532938D01*
X133981799Y-97565687D01*
X134076141Y-97742190D01*
X134203105Y-97896896D01*
X134241868Y-97928708D01*
X147746292Y-111433133D01*
X147778104Y-111471896D01*
X147932810Y-111598860D01*
X148109313Y-111693202D01*
X148294513Y-111749382D01*
X148300829Y-111751298D01*
X148499999Y-111770915D01*
X148549901Y-111766000D01*
X150450098Y-111766000D01*
X150500000Y-111770915D01*
X150549902Y-111766000D01*
X151200098Y-111766000D01*
X151250000Y-111770915D01*
X151299902Y-111766000D01*
X151950105Y-111766000D01*
X151999999Y-111770914D01*
X152049893Y-111766000D01*
X154092026Y-111766000D01*
X154154284Y-111799278D01*
X154311500Y-111846969D01*
X154475000Y-111863072D01*
X154875000Y-111863072D01*
X155038500Y-111846969D01*
X155195716Y-111799278D01*
X155340608Y-111721831D01*
X155467606Y-111617606D01*
X155500000Y-111578134D01*
X155532394Y-111617606D01*
X155659392Y-111721831D01*
X155804284Y-111799278D01*
X155961500Y-111846969D01*
X156125000Y-111863072D01*
X156525000Y-111863072D01*
X156688500Y-111846969D01*
X156845716Y-111799278D01*
X156907974Y-111766000D01*
X157052541Y-111766000D01*
X157148061Y-111785000D01*
X157351939Y-111785000D01*
X157551898Y-111745226D01*
X157740256Y-111667205D01*
X157909774Y-111553937D01*
X158053937Y-111409774D01*
X158167205Y-111240256D01*
X158245226Y-111051898D01*
X158285000Y-110851939D01*
X158285000Y-110648061D01*
X158245226Y-110448102D01*
X158167205Y-110259744D01*
X158053937Y-110090226D01*
X157909774Y-109946063D01*
X157740256Y-109832795D01*
X157551898Y-109754774D01*
X157351939Y-109715000D01*
X157148061Y-109715000D01*
X157052541Y-109734000D01*
X156907974Y-109734000D01*
X156845716Y-109700722D01*
X156688500Y-109653031D01*
X156525000Y-109636928D01*
X156125000Y-109636928D01*
X155961500Y-109653031D01*
X155804284Y-109700722D01*
X155659392Y-109778169D01*
X155532394Y-109882394D01*
X155500000Y-109921866D01*
X155467606Y-109882394D01*
X155340608Y-109778169D01*
X155195716Y-109700722D01*
X155038500Y-109653031D01*
X154875000Y-109636928D01*
X154475000Y-109636928D01*
X154311500Y-109653031D01*
X154154284Y-109700722D01*
X154092026Y-109734000D01*
X152420841Y-109734000D01*
X152266000Y-109579160D01*
X152266000Y-103407974D01*
X152299278Y-103345716D01*
X152346969Y-103188500D01*
X152363072Y-103025000D01*
X152363072Y-102625000D01*
X152346969Y-102461500D01*
X152299278Y-102304284D01*
X152221831Y-102159392D01*
X152117606Y-102032394D01*
X152078134Y-102000000D01*
X152117606Y-101967606D01*
X152221831Y-101840608D01*
X152299278Y-101695716D01*
X152346969Y-101538500D01*
X152363072Y-101375000D01*
X152363072Y-100975000D01*
X152346969Y-100811500D01*
X152299278Y-100654284D01*
X152266000Y-100592026D01*
X152266000Y-99299893D01*
X152270914Y-99249999D01*
X152266000Y-99200105D01*
X152266000Y-99200098D01*
X152251298Y-99050829D01*
X152193202Y-98859313D01*
X152098860Y-98682810D01*
X151971896Y-98528104D01*
X151933133Y-98496292D01*
X149253712Y-95816872D01*
X149221896Y-95778104D01*
X149067190Y-95651140D01*
X148890687Y-95556798D01*
X148699171Y-95498702D01*
X148549902Y-95484000D01*
X148500000Y-95479085D01*
X148450098Y-95484000D01*
X140420841Y-95484000D01*
X138358046Y-93421206D01*
X138303937Y-93340226D01*
X138159774Y-93196063D01*
X137990256Y-93082795D01*
X137801898Y-93004774D01*
X137601939Y-92965000D01*
X137398061Y-92965000D01*
X137198102Y-93004774D01*
X137009744Y-93082795D01*
X136840226Y-93196063D01*
X136696063Y-93340226D01*
X136582795Y-93509744D01*
X136504774Y-93698102D01*
X136465000Y-93898061D01*
X136465000Y-94101939D01*
X136504774Y-94301898D01*
X136582795Y-94490256D01*
X136696063Y-94659774D01*
X136840226Y-94803937D01*
X136921206Y-94858046D01*
X139246292Y-97183133D01*
X139278104Y-97221896D01*
X139432810Y-97348860D01*
X139542004Y-97407225D01*
X139609312Y-97443202D01*
X139800829Y-97501298D01*
X140000000Y-97520915D01*
X140049902Y-97516000D01*
X148079160Y-97516000D01*
X150234001Y-99670842D01*
X150234000Y-100592025D01*
X150200722Y-100654284D01*
X150153031Y-100811500D01*
X150136928Y-100975000D01*
X150136928Y-101375000D01*
X150153031Y-101538500D01*
X150200722Y-101695716D01*
X150278169Y-101840608D01*
X150382394Y-101967606D01*
X150421866Y-102000000D01*
X150382394Y-102032394D01*
X150278169Y-102159392D01*
X150200722Y-102304284D01*
X150153031Y-102461500D01*
X150136928Y-102625000D01*
X150136928Y-103025000D01*
X150153031Y-103188500D01*
X150200722Y-103345716D01*
X150234000Y-103407974D01*
X150234001Y-109579158D01*
X150079160Y-109734000D01*
X148920841Y-109734000D01*
X135941000Y-96754160D01*
X135941000Y-91724902D01*
X135945915Y-91675000D01*
X135941000Y-91625098D01*
X135941000Y-90724901D01*
X135945915Y-90675000D01*
X135941000Y-90625098D01*
X135941000Y-89874902D01*
X135945915Y-89825000D01*
X135941000Y-89775098D01*
X135941000Y-75345840D01*
X136020840Y-75266000D01*
X141342026Y-75266000D01*
X141404284Y-75299278D01*
X141561500Y-75346969D01*
X141725000Y-75363072D01*
X142125000Y-75363072D01*
X142288500Y-75346969D01*
X142445716Y-75299278D01*
X142590608Y-75221831D01*
X142717606Y-75117606D01*
X142750000Y-75078134D01*
X142782394Y-75117606D01*
X142909392Y-75221831D01*
X143054284Y-75299278D01*
X143211500Y-75346969D01*
X143375000Y-75363072D01*
X143775000Y-75363072D01*
X143938500Y-75346969D01*
X144095716Y-75299278D01*
X144157974Y-75266000D01*
X144302541Y-75266000D01*
X144398061Y-75285000D01*
X144601939Y-75285000D01*
X144801898Y-75245226D01*
X144990256Y-75167205D01*
X145159774Y-75053937D01*
X145303937Y-74909774D01*
X145417205Y-74740256D01*
X145495226Y-74551898D01*
X145535000Y-74351939D01*
X145535000Y-74148061D01*
X145495226Y-73948102D01*
X145417205Y-73759744D01*
X145303937Y-73590226D01*
X145159774Y-73446063D01*
X144990256Y-73332795D01*
X144801898Y-73254774D01*
X144601939Y-73215000D01*
X144398061Y-73215000D01*
X144302541Y-73234000D01*
X144157974Y-73234000D01*
X144095716Y-73200722D01*
X143938500Y-73153031D01*
X143775000Y-73136928D01*
X143375000Y-73136928D01*
X143211500Y-73153031D01*
X143054284Y-73200722D01*
X142909392Y-73278169D01*
X142782394Y-73382394D01*
X142750000Y-73421866D01*
X142717606Y-73382394D01*
X142590608Y-73278169D01*
X142445716Y-73200722D01*
X142288500Y-73153031D01*
X142125000Y-73136928D01*
X141725000Y-73136928D01*
X141561500Y-73153031D01*
X141404284Y-73200722D01*
X141342026Y-73234000D01*
X136020840Y-73234000D01*
X135941000Y-73154160D01*
X135941000Y-71724902D01*
X135945915Y-71675000D01*
X135926298Y-71475829D01*
X135868202Y-71284313D01*
X135773860Y-71107810D01*
X135752241Y-71081467D01*
X135646896Y-70953104D01*
X135608133Y-70921292D01*
X132753712Y-68066872D01*
X132721896Y-68028104D01*
X132567190Y-67901140D01*
X132390687Y-67806798D01*
X132199171Y-67748702D01*
X132049902Y-67734000D01*
X132000000Y-67729085D01*
X131950098Y-67734000D01*
X125508757Y-67734000D01*
X126001593Y-67548534D01*
X128186747Y-66887862D01*
X128436510Y-66822338D01*
X128452528Y-66817563D01*
X128459226Y-66815987D01*
X128804024Y-66713600D01*
X128807380Y-66712269D01*
X128810916Y-66711517D01*
X128890228Y-66682021D01*
X129704199Y-66324712D01*
X129724464Y-66313571D01*
X129745874Y-66304834D01*
X129818696Y-66261767D01*
X129818710Y-66261759D01*
X129818715Y-66261755D01*
X130556543Y-65765956D01*
X130574511Y-65751406D01*
X130594041Y-65739012D01*
X130658097Y-65683720D01*
X131296470Y-65065093D01*
X131311582Y-65047586D01*
X131328603Y-65031934D01*
X131381840Y-64966192D01*
X131381856Y-64966173D01*
X131381861Y-64966165D01*
X131900590Y-64244277D01*
X131912363Y-64224370D01*
X131926343Y-64205952D01*
X131967109Y-64131800D01*
X132349809Y-63329453D01*
X132357869Y-63307780D01*
X132368369Y-63287173D01*
X132395359Y-63206974D01*
X132629927Y-62349538D01*
X132634022Y-62326778D01*
X132640706Y-62304640D01*
X132653067Y-62220928D01*
X132731782Y-61338949D01*
X132735000Y-61306272D01*
X132735000Y-60032731D01*
X132762021Y-59729963D01*
X134258266Y-59729963D01*
X134258266Y-60270037D01*
X134363629Y-60799734D01*
X134570307Y-61298698D01*
X134870356Y-61747753D01*
X135252247Y-62129644D01*
X135701302Y-62429693D01*
X136200266Y-62636371D01*
X136729963Y-62741734D01*
X137270037Y-62741734D01*
X137799734Y-62636371D01*
X138298698Y-62429693D01*
X138747753Y-62129644D01*
X139129644Y-61747753D01*
X139429693Y-61298698D01*
X139636371Y-60799734D01*
X139741734Y-60270037D01*
X139741734Y-59729963D01*
X139636371Y-59200266D01*
X139429693Y-58701302D01*
X139129644Y-58252247D01*
X138747753Y-57870356D01*
X138298698Y-57570307D01*
X137799734Y-57363629D01*
X137270037Y-57258266D01*
X136729963Y-57258266D01*
X136200266Y-57363629D01*
X135701302Y-57570307D01*
X135252247Y-57870356D01*
X134870356Y-58252247D01*
X134570307Y-58701302D01*
X134363629Y-59200266D01*
X134258266Y-59729963D01*
X132762021Y-59729963D01*
X132805281Y-59245253D01*
X133005231Y-58514357D01*
X133331450Y-57830425D01*
X133773626Y-57215072D01*
X134317789Y-56687741D01*
X134946726Y-56265114D01*
X135640570Y-55960537D01*
X136377386Y-55783643D01*
X137133871Y-55740024D01*
X137886138Y-55831059D01*
%TA.AperFunction,Conductor*%
D16*
G36*
X137886138Y-55831059D02*
G01*
X138610388Y-56053867D01*
X139283738Y-56401409D01*
X139884901Y-56862699D01*
X140394872Y-57423149D01*
X140797540Y-58065057D01*
X141080170Y-58768122D01*
X141236190Y-59521513D01*
X141265000Y-60021169D01*
X141265001Y-61306272D01*
X141266298Y-61319440D01*
X141278413Y-61656049D01*
X141278863Y-61659632D01*
X141278707Y-61663242D01*
X141287438Y-61747410D01*
X141429908Y-62624862D01*
X141435629Y-62647269D01*
X141438736Y-62670183D01*
X141462234Y-62751474D01*
X141757835Y-63589830D01*
X141767433Y-63610870D01*
X141774549Y-63632871D01*
X141812059Y-63708691D01*
X141812071Y-63708717D01*
X141812077Y-63708725D01*
X142251461Y-64481476D01*
X142264630Y-64500478D01*
X142275533Y-64520879D01*
X142325894Y-64588881D01*
X142895182Y-65271616D01*
X142911512Y-65287990D01*
X142925851Y-65306132D01*
X142987458Y-65364142D01*
X143668651Y-65935276D01*
X143687625Y-65948502D01*
X143704950Y-65963817D01*
X143775855Y-66010000D01*
X144547423Y-66451478D01*
X144568436Y-66461133D01*
X144588200Y-66473139D01*
X144666163Y-66506036D01*
X145503715Y-66803905D01*
X145508021Y-66805017D01*
X145525587Y-66811299D01*
X145542755Y-66816572D01*
X147746053Y-67464098D01*
X149878711Y-68247813D01*
X151954729Y-69171140D01*
X153965017Y-70230036D01*
X155900673Y-71419812D01*
X157753239Y-72735268D01*
X159514561Y-74170616D01*
X161176886Y-75719540D01*
X162732884Y-77375207D01*
X164175738Y-79130360D01*
X165499106Y-80977290D01*
X166697162Y-82907865D01*
X167764630Y-84913581D01*
X168696830Y-86985643D01*
X169489658Y-89114933D01*
X170139624Y-91292080D01*
X170643873Y-93507517D01*
X171000188Y-95751501D01*
X171207004Y-98014175D01*
X171263407Y-100285560D01*
X171169153Y-102555700D01*
X170924654Y-104814605D01*
X170530986Y-107052337D01*
X169989882Y-109259064D01*
X169303718Y-111425077D01*
X168475512Y-113540851D01*
X167508906Y-115597090D01*
X166408155Y-117584736D01*
X165178083Y-119495080D01*
X163824120Y-121319689D01*
X162352204Y-123050560D01*
X160768823Y-124680064D01*
X159080926Y-126201055D01*
X157295931Y-127606843D01*
X155421695Y-128891239D01*
X153466456Y-130048599D01*
X151438820Y-131073832D01*
X149347702Y-131962428D01*
X147202263Y-132710493D01*
X145011999Y-133314718D01*
X142786467Y-133772464D01*
X140535523Y-134081705D01*
X138269022Y-134241089D01*
X135996953Y-134249911D01*
X133729262Y-134108134D01*
X131475992Y-133816385D01*
X129246983Y-133375938D01*
X127052076Y-132788738D01*
X124900917Y-132057366D01*
X122802939Y-131185029D01*
X120767401Y-130175574D01*
X118803237Y-129033435D01*
X116919085Y-127763634D01*
X115123223Y-126371749D01*
X113423564Y-124863914D01*
X111827572Y-123246751D01*
X110342263Y-121527368D01*
X108974171Y-119713331D01*
X107729304Y-117812605D01*
X106613144Y-115833557D01*
X105630601Y-113784897D01*
X104785986Y-111675609D01*
X104083026Y-109515005D01*
X103524797Y-107312547D01*
X103113763Y-105077935D01*
X103051083Y-104538072D01*
X103470000Y-104538072D01*
X103594482Y-104525812D01*
X103714180Y-104489502D01*
X103824494Y-104430537D01*
X103921185Y-104351185D01*
X104000537Y-104254494D01*
X104059502Y-104144180D01*
X104095812Y-104024482D01*
X104108072Y-103900000D01*
X104108072Y-102900000D01*
X104095812Y-102775518D01*
X104059502Y-102655820D01*
X104000537Y-102545506D01*
X103921185Y-102448815D01*
X103824494Y-102369463D01*
X103714180Y-102310498D01*
X103594482Y-102274188D01*
X103470000Y-102261928D01*
X102824164Y-102261928D01*
X102739845Y-100551658D01*
X102778607Y-98279882D01*
X102865678Y-97238072D01*
X103470000Y-97238072D01*
X103594482Y-97225812D01*
X103714180Y-97189502D01*
X103824494Y-97130537D01*
X103921185Y-97051185D01*
X104000537Y-96954494D01*
X104059502Y-96844180D01*
X104095812Y-96724482D01*
X104108072Y-96600000D01*
X104108072Y-95600000D01*
X104095812Y-95475518D01*
X104059502Y-95355820D01*
X104000537Y-95245506D01*
X103921185Y-95148815D01*
X103824494Y-95069463D01*
X103714180Y-95010498D01*
X103594482Y-94974188D01*
X103470000Y-94961928D01*
X103126785Y-94961928D01*
X103306719Y-93768999D01*
X103793749Y-91549706D01*
X104426782Y-89367594D01*
X105203052Y-87232203D01*
X106119133Y-85152960D01*
X107170992Y-83139015D01*
X108354015Y-81199200D01*
X109663000Y-79342048D01*
X111092189Y-77575730D01*
X112635284Y-75908027D01*
X114285522Y-74346247D01*
X116035631Y-72897273D01*
X117877934Y-71567463D01*
X119804304Y-70362683D01*
X121806298Y-69288211D01*
X123580686Y-68482473D01*
X121579160Y-70484000D01*
X120549893Y-70484000D01*
X120499999Y-70479086D01*
X120450105Y-70484000D01*
X120450098Y-70484000D01*
X120320177Y-70496796D01*
X120300828Y-70498702D01*
X120248193Y-70514669D01*
X120109313Y-70556798D01*
X119932810Y-70651140D01*
X119778104Y-70778104D01*
X119746293Y-70816866D01*
X118241872Y-72321288D01*
X118203104Y-72353104D01*
X118076140Y-72507810D01*
X117981798Y-72684314D01*
X117930596Y-72853104D01*
X117923702Y-72875830D01*
X117904085Y-73075000D01*
X117909000Y-73124902D01*
X117909000Y-73734000D01*
X117799893Y-73734000D01*
X117749999Y-73729086D01*
X117700105Y-73734000D01*
X117700098Y-73734000D01*
X117570177Y-73746796D01*
X117550828Y-73748702D01*
X117509474Y-73761247D01*
X117359313Y-73806798D01*
X117182810Y-73901140D01*
X117028104Y-74028104D01*
X116996292Y-74066867D01*
X107741868Y-83321292D01*
X107703105Y-83353104D01*
X107576141Y-83507810D01*
X107481799Y-83684313D01*
X107423702Y-83875830D01*
X107404085Y-84075000D01*
X107409001Y-84124912D01*
X107409000Y-96291823D01*
X107403031Y-96311500D01*
X107386928Y-96475000D01*
X107386928Y-97025000D01*
X107403031Y-97188500D01*
X107450722Y-97345716D01*
X107528169Y-97490608D01*
X107632394Y-97617606D01*
X107759392Y-97721831D01*
X107904284Y-97799278D01*
X108061500Y-97846969D01*
X108225000Y-97863072D01*
X108625000Y-97863072D01*
X108788500Y-97846969D01*
X108945716Y-97799278D01*
X109090608Y-97721831D01*
X109217606Y-97617606D01*
X109250000Y-97578134D01*
X109282394Y-97617606D01*
X109409392Y-97721831D01*
X109554284Y-97799278D01*
X109711500Y-97846969D01*
X109875000Y-97863072D01*
X110275000Y-97863072D01*
X110438500Y-97846969D01*
X110595716Y-97799278D01*
X110657974Y-97766000D01*
X110802541Y-97766000D01*
X110898061Y-97785000D01*
X111101939Y-97785000D01*
X111301898Y-97745226D01*
X111490256Y-97667205D01*
X111659774Y-97553937D01*
X111803937Y-97409774D01*
X111917205Y-97240256D01*
X111995226Y-97051898D01*
X112035000Y-96851939D01*
X112035000Y-96648061D01*
X111995226Y-96448102D01*
X111917205Y-96259744D01*
X111803937Y-96090226D01*
X111659774Y-95946063D01*
X111490256Y-95832795D01*
X111301898Y-95754774D01*
X111101939Y-95715000D01*
X110898061Y-95715000D01*
X110802541Y-95734000D01*
X110657974Y-95734000D01*
X110595716Y-95700722D01*
X110438500Y-95653031D01*
X110275000Y-95636928D01*
X109875000Y-95636928D01*
X109711500Y-95653031D01*
X109554284Y-95700722D01*
X109441000Y-95761274D01*
X109441000Y-84495840D01*
X118170841Y-75766000D01*
X118342026Y-75766000D01*
X118404284Y-75799278D01*
X118561500Y-75846969D01*
X118725000Y-75863072D01*
X119125000Y-75863072D01*
X119288500Y-75846969D01*
X119445716Y-75799278D01*
X119590608Y-75721831D01*
X119717606Y-75617606D01*
X119750000Y-75578134D01*
X119782394Y-75617606D01*
X119909392Y-75721831D01*
X120054284Y-75799278D01*
X120211500Y-75846969D01*
X120375000Y-75863072D01*
X120775000Y-75863072D01*
X120938500Y-75846969D01*
X121095716Y-75799278D01*
X121157974Y-75766000D01*
X121302541Y-75766000D01*
X121398061Y-75785000D01*
X121601939Y-75785000D01*
X121801898Y-75745226D01*
X121990256Y-75667205D01*
X122159774Y-75553937D01*
X122303937Y-75409774D01*
X122417205Y-75240256D01*
X122495226Y-75051898D01*
X122535000Y-74851939D01*
X122535000Y-74648061D01*
X122495226Y-74448102D01*
X122417205Y-74259744D01*
X122303937Y-74090226D01*
X122159774Y-73946063D01*
X121990256Y-73832795D01*
X121801898Y-73754774D01*
X121601939Y-73715000D01*
X121398061Y-73715000D01*
X121302541Y-73734000D01*
X121157974Y-73734000D01*
X121095716Y-73700722D01*
X120938500Y-73653031D01*
X120775000Y-73636928D01*
X120375000Y-73636928D01*
X120211500Y-73653031D01*
X120054284Y-73700722D01*
X119941000Y-73761274D01*
X119941000Y-73495840D01*
X120920841Y-72516000D01*
X121950098Y-72516000D01*
X122000000Y-72520915D01*
X122049902Y-72516000D01*
X122199171Y-72501298D01*
X122390687Y-72443202D01*
X122567190Y-72348860D01*
X122721896Y-72221896D01*
X122753712Y-72183128D01*
X123623006Y-71313835D01*
X123604670Y-71500000D01*
X123645892Y-71918533D01*
X123767974Y-72320982D01*
X123966223Y-72691881D01*
X124233023Y-73016977D01*
X124558119Y-73283777D01*
X124929018Y-73482026D01*
X125331467Y-73604108D01*
X125645118Y-73635000D01*
X126234001Y-73635000D01*
X126234000Y-86329159D01*
X114579160Y-97984000D01*
X107302925Y-97984000D01*
X107305812Y-97974482D01*
X107318072Y-97850000D01*
X107318072Y-97150000D01*
X107305812Y-97025518D01*
X107269502Y-96905820D01*
X107210537Y-96795506D01*
X107131185Y-96698815D01*
X107034494Y-96619463D01*
X106924180Y-96560498D01*
X106804482Y-96524188D01*
X106680000Y-96511928D01*
X106318072Y-96511928D01*
X106318072Y-95600000D01*
X106305812Y-95475518D01*
X106269502Y-95355820D01*
X106210537Y-95245506D01*
X106131185Y-95148815D01*
X106034494Y-95069463D01*
X105924180Y-95010498D01*
X105804482Y-94974188D01*
X105680000Y-94961928D01*
X104880000Y-94961928D01*
X104755518Y-94974188D01*
X104635820Y-95010498D01*
X104525506Y-95069463D01*
X104428815Y-95148815D01*
X104349463Y-95245506D01*
X104290498Y-95355820D01*
X104254188Y-95475518D01*
X104241928Y-95600000D01*
X104241928Y-96600000D01*
X104254188Y-96724482D01*
X104290498Y-96844180D01*
X104349463Y-96954494D01*
X104428815Y-97051185D01*
X104525506Y-97130537D01*
X104542928Y-97139849D01*
X104541928Y-97150000D01*
X104541928Y-97229662D01*
X104486483Y-97206696D01*
X104276863Y-97165000D01*
X104063137Y-97165000D01*
X103853517Y-97206696D01*
X103656060Y-97288485D01*
X103478353Y-97407225D01*
X103327225Y-97558353D01*
X103208485Y-97736060D01*
X103126696Y-97933517D01*
X103085000Y-98143137D01*
X103085000Y-98356863D01*
X103126696Y-98566483D01*
X103208485Y-98763940D01*
X103327225Y-98941647D01*
X103478353Y-99092775D01*
X103656060Y-99211515D01*
X103853517Y-99293304D01*
X104063137Y-99335000D01*
X104276863Y-99335000D01*
X104486483Y-99293304D01*
X104541928Y-99270338D01*
X104541928Y-99350000D01*
X104554188Y-99474482D01*
X104590498Y-99594180D01*
X104649463Y-99704494D01*
X104728815Y-99801185D01*
X104825506Y-99880537D01*
X104935820Y-99939502D01*
X105055518Y-99975812D01*
X105180000Y-99988072D01*
X105687229Y-99988072D01*
X105730829Y-100001298D01*
X105880098Y-100016000D01*
X114950098Y-100016000D01*
X115000000Y-100020915D01*
X115049902Y-100016000D01*
X115199171Y-100001298D01*
X115390687Y-99943202D01*
X115567190Y-99848860D01*
X115721896Y-99721896D01*
X115753712Y-99683128D01*
X127933133Y-87503708D01*
X127971896Y-87471896D01*
X128098860Y-87317190D01*
X128193202Y-87140687D01*
X128251298Y-86949171D01*
X128265614Y-86803820D01*
X128270915Y-86750001D01*
X128266000Y-86700099D01*
X128266000Y-73635000D01*
X128854882Y-73635000D01*
X129168533Y-73604108D01*
X129570982Y-73482026D01*
X129941881Y-73283777D01*
X130266977Y-73016977D01*
X130533777Y-72691881D01*
X130732026Y-72320982D01*
X130854108Y-71918533D01*
X130895330Y-71500000D01*
X130854108Y-71081467D01*
X130732026Y-70679018D01*
X130533777Y-70308119D01*
X130266977Y-69983023D01*
X130002534Y-69766000D01*
X131579160Y-69766000D01*
X133909001Y-72095842D01*
X133909000Y-73525098D01*
X133904085Y-73575000D01*
X133909000Y-73624901D01*
X133909000Y-74025098D01*
X133904085Y-74075000D01*
X133909000Y-74124901D01*
X133909000Y-74875098D01*
X133904085Y-74925000D01*
X133909001Y-74974912D01*
X133909000Y-84025098D01*
X133909000Y-84025099D01*
X133909001Y-89404158D01*
X133654160Y-89659000D01*
X131374902Y-89659000D01*
X131325000Y-89654085D01*
X131125829Y-89673702D01*
X130934312Y-89731798D01*
X130908343Y-89745679D01*
X130757810Y-89826140D01*
X130603104Y-89953104D01*
X130571293Y-89991866D01*
X122316868Y-98246292D01*
X122278105Y-98278104D01*
X122151141Y-98432810D01*
X122093147Y-98541310D01*
X122056799Y-98609313D01*
X121998702Y-98800830D01*
X121979085Y-99000000D01*
X121984001Y-99049911D01*
X121984000Y-102079159D01*
X121829160Y-102234000D01*
X121049893Y-102234000D01*
X120999999Y-102229086D01*
X120950105Y-102234000D01*
X120299902Y-102234000D01*
X120250000Y-102229085D01*
X120200098Y-102234000D01*
X119549902Y-102234000D01*
X119500000Y-102229085D01*
X119450098Y-102234000D01*
X113920841Y-102234000D01*
X113003712Y-101316872D01*
X112971896Y-101278104D01*
X112817190Y-101151140D01*
X112640687Y-101056798D01*
X112449171Y-100998702D01*
X112299902Y-100984000D01*
X112250000Y-100979085D01*
X112200098Y-100984000D01*
X110299893Y-100984000D01*
X110249999Y-100979086D01*
X110200105Y-100984000D01*
X109549902Y-100984000D01*
X109500000Y-100979085D01*
X109450098Y-100984000D01*
X108799902Y-100984000D01*
X108750000Y-100979085D01*
X108700098Y-100984000D01*
X105880098Y-100984000D01*
X105730829Y-100998702D01*
X105687229Y-101011928D01*
X105228901Y-101011928D01*
X105213304Y-100933517D01*
X105131515Y-100736060D01*
X105012775Y-100558353D01*
X104861647Y-100407225D01*
X104683940Y-100288485D01*
X104486483Y-100206696D01*
X104276863Y-100165000D01*
X104063137Y-100165000D01*
X103853517Y-100206696D01*
X103656060Y-100288485D01*
X103478353Y-100407225D01*
X103327225Y-100558353D01*
X103208485Y-100736060D01*
X103126696Y-100933517D01*
X103085000Y-101143137D01*
X103085000Y-101356863D01*
X103126696Y-101566483D01*
X103208485Y-101763940D01*
X103327225Y-101941647D01*
X103478353Y-102092775D01*
X103656060Y-102211515D01*
X103853517Y-102293304D01*
X104063137Y-102335000D01*
X104276863Y-102335000D01*
X104486483Y-102293304D01*
X104541928Y-102270338D01*
X104541928Y-102350000D01*
X104542928Y-102360151D01*
X104525506Y-102369463D01*
X104428815Y-102448815D01*
X104349463Y-102545506D01*
X104290498Y-102655820D01*
X104254188Y-102775518D01*
X104241928Y-102900000D01*
X104241928Y-103900000D01*
X104254188Y-104024482D01*
X104290498Y-104144180D01*
X104349463Y-104254494D01*
X104428815Y-104351185D01*
X104525506Y-104430537D01*
X104635820Y-104489502D01*
X104755518Y-104525812D01*
X104880000Y-104538072D01*
X105680000Y-104538072D01*
X105804482Y-104525812D01*
X105924180Y-104489502D01*
X106034494Y-104430537D01*
X106131185Y-104351185D01*
X106210537Y-104254494D01*
X106269502Y-104144180D01*
X106305812Y-104024482D01*
X106318072Y-103900000D01*
X106318072Y-103016000D01*
X108329160Y-103016000D01*
X108484001Y-103170841D01*
X108484000Y-104329159D01*
X105316868Y-107496292D01*
X105278105Y-107528104D01*
X105151141Y-107682810D01*
X105095275Y-107787329D01*
X105056799Y-107859313D01*
X104998702Y-108050830D01*
X104979085Y-108250000D01*
X104984001Y-108299911D01*
X104984000Y-111200098D01*
X104979085Y-111250000D01*
X104984000Y-111299901D01*
X104998702Y-111449170D01*
X105056798Y-111640686D01*
X105151140Y-111817190D01*
X105278104Y-111971896D01*
X105316872Y-112003712D01*
X105996292Y-112683133D01*
X106028104Y-112721896D01*
X106182810Y-112848860D01*
X106359313Y-112943202D01*
X106550829Y-113001298D01*
X106700098Y-113016000D01*
X106700105Y-113016000D01*
X106749999Y-113020914D01*
X106799893Y-113016000D01*
X107342026Y-113016000D01*
X107404284Y-113049278D01*
X107561500Y-113096969D01*
X107725000Y-113113072D01*
X108125000Y-113113072D01*
X108288500Y-113096969D01*
X108445716Y-113049278D01*
X108590608Y-112971831D01*
X108717606Y-112867606D01*
X108750000Y-112828134D01*
X108782394Y-112867606D01*
X108909392Y-112971831D01*
X109054284Y-113049278D01*
X109211500Y-113096969D01*
X109375000Y-113113072D01*
X109775000Y-113113072D01*
X109938500Y-113096969D01*
X110095716Y-113049278D01*
X110157974Y-113016000D01*
X110302541Y-113016000D01*
X110398061Y-113035000D01*
X110601939Y-113035000D01*
X110801898Y-112995226D01*
X110990256Y-112917205D01*
X111159774Y-112803937D01*
X111303937Y-112659774D01*
X111417205Y-112490256D01*
X111495226Y-112301898D01*
X111535000Y-112101939D01*
X111535000Y-111898061D01*
X111495226Y-111698102D01*
X111417205Y-111509744D01*
X111303937Y-111340226D01*
X111159774Y-111196063D01*
X110990256Y-111082795D01*
X110801898Y-111004774D01*
X110601939Y-110965000D01*
X110398061Y-110965000D01*
X110302541Y-110984000D01*
X110157974Y-110984000D01*
X110095716Y-110950722D01*
X109938500Y-110903031D01*
X109775000Y-110886928D01*
X109375000Y-110886928D01*
X109211500Y-110903031D01*
X109054284Y-110950722D01*
X108909392Y-111028169D01*
X108782394Y-111132394D01*
X108750000Y-111171866D01*
X108717606Y-111132394D01*
X108590608Y-111028169D01*
X108445716Y-110950722D01*
X108288500Y-110903031D01*
X108125000Y-110886928D01*
X107725000Y-110886928D01*
X107561500Y-110903031D01*
X107404284Y-110950722D01*
X107342026Y-110984000D01*
X107170841Y-110984000D01*
X107016000Y-110829160D01*
X107016000Y-108670840D01*
X110183133Y-105503708D01*
X110221896Y-105471896D01*
X110348860Y-105317190D01*
X110443202Y-105140687D01*
X110490477Y-104984844D01*
X110501298Y-104949172D01*
X110512164Y-104838849D01*
X110516000Y-104799902D01*
X110516000Y-104799895D01*
X110520914Y-104750001D01*
X110516000Y-104700107D01*
X110516000Y-103170840D01*
X110670841Y-103016000D01*
X111829160Y-103016000D01*
X112746292Y-103933133D01*
X112778104Y-103971896D01*
X112932810Y-104098860D01*
X113109313Y-104193202D01*
X113284584Y-104246370D01*
X113300829Y-104251298D01*
X113500000Y-104270915D01*
X113549902Y-104266000D01*
X119079160Y-104266000D01*
X119234001Y-104420841D01*
X119234000Y-105450097D01*
X119229085Y-105500000D01*
X119234001Y-105549912D01*
X119234000Y-121450098D01*
X119229085Y-121500000D01*
X119246490Y-121676710D01*
X119248702Y-121699170D01*
X119306798Y-121890686D01*
X119401140Y-122067190D01*
X119528104Y-122221896D01*
X119566872Y-122253712D01*
X128246292Y-130933133D01*
X128278104Y-130971896D01*
X128378071Y-131053937D01*
X128432810Y-131098860D01*
X128609313Y-131193202D01*
X128800829Y-131251298D01*
X129000000Y-131270915D01*
X129049902Y-131266000D01*
X131592026Y-131266000D01*
X131654284Y-131299278D01*
X131811500Y-131346969D01*
X131975000Y-131363072D01*
X132375000Y-131363072D01*
X132538500Y-131346969D01*
X132695716Y-131299278D01*
X132840608Y-131221831D01*
X132967606Y-131117606D01*
X133000000Y-131078134D01*
X133032394Y-131117606D01*
X133159392Y-131221831D01*
X133304284Y-131299278D01*
X133461500Y-131346969D01*
X133625000Y-131363072D01*
X134025000Y-131363072D01*
X134188500Y-131346969D01*
X134345716Y-131299278D01*
X134407974Y-131266000D01*
X134552541Y-131266000D01*
X134648061Y-131285000D01*
X134851939Y-131285000D01*
X135051898Y-131245226D01*
X135240256Y-131167205D01*
X135409774Y-131053937D01*
X135553937Y-130909774D01*
X135667205Y-130740256D01*
X135745226Y-130551898D01*
X135785000Y-130351939D01*
X135785000Y-130148061D01*
X135745226Y-129948102D01*
X135667205Y-129759744D01*
X135553937Y-129590226D01*
X135409774Y-129446063D01*
X135240256Y-129332795D01*
X135051898Y-129254774D01*
X134851939Y-129215000D01*
X134648061Y-129215000D01*
X134552541Y-129234000D01*
X134407974Y-129234000D01*
X134345716Y-129200722D01*
X134188500Y-129153031D01*
X134025000Y-129136928D01*
X133625000Y-129136928D01*
X133461500Y-129153031D01*
X133304284Y-129200722D01*
X133159392Y-129278169D01*
X133032394Y-129382394D01*
X133000000Y-129421866D01*
X132967606Y-129382394D01*
X132840608Y-129278169D01*
X132695716Y-129200722D01*
X132538500Y-129153031D01*
X132375000Y-129136928D01*
X131975000Y-129136928D01*
X131811500Y-129153031D01*
X131654284Y-129200722D01*
X131592026Y-129234000D01*
X129420841Y-129234000D01*
X121266000Y-121079160D01*
X121266000Y-106613072D01*
X121625000Y-106613072D01*
X121788500Y-106596969D01*
X121945716Y-106549278D01*
X122090608Y-106471831D01*
X122217606Y-106367606D01*
X122250000Y-106328134D01*
X122282394Y-106367606D01*
X122409392Y-106471831D01*
X122554284Y-106549278D01*
X122711500Y-106596969D01*
X122875000Y-106613072D01*
X123275000Y-106613072D01*
X123438500Y-106596969D01*
X123595716Y-106549278D01*
X123657974Y-106516000D01*
X126200098Y-106516000D01*
X126250000Y-106520915D01*
X126299902Y-106516000D01*
X126449171Y-106501298D01*
X126640687Y-106443202D01*
X126817190Y-106348860D01*
X126971896Y-106221896D01*
X127003712Y-106183128D01*
X129078797Y-104108044D01*
X129159774Y-104053937D01*
X129303937Y-103909774D01*
X129417205Y-103740256D01*
X129495226Y-103551898D01*
X129535000Y-103351939D01*
X129535000Y-103148061D01*
X129495226Y-102948102D01*
X129417205Y-102759744D01*
X129303937Y-102590226D01*
X129159774Y-102446063D01*
X128990256Y-102332795D01*
X128801898Y-102254774D01*
X128601939Y-102215000D01*
X128398061Y-102215000D01*
X128198102Y-102254774D01*
X128009744Y-102332795D01*
X127840226Y-102446063D01*
X127696063Y-102590226D01*
X127641956Y-102671203D01*
X125829160Y-104484000D01*
X123657974Y-104484000D01*
X123595716Y-104450722D01*
X123438500Y-104403031D01*
X123275000Y-104386928D01*
X122875000Y-104386928D01*
X122711500Y-104403031D01*
X122554284Y-104450722D01*
X122409392Y-104528169D01*
X122282394Y-104632394D01*
X122250000Y-104671866D01*
X122217606Y-104632394D01*
X122090608Y-104528169D01*
X121945716Y-104450722D01*
X121788500Y-104403031D01*
X121625000Y-104386928D01*
X121299912Y-104386928D01*
X121420841Y-104266000D01*
X122200098Y-104266000D01*
X122250000Y-104270915D01*
X122299902Y-104266000D01*
X122449171Y-104251298D01*
X122640687Y-104193202D01*
X122817190Y-104098860D01*
X122971896Y-103971896D01*
X123003712Y-103933128D01*
X123683133Y-103253708D01*
X123721896Y-103221896D01*
X123848860Y-103067190D01*
X123943202Y-102890687D01*
X124001016Y-102700099D01*
X124001298Y-102699171D01*
X124008229Y-102628802D01*
X124016000Y-102549901D01*
X124016000Y-102549895D01*
X124020914Y-102500001D01*
X124016000Y-102450107D01*
X124016000Y-99420840D01*
X131745841Y-91691000D01*
X133504160Y-91691000D01*
X133909000Y-92095841D01*
X133909001Y-93950089D01*
X133909000Y-93950099D01*
X133909001Y-97125089D01*
X133904085Y-97175000D01*
X133923702Y-97374170D01*
X133971865Y-97532938D01*
X133981799Y-97565687D01*
X134076141Y-97742190D01*
X134203105Y-97896896D01*
X134241868Y-97928708D01*
X147746292Y-111433133D01*
X147778104Y-111471896D01*
X147932810Y-111598860D01*
X148109313Y-111693202D01*
X148294513Y-111749382D01*
X148300829Y-111751298D01*
X148499999Y-111770915D01*
X148549901Y-111766000D01*
X150450098Y-111766000D01*
X150500000Y-111770915D01*
X150549902Y-111766000D01*
X151200098Y-111766000D01*
X151250000Y-111770915D01*
X151299902Y-111766000D01*
X151950105Y-111766000D01*
X151999999Y-111770914D01*
X152049893Y-111766000D01*
X154092026Y-111766000D01*
X154154284Y-111799278D01*
X154311500Y-111846969D01*
X154475000Y-111863072D01*
X154875000Y-111863072D01*
X155038500Y-111846969D01*
X155195716Y-111799278D01*
X155340608Y-111721831D01*
X155467606Y-111617606D01*
X155500000Y-111578134D01*
X155532394Y-111617606D01*
X155659392Y-111721831D01*
X155804284Y-111799278D01*
X155961500Y-111846969D01*
X156125000Y-111863072D01*
X156525000Y-111863072D01*
X156688500Y-111846969D01*
X156845716Y-111799278D01*
X156907974Y-111766000D01*
X157052541Y-111766000D01*
X157148061Y-111785000D01*
X157351939Y-111785000D01*
X157551898Y-111745226D01*
X157740256Y-111667205D01*
X157909774Y-111553937D01*
X158053937Y-111409774D01*
X158167205Y-111240256D01*
X158245226Y-111051898D01*
X158285000Y-110851939D01*
X158285000Y-110648061D01*
X158245226Y-110448102D01*
X158167205Y-110259744D01*
X158053937Y-110090226D01*
X157909774Y-109946063D01*
X157740256Y-109832795D01*
X157551898Y-109754774D01*
X157351939Y-109715000D01*
X157148061Y-109715000D01*
X157052541Y-109734000D01*
X156907974Y-109734000D01*
X156845716Y-109700722D01*
X156688500Y-109653031D01*
X156525000Y-109636928D01*
X156125000Y-109636928D01*
X155961500Y-109653031D01*
X155804284Y-109700722D01*
X155659392Y-109778169D01*
X155532394Y-109882394D01*
X155500000Y-109921866D01*
X155467606Y-109882394D01*
X155340608Y-109778169D01*
X155195716Y-109700722D01*
X155038500Y-109653031D01*
X154875000Y-109636928D01*
X154475000Y-109636928D01*
X154311500Y-109653031D01*
X154154284Y-109700722D01*
X154092026Y-109734000D01*
X152420841Y-109734000D01*
X152266000Y-109579160D01*
X152266000Y-103407974D01*
X152299278Y-103345716D01*
X152346969Y-103188500D01*
X152363072Y-103025000D01*
X152363072Y-102625000D01*
X152346969Y-102461500D01*
X152299278Y-102304284D01*
X152221831Y-102159392D01*
X152117606Y-102032394D01*
X152078134Y-102000000D01*
X152117606Y-101967606D01*
X152221831Y-101840608D01*
X152299278Y-101695716D01*
X152346969Y-101538500D01*
X152363072Y-101375000D01*
X152363072Y-100975000D01*
X152346969Y-100811500D01*
X152299278Y-100654284D01*
X152266000Y-100592026D01*
X152266000Y-99299893D01*
X152270914Y-99249999D01*
X152266000Y-99200105D01*
X152266000Y-99200098D01*
X152251298Y-99050829D01*
X152193202Y-98859313D01*
X152098860Y-98682810D01*
X151971896Y-98528104D01*
X151933133Y-98496292D01*
X149253712Y-95816872D01*
X149221896Y-95778104D01*
X149067190Y-95651140D01*
X148890687Y-95556798D01*
X148699171Y-95498702D01*
X148549902Y-95484000D01*
X148500000Y-95479085D01*
X148450098Y-95484000D01*
X140420841Y-95484000D01*
X138358046Y-93421206D01*
X138303937Y-93340226D01*
X138159774Y-93196063D01*
X137990256Y-93082795D01*
X137801898Y-93004774D01*
X137601939Y-92965000D01*
X137398061Y-92965000D01*
X137198102Y-93004774D01*
X137009744Y-93082795D01*
X136840226Y-93196063D01*
X136696063Y-93340226D01*
X136582795Y-93509744D01*
X136504774Y-93698102D01*
X136465000Y-93898061D01*
X136465000Y-94101939D01*
X136504774Y-94301898D01*
X136582795Y-94490256D01*
X136696063Y-94659774D01*
X136840226Y-94803937D01*
X136921206Y-94858046D01*
X139246292Y-97183133D01*
X139278104Y-97221896D01*
X139432810Y-97348860D01*
X139542004Y-97407225D01*
X139609312Y-97443202D01*
X139800829Y-97501298D01*
X140000000Y-97520915D01*
X140049902Y-97516000D01*
X148079160Y-97516000D01*
X150234001Y-99670842D01*
X150234000Y-100592025D01*
X150200722Y-100654284D01*
X150153031Y-100811500D01*
X150136928Y-100975000D01*
X150136928Y-101375000D01*
X150153031Y-101538500D01*
X150200722Y-101695716D01*
X150278169Y-101840608D01*
X150382394Y-101967606D01*
X150421866Y-102000000D01*
X150382394Y-102032394D01*
X150278169Y-102159392D01*
X150200722Y-102304284D01*
X150153031Y-102461500D01*
X150136928Y-102625000D01*
X150136928Y-103025000D01*
X150153031Y-103188500D01*
X150200722Y-103345716D01*
X150234000Y-103407974D01*
X150234001Y-109579158D01*
X150079160Y-109734000D01*
X148920841Y-109734000D01*
X135941000Y-96754160D01*
X135941000Y-91724902D01*
X135945915Y-91675000D01*
X135941000Y-91625098D01*
X135941000Y-90724901D01*
X135945915Y-90675000D01*
X135941000Y-90625098D01*
X135941000Y-89874902D01*
X135945915Y-89825000D01*
X135941000Y-89775098D01*
X135941000Y-75345840D01*
X136020840Y-75266000D01*
X141342026Y-75266000D01*
X141404284Y-75299278D01*
X141561500Y-75346969D01*
X141725000Y-75363072D01*
X142125000Y-75363072D01*
X142288500Y-75346969D01*
X142445716Y-75299278D01*
X142590608Y-75221831D01*
X142717606Y-75117606D01*
X142750000Y-75078134D01*
X142782394Y-75117606D01*
X142909392Y-75221831D01*
X143054284Y-75299278D01*
X143211500Y-75346969D01*
X143375000Y-75363072D01*
X143775000Y-75363072D01*
X143938500Y-75346969D01*
X144095716Y-75299278D01*
X144157974Y-75266000D01*
X144302541Y-75266000D01*
X144398061Y-75285000D01*
X144601939Y-75285000D01*
X144801898Y-75245226D01*
X144990256Y-75167205D01*
X145159774Y-75053937D01*
X145303937Y-74909774D01*
X145417205Y-74740256D01*
X145495226Y-74551898D01*
X145535000Y-74351939D01*
X145535000Y-74148061D01*
X145495226Y-73948102D01*
X145417205Y-73759744D01*
X145303937Y-73590226D01*
X145159774Y-73446063D01*
X144990256Y-73332795D01*
X144801898Y-73254774D01*
X144601939Y-73215000D01*
X144398061Y-73215000D01*
X144302541Y-73234000D01*
X144157974Y-73234000D01*
X144095716Y-73200722D01*
X143938500Y-73153031D01*
X143775000Y-73136928D01*
X143375000Y-73136928D01*
X143211500Y-73153031D01*
X143054284Y-73200722D01*
X142909392Y-73278169D01*
X142782394Y-73382394D01*
X142750000Y-73421866D01*
X142717606Y-73382394D01*
X142590608Y-73278169D01*
X142445716Y-73200722D01*
X142288500Y-73153031D01*
X142125000Y-73136928D01*
X141725000Y-73136928D01*
X141561500Y-73153031D01*
X141404284Y-73200722D01*
X141342026Y-73234000D01*
X136020840Y-73234000D01*
X135941000Y-73154160D01*
X135941000Y-71724902D01*
X135945915Y-71675000D01*
X135926298Y-71475829D01*
X135868202Y-71284313D01*
X135773860Y-71107810D01*
X135752241Y-71081467D01*
X135646896Y-70953104D01*
X135608133Y-70921292D01*
X132753712Y-68066872D01*
X132721896Y-68028104D01*
X132567190Y-67901140D01*
X132390687Y-67806798D01*
X132199171Y-67748702D01*
X132049902Y-67734000D01*
X132000000Y-67729085D01*
X131950098Y-67734000D01*
X125508757Y-67734000D01*
X126001593Y-67548534D01*
X128186747Y-66887862D01*
X128436510Y-66822338D01*
X128452528Y-66817563D01*
X128459226Y-66815987D01*
X128804024Y-66713600D01*
X128807380Y-66712269D01*
X128810916Y-66711517D01*
X128890228Y-66682021D01*
X129704199Y-66324712D01*
X129724464Y-66313571D01*
X129745874Y-66304834D01*
X129818696Y-66261767D01*
X129818710Y-66261759D01*
X129818715Y-66261755D01*
X130556543Y-65765956D01*
X130574511Y-65751406D01*
X130594041Y-65739012D01*
X130658097Y-65683720D01*
X131296470Y-65065093D01*
X131311582Y-65047586D01*
X131328603Y-65031934D01*
X131381840Y-64966192D01*
X131381856Y-64966173D01*
X131381861Y-64966165D01*
X131900590Y-64244277D01*
X131912363Y-64224370D01*
X131926343Y-64205952D01*
X131967109Y-64131800D01*
X132349809Y-63329453D01*
X132357869Y-63307780D01*
X132368369Y-63287173D01*
X132395359Y-63206974D01*
X132629927Y-62349538D01*
X132634022Y-62326778D01*
X132640706Y-62304640D01*
X132653067Y-62220928D01*
X132731782Y-61338949D01*
X132735000Y-61306272D01*
X132735000Y-60032731D01*
X132762021Y-59729963D01*
X134258266Y-59729963D01*
X134258266Y-60270037D01*
X134363629Y-60799734D01*
X134570307Y-61298698D01*
X134870356Y-61747753D01*
X135252247Y-62129644D01*
X135701302Y-62429693D01*
X136200266Y-62636371D01*
X136729963Y-62741734D01*
X137270037Y-62741734D01*
X137799734Y-62636371D01*
X138298698Y-62429693D01*
X138747753Y-62129644D01*
X139129644Y-61747753D01*
X139429693Y-61298698D01*
X139636371Y-60799734D01*
X139741734Y-60270037D01*
X139741734Y-59729963D01*
X139636371Y-59200266D01*
X139429693Y-58701302D01*
X139129644Y-58252247D01*
X138747753Y-57870356D01*
X138298698Y-57570307D01*
X137799734Y-57363629D01*
X137270037Y-57258266D01*
X136729963Y-57258266D01*
X136200266Y-57363629D01*
X135701302Y-57570307D01*
X135252247Y-57870356D01*
X134870356Y-58252247D01*
X134570307Y-58701302D01*
X134363629Y-59200266D01*
X134258266Y-59729963D01*
X132762021Y-59729963D01*
X132805281Y-59245253D01*
X133005231Y-58514357D01*
X133331450Y-57830425D01*
X133773626Y-57215072D01*
X134317789Y-56687741D01*
X134946726Y-56265114D01*
X135640570Y-55960537D01*
X136377386Y-55783643D01*
X137133871Y-55740024D01*
X137886138Y-55831059D01*
G37*
%TD.AperFunction*%
%TD*%
M02*
