%TF.GenerationSoftware,KiCad,Pcbnew,(5.1.10)-1*%
%TF.CreationDate,2021-10-20T07:50:51+02:00*%
%TF.ProjectId,TVZ_kuglica,54565a5f-6b75-4676-9c69-63612e6b6963,rev?*%
%TF.SameCoordinates,Original*%
%TF.FileFunction,Copper,L1,Top*%
%TF.FilePolarity,Positive*%
%FSLAX46Y46*%
G04 Gerber Fmt 4.6, Leading zero omitted, Abs format (unit mm)*
G04 Created by KiCad (PCBNEW (5.1.10)-1) date 2021-10-20 07:50:51*
%MOMM*%
%LPD*%
G01*
G04 APERTURE LIST*
%TA.AperFunction,SMDPad,CuDef*%
%ADD10R,1.100000X0.750000*%
%TD*%
%TA.AperFunction,ViaPad*%
%ADD11C,0.800000*%
%TD*%
%TA.AperFunction,Conductor*%
%ADD12C,0.762000*%
%TD*%
%TA.AperFunction,Conductor*%
%ADD13C,0.254000*%
%TD*%
%TA.AperFunction,Conductor*%
%ADD14C,0.100000*%
%TD*%
G04 APERTURE END LIST*
D10*
%TO.P,D1,1*%
%TO.N,Net-(D1-Pad1)*%
X111950000Y-96125000D03*
%TO.P,D1,2*%
%TO.N,GND*%
X114050000Y-96125000D03*
%TO.P,D1,1*%
%TO.N,Net-(D1-Pad1)*%
X111950000Y-97375000D03*
%TO.P,D1,2*%
%TO.N,GND*%
X114050000Y-97375000D03*
%TD*%
%TO.P,D2,2*%
%TO.N,GND*%
X124550000Y-75375000D03*
%TO.P,D2,1*%
%TO.N,Net-(D2-Pad1)*%
X122450000Y-75375000D03*
%TO.P,D2,2*%
%TO.N,GND*%
X124550000Y-74125000D03*
%TO.P,D2,1*%
%TO.N,Net-(D2-Pad1)*%
X122450000Y-74125000D03*
%TD*%
%TO.P,D3,1*%
%TO.N,Net-(D3-Pad1)*%
X145450000Y-73625000D03*
%TO.P,D3,2*%
%TO.N,GND*%
X147550000Y-73625000D03*
%TO.P,D3,1*%
%TO.N,Net-(D3-Pad1)*%
X145450000Y-74875000D03*
%TO.P,D3,2*%
%TO.N,GND*%
X147550000Y-74875000D03*
%TD*%
%TO.P,D4,2*%
%TO.N,GND*%
X131550000Y-103875000D03*
%TO.P,D4,1*%
%TO.N,Net-(D4-Pad1)*%
X129450000Y-103875000D03*
%TO.P,D4,2*%
%TO.N,GND*%
X131550000Y-102625000D03*
%TO.P,D4,1*%
%TO.N,Net-(D4-Pad1)*%
X129450000Y-102625000D03*
%TD*%
%TO.P,D5,1*%
%TO.N,Net-(D5-Pad1)*%
X111450000Y-111375000D03*
%TO.P,D5,2*%
%TO.N,GND*%
X113550000Y-111375000D03*
%TO.P,D5,1*%
%TO.N,Net-(D5-Pad1)*%
X111450000Y-112625000D03*
%TO.P,D5,2*%
%TO.N,GND*%
X113550000Y-112625000D03*
%TD*%
%TO.P,D8,2*%
%TO.N,GND*%
X160300000Y-111375000D03*
%TO.P,D8,1*%
%TO.N,Net-(D8-Pad1)*%
X158200000Y-111375000D03*
%TO.P,D8,2*%
%TO.N,GND*%
X160300000Y-110125000D03*
%TO.P,D8,1*%
%TO.N,Net-(D8-Pad1)*%
X158200000Y-110125000D03*
%TD*%
%TO.P,D7,1*%
%TO.N,Net-(D7-Pad1)*%
X135700000Y-129625000D03*
%TO.P,D7,2*%
%TO.N,GND*%
X137800000Y-129625000D03*
%TO.P,D7,1*%
%TO.N,Net-(D7-Pad1)*%
X135700000Y-130875000D03*
%TO.P,D7,2*%
%TO.N,GND*%
X137800000Y-130875000D03*
%TD*%
%TO.P,D11,1*%
%TO.N,Net-(D11-Pad1)*%
X138450000Y-93375000D03*
%TO.P,D11,2*%
%TO.N,GND*%
X140550000Y-93375000D03*
%TO.P,D11,1*%
%TO.N,Net-(D11-Pad1)*%
X138450000Y-94625000D03*
%TO.P,D11,2*%
%TO.N,GND*%
X140550000Y-94625000D03*
%TD*%
D11*
%TO.N,Net-(D1-Pad1)*%
X111000000Y-96750000D03*
%TO.N,GND*%
X159750000Y-80500000D03*
X143500000Y-79750000D03*
X131000000Y-75500000D03*
X117500000Y-87250000D03*
X117750000Y-102250000D03*
X125500000Y-92750000D03*
X144000000Y-98000000D03*
X157500000Y-91000000D03*
X165000000Y-102500000D03*
X149000000Y-105250000D03*
X114750000Y-107500000D03*
X113000000Y-117500000D03*
X126750000Y-113750000D03*
X161500000Y-115500000D03*
X151250000Y-129250000D03*
X121750000Y-128500000D03*
X136500000Y-132500000D03*
X148500000Y-74250000D03*
X125500000Y-74750000D03*
X115000000Y-96750000D03*
X132500000Y-103250000D03*
X114500000Y-112000000D03*
X138750000Y-130250000D03*
X161250000Y-110750000D03*
X141500000Y-94000000D03*
%TO.N,Net-(D2-Pad1)*%
X121500000Y-74750000D03*
%TO.N,Net-(D3-Pad1)*%
X144500000Y-74250000D03*
%TO.N,Net-(D4-Pad1)*%
X128500000Y-103250000D03*
%TO.N,Net-(D5-Pad1)*%
X110500000Y-112000000D03*
%TO.N,Net-(D7-Pad1)*%
X134750000Y-130250000D03*
%TO.N,Net-(D8-Pad1)*%
X157250000Y-110750000D03*
%TO.N,Net-(D11-Pad1)*%
X137500000Y-94000000D03*
%TD*%
D12*
%TO.N,Net-(D1-Pad1)*%
X111325000Y-96750000D02*
X111950000Y-96125000D01*
X111325000Y-96750000D02*
X111950000Y-97375000D01*
X111000000Y-96750000D02*
X111325000Y-96750000D01*
%TO.N,Net-(D2-Pad1)*%
X121825000Y-74750000D02*
X122450000Y-74125000D01*
X121825000Y-74750000D02*
X122450000Y-75375000D01*
X121500000Y-74750000D02*
X121825000Y-74750000D01*
%TO.N,Net-(D3-Pad1)*%
X144825000Y-74250000D02*
X145450000Y-73625000D01*
X144825000Y-74250000D02*
X145450000Y-74875000D01*
X144500000Y-74250000D02*
X144825000Y-74250000D01*
%TO.N,Net-(D4-Pad1)*%
X128825000Y-103250000D02*
X129450000Y-102625000D01*
X128825000Y-103250000D02*
X129450000Y-103875000D01*
X128500000Y-103250000D02*
X128825000Y-103250000D01*
%TO.N,Net-(D5-Pad1)*%
X110825000Y-112000000D02*
X111450000Y-111375000D01*
X110825000Y-112000000D02*
X111450000Y-112625000D01*
X110500000Y-112000000D02*
X110825000Y-112000000D01*
%TO.N,Net-(D7-Pad1)*%
X135075000Y-130250000D02*
X135700000Y-129625000D01*
X135075000Y-130250000D02*
X135700000Y-130875000D01*
X134750000Y-130250000D02*
X135075000Y-130250000D01*
%TO.N,Net-(D8-Pad1)*%
X157575000Y-110750000D02*
X158200000Y-110125000D01*
X157575000Y-110750000D02*
X158200000Y-111375000D01*
X157250000Y-110750000D02*
X157575000Y-110750000D01*
%TO.N,Net-(D11-Pad1)*%
X137825000Y-94000000D02*
X138450000Y-93375000D01*
X137825000Y-94000000D02*
X138450000Y-94625000D01*
X137500000Y-94000000D02*
X137825000Y-94000000D01*
%TD*%
D13*
%TO.N,GND*%
X137886138Y-55831059D02*
X138610388Y-56053867D01*
X139283738Y-56401409D01*
X139884901Y-56862699D01*
X140394872Y-57423149D01*
X140797540Y-58065057D01*
X141080170Y-58768122D01*
X141236190Y-59521513D01*
X141265000Y-60021169D01*
X141265001Y-61306272D01*
X141266298Y-61319440D01*
X141278413Y-61656049D01*
X141278863Y-61659632D01*
X141278707Y-61663242D01*
X141287438Y-61747410D01*
X141429908Y-62624862D01*
X141435629Y-62647269D01*
X141438736Y-62670183D01*
X141462234Y-62751474D01*
X141757835Y-63589830D01*
X141767433Y-63610870D01*
X141774549Y-63632871D01*
X141812059Y-63708691D01*
X141812071Y-63708717D01*
X141812077Y-63708725D01*
X142251461Y-64481476D01*
X142264630Y-64500478D01*
X142275533Y-64520879D01*
X142325894Y-64588881D01*
X142895182Y-65271616D01*
X142911512Y-65287990D01*
X142925851Y-65306132D01*
X142987458Y-65364142D01*
X143668651Y-65935276D01*
X143687625Y-65948502D01*
X143704950Y-65963817D01*
X143775855Y-66010000D01*
X144547423Y-66451478D01*
X144568436Y-66461133D01*
X144588200Y-66473139D01*
X144666163Y-66506036D01*
X145503715Y-66803905D01*
X145508021Y-66805017D01*
X145525587Y-66811299D01*
X145542755Y-66816572D01*
X147746053Y-67464098D01*
X149878711Y-68247813D01*
X151954729Y-69171140D01*
X153965017Y-70230036D01*
X155900673Y-71419812D01*
X157753239Y-72735268D01*
X159514561Y-74170616D01*
X161176886Y-75719540D01*
X162732884Y-77375207D01*
X164175738Y-79130360D01*
X165499106Y-80977290D01*
X166697162Y-82907865D01*
X167764630Y-84913581D01*
X168696830Y-86985643D01*
X169489658Y-89114933D01*
X170139624Y-91292080D01*
X170643873Y-93507517D01*
X171000188Y-95751501D01*
X171207004Y-98014175D01*
X171263407Y-100285560D01*
X171169153Y-102555700D01*
X170924654Y-104814605D01*
X170530986Y-107052337D01*
X169989882Y-109259064D01*
X169303718Y-111425077D01*
X168475512Y-113540851D01*
X167508906Y-115597090D01*
X166408155Y-117584736D01*
X165178083Y-119495080D01*
X163824120Y-121319689D01*
X162352204Y-123050560D01*
X160768823Y-124680064D01*
X159080926Y-126201055D01*
X157295931Y-127606843D01*
X155421695Y-128891239D01*
X153466456Y-130048599D01*
X151438820Y-131073832D01*
X149347702Y-131962428D01*
X147202263Y-132710493D01*
X145011999Y-133314718D01*
X142786467Y-133772464D01*
X140535523Y-134081705D01*
X138269022Y-134241089D01*
X135996953Y-134249911D01*
X133729262Y-134108134D01*
X131475992Y-133816385D01*
X129246983Y-133375938D01*
X127052076Y-132788738D01*
X124900917Y-132057366D01*
X122802939Y-131185029D01*
X120767401Y-130175574D01*
X120720087Y-130148061D01*
X133715000Y-130148061D01*
X133715000Y-130351939D01*
X133754774Y-130551898D01*
X133832795Y-130740256D01*
X133946063Y-130909774D01*
X134090226Y-131053937D01*
X134259744Y-131167205D01*
X134448102Y-131245226D01*
X134512724Y-131258080D01*
X134524188Y-131374482D01*
X134560498Y-131494180D01*
X134619463Y-131604494D01*
X134698815Y-131701185D01*
X134795506Y-131780537D01*
X134905820Y-131839502D01*
X135025518Y-131875812D01*
X135150000Y-131888072D01*
X135620375Y-131888072D01*
X135699999Y-131895914D01*
X135779623Y-131888072D01*
X136250000Y-131888072D01*
X136374482Y-131875812D01*
X136494180Y-131839502D01*
X136604494Y-131780537D01*
X136701185Y-131701185D01*
X136750000Y-131641704D01*
X136798815Y-131701185D01*
X136895506Y-131780537D01*
X137005820Y-131839502D01*
X137125518Y-131875812D01*
X137250000Y-131888072D01*
X137514250Y-131885000D01*
X137673000Y-131726250D01*
X137673000Y-131002000D01*
X137927000Y-131002000D01*
X137927000Y-131726250D01*
X138085750Y-131885000D01*
X138350000Y-131888072D01*
X138474482Y-131875812D01*
X138594180Y-131839502D01*
X138704494Y-131780537D01*
X138801185Y-131701185D01*
X138880537Y-131604494D01*
X138939502Y-131494180D01*
X138975812Y-131374482D01*
X138988072Y-131250000D01*
X138985000Y-131160750D01*
X138826250Y-131002000D01*
X137927000Y-131002000D01*
X137673000Y-131002000D01*
X137653000Y-131002000D01*
X137653000Y-130748000D01*
X137673000Y-130748000D01*
X137673000Y-129752000D01*
X137927000Y-129752000D01*
X137927000Y-130748000D01*
X138826250Y-130748000D01*
X138985000Y-130589250D01*
X138988072Y-130500000D01*
X138975812Y-130375518D01*
X138939502Y-130255820D01*
X138936391Y-130250000D01*
X138939502Y-130244180D01*
X138975812Y-130124482D01*
X138988072Y-130000000D01*
X138985000Y-129910750D01*
X138826250Y-129752000D01*
X137927000Y-129752000D01*
X137673000Y-129752000D01*
X137653000Y-129752000D01*
X137653000Y-129498000D01*
X137673000Y-129498000D01*
X137673000Y-128773750D01*
X137927000Y-128773750D01*
X137927000Y-129498000D01*
X138826250Y-129498000D01*
X138985000Y-129339250D01*
X138988072Y-129250000D01*
X138975812Y-129125518D01*
X138939502Y-129005820D01*
X138880537Y-128895506D01*
X138801185Y-128798815D01*
X138704494Y-128719463D01*
X138594180Y-128660498D01*
X138474482Y-128624188D01*
X138350000Y-128611928D01*
X138085750Y-128615000D01*
X137927000Y-128773750D01*
X137673000Y-128773750D01*
X137514250Y-128615000D01*
X137250000Y-128611928D01*
X137125518Y-128624188D01*
X137005820Y-128660498D01*
X136895506Y-128719463D01*
X136798815Y-128798815D01*
X136750000Y-128858296D01*
X136701185Y-128798815D01*
X136604494Y-128719463D01*
X136494180Y-128660498D01*
X136374482Y-128624188D01*
X136250000Y-128611928D01*
X135779623Y-128611928D01*
X135699999Y-128604086D01*
X135620375Y-128611928D01*
X135150000Y-128611928D01*
X135025518Y-128624188D01*
X134905820Y-128660498D01*
X134795506Y-128719463D01*
X134698815Y-128798815D01*
X134619463Y-128895506D01*
X134560498Y-129005820D01*
X134524188Y-129125518D01*
X134512724Y-129241920D01*
X134448102Y-129254774D01*
X134259744Y-129332795D01*
X134090226Y-129446063D01*
X133946063Y-129590226D01*
X133832795Y-129759744D01*
X133754774Y-129948102D01*
X133715000Y-130148061D01*
X120720087Y-130148061D01*
X118803237Y-129033435D01*
X116919085Y-127763634D01*
X115123223Y-126371749D01*
X113423564Y-124863914D01*
X111827572Y-123246751D01*
X110342263Y-121527368D01*
X108974171Y-119713331D01*
X107729304Y-117812605D01*
X106613144Y-115833557D01*
X105630601Y-113784897D01*
X104875062Y-111898061D01*
X109465000Y-111898061D01*
X109465000Y-112101939D01*
X109504774Y-112301898D01*
X109582795Y-112490256D01*
X109696063Y-112659774D01*
X109840226Y-112803937D01*
X110009744Y-112917205D01*
X110198102Y-112995226D01*
X110262724Y-113008080D01*
X110274188Y-113124482D01*
X110310498Y-113244180D01*
X110369463Y-113354494D01*
X110448815Y-113451185D01*
X110545506Y-113530537D01*
X110655820Y-113589502D01*
X110775518Y-113625812D01*
X110900000Y-113638072D01*
X111370375Y-113638072D01*
X111449999Y-113645914D01*
X111529623Y-113638072D01*
X112000000Y-113638072D01*
X112124482Y-113625812D01*
X112244180Y-113589502D01*
X112354494Y-113530537D01*
X112451185Y-113451185D01*
X112500000Y-113391704D01*
X112548815Y-113451185D01*
X112645506Y-113530537D01*
X112755820Y-113589502D01*
X112875518Y-113625812D01*
X113000000Y-113638072D01*
X113264250Y-113635000D01*
X113423000Y-113476250D01*
X113423000Y-112752000D01*
X113677000Y-112752000D01*
X113677000Y-113476250D01*
X113835750Y-113635000D01*
X114100000Y-113638072D01*
X114224482Y-113625812D01*
X114344180Y-113589502D01*
X114454494Y-113530537D01*
X114551185Y-113451185D01*
X114630537Y-113354494D01*
X114689502Y-113244180D01*
X114725812Y-113124482D01*
X114738072Y-113000000D01*
X114735000Y-112910750D01*
X114576250Y-112752000D01*
X113677000Y-112752000D01*
X113423000Y-112752000D01*
X113403000Y-112752000D01*
X113403000Y-112498000D01*
X113423000Y-112498000D01*
X113423000Y-111502000D01*
X113677000Y-111502000D01*
X113677000Y-112498000D01*
X114576250Y-112498000D01*
X114735000Y-112339250D01*
X114738072Y-112250000D01*
X114725812Y-112125518D01*
X114689502Y-112005820D01*
X114686391Y-112000000D01*
X114689502Y-111994180D01*
X114725812Y-111874482D01*
X114738072Y-111750000D01*
X114735000Y-111660750D01*
X114576250Y-111502000D01*
X113677000Y-111502000D01*
X113423000Y-111502000D01*
X113403000Y-111502000D01*
X113403000Y-111248000D01*
X113423000Y-111248000D01*
X113423000Y-110523750D01*
X113677000Y-110523750D01*
X113677000Y-111248000D01*
X114576250Y-111248000D01*
X114735000Y-111089250D01*
X114738072Y-111000000D01*
X114725812Y-110875518D01*
X114689502Y-110755820D01*
X114631903Y-110648061D01*
X156215000Y-110648061D01*
X156215000Y-110851939D01*
X156254774Y-111051898D01*
X156332795Y-111240256D01*
X156446063Y-111409774D01*
X156590226Y-111553937D01*
X156759744Y-111667205D01*
X156948102Y-111745226D01*
X157012724Y-111758080D01*
X157024188Y-111874482D01*
X157060498Y-111994180D01*
X157119463Y-112104494D01*
X157198815Y-112201185D01*
X157295506Y-112280537D01*
X157405820Y-112339502D01*
X157525518Y-112375812D01*
X157650000Y-112388072D01*
X158120375Y-112388072D01*
X158199999Y-112395914D01*
X158279623Y-112388072D01*
X158750000Y-112388072D01*
X158874482Y-112375812D01*
X158994180Y-112339502D01*
X159104494Y-112280537D01*
X159201185Y-112201185D01*
X159250000Y-112141704D01*
X159298815Y-112201185D01*
X159395506Y-112280537D01*
X159505820Y-112339502D01*
X159625518Y-112375812D01*
X159750000Y-112388072D01*
X160014250Y-112385000D01*
X160173000Y-112226250D01*
X160173000Y-111502000D01*
X160427000Y-111502000D01*
X160427000Y-112226250D01*
X160585750Y-112385000D01*
X160850000Y-112388072D01*
X160974482Y-112375812D01*
X161094180Y-112339502D01*
X161204494Y-112280537D01*
X161301185Y-112201185D01*
X161380537Y-112104494D01*
X161439502Y-111994180D01*
X161475812Y-111874482D01*
X161488072Y-111750000D01*
X161485000Y-111660750D01*
X161326250Y-111502000D01*
X160427000Y-111502000D01*
X160173000Y-111502000D01*
X160153000Y-111502000D01*
X160153000Y-111248000D01*
X160173000Y-111248000D01*
X160173000Y-110252000D01*
X160427000Y-110252000D01*
X160427000Y-111248000D01*
X161326250Y-111248000D01*
X161485000Y-111089250D01*
X161488072Y-111000000D01*
X161475812Y-110875518D01*
X161439502Y-110755820D01*
X161436391Y-110750000D01*
X161439502Y-110744180D01*
X161475812Y-110624482D01*
X161488072Y-110500000D01*
X161485000Y-110410750D01*
X161326250Y-110252000D01*
X160427000Y-110252000D01*
X160173000Y-110252000D01*
X160153000Y-110252000D01*
X160153000Y-109998000D01*
X160173000Y-109998000D01*
X160173000Y-109273750D01*
X160427000Y-109273750D01*
X160427000Y-109998000D01*
X161326250Y-109998000D01*
X161485000Y-109839250D01*
X161488072Y-109750000D01*
X161475812Y-109625518D01*
X161439502Y-109505820D01*
X161380537Y-109395506D01*
X161301185Y-109298815D01*
X161204494Y-109219463D01*
X161094180Y-109160498D01*
X160974482Y-109124188D01*
X160850000Y-109111928D01*
X160585750Y-109115000D01*
X160427000Y-109273750D01*
X160173000Y-109273750D01*
X160014250Y-109115000D01*
X159750000Y-109111928D01*
X159625518Y-109124188D01*
X159505820Y-109160498D01*
X159395506Y-109219463D01*
X159298815Y-109298815D01*
X159250000Y-109358296D01*
X159201185Y-109298815D01*
X159104494Y-109219463D01*
X158994180Y-109160498D01*
X158874482Y-109124188D01*
X158750000Y-109111928D01*
X158279623Y-109111928D01*
X158199999Y-109104086D01*
X158120375Y-109111928D01*
X157650000Y-109111928D01*
X157525518Y-109124188D01*
X157405820Y-109160498D01*
X157295506Y-109219463D01*
X157198815Y-109298815D01*
X157119463Y-109395506D01*
X157060498Y-109505820D01*
X157024188Y-109625518D01*
X157012724Y-109741920D01*
X156948102Y-109754774D01*
X156759744Y-109832795D01*
X156590226Y-109946063D01*
X156446063Y-110090226D01*
X156332795Y-110259744D01*
X156254774Y-110448102D01*
X156215000Y-110648061D01*
X114631903Y-110648061D01*
X114630537Y-110645506D01*
X114551185Y-110548815D01*
X114454494Y-110469463D01*
X114344180Y-110410498D01*
X114224482Y-110374188D01*
X114100000Y-110361928D01*
X113835750Y-110365000D01*
X113677000Y-110523750D01*
X113423000Y-110523750D01*
X113264250Y-110365000D01*
X113000000Y-110361928D01*
X112875518Y-110374188D01*
X112755820Y-110410498D01*
X112645506Y-110469463D01*
X112548815Y-110548815D01*
X112500000Y-110608296D01*
X112451185Y-110548815D01*
X112354494Y-110469463D01*
X112244180Y-110410498D01*
X112124482Y-110374188D01*
X112000000Y-110361928D01*
X111529623Y-110361928D01*
X111449999Y-110354086D01*
X111370375Y-110361928D01*
X110900000Y-110361928D01*
X110775518Y-110374188D01*
X110655820Y-110410498D01*
X110545506Y-110469463D01*
X110448815Y-110548815D01*
X110369463Y-110645506D01*
X110310498Y-110755820D01*
X110274188Y-110875518D01*
X110262724Y-110991920D01*
X110198102Y-111004774D01*
X110009744Y-111082795D01*
X109840226Y-111196063D01*
X109696063Y-111340226D01*
X109582795Y-111509744D01*
X109504774Y-111698102D01*
X109465000Y-111898061D01*
X104875062Y-111898061D01*
X104785986Y-111675609D01*
X104083026Y-109515005D01*
X103524797Y-107312547D01*
X103113763Y-105077935D01*
X102889701Y-103148061D01*
X127465000Y-103148061D01*
X127465000Y-103351939D01*
X127504774Y-103551898D01*
X127582795Y-103740256D01*
X127696063Y-103909774D01*
X127840226Y-104053937D01*
X128009744Y-104167205D01*
X128198102Y-104245226D01*
X128262724Y-104258080D01*
X128274188Y-104374482D01*
X128310498Y-104494180D01*
X128369463Y-104604494D01*
X128448815Y-104701185D01*
X128545506Y-104780537D01*
X128655820Y-104839502D01*
X128775518Y-104875812D01*
X128900000Y-104888072D01*
X129370375Y-104888072D01*
X129449999Y-104895914D01*
X129529623Y-104888072D01*
X130000000Y-104888072D01*
X130124482Y-104875812D01*
X130244180Y-104839502D01*
X130354494Y-104780537D01*
X130451185Y-104701185D01*
X130500000Y-104641704D01*
X130548815Y-104701185D01*
X130645506Y-104780537D01*
X130755820Y-104839502D01*
X130875518Y-104875812D01*
X131000000Y-104888072D01*
X131264250Y-104885000D01*
X131423000Y-104726250D01*
X131423000Y-104002000D01*
X131677000Y-104002000D01*
X131677000Y-104726250D01*
X131835750Y-104885000D01*
X132100000Y-104888072D01*
X132224482Y-104875812D01*
X132344180Y-104839502D01*
X132454494Y-104780537D01*
X132551185Y-104701185D01*
X132630537Y-104604494D01*
X132689502Y-104494180D01*
X132725812Y-104374482D01*
X132738072Y-104250000D01*
X132735000Y-104160750D01*
X132576250Y-104002000D01*
X131677000Y-104002000D01*
X131423000Y-104002000D01*
X131403000Y-104002000D01*
X131403000Y-103748000D01*
X131423000Y-103748000D01*
X131423000Y-102752000D01*
X131677000Y-102752000D01*
X131677000Y-103748000D01*
X132576250Y-103748000D01*
X132735000Y-103589250D01*
X132738072Y-103500000D01*
X132725812Y-103375518D01*
X132689502Y-103255820D01*
X132686391Y-103250000D01*
X132689502Y-103244180D01*
X132725812Y-103124482D01*
X132738072Y-103000000D01*
X132735000Y-102910750D01*
X132576250Y-102752000D01*
X131677000Y-102752000D01*
X131423000Y-102752000D01*
X131403000Y-102752000D01*
X131403000Y-102498000D01*
X131423000Y-102498000D01*
X131423000Y-101773750D01*
X131677000Y-101773750D01*
X131677000Y-102498000D01*
X132576250Y-102498000D01*
X132735000Y-102339250D01*
X132738072Y-102250000D01*
X132725812Y-102125518D01*
X132689502Y-102005820D01*
X132630537Y-101895506D01*
X132551185Y-101798815D01*
X132454494Y-101719463D01*
X132344180Y-101660498D01*
X132224482Y-101624188D01*
X132100000Y-101611928D01*
X131835750Y-101615000D01*
X131677000Y-101773750D01*
X131423000Y-101773750D01*
X131264250Y-101615000D01*
X131000000Y-101611928D01*
X130875518Y-101624188D01*
X130755820Y-101660498D01*
X130645506Y-101719463D01*
X130548815Y-101798815D01*
X130500000Y-101858296D01*
X130451185Y-101798815D01*
X130354494Y-101719463D01*
X130244180Y-101660498D01*
X130124482Y-101624188D01*
X130000000Y-101611928D01*
X129529623Y-101611928D01*
X129449999Y-101604086D01*
X129370375Y-101611928D01*
X128900000Y-101611928D01*
X128775518Y-101624188D01*
X128655820Y-101660498D01*
X128545506Y-101719463D01*
X128448815Y-101798815D01*
X128369463Y-101895506D01*
X128310498Y-102005820D01*
X128274188Y-102125518D01*
X128262724Y-102241920D01*
X128198102Y-102254774D01*
X128009744Y-102332795D01*
X127840226Y-102446063D01*
X127696063Y-102590226D01*
X127582795Y-102759744D01*
X127504774Y-102948102D01*
X127465000Y-103148061D01*
X102889701Y-103148061D01*
X102851726Y-102820985D01*
X102769006Y-101143137D01*
X103085000Y-101143137D01*
X103085000Y-101356863D01*
X103126696Y-101566483D01*
X103208485Y-101763940D01*
X103327225Y-101941647D01*
X103478353Y-102092775D01*
X103656060Y-102211515D01*
X103853517Y-102293304D01*
X104063137Y-102335000D01*
X104276863Y-102335000D01*
X104486483Y-102293304D01*
X104683940Y-102211515D01*
X104861647Y-102092775D01*
X105012775Y-101941647D01*
X105131515Y-101763940D01*
X105213304Y-101566483D01*
X105255000Y-101356863D01*
X105255000Y-101143137D01*
X105213304Y-100933517D01*
X105131515Y-100736060D01*
X105012775Y-100558353D01*
X104861647Y-100407225D01*
X104683940Y-100288485D01*
X104486483Y-100206696D01*
X104276863Y-100165000D01*
X104063137Y-100165000D01*
X103853517Y-100206696D01*
X103656060Y-100288485D01*
X103478353Y-100407225D01*
X103327225Y-100558353D01*
X103208485Y-100736060D01*
X103126696Y-100933517D01*
X103085000Y-101143137D01*
X102769006Y-101143137D01*
X102739845Y-100551658D01*
X102778607Y-98279882D01*
X102790035Y-98143137D01*
X103085000Y-98143137D01*
X103085000Y-98356863D01*
X103126696Y-98566483D01*
X103208485Y-98763940D01*
X103327225Y-98941647D01*
X103478353Y-99092775D01*
X103656060Y-99211515D01*
X103853517Y-99293304D01*
X104063137Y-99335000D01*
X104276863Y-99335000D01*
X104486483Y-99293304D01*
X104683940Y-99211515D01*
X104861647Y-99092775D01*
X105012775Y-98941647D01*
X105131515Y-98763940D01*
X105213304Y-98566483D01*
X105255000Y-98356863D01*
X105255000Y-98143137D01*
X105213304Y-97933517D01*
X105131515Y-97736060D01*
X105012775Y-97558353D01*
X104861647Y-97407225D01*
X104683940Y-97288485D01*
X104486483Y-97206696D01*
X104276863Y-97165000D01*
X104063137Y-97165000D01*
X103853517Y-97206696D01*
X103656060Y-97288485D01*
X103478353Y-97407225D01*
X103327225Y-97558353D01*
X103208485Y-97736060D01*
X103126696Y-97933517D01*
X103085000Y-98143137D01*
X102790035Y-98143137D01*
X102914989Y-96648061D01*
X109965000Y-96648061D01*
X109965000Y-96851939D01*
X110004774Y-97051898D01*
X110082795Y-97240256D01*
X110196063Y-97409774D01*
X110340226Y-97553937D01*
X110509744Y-97667205D01*
X110698102Y-97745226D01*
X110762724Y-97758080D01*
X110774188Y-97874482D01*
X110810498Y-97994180D01*
X110869463Y-98104494D01*
X110948815Y-98201185D01*
X111045506Y-98280537D01*
X111155820Y-98339502D01*
X111275518Y-98375812D01*
X111400000Y-98388072D01*
X111870375Y-98388072D01*
X111949999Y-98395914D01*
X112029623Y-98388072D01*
X112500000Y-98388072D01*
X112624482Y-98375812D01*
X112744180Y-98339502D01*
X112854494Y-98280537D01*
X112951185Y-98201185D01*
X113000000Y-98141704D01*
X113048815Y-98201185D01*
X113145506Y-98280537D01*
X113255820Y-98339502D01*
X113375518Y-98375812D01*
X113500000Y-98388072D01*
X113764250Y-98385000D01*
X113923000Y-98226250D01*
X113923000Y-97502000D01*
X114177000Y-97502000D01*
X114177000Y-98226250D01*
X114335750Y-98385000D01*
X114600000Y-98388072D01*
X114724482Y-98375812D01*
X114844180Y-98339502D01*
X114954494Y-98280537D01*
X115051185Y-98201185D01*
X115130537Y-98104494D01*
X115189502Y-97994180D01*
X115225812Y-97874482D01*
X115238072Y-97750000D01*
X115235000Y-97660750D01*
X115076250Y-97502000D01*
X114177000Y-97502000D01*
X113923000Y-97502000D01*
X113903000Y-97502000D01*
X113903000Y-97248000D01*
X113923000Y-97248000D01*
X113923000Y-96252000D01*
X114177000Y-96252000D01*
X114177000Y-97248000D01*
X115076250Y-97248000D01*
X115235000Y-97089250D01*
X115238072Y-97000000D01*
X115225812Y-96875518D01*
X115189502Y-96755820D01*
X115186391Y-96750000D01*
X115189502Y-96744180D01*
X115225812Y-96624482D01*
X115238072Y-96500000D01*
X115235000Y-96410750D01*
X115076250Y-96252000D01*
X114177000Y-96252000D01*
X113923000Y-96252000D01*
X113903000Y-96252000D01*
X113903000Y-95998000D01*
X113923000Y-95998000D01*
X113923000Y-95273750D01*
X114177000Y-95273750D01*
X114177000Y-95998000D01*
X115076250Y-95998000D01*
X115235000Y-95839250D01*
X115238072Y-95750000D01*
X115225812Y-95625518D01*
X115189502Y-95505820D01*
X115130537Y-95395506D01*
X115051185Y-95298815D01*
X114954494Y-95219463D01*
X114844180Y-95160498D01*
X114724482Y-95124188D01*
X114600000Y-95111928D01*
X114335750Y-95115000D01*
X114177000Y-95273750D01*
X113923000Y-95273750D01*
X113764250Y-95115000D01*
X113500000Y-95111928D01*
X113375518Y-95124188D01*
X113255820Y-95160498D01*
X113145506Y-95219463D01*
X113048815Y-95298815D01*
X113000000Y-95358296D01*
X112951185Y-95298815D01*
X112854494Y-95219463D01*
X112744180Y-95160498D01*
X112624482Y-95124188D01*
X112500000Y-95111928D01*
X112029623Y-95111928D01*
X111949999Y-95104086D01*
X111870375Y-95111928D01*
X111400000Y-95111928D01*
X111275518Y-95124188D01*
X111155820Y-95160498D01*
X111045506Y-95219463D01*
X110948815Y-95298815D01*
X110869463Y-95395506D01*
X110810498Y-95505820D01*
X110774188Y-95625518D01*
X110762724Y-95741920D01*
X110698102Y-95754774D01*
X110509744Y-95832795D01*
X110340226Y-95946063D01*
X110196063Y-96090226D01*
X110082795Y-96259744D01*
X110004774Y-96448102D01*
X109965000Y-96648061D01*
X102914989Y-96648061D01*
X102967842Y-96015687D01*
X103287252Y-93898061D01*
X136465000Y-93898061D01*
X136465000Y-94101939D01*
X136504774Y-94301898D01*
X136582795Y-94490256D01*
X136696063Y-94659774D01*
X136840226Y-94803937D01*
X137009744Y-94917205D01*
X137198102Y-94995226D01*
X137262724Y-95008080D01*
X137274188Y-95124482D01*
X137310498Y-95244180D01*
X137369463Y-95354494D01*
X137448815Y-95451185D01*
X137545506Y-95530537D01*
X137655820Y-95589502D01*
X137775518Y-95625812D01*
X137900000Y-95638072D01*
X138370375Y-95638072D01*
X138449999Y-95645914D01*
X138529623Y-95638072D01*
X139000000Y-95638072D01*
X139124482Y-95625812D01*
X139244180Y-95589502D01*
X139354494Y-95530537D01*
X139451185Y-95451185D01*
X139500000Y-95391704D01*
X139548815Y-95451185D01*
X139645506Y-95530537D01*
X139755820Y-95589502D01*
X139875518Y-95625812D01*
X140000000Y-95638072D01*
X140264250Y-95635000D01*
X140423000Y-95476250D01*
X140423000Y-94752000D01*
X140677000Y-94752000D01*
X140677000Y-95476250D01*
X140835750Y-95635000D01*
X141100000Y-95638072D01*
X141224482Y-95625812D01*
X141344180Y-95589502D01*
X141454494Y-95530537D01*
X141551185Y-95451185D01*
X141630537Y-95354494D01*
X141689502Y-95244180D01*
X141725812Y-95124482D01*
X141738072Y-95000000D01*
X141735000Y-94910750D01*
X141576250Y-94752000D01*
X140677000Y-94752000D01*
X140423000Y-94752000D01*
X140403000Y-94752000D01*
X140403000Y-94498000D01*
X140423000Y-94498000D01*
X140423000Y-93502000D01*
X140677000Y-93502000D01*
X140677000Y-94498000D01*
X141576250Y-94498000D01*
X141735000Y-94339250D01*
X141738072Y-94250000D01*
X141725812Y-94125518D01*
X141689502Y-94005820D01*
X141686391Y-94000000D01*
X141689502Y-93994180D01*
X141725812Y-93874482D01*
X141738072Y-93750000D01*
X141735000Y-93660750D01*
X141576250Y-93502000D01*
X140677000Y-93502000D01*
X140423000Y-93502000D01*
X140403000Y-93502000D01*
X140403000Y-93248000D01*
X140423000Y-93248000D01*
X140423000Y-92523750D01*
X140677000Y-92523750D01*
X140677000Y-93248000D01*
X141576250Y-93248000D01*
X141735000Y-93089250D01*
X141738072Y-93000000D01*
X141725812Y-92875518D01*
X141689502Y-92755820D01*
X141630537Y-92645506D01*
X141551185Y-92548815D01*
X141454494Y-92469463D01*
X141344180Y-92410498D01*
X141224482Y-92374188D01*
X141100000Y-92361928D01*
X140835750Y-92365000D01*
X140677000Y-92523750D01*
X140423000Y-92523750D01*
X140264250Y-92365000D01*
X140000000Y-92361928D01*
X139875518Y-92374188D01*
X139755820Y-92410498D01*
X139645506Y-92469463D01*
X139548815Y-92548815D01*
X139500000Y-92608296D01*
X139451185Y-92548815D01*
X139354494Y-92469463D01*
X139244180Y-92410498D01*
X139124482Y-92374188D01*
X139000000Y-92361928D01*
X138529623Y-92361928D01*
X138449999Y-92354086D01*
X138370375Y-92361928D01*
X137900000Y-92361928D01*
X137775518Y-92374188D01*
X137655820Y-92410498D01*
X137545506Y-92469463D01*
X137448815Y-92548815D01*
X137369463Y-92645506D01*
X137310498Y-92755820D01*
X137274188Y-92875518D01*
X137262724Y-92991920D01*
X137198102Y-93004774D01*
X137009744Y-93082795D01*
X136840226Y-93196063D01*
X136696063Y-93340226D01*
X136582795Y-93509744D01*
X136504774Y-93698102D01*
X136465000Y-93898061D01*
X103287252Y-93898061D01*
X103306719Y-93768999D01*
X103793749Y-91549706D01*
X104426782Y-89367594D01*
X105203052Y-87232203D01*
X106119133Y-85152960D01*
X107170992Y-83139015D01*
X108354015Y-81199200D01*
X109663000Y-79342048D01*
X111092189Y-77575730D01*
X112635284Y-75908027D01*
X113966613Y-74648061D01*
X120465000Y-74648061D01*
X120465000Y-74851939D01*
X120504774Y-75051898D01*
X120582795Y-75240256D01*
X120696063Y-75409774D01*
X120840226Y-75553937D01*
X121009744Y-75667205D01*
X121198102Y-75745226D01*
X121262724Y-75758080D01*
X121274188Y-75874482D01*
X121310498Y-75994180D01*
X121369463Y-76104494D01*
X121448815Y-76201185D01*
X121545506Y-76280537D01*
X121655820Y-76339502D01*
X121775518Y-76375812D01*
X121900000Y-76388072D01*
X122370375Y-76388072D01*
X122449999Y-76395914D01*
X122529623Y-76388072D01*
X123000000Y-76388072D01*
X123124482Y-76375812D01*
X123244180Y-76339502D01*
X123354494Y-76280537D01*
X123451185Y-76201185D01*
X123500000Y-76141704D01*
X123548815Y-76201185D01*
X123645506Y-76280537D01*
X123755820Y-76339502D01*
X123875518Y-76375812D01*
X124000000Y-76388072D01*
X124264250Y-76385000D01*
X124423000Y-76226250D01*
X124423000Y-75502000D01*
X124677000Y-75502000D01*
X124677000Y-76226250D01*
X124835750Y-76385000D01*
X125100000Y-76388072D01*
X125224482Y-76375812D01*
X125344180Y-76339502D01*
X125454494Y-76280537D01*
X125551185Y-76201185D01*
X125630537Y-76104494D01*
X125689502Y-75994180D01*
X125725812Y-75874482D01*
X125738072Y-75750000D01*
X125735000Y-75660750D01*
X125576250Y-75502000D01*
X124677000Y-75502000D01*
X124423000Y-75502000D01*
X124403000Y-75502000D01*
X124403000Y-75248000D01*
X124423000Y-75248000D01*
X124423000Y-74252000D01*
X124677000Y-74252000D01*
X124677000Y-75248000D01*
X125576250Y-75248000D01*
X125735000Y-75089250D01*
X125738072Y-75000000D01*
X125725812Y-74875518D01*
X125689502Y-74755820D01*
X125686391Y-74750000D01*
X125689502Y-74744180D01*
X125725812Y-74624482D01*
X125738072Y-74500000D01*
X125735000Y-74410750D01*
X125576250Y-74252000D01*
X124677000Y-74252000D01*
X124423000Y-74252000D01*
X124403000Y-74252000D01*
X124403000Y-74148061D01*
X143465000Y-74148061D01*
X143465000Y-74351939D01*
X143504774Y-74551898D01*
X143582795Y-74740256D01*
X143696063Y-74909774D01*
X143840226Y-75053937D01*
X144009744Y-75167205D01*
X144198102Y-75245226D01*
X144262724Y-75258080D01*
X144274188Y-75374482D01*
X144310498Y-75494180D01*
X144369463Y-75604494D01*
X144448815Y-75701185D01*
X144545506Y-75780537D01*
X144655820Y-75839502D01*
X144775518Y-75875812D01*
X144900000Y-75888072D01*
X145370375Y-75888072D01*
X145449999Y-75895914D01*
X145529623Y-75888072D01*
X146000000Y-75888072D01*
X146124482Y-75875812D01*
X146244180Y-75839502D01*
X146354494Y-75780537D01*
X146451185Y-75701185D01*
X146500000Y-75641704D01*
X146548815Y-75701185D01*
X146645506Y-75780537D01*
X146755820Y-75839502D01*
X146875518Y-75875812D01*
X147000000Y-75888072D01*
X147264250Y-75885000D01*
X147423000Y-75726250D01*
X147423000Y-75002000D01*
X147677000Y-75002000D01*
X147677000Y-75726250D01*
X147835750Y-75885000D01*
X148100000Y-75888072D01*
X148224482Y-75875812D01*
X148344180Y-75839502D01*
X148454494Y-75780537D01*
X148551185Y-75701185D01*
X148630537Y-75604494D01*
X148689502Y-75494180D01*
X148725812Y-75374482D01*
X148738072Y-75250000D01*
X148735000Y-75160750D01*
X148576250Y-75002000D01*
X147677000Y-75002000D01*
X147423000Y-75002000D01*
X147403000Y-75002000D01*
X147403000Y-74748000D01*
X147423000Y-74748000D01*
X147423000Y-73752000D01*
X147677000Y-73752000D01*
X147677000Y-74748000D01*
X148576250Y-74748000D01*
X148735000Y-74589250D01*
X148738072Y-74500000D01*
X148725812Y-74375518D01*
X148689502Y-74255820D01*
X148686391Y-74250000D01*
X148689502Y-74244180D01*
X148725812Y-74124482D01*
X148738072Y-74000000D01*
X148735000Y-73910750D01*
X148576250Y-73752000D01*
X147677000Y-73752000D01*
X147423000Y-73752000D01*
X147403000Y-73752000D01*
X147403000Y-73498000D01*
X147423000Y-73498000D01*
X147423000Y-72773750D01*
X147677000Y-72773750D01*
X147677000Y-73498000D01*
X148576250Y-73498000D01*
X148735000Y-73339250D01*
X148738072Y-73250000D01*
X148725812Y-73125518D01*
X148689502Y-73005820D01*
X148630537Y-72895506D01*
X148551185Y-72798815D01*
X148454494Y-72719463D01*
X148344180Y-72660498D01*
X148224482Y-72624188D01*
X148100000Y-72611928D01*
X147835750Y-72615000D01*
X147677000Y-72773750D01*
X147423000Y-72773750D01*
X147264250Y-72615000D01*
X147000000Y-72611928D01*
X146875518Y-72624188D01*
X146755820Y-72660498D01*
X146645506Y-72719463D01*
X146548815Y-72798815D01*
X146500000Y-72858296D01*
X146451185Y-72798815D01*
X146354494Y-72719463D01*
X146244180Y-72660498D01*
X146124482Y-72624188D01*
X146000000Y-72611928D01*
X145529623Y-72611928D01*
X145449999Y-72604086D01*
X145370375Y-72611928D01*
X144900000Y-72611928D01*
X144775518Y-72624188D01*
X144655820Y-72660498D01*
X144545506Y-72719463D01*
X144448815Y-72798815D01*
X144369463Y-72895506D01*
X144310498Y-73005820D01*
X144274188Y-73125518D01*
X144262724Y-73241920D01*
X144198102Y-73254774D01*
X144009744Y-73332795D01*
X143840226Y-73446063D01*
X143696063Y-73590226D01*
X143582795Y-73759744D01*
X143504774Y-73948102D01*
X143465000Y-74148061D01*
X124403000Y-74148061D01*
X124403000Y-73998000D01*
X124423000Y-73998000D01*
X124423000Y-73273750D01*
X124677000Y-73273750D01*
X124677000Y-73998000D01*
X125576250Y-73998000D01*
X125735000Y-73839250D01*
X125738072Y-73750000D01*
X125725812Y-73625518D01*
X125689502Y-73505820D01*
X125630537Y-73395506D01*
X125551185Y-73298815D01*
X125454494Y-73219463D01*
X125344180Y-73160498D01*
X125224482Y-73124188D01*
X125100000Y-73111928D01*
X124835750Y-73115000D01*
X124677000Y-73273750D01*
X124423000Y-73273750D01*
X124264250Y-73115000D01*
X124000000Y-73111928D01*
X123875518Y-73124188D01*
X123755820Y-73160498D01*
X123645506Y-73219463D01*
X123548815Y-73298815D01*
X123500000Y-73358296D01*
X123451185Y-73298815D01*
X123354494Y-73219463D01*
X123244180Y-73160498D01*
X123124482Y-73124188D01*
X123000000Y-73111928D01*
X122529623Y-73111928D01*
X122449999Y-73104086D01*
X122370375Y-73111928D01*
X121900000Y-73111928D01*
X121775518Y-73124188D01*
X121655820Y-73160498D01*
X121545506Y-73219463D01*
X121448815Y-73298815D01*
X121369463Y-73395506D01*
X121310498Y-73505820D01*
X121274188Y-73625518D01*
X121262724Y-73741920D01*
X121198102Y-73754774D01*
X121009744Y-73832795D01*
X120840226Y-73946063D01*
X120696063Y-74090226D01*
X120582795Y-74259744D01*
X120504774Y-74448102D01*
X120465000Y-74648061D01*
X113966613Y-74648061D01*
X114285522Y-74346247D01*
X116035631Y-72897273D01*
X117877934Y-71567463D01*
X119804304Y-70362683D01*
X121806298Y-69288211D01*
X123875077Y-68348792D01*
X126001593Y-67548534D01*
X128186747Y-66887862D01*
X128436510Y-66822338D01*
X128452528Y-66817563D01*
X128459226Y-66815987D01*
X128804024Y-66713600D01*
X128807380Y-66712269D01*
X128810916Y-66711517D01*
X128890228Y-66682021D01*
X129704199Y-66324712D01*
X129724464Y-66313571D01*
X129745874Y-66304834D01*
X129818696Y-66261767D01*
X129818710Y-66261759D01*
X129818715Y-66261755D01*
X130556543Y-65765956D01*
X130574511Y-65751406D01*
X130594041Y-65739012D01*
X130658097Y-65683720D01*
X131296470Y-65065093D01*
X131311582Y-65047586D01*
X131328603Y-65031934D01*
X131381840Y-64966192D01*
X131381856Y-64966173D01*
X131381861Y-64966165D01*
X131900590Y-64244277D01*
X131912363Y-64224370D01*
X131926343Y-64205952D01*
X131967109Y-64131800D01*
X132349809Y-63329453D01*
X132357869Y-63307780D01*
X132368369Y-63287173D01*
X132395359Y-63206974D01*
X132629927Y-62349538D01*
X132634022Y-62326778D01*
X132640706Y-62304640D01*
X132653067Y-62220928D01*
X132731782Y-61338949D01*
X132735000Y-61306272D01*
X132735000Y-60032731D01*
X132762021Y-59729963D01*
X134258266Y-59729963D01*
X134258266Y-60270037D01*
X134363629Y-60799734D01*
X134570307Y-61298698D01*
X134870356Y-61747753D01*
X135252247Y-62129644D01*
X135701302Y-62429693D01*
X136200266Y-62636371D01*
X136729963Y-62741734D01*
X137270037Y-62741734D01*
X137799734Y-62636371D01*
X138298698Y-62429693D01*
X138747753Y-62129644D01*
X139129644Y-61747753D01*
X139429693Y-61298698D01*
X139636371Y-60799734D01*
X139741734Y-60270037D01*
X139741734Y-59729963D01*
X139636371Y-59200266D01*
X139429693Y-58701302D01*
X139129644Y-58252247D01*
X138747753Y-57870356D01*
X138298698Y-57570307D01*
X137799734Y-57363629D01*
X137270037Y-57258266D01*
X136729963Y-57258266D01*
X136200266Y-57363629D01*
X135701302Y-57570307D01*
X135252247Y-57870356D01*
X134870356Y-58252247D01*
X134570307Y-58701302D01*
X134363629Y-59200266D01*
X134258266Y-59729963D01*
X132762021Y-59729963D01*
X132805281Y-59245253D01*
X133005231Y-58514357D01*
X133331450Y-57830425D01*
X133773626Y-57215072D01*
X134317789Y-56687741D01*
X134946726Y-56265114D01*
X135640570Y-55960537D01*
X136377386Y-55783643D01*
X137133871Y-55740024D01*
X137886138Y-55831059D01*
%TA.AperFunction,Conductor*%
D14*
G36*
X137886138Y-55831059D02*
G01*
X138610388Y-56053867D01*
X139283738Y-56401409D01*
X139884901Y-56862699D01*
X140394872Y-57423149D01*
X140797540Y-58065057D01*
X141080170Y-58768122D01*
X141236190Y-59521513D01*
X141265000Y-60021169D01*
X141265001Y-61306272D01*
X141266298Y-61319440D01*
X141278413Y-61656049D01*
X141278863Y-61659632D01*
X141278707Y-61663242D01*
X141287438Y-61747410D01*
X141429908Y-62624862D01*
X141435629Y-62647269D01*
X141438736Y-62670183D01*
X141462234Y-62751474D01*
X141757835Y-63589830D01*
X141767433Y-63610870D01*
X141774549Y-63632871D01*
X141812059Y-63708691D01*
X141812071Y-63708717D01*
X141812077Y-63708725D01*
X142251461Y-64481476D01*
X142264630Y-64500478D01*
X142275533Y-64520879D01*
X142325894Y-64588881D01*
X142895182Y-65271616D01*
X142911512Y-65287990D01*
X142925851Y-65306132D01*
X142987458Y-65364142D01*
X143668651Y-65935276D01*
X143687625Y-65948502D01*
X143704950Y-65963817D01*
X143775855Y-66010000D01*
X144547423Y-66451478D01*
X144568436Y-66461133D01*
X144588200Y-66473139D01*
X144666163Y-66506036D01*
X145503715Y-66803905D01*
X145508021Y-66805017D01*
X145525587Y-66811299D01*
X145542755Y-66816572D01*
X147746053Y-67464098D01*
X149878711Y-68247813D01*
X151954729Y-69171140D01*
X153965017Y-70230036D01*
X155900673Y-71419812D01*
X157753239Y-72735268D01*
X159514561Y-74170616D01*
X161176886Y-75719540D01*
X162732884Y-77375207D01*
X164175738Y-79130360D01*
X165499106Y-80977290D01*
X166697162Y-82907865D01*
X167764630Y-84913581D01*
X168696830Y-86985643D01*
X169489658Y-89114933D01*
X170139624Y-91292080D01*
X170643873Y-93507517D01*
X171000188Y-95751501D01*
X171207004Y-98014175D01*
X171263407Y-100285560D01*
X171169153Y-102555700D01*
X170924654Y-104814605D01*
X170530986Y-107052337D01*
X169989882Y-109259064D01*
X169303718Y-111425077D01*
X168475512Y-113540851D01*
X167508906Y-115597090D01*
X166408155Y-117584736D01*
X165178083Y-119495080D01*
X163824120Y-121319689D01*
X162352204Y-123050560D01*
X160768823Y-124680064D01*
X159080926Y-126201055D01*
X157295931Y-127606843D01*
X155421695Y-128891239D01*
X153466456Y-130048599D01*
X151438820Y-131073832D01*
X149347702Y-131962428D01*
X147202263Y-132710493D01*
X145011999Y-133314718D01*
X142786467Y-133772464D01*
X140535523Y-134081705D01*
X138269022Y-134241089D01*
X135996953Y-134249911D01*
X133729262Y-134108134D01*
X131475992Y-133816385D01*
X129246983Y-133375938D01*
X127052076Y-132788738D01*
X124900917Y-132057366D01*
X122802939Y-131185029D01*
X120767401Y-130175574D01*
X120720087Y-130148061D01*
X133715000Y-130148061D01*
X133715000Y-130351939D01*
X133754774Y-130551898D01*
X133832795Y-130740256D01*
X133946063Y-130909774D01*
X134090226Y-131053937D01*
X134259744Y-131167205D01*
X134448102Y-131245226D01*
X134512724Y-131258080D01*
X134524188Y-131374482D01*
X134560498Y-131494180D01*
X134619463Y-131604494D01*
X134698815Y-131701185D01*
X134795506Y-131780537D01*
X134905820Y-131839502D01*
X135025518Y-131875812D01*
X135150000Y-131888072D01*
X135620375Y-131888072D01*
X135699999Y-131895914D01*
X135779623Y-131888072D01*
X136250000Y-131888072D01*
X136374482Y-131875812D01*
X136494180Y-131839502D01*
X136604494Y-131780537D01*
X136701185Y-131701185D01*
X136750000Y-131641704D01*
X136798815Y-131701185D01*
X136895506Y-131780537D01*
X137005820Y-131839502D01*
X137125518Y-131875812D01*
X137250000Y-131888072D01*
X137514250Y-131885000D01*
X137673000Y-131726250D01*
X137673000Y-131002000D01*
X137927000Y-131002000D01*
X137927000Y-131726250D01*
X138085750Y-131885000D01*
X138350000Y-131888072D01*
X138474482Y-131875812D01*
X138594180Y-131839502D01*
X138704494Y-131780537D01*
X138801185Y-131701185D01*
X138880537Y-131604494D01*
X138939502Y-131494180D01*
X138975812Y-131374482D01*
X138988072Y-131250000D01*
X138985000Y-131160750D01*
X138826250Y-131002000D01*
X137927000Y-131002000D01*
X137673000Y-131002000D01*
X137653000Y-131002000D01*
X137653000Y-130748000D01*
X137673000Y-130748000D01*
X137673000Y-129752000D01*
X137927000Y-129752000D01*
X137927000Y-130748000D01*
X138826250Y-130748000D01*
X138985000Y-130589250D01*
X138988072Y-130500000D01*
X138975812Y-130375518D01*
X138939502Y-130255820D01*
X138936391Y-130250000D01*
X138939502Y-130244180D01*
X138975812Y-130124482D01*
X138988072Y-130000000D01*
X138985000Y-129910750D01*
X138826250Y-129752000D01*
X137927000Y-129752000D01*
X137673000Y-129752000D01*
X137653000Y-129752000D01*
X137653000Y-129498000D01*
X137673000Y-129498000D01*
X137673000Y-128773750D01*
X137927000Y-128773750D01*
X137927000Y-129498000D01*
X138826250Y-129498000D01*
X138985000Y-129339250D01*
X138988072Y-129250000D01*
X138975812Y-129125518D01*
X138939502Y-129005820D01*
X138880537Y-128895506D01*
X138801185Y-128798815D01*
X138704494Y-128719463D01*
X138594180Y-128660498D01*
X138474482Y-128624188D01*
X138350000Y-128611928D01*
X138085750Y-128615000D01*
X137927000Y-128773750D01*
X137673000Y-128773750D01*
X137514250Y-128615000D01*
X137250000Y-128611928D01*
X137125518Y-128624188D01*
X137005820Y-128660498D01*
X136895506Y-128719463D01*
X136798815Y-128798815D01*
X136750000Y-128858296D01*
X136701185Y-128798815D01*
X136604494Y-128719463D01*
X136494180Y-128660498D01*
X136374482Y-128624188D01*
X136250000Y-128611928D01*
X135779623Y-128611928D01*
X135699999Y-128604086D01*
X135620375Y-128611928D01*
X135150000Y-128611928D01*
X135025518Y-128624188D01*
X134905820Y-128660498D01*
X134795506Y-128719463D01*
X134698815Y-128798815D01*
X134619463Y-128895506D01*
X134560498Y-129005820D01*
X134524188Y-129125518D01*
X134512724Y-129241920D01*
X134448102Y-129254774D01*
X134259744Y-129332795D01*
X134090226Y-129446063D01*
X133946063Y-129590226D01*
X133832795Y-129759744D01*
X133754774Y-129948102D01*
X133715000Y-130148061D01*
X120720087Y-130148061D01*
X118803237Y-129033435D01*
X116919085Y-127763634D01*
X115123223Y-126371749D01*
X113423564Y-124863914D01*
X111827572Y-123246751D01*
X110342263Y-121527368D01*
X108974171Y-119713331D01*
X107729304Y-117812605D01*
X106613144Y-115833557D01*
X105630601Y-113784897D01*
X104875062Y-111898061D01*
X109465000Y-111898061D01*
X109465000Y-112101939D01*
X109504774Y-112301898D01*
X109582795Y-112490256D01*
X109696063Y-112659774D01*
X109840226Y-112803937D01*
X110009744Y-112917205D01*
X110198102Y-112995226D01*
X110262724Y-113008080D01*
X110274188Y-113124482D01*
X110310498Y-113244180D01*
X110369463Y-113354494D01*
X110448815Y-113451185D01*
X110545506Y-113530537D01*
X110655820Y-113589502D01*
X110775518Y-113625812D01*
X110900000Y-113638072D01*
X111370375Y-113638072D01*
X111449999Y-113645914D01*
X111529623Y-113638072D01*
X112000000Y-113638072D01*
X112124482Y-113625812D01*
X112244180Y-113589502D01*
X112354494Y-113530537D01*
X112451185Y-113451185D01*
X112500000Y-113391704D01*
X112548815Y-113451185D01*
X112645506Y-113530537D01*
X112755820Y-113589502D01*
X112875518Y-113625812D01*
X113000000Y-113638072D01*
X113264250Y-113635000D01*
X113423000Y-113476250D01*
X113423000Y-112752000D01*
X113677000Y-112752000D01*
X113677000Y-113476250D01*
X113835750Y-113635000D01*
X114100000Y-113638072D01*
X114224482Y-113625812D01*
X114344180Y-113589502D01*
X114454494Y-113530537D01*
X114551185Y-113451185D01*
X114630537Y-113354494D01*
X114689502Y-113244180D01*
X114725812Y-113124482D01*
X114738072Y-113000000D01*
X114735000Y-112910750D01*
X114576250Y-112752000D01*
X113677000Y-112752000D01*
X113423000Y-112752000D01*
X113403000Y-112752000D01*
X113403000Y-112498000D01*
X113423000Y-112498000D01*
X113423000Y-111502000D01*
X113677000Y-111502000D01*
X113677000Y-112498000D01*
X114576250Y-112498000D01*
X114735000Y-112339250D01*
X114738072Y-112250000D01*
X114725812Y-112125518D01*
X114689502Y-112005820D01*
X114686391Y-112000000D01*
X114689502Y-111994180D01*
X114725812Y-111874482D01*
X114738072Y-111750000D01*
X114735000Y-111660750D01*
X114576250Y-111502000D01*
X113677000Y-111502000D01*
X113423000Y-111502000D01*
X113403000Y-111502000D01*
X113403000Y-111248000D01*
X113423000Y-111248000D01*
X113423000Y-110523750D01*
X113677000Y-110523750D01*
X113677000Y-111248000D01*
X114576250Y-111248000D01*
X114735000Y-111089250D01*
X114738072Y-111000000D01*
X114725812Y-110875518D01*
X114689502Y-110755820D01*
X114631903Y-110648061D01*
X156215000Y-110648061D01*
X156215000Y-110851939D01*
X156254774Y-111051898D01*
X156332795Y-111240256D01*
X156446063Y-111409774D01*
X156590226Y-111553937D01*
X156759744Y-111667205D01*
X156948102Y-111745226D01*
X157012724Y-111758080D01*
X157024188Y-111874482D01*
X157060498Y-111994180D01*
X157119463Y-112104494D01*
X157198815Y-112201185D01*
X157295506Y-112280537D01*
X157405820Y-112339502D01*
X157525518Y-112375812D01*
X157650000Y-112388072D01*
X158120375Y-112388072D01*
X158199999Y-112395914D01*
X158279623Y-112388072D01*
X158750000Y-112388072D01*
X158874482Y-112375812D01*
X158994180Y-112339502D01*
X159104494Y-112280537D01*
X159201185Y-112201185D01*
X159250000Y-112141704D01*
X159298815Y-112201185D01*
X159395506Y-112280537D01*
X159505820Y-112339502D01*
X159625518Y-112375812D01*
X159750000Y-112388072D01*
X160014250Y-112385000D01*
X160173000Y-112226250D01*
X160173000Y-111502000D01*
X160427000Y-111502000D01*
X160427000Y-112226250D01*
X160585750Y-112385000D01*
X160850000Y-112388072D01*
X160974482Y-112375812D01*
X161094180Y-112339502D01*
X161204494Y-112280537D01*
X161301185Y-112201185D01*
X161380537Y-112104494D01*
X161439502Y-111994180D01*
X161475812Y-111874482D01*
X161488072Y-111750000D01*
X161485000Y-111660750D01*
X161326250Y-111502000D01*
X160427000Y-111502000D01*
X160173000Y-111502000D01*
X160153000Y-111502000D01*
X160153000Y-111248000D01*
X160173000Y-111248000D01*
X160173000Y-110252000D01*
X160427000Y-110252000D01*
X160427000Y-111248000D01*
X161326250Y-111248000D01*
X161485000Y-111089250D01*
X161488072Y-111000000D01*
X161475812Y-110875518D01*
X161439502Y-110755820D01*
X161436391Y-110750000D01*
X161439502Y-110744180D01*
X161475812Y-110624482D01*
X161488072Y-110500000D01*
X161485000Y-110410750D01*
X161326250Y-110252000D01*
X160427000Y-110252000D01*
X160173000Y-110252000D01*
X160153000Y-110252000D01*
X160153000Y-109998000D01*
X160173000Y-109998000D01*
X160173000Y-109273750D01*
X160427000Y-109273750D01*
X160427000Y-109998000D01*
X161326250Y-109998000D01*
X161485000Y-109839250D01*
X161488072Y-109750000D01*
X161475812Y-109625518D01*
X161439502Y-109505820D01*
X161380537Y-109395506D01*
X161301185Y-109298815D01*
X161204494Y-109219463D01*
X161094180Y-109160498D01*
X160974482Y-109124188D01*
X160850000Y-109111928D01*
X160585750Y-109115000D01*
X160427000Y-109273750D01*
X160173000Y-109273750D01*
X160014250Y-109115000D01*
X159750000Y-109111928D01*
X159625518Y-109124188D01*
X159505820Y-109160498D01*
X159395506Y-109219463D01*
X159298815Y-109298815D01*
X159250000Y-109358296D01*
X159201185Y-109298815D01*
X159104494Y-109219463D01*
X158994180Y-109160498D01*
X158874482Y-109124188D01*
X158750000Y-109111928D01*
X158279623Y-109111928D01*
X158199999Y-109104086D01*
X158120375Y-109111928D01*
X157650000Y-109111928D01*
X157525518Y-109124188D01*
X157405820Y-109160498D01*
X157295506Y-109219463D01*
X157198815Y-109298815D01*
X157119463Y-109395506D01*
X157060498Y-109505820D01*
X157024188Y-109625518D01*
X157012724Y-109741920D01*
X156948102Y-109754774D01*
X156759744Y-109832795D01*
X156590226Y-109946063D01*
X156446063Y-110090226D01*
X156332795Y-110259744D01*
X156254774Y-110448102D01*
X156215000Y-110648061D01*
X114631903Y-110648061D01*
X114630537Y-110645506D01*
X114551185Y-110548815D01*
X114454494Y-110469463D01*
X114344180Y-110410498D01*
X114224482Y-110374188D01*
X114100000Y-110361928D01*
X113835750Y-110365000D01*
X113677000Y-110523750D01*
X113423000Y-110523750D01*
X113264250Y-110365000D01*
X113000000Y-110361928D01*
X112875518Y-110374188D01*
X112755820Y-110410498D01*
X112645506Y-110469463D01*
X112548815Y-110548815D01*
X112500000Y-110608296D01*
X112451185Y-110548815D01*
X112354494Y-110469463D01*
X112244180Y-110410498D01*
X112124482Y-110374188D01*
X112000000Y-110361928D01*
X111529623Y-110361928D01*
X111449999Y-110354086D01*
X111370375Y-110361928D01*
X110900000Y-110361928D01*
X110775518Y-110374188D01*
X110655820Y-110410498D01*
X110545506Y-110469463D01*
X110448815Y-110548815D01*
X110369463Y-110645506D01*
X110310498Y-110755820D01*
X110274188Y-110875518D01*
X110262724Y-110991920D01*
X110198102Y-111004774D01*
X110009744Y-111082795D01*
X109840226Y-111196063D01*
X109696063Y-111340226D01*
X109582795Y-111509744D01*
X109504774Y-111698102D01*
X109465000Y-111898061D01*
X104875062Y-111898061D01*
X104785986Y-111675609D01*
X104083026Y-109515005D01*
X103524797Y-107312547D01*
X103113763Y-105077935D01*
X102889701Y-103148061D01*
X127465000Y-103148061D01*
X127465000Y-103351939D01*
X127504774Y-103551898D01*
X127582795Y-103740256D01*
X127696063Y-103909774D01*
X127840226Y-104053937D01*
X128009744Y-104167205D01*
X128198102Y-104245226D01*
X128262724Y-104258080D01*
X128274188Y-104374482D01*
X128310498Y-104494180D01*
X128369463Y-104604494D01*
X128448815Y-104701185D01*
X128545506Y-104780537D01*
X128655820Y-104839502D01*
X128775518Y-104875812D01*
X128900000Y-104888072D01*
X129370375Y-104888072D01*
X129449999Y-104895914D01*
X129529623Y-104888072D01*
X130000000Y-104888072D01*
X130124482Y-104875812D01*
X130244180Y-104839502D01*
X130354494Y-104780537D01*
X130451185Y-104701185D01*
X130500000Y-104641704D01*
X130548815Y-104701185D01*
X130645506Y-104780537D01*
X130755820Y-104839502D01*
X130875518Y-104875812D01*
X131000000Y-104888072D01*
X131264250Y-104885000D01*
X131423000Y-104726250D01*
X131423000Y-104002000D01*
X131677000Y-104002000D01*
X131677000Y-104726250D01*
X131835750Y-104885000D01*
X132100000Y-104888072D01*
X132224482Y-104875812D01*
X132344180Y-104839502D01*
X132454494Y-104780537D01*
X132551185Y-104701185D01*
X132630537Y-104604494D01*
X132689502Y-104494180D01*
X132725812Y-104374482D01*
X132738072Y-104250000D01*
X132735000Y-104160750D01*
X132576250Y-104002000D01*
X131677000Y-104002000D01*
X131423000Y-104002000D01*
X131403000Y-104002000D01*
X131403000Y-103748000D01*
X131423000Y-103748000D01*
X131423000Y-102752000D01*
X131677000Y-102752000D01*
X131677000Y-103748000D01*
X132576250Y-103748000D01*
X132735000Y-103589250D01*
X132738072Y-103500000D01*
X132725812Y-103375518D01*
X132689502Y-103255820D01*
X132686391Y-103250000D01*
X132689502Y-103244180D01*
X132725812Y-103124482D01*
X132738072Y-103000000D01*
X132735000Y-102910750D01*
X132576250Y-102752000D01*
X131677000Y-102752000D01*
X131423000Y-102752000D01*
X131403000Y-102752000D01*
X131403000Y-102498000D01*
X131423000Y-102498000D01*
X131423000Y-101773750D01*
X131677000Y-101773750D01*
X131677000Y-102498000D01*
X132576250Y-102498000D01*
X132735000Y-102339250D01*
X132738072Y-102250000D01*
X132725812Y-102125518D01*
X132689502Y-102005820D01*
X132630537Y-101895506D01*
X132551185Y-101798815D01*
X132454494Y-101719463D01*
X132344180Y-101660498D01*
X132224482Y-101624188D01*
X132100000Y-101611928D01*
X131835750Y-101615000D01*
X131677000Y-101773750D01*
X131423000Y-101773750D01*
X131264250Y-101615000D01*
X131000000Y-101611928D01*
X130875518Y-101624188D01*
X130755820Y-101660498D01*
X130645506Y-101719463D01*
X130548815Y-101798815D01*
X130500000Y-101858296D01*
X130451185Y-101798815D01*
X130354494Y-101719463D01*
X130244180Y-101660498D01*
X130124482Y-101624188D01*
X130000000Y-101611928D01*
X129529623Y-101611928D01*
X129449999Y-101604086D01*
X129370375Y-101611928D01*
X128900000Y-101611928D01*
X128775518Y-101624188D01*
X128655820Y-101660498D01*
X128545506Y-101719463D01*
X128448815Y-101798815D01*
X128369463Y-101895506D01*
X128310498Y-102005820D01*
X128274188Y-102125518D01*
X128262724Y-102241920D01*
X128198102Y-102254774D01*
X128009744Y-102332795D01*
X127840226Y-102446063D01*
X127696063Y-102590226D01*
X127582795Y-102759744D01*
X127504774Y-102948102D01*
X127465000Y-103148061D01*
X102889701Y-103148061D01*
X102851726Y-102820985D01*
X102769006Y-101143137D01*
X103085000Y-101143137D01*
X103085000Y-101356863D01*
X103126696Y-101566483D01*
X103208485Y-101763940D01*
X103327225Y-101941647D01*
X103478353Y-102092775D01*
X103656060Y-102211515D01*
X103853517Y-102293304D01*
X104063137Y-102335000D01*
X104276863Y-102335000D01*
X104486483Y-102293304D01*
X104683940Y-102211515D01*
X104861647Y-102092775D01*
X105012775Y-101941647D01*
X105131515Y-101763940D01*
X105213304Y-101566483D01*
X105255000Y-101356863D01*
X105255000Y-101143137D01*
X105213304Y-100933517D01*
X105131515Y-100736060D01*
X105012775Y-100558353D01*
X104861647Y-100407225D01*
X104683940Y-100288485D01*
X104486483Y-100206696D01*
X104276863Y-100165000D01*
X104063137Y-100165000D01*
X103853517Y-100206696D01*
X103656060Y-100288485D01*
X103478353Y-100407225D01*
X103327225Y-100558353D01*
X103208485Y-100736060D01*
X103126696Y-100933517D01*
X103085000Y-101143137D01*
X102769006Y-101143137D01*
X102739845Y-100551658D01*
X102778607Y-98279882D01*
X102790035Y-98143137D01*
X103085000Y-98143137D01*
X103085000Y-98356863D01*
X103126696Y-98566483D01*
X103208485Y-98763940D01*
X103327225Y-98941647D01*
X103478353Y-99092775D01*
X103656060Y-99211515D01*
X103853517Y-99293304D01*
X104063137Y-99335000D01*
X104276863Y-99335000D01*
X104486483Y-99293304D01*
X104683940Y-99211515D01*
X104861647Y-99092775D01*
X105012775Y-98941647D01*
X105131515Y-98763940D01*
X105213304Y-98566483D01*
X105255000Y-98356863D01*
X105255000Y-98143137D01*
X105213304Y-97933517D01*
X105131515Y-97736060D01*
X105012775Y-97558353D01*
X104861647Y-97407225D01*
X104683940Y-97288485D01*
X104486483Y-97206696D01*
X104276863Y-97165000D01*
X104063137Y-97165000D01*
X103853517Y-97206696D01*
X103656060Y-97288485D01*
X103478353Y-97407225D01*
X103327225Y-97558353D01*
X103208485Y-97736060D01*
X103126696Y-97933517D01*
X103085000Y-98143137D01*
X102790035Y-98143137D01*
X102914989Y-96648061D01*
X109965000Y-96648061D01*
X109965000Y-96851939D01*
X110004774Y-97051898D01*
X110082795Y-97240256D01*
X110196063Y-97409774D01*
X110340226Y-97553937D01*
X110509744Y-97667205D01*
X110698102Y-97745226D01*
X110762724Y-97758080D01*
X110774188Y-97874482D01*
X110810498Y-97994180D01*
X110869463Y-98104494D01*
X110948815Y-98201185D01*
X111045506Y-98280537D01*
X111155820Y-98339502D01*
X111275518Y-98375812D01*
X111400000Y-98388072D01*
X111870375Y-98388072D01*
X111949999Y-98395914D01*
X112029623Y-98388072D01*
X112500000Y-98388072D01*
X112624482Y-98375812D01*
X112744180Y-98339502D01*
X112854494Y-98280537D01*
X112951185Y-98201185D01*
X113000000Y-98141704D01*
X113048815Y-98201185D01*
X113145506Y-98280537D01*
X113255820Y-98339502D01*
X113375518Y-98375812D01*
X113500000Y-98388072D01*
X113764250Y-98385000D01*
X113923000Y-98226250D01*
X113923000Y-97502000D01*
X114177000Y-97502000D01*
X114177000Y-98226250D01*
X114335750Y-98385000D01*
X114600000Y-98388072D01*
X114724482Y-98375812D01*
X114844180Y-98339502D01*
X114954494Y-98280537D01*
X115051185Y-98201185D01*
X115130537Y-98104494D01*
X115189502Y-97994180D01*
X115225812Y-97874482D01*
X115238072Y-97750000D01*
X115235000Y-97660750D01*
X115076250Y-97502000D01*
X114177000Y-97502000D01*
X113923000Y-97502000D01*
X113903000Y-97502000D01*
X113903000Y-97248000D01*
X113923000Y-97248000D01*
X113923000Y-96252000D01*
X114177000Y-96252000D01*
X114177000Y-97248000D01*
X115076250Y-97248000D01*
X115235000Y-97089250D01*
X115238072Y-97000000D01*
X115225812Y-96875518D01*
X115189502Y-96755820D01*
X115186391Y-96750000D01*
X115189502Y-96744180D01*
X115225812Y-96624482D01*
X115238072Y-96500000D01*
X115235000Y-96410750D01*
X115076250Y-96252000D01*
X114177000Y-96252000D01*
X113923000Y-96252000D01*
X113903000Y-96252000D01*
X113903000Y-95998000D01*
X113923000Y-95998000D01*
X113923000Y-95273750D01*
X114177000Y-95273750D01*
X114177000Y-95998000D01*
X115076250Y-95998000D01*
X115235000Y-95839250D01*
X115238072Y-95750000D01*
X115225812Y-95625518D01*
X115189502Y-95505820D01*
X115130537Y-95395506D01*
X115051185Y-95298815D01*
X114954494Y-95219463D01*
X114844180Y-95160498D01*
X114724482Y-95124188D01*
X114600000Y-95111928D01*
X114335750Y-95115000D01*
X114177000Y-95273750D01*
X113923000Y-95273750D01*
X113764250Y-95115000D01*
X113500000Y-95111928D01*
X113375518Y-95124188D01*
X113255820Y-95160498D01*
X113145506Y-95219463D01*
X113048815Y-95298815D01*
X113000000Y-95358296D01*
X112951185Y-95298815D01*
X112854494Y-95219463D01*
X112744180Y-95160498D01*
X112624482Y-95124188D01*
X112500000Y-95111928D01*
X112029623Y-95111928D01*
X111949999Y-95104086D01*
X111870375Y-95111928D01*
X111400000Y-95111928D01*
X111275518Y-95124188D01*
X111155820Y-95160498D01*
X111045506Y-95219463D01*
X110948815Y-95298815D01*
X110869463Y-95395506D01*
X110810498Y-95505820D01*
X110774188Y-95625518D01*
X110762724Y-95741920D01*
X110698102Y-95754774D01*
X110509744Y-95832795D01*
X110340226Y-95946063D01*
X110196063Y-96090226D01*
X110082795Y-96259744D01*
X110004774Y-96448102D01*
X109965000Y-96648061D01*
X102914989Y-96648061D01*
X102967842Y-96015687D01*
X103287252Y-93898061D01*
X136465000Y-93898061D01*
X136465000Y-94101939D01*
X136504774Y-94301898D01*
X136582795Y-94490256D01*
X136696063Y-94659774D01*
X136840226Y-94803937D01*
X137009744Y-94917205D01*
X137198102Y-94995226D01*
X137262724Y-95008080D01*
X137274188Y-95124482D01*
X137310498Y-95244180D01*
X137369463Y-95354494D01*
X137448815Y-95451185D01*
X137545506Y-95530537D01*
X137655820Y-95589502D01*
X137775518Y-95625812D01*
X137900000Y-95638072D01*
X138370375Y-95638072D01*
X138449999Y-95645914D01*
X138529623Y-95638072D01*
X139000000Y-95638072D01*
X139124482Y-95625812D01*
X139244180Y-95589502D01*
X139354494Y-95530537D01*
X139451185Y-95451185D01*
X139500000Y-95391704D01*
X139548815Y-95451185D01*
X139645506Y-95530537D01*
X139755820Y-95589502D01*
X139875518Y-95625812D01*
X140000000Y-95638072D01*
X140264250Y-95635000D01*
X140423000Y-95476250D01*
X140423000Y-94752000D01*
X140677000Y-94752000D01*
X140677000Y-95476250D01*
X140835750Y-95635000D01*
X141100000Y-95638072D01*
X141224482Y-95625812D01*
X141344180Y-95589502D01*
X141454494Y-95530537D01*
X141551185Y-95451185D01*
X141630537Y-95354494D01*
X141689502Y-95244180D01*
X141725812Y-95124482D01*
X141738072Y-95000000D01*
X141735000Y-94910750D01*
X141576250Y-94752000D01*
X140677000Y-94752000D01*
X140423000Y-94752000D01*
X140403000Y-94752000D01*
X140403000Y-94498000D01*
X140423000Y-94498000D01*
X140423000Y-93502000D01*
X140677000Y-93502000D01*
X140677000Y-94498000D01*
X141576250Y-94498000D01*
X141735000Y-94339250D01*
X141738072Y-94250000D01*
X141725812Y-94125518D01*
X141689502Y-94005820D01*
X141686391Y-94000000D01*
X141689502Y-93994180D01*
X141725812Y-93874482D01*
X141738072Y-93750000D01*
X141735000Y-93660750D01*
X141576250Y-93502000D01*
X140677000Y-93502000D01*
X140423000Y-93502000D01*
X140403000Y-93502000D01*
X140403000Y-93248000D01*
X140423000Y-93248000D01*
X140423000Y-92523750D01*
X140677000Y-92523750D01*
X140677000Y-93248000D01*
X141576250Y-93248000D01*
X141735000Y-93089250D01*
X141738072Y-93000000D01*
X141725812Y-92875518D01*
X141689502Y-92755820D01*
X141630537Y-92645506D01*
X141551185Y-92548815D01*
X141454494Y-92469463D01*
X141344180Y-92410498D01*
X141224482Y-92374188D01*
X141100000Y-92361928D01*
X140835750Y-92365000D01*
X140677000Y-92523750D01*
X140423000Y-92523750D01*
X140264250Y-92365000D01*
X140000000Y-92361928D01*
X139875518Y-92374188D01*
X139755820Y-92410498D01*
X139645506Y-92469463D01*
X139548815Y-92548815D01*
X139500000Y-92608296D01*
X139451185Y-92548815D01*
X139354494Y-92469463D01*
X139244180Y-92410498D01*
X139124482Y-92374188D01*
X139000000Y-92361928D01*
X138529623Y-92361928D01*
X138449999Y-92354086D01*
X138370375Y-92361928D01*
X137900000Y-92361928D01*
X137775518Y-92374188D01*
X137655820Y-92410498D01*
X137545506Y-92469463D01*
X137448815Y-92548815D01*
X137369463Y-92645506D01*
X137310498Y-92755820D01*
X137274188Y-92875518D01*
X137262724Y-92991920D01*
X137198102Y-93004774D01*
X137009744Y-93082795D01*
X136840226Y-93196063D01*
X136696063Y-93340226D01*
X136582795Y-93509744D01*
X136504774Y-93698102D01*
X136465000Y-93898061D01*
X103287252Y-93898061D01*
X103306719Y-93768999D01*
X103793749Y-91549706D01*
X104426782Y-89367594D01*
X105203052Y-87232203D01*
X106119133Y-85152960D01*
X107170992Y-83139015D01*
X108354015Y-81199200D01*
X109663000Y-79342048D01*
X111092189Y-77575730D01*
X112635284Y-75908027D01*
X113966613Y-74648061D01*
X120465000Y-74648061D01*
X120465000Y-74851939D01*
X120504774Y-75051898D01*
X120582795Y-75240256D01*
X120696063Y-75409774D01*
X120840226Y-75553937D01*
X121009744Y-75667205D01*
X121198102Y-75745226D01*
X121262724Y-75758080D01*
X121274188Y-75874482D01*
X121310498Y-75994180D01*
X121369463Y-76104494D01*
X121448815Y-76201185D01*
X121545506Y-76280537D01*
X121655820Y-76339502D01*
X121775518Y-76375812D01*
X121900000Y-76388072D01*
X122370375Y-76388072D01*
X122449999Y-76395914D01*
X122529623Y-76388072D01*
X123000000Y-76388072D01*
X123124482Y-76375812D01*
X123244180Y-76339502D01*
X123354494Y-76280537D01*
X123451185Y-76201185D01*
X123500000Y-76141704D01*
X123548815Y-76201185D01*
X123645506Y-76280537D01*
X123755820Y-76339502D01*
X123875518Y-76375812D01*
X124000000Y-76388072D01*
X124264250Y-76385000D01*
X124423000Y-76226250D01*
X124423000Y-75502000D01*
X124677000Y-75502000D01*
X124677000Y-76226250D01*
X124835750Y-76385000D01*
X125100000Y-76388072D01*
X125224482Y-76375812D01*
X125344180Y-76339502D01*
X125454494Y-76280537D01*
X125551185Y-76201185D01*
X125630537Y-76104494D01*
X125689502Y-75994180D01*
X125725812Y-75874482D01*
X125738072Y-75750000D01*
X125735000Y-75660750D01*
X125576250Y-75502000D01*
X124677000Y-75502000D01*
X124423000Y-75502000D01*
X124403000Y-75502000D01*
X124403000Y-75248000D01*
X124423000Y-75248000D01*
X124423000Y-74252000D01*
X124677000Y-74252000D01*
X124677000Y-75248000D01*
X125576250Y-75248000D01*
X125735000Y-75089250D01*
X125738072Y-75000000D01*
X125725812Y-74875518D01*
X125689502Y-74755820D01*
X125686391Y-74750000D01*
X125689502Y-74744180D01*
X125725812Y-74624482D01*
X125738072Y-74500000D01*
X125735000Y-74410750D01*
X125576250Y-74252000D01*
X124677000Y-74252000D01*
X124423000Y-74252000D01*
X124403000Y-74252000D01*
X124403000Y-74148061D01*
X143465000Y-74148061D01*
X143465000Y-74351939D01*
X143504774Y-74551898D01*
X143582795Y-74740256D01*
X143696063Y-74909774D01*
X143840226Y-75053937D01*
X144009744Y-75167205D01*
X144198102Y-75245226D01*
X144262724Y-75258080D01*
X144274188Y-75374482D01*
X144310498Y-75494180D01*
X144369463Y-75604494D01*
X144448815Y-75701185D01*
X144545506Y-75780537D01*
X144655820Y-75839502D01*
X144775518Y-75875812D01*
X144900000Y-75888072D01*
X145370375Y-75888072D01*
X145449999Y-75895914D01*
X145529623Y-75888072D01*
X146000000Y-75888072D01*
X146124482Y-75875812D01*
X146244180Y-75839502D01*
X146354494Y-75780537D01*
X146451185Y-75701185D01*
X146500000Y-75641704D01*
X146548815Y-75701185D01*
X146645506Y-75780537D01*
X146755820Y-75839502D01*
X146875518Y-75875812D01*
X147000000Y-75888072D01*
X147264250Y-75885000D01*
X147423000Y-75726250D01*
X147423000Y-75002000D01*
X147677000Y-75002000D01*
X147677000Y-75726250D01*
X147835750Y-75885000D01*
X148100000Y-75888072D01*
X148224482Y-75875812D01*
X148344180Y-75839502D01*
X148454494Y-75780537D01*
X148551185Y-75701185D01*
X148630537Y-75604494D01*
X148689502Y-75494180D01*
X148725812Y-75374482D01*
X148738072Y-75250000D01*
X148735000Y-75160750D01*
X148576250Y-75002000D01*
X147677000Y-75002000D01*
X147423000Y-75002000D01*
X147403000Y-75002000D01*
X147403000Y-74748000D01*
X147423000Y-74748000D01*
X147423000Y-73752000D01*
X147677000Y-73752000D01*
X147677000Y-74748000D01*
X148576250Y-74748000D01*
X148735000Y-74589250D01*
X148738072Y-74500000D01*
X148725812Y-74375518D01*
X148689502Y-74255820D01*
X148686391Y-74250000D01*
X148689502Y-74244180D01*
X148725812Y-74124482D01*
X148738072Y-74000000D01*
X148735000Y-73910750D01*
X148576250Y-73752000D01*
X147677000Y-73752000D01*
X147423000Y-73752000D01*
X147403000Y-73752000D01*
X147403000Y-73498000D01*
X147423000Y-73498000D01*
X147423000Y-72773750D01*
X147677000Y-72773750D01*
X147677000Y-73498000D01*
X148576250Y-73498000D01*
X148735000Y-73339250D01*
X148738072Y-73250000D01*
X148725812Y-73125518D01*
X148689502Y-73005820D01*
X148630537Y-72895506D01*
X148551185Y-72798815D01*
X148454494Y-72719463D01*
X148344180Y-72660498D01*
X148224482Y-72624188D01*
X148100000Y-72611928D01*
X147835750Y-72615000D01*
X147677000Y-72773750D01*
X147423000Y-72773750D01*
X147264250Y-72615000D01*
X147000000Y-72611928D01*
X146875518Y-72624188D01*
X146755820Y-72660498D01*
X146645506Y-72719463D01*
X146548815Y-72798815D01*
X146500000Y-72858296D01*
X146451185Y-72798815D01*
X146354494Y-72719463D01*
X146244180Y-72660498D01*
X146124482Y-72624188D01*
X146000000Y-72611928D01*
X145529623Y-72611928D01*
X145449999Y-72604086D01*
X145370375Y-72611928D01*
X144900000Y-72611928D01*
X144775518Y-72624188D01*
X144655820Y-72660498D01*
X144545506Y-72719463D01*
X144448815Y-72798815D01*
X144369463Y-72895506D01*
X144310498Y-73005820D01*
X144274188Y-73125518D01*
X144262724Y-73241920D01*
X144198102Y-73254774D01*
X144009744Y-73332795D01*
X143840226Y-73446063D01*
X143696063Y-73590226D01*
X143582795Y-73759744D01*
X143504774Y-73948102D01*
X143465000Y-74148061D01*
X124403000Y-74148061D01*
X124403000Y-73998000D01*
X124423000Y-73998000D01*
X124423000Y-73273750D01*
X124677000Y-73273750D01*
X124677000Y-73998000D01*
X125576250Y-73998000D01*
X125735000Y-73839250D01*
X125738072Y-73750000D01*
X125725812Y-73625518D01*
X125689502Y-73505820D01*
X125630537Y-73395506D01*
X125551185Y-73298815D01*
X125454494Y-73219463D01*
X125344180Y-73160498D01*
X125224482Y-73124188D01*
X125100000Y-73111928D01*
X124835750Y-73115000D01*
X124677000Y-73273750D01*
X124423000Y-73273750D01*
X124264250Y-73115000D01*
X124000000Y-73111928D01*
X123875518Y-73124188D01*
X123755820Y-73160498D01*
X123645506Y-73219463D01*
X123548815Y-73298815D01*
X123500000Y-73358296D01*
X123451185Y-73298815D01*
X123354494Y-73219463D01*
X123244180Y-73160498D01*
X123124482Y-73124188D01*
X123000000Y-73111928D01*
X122529623Y-73111928D01*
X122449999Y-73104086D01*
X122370375Y-73111928D01*
X121900000Y-73111928D01*
X121775518Y-73124188D01*
X121655820Y-73160498D01*
X121545506Y-73219463D01*
X121448815Y-73298815D01*
X121369463Y-73395506D01*
X121310498Y-73505820D01*
X121274188Y-73625518D01*
X121262724Y-73741920D01*
X121198102Y-73754774D01*
X121009744Y-73832795D01*
X120840226Y-73946063D01*
X120696063Y-74090226D01*
X120582795Y-74259744D01*
X120504774Y-74448102D01*
X120465000Y-74648061D01*
X113966613Y-74648061D01*
X114285522Y-74346247D01*
X116035631Y-72897273D01*
X117877934Y-71567463D01*
X119804304Y-70362683D01*
X121806298Y-69288211D01*
X123875077Y-68348792D01*
X126001593Y-67548534D01*
X128186747Y-66887862D01*
X128436510Y-66822338D01*
X128452528Y-66817563D01*
X128459226Y-66815987D01*
X128804024Y-66713600D01*
X128807380Y-66712269D01*
X128810916Y-66711517D01*
X128890228Y-66682021D01*
X129704199Y-66324712D01*
X129724464Y-66313571D01*
X129745874Y-66304834D01*
X129818696Y-66261767D01*
X129818710Y-66261759D01*
X129818715Y-66261755D01*
X130556543Y-65765956D01*
X130574511Y-65751406D01*
X130594041Y-65739012D01*
X130658097Y-65683720D01*
X131296470Y-65065093D01*
X131311582Y-65047586D01*
X131328603Y-65031934D01*
X131381840Y-64966192D01*
X131381856Y-64966173D01*
X131381861Y-64966165D01*
X131900590Y-64244277D01*
X131912363Y-64224370D01*
X131926343Y-64205952D01*
X131967109Y-64131800D01*
X132349809Y-63329453D01*
X132357869Y-63307780D01*
X132368369Y-63287173D01*
X132395359Y-63206974D01*
X132629927Y-62349538D01*
X132634022Y-62326778D01*
X132640706Y-62304640D01*
X132653067Y-62220928D01*
X132731782Y-61338949D01*
X132735000Y-61306272D01*
X132735000Y-60032731D01*
X132762021Y-59729963D01*
X134258266Y-59729963D01*
X134258266Y-60270037D01*
X134363629Y-60799734D01*
X134570307Y-61298698D01*
X134870356Y-61747753D01*
X135252247Y-62129644D01*
X135701302Y-62429693D01*
X136200266Y-62636371D01*
X136729963Y-62741734D01*
X137270037Y-62741734D01*
X137799734Y-62636371D01*
X138298698Y-62429693D01*
X138747753Y-62129644D01*
X139129644Y-61747753D01*
X139429693Y-61298698D01*
X139636371Y-60799734D01*
X139741734Y-60270037D01*
X139741734Y-59729963D01*
X139636371Y-59200266D01*
X139429693Y-58701302D01*
X139129644Y-58252247D01*
X138747753Y-57870356D01*
X138298698Y-57570307D01*
X137799734Y-57363629D01*
X137270037Y-57258266D01*
X136729963Y-57258266D01*
X136200266Y-57363629D01*
X135701302Y-57570307D01*
X135252247Y-57870356D01*
X134870356Y-58252247D01*
X134570307Y-58701302D01*
X134363629Y-59200266D01*
X134258266Y-59729963D01*
X132762021Y-59729963D01*
X132805281Y-59245253D01*
X133005231Y-58514357D01*
X133331450Y-57830425D01*
X133773626Y-57215072D01*
X134317789Y-56687741D01*
X134946726Y-56265114D01*
X135640570Y-55960537D01*
X136377386Y-55783643D01*
X137133871Y-55740024D01*
X137886138Y-55831059D01*
G37*
%TD.AperFunction*%
%TD*%
M02*
