%TF.GenerationSoftware,KiCad,Pcbnew,(5.1.10)-1*%
%TF.CreationDate,2021-10-20T07:51:42+02:00*%
%TF.ProjectId,TVZ_kuglica,54565a5f-6b75-4676-9c69-63612e6b6963,rev?*%
%TF.SameCoordinates,Original*%
%TF.FileFunction,Copper,L2,Bot*%
%TF.FilePolarity,Positive*%
%FSLAX46Y46*%
G04 Gerber Fmt 4.6, Leading zero omitted, Abs format (unit mm)*
G04 Created by KiCad (PCBNEW (5.1.10)-1) date 2021-10-20 07:51:42*
%MOMM*%
%LPD*%
G01*
G04 APERTURE LIST*
%TA.AperFunction,SMDPad,CuDef*%
%ADD10R,1.500000X0.700000*%
%TD*%
%TA.AperFunction,SMDPad,CuDef*%
%ADD11R,0.800000X1.000000*%
%TD*%
%TA.AperFunction,SMDPad,CuDef*%
%ADD12R,3.800000X3.500000*%
%TD*%
%TA.AperFunction,SMDPad,CuDef*%
%ADD13R,2.800000X5.700000*%
%TD*%
%TA.AperFunction,ViaPad*%
%ADD14C,0.800000*%
%TD*%
%TA.AperFunction,Conductor*%
%ADD15C,0.762000*%
%TD*%
%TA.AperFunction,Conductor*%
%ADD16C,0.254000*%
%TD*%
%TA.AperFunction,Conductor*%
%ADD17C,0.100000*%
%TD*%
G04 APERTURE END LIST*
D10*
%TO.P,SW1,1*%
%TO.N,Net-(R1-Pad1)*%
X105930000Y-102000000D03*
%TO.P,SW1,2*%
%TO.N,VCC*%
X105930000Y-99000000D03*
%TO.P,SW1,3*%
%TO.N,Net-(SW1-Pad3)*%
X105930000Y-97500000D03*
D11*
%TO.P,SW1,*%
%TO.N,*%
X103070000Y-103400000D03*
X103070000Y-96100000D03*
X105280000Y-96100000D03*
X105280000Y-103400000D03*
%TD*%
D12*
%TO.P,BT1,1*%
%TO.N,VCC*%
X137000000Y-100500000D03*
D13*
%TO.P,BT1,2*%
%TO.N,GND*%
X137000000Y-123000000D03*
%TD*%
%TO.P,R1,1*%
%TO.N,Net-(R1-Pad1)*%
%TA.AperFunction,SMDPad,CuDef*%
G36*
G01*
X134950000Y-94275000D02*
X134950000Y-93725000D01*
G75*
G02*
X135150000Y-93525000I200000J0D01*
G01*
X135550000Y-93525000D01*
G75*
G02*
X135750000Y-93725000I0J-200000D01*
G01*
X135750000Y-94275000D01*
G75*
G02*
X135550000Y-94475000I-200000J0D01*
G01*
X135150000Y-94475000D01*
G75*
G02*
X134950000Y-94275000I0J200000D01*
G01*
G37*
%TD.AperFunction*%
%TO.P,R1,2*%
%TO.N,Net-(D12-Pad1)*%
%TA.AperFunction,SMDPad,CuDef*%
G36*
G01*
X136600000Y-94275000D02*
X136600000Y-93725000D01*
G75*
G02*
X136800000Y-93525000I200000J0D01*
G01*
X137200000Y-93525000D01*
G75*
G02*
X137400000Y-93725000I0J-200000D01*
G01*
X137400000Y-94275000D01*
G75*
G02*
X137200000Y-94475000I-200000J0D01*
G01*
X136800000Y-94475000D01*
G75*
G02*
X136600000Y-94275000I0J200000D01*
G01*
G37*
%TD.AperFunction*%
%TD*%
%TO.P,R2,1*%
%TO.N,Net-(R1-Pad1)*%
%TA.AperFunction,SMDPad,CuDef*%
G36*
G01*
X151775000Y-76775000D02*
X151775000Y-76225000D01*
G75*
G02*
X151975000Y-76025000I200000J0D01*
G01*
X152375000Y-76025000D01*
G75*
G02*
X152575000Y-76225000I0J-200000D01*
G01*
X152575000Y-76775000D01*
G75*
G02*
X152375000Y-76975000I-200000J0D01*
G01*
X151975000Y-76975000D01*
G75*
G02*
X151775000Y-76775000I0J200000D01*
G01*
G37*
%TD.AperFunction*%
%TO.P,R2,2*%
%TO.N,Net-(D3-Pad1)*%
%TA.AperFunction,SMDPad,CuDef*%
G36*
G01*
X153425000Y-76775000D02*
X153425000Y-76225000D01*
G75*
G02*
X153625000Y-76025000I200000J0D01*
G01*
X154025000Y-76025000D01*
G75*
G02*
X154225000Y-76225000I0J-200000D01*
G01*
X154225000Y-76775000D01*
G75*
G02*
X154025000Y-76975000I-200000J0D01*
G01*
X153625000Y-76975000D01*
G75*
G02*
X153425000Y-76775000I0J200000D01*
G01*
G37*
%TD.AperFunction*%
%TD*%
%TO.P,R3,1*%
%TO.N,Net-(R1-Pad1)*%
%TA.AperFunction,SMDPad,CuDef*%
G36*
G01*
X112025000Y-115275000D02*
X112025000Y-114725000D01*
G75*
G02*
X112225000Y-114525000I200000J0D01*
G01*
X112625000Y-114525000D01*
G75*
G02*
X112825000Y-114725000I0J-200000D01*
G01*
X112825000Y-115275000D01*
G75*
G02*
X112625000Y-115475000I-200000J0D01*
G01*
X112225000Y-115475000D01*
G75*
G02*
X112025000Y-115275000I0J200000D01*
G01*
G37*
%TD.AperFunction*%
%TO.P,R3,2*%
%TO.N,Net-(D5-Pad1)*%
%TA.AperFunction,SMDPad,CuDef*%
G36*
G01*
X113675000Y-115275000D02*
X113675000Y-114725000D01*
G75*
G02*
X113875000Y-114525000I200000J0D01*
G01*
X114275000Y-114525000D01*
G75*
G02*
X114475000Y-114725000I0J-200000D01*
G01*
X114475000Y-115275000D01*
G75*
G02*
X114275000Y-115475000I-200000J0D01*
G01*
X113875000Y-115475000D01*
G75*
G02*
X113675000Y-115275000I0J200000D01*
G01*
G37*
%TD.AperFunction*%
%TD*%
%TO.P,R4,2*%
%TO.N,Net-(D7-Pad1)*%
%TA.AperFunction,SMDPad,CuDef*%
G36*
G01*
X139925000Y-130025000D02*
X139925000Y-129475000D01*
G75*
G02*
X140125000Y-129275000I200000J0D01*
G01*
X140525000Y-129275000D01*
G75*
G02*
X140725000Y-129475000I0J-200000D01*
G01*
X140725000Y-130025000D01*
G75*
G02*
X140525000Y-130225000I-200000J0D01*
G01*
X140125000Y-130225000D01*
G75*
G02*
X139925000Y-130025000I0J200000D01*
G01*
G37*
%TD.AperFunction*%
%TO.P,R4,1*%
%TO.N,Net-(R1-Pad1)*%
%TA.AperFunction,SMDPad,CuDef*%
G36*
G01*
X138275000Y-130025000D02*
X138275000Y-129475000D01*
G75*
G02*
X138475000Y-129275000I200000J0D01*
G01*
X138875000Y-129275000D01*
G75*
G02*
X139075000Y-129475000I0J-200000D01*
G01*
X139075000Y-130025000D01*
G75*
G02*
X138875000Y-130225000I-200000J0D01*
G01*
X138475000Y-130225000D01*
G75*
G02*
X138275000Y-130025000I0J200000D01*
G01*
G37*
%TD.AperFunction*%
%TD*%
D14*
%TO.N,GND*%
X129000000Y-77000000D03*
X115000000Y-89500000D03*
X148750000Y-81750000D03*
X148500000Y-104000000D03*
X164250000Y-109250000D03*
X146000000Y-113750000D03*
X143750000Y-125750000D03*
X120500000Y-128250000D03*
X130750000Y-112500000D03*
X119500000Y-107250000D03*
X109750000Y-104500000D03*
X158750000Y-76500000D03*
X142000000Y-94000000D03*
X119000000Y-115000000D03*
X145250000Y-129750000D03*
%TO.N,Net-(D12-Pad1)*%
X138000000Y-94000000D03*
%TO.N,Net-(D3-Pad1)*%
X154750000Y-76500000D03*
%TO.N,Net-(D5-Pad1)*%
X115000000Y-115000000D03*
%TO.N,Net-(D7-Pad1)*%
X141250000Y-129750000D03*
%TD*%
D15*
%TO.N,VCC*%
X146750000Y-100500000D02*
X137000000Y-100500000D01*
X156500000Y-90750000D02*
X146750000Y-100500000D01*
X156500000Y-74750000D02*
X156500000Y-90750000D01*
X154750000Y-73000000D02*
X156500000Y-74750000D01*
X147000000Y-73000000D02*
X154750000Y-73000000D01*
X121000000Y-99000000D02*
X147000000Y-73000000D01*
X105930000Y-99000000D02*
X121000000Y-99000000D01*
%TO.N,Net-(D12-Pad1)*%
X138000000Y-94000000D02*
X137000000Y-94000000D01*
%TO.N,Net-(D3-Pad1)*%
X153825000Y-76500000D02*
X154750000Y-76500000D01*
%TO.N,Net-(D5-Pad1)*%
X114075000Y-115000000D02*
X115000000Y-115000000D01*
%TO.N,Net-(D7-Pad1)*%
X140325000Y-129750000D02*
X141250000Y-129750000D01*
%TO.N,Net-(R1-Pad1)*%
X112425000Y-115000000D02*
X112425000Y-117175000D01*
X125000000Y-129750000D02*
X138675000Y-129750000D01*
X112425000Y-117175000D02*
X125000000Y-129750000D01*
X127350000Y-102000000D02*
X135350000Y-94000000D01*
X135350000Y-94000000D02*
X135350000Y-90900000D01*
X149750000Y-76500000D02*
X152175000Y-76500000D01*
X135350000Y-90900000D02*
X149750000Y-76500000D01*
X112425000Y-102325000D02*
X112750000Y-102000000D01*
X112425000Y-102825000D02*
X113250000Y-102000000D01*
X112750000Y-102000000D02*
X113250000Y-102000000D01*
X112425000Y-115000000D02*
X112425000Y-102825000D01*
X113250000Y-102000000D02*
X127350000Y-102000000D01*
X112425000Y-102825000D02*
X112425000Y-102325000D01*
X112425000Y-102675000D02*
X111750000Y-102000000D01*
X112425000Y-102825000D02*
X112425000Y-102675000D01*
X111750000Y-102000000D02*
X112750000Y-102000000D01*
X105930000Y-102000000D02*
X111750000Y-102000000D01*
%TD*%
D16*
%TO.N,GND*%
X137886138Y-55831059D02*
X138610388Y-56053867D01*
X139283738Y-56401409D01*
X139884901Y-56862699D01*
X140394872Y-57423149D01*
X140797540Y-58065057D01*
X141080170Y-58768122D01*
X141236190Y-59521513D01*
X141265000Y-60021169D01*
X141265001Y-61306272D01*
X141266298Y-61319440D01*
X141278413Y-61656049D01*
X141278863Y-61659632D01*
X141278707Y-61663242D01*
X141287438Y-61747410D01*
X141429908Y-62624862D01*
X141435629Y-62647269D01*
X141438736Y-62670183D01*
X141462234Y-62751474D01*
X141757835Y-63589830D01*
X141767433Y-63610870D01*
X141774549Y-63632871D01*
X141812059Y-63708691D01*
X141812071Y-63708717D01*
X141812077Y-63708725D01*
X142251461Y-64481476D01*
X142264630Y-64500478D01*
X142275533Y-64520879D01*
X142325894Y-64588881D01*
X142895182Y-65271616D01*
X142911512Y-65287990D01*
X142925851Y-65306132D01*
X142987458Y-65364142D01*
X143668651Y-65935276D01*
X143687625Y-65948502D01*
X143704950Y-65963817D01*
X143775855Y-66010000D01*
X144547423Y-66451478D01*
X144568436Y-66461133D01*
X144588200Y-66473139D01*
X144666163Y-66506036D01*
X145503715Y-66803905D01*
X145508021Y-66805017D01*
X145525587Y-66811299D01*
X145542755Y-66816572D01*
X147746053Y-67464098D01*
X149878711Y-68247813D01*
X151954729Y-69171140D01*
X153965017Y-70230036D01*
X155900673Y-71419812D01*
X157753239Y-72735268D01*
X159514561Y-74170616D01*
X161176886Y-75719540D01*
X162732884Y-77375207D01*
X164175738Y-79130360D01*
X165499106Y-80977290D01*
X166697162Y-82907865D01*
X167764630Y-84913581D01*
X168696830Y-86985643D01*
X169489658Y-89114933D01*
X170139624Y-91292080D01*
X170643873Y-93507517D01*
X171000188Y-95751501D01*
X171207004Y-98014175D01*
X171263407Y-100285560D01*
X171169153Y-102555700D01*
X170924654Y-104814605D01*
X170530986Y-107052337D01*
X169989882Y-109259064D01*
X169303718Y-111425077D01*
X168475512Y-113540851D01*
X167508906Y-115597090D01*
X166408155Y-117584736D01*
X165178083Y-119495080D01*
X163824120Y-121319689D01*
X162352204Y-123050560D01*
X160768823Y-124680064D01*
X159080926Y-126201055D01*
X157295931Y-127606843D01*
X155421695Y-128891239D01*
X153466456Y-130048599D01*
X151438820Y-131073832D01*
X149347702Y-131962428D01*
X147202263Y-132710493D01*
X145011999Y-133314718D01*
X142786467Y-133772464D01*
X140535523Y-134081705D01*
X138269022Y-134241089D01*
X135996953Y-134249911D01*
X133729262Y-134108134D01*
X131475992Y-133816385D01*
X129246983Y-133375938D01*
X127052076Y-132788738D01*
X124900917Y-132057366D01*
X122802939Y-131185029D01*
X120767401Y-130175574D01*
X118803237Y-129033435D01*
X116919085Y-127763634D01*
X115123223Y-126371749D01*
X113423564Y-124863914D01*
X111827572Y-123246751D01*
X110342263Y-121527368D01*
X108974171Y-119713331D01*
X107729304Y-117812605D01*
X106613144Y-115833557D01*
X105630601Y-113784897D01*
X104785986Y-111675609D01*
X104083026Y-109515005D01*
X103524797Y-107312547D01*
X103113763Y-105077935D01*
X103051083Y-104538072D01*
X103470000Y-104538072D01*
X103594482Y-104525812D01*
X103714180Y-104489502D01*
X103824494Y-104430537D01*
X103921185Y-104351185D01*
X104000537Y-104254494D01*
X104059502Y-104144180D01*
X104095812Y-104024482D01*
X104108072Y-103900000D01*
X104108072Y-102900000D01*
X104095812Y-102775518D01*
X104059502Y-102655820D01*
X104000537Y-102545506D01*
X103921185Y-102448815D01*
X103824494Y-102369463D01*
X103714180Y-102310498D01*
X103594482Y-102274188D01*
X103470000Y-102261928D01*
X102824164Y-102261928D01*
X102739845Y-100551658D01*
X102778607Y-98279882D01*
X102790035Y-98143137D01*
X103085000Y-98143137D01*
X103085000Y-98356863D01*
X103126696Y-98566483D01*
X103208485Y-98763940D01*
X103327225Y-98941647D01*
X103478353Y-99092775D01*
X103656060Y-99211515D01*
X103853517Y-99293304D01*
X104063137Y-99335000D01*
X104276863Y-99335000D01*
X104486483Y-99293304D01*
X104541928Y-99270338D01*
X104541928Y-99350000D01*
X104554188Y-99474482D01*
X104590498Y-99594180D01*
X104649463Y-99704494D01*
X104728815Y-99801185D01*
X104825506Y-99880537D01*
X104935820Y-99939502D01*
X105055518Y-99975812D01*
X105180000Y-99988072D01*
X105687229Y-99988072D01*
X105730829Y-100001298D01*
X105880098Y-100016000D01*
X120950098Y-100016000D01*
X121000000Y-100020915D01*
X121049902Y-100016000D01*
X121199171Y-100001298D01*
X121390687Y-99943202D01*
X121567190Y-99848860D01*
X121721896Y-99721896D01*
X121753713Y-99683128D01*
X147420841Y-74016000D01*
X154329160Y-74016000D01*
X155484000Y-75170841D01*
X155484000Y-75770289D01*
X155409774Y-75696063D01*
X155240256Y-75582795D01*
X155051898Y-75504774D01*
X154851939Y-75465000D01*
X154648061Y-75465000D01*
X154552541Y-75484000D01*
X154407974Y-75484000D01*
X154345716Y-75450722D01*
X154188500Y-75403031D01*
X154025000Y-75386928D01*
X153625000Y-75386928D01*
X153461500Y-75403031D01*
X153304284Y-75450722D01*
X153159392Y-75528169D01*
X153032394Y-75632394D01*
X153000000Y-75671866D01*
X152967606Y-75632394D01*
X152840608Y-75528169D01*
X152695716Y-75450722D01*
X152538500Y-75403031D01*
X152375000Y-75386928D01*
X151975000Y-75386928D01*
X151811500Y-75403031D01*
X151654284Y-75450722D01*
X151592026Y-75484000D01*
X149799893Y-75484000D01*
X149749999Y-75479086D01*
X149700105Y-75484000D01*
X149700098Y-75484000D01*
X149550829Y-75498702D01*
X149359313Y-75556798D01*
X149182810Y-75651140D01*
X149028104Y-75778104D01*
X148996292Y-75816867D01*
X134666868Y-90146292D01*
X134628105Y-90178104D01*
X134501141Y-90332810D01*
X134435892Y-90454883D01*
X134406799Y-90509313D01*
X134348702Y-90700830D01*
X134329085Y-90900000D01*
X134334001Y-90949911D01*
X134334000Y-93541822D01*
X134328031Y-93561500D01*
X134325450Y-93587709D01*
X126929160Y-100984000D01*
X113299893Y-100984000D01*
X113249999Y-100979086D01*
X113200105Y-100984000D01*
X112799893Y-100984000D01*
X112749999Y-100979086D01*
X112700105Y-100984000D01*
X111799902Y-100984000D01*
X111750000Y-100979085D01*
X111700098Y-100984000D01*
X105880098Y-100984000D01*
X105730829Y-100998702D01*
X105687229Y-101011928D01*
X105228901Y-101011928D01*
X105213304Y-100933517D01*
X105131515Y-100736060D01*
X105012775Y-100558353D01*
X104861647Y-100407225D01*
X104683940Y-100288485D01*
X104486483Y-100206696D01*
X104276863Y-100165000D01*
X104063137Y-100165000D01*
X103853517Y-100206696D01*
X103656060Y-100288485D01*
X103478353Y-100407225D01*
X103327225Y-100558353D01*
X103208485Y-100736060D01*
X103126696Y-100933517D01*
X103085000Y-101143137D01*
X103085000Y-101356863D01*
X103126696Y-101566483D01*
X103208485Y-101763940D01*
X103327225Y-101941647D01*
X103478353Y-102092775D01*
X103656060Y-102211515D01*
X103853517Y-102293304D01*
X104063137Y-102335000D01*
X104276863Y-102335000D01*
X104486483Y-102293304D01*
X104541928Y-102270338D01*
X104541928Y-102350000D01*
X104542928Y-102360151D01*
X104525506Y-102369463D01*
X104428815Y-102448815D01*
X104349463Y-102545506D01*
X104290498Y-102655820D01*
X104254188Y-102775518D01*
X104241928Y-102900000D01*
X104241928Y-103900000D01*
X104254188Y-104024482D01*
X104290498Y-104144180D01*
X104349463Y-104254494D01*
X104428815Y-104351185D01*
X104525506Y-104430537D01*
X104635820Y-104489502D01*
X104755518Y-104525812D01*
X104880000Y-104538072D01*
X105680000Y-104538072D01*
X105804482Y-104525812D01*
X105924180Y-104489502D01*
X106034494Y-104430537D01*
X106131185Y-104351185D01*
X106210537Y-104254494D01*
X106269502Y-104144180D01*
X106305812Y-104024482D01*
X106318072Y-103900000D01*
X106318072Y-103016000D01*
X111329160Y-103016000D01*
X111409001Y-103095841D01*
X111409000Y-114541823D01*
X111403031Y-114561500D01*
X111386928Y-114725000D01*
X111386928Y-115275000D01*
X111403031Y-115438500D01*
X111409000Y-115458178D01*
X111409001Y-117125089D01*
X111404085Y-117175000D01*
X111423702Y-117374170D01*
X111462141Y-117500884D01*
X111481799Y-117565687D01*
X111576141Y-117742190D01*
X111703105Y-117896896D01*
X111741868Y-117928708D01*
X124246292Y-130433133D01*
X124278104Y-130471896D01*
X124392976Y-130566169D01*
X124432810Y-130598860D01*
X124609313Y-130693202D01*
X124800829Y-130751298D01*
X125000000Y-130770915D01*
X125049902Y-130766000D01*
X138092026Y-130766000D01*
X138154284Y-130799278D01*
X138311500Y-130846969D01*
X138475000Y-130863072D01*
X138875000Y-130863072D01*
X139038500Y-130846969D01*
X139195716Y-130799278D01*
X139340608Y-130721831D01*
X139467606Y-130617606D01*
X139500000Y-130578134D01*
X139532394Y-130617606D01*
X139659392Y-130721831D01*
X139804284Y-130799278D01*
X139961500Y-130846969D01*
X140125000Y-130863072D01*
X140525000Y-130863072D01*
X140688500Y-130846969D01*
X140845716Y-130799278D01*
X140907974Y-130766000D01*
X141052541Y-130766000D01*
X141148061Y-130785000D01*
X141351939Y-130785000D01*
X141551898Y-130745226D01*
X141740256Y-130667205D01*
X141909774Y-130553937D01*
X142053937Y-130409774D01*
X142167205Y-130240256D01*
X142245226Y-130051898D01*
X142285000Y-129851939D01*
X142285000Y-129648061D01*
X142245226Y-129448102D01*
X142167205Y-129259744D01*
X142053937Y-129090226D01*
X141909774Y-128946063D01*
X141740256Y-128832795D01*
X141551898Y-128754774D01*
X141351939Y-128715000D01*
X141148061Y-128715000D01*
X141052541Y-128734000D01*
X140907974Y-128734000D01*
X140845716Y-128700722D01*
X140688500Y-128653031D01*
X140525000Y-128636928D01*
X140125000Y-128636928D01*
X139961500Y-128653031D01*
X139804284Y-128700722D01*
X139659392Y-128778169D01*
X139532394Y-128882394D01*
X139500000Y-128921866D01*
X139467606Y-128882394D01*
X139340608Y-128778169D01*
X139195716Y-128700722D01*
X139038500Y-128653031D01*
X138875000Y-128636928D01*
X138475000Y-128636928D01*
X138311500Y-128653031D01*
X138154284Y-128700722D01*
X138092026Y-128734000D01*
X125420841Y-128734000D01*
X113441000Y-116754160D01*
X113441000Y-115988726D01*
X113554284Y-116049278D01*
X113711500Y-116096969D01*
X113875000Y-116113072D01*
X114275000Y-116113072D01*
X114438500Y-116096969D01*
X114595716Y-116049278D01*
X114657974Y-116016000D01*
X114802541Y-116016000D01*
X114898061Y-116035000D01*
X115101939Y-116035000D01*
X115301898Y-115995226D01*
X115490256Y-115917205D01*
X115659774Y-115803937D01*
X115803937Y-115659774D01*
X115917205Y-115490256D01*
X115995226Y-115301898D01*
X116035000Y-115101939D01*
X116035000Y-114898061D01*
X115995226Y-114698102D01*
X115917205Y-114509744D01*
X115803937Y-114340226D01*
X115659774Y-114196063D01*
X115490256Y-114082795D01*
X115301898Y-114004774D01*
X115101939Y-113965000D01*
X114898061Y-113965000D01*
X114802541Y-113984000D01*
X114657974Y-113984000D01*
X114595716Y-113950722D01*
X114438500Y-113903031D01*
X114275000Y-113886928D01*
X113875000Y-113886928D01*
X113711500Y-113903031D01*
X113554284Y-113950722D01*
X113441000Y-114011274D01*
X113441000Y-103245840D01*
X113670841Y-103016000D01*
X127300098Y-103016000D01*
X127350000Y-103020915D01*
X127399902Y-103016000D01*
X127549171Y-103001298D01*
X127740687Y-102943202D01*
X127917190Y-102848860D01*
X128071896Y-102721896D01*
X128103712Y-102683128D01*
X135687291Y-95099550D01*
X135713500Y-95096969D01*
X135870716Y-95049278D01*
X136015608Y-94971831D01*
X136142606Y-94867606D01*
X136175000Y-94828134D01*
X136207394Y-94867606D01*
X136334392Y-94971831D01*
X136479284Y-95049278D01*
X136636500Y-95096969D01*
X136800000Y-95113072D01*
X137200000Y-95113072D01*
X137363500Y-95096969D01*
X137520716Y-95049278D01*
X137582974Y-95016000D01*
X137802541Y-95016000D01*
X137898061Y-95035000D01*
X138101939Y-95035000D01*
X138301898Y-94995226D01*
X138490256Y-94917205D01*
X138659774Y-94803937D01*
X138803937Y-94659774D01*
X138917205Y-94490256D01*
X138995226Y-94301898D01*
X139035000Y-94101939D01*
X139035000Y-93898061D01*
X138995226Y-93698102D01*
X138917205Y-93509744D01*
X138803937Y-93340226D01*
X138659774Y-93196063D01*
X138490256Y-93082795D01*
X138301898Y-93004774D01*
X138101939Y-92965000D01*
X137898061Y-92965000D01*
X137802541Y-92984000D01*
X137582974Y-92984000D01*
X137520716Y-92950722D01*
X137363500Y-92903031D01*
X137200000Y-92886928D01*
X136800000Y-92886928D01*
X136636500Y-92903031D01*
X136479284Y-92950722D01*
X136366000Y-93011274D01*
X136366000Y-91320840D01*
X150170841Y-77516000D01*
X151592026Y-77516000D01*
X151654284Y-77549278D01*
X151811500Y-77596969D01*
X151975000Y-77613072D01*
X152375000Y-77613072D01*
X152538500Y-77596969D01*
X152695716Y-77549278D01*
X152840608Y-77471831D01*
X152967606Y-77367606D01*
X153000000Y-77328134D01*
X153032394Y-77367606D01*
X153159392Y-77471831D01*
X153304284Y-77549278D01*
X153461500Y-77596969D01*
X153625000Y-77613072D01*
X154025000Y-77613072D01*
X154188500Y-77596969D01*
X154345716Y-77549278D01*
X154407974Y-77516000D01*
X154552541Y-77516000D01*
X154648061Y-77535000D01*
X154851939Y-77535000D01*
X155051898Y-77495226D01*
X155240256Y-77417205D01*
X155409774Y-77303937D01*
X155484000Y-77229711D01*
X155484001Y-90329158D01*
X146329160Y-99484000D01*
X139538072Y-99484000D01*
X139538072Y-98750000D01*
X139525812Y-98625518D01*
X139489502Y-98505820D01*
X139430537Y-98395506D01*
X139351185Y-98298815D01*
X139254494Y-98219463D01*
X139144180Y-98160498D01*
X139024482Y-98124188D01*
X138900000Y-98111928D01*
X135100000Y-98111928D01*
X134975518Y-98124188D01*
X134855820Y-98160498D01*
X134745506Y-98219463D01*
X134648815Y-98298815D01*
X134569463Y-98395506D01*
X134510498Y-98505820D01*
X134474188Y-98625518D01*
X134461928Y-98750000D01*
X134461928Y-102250000D01*
X134474188Y-102374482D01*
X134510498Y-102494180D01*
X134569463Y-102604494D01*
X134648815Y-102701185D01*
X134745506Y-102780537D01*
X134855820Y-102839502D01*
X134975518Y-102875812D01*
X135100000Y-102888072D01*
X138900000Y-102888072D01*
X139024482Y-102875812D01*
X139144180Y-102839502D01*
X139254494Y-102780537D01*
X139351185Y-102701185D01*
X139430537Y-102604494D01*
X139489502Y-102494180D01*
X139525812Y-102374482D01*
X139538072Y-102250000D01*
X139538072Y-101516000D01*
X146700098Y-101516000D01*
X146750000Y-101520915D01*
X146799902Y-101516000D01*
X146949171Y-101501298D01*
X147140687Y-101443202D01*
X147317190Y-101348860D01*
X147471896Y-101221896D01*
X147503712Y-101183128D01*
X157183133Y-91503708D01*
X157221896Y-91471896D01*
X157348860Y-91317190D01*
X157443202Y-91140687D01*
X157501298Y-90949171D01*
X157516000Y-90799902D01*
X157516000Y-90799895D01*
X157520914Y-90750001D01*
X157516000Y-90700107D01*
X157516000Y-74799902D01*
X157520915Y-74750000D01*
X157512117Y-74660669D01*
X157501298Y-74550829D01*
X157443202Y-74359313D01*
X157348860Y-74182810D01*
X157221896Y-74028104D01*
X157183133Y-73996292D01*
X155503712Y-72316872D01*
X155471896Y-72278104D01*
X155317190Y-72151140D01*
X155140687Y-72056798D01*
X154949171Y-71998702D01*
X154799902Y-71984000D01*
X154750000Y-71979085D01*
X154700098Y-71984000D01*
X147049902Y-71984000D01*
X147000000Y-71979085D01*
X146950098Y-71984000D01*
X146800829Y-71998702D01*
X146609313Y-72056798D01*
X146432810Y-72151140D01*
X146278104Y-72278104D01*
X146246292Y-72316867D01*
X120579160Y-97984000D01*
X107302925Y-97984000D01*
X107305812Y-97974482D01*
X107318072Y-97850000D01*
X107318072Y-97150000D01*
X107305812Y-97025518D01*
X107269502Y-96905820D01*
X107210537Y-96795506D01*
X107131185Y-96698815D01*
X107034494Y-96619463D01*
X106924180Y-96560498D01*
X106804482Y-96524188D01*
X106680000Y-96511928D01*
X106318072Y-96511928D01*
X106318072Y-95600000D01*
X106305812Y-95475518D01*
X106269502Y-95355820D01*
X106210537Y-95245506D01*
X106131185Y-95148815D01*
X106034494Y-95069463D01*
X105924180Y-95010498D01*
X105804482Y-94974188D01*
X105680000Y-94961928D01*
X104880000Y-94961928D01*
X104755518Y-94974188D01*
X104635820Y-95010498D01*
X104525506Y-95069463D01*
X104428815Y-95148815D01*
X104349463Y-95245506D01*
X104290498Y-95355820D01*
X104254188Y-95475518D01*
X104241928Y-95600000D01*
X104241928Y-96600000D01*
X104254188Y-96724482D01*
X104290498Y-96844180D01*
X104349463Y-96954494D01*
X104428815Y-97051185D01*
X104525506Y-97130537D01*
X104542928Y-97139849D01*
X104541928Y-97150000D01*
X104541928Y-97229662D01*
X104486483Y-97206696D01*
X104276863Y-97165000D01*
X104063137Y-97165000D01*
X103853517Y-97206696D01*
X103656060Y-97288485D01*
X103478353Y-97407225D01*
X103327225Y-97558353D01*
X103208485Y-97736060D01*
X103126696Y-97933517D01*
X103085000Y-98143137D01*
X102790035Y-98143137D01*
X102865678Y-97238072D01*
X103470000Y-97238072D01*
X103594482Y-97225812D01*
X103714180Y-97189502D01*
X103824494Y-97130537D01*
X103921185Y-97051185D01*
X104000537Y-96954494D01*
X104059502Y-96844180D01*
X104095812Y-96724482D01*
X104108072Y-96600000D01*
X104108072Y-95600000D01*
X104095812Y-95475518D01*
X104059502Y-95355820D01*
X104000537Y-95245506D01*
X103921185Y-95148815D01*
X103824494Y-95069463D01*
X103714180Y-95010498D01*
X103594482Y-94974188D01*
X103470000Y-94961928D01*
X103126785Y-94961928D01*
X103306719Y-93768999D01*
X103793749Y-91549706D01*
X104426782Y-89367594D01*
X105203052Y-87232203D01*
X106119133Y-85152960D01*
X107170992Y-83139015D01*
X108354015Y-81199200D01*
X109663000Y-79342048D01*
X111092189Y-77575730D01*
X112635284Y-75908027D01*
X114285522Y-74346247D01*
X116035631Y-72897273D01*
X117877934Y-71567463D01*
X119804304Y-70362683D01*
X121806298Y-69288211D01*
X123875077Y-68348792D01*
X126001593Y-67548534D01*
X128186747Y-66887862D01*
X128436510Y-66822338D01*
X128452528Y-66817563D01*
X128459226Y-66815987D01*
X128804024Y-66713600D01*
X128807380Y-66712269D01*
X128810916Y-66711517D01*
X128890228Y-66682021D01*
X129704199Y-66324712D01*
X129724464Y-66313571D01*
X129745874Y-66304834D01*
X129818696Y-66261767D01*
X129818710Y-66261759D01*
X129818715Y-66261755D01*
X130556543Y-65765956D01*
X130574511Y-65751406D01*
X130594041Y-65739012D01*
X130658097Y-65683720D01*
X131296470Y-65065093D01*
X131311582Y-65047586D01*
X131328603Y-65031934D01*
X131381840Y-64966192D01*
X131381856Y-64966173D01*
X131381861Y-64966165D01*
X131900590Y-64244277D01*
X131912363Y-64224370D01*
X131926343Y-64205952D01*
X131967109Y-64131800D01*
X132349809Y-63329453D01*
X132357869Y-63307780D01*
X132368369Y-63287173D01*
X132395359Y-63206974D01*
X132629927Y-62349538D01*
X132634022Y-62326778D01*
X132640706Y-62304640D01*
X132653067Y-62220928D01*
X132731782Y-61338949D01*
X132735000Y-61306272D01*
X132735000Y-60032731D01*
X132762021Y-59729963D01*
X134258266Y-59729963D01*
X134258266Y-60270037D01*
X134363629Y-60799734D01*
X134570307Y-61298698D01*
X134870356Y-61747753D01*
X135252247Y-62129644D01*
X135701302Y-62429693D01*
X136200266Y-62636371D01*
X136729963Y-62741734D01*
X137270037Y-62741734D01*
X137799734Y-62636371D01*
X138298698Y-62429693D01*
X138747753Y-62129644D01*
X139129644Y-61747753D01*
X139429693Y-61298698D01*
X139636371Y-60799734D01*
X139741734Y-60270037D01*
X139741734Y-59729963D01*
X139636371Y-59200266D01*
X139429693Y-58701302D01*
X139129644Y-58252247D01*
X138747753Y-57870356D01*
X138298698Y-57570307D01*
X137799734Y-57363629D01*
X137270037Y-57258266D01*
X136729963Y-57258266D01*
X136200266Y-57363629D01*
X135701302Y-57570307D01*
X135252247Y-57870356D01*
X134870356Y-58252247D01*
X134570307Y-58701302D01*
X134363629Y-59200266D01*
X134258266Y-59729963D01*
X132762021Y-59729963D01*
X132805281Y-59245253D01*
X133005231Y-58514357D01*
X133331450Y-57830425D01*
X133773626Y-57215072D01*
X134317789Y-56687741D01*
X134946726Y-56265114D01*
X135640570Y-55960537D01*
X136377386Y-55783643D01*
X137133871Y-55740024D01*
X137886138Y-55831059D01*
%TA.AperFunction,Conductor*%
D17*
G36*
X137886138Y-55831059D02*
G01*
X138610388Y-56053867D01*
X139283738Y-56401409D01*
X139884901Y-56862699D01*
X140394872Y-57423149D01*
X140797540Y-58065057D01*
X141080170Y-58768122D01*
X141236190Y-59521513D01*
X141265000Y-60021169D01*
X141265001Y-61306272D01*
X141266298Y-61319440D01*
X141278413Y-61656049D01*
X141278863Y-61659632D01*
X141278707Y-61663242D01*
X141287438Y-61747410D01*
X141429908Y-62624862D01*
X141435629Y-62647269D01*
X141438736Y-62670183D01*
X141462234Y-62751474D01*
X141757835Y-63589830D01*
X141767433Y-63610870D01*
X141774549Y-63632871D01*
X141812059Y-63708691D01*
X141812071Y-63708717D01*
X141812077Y-63708725D01*
X142251461Y-64481476D01*
X142264630Y-64500478D01*
X142275533Y-64520879D01*
X142325894Y-64588881D01*
X142895182Y-65271616D01*
X142911512Y-65287990D01*
X142925851Y-65306132D01*
X142987458Y-65364142D01*
X143668651Y-65935276D01*
X143687625Y-65948502D01*
X143704950Y-65963817D01*
X143775855Y-66010000D01*
X144547423Y-66451478D01*
X144568436Y-66461133D01*
X144588200Y-66473139D01*
X144666163Y-66506036D01*
X145503715Y-66803905D01*
X145508021Y-66805017D01*
X145525587Y-66811299D01*
X145542755Y-66816572D01*
X147746053Y-67464098D01*
X149878711Y-68247813D01*
X151954729Y-69171140D01*
X153965017Y-70230036D01*
X155900673Y-71419812D01*
X157753239Y-72735268D01*
X159514561Y-74170616D01*
X161176886Y-75719540D01*
X162732884Y-77375207D01*
X164175738Y-79130360D01*
X165499106Y-80977290D01*
X166697162Y-82907865D01*
X167764630Y-84913581D01*
X168696830Y-86985643D01*
X169489658Y-89114933D01*
X170139624Y-91292080D01*
X170643873Y-93507517D01*
X171000188Y-95751501D01*
X171207004Y-98014175D01*
X171263407Y-100285560D01*
X171169153Y-102555700D01*
X170924654Y-104814605D01*
X170530986Y-107052337D01*
X169989882Y-109259064D01*
X169303718Y-111425077D01*
X168475512Y-113540851D01*
X167508906Y-115597090D01*
X166408155Y-117584736D01*
X165178083Y-119495080D01*
X163824120Y-121319689D01*
X162352204Y-123050560D01*
X160768823Y-124680064D01*
X159080926Y-126201055D01*
X157295931Y-127606843D01*
X155421695Y-128891239D01*
X153466456Y-130048599D01*
X151438820Y-131073832D01*
X149347702Y-131962428D01*
X147202263Y-132710493D01*
X145011999Y-133314718D01*
X142786467Y-133772464D01*
X140535523Y-134081705D01*
X138269022Y-134241089D01*
X135996953Y-134249911D01*
X133729262Y-134108134D01*
X131475992Y-133816385D01*
X129246983Y-133375938D01*
X127052076Y-132788738D01*
X124900917Y-132057366D01*
X122802939Y-131185029D01*
X120767401Y-130175574D01*
X118803237Y-129033435D01*
X116919085Y-127763634D01*
X115123223Y-126371749D01*
X113423564Y-124863914D01*
X111827572Y-123246751D01*
X110342263Y-121527368D01*
X108974171Y-119713331D01*
X107729304Y-117812605D01*
X106613144Y-115833557D01*
X105630601Y-113784897D01*
X104785986Y-111675609D01*
X104083026Y-109515005D01*
X103524797Y-107312547D01*
X103113763Y-105077935D01*
X103051083Y-104538072D01*
X103470000Y-104538072D01*
X103594482Y-104525812D01*
X103714180Y-104489502D01*
X103824494Y-104430537D01*
X103921185Y-104351185D01*
X104000537Y-104254494D01*
X104059502Y-104144180D01*
X104095812Y-104024482D01*
X104108072Y-103900000D01*
X104108072Y-102900000D01*
X104095812Y-102775518D01*
X104059502Y-102655820D01*
X104000537Y-102545506D01*
X103921185Y-102448815D01*
X103824494Y-102369463D01*
X103714180Y-102310498D01*
X103594482Y-102274188D01*
X103470000Y-102261928D01*
X102824164Y-102261928D01*
X102739845Y-100551658D01*
X102778607Y-98279882D01*
X102790035Y-98143137D01*
X103085000Y-98143137D01*
X103085000Y-98356863D01*
X103126696Y-98566483D01*
X103208485Y-98763940D01*
X103327225Y-98941647D01*
X103478353Y-99092775D01*
X103656060Y-99211515D01*
X103853517Y-99293304D01*
X104063137Y-99335000D01*
X104276863Y-99335000D01*
X104486483Y-99293304D01*
X104541928Y-99270338D01*
X104541928Y-99350000D01*
X104554188Y-99474482D01*
X104590498Y-99594180D01*
X104649463Y-99704494D01*
X104728815Y-99801185D01*
X104825506Y-99880537D01*
X104935820Y-99939502D01*
X105055518Y-99975812D01*
X105180000Y-99988072D01*
X105687229Y-99988072D01*
X105730829Y-100001298D01*
X105880098Y-100016000D01*
X120950098Y-100016000D01*
X121000000Y-100020915D01*
X121049902Y-100016000D01*
X121199171Y-100001298D01*
X121390687Y-99943202D01*
X121567190Y-99848860D01*
X121721896Y-99721896D01*
X121753713Y-99683128D01*
X147420841Y-74016000D01*
X154329160Y-74016000D01*
X155484000Y-75170841D01*
X155484000Y-75770289D01*
X155409774Y-75696063D01*
X155240256Y-75582795D01*
X155051898Y-75504774D01*
X154851939Y-75465000D01*
X154648061Y-75465000D01*
X154552541Y-75484000D01*
X154407974Y-75484000D01*
X154345716Y-75450722D01*
X154188500Y-75403031D01*
X154025000Y-75386928D01*
X153625000Y-75386928D01*
X153461500Y-75403031D01*
X153304284Y-75450722D01*
X153159392Y-75528169D01*
X153032394Y-75632394D01*
X153000000Y-75671866D01*
X152967606Y-75632394D01*
X152840608Y-75528169D01*
X152695716Y-75450722D01*
X152538500Y-75403031D01*
X152375000Y-75386928D01*
X151975000Y-75386928D01*
X151811500Y-75403031D01*
X151654284Y-75450722D01*
X151592026Y-75484000D01*
X149799893Y-75484000D01*
X149749999Y-75479086D01*
X149700105Y-75484000D01*
X149700098Y-75484000D01*
X149550829Y-75498702D01*
X149359313Y-75556798D01*
X149182810Y-75651140D01*
X149028104Y-75778104D01*
X148996292Y-75816867D01*
X134666868Y-90146292D01*
X134628105Y-90178104D01*
X134501141Y-90332810D01*
X134435892Y-90454883D01*
X134406799Y-90509313D01*
X134348702Y-90700830D01*
X134329085Y-90900000D01*
X134334001Y-90949911D01*
X134334000Y-93541822D01*
X134328031Y-93561500D01*
X134325450Y-93587709D01*
X126929160Y-100984000D01*
X113299893Y-100984000D01*
X113249999Y-100979086D01*
X113200105Y-100984000D01*
X112799893Y-100984000D01*
X112749999Y-100979086D01*
X112700105Y-100984000D01*
X111799902Y-100984000D01*
X111750000Y-100979085D01*
X111700098Y-100984000D01*
X105880098Y-100984000D01*
X105730829Y-100998702D01*
X105687229Y-101011928D01*
X105228901Y-101011928D01*
X105213304Y-100933517D01*
X105131515Y-100736060D01*
X105012775Y-100558353D01*
X104861647Y-100407225D01*
X104683940Y-100288485D01*
X104486483Y-100206696D01*
X104276863Y-100165000D01*
X104063137Y-100165000D01*
X103853517Y-100206696D01*
X103656060Y-100288485D01*
X103478353Y-100407225D01*
X103327225Y-100558353D01*
X103208485Y-100736060D01*
X103126696Y-100933517D01*
X103085000Y-101143137D01*
X103085000Y-101356863D01*
X103126696Y-101566483D01*
X103208485Y-101763940D01*
X103327225Y-101941647D01*
X103478353Y-102092775D01*
X103656060Y-102211515D01*
X103853517Y-102293304D01*
X104063137Y-102335000D01*
X104276863Y-102335000D01*
X104486483Y-102293304D01*
X104541928Y-102270338D01*
X104541928Y-102350000D01*
X104542928Y-102360151D01*
X104525506Y-102369463D01*
X104428815Y-102448815D01*
X104349463Y-102545506D01*
X104290498Y-102655820D01*
X104254188Y-102775518D01*
X104241928Y-102900000D01*
X104241928Y-103900000D01*
X104254188Y-104024482D01*
X104290498Y-104144180D01*
X104349463Y-104254494D01*
X104428815Y-104351185D01*
X104525506Y-104430537D01*
X104635820Y-104489502D01*
X104755518Y-104525812D01*
X104880000Y-104538072D01*
X105680000Y-104538072D01*
X105804482Y-104525812D01*
X105924180Y-104489502D01*
X106034494Y-104430537D01*
X106131185Y-104351185D01*
X106210537Y-104254494D01*
X106269502Y-104144180D01*
X106305812Y-104024482D01*
X106318072Y-103900000D01*
X106318072Y-103016000D01*
X111329160Y-103016000D01*
X111409001Y-103095841D01*
X111409000Y-114541823D01*
X111403031Y-114561500D01*
X111386928Y-114725000D01*
X111386928Y-115275000D01*
X111403031Y-115438500D01*
X111409000Y-115458178D01*
X111409001Y-117125089D01*
X111404085Y-117175000D01*
X111423702Y-117374170D01*
X111462141Y-117500884D01*
X111481799Y-117565687D01*
X111576141Y-117742190D01*
X111703105Y-117896896D01*
X111741868Y-117928708D01*
X124246292Y-130433133D01*
X124278104Y-130471896D01*
X124392976Y-130566169D01*
X124432810Y-130598860D01*
X124609313Y-130693202D01*
X124800829Y-130751298D01*
X125000000Y-130770915D01*
X125049902Y-130766000D01*
X138092026Y-130766000D01*
X138154284Y-130799278D01*
X138311500Y-130846969D01*
X138475000Y-130863072D01*
X138875000Y-130863072D01*
X139038500Y-130846969D01*
X139195716Y-130799278D01*
X139340608Y-130721831D01*
X139467606Y-130617606D01*
X139500000Y-130578134D01*
X139532394Y-130617606D01*
X139659392Y-130721831D01*
X139804284Y-130799278D01*
X139961500Y-130846969D01*
X140125000Y-130863072D01*
X140525000Y-130863072D01*
X140688500Y-130846969D01*
X140845716Y-130799278D01*
X140907974Y-130766000D01*
X141052541Y-130766000D01*
X141148061Y-130785000D01*
X141351939Y-130785000D01*
X141551898Y-130745226D01*
X141740256Y-130667205D01*
X141909774Y-130553937D01*
X142053937Y-130409774D01*
X142167205Y-130240256D01*
X142245226Y-130051898D01*
X142285000Y-129851939D01*
X142285000Y-129648061D01*
X142245226Y-129448102D01*
X142167205Y-129259744D01*
X142053937Y-129090226D01*
X141909774Y-128946063D01*
X141740256Y-128832795D01*
X141551898Y-128754774D01*
X141351939Y-128715000D01*
X141148061Y-128715000D01*
X141052541Y-128734000D01*
X140907974Y-128734000D01*
X140845716Y-128700722D01*
X140688500Y-128653031D01*
X140525000Y-128636928D01*
X140125000Y-128636928D01*
X139961500Y-128653031D01*
X139804284Y-128700722D01*
X139659392Y-128778169D01*
X139532394Y-128882394D01*
X139500000Y-128921866D01*
X139467606Y-128882394D01*
X139340608Y-128778169D01*
X139195716Y-128700722D01*
X139038500Y-128653031D01*
X138875000Y-128636928D01*
X138475000Y-128636928D01*
X138311500Y-128653031D01*
X138154284Y-128700722D01*
X138092026Y-128734000D01*
X125420841Y-128734000D01*
X113441000Y-116754160D01*
X113441000Y-115988726D01*
X113554284Y-116049278D01*
X113711500Y-116096969D01*
X113875000Y-116113072D01*
X114275000Y-116113072D01*
X114438500Y-116096969D01*
X114595716Y-116049278D01*
X114657974Y-116016000D01*
X114802541Y-116016000D01*
X114898061Y-116035000D01*
X115101939Y-116035000D01*
X115301898Y-115995226D01*
X115490256Y-115917205D01*
X115659774Y-115803937D01*
X115803937Y-115659774D01*
X115917205Y-115490256D01*
X115995226Y-115301898D01*
X116035000Y-115101939D01*
X116035000Y-114898061D01*
X115995226Y-114698102D01*
X115917205Y-114509744D01*
X115803937Y-114340226D01*
X115659774Y-114196063D01*
X115490256Y-114082795D01*
X115301898Y-114004774D01*
X115101939Y-113965000D01*
X114898061Y-113965000D01*
X114802541Y-113984000D01*
X114657974Y-113984000D01*
X114595716Y-113950722D01*
X114438500Y-113903031D01*
X114275000Y-113886928D01*
X113875000Y-113886928D01*
X113711500Y-113903031D01*
X113554284Y-113950722D01*
X113441000Y-114011274D01*
X113441000Y-103245840D01*
X113670841Y-103016000D01*
X127300098Y-103016000D01*
X127350000Y-103020915D01*
X127399902Y-103016000D01*
X127549171Y-103001298D01*
X127740687Y-102943202D01*
X127917190Y-102848860D01*
X128071896Y-102721896D01*
X128103712Y-102683128D01*
X135687291Y-95099550D01*
X135713500Y-95096969D01*
X135870716Y-95049278D01*
X136015608Y-94971831D01*
X136142606Y-94867606D01*
X136175000Y-94828134D01*
X136207394Y-94867606D01*
X136334392Y-94971831D01*
X136479284Y-95049278D01*
X136636500Y-95096969D01*
X136800000Y-95113072D01*
X137200000Y-95113072D01*
X137363500Y-95096969D01*
X137520716Y-95049278D01*
X137582974Y-95016000D01*
X137802541Y-95016000D01*
X137898061Y-95035000D01*
X138101939Y-95035000D01*
X138301898Y-94995226D01*
X138490256Y-94917205D01*
X138659774Y-94803937D01*
X138803937Y-94659774D01*
X138917205Y-94490256D01*
X138995226Y-94301898D01*
X139035000Y-94101939D01*
X139035000Y-93898061D01*
X138995226Y-93698102D01*
X138917205Y-93509744D01*
X138803937Y-93340226D01*
X138659774Y-93196063D01*
X138490256Y-93082795D01*
X138301898Y-93004774D01*
X138101939Y-92965000D01*
X137898061Y-92965000D01*
X137802541Y-92984000D01*
X137582974Y-92984000D01*
X137520716Y-92950722D01*
X137363500Y-92903031D01*
X137200000Y-92886928D01*
X136800000Y-92886928D01*
X136636500Y-92903031D01*
X136479284Y-92950722D01*
X136366000Y-93011274D01*
X136366000Y-91320840D01*
X150170841Y-77516000D01*
X151592026Y-77516000D01*
X151654284Y-77549278D01*
X151811500Y-77596969D01*
X151975000Y-77613072D01*
X152375000Y-77613072D01*
X152538500Y-77596969D01*
X152695716Y-77549278D01*
X152840608Y-77471831D01*
X152967606Y-77367606D01*
X153000000Y-77328134D01*
X153032394Y-77367606D01*
X153159392Y-77471831D01*
X153304284Y-77549278D01*
X153461500Y-77596969D01*
X153625000Y-77613072D01*
X154025000Y-77613072D01*
X154188500Y-77596969D01*
X154345716Y-77549278D01*
X154407974Y-77516000D01*
X154552541Y-77516000D01*
X154648061Y-77535000D01*
X154851939Y-77535000D01*
X155051898Y-77495226D01*
X155240256Y-77417205D01*
X155409774Y-77303937D01*
X155484000Y-77229711D01*
X155484001Y-90329158D01*
X146329160Y-99484000D01*
X139538072Y-99484000D01*
X139538072Y-98750000D01*
X139525812Y-98625518D01*
X139489502Y-98505820D01*
X139430537Y-98395506D01*
X139351185Y-98298815D01*
X139254494Y-98219463D01*
X139144180Y-98160498D01*
X139024482Y-98124188D01*
X138900000Y-98111928D01*
X135100000Y-98111928D01*
X134975518Y-98124188D01*
X134855820Y-98160498D01*
X134745506Y-98219463D01*
X134648815Y-98298815D01*
X134569463Y-98395506D01*
X134510498Y-98505820D01*
X134474188Y-98625518D01*
X134461928Y-98750000D01*
X134461928Y-102250000D01*
X134474188Y-102374482D01*
X134510498Y-102494180D01*
X134569463Y-102604494D01*
X134648815Y-102701185D01*
X134745506Y-102780537D01*
X134855820Y-102839502D01*
X134975518Y-102875812D01*
X135100000Y-102888072D01*
X138900000Y-102888072D01*
X139024482Y-102875812D01*
X139144180Y-102839502D01*
X139254494Y-102780537D01*
X139351185Y-102701185D01*
X139430537Y-102604494D01*
X139489502Y-102494180D01*
X139525812Y-102374482D01*
X139538072Y-102250000D01*
X139538072Y-101516000D01*
X146700098Y-101516000D01*
X146750000Y-101520915D01*
X146799902Y-101516000D01*
X146949171Y-101501298D01*
X147140687Y-101443202D01*
X147317190Y-101348860D01*
X147471896Y-101221896D01*
X147503712Y-101183128D01*
X157183133Y-91503708D01*
X157221896Y-91471896D01*
X157348860Y-91317190D01*
X157443202Y-91140687D01*
X157501298Y-90949171D01*
X157516000Y-90799902D01*
X157516000Y-90799895D01*
X157520914Y-90750001D01*
X157516000Y-90700107D01*
X157516000Y-74799902D01*
X157520915Y-74750000D01*
X157512117Y-74660669D01*
X157501298Y-74550829D01*
X157443202Y-74359313D01*
X157348860Y-74182810D01*
X157221896Y-74028104D01*
X157183133Y-73996292D01*
X155503712Y-72316872D01*
X155471896Y-72278104D01*
X155317190Y-72151140D01*
X155140687Y-72056798D01*
X154949171Y-71998702D01*
X154799902Y-71984000D01*
X154750000Y-71979085D01*
X154700098Y-71984000D01*
X147049902Y-71984000D01*
X147000000Y-71979085D01*
X146950098Y-71984000D01*
X146800829Y-71998702D01*
X146609313Y-72056798D01*
X146432810Y-72151140D01*
X146278104Y-72278104D01*
X146246292Y-72316867D01*
X120579160Y-97984000D01*
X107302925Y-97984000D01*
X107305812Y-97974482D01*
X107318072Y-97850000D01*
X107318072Y-97150000D01*
X107305812Y-97025518D01*
X107269502Y-96905820D01*
X107210537Y-96795506D01*
X107131185Y-96698815D01*
X107034494Y-96619463D01*
X106924180Y-96560498D01*
X106804482Y-96524188D01*
X106680000Y-96511928D01*
X106318072Y-96511928D01*
X106318072Y-95600000D01*
X106305812Y-95475518D01*
X106269502Y-95355820D01*
X106210537Y-95245506D01*
X106131185Y-95148815D01*
X106034494Y-95069463D01*
X105924180Y-95010498D01*
X105804482Y-94974188D01*
X105680000Y-94961928D01*
X104880000Y-94961928D01*
X104755518Y-94974188D01*
X104635820Y-95010498D01*
X104525506Y-95069463D01*
X104428815Y-95148815D01*
X104349463Y-95245506D01*
X104290498Y-95355820D01*
X104254188Y-95475518D01*
X104241928Y-95600000D01*
X104241928Y-96600000D01*
X104254188Y-96724482D01*
X104290498Y-96844180D01*
X104349463Y-96954494D01*
X104428815Y-97051185D01*
X104525506Y-97130537D01*
X104542928Y-97139849D01*
X104541928Y-97150000D01*
X104541928Y-97229662D01*
X104486483Y-97206696D01*
X104276863Y-97165000D01*
X104063137Y-97165000D01*
X103853517Y-97206696D01*
X103656060Y-97288485D01*
X103478353Y-97407225D01*
X103327225Y-97558353D01*
X103208485Y-97736060D01*
X103126696Y-97933517D01*
X103085000Y-98143137D01*
X102790035Y-98143137D01*
X102865678Y-97238072D01*
X103470000Y-97238072D01*
X103594482Y-97225812D01*
X103714180Y-97189502D01*
X103824494Y-97130537D01*
X103921185Y-97051185D01*
X104000537Y-96954494D01*
X104059502Y-96844180D01*
X104095812Y-96724482D01*
X104108072Y-96600000D01*
X104108072Y-95600000D01*
X104095812Y-95475518D01*
X104059502Y-95355820D01*
X104000537Y-95245506D01*
X103921185Y-95148815D01*
X103824494Y-95069463D01*
X103714180Y-95010498D01*
X103594482Y-94974188D01*
X103470000Y-94961928D01*
X103126785Y-94961928D01*
X103306719Y-93768999D01*
X103793749Y-91549706D01*
X104426782Y-89367594D01*
X105203052Y-87232203D01*
X106119133Y-85152960D01*
X107170992Y-83139015D01*
X108354015Y-81199200D01*
X109663000Y-79342048D01*
X111092189Y-77575730D01*
X112635284Y-75908027D01*
X114285522Y-74346247D01*
X116035631Y-72897273D01*
X117877934Y-71567463D01*
X119804304Y-70362683D01*
X121806298Y-69288211D01*
X123875077Y-68348792D01*
X126001593Y-67548534D01*
X128186747Y-66887862D01*
X128436510Y-66822338D01*
X128452528Y-66817563D01*
X128459226Y-66815987D01*
X128804024Y-66713600D01*
X128807380Y-66712269D01*
X128810916Y-66711517D01*
X128890228Y-66682021D01*
X129704199Y-66324712D01*
X129724464Y-66313571D01*
X129745874Y-66304834D01*
X129818696Y-66261767D01*
X129818710Y-66261759D01*
X129818715Y-66261755D01*
X130556543Y-65765956D01*
X130574511Y-65751406D01*
X130594041Y-65739012D01*
X130658097Y-65683720D01*
X131296470Y-65065093D01*
X131311582Y-65047586D01*
X131328603Y-65031934D01*
X131381840Y-64966192D01*
X131381856Y-64966173D01*
X131381861Y-64966165D01*
X131900590Y-64244277D01*
X131912363Y-64224370D01*
X131926343Y-64205952D01*
X131967109Y-64131800D01*
X132349809Y-63329453D01*
X132357869Y-63307780D01*
X132368369Y-63287173D01*
X132395359Y-63206974D01*
X132629927Y-62349538D01*
X132634022Y-62326778D01*
X132640706Y-62304640D01*
X132653067Y-62220928D01*
X132731782Y-61338949D01*
X132735000Y-61306272D01*
X132735000Y-60032731D01*
X132762021Y-59729963D01*
X134258266Y-59729963D01*
X134258266Y-60270037D01*
X134363629Y-60799734D01*
X134570307Y-61298698D01*
X134870356Y-61747753D01*
X135252247Y-62129644D01*
X135701302Y-62429693D01*
X136200266Y-62636371D01*
X136729963Y-62741734D01*
X137270037Y-62741734D01*
X137799734Y-62636371D01*
X138298698Y-62429693D01*
X138747753Y-62129644D01*
X139129644Y-61747753D01*
X139429693Y-61298698D01*
X139636371Y-60799734D01*
X139741734Y-60270037D01*
X139741734Y-59729963D01*
X139636371Y-59200266D01*
X139429693Y-58701302D01*
X139129644Y-58252247D01*
X138747753Y-57870356D01*
X138298698Y-57570307D01*
X137799734Y-57363629D01*
X137270037Y-57258266D01*
X136729963Y-57258266D01*
X136200266Y-57363629D01*
X135701302Y-57570307D01*
X135252247Y-57870356D01*
X134870356Y-58252247D01*
X134570307Y-58701302D01*
X134363629Y-59200266D01*
X134258266Y-59729963D01*
X132762021Y-59729963D01*
X132805281Y-59245253D01*
X133005231Y-58514357D01*
X133331450Y-57830425D01*
X133773626Y-57215072D01*
X134317789Y-56687741D01*
X134946726Y-56265114D01*
X135640570Y-55960537D01*
X136377386Y-55783643D01*
X137133871Y-55740024D01*
X137886138Y-55831059D01*
G37*
%TD.AperFunction*%
%TD*%
M02*
