%TF.GenerationSoftware,KiCad,Pcbnew,(5.1.10)-1*%
%TF.CreationDate,2021-10-20T07:51:42+02:00*%
%TF.ProjectId,TVZ_kuglica,54565a5f-6b75-4676-9c69-63612e6b6963,rev?*%
%TF.SameCoordinates,Original*%
%TF.FileFunction,Copper,L1,Top*%
%TF.FilePolarity,Positive*%
%FSLAX46Y46*%
G04 Gerber Fmt 4.6, Leading zero omitted, Abs format (unit mm)*
G04 Created by KiCad (PCBNEW (5.1.10)-1) date 2021-10-20 07:51:42*
%MOMM*%
%LPD*%
G01*
G04 APERTURE LIST*
%TA.AperFunction,SMDPad,CuDef*%
%ADD10R,1.100000X0.750000*%
%TD*%
%TA.AperFunction,ViaPad*%
%ADD11C,0.800000*%
%TD*%
%TA.AperFunction,Conductor*%
%ADD12C,0.762000*%
%TD*%
%TA.AperFunction,Conductor*%
%ADD13C,0.254000*%
%TD*%
%TA.AperFunction,Conductor*%
%ADD14C,0.100000*%
%TD*%
G04 APERTURE END LIST*
D10*
%TO.P,D3,1*%
%TO.N,Net-(D3-Pad1)*%
X155700000Y-75875000D03*
%TO.P,D3,2*%
%TO.N,GND*%
X157800000Y-75875000D03*
%TO.P,D3,1*%
%TO.N,Net-(D3-Pad1)*%
X155700000Y-77125000D03*
%TO.P,D3,2*%
%TO.N,GND*%
X157800000Y-77125000D03*
%TD*%
%TO.P,D5,1*%
%TO.N,Net-(D5-Pad1)*%
X115950000Y-114375000D03*
%TO.P,D5,2*%
%TO.N,GND*%
X118050000Y-114375000D03*
%TO.P,D5,1*%
%TO.N,Net-(D5-Pad1)*%
X115950000Y-115625000D03*
%TO.P,D5,2*%
%TO.N,GND*%
X118050000Y-115625000D03*
%TD*%
%TO.P,D7,1*%
%TO.N,Net-(D7-Pad1)*%
X142200000Y-129125000D03*
%TO.P,D7,2*%
%TO.N,GND*%
X144300000Y-129125000D03*
%TO.P,D7,1*%
%TO.N,Net-(D7-Pad1)*%
X142200000Y-130375000D03*
%TO.P,D7,2*%
%TO.N,GND*%
X144300000Y-130375000D03*
%TD*%
%TO.P,D12,1*%
%TO.N,Net-(D12-Pad1)*%
X138950000Y-93375000D03*
%TO.P,D12,2*%
%TO.N,GND*%
X141050000Y-93375000D03*
%TO.P,D12,1*%
%TO.N,Net-(D12-Pad1)*%
X138950000Y-94625000D03*
%TO.P,D12,2*%
%TO.N,GND*%
X141050000Y-94625000D03*
%TD*%
D11*
%TO.N,GND*%
X129000000Y-77000000D03*
X115000000Y-89500000D03*
X148750000Y-81750000D03*
X148500000Y-104000000D03*
X164250000Y-109250000D03*
X146000000Y-113750000D03*
X143750000Y-125750000D03*
X120500000Y-128250000D03*
X130750000Y-112500000D03*
X119500000Y-107250000D03*
X109750000Y-104500000D03*
X158750000Y-76500000D03*
X142000000Y-94000000D03*
X119000000Y-115000000D03*
X145250000Y-129750000D03*
%TO.N,Net-(D12-Pad1)*%
X138000000Y-94000000D03*
%TO.N,Net-(D3-Pad1)*%
X154750000Y-76500000D03*
%TO.N,Net-(D5-Pad1)*%
X115000000Y-115000000D03*
%TO.N,Net-(D7-Pad1)*%
X141250000Y-129750000D03*
%TD*%
D12*
%TO.N,Net-(D12-Pad1)*%
X138325000Y-94000000D02*
X138950000Y-93375000D01*
X138325000Y-94000000D02*
X138950000Y-94625000D01*
X138000000Y-94000000D02*
X138325000Y-94000000D01*
%TO.N,Net-(D3-Pad1)*%
X155075000Y-76500000D02*
X155700000Y-75875000D01*
X155075000Y-76500000D02*
X155700000Y-77125000D01*
X154750000Y-76500000D02*
X155075000Y-76500000D01*
%TO.N,Net-(D5-Pad1)*%
X115325000Y-115000000D02*
X115950000Y-114375000D01*
X115325000Y-115000000D02*
X115950000Y-115625000D01*
X115000000Y-115000000D02*
X115325000Y-115000000D01*
%TO.N,Net-(D7-Pad1)*%
X141575000Y-129750000D02*
X142200000Y-129125000D01*
X141575000Y-129750000D02*
X142200000Y-130375000D01*
X141250000Y-129750000D02*
X141575000Y-129750000D01*
%TD*%
D13*
%TO.N,GND*%
X137886138Y-55831059D02*
X138610388Y-56053867D01*
X139283738Y-56401409D01*
X139884901Y-56862699D01*
X140394872Y-57423149D01*
X140797540Y-58065057D01*
X141080170Y-58768122D01*
X141236190Y-59521513D01*
X141265000Y-60021169D01*
X141265001Y-61306272D01*
X141266298Y-61319440D01*
X141278413Y-61656049D01*
X141278863Y-61659632D01*
X141278707Y-61663242D01*
X141287438Y-61747410D01*
X141429908Y-62624862D01*
X141435629Y-62647269D01*
X141438736Y-62670183D01*
X141462234Y-62751474D01*
X141757835Y-63589830D01*
X141767433Y-63610870D01*
X141774549Y-63632871D01*
X141812059Y-63708691D01*
X141812071Y-63708717D01*
X141812077Y-63708725D01*
X142251461Y-64481476D01*
X142264630Y-64500478D01*
X142275533Y-64520879D01*
X142325894Y-64588881D01*
X142895182Y-65271616D01*
X142911512Y-65287990D01*
X142925851Y-65306132D01*
X142987458Y-65364142D01*
X143668651Y-65935276D01*
X143687625Y-65948502D01*
X143704950Y-65963817D01*
X143775855Y-66010000D01*
X144547423Y-66451478D01*
X144568436Y-66461133D01*
X144588200Y-66473139D01*
X144666163Y-66506036D01*
X145503715Y-66803905D01*
X145508021Y-66805017D01*
X145525587Y-66811299D01*
X145542755Y-66816572D01*
X147746053Y-67464098D01*
X149878711Y-68247813D01*
X151954729Y-69171140D01*
X153965017Y-70230036D01*
X155900673Y-71419812D01*
X157753239Y-72735268D01*
X159514561Y-74170616D01*
X161176886Y-75719540D01*
X162732884Y-77375207D01*
X164175738Y-79130360D01*
X165499106Y-80977290D01*
X166697162Y-82907865D01*
X167764630Y-84913581D01*
X168696830Y-86985643D01*
X169489658Y-89114933D01*
X170139624Y-91292080D01*
X170643873Y-93507517D01*
X171000188Y-95751501D01*
X171207004Y-98014175D01*
X171263407Y-100285560D01*
X171169153Y-102555700D01*
X170924654Y-104814605D01*
X170530986Y-107052337D01*
X169989882Y-109259064D01*
X169303718Y-111425077D01*
X168475512Y-113540851D01*
X167508906Y-115597090D01*
X166408155Y-117584736D01*
X165178083Y-119495080D01*
X163824120Y-121319689D01*
X162352204Y-123050560D01*
X160768823Y-124680064D01*
X159080926Y-126201055D01*
X157295931Y-127606843D01*
X155421695Y-128891239D01*
X153466456Y-130048599D01*
X151438820Y-131073832D01*
X149347702Y-131962428D01*
X147202263Y-132710493D01*
X145011999Y-133314718D01*
X142786467Y-133772464D01*
X140535523Y-134081705D01*
X138269022Y-134241089D01*
X135996953Y-134249911D01*
X133729262Y-134108134D01*
X131475992Y-133816385D01*
X129246983Y-133375938D01*
X127052076Y-132788738D01*
X124900917Y-132057366D01*
X122802939Y-131185029D01*
X120767401Y-130175574D01*
X119860225Y-129648061D01*
X140215000Y-129648061D01*
X140215000Y-129851939D01*
X140254774Y-130051898D01*
X140332795Y-130240256D01*
X140446063Y-130409774D01*
X140590226Y-130553937D01*
X140759744Y-130667205D01*
X140948102Y-130745226D01*
X141012724Y-130758080D01*
X141024188Y-130874482D01*
X141060498Y-130994180D01*
X141119463Y-131104494D01*
X141198815Y-131201185D01*
X141295506Y-131280537D01*
X141405820Y-131339502D01*
X141525518Y-131375812D01*
X141650000Y-131388072D01*
X142120375Y-131388072D01*
X142199999Y-131395914D01*
X142279623Y-131388072D01*
X142750000Y-131388072D01*
X142874482Y-131375812D01*
X142994180Y-131339502D01*
X143104494Y-131280537D01*
X143201185Y-131201185D01*
X143250000Y-131141704D01*
X143298815Y-131201185D01*
X143395506Y-131280537D01*
X143505820Y-131339502D01*
X143625518Y-131375812D01*
X143750000Y-131388072D01*
X144014250Y-131385000D01*
X144173000Y-131226250D01*
X144173000Y-130502000D01*
X144427000Y-130502000D01*
X144427000Y-131226250D01*
X144585750Y-131385000D01*
X144850000Y-131388072D01*
X144974482Y-131375812D01*
X145094180Y-131339502D01*
X145204494Y-131280537D01*
X145301185Y-131201185D01*
X145380537Y-131104494D01*
X145439502Y-130994180D01*
X145475812Y-130874482D01*
X145488072Y-130750000D01*
X145485000Y-130660750D01*
X145326250Y-130502000D01*
X144427000Y-130502000D01*
X144173000Y-130502000D01*
X144153000Y-130502000D01*
X144153000Y-130248000D01*
X144173000Y-130248000D01*
X144173000Y-129252000D01*
X144427000Y-129252000D01*
X144427000Y-130248000D01*
X145326250Y-130248000D01*
X145485000Y-130089250D01*
X145488072Y-130000000D01*
X145475812Y-129875518D01*
X145439502Y-129755820D01*
X145436391Y-129750000D01*
X145439502Y-129744180D01*
X145475812Y-129624482D01*
X145488072Y-129500000D01*
X145485000Y-129410750D01*
X145326250Y-129252000D01*
X144427000Y-129252000D01*
X144173000Y-129252000D01*
X144153000Y-129252000D01*
X144153000Y-128998000D01*
X144173000Y-128998000D01*
X144173000Y-128273750D01*
X144427000Y-128273750D01*
X144427000Y-128998000D01*
X145326250Y-128998000D01*
X145485000Y-128839250D01*
X145488072Y-128750000D01*
X145475812Y-128625518D01*
X145439502Y-128505820D01*
X145380537Y-128395506D01*
X145301185Y-128298815D01*
X145204494Y-128219463D01*
X145094180Y-128160498D01*
X144974482Y-128124188D01*
X144850000Y-128111928D01*
X144585750Y-128115000D01*
X144427000Y-128273750D01*
X144173000Y-128273750D01*
X144014250Y-128115000D01*
X143750000Y-128111928D01*
X143625518Y-128124188D01*
X143505820Y-128160498D01*
X143395506Y-128219463D01*
X143298815Y-128298815D01*
X143250000Y-128358296D01*
X143201185Y-128298815D01*
X143104494Y-128219463D01*
X142994180Y-128160498D01*
X142874482Y-128124188D01*
X142750000Y-128111928D01*
X142279623Y-128111928D01*
X142199999Y-128104086D01*
X142120375Y-128111928D01*
X141650000Y-128111928D01*
X141525518Y-128124188D01*
X141405820Y-128160498D01*
X141295506Y-128219463D01*
X141198815Y-128298815D01*
X141119463Y-128395506D01*
X141060498Y-128505820D01*
X141024188Y-128625518D01*
X141012724Y-128741920D01*
X140948102Y-128754774D01*
X140759744Y-128832795D01*
X140590226Y-128946063D01*
X140446063Y-129090226D01*
X140332795Y-129259744D01*
X140254774Y-129448102D01*
X140215000Y-129648061D01*
X119860225Y-129648061D01*
X118803237Y-129033435D01*
X116919085Y-127763634D01*
X115123223Y-126371749D01*
X113423564Y-124863914D01*
X111827572Y-123246751D01*
X110342263Y-121527368D01*
X108974171Y-119713331D01*
X107729304Y-117812605D01*
X106613144Y-115833557D01*
X106164478Y-114898061D01*
X113965000Y-114898061D01*
X113965000Y-115101939D01*
X114004774Y-115301898D01*
X114082795Y-115490256D01*
X114196063Y-115659774D01*
X114340226Y-115803937D01*
X114509744Y-115917205D01*
X114698102Y-115995226D01*
X114762724Y-116008080D01*
X114774188Y-116124482D01*
X114810498Y-116244180D01*
X114869463Y-116354494D01*
X114948815Y-116451185D01*
X115045506Y-116530537D01*
X115155820Y-116589502D01*
X115275518Y-116625812D01*
X115400000Y-116638072D01*
X115870375Y-116638072D01*
X115949999Y-116645914D01*
X116029623Y-116638072D01*
X116500000Y-116638072D01*
X116624482Y-116625812D01*
X116744180Y-116589502D01*
X116854494Y-116530537D01*
X116951185Y-116451185D01*
X117000000Y-116391704D01*
X117048815Y-116451185D01*
X117145506Y-116530537D01*
X117255820Y-116589502D01*
X117375518Y-116625812D01*
X117500000Y-116638072D01*
X117764250Y-116635000D01*
X117923000Y-116476250D01*
X117923000Y-115752000D01*
X118177000Y-115752000D01*
X118177000Y-116476250D01*
X118335750Y-116635000D01*
X118600000Y-116638072D01*
X118724482Y-116625812D01*
X118844180Y-116589502D01*
X118954494Y-116530537D01*
X119051185Y-116451185D01*
X119130537Y-116354494D01*
X119189502Y-116244180D01*
X119225812Y-116124482D01*
X119238072Y-116000000D01*
X119235000Y-115910750D01*
X119076250Y-115752000D01*
X118177000Y-115752000D01*
X117923000Y-115752000D01*
X117903000Y-115752000D01*
X117903000Y-115498000D01*
X117923000Y-115498000D01*
X117923000Y-114502000D01*
X118177000Y-114502000D01*
X118177000Y-115498000D01*
X119076250Y-115498000D01*
X119235000Y-115339250D01*
X119238072Y-115250000D01*
X119225812Y-115125518D01*
X119189502Y-115005820D01*
X119186391Y-115000000D01*
X119189502Y-114994180D01*
X119225812Y-114874482D01*
X119238072Y-114750000D01*
X119235000Y-114660750D01*
X119076250Y-114502000D01*
X118177000Y-114502000D01*
X117923000Y-114502000D01*
X117903000Y-114502000D01*
X117903000Y-114248000D01*
X117923000Y-114248000D01*
X117923000Y-113523750D01*
X118177000Y-113523750D01*
X118177000Y-114248000D01*
X119076250Y-114248000D01*
X119235000Y-114089250D01*
X119238072Y-114000000D01*
X119225812Y-113875518D01*
X119189502Y-113755820D01*
X119130537Y-113645506D01*
X119051185Y-113548815D01*
X118954494Y-113469463D01*
X118844180Y-113410498D01*
X118724482Y-113374188D01*
X118600000Y-113361928D01*
X118335750Y-113365000D01*
X118177000Y-113523750D01*
X117923000Y-113523750D01*
X117764250Y-113365000D01*
X117500000Y-113361928D01*
X117375518Y-113374188D01*
X117255820Y-113410498D01*
X117145506Y-113469463D01*
X117048815Y-113548815D01*
X117000000Y-113608296D01*
X116951185Y-113548815D01*
X116854494Y-113469463D01*
X116744180Y-113410498D01*
X116624482Y-113374188D01*
X116500000Y-113361928D01*
X116029623Y-113361928D01*
X115949999Y-113354086D01*
X115870375Y-113361928D01*
X115400000Y-113361928D01*
X115275518Y-113374188D01*
X115155820Y-113410498D01*
X115045506Y-113469463D01*
X114948815Y-113548815D01*
X114869463Y-113645506D01*
X114810498Y-113755820D01*
X114774188Y-113875518D01*
X114762724Y-113991920D01*
X114698102Y-114004774D01*
X114509744Y-114082795D01*
X114340226Y-114196063D01*
X114196063Y-114340226D01*
X114082795Y-114509744D01*
X114004774Y-114698102D01*
X113965000Y-114898061D01*
X106164478Y-114898061D01*
X105630601Y-113784897D01*
X104785986Y-111675609D01*
X104083026Y-109515005D01*
X103524797Y-107312547D01*
X103113763Y-105077935D01*
X102851726Y-102820985D01*
X102769006Y-101143137D01*
X103085000Y-101143137D01*
X103085000Y-101356863D01*
X103126696Y-101566483D01*
X103208485Y-101763940D01*
X103327225Y-101941647D01*
X103478353Y-102092775D01*
X103656060Y-102211515D01*
X103853517Y-102293304D01*
X104063137Y-102335000D01*
X104276863Y-102335000D01*
X104486483Y-102293304D01*
X104683940Y-102211515D01*
X104861647Y-102092775D01*
X105012775Y-101941647D01*
X105131515Y-101763940D01*
X105213304Y-101566483D01*
X105255000Y-101356863D01*
X105255000Y-101143137D01*
X105213304Y-100933517D01*
X105131515Y-100736060D01*
X105012775Y-100558353D01*
X104861647Y-100407225D01*
X104683940Y-100288485D01*
X104486483Y-100206696D01*
X104276863Y-100165000D01*
X104063137Y-100165000D01*
X103853517Y-100206696D01*
X103656060Y-100288485D01*
X103478353Y-100407225D01*
X103327225Y-100558353D01*
X103208485Y-100736060D01*
X103126696Y-100933517D01*
X103085000Y-101143137D01*
X102769006Y-101143137D01*
X102739845Y-100551658D01*
X102778607Y-98279882D01*
X102790035Y-98143137D01*
X103085000Y-98143137D01*
X103085000Y-98356863D01*
X103126696Y-98566483D01*
X103208485Y-98763940D01*
X103327225Y-98941647D01*
X103478353Y-99092775D01*
X103656060Y-99211515D01*
X103853517Y-99293304D01*
X104063137Y-99335000D01*
X104276863Y-99335000D01*
X104486483Y-99293304D01*
X104683940Y-99211515D01*
X104861647Y-99092775D01*
X105012775Y-98941647D01*
X105131515Y-98763940D01*
X105213304Y-98566483D01*
X105255000Y-98356863D01*
X105255000Y-98143137D01*
X105213304Y-97933517D01*
X105131515Y-97736060D01*
X105012775Y-97558353D01*
X104861647Y-97407225D01*
X104683940Y-97288485D01*
X104486483Y-97206696D01*
X104276863Y-97165000D01*
X104063137Y-97165000D01*
X103853517Y-97206696D01*
X103656060Y-97288485D01*
X103478353Y-97407225D01*
X103327225Y-97558353D01*
X103208485Y-97736060D01*
X103126696Y-97933517D01*
X103085000Y-98143137D01*
X102790035Y-98143137D01*
X102967842Y-96015687D01*
X103287252Y-93898061D01*
X136965000Y-93898061D01*
X136965000Y-94101939D01*
X137004774Y-94301898D01*
X137082795Y-94490256D01*
X137196063Y-94659774D01*
X137340226Y-94803937D01*
X137509744Y-94917205D01*
X137698102Y-94995226D01*
X137762724Y-95008080D01*
X137774188Y-95124482D01*
X137810498Y-95244180D01*
X137869463Y-95354494D01*
X137948815Y-95451185D01*
X138045506Y-95530537D01*
X138155820Y-95589502D01*
X138275518Y-95625812D01*
X138400000Y-95638072D01*
X138870375Y-95638072D01*
X138949999Y-95645914D01*
X139029623Y-95638072D01*
X139500000Y-95638072D01*
X139624482Y-95625812D01*
X139744180Y-95589502D01*
X139854494Y-95530537D01*
X139951185Y-95451185D01*
X140000000Y-95391704D01*
X140048815Y-95451185D01*
X140145506Y-95530537D01*
X140255820Y-95589502D01*
X140375518Y-95625812D01*
X140500000Y-95638072D01*
X140764250Y-95635000D01*
X140923000Y-95476250D01*
X140923000Y-94752000D01*
X141177000Y-94752000D01*
X141177000Y-95476250D01*
X141335750Y-95635000D01*
X141600000Y-95638072D01*
X141724482Y-95625812D01*
X141844180Y-95589502D01*
X141954494Y-95530537D01*
X142051185Y-95451185D01*
X142130537Y-95354494D01*
X142189502Y-95244180D01*
X142225812Y-95124482D01*
X142238072Y-95000000D01*
X142235000Y-94910750D01*
X142076250Y-94752000D01*
X141177000Y-94752000D01*
X140923000Y-94752000D01*
X140903000Y-94752000D01*
X140903000Y-94498000D01*
X140923000Y-94498000D01*
X140923000Y-93502000D01*
X141177000Y-93502000D01*
X141177000Y-94498000D01*
X142076250Y-94498000D01*
X142235000Y-94339250D01*
X142238072Y-94250000D01*
X142225812Y-94125518D01*
X142189502Y-94005820D01*
X142186391Y-94000000D01*
X142189502Y-93994180D01*
X142225812Y-93874482D01*
X142238072Y-93750000D01*
X142235000Y-93660750D01*
X142076250Y-93502000D01*
X141177000Y-93502000D01*
X140923000Y-93502000D01*
X140903000Y-93502000D01*
X140903000Y-93248000D01*
X140923000Y-93248000D01*
X140923000Y-92523750D01*
X141177000Y-92523750D01*
X141177000Y-93248000D01*
X142076250Y-93248000D01*
X142235000Y-93089250D01*
X142238072Y-93000000D01*
X142225812Y-92875518D01*
X142189502Y-92755820D01*
X142130537Y-92645506D01*
X142051185Y-92548815D01*
X141954494Y-92469463D01*
X141844180Y-92410498D01*
X141724482Y-92374188D01*
X141600000Y-92361928D01*
X141335750Y-92365000D01*
X141177000Y-92523750D01*
X140923000Y-92523750D01*
X140764250Y-92365000D01*
X140500000Y-92361928D01*
X140375518Y-92374188D01*
X140255820Y-92410498D01*
X140145506Y-92469463D01*
X140048815Y-92548815D01*
X140000000Y-92608296D01*
X139951185Y-92548815D01*
X139854494Y-92469463D01*
X139744180Y-92410498D01*
X139624482Y-92374188D01*
X139500000Y-92361928D01*
X139029623Y-92361928D01*
X138949999Y-92354086D01*
X138870375Y-92361928D01*
X138400000Y-92361928D01*
X138275518Y-92374188D01*
X138155820Y-92410498D01*
X138045506Y-92469463D01*
X137948815Y-92548815D01*
X137869463Y-92645506D01*
X137810498Y-92755820D01*
X137774188Y-92875518D01*
X137762724Y-92991920D01*
X137698102Y-93004774D01*
X137509744Y-93082795D01*
X137340226Y-93196063D01*
X137196063Y-93340226D01*
X137082795Y-93509744D01*
X137004774Y-93698102D01*
X136965000Y-93898061D01*
X103287252Y-93898061D01*
X103306719Y-93768999D01*
X103793749Y-91549706D01*
X104426782Y-89367594D01*
X105203052Y-87232203D01*
X106119133Y-85152960D01*
X107170992Y-83139015D01*
X108354015Y-81199200D01*
X109663000Y-79342048D01*
X111092189Y-77575730D01*
X112181864Y-76398061D01*
X153715000Y-76398061D01*
X153715000Y-76601939D01*
X153754774Y-76801898D01*
X153832795Y-76990256D01*
X153946063Y-77159774D01*
X154090226Y-77303937D01*
X154259744Y-77417205D01*
X154448102Y-77495226D01*
X154512724Y-77508080D01*
X154524188Y-77624482D01*
X154560498Y-77744180D01*
X154619463Y-77854494D01*
X154698815Y-77951185D01*
X154795506Y-78030537D01*
X154905820Y-78089502D01*
X155025518Y-78125812D01*
X155150000Y-78138072D01*
X155620375Y-78138072D01*
X155699999Y-78145914D01*
X155779623Y-78138072D01*
X156250000Y-78138072D01*
X156374482Y-78125812D01*
X156494180Y-78089502D01*
X156604494Y-78030537D01*
X156701185Y-77951185D01*
X156750000Y-77891704D01*
X156798815Y-77951185D01*
X156895506Y-78030537D01*
X157005820Y-78089502D01*
X157125518Y-78125812D01*
X157250000Y-78138072D01*
X157514250Y-78135000D01*
X157673000Y-77976250D01*
X157673000Y-77252000D01*
X157927000Y-77252000D01*
X157927000Y-77976250D01*
X158085750Y-78135000D01*
X158350000Y-78138072D01*
X158474482Y-78125812D01*
X158594180Y-78089502D01*
X158704494Y-78030537D01*
X158801185Y-77951185D01*
X158880537Y-77854494D01*
X158939502Y-77744180D01*
X158975812Y-77624482D01*
X158988072Y-77500000D01*
X158985000Y-77410750D01*
X158826250Y-77252000D01*
X157927000Y-77252000D01*
X157673000Y-77252000D01*
X157653000Y-77252000D01*
X157653000Y-76998000D01*
X157673000Y-76998000D01*
X157673000Y-76002000D01*
X157927000Y-76002000D01*
X157927000Y-76998000D01*
X158826250Y-76998000D01*
X158985000Y-76839250D01*
X158988072Y-76750000D01*
X158975812Y-76625518D01*
X158939502Y-76505820D01*
X158936391Y-76500000D01*
X158939502Y-76494180D01*
X158975812Y-76374482D01*
X158988072Y-76250000D01*
X158985000Y-76160750D01*
X158826250Y-76002000D01*
X157927000Y-76002000D01*
X157673000Y-76002000D01*
X157653000Y-76002000D01*
X157653000Y-75748000D01*
X157673000Y-75748000D01*
X157673000Y-75023750D01*
X157927000Y-75023750D01*
X157927000Y-75748000D01*
X158826250Y-75748000D01*
X158985000Y-75589250D01*
X158988072Y-75500000D01*
X158975812Y-75375518D01*
X158939502Y-75255820D01*
X158880537Y-75145506D01*
X158801185Y-75048815D01*
X158704494Y-74969463D01*
X158594180Y-74910498D01*
X158474482Y-74874188D01*
X158350000Y-74861928D01*
X158085750Y-74865000D01*
X157927000Y-75023750D01*
X157673000Y-75023750D01*
X157514250Y-74865000D01*
X157250000Y-74861928D01*
X157125518Y-74874188D01*
X157005820Y-74910498D01*
X156895506Y-74969463D01*
X156798815Y-75048815D01*
X156750000Y-75108296D01*
X156701185Y-75048815D01*
X156604494Y-74969463D01*
X156494180Y-74910498D01*
X156374482Y-74874188D01*
X156250000Y-74861928D01*
X155779623Y-74861928D01*
X155699999Y-74854086D01*
X155620375Y-74861928D01*
X155150000Y-74861928D01*
X155025518Y-74874188D01*
X154905820Y-74910498D01*
X154795506Y-74969463D01*
X154698815Y-75048815D01*
X154619463Y-75145506D01*
X154560498Y-75255820D01*
X154524188Y-75375518D01*
X154512724Y-75491920D01*
X154448102Y-75504774D01*
X154259744Y-75582795D01*
X154090226Y-75696063D01*
X153946063Y-75840226D01*
X153832795Y-76009744D01*
X153754774Y-76198102D01*
X153715000Y-76398061D01*
X112181864Y-76398061D01*
X112635284Y-75908027D01*
X114285522Y-74346247D01*
X116035631Y-72897273D01*
X117877934Y-71567463D01*
X119804304Y-70362683D01*
X121806298Y-69288211D01*
X123875077Y-68348792D01*
X126001593Y-67548534D01*
X128186747Y-66887862D01*
X128436510Y-66822338D01*
X128452528Y-66817563D01*
X128459226Y-66815987D01*
X128804024Y-66713600D01*
X128807380Y-66712269D01*
X128810916Y-66711517D01*
X128890228Y-66682021D01*
X129704199Y-66324712D01*
X129724464Y-66313571D01*
X129745874Y-66304834D01*
X129818696Y-66261767D01*
X129818710Y-66261759D01*
X129818715Y-66261755D01*
X130556543Y-65765956D01*
X130574511Y-65751406D01*
X130594041Y-65739012D01*
X130658097Y-65683720D01*
X131296470Y-65065093D01*
X131311582Y-65047586D01*
X131328603Y-65031934D01*
X131381840Y-64966192D01*
X131381856Y-64966173D01*
X131381861Y-64966165D01*
X131900590Y-64244277D01*
X131912363Y-64224370D01*
X131926343Y-64205952D01*
X131967109Y-64131800D01*
X132349809Y-63329453D01*
X132357869Y-63307780D01*
X132368369Y-63287173D01*
X132395359Y-63206974D01*
X132629927Y-62349538D01*
X132634022Y-62326778D01*
X132640706Y-62304640D01*
X132653067Y-62220928D01*
X132731782Y-61338949D01*
X132735000Y-61306272D01*
X132735000Y-60032731D01*
X132762021Y-59729963D01*
X134258266Y-59729963D01*
X134258266Y-60270037D01*
X134363629Y-60799734D01*
X134570307Y-61298698D01*
X134870356Y-61747753D01*
X135252247Y-62129644D01*
X135701302Y-62429693D01*
X136200266Y-62636371D01*
X136729963Y-62741734D01*
X137270037Y-62741734D01*
X137799734Y-62636371D01*
X138298698Y-62429693D01*
X138747753Y-62129644D01*
X139129644Y-61747753D01*
X139429693Y-61298698D01*
X139636371Y-60799734D01*
X139741734Y-60270037D01*
X139741734Y-59729963D01*
X139636371Y-59200266D01*
X139429693Y-58701302D01*
X139129644Y-58252247D01*
X138747753Y-57870356D01*
X138298698Y-57570307D01*
X137799734Y-57363629D01*
X137270037Y-57258266D01*
X136729963Y-57258266D01*
X136200266Y-57363629D01*
X135701302Y-57570307D01*
X135252247Y-57870356D01*
X134870356Y-58252247D01*
X134570307Y-58701302D01*
X134363629Y-59200266D01*
X134258266Y-59729963D01*
X132762021Y-59729963D01*
X132805281Y-59245253D01*
X133005231Y-58514357D01*
X133331450Y-57830425D01*
X133773626Y-57215072D01*
X134317789Y-56687741D01*
X134946726Y-56265114D01*
X135640570Y-55960537D01*
X136377386Y-55783643D01*
X137133871Y-55740024D01*
X137886138Y-55831059D01*
%TA.AperFunction,Conductor*%
D14*
G36*
X137886138Y-55831059D02*
G01*
X138610388Y-56053867D01*
X139283738Y-56401409D01*
X139884901Y-56862699D01*
X140394872Y-57423149D01*
X140797540Y-58065057D01*
X141080170Y-58768122D01*
X141236190Y-59521513D01*
X141265000Y-60021169D01*
X141265001Y-61306272D01*
X141266298Y-61319440D01*
X141278413Y-61656049D01*
X141278863Y-61659632D01*
X141278707Y-61663242D01*
X141287438Y-61747410D01*
X141429908Y-62624862D01*
X141435629Y-62647269D01*
X141438736Y-62670183D01*
X141462234Y-62751474D01*
X141757835Y-63589830D01*
X141767433Y-63610870D01*
X141774549Y-63632871D01*
X141812059Y-63708691D01*
X141812071Y-63708717D01*
X141812077Y-63708725D01*
X142251461Y-64481476D01*
X142264630Y-64500478D01*
X142275533Y-64520879D01*
X142325894Y-64588881D01*
X142895182Y-65271616D01*
X142911512Y-65287990D01*
X142925851Y-65306132D01*
X142987458Y-65364142D01*
X143668651Y-65935276D01*
X143687625Y-65948502D01*
X143704950Y-65963817D01*
X143775855Y-66010000D01*
X144547423Y-66451478D01*
X144568436Y-66461133D01*
X144588200Y-66473139D01*
X144666163Y-66506036D01*
X145503715Y-66803905D01*
X145508021Y-66805017D01*
X145525587Y-66811299D01*
X145542755Y-66816572D01*
X147746053Y-67464098D01*
X149878711Y-68247813D01*
X151954729Y-69171140D01*
X153965017Y-70230036D01*
X155900673Y-71419812D01*
X157753239Y-72735268D01*
X159514561Y-74170616D01*
X161176886Y-75719540D01*
X162732884Y-77375207D01*
X164175738Y-79130360D01*
X165499106Y-80977290D01*
X166697162Y-82907865D01*
X167764630Y-84913581D01*
X168696830Y-86985643D01*
X169489658Y-89114933D01*
X170139624Y-91292080D01*
X170643873Y-93507517D01*
X171000188Y-95751501D01*
X171207004Y-98014175D01*
X171263407Y-100285560D01*
X171169153Y-102555700D01*
X170924654Y-104814605D01*
X170530986Y-107052337D01*
X169989882Y-109259064D01*
X169303718Y-111425077D01*
X168475512Y-113540851D01*
X167508906Y-115597090D01*
X166408155Y-117584736D01*
X165178083Y-119495080D01*
X163824120Y-121319689D01*
X162352204Y-123050560D01*
X160768823Y-124680064D01*
X159080926Y-126201055D01*
X157295931Y-127606843D01*
X155421695Y-128891239D01*
X153466456Y-130048599D01*
X151438820Y-131073832D01*
X149347702Y-131962428D01*
X147202263Y-132710493D01*
X145011999Y-133314718D01*
X142786467Y-133772464D01*
X140535523Y-134081705D01*
X138269022Y-134241089D01*
X135996953Y-134249911D01*
X133729262Y-134108134D01*
X131475992Y-133816385D01*
X129246983Y-133375938D01*
X127052076Y-132788738D01*
X124900917Y-132057366D01*
X122802939Y-131185029D01*
X120767401Y-130175574D01*
X119860225Y-129648061D01*
X140215000Y-129648061D01*
X140215000Y-129851939D01*
X140254774Y-130051898D01*
X140332795Y-130240256D01*
X140446063Y-130409774D01*
X140590226Y-130553937D01*
X140759744Y-130667205D01*
X140948102Y-130745226D01*
X141012724Y-130758080D01*
X141024188Y-130874482D01*
X141060498Y-130994180D01*
X141119463Y-131104494D01*
X141198815Y-131201185D01*
X141295506Y-131280537D01*
X141405820Y-131339502D01*
X141525518Y-131375812D01*
X141650000Y-131388072D01*
X142120375Y-131388072D01*
X142199999Y-131395914D01*
X142279623Y-131388072D01*
X142750000Y-131388072D01*
X142874482Y-131375812D01*
X142994180Y-131339502D01*
X143104494Y-131280537D01*
X143201185Y-131201185D01*
X143250000Y-131141704D01*
X143298815Y-131201185D01*
X143395506Y-131280537D01*
X143505820Y-131339502D01*
X143625518Y-131375812D01*
X143750000Y-131388072D01*
X144014250Y-131385000D01*
X144173000Y-131226250D01*
X144173000Y-130502000D01*
X144427000Y-130502000D01*
X144427000Y-131226250D01*
X144585750Y-131385000D01*
X144850000Y-131388072D01*
X144974482Y-131375812D01*
X145094180Y-131339502D01*
X145204494Y-131280537D01*
X145301185Y-131201185D01*
X145380537Y-131104494D01*
X145439502Y-130994180D01*
X145475812Y-130874482D01*
X145488072Y-130750000D01*
X145485000Y-130660750D01*
X145326250Y-130502000D01*
X144427000Y-130502000D01*
X144173000Y-130502000D01*
X144153000Y-130502000D01*
X144153000Y-130248000D01*
X144173000Y-130248000D01*
X144173000Y-129252000D01*
X144427000Y-129252000D01*
X144427000Y-130248000D01*
X145326250Y-130248000D01*
X145485000Y-130089250D01*
X145488072Y-130000000D01*
X145475812Y-129875518D01*
X145439502Y-129755820D01*
X145436391Y-129750000D01*
X145439502Y-129744180D01*
X145475812Y-129624482D01*
X145488072Y-129500000D01*
X145485000Y-129410750D01*
X145326250Y-129252000D01*
X144427000Y-129252000D01*
X144173000Y-129252000D01*
X144153000Y-129252000D01*
X144153000Y-128998000D01*
X144173000Y-128998000D01*
X144173000Y-128273750D01*
X144427000Y-128273750D01*
X144427000Y-128998000D01*
X145326250Y-128998000D01*
X145485000Y-128839250D01*
X145488072Y-128750000D01*
X145475812Y-128625518D01*
X145439502Y-128505820D01*
X145380537Y-128395506D01*
X145301185Y-128298815D01*
X145204494Y-128219463D01*
X145094180Y-128160498D01*
X144974482Y-128124188D01*
X144850000Y-128111928D01*
X144585750Y-128115000D01*
X144427000Y-128273750D01*
X144173000Y-128273750D01*
X144014250Y-128115000D01*
X143750000Y-128111928D01*
X143625518Y-128124188D01*
X143505820Y-128160498D01*
X143395506Y-128219463D01*
X143298815Y-128298815D01*
X143250000Y-128358296D01*
X143201185Y-128298815D01*
X143104494Y-128219463D01*
X142994180Y-128160498D01*
X142874482Y-128124188D01*
X142750000Y-128111928D01*
X142279623Y-128111928D01*
X142199999Y-128104086D01*
X142120375Y-128111928D01*
X141650000Y-128111928D01*
X141525518Y-128124188D01*
X141405820Y-128160498D01*
X141295506Y-128219463D01*
X141198815Y-128298815D01*
X141119463Y-128395506D01*
X141060498Y-128505820D01*
X141024188Y-128625518D01*
X141012724Y-128741920D01*
X140948102Y-128754774D01*
X140759744Y-128832795D01*
X140590226Y-128946063D01*
X140446063Y-129090226D01*
X140332795Y-129259744D01*
X140254774Y-129448102D01*
X140215000Y-129648061D01*
X119860225Y-129648061D01*
X118803237Y-129033435D01*
X116919085Y-127763634D01*
X115123223Y-126371749D01*
X113423564Y-124863914D01*
X111827572Y-123246751D01*
X110342263Y-121527368D01*
X108974171Y-119713331D01*
X107729304Y-117812605D01*
X106613144Y-115833557D01*
X106164478Y-114898061D01*
X113965000Y-114898061D01*
X113965000Y-115101939D01*
X114004774Y-115301898D01*
X114082795Y-115490256D01*
X114196063Y-115659774D01*
X114340226Y-115803937D01*
X114509744Y-115917205D01*
X114698102Y-115995226D01*
X114762724Y-116008080D01*
X114774188Y-116124482D01*
X114810498Y-116244180D01*
X114869463Y-116354494D01*
X114948815Y-116451185D01*
X115045506Y-116530537D01*
X115155820Y-116589502D01*
X115275518Y-116625812D01*
X115400000Y-116638072D01*
X115870375Y-116638072D01*
X115949999Y-116645914D01*
X116029623Y-116638072D01*
X116500000Y-116638072D01*
X116624482Y-116625812D01*
X116744180Y-116589502D01*
X116854494Y-116530537D01*
X116951185Y-116451185D01*
X117000000Y-116391704D01*
X117048815Y-116451185D01*
X117145506Y-116530537D01*
X117255820Y-116589502D01*
X117375518Y-116625812D01*
X117500000Y-116638072D01*
X117764250Y-116635000D01*
X117923000Y-116476250D01*
X117923000Y-115752000D01*
X118177000Y-115752000D01*
X118177000Y-116476250D01*
X118335750Y-116635000D01*
X118600000Y-116638072D01*
X118724482Y-116625812D01*
X118844180Y-116589502D01*
X118954494Y-116530537D01*
X119051185Y-116451185D01*
X119130537Y-116354494D01*
X119189502Y-116244180D01*
X119225812Y-116124482D01*
X119238072Y-116000000D01*
X119235000Y-115910750D01*
X119076250Y-115752000D01*
X118177000Y-115752000D01*
X117923000Y-115752000D01*
X117903000Y-115752000D01*
X117903000Y-115498000D01*
X117923000Y-115498000D01*
X117923000Y-114502000D01*
X118177000Y-114502000D01*
X118177000Y-115498000D01*
X119076250Y-115498000D01*
X119235000Y-115339250D01*
X119238072Y-115250000D01*
X119225812Y-115125518D01*
X119189502Y-115005820D01*
X119186391Y-115000000D01*
X119189502Y-114994180D01*
X119225812Y-114874482D01*
X119238072Y-114750000D01*
X119235000Y-114660750D01*
X119076250Y-114502000D01*
X118177000Y-114502000D01*
X117923000Y-114502000D01*
X117903000Y-114502000D01*
X117903000Y-114248000D01*
X117923000Y-114248000D01*
X117923000Y-113523750D01*
X118177000Y-113523750D01*
X118177000Y-114248000D01*
X119076250Y-114248000D01*
X119235000Y-114089250D01*
X119238072Y-114000000D01*
X119225812Y-113875518D01*
X119189502Y-113755820D01*
X119130537Y-113645506D01*
X119051185Y-113548815D01*
X118954494Y-113469463D01*
X118844180Y-113410498D01*
X118724482Y-113374188D01*
X118600000Y-113361928D01*
X118335750Y-113365000D01*
X118177000Y-113523750D01*
X117923000Y-113523750D01*
X117764250Y-113365000D01*
X117500000Y-113361928D01*
X117375518Y-113374188D01*
X117255820Y-113410498D01*
X117145506Y-113469463D01*
X117048815Y-113548815D01*
X117000000Y-113608296D01*
X116951185Y-113548815D01*
X116854494Y-113469463D01*
X116744180Y-113410498D01*
X116624482Y-113374188D01*
X116500000Y-113361928D01*
X116029623Y-113361928D01*
X115949999Y-113354086D01*
X115870375Y-113361928D01*
X115400000Y-113361928D01*
X115275518Y-113374188D01*
X115155820Y-113410498D01*
X115045506Y-113469463D01*
X114948815Y-113548815D01*
X114869463Y-113645506D01*
X114810498Y-113755820D01*
X114774188Y-113875518D01*
X114762724Y-113991920D01*
X114698102Y-114004774D01*
X114509744Y-114082795D01*
X114340226Y-114196063D01*
X114196063Y-114340226D01*
X114082795Y-114509744D01*
X114004774Y-114698102D01*
X113965000Y-114898061D01*
X106164478Y-114898061D01*
X105630601Y-113784897D01*
X104785986Y-111675609D01*
X104083026Y-109515005D01*
X103524797Y-107312547D01*
X103113763Y-105077935D01*
X102851726Y-102820985D01*
X102769006Y-101143137D01*
X103085000Y-101143137D01*
X103085000Y-101356863D01*
X103126696Y-101566483D01*
X103208485Y-101763940D01*
X103327225Y-101941647D01*
X103478353Y-102092775D01*
X103656060Y-102211515D01*
X103853517Y-102293304D01*
X104063137Y-102335000D01*
X104276863Y-102335000D01*
X104486483Y-102293304D01*
X104683940Y-102211515D01*
X104861647Y-102092775D01*
X105012775Y-101941647D01*
X105131515Y-101763940D01*
X105213304Y-101566483D01*
X105255000Y-101356863D01*
X105255000Y-101143137D01*
X105213304Y-100933517D01*
X105131515Y-100736060D01*
X105012775Y-100558353D01*
X104861647Y-100407225D01*
X104683940Y-100288485D01*
X104486483Y-100206696D01*
X104276863Y-100165000D01*
X104063137Y-100165000D01*
X103853517Y-100206696D01*
X103656060Y-100288485D01*
X103478353Y-100407225D01*
X103327225Y-100558353D01*
X103208485Y-100736060D01*
X103126696Y-100933517D01*
X103085000Y-101143137D01*
X102769006Y-101143137D01*
X102739845Y-100551658D01*
X102778607Y-98279882D01*
X102790035Y-98143137D01*
X103085000Y-98143137D01*
X103085000Y-98356863D01*
X103126696Y-98566483D01*
X103208485Y-98763940D01*
X103327225Y-98941647D01*
X103478353Y-99092775D01*
X103656060Y-99211515D01*
X103853517Y-99293304D01*
X104063137Y-99335000D01*
X104276863Y-99335000D01*
X104486483Y-99293304D01*
X104683940Y-99211515D01*
X104861647Y-99092775D01*
X105012775Y-98941647D01*
X105131515Y-98763940D01*
X105213304Y-98566483D01*
X105255000Y-98356863D01*
X105255000Y-98143137D01*
X105213304Y-97933517D01*
X105131515Y-97736060D01*
X105012775Y-97558353D01*
X104861647Y-97407225D01*
X104683940Y-97288485D01*
X104486483Y-97206696D01*
X104276863Y-97165000D01*
X104063137Y-97165000D01*
X103853517Y-97206696D01*
X103656060Y-97288485D01*
X103478353Y-97407225D01*
X103327225Y-97558353D01*
X103208485Y-97736060D01*
X103126696Y-97933517D01*
X103085000Y-98143137D01*
X102790035Y-98143137D01*
X102967842Y-96015687D01*
X103287252Y-93898061D01*
X136965000Y-93898061D01*
X136965000Y-94101939D01*
X137004774Y-94301898D01*
X137082795Y-94490256D01*
X137196063Y-94659774D01*
X137340226Y-94803937D01*
X137509744Y-94917205D01*
X137698102Y-94995226D01*
X137762724Y-95008080D01*
X137774188Y-95124482D01*
X137810498Y-95244180D01*
X137869463Y-95354494D01*
X137948815Y-95451185D01*
X138045506Y-95530537D01*
X138155820Y-95589502D01*
X138275518Y-95625812D01*
X138400000Y-95638072D01*
X138870375Y-95638072D01*
X138949999Y-95645914D01*
X139029623Y-95638072D01*
X139500000Y-95638072D01*
X139624482Y-95625812D01*
X139744180Y-95589502D01*
X139854494Y-95530537D01*
X139951185Y-95451185D01*
X140000000Y-95391704D01*
X140048815Y-95451185D01*
X140145506Y-95530537D01*
X140255820Y-95589502D01*
X140375518Y-95625812D01*
X140500000Y-95638072D01*
X140764250Y-95635000D01*
X140923000Y-95476250D01*
X140923000Y-94752000D01*
X141177000Y-94752000D01*
X141177000Y-95476250D01*
X141335750Y-95635000D01*
X141600000Y-95638072D01*
X141724482Y-95625812D01*
X141844180Y-95589502D01*
X141954494Y-95530537D01*
X142051185Y-95451185D01*
X142130537Y-95354494D01*
X142189502Y-95244180D01*
X142225812Y-95124482D01*
X142238072Y-95000000D01*
X142235000Y-94910750D01*
X142076250Y-94752000D01*
X141177000Y-94752000D01*
X140923000Y-94752000D01*
X140903000Y-94752000D01*
X140903000Y-94498000D01*
X140923000Y-94498000D01*
X140923000Y-93502000D01*
X141177000Y-93502000D01*
X141177000Y-94498000D01*
X142076250Y-94498000D01*
X142235000Y-94339250D01*
X142238072Y-94250000D01*
X142225812Y-94125518D01*
X142189502Y-94005820D01*
X142186391Y-94000000D01*
X142189502Y-93994180D01*
X142225812Y-93874482D01*
X142238072Y-93750000D01*
X142235000Y-93660750D01*
X142076250Y-93502000D01*
X141177000Y-93502000D01*
X140923000Y-93502000D01*
X140903000Y-93502000D01*
X140903000Y-93248000D01*
X140923000Y-93248000D01*
X140923000Y-92523750D01*
X141177000Y-92523750D01*
X141177000Y-93248000D01*
X142076250Y-93248000D01*
X142235000Y-93089250D01*
X142238072Y-93000000D01*
X142225812Y-92875518D01*
X142189502Y-92755820D01*
X142130537Y-92645506D01*
X142051185Y-92548815D01*
X141954494Y-92469463D01*
X141844180Y-92410498D01*
X141724482Y-92374188D01*
X141600000Y-92361928D01*
X141335750Y-92365000D01*
X141177000Y-92523750D01*
X140923000Y-92523750D01*
X140764250Y-92365000D01*
X140500000Y-92361928D01*
X140375518Y-92374188D01*
X140255820Y-92410498D01*
X140145506Y-92469463D01*
X140048815Y-92548815D01*
X140000000Y-92608296D01*
X139951185Y-92548815D01*
X139854494Y-92469463D01*
X139744180Y-92410498D01*
X139624482Y-92374188D01*
X139500000Y-92361928D01*
X139029623Y-92361928D01*
X138949999Y-92354086D01*
X138870375Y-92361928D01*
X138400000Y-92361928D01*
X138275518Y-92374188D01*
X138155820Y-92410498D01*
X138045506Y-92469463D01*
X137948815Y-92548815D01*
X137869463Y-92645506D01*
X137810498Y-92755820D01*
X137774188Y-92875518D01*
X137762724Y-92991920D01*
X137698102Y-93004774D01*
X137509744Y-93082795D01*
X137340226Y-93196063D01*
X137196063Y-93340226D01*
X137082795Y-93509744D01*
X137004774Y-93698102D01*
X136965000Y-93898061D01*
X103287252Y-93898061D01*
X103306719Y-93768999D01*
X103793749Y-91549706D01*
X104426782Y-89367594D01*
X105203052Y-87232203D01*
X106119133Y-85152960D01*
X107170992Y-83139015D01*
X108354015Y-81199200D01*
X109663000Y-79342048D01*
X111092189Y-77575730D01*
X112181864Y-76398061D01*
X153715000Y-76398061D01*
X153715000Y-76601939D01*
X153754774Y-76801898D01*
X153832795Y-76990256D01*
X153946063Y-77159774D01*
X154090226Y-77303937D01*
X154259744Y-77417205D01*
X154448102Y-77495226D01*
X154512724Y-77508080D01*
X154524188Y-77624482D01*
X154560498Y-77744180D01*
X154619463Y-77854494D01*
X154698815Y-77951185D01*
X154795506Y-78030537D01*
X154905820Y-78089502D01*
X155025518Y-78125812D01*
X155150000Y-78138072D01*
X155620375Y-78138072D01*
X155699999Y-78145914D01*
X155779623Y-78138072D01*
X156250000Y-78138072D01*
X156374482Y-78125812D01*
X156494180Y-78089502D01*
X156604494Y-78030537D01*
X156701185Y-77951185D01*
X156750000Y-77891704D01*
X156798815Y-77951185D01*
X156895506Y-78030537D01*
X157005820Y-78089502D01*
X157125518Y-78125812D01*
X157250000Y-78138072D01*
X157514250Y-78135000D01*
X157673000Y-77976250D01*
X157673000Y-77252000D01*
X157927000Y-77252000D01*
X157927000Y-77976250D01*
X158085750Y-78135000D01*
X158350000Y-78138072D01*
X158474482Y-78125812D01*
X158594180Y-78089502D01*
X158704494Y-78030537D01*
X158801185Y-77951185D01*
X158880537Y-77854494D01*
X158939502Y-77744180D01*
X158975812Y-77624482D01*
X158988072Y-77500000D01*
X158985000Y-77410750D01*
X158826250Y-77252000D01*
X157927000Y-77252000D01*
X157673000Y-77252000D01*
X157653000Y-77252000D01*
X157653000Y-76998000D01*
X157673000Y-76998000D01*
X157673000Y-76002000D01*
X157927000Y-76002000D01*
X157927000Y-76998000D01*
X158826250Y-76998000D01*
X158985000Y-76839250D01*
X158988072Y-76750000D01*
X158975812Y-76625518D01*
X158939502Y-76505820D01*
X158936391Y-76500000D01*
X158939502Y-76494180D01*
X158975812Y-76374482D01*
X158988072Y-76250000D01*
X158985000Y-76160750D01*
X158826250Y-76002000D01*
X157927000Y-76002000D01*
X157673000Y-76002000D01*
X157653000Y-76002000D01*
X157653000Y-75748000D01*
X157673000Y-75748000D01*
X157673000Y-75023750D01*
X157927000Y-75023750D01*
X157927000Y-75748000D01*
X158826250Y-75748000D01*
X158985000Y-75589250D01*
X158988072Y-75500000D01*
X158975812Y-75375518D01*
X158939502Y-75255820D01*
X158880537Y-75145506D01*
X158801185Y-75048815D01*
X158704494Y-74969463D01*
X158594180Y-74910498D01*
X158474482Y-74874188D01*
X158350000Y-74861928D01*
X158085750Y-74865000D01*
X157927000Y-75023750D01*
X157673000Y-75023750D01*
X157514250Y-74865000D01*
X157250000Y-74861928D01*
X157125518Y-74874188D01*
X157005820Y-74910498D01*
X156895506Y-74969463D01*
X156798815Y-75048815D01*
X156750000Y-75108296D01*
X156701185Y-75048815D01*
X156604494Y-74969463D01*
X156494180Y-74910498D01*
X156374482Y-74874188D01*
X156250000Y-74861928D01*
X155779623Y-74861928D01*
X155699999Y-74854086D01*
X155620375Y-74861928D01*
X155150000Y-74861928D01*
X155025518Y-74874188D01*
X154905820Y-74910498D01*
X154795506Y-74969463D01*
X154698815Y-75048815D01*
X154619463Y-75145506D01*
X154560498Y-75255820D01*
X154524188Y-75375518D01*
X154512724Y-75491920D01*
X154448102Y-75504774D01*
X154259744Y-75582795D01*
X154090226Y-75696063D01*
X153946063Y-75840226D01*
X153832795Y-76009744D01*
X153754774Y-76198102D01*
X153715000Y-76398061D01*
X112181864Y-76398061D01*
X112635284Y-75908027D01*
X114285522Y-74346247D01*
X116035631Y-72897273D01*
X117877934Y-71567463D01*
X119804304Y-70362683D01*
X121806298Y-69288211D01*
X123875077Y-68348792D01*
X126001593Y-67548534D01*
X128186747Y-66887862D01*
X128436510Y-66822338D01*
X128452528Y-66817563D01*
X128459226Y-66815987D01*
X128804024Y-66713600D01*
X128807380Y-66712269D01*
X128810916Y-66711517D01*
X128890228Y-66682021D01*
X129704199Y-66324712D01*
X129724464Y-66313571D01*
X129745874Y-66304834D01*
X129818696Y-66261767D01*
X129818710Y-66261759D01*
X129818715Y-66261755D01*
X130556543Y-65765956D01*
X130574511Y-65751406D01*
X130594041Y-65739012D01*
X130658097Y-65683720D01*
X131296470Y-65065093D01*
X131311582Y-65047586D01*
X131328603Y-65031934D01*
X131381840Y-64966192D01*
X131381856Y-64966173D01*
X131381861Y-64966165D01*
X131900590Y-64244277D01*
X131912363Y-64224370D01*
X131926343Y-64205952D01*
X131967109Y-64131800D01*
X132349809Y-63329453D01*
X132357869Y-63307780D01*
X132368369Y-63287173D01*
X132395359Y-63206974D01*
X132629927Y-62349538D01*
X132634022Y-62326778D01*
X132640706Y-62304640D01*
X132653067Y-62220928D01*
X132731782Y-61338949D01*
X132735000Y-61306272D01*
X132735000Y-60032731D01*
X132762021Y-59729963D01*
X134258266Y-59729963D01*
X134258266Y-60270037D01*
X134363629Y-60799734D01*
X134570307Y-61298698D01*
X134870356Y-61747753D01*
X135252247Y-62129644D01*
X135701302Y-62429693D01*
X136200266Y-62636371D01*
X136729963Y-62741734D01*
X137270037Y-62741734D01*
X137799734Y-62636371D01*
X138298698Y-62429693D01*
X138747753Y-62129644D01*
X139129644Y-61747753D01*
X139429693Y-61298698D01*
X139636371Y-60799734D01*
X139741734Y-60270037D01*
X139741734Y-59729963D01*
X139636371Y-59200266D01*
X139429693Y-58701302D01*
X139129644Y-58252247D01*
X138747753Y-57870356D01*
X138298698Y-57570307D01*
X137799734Y-57363629D01*
X137270037Y-57258266D01*
X136729963Y-57258266D01*
X136200266Y-57363629D01*
X135701302Y-57570307D01*
X135252247Y-57870356D01*
X134870356Y-58252247D01*
X134570307Y-58701302D01*
X134363629Y-59200266D01*
X134258266Y-59729963D01*
X132762021Y-59729963D01*
X132805281Y-59245253D01*
X133005231Y-58514357D01*
X133331450Y-57830425D01*
X133773626Y-57215072D01*
X134317789Y-56687741D01*
X134946726Y-56265114D01*
X135640570Y-55960537D01*
X136377386Y-55783643D01*
X137133871Y-55740024D01*
X137886138Y-55831059D01*
G37*
%TD.AperFunction*%
%TD*%
M02*
