%TF.GenerationSoftware,KiCad,Pcbnew,(5.1.10)-1*%
%TF.CreationDate,2021-10-17T13:02:00+02:00*%
%TF.ProjectId,TVZ_kuglica,54565a5f-6b75-4676-9c69-63612e6b6963,rev?*%
%TF.SameCoordinates,Original*%
%TF.FileFunction,Soldermask,Top*%
%TF.FilePolarity,Negative*%
%FSLAX46Y46*%
G04 Gerber Fmt 4.6, Leading zero omitted, Abs format (unit mm)*
G04 Created by KiCad (PCBNEW (5.1.10)-1) date 2021-10-17 13:02:00*
%MOMM*%
%LPD*%
G01*
G04 APERTURE LIST*
%ADD10C,0.700000*%
%ADD11C,0.010000*%
%ADD12C,0.900000*%
%ADD13R,1.100000X0.750000*%
G04 APERTURE END LIST*
D10*
X109500000Y-120250000D02*
X112000000Y-122750000D01*
X109250000Y-120500000D02*
X109500000Y-120250000D01*
X109500000Y-117750000D02*
X108250000Y-119000000D01*
X162000000Y-122750000D02*
X164500000Y-120250000D01*
X152000000Y-120250000D02*
X149500000Y-117750000D01*
X157000000Y-120250000D02*
X154500000Y-117750000D01*
X165750000Y-119000000D02*
X164500000Y-117750000D01*
X164500000Y-117750000D02*
X162000000Y-120250000D01*
X112000000Y-122750000D02*
X114500000Y-120250000D01*
X144500000Y-120250000D02*
X147000000Y-122750000D01*
X159500000Y-120250000D02*
X162000000Y-122750000D01*
X142000000Y-120250000D02*
X139500000Y-117750000D01*
X142000000Y-122750000D02*
X144500000Y-120250000D01*
X137000000Y-122750000D02*
X139500000Y-120250000D01*
X119500000Y-117750000D02*
X117000000Y-120250000D01*
X134500000Y-117750000D02*
X132000000Y-120250000D01*
X162000000Y-120250000D02*
X159500000Y-117750000D01*
X159500000Y-117750000D02*
X157000000Y-120250000D01*
X117000000Y-122750000D02*
X119500000Y-120250000D01*
X157000000Y-122750000D02*
X159500000Y-120250000D01*
X129500000Y-120250000D02*
X132000000Y-122750000D01*
X154500000Y-120250000D02*
X157000000Y-122750000D01*
X134500000Y-120250000D02*
X137000000Y-122750000D01*
X124500000Y-120250000D02*
X127000000Y-122750000D01*
X132000000Y-122750000D02*
X134500000Y-120250000D01*
X119500000Y-120250000D02*
X122000000Y-122750000D01*
X147000000Y-120250000D02*
X144500000Y-117750000D01*
X154500000Y-117750000D02*
X152000000Y-120250000D01*
X139500000Y-117750000D02*
X137000000Y-120250000D01*
X129500000Y-117750000D02*
X127000000Y-120250000D01*
X152000000Y-122750000D02*
X154500000Y-120250000D01*
X149500000Y-120250000D02*
X152000000Y-122750000D01*
X117000000Y-120250000D02*
X114500000Y-117750000D01*
X114500000Y-117750000D02*
X112000000Y-120250000D01*
X147000000Y-122750000D02*
X149500000Y-120250000D01*
X114500000Y-120250000D02*
X117000000Y-122750000D01*
X127000000Y-120250000D02*
X124500000Y-117750000D01*
X112000000Y-120250000D02*
X109500000Y-117750000D01*
X122000000Y-120250000D02*
X119500000Y-117750000D01*
X137000000Y-120250000D02*
X134500000Y-117750000D01*
X149500000Y-117750000D02*
X147000000Y-120250000D01*
X124500000Y-117750000D02*
X122000000Y-120250000D01*
X144500000Y-117750000D02*
X142000000Y-120250000D01*
X122000000Y-122750000D02*
X124500000Y-120250000D01*
X132000000Y-120250000D02*
X129500000Y-117750000D01*
X139500000Y-120250000D02*
X142000000Y-122750000D01*
X164500000Y-120250000D02*
X164750000Y-120500000D01*
X127000000Y-122750000D02*
X129500000Y-120250000D01*
D11*
%TO.C,G\u002A\u002A\u002A*%
G36*
X147003743Y-77268890D02*
G01*
X147073028Y-77371176D01*
X147105533Y-77439428D01*
X147182896Y-77576098D01*
X147276486Y-77694631D01*
X147366689Y-77777744D01*
X147433891Y-77808155D01*
X147458480Y-77768583D01*
X147456152Y-77748369D01*
X147416542Y-77635784D01*
X147355881Y-77518021D01*
X147300171Y-77383177D01*
X147291439Y-77282064D01*
X147322463Y-77268114D01*
X147384430Y-77357384D01*
X147444814Y-77479835D01*
X147574541Y-77706908D01*
X147710012Y-77839357D01*
X147838394Y-77868959D01*
X147855994Y-77823074D01*
X147832933Y-77769620D01*
X147760560Y-77625228D01*
X147708025Y-77469905D01*
X147684023Y-77338624D01*
X147697243Y-77266353D01*
X147706687Y-77261715D01*
X147762767Y-77300707D01*
X147793458Y-77385972D01*
X147842189Y-77542244D01*
X147896676Y-77654348D01*
X147980084Y-77753385D01*
X148046165Y-77773458D01*
X148068546Y-77717838D01*
X148044273Y-77636031D01*
X148012922Y-77499755D01*
X148018162Y-77350915D01*
X148054285Y-77233603D01*
X148101739Y-77192057D01*
X148160202Y-77228149D01*
X148173403Y-77265393D01*
X148152583Y-77345273D01*
X148125245Y-77359857D01*
X148095603Y-77416536D01*
X148128703Y-77561176D01*
X148129942Y-77564746D01*
X148204290Y-77723949D01*
X148289784Y-77834378D01*
X148368423Y-77885508D01*
X148422202Y-77866815D01*
X148433116Y-77767773D01*
X148428956Y-77739552D01*
X148430758Y-77616167D01*
X148459972Y-77554883D01*
X148496857Y-77558734D01*
X148514334Y-77661114D01*
X148516606Y-77742118D01*
X148527662Y-77903360D01*
X148553394Y-77966110D01*
X148587141Y-77925213D01*
X148614741Y-77818041D01*
X148660986Y-77703303D01*
X148718564Y-77656446D01*
X148819981Y-77664096D01*
X148830016Y-77736179D01*
X148782587Y-77821879D01*
X148711383Y-77976591D01*
X148743917Y-78088061D01*
X148879408Y-78155700D01*
X149117072Y-78178921D01*
X149252473Y-78174991D01*
X149414281Y-78170129D01*
X149518340Y-78175256D01*
X149538768Y-78182698D01*
X149520417Y-78287453D01*
X149458130Y-78397925D01*
X149384711Y-78456027D01*
X149384355Y-78456092D01*
X149326053Y-78508817D01*
X149331692Y-78605380D01*
X149393424Y-78702496D01*
X149434616Y-78733282D01*
X149501776Y-78806049D01*
X149503932Y-78851563D01*
X149508678Y-78884426D01*
X149527970Y-78871526D01*
X149615892Y-78859612D01*
X149734324Y-78931028D01*
X149867688Y-79066052D01*
X150000404Y-79244965D01*
X150116893Y-79448044D01*
X150201576Y-79655569D01*
X150227566Y-79757113D01*
X150268241Y-79967367D01*
X150504733Y-79888107D01*
X150670995Y-79848169D01*
X150772499Y-79868805D01*
X150812793Y-79959773D01*
X150795430Y-80130834D01*
X150723959Y-80391746D01*
X150707134Y-80444352D01*
X150635566Y-80655164D01*
X150572718Y-80822814D01*
X150529228Y-80919480D01*
X150521054Y-80930955D01*
X150456922Y-80951501D01*
X150427728Y-80884702D01*
X150441744Y-80763098D01*
X150454666Y-80651823D01*
X150426229Y-80622304D01*
X150380558Y-80673252D01*
X150381291Y-80685526D01*
X150349492Y-80758815D01*
X150290065Y-80818259D01*
X150212247Y-80862487D01*
X150176133Y-80813515D01*
X150166107Y-80765360D01*
X150193008Y-80623008D01*
X150270634Y-80545538D01*
X150361342Y-80462024D01*
X150388173Y-80399511D01*
X150342851Y-80386668D01*
X150239066Y-80447263D01*
X150235115Y-80450259D01*
X150073124Y-80527223D01*
X149834156Y-80584923D01*
X149553039Y-80619705D01*
X149264599Y-80627913D01*
X149003667Y-80605894D01*
X148917621Y-80588509D01*
X148732386Y-80551403D01*
X148610401Y-80555819D01*
X148509176Y-80603761D01*
X148502838Y-80608064D01*
X148367707Y-80672296D01*
X148179926Y-80729164D01*
X148098668Y-80746140D01*
X147965270Y-80776267D01*
X147853961Y-80824258D01*
X147747350Y-80905999D01*
X147628042Y-81037377D01*
X147478647Y-81234280D01*
X147320941Y-81456565D01*
X147181407Y-81628440D01*
X147063347Y-81721989D01*
X146979076Y-81730350D01*
X146943492Y-81666987D01*
X146974490Y-81587913D01*
X147064890Y-81471860D01*
X147184289Y-81350254D01*
X147302286Y-81254522D01*
X147378837Y-81216957D01*
X147421190Y-81163083D01*
X147420826Y-81123581D01*
X147437797Y-81044314D01*
X147461711Y-81030398D01*
X147508224Y-80978581D01*
X147507496Y-80965010D01*
X147468886Y-80918979D01*
X147380102Y-80955450D01*
X147236133Y-81077780D01*
X147046129Y-81273920D01*
X146841690Y-81483862D01*
X146698609Y-81602866D01*
X146614099Y-81632890D01*
X146587217Y-81596756D01*
X146605086Y-81510062D01*
X146689429Y-81385330D01*
X146848677Y-81211947D01*
X147039107Y-81027860D01*
X147237025Y-80845961D01*
X147365058Y-80738174D01*
X147432591Y-80698242D01*
X147449016Y-80719908D01*
X147437315Y-80762453D01*
X147432975Y-80802644D01*
X147452015Y-80783742D01*
X147474957Y-80712830D01*
X147574563Y-80695266D01*
X147607257Y-80718159D01*
X147630150Y-80685465D01*
X147852498Y-80646259D01*
X147885192Y-80669151D01*
X147908085Y-80636457D01*
X147875390Y-80613564D01*
X147852498Y-80646259D01*
X147630150Y-80685465D01*
X147597456Y-80662571D01*
X147574563Y-80695266D01*
X147474957Y-80712830D01*
X147484521Y-80683269D01*
X147483015Y-80663645D01*
X147520728Y-80599188D01*
X147603112Y-80555959D01*
X147747145Y-80480660D01*
X148219071Y-80397447D01*
X148238073Y-80426127D01*
X148304566Y-80475933D01*
X148334585Y-80458018D01*
X148333756Y-80450152D01*
X148330423Y-80447357D01*
X148777873Y-80368460D01*
X148810567Y-80391352D01*
X148833460Y-80358658D01*
X148800765Y-80335765D01*
X148777873Y-80368460D01*
X148330423Y-80447357D01*
X148285983Y-80410097D01*
X148258264Y-80397292D01*
X148219071Y-80397447D01*
X147747145Y-80480660D01*
X147822281Y-80441380D01*
X147840823Y-80419056D01*
X148647096Y-80276889D01*
X148679790Y-80299781D01*
X148702683Y-80267087D01*
X148669989Y-80244195D01*
X148647096Y-80276889D01*
X147840823Y-80419056D01*
X147957667Y-80278383D01*
X147999685Y-80086141D01*
X147938892Y-79884076D01*
X147872005Y-79724371D01*
X147882921Y-79629386D01*
X147964527Y-79610586D01*
X148078269Y-79659497D01*
X148212627Y-79719104D01*
X148315643Y-79733523D01*
X148415018Y-79740740D01*
X148580473Y-79775509D01*
X148724437Y-79815100D01*
X148926772Y-79867401D01*
X149063612Y-79875377D01*
X149172655Y-79840463D01*
X149186897Y-79832770D01*
X149274630Y-79766537D01*
X149307747Y-79674837D01*
X149299924Y-79516985D01*
X149298133Y-79501881D01*
X149219817Y-79220281D01*
X149086940Y-78967055D01*
X149033961Y-78890425D01*
X149366640Y-78831765D01*
X149399334Y-78854657D01*
X149422227Y-78821963D01*
X149389533Y-78799070D01*
X149366640Y-78831765D01*
X149033961Y-78890425D01*
X148975469Y-78805822D01*
X148892317Y-78727009D01*
X148815112Y-78712174D01*
X148785606Y-78718608D01*
X148680795Y-78716991D01*
X148650474Y-78670792D01*
X148603677Y-78603265D01*
X148573494Y-78599069D01*
X148540459Y-78575475D01*
X148567138Y-78511788D01*
X148592519Y-78414048D01*
X148549253Y-78361745D01*
X148438679Y-78341793D01*
X148325489Y-78420764D01*
X148221453Y-78585612D01*
X148140549Y-78814724D01*
X148064423Y-79034449D01*
X147979065Y-79152483D01*
X147888745Y-79164412D01*
X147839962Y-79125803D01*
X147836728Y-79049946D01*
X147882376Y-78979722D01*
X147933683Y-78895369D01*
X147923345Y-78852480D01*
X147856934Y-78865051D01*
X147789089Y-78928782D01*
X147643911Y-79033261D01*
X147444241Y-79077326D01*
X147234500Y-79054979D01*
X147138922Y-79016593D01*
X147023795Y-78935600D01*
X147010105Y-78865649D01*
X147016428Y-78855099D01*
X147085368Y-78825647D01*
X147200013Y-78887077D01*
X147200381Y-78887354D01*
X147341060Y-78956057D01*
X147475164Y-78964580D01*
X147561971Y-78911593D01*
X147567975Y-78899330D01*
X147540170Y-78836417D01*
X147444425Y-78752337D01*
X147428970Y-78741904D01*
X147295068Y-78636865D01*
X147267766Y-78566264D01*
X147341377Y-78529747D01*
X147433721Y-78561603D01*
X147478904Y-78620756D01*
X147570168Y-78705089D01*
X147708134Y-78739842D01*
X147833509Y-78712352D01*
X147849955Y-78700004D01*
X147892317Y-78610355D01*
X147828589Y-78522161D01*
X147695143Y-78455707D01*
X147567200Y-78389517D01*
X147499402Y-78315251D01*
X147497530Y-78308083D01*
X147459611Y-78270996D01*
X147666837Y-78234457D01*
X147707496Y-78296896D01*
X147757597Y-78338228D01*
X147870680Y-78389402D01*
X148006259Y-78406192D01*
X148124701Y-78390150D01*
X148186374Y-78342824D01*
X148187662Y-78321411D01*
X148131126Y-78264465D01*
X148073971Y-78245478D01*
X147954266Y-78195569D01*
X147912947Y-78161040D01*
X147890921Y-78145748D01*
X148070454Y-78114092D01*
X148176098Y-78181271D01*
X148243604Y-78199099D01*
X148379718Y-78221045D01*
X148445733Y-78204452D01*
X148473717Y-78159023D01*
X148442681Y-78102176D01*
X148335521Y-78036327D01*
X148297210Y-78020065D01*
X148150492Y-77977193D01*
X148077839Y-77996668D01*
X148067809Y-78013908D01*
X148070454Y-78114092D01*
X147890921Y-78145748D01*
X147834395Y-78106507D01*
X147745600Y-78142535D01*
X147705831Y-78176288D01*
X147666837Y-78234457D01*
X147459611Y-78270996D01*
X147436295Y-78248193D01*
X147331344Y-78234419D01*
X147206517Y-78218513D01*
X147143845Y-78176178D01*
X147148900Y-78131807D01*
X147237763Y-78110242D01*
X147341911Y-78105593D01*
X147506047Y-78087504D01*
X147560969Y-78042273D01*
X147506226Y-77972983D01*
X147372198Y-77897025D01*
X147241098Y-77803992D01*
X147113584Y-77665074D01*
X147009810Y-77510379D01*
X146949932Y-77370012D01*
X146954105Y-77274082D01*
X146954636Y-77273309D01*
X147003743Y-77268890D01*
G37*
X147003743Y-77268890D02*
X147073028Y-77371176D01*
X147105533Y-77439428D01*
X147182896Y-77576098D01*
X147276486Y-77694631D01*
X147366689Y-77777744D01*
X147433891Y-77808155D01*
X147458480Y-77768583D01*
X147456152Y-77748369D01*
X147416542Y-77635784D01*
X147355881Y-77518021D01*
X147300171Y-77383177D01*
X147291439Y-77282064D01*
X147322463Y-77268114D01*
X147384430Y-77357384D01*
X147444814Y-77479835D01*
X147574541Y-77706908D01*
X147710012Y-77839357D01*
X147838394Y-77868959D01*
X147855994Y-77823074D01*
X147832933Y-77769620D01*
X147760560Y-77625228D01*
X147708025Y-77469905D01*
X147684023Y-77338624D01*
X147697243Y-77266353D01*
X147706687Y-77261715D01*
X147762767Y-77300707D01*
X147793458Y-77385972D01*
X147842189Y-77542244D01*
X147896676Y-77654348D01*
X147980084Y-77753385D01*
X148046165Y-77773458D01*
X148068546Y-77717838D01*
X148044273Y-77636031D01*
X148012922Y-77499755D01*
X148018162Y-77350915D01*
X148054285Y-77233603D01*
X148101739Y-77192057D01*
X148160202Y-77228149D01*
X148173403Y-77265393D01*
X148152583Y-77345273D01*
X148125245Y-77359857D01*
X148095603Y-77416536D01*
X148128703Y-77561176D01*
X148129942Y-77564746D01*
X148204290Y-77723949D01*
X148289784Y-77834378D01*
X148368423Y-77885508D01*
X148422202Y-77866815D01*
X148433116Y-77767773D01*
X148428956Y-77739552D01*
X148430758Y-77616167D01*
X148459972Y-77554883D01*
X148496857Y-77558734D01*
X148514334Y-77661114D01*
X148516606Y-77742118D01*
X148527662Y-77903360D01*
X148553394Y-77966110D01*
X148587141Y-77925213D01*
X148614741Y-77818041D01*
X148660986Y-77703303D01*
X148718564Y-77656446D01*
X148819981Y-77664096D01*
X148830016Y-77736179D01*
X148782587Y-77821879D01*
X148711383Y-77976591D01*
X148743917Y-78088061D01*
X148879408Y-78155700D01*
X149117072Y-78178921D01*
X149252473Y-78174991D01*
X149414281Y-78170129D01*
X149518340Y-78175256D01*
X149538768Y-78182698D01*
X149520417Y-78287453D01*
X149458130Y-78397925D01*
X149384711Y-78456027D01*
X149384355Y-78456092D01*
X149326053Y-78508817D01*
X149331692Y-78605380D01*
X149393424Y-78702496D01*
X149434616Y-78733282D01*
X149501776Y-78806049D01*
X149503932Y-78851563D01*
X149508678Y-78884426D01*
X149527970Y-78871526D01*
X149615892Y-78859612D01*
X149734324Y-78931028D01*
X149867688Y-79066052D01*
X150000404Y-79244965D01*
X150116893Y-79448044D01*
X150201576Y-79655569D01*
X150227566Y-79757113D01*
X150268241Y-79967367D01*
X150504733Y-79888107D01*
X150670995Y-79848169D01*
X150772499Y-79868805D01*
X150812793Y-79959773D01*
X150795430Y-80130834D01*
X150723959Y-80391746D01*
X150707134Y-80444352D01*
X150635566Y-80655164D01*
X150572718Y-80822814D01*
X150529228Y-80919480D01*
X150521054Y-80930955D01*
X150456922Y-80951501D01*
X150427728Y-80884702D01*
X150441744Y-80763098D01*
X150454666Y-80651823D01*
X150426229Y-80622304D01*
X150380558Y-80673252D01*
X150381291Y-80685526D01*
X150349492Y-80758815D01*
X150290065Y-80818259D01*
X150212247Y-80862487D01*
X150176133Y-80813515D01*
X150166107Y-80765360D01*
X150193008Y-80623008D01*
X150270634Y-80545538D01*
X150361342Y-80462024D01*
X150388173Y-80399511D01*
X150342851Y-80386668D01*
X150239066Y-80447263D01*
X150235115Y-80450259D01*
X150073124Y-80527223D01*
X149834156Y-80584923D01*
X149553039Y-80619705D01*
X149264599Y-80627913D01*
X149003667Y-80605894D01*
X148917621Y-80588509D01*
X148732386Y-80551403D01*
X148610401Y-80555819D01*
X148509176Y-80603761D01*
X148502838Y-80608064D01*
X148367707Y-80672296D01*
X148179926Y-80729164D01*
X148098668Y-80746140D01*
X147965270Y-80776267D01*
X147853961Y-80824258D01*
X147747350Y-80905999D01*
X147628042Y-81037377D01*
X147478647Y-81234280D01*
X147320941Y-81456565D01*
X147181407Y-81628440D01*
X147063347Y-81721989D01*
X146979076Y-81730350D01*
X146943492Y-81666987D01*
X146974490Y-81587913D01*
X147064890Y-81471860D01*
X147184289Y-81350254D01*
X147302286Y-81254522D01*
X147378837Y-81216957D01*
X147421190Y-81163083D01*
X147420826Y-81123581D01*
X147437797Y-81044314D01*
X147461711Y-81030398D01*
X147508224Y-80978581D01*
X147507496Y-80965010D01*
X147468886Y-80918979D01*
X147380102Y-80955450D01*
X147236133Y-81077780D01*
X147046129Y-81273920D01*
X146841690Y-81483862D01*
X146698609Y-81602866D01*
X146614099Y-81632890D01*
X146587217Y-81596756D01*
X146605086Y-81510062D01*
X146689429Y-81385330D01*
X146848677Y-81211947D01*
X147039107Y-81027860D01*
X147237025Y-80845961D01*
X147365058Y-80738174D01*
X147432591Y-80698242D01*
X147449016Y-80719908D01*
X147437315Y-80762453D01*
X147432975Y-80802644D01*
X147452015Y-80783742D01*
X147474957Y-80712830D01*
X147574563Y-80695266D01*
X147607257Y-80718159D01*
X147630150Y-80685465D01*
X147852498Y-80646259D01*
X147885192Y-80669151D01*
X147908085Y-80636457D01*
X147875390Y-80613564D01*
X147852498Y-80646259D01*
X147630150Y-80685465D01*
X147597456Y-80662571D01*
X147574563Y-80695266D01*
X147474957Y-80712830D01*
X147484521Y-80683269D01*
X147483015Y-80663645D01*
X147520728Y-80599188D01*
X147603112Y-80555959D01*
X147747145Y-80480660D01*
X148219071Y-80397447D01*
X148238073Y-80426127D01*
X148304566Y-80475933D01*
X148334585Y-80458018D01*
X148333756Y-80450152D01*
X148330423Y-80447357D01*
X148777873Y-80368460D01*
X148810567Y-80391352D01*
X148833460Y-80358658D01*
X148800765Y-80335765D01*
X148777873Y-80368460D01*
X148330423Y-80447357D01*
X148285983Y-80410097D01*
X148258264Y-80397292D01*
X148219071Y-80397447D01*
X147747145Y-80480660D01*
X147822281Y-80441380D01*
X147840823Y-80419056D01*
X148647096Y-80276889D01*
X148679790Y-80299781D01*
X148702683Y-80267087D01*
X148669989Y-80244195D01*
X148647096Y-80276889D01*
X147840823Y-80419056D01*
X147957667Y-80278383D01*
X147999685Y-80086141D01*
X147938892Y-79884076D01*
X147872005Y-79724371D01*
X147882921Y-79629386D01*
X147964527Y-79610586D01*
X148078269Y-79659497D01*
X148212627Y-79719104D01*
X148315643Y-79733523D01*
X148415018Y-79740740D01*
X148580473Y-79775509D01*
X148724437Y-79815100D01*
X148926772Y-79867401D01*
X149063612Y-79875377D01*
X149172655Y-79840463D01*
X149186897Y-79832770D01*
X149274630Y-79766537D01*
X149307747Y-79674837D01*
X149299924Y-79516985D01*
X149298133Y-79501881D01*
X149219817Y-79220281D01*
X149086940Y-78967055D01*
X149033961Y-78890425D01*
X149366640Y-78831765D01*
X149399334Y-78854657D01*
X149422227Y-78821963D01*
X149389533Y-78799070D01*
X149366640Y-78831765D01*
X149033961Y-78890425D01*
X148975469Y-78805822D01*
X148892317Y-78727009D01*
X148815112Y-78712174D01*
X148785606Y-78718608D01*
X148680795Y-78716991D01*
X148650474Y-78670792D01*
X148603677Y-78603265D01*
X148573494Y-78599069D01*
X148540459Y-78575475D01*
X148567138Y-78511788D01*
X148592519Y-78414048D01*
X148549253Y-78361745D01*
X148438679Y-78341793D01*
X148325489Y-78420764D01*
X148221453Y-78585612D01*
X148140549Y-78814724D01*
X148064423Y-79034449D01*
X147979065Y-79152483D01*
X147888745Y-79164412D01*
X147839962Y-79125803D01*
X147836728Y-79049946D01*
X147882376Y-78979722D01*
X147933683Y-78895369D01*
X147923345Y-78852480D01*
X147856934Y-78865051D01*
X147789089Y-78928782D01*
X147643911Y-79033261D01*
X147444241Y-79077326D01*
X147234500Y-79054979D01*
X147138922Y-79016593D01*
X147023795Y-78935600D01*
X147010105Y-78865649D01*
X147016428Y-78855099D01*
X147085368Y-78825647D01*
X147200013Y-78887077D01*
X147200381Y-78887354D01*
X147341060Y-78956057D01*
X147475164Y-78964580D01*
X147561971Y-78911593D01*
X147567975Y-78899330D01*
X147540170Y-78836417D01*
X147444425Y-78752337D01*
X147428970Y-78741904D01*
X147295068Y-78636865D01*
X147267766Y-78566264D01*
X147341377Y-78529747D01*
X147433721Y-78561603D01*
X147478904Y-78620756D01*
X147570168Y-78705089D01*
X147708134Y-78739842D01*
X147833509Y-78712352D01*
X147849955Y-78700004D01*
X147892317Y-78610355D01*
X147828589Y-78522161D01*
X147695143Y-78455707D01*
X147567200Y-78389517D01*
X147499402Y-78315251D01*
X147497530Y-78308083D01*
X147459611Y-78270996D01*
X147666837Y-78234457D01*
X147707496Y-78296896D01*
X147757597Y-78338228D01*
X147870680Y-78389402D01*
X148006259Y-78406192D01*
X148124701Y-78390150D01*
X148186374Y-78342824D01*
X148187662Y-78321411D01*
X148131126Y-78264465D01*
X148073971Y-78245478D01*
X147954266Y-78195569D01*
X147912947Y-78161040D01*
X147890921Y-78145748D01*
X148070454Y-78114092D01*
X148176098Y-78181271D01*
X148243604Y-78199099D01*
X148379718Y-78221045D01*
X148445733Y-78204452D01*
X148473717Y-78159023D01*
X148442681Y-78102176D01*
X148335521Y-78036327D01*
X148297210Y-78020065D01*
X148150492Y-77977193D01*
X148077839Y-77996668D01*
X148067809Y-78013908D01*
X148070454Y-78114092D01*
X147890921Y-78145748D01*
X147834395Y-78106507D01*
X147745600Y-78142535D01*
X147705831Y-78176288D01*
X147666837Y-78234457D01*
X147459611Y-78270996D01*
X147436295Y-78248193D01*
X147331344Y-78234419D01*
X147206517Y-78218513D01*
X147143845Y-78176178D01*
X147148900Y-78131807D01*
X147237763Y-78110242D01*
X147341911Y-78105593D01*
X147506047Y-78087504D01*
X147560969Y-78042273D01*
X147506226Y-77972983D01*
X147372198Y-77897025D01*
X147241098Y-77803992D01*
X147113584Y-77665074D01*
X147009810Y-77510379D01*
X146949932Y-77370012D01*
X146954105Y-77274082D01*
X146954636Y-77273309D01*
X147003743Y-77268890D01*
G36*
X141746708Y-78012961D02*
G01*
X141780598Y-78137403D01*
X141837920Y-78317059D01*
X141938859Y-78470542D01*
X142056213Y-78558751D01*
X142077975Y-78564875D01*
X142126534Y-78553182D01*
X142109080Y-78472979D01*
X142093020Y-78436304D01*
X142021328Y-78243254D01*
X141995647Y-78088813D01*
X142020190Y-78001163D01*
X142027211Y-77996187D01*
X142070275Y-78026113D01*
X142113720Y-78139093D01*
X142126270Y-78192651D01*
X142189022Y-78392531D01*
X142279031Y-78550545D01*
X142378307Y-78640059D01*
X142435053Y-78649768D01*
X142471019Y-78609936D01*
X142460684Y-78498842D01*
X142426712Y-78372412D01*
X142383788Y-78180221D01*
X142393287Y-78069991D01*
X142402638Y-78058040D01*
X142449196Y-78067011D01*
X142488826Y-78185628D01*
X142497256Y-78229523D01*
X142534656Y-78393617D01*
X142577333Y-78517108D01*
X142585483Y-78532582D01*
X142654876Y-78604713D01*
X142701303Y-78577854D01*
X142709521Y-78465637D01*
X142703958Y-78426639D01*
X142695666Y-78252467D01*
X142726029Y-78103678D01*
X142785786Y-78018433D01*
X142804708Y-78011435D01*
X142860243Y-78048097D01*
X142873042Y-78085359D01*
X142856071Y-78164625D01*
X142832158Y-78178542D01*
X142801722Y-78232818D01*
X142808262Y-78351400D01*
X142843187Y-78495306D01*
X142897908Y-78625556D01*
X142944613Y-78688878D01*
X143042598Y-78759607D01*
X143085936Y-78734052D01*
X143079830Y-78608487D01*
X143077330Y-78593832D01*
X143074196Y-78473680D01*
X143107624Y-78416559D01*
X143108399Y-78416409D01*
X143152489Y-78461387D01*
X143174627Y-78611835D01*
X143176105Y-78648060D01*
X143183341Y-78890374D01*
X143243284Y-78722187D01*
X143321294Y-78587193D01*
X143417008Y-78534946D01*
X143501818Y-78573422D01*
X143497693Y-78639741D01*
X143447589Y-78696023D01*
X143355715Y-78810530D01*
X143331118Y-78933344D01*
X143377766Y-79018585D01*
X143494079Y-79064152D01*
X143673169Y-79100329D01*
X143864939Y-79119650D01*
X144019295Y-79114646D01*
X144020654Y-79114418D01*
X144118270Y-79118089D01*
X144133660Y-79185634D01*
X144133583Y-79186030D01*
X144119892Y-79280647D01*
X144119688Y-79304528D01*
X144080543Y-79347954D01*
X143994379Y-79406490D01*
X143901182Y-79479946D01*
X143873363Y-79532799D01*
X143916682Y-79594797D01*
X144019876Y-79704702D01*
X144125403Y-79805874D01*
X144397110Y-80094489D01*
X144565977Y-80368176D01*
X144630682Y-80577267D01*
X144672960Y-80710483D01*
X144731558Y-80782338D01*
X144738913Y-80784760D01*
X144784304Y-80802652D01*
X144744630Y-80817185D01*
X144691556Y-80877209D01*
X144690622Y-80917206D01*
X144733049Y-80966391D01*
X144848774Y-80971797D01*
X144955466Y-80956480D01*
X145112975Y-80936156D01*
X145192177Y-80953254D01*
X145223666Y-81015453D01*
X145225327Y-81024213D01*
X145212682Y-81125917D01*
X145161650Y-81297452D01*
X145082253Y-81506663D01*
X145055244Y-81570040D01*
X144936705Y-81823883D01*
X144849003Y-81971770D01*
X144790508Y-82015865D01*
X144760131Y-81961513D01*
X144768279Y-81865207D01*
X144792512Y-81771671D01*
X144817167Y-81685929D01*
X144795861Y-81682049D01*
X144710951Y-81758017D01*
X144706831Y-81761890D01*
X144590934Y-81861280D01*
X144531423Y-81877131D01*
X144509461Y-81810079D01*
X144507205Y-81768639D01*
X144554381Y-81641951D01*
X144632589Y-81587332D01*
X144736697Y-81514914D01*
X144773922Y-81450627D01*
X144761567Y-81401735D01*
X144689542Y-81435567D01*
X144606707Y-81477475D01*
X144481404Y-81511627D01*
X144292946Y-81541859D01*
X144020648Y-81572005D01*
X143884218Y-81584844D01*
X143555916Y-81575765D01*
X143305876Y-81500215D01*
X143140192Y-81435548D01*
X143022591Y-81420991D01*
X142900546Y-81455448D01*
X142822706Y-81490125D01*
X142619922Y-81561196D01*
X142407522Y-81602594D01*
X142374730Y-81605130D01*
X142264255Y-81617343D01*
X142169308Y-81651712D01*
X142067030Y-81724191D01*
X141934561Y-81850734D01*
X141763469Y-82031748D01*
X141548189Y-82250412D01*
X141374348Y-82400089D01*
X141250444Y-82474706D01*
X141184980Y-82468193D01*
X141178065Y-82449840D01*
X141195159Y-82339328D01*
X141257313Y-82226401D01*
X141332305Y-82168493D01*
X141419935Y-82123535D01*
X141541042Y-82029180D01*
X141664836Y-81914142D01*
X141760532Y-81807131D01*
X141797342Y-81736855D01*
X141797122Y-81735026D01*
X141783767Y-81702893D01*
X141748871Y-81703016D01*
X141676333Y-81744911D01*
X141550054Y-81838092D01*
X141353933Y-81992075D01*
X141329902Y-82011150D01*
X141126193Y-82162065D01*
X140973804Y-82253501D01*
X140881757Y-82282791D01*
X140859070Y-82247272D01*
X140914764Y-82144278D01*
X140924416Y-82130946D01*
X141020931Y-82028933D01*
X141179555Y-81890671D01*
X141375653Y-81734520D01*
X141584591Y-81578842D01*
X141781735Y-81441996D01*
X141942451Y-81342342D01*
X142041545Y-81298338D01*
X142157612Y-81241436D01*
X142284091Y-81129470D01*
X142389629Y-80997424D01*
X142442872Y-80880288D01*
X142443450Y-80849827D01*
X142386223Y-80800663D01*
X142235075Y-80798473D01*
X142191727Y-80803700D01*
X141953834Y-80836012D01*
X142155508Y-80778152D01*
X142289460Y-80722607D01*
X142324228Y-80664798D01*
X142321244Y-80658260D01*
X142309646Y-80557252D01*
X142324026Y-80503431D01*
X142377111Y-80438960D01*
X142473174Y-80459143D01*
X142473236Y-80459171D01*
X142614408Y-80513324D01*
X142811721Y-80579280D01*
X143035894Y-80648473D01*
X143257646Y-80712341D01*
X143447692Y-80762318D01*
X143576752Y-80789840D01*
X143611871Y-80792186D01*
X143701228Y-80725724D01*
X143765669Y-80587779D01*
X143789993Y-80419342D01*
X143781860Y-80333924D01*
X143736608Y-80188577D01*
X143656478Y-79997834D01*
X143597473Y-79877682D01*
X143504304Y-79713626D01*
X143433286Y-79633359D01*
X143362577Y-79616704D01*
X143323820Y-79624944D01*
X143235467Y-79631399D01*
X143228745Y-79592313D01*
X143210321Y-79515335D01*
X143175017Y-79491610D01*
X143120681Y-79447158D01*
X143149031Y-79362898D01*
X143150864Y-79359668D01*
X143180201Y-79277727D01*
X143125226Y-79244076D01*
X143115461Y-79242064D01*
X142974160Y-79246606D01*
X142855485Y-79330349D01*
X142744577Y-79506638D01*
X142692139Y-79622335D01*
X142591648Y-79822748D01*
X142497033Y-79941269D01*
X142451671Y-79965087D01*
X142359609Y-79948409D01*
X142338244Y-79880781D01*
X142391768Y-79802468D01*
X142432249Y-79778451D01*
X142501447Y-79718810D01*
X142496666Y-79674645D01*
X142419580Y-79665540D01*
X142292808Y-79741674D01*
X142155548Y-79823516D01*
X142009822Y-79843370D01*
X141918268Y-79835900D01*
X141705407Y-79784748D01*
X141579465Y-79696015D01*
X141552195Y-79579924D01*
X141596306Y-79492297D01*
X141669169Y-79511375D01*
X141734862Y-79589972D01*
X141858776Y-79682040D01*
X141967752Y-79696002D01*
X142083277Y-79678221D01*
X142105249Y-79633774D01*
X142034282Y-79546734D01*
X141975637Y-79492505D01*
X141880230Y-79376932D01*
X141872962Y-79290270D01*
X141936110Y-79253582D01*
X141987067Y-79292542D01*
X142007675Y-79353577D01*
X142078024Y-79460789D01*
X142220738Y-79520022D01*
X142377092Y-79519715D01*
X142464588Y-79469971D01*
X142464825Y-79390275D01*
X142383629Y-79314546D01*
X142338629Y-79295769D01*
X142212100Y-79215695D01*
X142139458Y-79129869D01*
X142038861Y-79039257D01*
X142235228Y-79004633D01*
X142287638Y-79087478D01*
X142377842Y-79164885D01*
X142521187Y-79234539D01*
X142655909Y-79240217D01*
X142742476Y-79181294D01*
X142747409Y-79170718D01*
X142720192Y-79110664D01*
X142647362Y-79071712D01*
X142543425Y-79005271D01*
X142508587Y-78943886D01*
X142478166Y-78906389D01*
X142669691Y-78872618D01*
X142691830Y-78947018D01*
X142767339Y-79015467D01*
X142826010Y-79037567D01*
X142996925Y-79057636D01*
X143083924Y-79031282D01*
X143091480Y-78999135D01*
X143037084Y-78943552D01*
X142922585Y-78882088D01*
X142797147Y-78837254D01*
X142719582Y-78828858D01*
X142669691Y-78872618D01*
X142478166Y-78906389D01*
X142463913Y-78888823D01*
X142411204Y-78905760D01*
X142310590Y-78954427D01*
X142278186Y-78964004D01*
X142235228Y-79004633D01*
X142038861Y-79039257D01*
X142028039Y-79029510D01*
X141917694Y-78994298D01*
X141803215Y-78960405D01*
X141756883Y-78906422D01*
X141778816Y-78830652D01*
X141851109Y-78828238D01*
X141892012Y-78860151D01*
X141968109Y-78888118D01*
X142078590Y-78883486D01*
X142171907Y-78853854D01*
X142199260Y-78814858D01*
X142149845Y-78753892D01*
X142053460Y-78682949D01*
X141924131Y-78573621D01*
X141808694Y-78432490D01*
X141737341Y-78295358D01*
X141686023Y-78148622D01*
X141661811Y-78023439D01*
X141671773Y-77950963D01*
X141698341Y-77946213D01*
X141746708Y-78012961D01*
G37*
X141746708Y-78012961D02*
X141780598Y-78137403D01*
X141837920Y-78317059D01*
X141938859Y-78470542D01*
X142056213Y-78558751D01*
X142077975Y-78564875D01*
X142126534Y-78553182D01*
X142109080Y-78472979D01*
X142093020Y-78436304D01*
X142021328Y-78243254D01*
X141995647Y-78088813D01*
X142020190Y-78001163D01*
X142027211Y-77996187D01*
X142070275Y-78026113D01*
X142113720Y-78139093D01*
X142126270Y-78192651D01*
X142189022Y-78392531D01*
X142279031Y-78550545D01*
X142378307Y-78640059D01*
X142435053Y-78649768D01*
X142471019Y-78609936D01*
X142460684Y-78498842D01*
X142426712Y-78372412D01*
X142383788Y-78180221D01*
X142393287Y-78069991D01*
X142402638Y-78058040D01*
X142449196Y-78067011D01*
X142488826Y-78185628D01*
X142497256Y-78229523D01*
X142534656Y-78393617D01*
X142577333Y-78517108D01*
X142585483Y-78532582D01*
X142654876Y-78604713D01*
X142701303Y-78577854D01*
X142709521Y-78465637D01*
X142703958Y-78426639D01*
X142695666Y-78252467D01*
X142726029Y-78103678D01*
X142785786Y-78018433D01*
X142804708Y-78011435D01*
X142860243Y-78048097D01*
X142873042Y-78085359D01*
X142856071Y-78164625D01*
X142832158Y-78178542D01*
X142801722Y-78232818D01*
X142808262Y-78351400D01*
X142843187Y-78495306D01*
X142897908Y-78625556D01*
X142944613Y-78688878D01*
X143042598Y-78759607D01*
X143085936Y-78734052D01*
X143079830Y-78608487D01*
X143077330Y-78593832D01*
X143074196Y-78473680D01*
X143107624Y-78416559D01*
X143108399Y-78416409D01*
X143152489Y-78461387D01*
X143174627Y-78611835D01*
X143176105Y-78648060D01*
X143183341Y-78890374D01*
X143243284Y-78722187D01*
X143321294Y-78587193D01*
X143417008Y-78534946D01*
X143501818Y-78573422D01*
X143497693Y-78639741D01*
X143447589Y-78696023D01*
X143355715Y-78810530D01*
X143331118Y-78933344D01*
X143377766Y-79018585D01*
X143494079Y-79064152D01*
X143673169Y-79100329D01*
X143864939Y-79119650D01*
X144019295Y-79114646D01*
X144020654Y-79114418D01*
X144118270Y-79118089D01*
X144133660Y-79185634D01*
X144133583Y-79186030D01*
X144119892Y-79280647D01*
X144119688Y-79304528D01*
X144080543Y-79347954D01*
X143994379Y-79406490D01*
X143901182Y-79479946D01*
X143873363Y-79532799D01*
X143916682Y-79594797D01*
X144019876Y-79704702D01*
X144125403Y-79805874D01*
X144397110Y-80094489D01*
X144565977Y-80368176D01*
X144630682Y-80577267D01*
X144672960Y-80710483D01*
X144731558Y-80782338D01*
X144738913Y-80784760D01*
X144784304Y-80802652D01*
X144744630Y-80817185D01*
X144691556Y-80877209D01*
X144690622Y-80917206D01*
X144733049Y-80966391D01*
X144848774Y-80971797D01*
X144955466Y-80956480D01*
X145112975Y-80936156D01*
X145192177Y-80953254D01*
X145223666Y-81015453D01*
X145225327Y-81024213D01*
X145212682Y-81125917D01*
X145161650Y-81297452D01*
X145082253Y-81506663D01*
X145055244Y-81570040D01*
X144936705Y-81823883D01*
X144849003Y-81971770D01*
X144790508Y-82015865D01*
X144760131Y-81961513D01*
X144768279Y-81865207D01*
X144792512Y-81771671D01*
X144817167Y-81685929D01*
X144795861Y-81682049D01*
X144710951Y-81758017D01*
X144706831Y-81761890D01*
X144590934Y-81861280D01*
X144531423Y-81877131D01*
X144509461Y-81810079D01*
X144507205Y-81768639D01*
X144554381Y-81641951D01*
X144632589Y-81587332D01*
X144736697Y-81514914D01*
X144773922Y-81450627D01*
X144761567Y-81401735D01*
X144689542Y-81435567D01*
X144606707Y-81477475D01*
X144481404Y-81511627D01*
X144292946Y-81541859D01*
X144020648Y-81572005D01*
X143884218Y-81584844D01*
X143555916Y-81575765D01*
X143305876Y-81500215D01*
X143140192Y-81435548D01*
X143022591Y-81420991D01*
X142900546Y-81455448D01*
X142822706Y-81490125D01*
X142619922Y-81561196D01*
X142407522Y-81602594D01*
X142374730Y-81605130D01*
X142264255Y-81617343D01*
X142169308Y-81651712D01*
X142067030Y-81724191D01*
X141934561Y-81850734D01*
X141763469Y-82031748D01*
X141548189Y-82250412D01*
X141374348Y-82400089D01*
X141250444Y-82474706D01*
X141184980Y-82468193D01*
X141178065Y-82449840D01*
X141195159Y-82339328D01*
X141257313Y-82226401D01*
X141332305Y-82168493D01*
X141419935Y-82123535D01*
X141541042Y-82029180D01*
X141664836Y-81914142D01*
X141760532Y-81807131D01*
X141797342Y-81736855D01*
X141797122Y-81735026D01*
X141783767Y-81702893D01*
X141748871Y-81703016D01*
X141676333Y-81744911D01*
X141550054Y-81838092D01*
X141353933Y-81992075D01*
X141329902Y-82011150D01*
X141126193Y-82162065D01*
X140973804Y-82253501D01*
X140881757Y-82282791D01*
X140859070Y-82247272D01*
X140914764Y-82144278D01*
X140924416Y-82130946D01*
X141020931Y-82028933D01*
X141179555Y-81890671D01*
X141375653Y-81734520D01*
X141584591Y-81578842D01*
X141781735Y-81441996D01*
X141942451Y-81342342D01*
X142041545Y-81298338D01*
X142157612Y-81241436D01*
X142284091Y-81129470D01*
X142389629Y-80997424D01*
X142442872Y-80880288D01*
X142443450Y-80849827D01*
X142386223Y-80800663D01*
X142235075Y-80798473D01*
X142191727Y-80803700D01*
X141953834Y-80836012D01*
X142155508Y-80778152D01*
X142289460Y-80722607D01*
X142324228Y-80664798D01*
X142321244Y-80658260D01*
X142309646Y-80557252D01*
X142324026Y-80503431D01*
X142377111Y-80438960D01*
X142473174Y-80459143D01*
X142473236Y-80459171D01*
X142614408Y-80513324D01*
X142811721Y-80579280D01*
X143035894Y-80648473D01*
X143257646Y-80712341D01*
X143447692Y-80762318D01*
X143576752Y-80789840D01*
X143611871Y-80792186D01*
X143701228Y-80725724D01*
X143765669Y-80587779D01*
X143789993Y-80419342D01*
X143781860Y-80333924D01*
X143736608Y-80188577D01*
X143656478Y-79997834D01*
X143597473Y-79877682D01*
X143504304Y-79713626D01*
X143433286Y-79633359D01*
X143362577Y-79616704D01*
X143323820Y-79624944D01*
X143235467Y-79631399D01*
X143228745Y-79592313D01*
X143210321Y-79515335D01*
X143175017Y-79491610D01*
X143120681Y-79447158D01*
X143149031Y-79362898D01*
X143150864Y-79359668D01*
X143180201Y-79277727D01*
X143125226Y-79244076D01*
X143115461Y-79242064D01*
X142974160Y-79246606D01*
X142855485Y-79330349D01*
X142744577Y-79506638D01*
X142692139Y-79622335D01*
X142591648Y-79822748D01*
X142497033Y-79941269D01*
X142451671Y-79965087D01*
X142359609Y-79948409D01*
X142338244Y-79880781D01*
X142391768Y-79802468D01*
X142432249Y-79778451D01*
X142501447Y-79718810D01*
X142496666Y-79674645D01*
X142419580Y-79665540D01*
X142292808Y-79741674D01*
X142155548Y-79823516D01*
X142009822Y-79843370D01*
X141918268Y-79835900D01*
X141705407Y-79784748D01*
X141579465Y-79696015D01*
X141552195Y-79579924D01*
X141596306Y-79492297D01*
X141669169Y-79511375D01*
X141734862Y-79589972D01*
X141858776Y-79682040D01*
X141967752Y-79696002D01*
X142083277Y-79678221D01*
X142105249Y-79633774D01*
X142034282Y-79546734D01*
X141975637Y-79492505D01*
X141880230Y-79376932D01*
X141872962Y-79290270D01*
X141936110Y-79253582D01*
X141987067Y-79292542D01*
X142007675Y-79353577D01*
X142078024Y-79460789D01*
X142220738Y-79520022D01*
X142377092Y-79519715D01*
X142464588Y-79469971D01*
X142464825Y-79390275D01*
X142383629Y-79314546D01*
X142338629Y-79295769D01*
X142212100Y-79215695D01*
X142139458Y-79129869D01*
X142038861Y-79039257D01*
X142235228Y-79004633D01*
X142287638Y-79087478D01*
X142377842Y-79164885D01*
X142521187Y-79234539D01*
X142655909Y-79240217D01*
X142742476Y-79181294D01*
X142747409Y-79170718D01*
X142720192Y-79110664D01*
X142647362Y-79071712D01*
X142543425Y-79005271D01*
X142508587Y-78943886D01*
X142478166Y-78906389D01*
X142669691Y-78872618D01*
X142691830Y-78947018D01*
X142767339Y-79015467D01*
X142826010Y-79037567D01*
X142996925Y-79057636D01*
X143083924Y-79031282D01*
X143091480Y-78999135D01*
X143037084Y-78943552D01*
X142922585Y-78882088D01*
X142797147Y-78837254D01*
X142719582Y-78828858D01*
X142669691Y-78872618D01*
X142478166Y-78906389D01*
X142463913Y-78888823D01*
X142411204Y-78905760D01*
X142310590Y-78954427D01*
X142278186Y-78964004D01*
X142235228Y-79004633D01*
X142038861Y-79039257D01*
X142028039Y-79029510D01*
X141917694Y-78994298D01*
X141803215Y-78960405D01*
X141756883Y-78906422D01*
X141778816Y-78830652D01*
X141851109Y-78828238D01*
X141892012Y-78860151D01*
X141968109Y-78888118D01*
X142078590Y-78883486D01*
X142171907Y-78853854D01*
X142199260Y-78814858D01*
X142149845Y-78753892D01*
X142053460Y-78682949D01*
X141924131Y-78573621D01*
X141808694Y-78432490D01*
X141737341Y-78295358D01*
X141686023Y-78148622D01*
X141661811Y-78023439D01*
X141671773Y-77950963D01*
X141698341Y-77946213D01*
X141746708Y-78012961D01*
G36*
X152173188Y-76032133D02*
G01*
X152214840Y-76131778D01*
X152270150Y-76253568D01*
X152375133Y-76380259D01*
X152495561Y-76478205D01*
X152597206Y-76513758D01*
X152602678Y-76513050D01*
X152648663Y-76491082D01*
X152629971Y-76433438D01*
X152569974Y-76349718D01*
X152479491Y-76201544D01*
X152434954Y-76068113D01*
X152444199Y-75980250D01*
X152471656Y-75963001D01*
X152523431Y-76002452D01*
X152549505Y-76078234D01*
X152603502Y-76211006D01*
X152703296Y-76349417D01*
X152819130Y-76460493D01*
X152921248Y-76511264D01*
X152939971Y-76510891D01*
X153012998Y-76490286D01*
X153021116Y-76482254D01*
X152996160Y-76428544D01*
X152935888Y-76306833D01*
X152892046Y-76219861D01*
X152826771Y-76070077D01*
X152799940Y-75963550D01*
X152805910Y-75935702D01*
X152876464Y-75924610D01*
X152933308Y-76013276D01*
X152952935Y-76092062D01*
X153003603Y-76239327D01*
X153085044Y-76357753D01*
X153170487Y-76410729D01*
X153185602Y-76410265D01*
X153207655Y-76356402D01*
X153177225Y-76229149D01*
X153173078Y-76217905D01*
X153138546Y-76065349D01*
X153142605Y-75925471D01*
X153178615Y-75828255D01*
X153239932Y-75803690D01*
X153262316Y-75815003D01*
X153302763Y-75891378D01*
X153277405Y-75959436D01*
X153257674Y-76094603D01*
X153309771Y-76255668D01*
X153416086Y-76399649D01*
X153477418Y-76447723D01*
X153561695Y-76494023D01*
X153587351Y-76469586D01*
X153572424Y-76354870D01*
X153570938Y-76346426D01*
X153566003Y-76213143D01*
X153612773Y-76177370D01*
X153671293Y-76238787D01*
X153699741Y-76373887D01*
X153722447Y-76498926D01*
X153764263Y-76513737D01*
X153766982Y-76511444D01*
X153804401Y-76420624D01*
X153802855Y-76361491D01*
X153821574Y-76262464D01*
X153889123Y-76199224D01*
X153966425Y-76203964D01*
X153979604Y-76215889D01*
X153985296Y-76293734D01*
X153950572Y-76365886D01*
X153896589Y-76507034D01*
X153925201Y-76626609D01*
X154027410Y-76689865D01*
X154034734Y-76690986D01*
X154157486Y-76691724D01*
X154340772Y-76676160D01*
X154459213Y-76660441D01*
X154663527Y-76644223D01*
X154766996Y-76675173D01*
X154772492Y-76755881D01*
X154695593Y-76873751D01*
X154628191Y-76982803D01*
X154612537Y-77052819D01*
X154663704Y-77111421D01*
X154787625Y-77205026D01*
X154958226Y-77314071D01*
X154970606Y-77321401D01*
X155241219Y-77510470D01*
X155425535Y-77713600D01*
X155462611Y-77771776D01*
X155558951Y-77919957D01*
X155642504Y-78023257D01*
X155673523Y-78048375D01*
X155701417Y-78080640D01*
X155669832Y-78092012D01*
X155619072Y-78144076D01*
X155627997Y-78229830D01*
X155685217Y-78287808D01*
X155770239Y-78277819D01*
X155882541Y-78226280D01*
X156035787Y-78166405D01*
X156169595Y-78165995D01*
X156248745Y-78223244D01*
X156255706Y-78245427D01*
X156250800Y-78345522D01*
X156222917Y-78518359D01*
X156179880Y-78729104D01*
X156129506Y-78942923D01*
X156079616Y-79124980D01*
X156038030Y-79240442D01*
X156028766Y-79256327D01*
X155990585Y-79279702D01*
X155971571Y-79207785D01*
X155967638Y-79143696D01*
X155950510Y-79003605D01*
X155914805Y-78974518D01*
X155861142Y-79056686D01*
X155845411Y-79093604D01*
X155775796Y-79204985D01*
X155709721Y-79212623D01*
X155664092Y-79115335D01*
X155662424Y-79106412D01*
X155690115Y-78965506D01*
X155767296Y-78888546D01*
X155858062Y-78805525D01*
X155885087Y-78743946D01*
X155856763Y-78696491D01*
X155792135Y-78728538D01*
X155684236Y-78838520D01*
X155559785Y-78940771D01*
X155403150Y-78977809D01*
X155343078Y-78979811D01*
X155146663Y-79006503D01*
X154963896Y-79069171D01*
X154954266Y-79074183D01*
X154824839Y-79126823D01*
X154680686Y-79139708D01*
X154476722Y-79116407D01*
X154458488Y-79113420D01*
X154274522Y-79085551D01*
X154162050Y-79083866D01*
X154081321Y-79115358D01*
X153992584Y-79187016D01*
X153980904Y-79197404D01*
X153826177Y-79301179D01*
X153663598Y-79363604D01*
X153656901Y-79364868D01*
X153528049Y-79394381D01*
X153426038Y-79442906D01*
X153332797Y-79528864D01*
X153230263Y-79670674D01*
X153100366Y-79886757D01*
X153037934Y-79995937D01*
X152870983Y-80270256D01*
X152738935Y-80444926D01*
X152643496Y-80518281D01*
X152586371Y-80488652D01*
X152574831Y-80448739D01*
X152575224Y-80300280D01*
X152622136Y-80194791D01*
X152663932Y-80170421D01*
X152732047Y-80122147D01*
X152822012Y-80016816D01*
X152911736Y-79887316D01*
X152979127Y-79766535D01*
X153002092Y-79687358D01*
X152996113Y-79675934D01*
X152937933Y-79698016D01*
X152834525Y-79789746D01*
X152706506Y-79929072D01*
X152574489Y-80093943D01*
X152482468Y-80225372D01*
X152375143Y-80355206D01*
X152281819Y-80406662D01*
X152221314Y-80371770D01*
X152211768Y-80340013D01*
X152241059Y-80262994D01*
X152331605Y-80124965D01*
X152466399Y-79946276D01*
X152628434Y-79747276D01*
X152800705Y-79548313D01*
X152966203Y-79369737D01*
X153107924Y-79231894D01*
X153195670Y-79162773D01*
X153312259Y-79064114D01*
X153398071Y-78947081D01*
X153432933Y-78845180D01*
X153414421Y-78799464D01*
X153355234Y-78816269D01*
X153234565Y-78881121D01*
X153139903Y-78940192D01*
X152997431Y-79027853D01*
X152897723Y-79078802D01*
X152870549Y-79084533D01*
X152901379Y-79048031D01*
X153004921Y-78968400D01*
X153155228Y-78865241D01*
X153345455Y-78727900D01*
X153437100Y-78628247D01*
X153435083Y-78558901D01*
X153381922Y-78524968D01*
X153330251Y-78463499D01*
X153296226Y-78358369D01*
X153290758Y-78260552D01*
X153316896Y-78221200D01*
X153396616Y-78243053D01*
X153441537Y-78269496D01*
X153547663Y-78304078D01*
X153740803Y-78330740D01*
X153995234Y-78347380D01*
X154285233Y-78351897D01*
X154419965Y-78349430D01*
X154575569Y-78335998D01*
X154656686Y-78294716D01*
X154701416Y-78206013D01*
X154701875Y-78204615D01*
X154706025Y-78031879D01*
X154618427Y-77811457D01*
X154437004Y-77538723D01*
X154357372Y-77437900D01*
X154228049Y-77296452D01*
X154133578Y-77239845D01*
X154066251Y-77247919D01*
X153977497Y-77255214D01*
X153953390Y-77215218D01*
X153907124Y-77150645D01*
X153880273Y-77147504D01*
X153838388Y-77110641D01*
X153835694Y-77047521D01*
X153815381Y-76948117D01*
X153735981Y-76923149D01*
X153624385Y-76973895D01*
X153559179Y-77034372D01*
X153476344Y-77183403D01*
X153439804Y-77360273D01*
X153439756Y-77363370D01*
X153415973Y-77553697D01*
X153358314Y-77706888D01*
X153280749Y-77798591D01*
X153197242Y-77804449D01*
X153189539Y-77799678D01*
X153141801Y-77739940D01*
X153184811Y-77662155D01*
X153201043Y-77644720D01*
X153256521Y-77559204D01*
X153249710Y-77514759D01*
X153186003Y-77530628D01*
X153089751Y-77611359D01*
X153075543Y-77626756D01*
X152937070Y-77746384D01*
X152782644Y-77791298D01*
X152574107Y-77770887D01*
X152528976Y-77761247D01*
X152394209Y-77708231D01*
X152314158Y-77635610D01*
X152304481Y-77567146D01*
X152374981Y-77527558D01*
X152454348Y-77545161D01*
X152468373Y-77569634D01*
X152524434Y-77623825D01*
X152630145Y-77665648D01*
X152758779Y-77680023D01*
X152833841Y-77629193D01*
X152837691Y-77623755D01*
X152857141Y-77552320D01*
X152789646Y-77485721D01*
X152750376Y-77462438D01*
X152640634Y-77375421D01*
X152591696Y-77293883D01*
X152603842Y-77210464D01*
X152661708Y-77208057D01*
X152731964Y-77287086D01*
X152734622Y-77292064D01*
X152837063Y-77383081D01*
X152980367Y-77406036D01*
X153113078Y-77357845D01*
X153152264Y-77317116D01*
X153186592Y-77247949D01*
X153151802Y-77202234D01*
X153028132Y-77155731D01*
X153018101Y-77152589D01*
X152865058Y-77094740D01*
X152755395Y-77035719D01*
X152745353Y-77027634D01*
X152638491Y-76981761D01*
X152539506Y-76972436D01*
X152525660Y-76969964D01*
X152879086Y-76907645D01*
X152892372Y-76957036D01*
X152991942Y-77019654D01*
X152997820Y-77022959D01*
X153153281Y-77074445D01*
X153289894Y-77061035D01*
X153371691Y-76988684D01*
X153379725Y-76959729D01*
X153341583Y-76895069D01*
X153268506Y-76872354D01*
X153165356Y-76833674D01*
X153132520Y-76785489D01*
X153096121Y-76722330D01*
X153019762Y-76754182D01*
X152940056Y-76831649D01*
X152879086Y-76907645D01*
X152525660Y-76969964D01*
X152418992Y-76950920D01*
X152363626Y-76907376D01*
X152364444Y-76856652D01*
X152454668Y-76841266D01*
X152490871Y-76841850D01*
X152609340Y-76826724D01*
X152717604Y-76785611D01*
X152727266Y-76778141D01*
X153232526Y-76689050D01*
X153304618Y-76770202D01*
X153314482Y-76777283D01*
X153409687Y-76805896D01*
X153535573Y-76804986D01*
X153646367Y-76780143D01*
X153696301Y-76736958D01*
X153696007Y-76730673D01*
X153641496Y-76684116D01*
X153534821Y-76644464D01*
X153361972Y-76617533D01*
X153256426Y-76635278D01*
X153232526Y-76689050D01*
X152727266Y-76778141D01*
X152781775Y-76735998D01*
X152771387Y-76697118D01*
X152705492Y-76665181D01*
X152577651Y-76605569D01*
X152531551Y-76584345D01*
X152395524Y-76495799D01*
X152256783Y-76365588D01*
X152139498Y-76222506D01*
X152067836Y-76095350D01*
X152060206Y-76022824D01*
X152110527Y-75987429D01*
X152173188Y-76032133D01*
G37*
X152173188Y-76032133D02*
X152214840Y-76131778D01*
X152270150Y-76253568D01*
X152375133Y-76380259D01*
X152495561Y-76478205D01*
X152597206Y-76513758D01*
X152602678Y-76513050D01*
X152648663Y-76491082D01*
X152629971Y-76433438D01*
X152569974Y-76349718D01*
X152479491Y-76201544D01*
X152434954Y-76068113D01*
X152444199Y-75980250D01*
X152471656Y-75963001D01*
X152523431Y-76002452D01*
X152549505Y-76078234D01*
X152603502Y-76211006D01*
X152703296Y-76349417D01*
X152819130Y-76460493D01*
X152921248Y-76511264D01*
X152939971Y-76510891D01*
X153012998Y-76490286D01*
X153021116Y-76482254D01*
X152996160Y-76428544D01*
X152935888Y-76306833D01*
X152892046Y-76219861D01*
X152826771Y-76070077D01*
X152799940Y-75963550D01*
X152805910Y-75935702D01*
X152876464Y-75924610D01*
X152933308Y-76013276D01*
X152952935Y-76092062D01*
X153003603Y-76239327D01*
X153085044Y-76357753D01*
X153170487Y-76410729D01*
X153185602Y-76410265D01*
X153207655Y-76356402D01*
X153177225Y-76229149D01*
X153173078Y-76217905D01*
X153138546Y-76065349D01*
X153142605Y-75925471D01*
X153178615Y-75828255D01*
X153239932Y-75803690D01*
X153262316Y-75815003D01*
X153302763Y-75891378D01*
X153277405Y-75959436D01*
X153257674Y-76094603D01*
X153309771Y-76255668D01*
X153416086Y-76399649D01*
X153477418Y-76447723D01*
X153561695Y-76494023D01*
X153587351Y-76469586D01*
X153572424Y-76354870D01*
X153570938Y-76346426D01*
X153566003Y-76213143D01*
X153612773Y-76177370D01*
X153671293Y-76238787D01*
X153699741Y-76373887D01*
X153722447Y-76498926D01*
X153764263Y-76513737D01*
X153766982Y-76511444D01*
X153804401Y-76420624D01*
X153802855Y-76361491D01*
X153821574Y-76262464D01*
X153889123Y-76199224D01*
X153966425Y-76203964D01*
X153979604Y-76215889D01*
X153985296Y-76293734D01*
X153950572Y-76365886D01*
X153896589Y-76507034D01*
X153925201Y-76626609D01*
X154027410Y-76689865D01*
X154034734Y-76690986D01*
X154157486Y-76691724D01*
X154340772Y-76676160D01*
X154459213Y-76660441D01*
X154663527Y-76644223D01*
X154766996Y-76675173D01*
X154772492Y-76755881D01*
X154695593Y-76873751D01*
X154628191Y-76982803D01*
X154612537Y-77052819D01*
X154663704Y-77111421D01*
X154787625Y-77205026D01*
X154958226Y-77314071D01*
X154970606Y-77321401D01*
X155241219Y-77510470D01*
X155425535Y-77713600D01*
X155462611Y-77771776D01*
X155558951Y-77919957D01*
X155642504Y-78023257D01*
X155673523Y-78048375D01*
X155701417Y-78080640D01*
X155669832Y-78092012D01*
X155619072Y-78144076D01*
X155627997Y-78229830D01*
X155685217Y-78287808D01*
X155770239Y-78277819D01*
X155882541Y-78226280D01*
X156035787Y-78166405D01*
X156169595Y-78165995D01*
X156248745Y-78223244D01*
X156255706Y-78245427D01*
X156250800Y-78345522D01*
X156222917Y-78518359D01*
X156179880Y-78729104D01*
X156129506Y-78942923D01*
X156079616Y-79124980D01*
X156038030Y-79240442D01*
X156028766Y-79256327D01*
X155990585Y-79279702D01*
X155971571Y-79207785D01*
X155967638Y-79143696D01*
X155950510Y-79003605D01*
X155914805Y-78974518D01*
X155861142Y-79056686D01*
X155845411Y-79093604D01*
X155775796Y-79204985D01*
X155709721Y-79212623D01*
X155664092Y-79115335D01*
X155662424Y-79106412D01*
X155690115Y-78965506D01*
X155767296Y-78888546D01*
X155858062Y-78805525D01*
X155885087Y-78743946D01*
X155856763Y-78696491D01*
X155792135Y-78728538D01*
X155684236Y-78838520D01*
X155559785Y-78940771D01*
X155403150Y-78977809D01*
X155343078Y-78979811D01*
X155146663Y-79006503D01*
X154963896Y-79069171D01*
X154954266Y-79074183D01*
X154824839Y-79126823D01*
X154680686Y-79139708D01*
X154476722Y-79116407D01*
X154458488Y-79113420D01*
X154274522Y-79085551D01*
X154162050Y-79083866D01*
X154081321Y-79115358D01*
X153992584Y-79187016D01*
X153980904Y-79197404D01*
X153826177Y-79301179D01*
X153663598Y-79363604D01*
X153656901Y-79364868D01*
X153528049Y-79394381D01*
X153426038Y-79442906D01*
X153332797Y-79528864D01*
X153230263Y-79670674D01*
X153100366Y-79886757D01*
X153037934Y-79995937D01*
X152870983Y-80270256D01*
X152738935Y-80444926D01*
X152643496Y-80518281D01*
X152586371Y-80488652D01*
X152574831Y-80448739D01*
X152575224Y-80300280D01*
X152622136Y-80194791D01*
X152663932Y-80170421D01*
X152732047Y-80122147D01*
X152822012Y-80016816D01*
X152911736Y-79887316D01*
X152979127Y-79766535D01*
X153002092Y-79687358D01*
X152996113Y-79675934D01*
X152937933Y-79698016D01*
X152834525Y-79789746D01*
X152706506Y-79929072D01*
X152574489Y-80093943D01*
X152482468Y-80225372D01*
X152375143Y-80355206D01*
X152281819Y-80406662D01*
X152221314Y-80371770D01*
X152211768Y-80340013D01*
X152241059Y-80262994D01*
X152331605Y-80124965D01*
X152466399Y-79946276D01*
X152628434Y-79747276D01*
X152800705Y-79548313D01*
X152966203Y-79369737D01*
X153107924Y-79231894D01*
X153195670Y-79162773D01*
X153312259Y-79064114D01*
X153398071Y-78947081D01*
X153432933Y-78845180D01*
X153414421Y-78799464D01*
X153355234Y-78816269D01*
X153234565Y-78881121D01*
X153139903Y-78940192D01*
X152997431Y-79027853D01*
X152897723Y-79078802D01*
X152870549Y-79084533D01*
X152901379Y-79048031D01*
X153004921Y-78968400D01*
X153155228Y-78865241D01*
X153345455Y-78727900D01*
X153437100Y-78628247D01*
X153435083Y-78558901D01*
X153381922Y-78524968D01*
X153330251Y-78463499D01*
X153296226Y-78358369D01*
X153290758Y-78260552D01*
X153316896Y-78221200D01*
X153396616Y-78243053D01*
X153441537Y-78269496D01*
X153547663Y-78304078D01*
X153740803Y-78330740D01*
X153995234Y-78347380D01*
X154285233Y-78351897D01*
X154419965Y-78349430D01*
X154575569Y-78335998D01*
X154656686Y-78294716D01*
X154701416Y-78206013D01*
X154701875Y-78204615D01*
X154706025Y-78031879D01*
X154618427Y-77811457D01*
X154437004Y-77538723D01*
X154357372Y-77437900D01*
X154228049Y-77296452D01*
X154133578Y-77239845D01*
X154066251Y-77247919D01*
X153977497Y-77255214D01*
X153953390Y-77215218D01*
X153907124Y-77150645D01*
X153880273Y-77147504D01*
X153838388Y-77110641D01*
X153835694Y-77047521D01*
X153815381Y-76948117D01*
X153735981Y-76923149D01*
X153624385Y-76973895D01*
X153559179Y-77034372D01*
X153476344Y-77183403D01*
X153439804Y-77360273D01*
X153439756Y-77363370D01*
X153415973Y-77553697D01*
X153358314Y-77706888D01*
X153280749Y-77798591D01*
X153197242Y-77804449D01*
X153189539Y-77799678D01*
X153141801Y-77739940D01*
X153184811Y-77662155D01*
X153201043Y-77644720D01*
X153256521Y-77559204D01*
X153249710Y-77514759D01*
X153186003Y-77530628D01*
X153089751Y-77611359D01*
X153075543Y-77626756D01*
X152937070Y-77746384D01*
X152782644Y-77791298D01*
X152574107Y-77770887D01*
X152528976Y-77761247D01*
X152394209Y-77708231D01*
X152314158Y-77635610D01*
X152304481Y-77567146D01*
X152374981Y-77527558D01*
X152454348Y-77545161D01*
X152468373Y-77569634D01*
X152524434Y-77623825D01*
X152630145Y-77665648D01*
X152758779Y-77680023D01*
X152833841Y-77629193D01*
X152837691Y-77623755D01*
X152857141Y-77552320D01*
X152789646Y-77485721D01*
X152750376Y-77462438D01*
X152640634Y-77375421D01*
X152591696Y-77293883D01*
X152603842Y-77210464D01*
X152661708Y-77208057D01*
X152731964Y-77287086D01*
X152734622Y-77292064D01*
X152837063Y-77383081D01*
X152980367Y-77406036D01*
X153113078Y-77357845D01*
X153152264Y-77317116D01*
X153186592Y-77247949D01*
X153151802Y-77202234D01*
X153028132Y-77155731D01*
X153018101Y-77152589D01*
X152865058Y-77094740D01*
X152755395Y-77035719D01*
X152745353Y-77027634D01*
X152638491Y-76981761D01*
X152539506Y-76972436D01*
X152525660Y-76969964D01*
X152879086Y-76907645D01*
X152892372Y-76957036D01*
X152991942Y-77019654D01*
X152997820Y-77022959D01*
X153153281Y-77074445D01*
X153289894Y-77061035D01*
X153371691Y-76988684D01*
X153379725Y-76959729D01*
X153341583Y-76895069D01*
X153268506Y-76872354D01*
X153165356Y-76833674D01*
X153132520Y-76785489D01*
X153096121Y-76722330D01*
X153019762Y-76754182D01*
X152940056Y-76831649D01*
X152879086Y-76907645D01*
X152525660Y-76969964D01*
X152418992Y-76950920D01*
X152363626Y-76907376D01*
X152364444Y-76856652D01*
X152454668Y-76841266D01*
X152490871Y-76841850D01*
X152609340Y-76826724D01*
X152717604Y-76785611D01*
X152727266Y-76778141D01*
X153232526Y-76689050D01*
X153304618Y-76770202D01*
X153314482Y-76777283D01*
X153409687Y-76805896D01*
X153535573Y-76804986D01*
X153646367Y-76780143D01*
X153696301Y-76736958D01*
X153696007Y-76730673D01*
X153641496Y-76684116D01*
X153534821Y-76644464D01*
X153361972Y-76617533D01*
X153256426Y-76635278D01*
X153232526Y-76689050D01*
X152727266Y-76778141D01*
X152781775Y-76735998D01*
X152771387Y-76697118D01*
X152705492Y-76665181D01*
X152577651Y-76605569D01*
X152531551Y-76584345D01*
X152395524Y-76495799D01*
X152256783Y-76365588D01*
X152139498Y-76222506D01*
X152067836Y-76095350D01*
X152060206Y-76022824D01*
X152110527Y-75987429D01*
X152173188Y-76032133D01*
G36*
X136647090Y-78365039D02*
G01*
X136772051Y-78399348D01*
X136905350Y-78499762D01*
X137022696Y-78639663D01*
X137110942Y-78810605D01*
X137157667Y-78977505D01*
X137150451Y-79105277D01*
X137130761Y-79136496D01*
X137127615Y-79207020D01*
X137168680Y-79254619D01*
X137229983Y-79291002D01*
X137306870Y-79286473D01*
X137432884Y-79235160D01*
X137518172Y-79193435D01*
X137740220Y-79100818D01*
X137884696Y-79085000D01*
X137956550Y-79145746D01*
X137963648Y-79172306D01*
X138019071Y-79243631D01*
X138156061Y-79354310D01*
X138355838Y-79491972D01*
X138599626Y-79644251D01*
X138868648Y-79798780D01*
X139102202Y-79922192D01*
X139346467Y-80047187D01*
X139495404Y-80127589D01*
X139555566Y-80167430D01*
X139533502Y-80170744D01*
X139483148Y-80156763D01*
X139376626Y-80113161D01*
X139204186Y-80031435D01*
X138999038Y-79927471D01*
X138951097Y-79902283D01*
X138541310Y-79685457D01*
X138535452Y-79861133D01*
X138516731Y-80007872D01*
X138481972Y-80104821D01*
X138393664Y-80161775D01*
X138299886Y-80127062D01*
X138230567Y-80016211D01*
X138218614Y-79968191D01*
X138175261Y-79843252D01*
X138121257Y-79816241D01*
X138079132Y-79889651D01*
X138070347Y-79951786D01*
X138106710Y-80119304D01*
X138221258Y-80309680D01*
X138390591Y-80496542D01*
X138591305Y-80653517D01*
X138774961Y-80745866D01*
X138873236Y-80786866D01*
X138866148Y-80800357D01*
X138758120Y-80785106D01*
X138686606Y-80770460D01*
X138631535Y-80807576D01*
X138596213Y-80950091D01*
X138586960Y-81041413D01*
X138524890Y-81323325D01*
X138395360Y-81576704D01*
X138217733Y-81771195D01*
X138064741Y-81860103D01*
X137948306Y-81917974D01*
X137901070Y-81991510D01*
X137924214Y-82100691D01*
X138018919Y-82265498D01*
X138095328Y-82377653D01*
X138212707Y-82531997D01*
X138309602Y-82612059D01*
X138421496Y-82641597D01*
X138494409Y-82644846D01*
X138790297Y-82604396D01*
X139021098Y-82479911D01*
X139176131Y-82277326D01*
X139183006Y-82262331D01*
X139238247Y-82077825D01*
X139216618Y-81916394D01*
X139109267Y-81752151D01*
X138957437Y-81602867D01*
X138802980Y-81425278D01*
X138751701Y-81262936D01*
X138805682Y-81124127D01*
X138830725Y-81098618D01*
X138924989Y-81046057D01*
X138968074Y-81086206D01*
X138944877Y-81204800D01*
X138944405Y-81205971D01*
X138921831Y-81306178D01*
X138968964Y-81384810D01*
X139036232Y-81439733D01*
X139251500Y-81656589D01*
X139369998Y-81900016D01*
X139391916Y-82150903D01*
X139317447Y-82390141D01*
X139146782Y-82598620D01*
X139023733Y-82686369D01*
X138967713Y-82718152D01*
X138909278Y-82744239D01*
X138837223Y-82765239D01*
X138740340Y-82781767D01*
X138607423Y-82794432D01*
X138427265Y-82803845D01*
X138188662Y-82810618D01*
X137880403Y-82815363D01*
X137491285Y-82818691D01*
X137010098Y-82821212D01*
X136515394Y-82823197D01*
X136038577Y-82823770D01*
X135593298Y-82821922D01*
X135193179Y-82817890D01*
X134851846Y-82811913D01*
X134837223Y-82811494D01*
X135820071Y-82638192D01*
X135838914Y-82650050D01*
X135933488Y-82656156D01*
X136111928Y-82659892D01*
X136345237Y-82661392D01*
X136604421Y-82660794D01*
X136860483Y-82658234D01*
X137084429Y-82653846D01*
X137247261Y-82647769D01*
X137305168Y-82643167D01*
X137396439Y-82608812D01*
X137394564Y-82561918D01*
X137346536Y-82477713D01*
X137268305Y-82331698D01*
X137212875Y-82225317D01*
X137142356Y-82093255D01*
X137137343Y-82086786D01*
X137281849Y-82061305D01*
X137343877Y-82186845D01*
X137437470Y-82336176D01*
X137542423Y-82477713D01*
X137638531Y-82579871D01*
X137657757Y-82594823D01*
X137783236Y-82649751D01*
X137910001Y-82658970D01*
X138004398Y-82627801D01*
X138032775Y-82561565D01*
X138024025Y-82536900D01*
X137965099Y-82426194D01*
X137883434Y-82278644D01*
X137874275Y-82262400D01*
X137799141Y-82125898D01*
X137749127Y-82028692D01*
X137745245Y-82020141D01*
X137678785Y-81983789D01*
X137549167Y-81962092D01*
X137405520Y-81958060D01*
X137296971Y-81974699D01*
X137271593Y-81991147D01*
X137281849Y-82061305D01*
X137137343Y-82086786D01*
X137078132Y-82010405D01*
X136993358Y-81965940D01*
X136861194Y-81949027D01*
X136654796Y-81948837D01*
X136533594Y-81951260D01*
X136361841Y-81952139D01*
X136226845Y-81948407D01*
X136207906Y-81947017D01*
X136119011Y-81985663D01*
X136096265Y-82045854D01*
X136057793Y-82154456D01*
X135976111Y-82309612D01*
X135922865Y-82395415D01*
X135832552Y-82554643D01*
X135820071Y-82638192D01*
X134837223Y-82811494D01*
X134582919Y-82804224D01*
X134400023Y-82795063D01*
X134385980Y-82793343D01*
X135218879Y-82646481D01*
X135258753Y-82664821D01*
X135341011Y-82662782D01*
X135351644Y-82662262D01*
X135500542Y-82638119D01*
X135620212Y-82567837D01*
X135736715Y-82430306D01*
X135839647Y-82267025D01*
X135930686Y-82090678D01*
X135942847Y-81985441D01*
X135869372Y-81935581D01*
X135703506Y-81925359D01*
X135693052Y-81925596D01*
X135583408Y-81935778D01*
X135508258Y-81975860D01*
X135442873Y-82070306D01*
X135362532Y-82243577D01*
X135355654Y-82259417D01*
X135267120Y-82464756D01*
X135221599Y-82586784D01*
X135218879Y-82646481D01*
X134385980Y-82793343D01*
X134317663Y-82784980D01*
X134145177Y-82679657D01*
X134037856Y-82521247D01*
X133995898Y-82337331D01*
X134019505Y-82155494D01*
X134108876Y-82003316D01*
X134264212Y-81908383D01*
X134311224Y-81897199D01*
X134487218Y-81899519D01*
X134619252Y-81961785D01*
X134679049Y-82067220D01*
X134677112Y-82114284D01*
X134653707Y-82179830D01*
X134601543Y-82171323D01*
X134524238Y-82117027D01*
X134394542Y-82038252D01*
X134303638Y-82046473D01*
X134220515Y-82136995D01*
X134169753Y-82297765D01*
X134206326Y-82469948D01*
X134278095Y-82568029D01*
X134418515Y-82636132D01*
X134613781Y-82661397D01*
X134814367Y-82644007D01*
X134970747Y-82584142D01*
X134994180Y-82565402D01*
X135073833Y-82464621D01*
X135158946Y-82319257D01*
X135233965Y-82162547D01*
X135283330Y-82027728D01*
X135291482Y-81948036D01*
X135286323Y-81941288D01*
X135216237Y-81912065D01*
X135076631Y-81864781D01*
X134988667Y-81837321D01*
X134815132Y-81773709D01*
X134678728Y-81690579D01*
X134570035Y-81571616D01*
X134569084Y-81569814D01*
X136939711Y-81151809D01*
X136970279Y-81300432D01*
X137011837Y-81393933D01*
X137019202Y-81400604D01*
X137087448Y-81424326D01*
X137114459Y-81362920D01*
X137103330Y-81206373D01*
X137095392Y-81153940D01*
X137052007Y-80946106D01*
X137006521Y-80844385D01*
X136960549Y-80851574D01*
X136941558Y-80887563D01*
X136927635Y-80997655D01*
X136939711Y-81151809D01*
X134569084Y-81569814D01*
X134479634Y-81400507D01*
X134398102Y-81160939D01*
X134337009Y-80919535D01*
X137275009Y-80401486D01*
X137303121Y-80459772D01*
X137368140Y-80516040D01*
X137439974Y-80588304D01*
X137474205Y-80684267D01*
X137482269Y-80842909D01*
X137481430Y-80902185D01*
X137481852Y-81075019D01*
X137500147Y-81165986D01*
X137547963Y-81205931D01*
X137601164Y-81219295D01*
X137715535Y-81194346D01*
X137783096Y-81072209D01*
X137801455Y-80859485D01*
X137789037Y-80700610D01*
X137764567Y-80541654D01*
X137721437Y-80460268D01*
X137628771Y-80421796D01*
X137523685Y-80402788D01*
X137347404Y-80383312D01*
X137275009Y-80401486D01*
X134337009Y-80919535D01*
X134316019Y-80836597D01*
X134257668Y-80571457D01*
X134234527Y-80467362D01*
X137267283Y-79932605D01*
X137351296Y-80044255D01*
X137407728Y-80096102D01*
X137520056Y-80202417D01*
X137584629Y-80287010D01*
X137589434Y-80300539D01*
X137643970Y-80347105D01*
X137683652Y-80347296D01*
X137740635Y-80287131D01*
X137736983Y-80162178D01*
X137733642Y-79935938D01*
X137821791Y-79754788D01*
X137987639Y-79610485D01*
X138187785Y-79474881D01*
X138028914Y-79370872D01*
X137932103Y-79313909D01*
X137851038Y-79299306D01*
X137745984Y-79329875D01*
X137590767Y-79401863D01*
X137430581Y-79485463D01*
X137353149Y-79550968D01*
X137336811Y-79623207D01*
X137347479Y-79680732D01*
X137354243Y-79785190D01*
X137322290Y-79822297D01*
X137255369Y-79851426D01*
X137267283Y-79932605D01*
X134234527Y-80467362D01*
X134192234Y-80277116D01*
X134130472Y-80022909D01*
X134077683Y-79828956D01*
X134039166Y-79715377D01*
X134026803Y-79694936D01*
X133950053Y-79699682D01*
X133876126Y-79747513D01*
X133760983Y-79813393D01*
X133681997Y-79773045D01*
X133640774Y-79627719D01*
X133635900Y-79561214D01*
X133656667Y-79296704D01*
X133740467Y-79110833D01*
X133882386Y-79013397D01*
X133914670Y-79005838D01*
X134031705Y-79002266D01*
X134141817Y-79045713D01*
X134264021Y-79150318D01*
X134417332Y-79330228D01*
X134506424Y-79445989D01*
X134629112Y-79597316D01*
X134700942Y-79660343D01*
X134717758Y-79632517D01*
X134716882Y-79573024D01*
X134750631Y-79531767D01*
X134840656Y-79499122D01*
X135008612Y-79465464D01*
X135145223Y-79442513D01*
X135343755Y-79412161D01*
X135483172Y-79395190D01*
X135541113Y-79394147D01*
X135538533Y-79397737D01*
X135493949Y-79460078D01*
X135545258Y-79526314D01*
X135640031Y-79565279D01*
X135762463Y-79630398D01*
X135871579Y-79739565D01*
X135936527Y-79855740D01*
X135938402Y-79923493D01*
X135960340Y-79955298D01*
X136015290Y-79944196D01*
X136096002Y-79869192D01*
X136171905Y-79730274D01*
X136187742Y-79687257D01*
X136228103Y-79528587D01*
X136214910Y-79415078D01*
X136163682Y-79319628D01*
X136082772Y-79229452D01*
X135961195Y-79170458D01*
X135766611Y-79128476D01*
X135707285Y-79119615D01*
X135470630Y-79072545D01*
X135334072Y-79014303D01*
X135302017Y-78947930D01*
X135365802Y-78883969D01*
X135480270Y-78872998D01*
X135539214Y-78910677D01*
X135652288Y-78972367D01*
X135776853Y-78941113D01*
X135923840Y-78811957D01*
X136022754Y-78691440D01*
X136155290Y-78532700D01*
X136270914Y-78443211D01*
X136410298Y-78395127D01*
X136473779Y-78382651D01*
X136647090Y-78365039D01*
G37*
X136647090Y-78365039D02*
X136772051Y-78399348D01*
X136905350Y-78499762D01*
X137022696Y-78639663D01*
X137110942Y-78810605D01*
X137157667Y-78977505D01*
X137150451Y-79105277D01*
X137130761Y-79136496D01*
X137127615Y-79207020D01*
X137168680Y-79254619D01*
X137229983Y-79291002D01*
X137306870Y-79286473D01*
X137432884Y-79235160D01*
X137518172Y-79193435D01*
X137740220Y-79100818D01*
X137884696Y-79085000D01*
X137956550Y-79145746D01*
X137963648Y-79172306D01*
X138019071Y-79243631D01*
X138156061Y-79354310D01*
X138355838Y-79491972D01*
X138599626Y-79644251D01*
X138868648Y-79798780D01*
X139102202Y-79922192D01*
X139346467Y-80047187D01*
X139495404Y-80127589D01*
X139555566Y-80167430D01*
X139533502Y-80170744D01*
X139483148Y-80156763D01*
X139376626Y-80113161D01*
X139204186Y-80031435D01*
X138999038Y-79927471D01*
X138951097Y-79902283D01*
X138541310Y-79685457D01*
X138535452Y-79861133D01*
X138516731Y-80007872D01*
X138481972Y-80104821D01*
X138393664Y-80161775D01*
X138299886Y-80127062D01*
X138230567Y-80016211D01*
X138218614Y-79968191D01*
X138175261Y-79843252D01*
X138121257Y-79816241D01*
X138079132Y-79889651D01*
X138070347Y-79951786D01*
X138106710Y-80119304D01*
X138221258Y-80309680D01*
X138390591Y-80496542D01*
X138591305Y-80653517D01*
X138774961Y-80745866D01*
X138873236Y-80786866D01*
X138866148Y-80800357D01*
X138758120Y-80785106D01*
X138686606Y-80770460D01*
X138631535Y-80807576D01*
X138596213Y-80950091D01*
X138586960Y-81041413D01*
X138524890Y-81323325D01*
X138395360Y-81576704D01*
X138217733Y-81771195D01*
X138064741Y-81860103D01*
X137948306Y-81917974D01*
X137901070Y-81991510D01*
X137924214Y-82100691D01*
X138018919Y-82265498D01*
X138095328Y-82377653D01*
X138212707Y-82531997D01*
X138309602Y-82612059D01*
X138421496Y-82641597D01*
X138494409Y-82644846D01*
X138790297Y-82604396D01*
X139021098Y-82479911D01*
X139176131Y-82277326D01*
X139183006Y-82262331D01*
X139238247Y-82077825D01*
X139216618Y-81916394D01*
X139109267Y-81752151D01*
X138957437Y-81602867D01*
X138802980Y-81425278D01*
X138751701Y-81262936D01*
X138805682Y-81124127D01*
X138830725Y-81098618D01*
X138924989Y-81046057D01*
X138968074Y-81086206D01*
X138944877Y-81204800D01*
X138944405Y-81205971D01*
X138921831Y-81306178D01*
X138968964Y-81384810D01*
X139036232Y-81439733D01*
X139251500Y-81656589D01*
X139369998Y-81900016D01*
X139391916Y-82150903D01*
X139317447Y-82390141D01*
X139146782Y-82598620D01*
X139023733Y-82686369D01*
X138967713Y-82718152D01*
X138909278Y-82744239D01*
X138837223Y-82765239D01*
X138740340Y-82781767D01*
X138607423Y-82794432D01*
X138427265Y-82803845D01*
X138188662Y-82810618D01*
X137880403Y-82815363D01*
X137491285Y-82818691D01*
X137010098Y-82821212D01*
X136515394Y-82823197D01*
X136038577Y-82823770D01*
X135593298Y-82821922D01*
X135193179Y-82817890D01*
X134851846Y-82811913D01*
X134837223Y-82811494D01*
X135820071Y-82638192D01*
X135838914Y-82650050D01*
X135933488Y-82656156D01*
X136111928Y-82659892D01*
X136345237Y-82661392D01*
X136604421Y-82660794D01*
X136860483Y-82658234D01*
X137084429Y-82653846D01*
X137247261Y-82647769D01*
X137305168Y-82643167D01*
X137396439Y-82608812D01*
X137394564Y-82561918D01*
X137346536Y-82477713D01*
X137268305Y-82331698D01*
X137212875Y-82225317D01*
X137142356Y-82093255D01*
X137137343Y-82086786D01*
X137281849Y-82061305D01*
X137343877Y-82186845D01*
X137437470Y-82336176D01*
X137542423Y-82477713D01*
X137638531Y-82579871D01*
X137657757Y-82594823D01*
X137783236Y-82649751D01*
X137910001Y-82658970D01*
X138004398Y-82627801D01*
X138032775Y-82561565D01*
X138024025Y-82536900D01*
X137965099Y-82426194D01*
X137883434Y-82278644D01*
X137874275Y-82262400D01*
X137799141Y-82125898D01*
X137749127Y-82028692D01*
X137745245Y-82020141D01*
X137678785Y-81983789D01*
X137549167Y-81962092D01*
X137405520Y-81958060D01*
X137296971Y-81974699D01*
X137271593Y-81991147D01*
X137281849Y-82061305D01*
X137137343Y-82086786D01*
X137078132Y-82010405D01*
X136993358Y-81965940D01*
X136861194Y-81949027D01*
X136654796Y-81948837D01*
X136533594Y-81951260D01*
X136361841Y-81952139D01*
X136226845Y-81948407D01*
X136207906Y-81947017D01*
X136119011Y-81985663D01*
X136096265Y-82045854D01*
X136057793Y-82154456D01*
X135976111Y-82309612D01*
X135922865Y-82395415D01*
X135832552Y-82554643D01*
X135820071Y-82638192D01*
X134837223Y-82811494D01*
X134582919Y-82804224D01*
X134400023Y-82795063D01*
X134385980Y-82793343D01*
X135218879Y-82646481D01*
X135258753Y-82664821D01*
X135341011Y-82662782D01*
X135351644Y-82662262D01*
X135500542Y-82638119D01*
X135620212Y-82567837D01*
X135736715Y-82430306D01*
X135839647Y-82267025D01*
X135930686Y-82090678D01*
X135942847Y-81985441D01*
X135869372Y-81935581D01*
X135703506Y-81925359D01*
X135693052Y-81925596D01*
X135583408Y-81935778D01*
X135508258Y-81975860D01*
X135442873Y-82070306D01*
X135362532Y-82243577D01*
X135355654Y-82259417D01*
X135267120Y-82464756D01*
X135221599Y-82586784D01*
X135218879Y-82646481D01*
X134385980Y-82793343D01*
X134317663Y-82784980D01*
X134145177Y-82679657D01*
X134037856Y-82521247D01*
X133995898Y-82337331D01*
X134019505Y-82155494D01*
X134108876Y-82003316D01*
X134264212Y-81908383D01*
X134311224Y-81897199D01*
X134487218Y-81899519D01*
X134619252Y-81961785D01*
X134679049Y-82067220D01*
X134677112Y-82114284D01*
X134653707Y-82179830D01*
X134601543Y-82171323D01*
X134524238Y-82117027D01*
X134394542Y-82038252D01*
X134303638Y-82046473D01*
X134220515Y-82136995D01*
X134169753Y-82297765D01*
X134206326Y-82469948D01*
X134278095Y-82568029D01*
X134418515Y-82636132D01*
X134613781Y-82661397D01*
X134814367Y-82644007D01*
X134970747Y-82584142D01*
X134994180Y-82565402D01*
X135073833Y-82464621D01*
X135158946Y-82319257D01*
X135233965Y-82162547D01*
X135283330Y-82027728D01*
X135291482Y-81948036D01*
X135286323Y-81941288D01*
X135216237Y-81912065D01*
X135076631Y-81864781D01*
X134988667Y-81837321D01*
X134815132Y-81773709D01*
X134678728Y-81690579D01*
X134570035Y-81571616D01*
X134569084Y-81569814D01*
X136939711Y-81151809D01*
X136970279Y-81300432D01*
X137011837Y-81393933D01*
X137019202Y-81400604D01*
X137087448Y-81424326D01*
X137114459Y-81362920D01*
X137103330Y-81206373D01*
X137095392Y-81153940D01*
X137052007Y-80946106D01*
X137006521Y-80844385D01*
X136960549Y-80851574D01*
X136941558Y-80887563D01*
X136927635Y-80997655D01*
X136939711Y-81151809D01*
X134569084Y-81569814D01*
X134479634Y-81400507D01*
X134398102Y-81160939D01*
X134337009Y-80919535D01*
X137275009Y-80401486D01*
X137303121Y-80459772D01*
X137368140Y-80516040D01*
X137439974Y-80588304D01*
X137474205Y-80684267D01*
X137482269Y-80842909D01*
X137481430Y-80902185D01*
X137481852Y-81075019D01*
X137500147Y-81165986D01*
X137547963Y-81205931D01*
X137601164Y-81219295D01*
X137715535Y-81194346D01*
X137783096Y-81072209D01*
X137801455Y-80859485D01*
X137789037Y-80700610D01*
X137764567Y-80541654D01*
X137721437Y-80460268D01*
X137628771Y-80421796D01*
X137523685Y-80402788D01*
X137347404Y-80383312D01*
X137275009Y-80401486D01*
X134337009Y-80919535D01*
X134316019Y-80836597D01*
X134257668Y-80571457D01*
X134234527Y-80467362D01*
X137267283Y-79932605D01*
X137351296Y-80044255D01*
X137407728Y-80096102D01*
X137520056Y-80202417D01*
X137584629Y-80287010D01*
X137589434Y-80300539D01*
X137643970Y-80347105D01*
X137683652Y-80347296D01*
X137740635Y-80287131D01*
X137736983Y-80162178D01*
X137733642Y-79935938D01*
X137821791Y-79754788D01*
X137987639Y-79610485D01*
X138187785Y-79474881D01*
X138028914Y-79370872D01*
X137932103Y-79313909D01*
X137851038Y-79299306D01*
X137745984Y-79329875D01*
X137590767Y-79401863D01*
X137430581Y-79485463D01*
X137353149Y-79550968D01*
X137336811Y-79623207D01*
X137347479Y-79680732D01*
X137354243Y-79785190D01*
X137322290Y-79822297D01*
X137255369Y-79851426D01*
X137267283Y-79932605D01*
X134234527Y-80467362D01*
X134192234Y-80277116D01*
X134130472Y-80022909D01*
X134077683Y-79828956D01*
X134039166Y-79715377D01*
X134026803Y-79694936D01*
X133950053Y-79699682D01*
X133876126Y-79747513D01*
X133760983Y-79813393D01*
X133681997Y-79773045D01*
X133640774Y-79627719D01*
X133635900Y-79561214D01*
X133656667Y-79296704D01*
X133740467Y-79110833D01*
X133882386Y-79013397D01*
X133914670Y-79005838D01*
X134031705Y-79002266D01*
X134141817Y-79045713D01*
X134264021Y-79150318D01*
X134417332Y-79330228D01*
X134506424Y-79445989D01*
X134629112Y-79597316D01*
X134700942Y-79660343D01*
X134717758Y-79632517D01*
X134716882Y-79573024D01*
X134750631Y-79531767D01*
X134840656Y-79499122D01*
X135008612Y-79465464D01*
X135145223Y-79442513D01*
X135343755Y-79412161D01*
X135483172Y-79395190D01*
X135541113Y-79394147D01*
X135538533Y-79397737D01*
X135493949Y-79460078D01*
X135545258Y-79526314D01*
X135640031Y-79565279D01*
X135762463Y-79630398D01*
X135871579Y-79739565D01*
X135936527Y-79855740D01*
X135938402Y-79923493D01*
X135960340Y-79955298D01*
X136015290Y-79944196D01*
X136096002Y-79869192D01*
X136171905Y-79730274D01*
X136187742Y-79687257D01*
X136228103Y-79528587D01*
X136214910Y-79415078D01*
X136163682Y-79319628D01*
X136082772Y-79229452D01*
X135961195Y-79170458D01*
X135766611Y-79128476D01*
X135707285Y-79119615D01*
X135470630Y-79072545D01*
X135334072Y-79014303D01*
X135302017Y-78947930D01*
X135365802Y-78883969D01*
X135480270Y-78872998D01*
X135539214Y-78910677D01*
X135652288Y-78972367D01*
X135776853Y-78941113D01*
X135923840Y-78811957D01*
X136022754Y-78691440D01*
X136155290Y-78532700D01*
X136270914Y-78443211D01*
X136410298Y-78395127D01*
X136473779Y-78382651D01*
X136647090Y-78365039D01*
G36*
X158265276Y-73958489D02*
G01*
X158306650Y-74034990D01*
X158283481Y-74097456D01*
X158269112Y-74229785D01*
X158360260Y-74381125D01*
X158477544Y-74488465D01*
X158601522Y-74571824D01*
X158656230Y-74568561D01*
X158648228Y-74475677D01*
X158630837Y-74418449D01*
X158608918Y-74295220D01*
X158638854Y-74245091D01*
X158688108Y-74286828D01*
X158729978Y-74403695D01*
X158735633Y-74432011D01*
X158771102Y-74556170D01*
X158813028Y-74590257D01*
X158820046Y-74585690D01*
X158852686Y-74499218D01*
X158850244Y-74431896D01*
X158869052Y-74332579D01*
X158935139Y-74255925D01*
X159011518Y-74241917D01*
X159021016Y-74247293D01*
X159026720Y-74309532D01*
X159001518Y-74434948D01*
X158994705Y-74458886D01*
X158964435Y-74606200D01*
X158989991Y-74691545D01*
X159085330Y-74721716D01*
X159264407Y-74703511D01*
X159428034Y-74669920D01*
X159640035Y-74626860D01*
X159766957Y-74615208D01*
X159832083Y-74634713D01*
X159852832Y-74665336D01*
X159844834Y-74768328D01*
X159789578Y-74871337D01*
X159721878Y-74976656D01*
X159702397Y-75039039D01*
X159754712Y-75082351D01*
X159883569Y-75151137D01*
X160048187Y-75224966D01*
X160366856Y-75399416D01*
X160627748Y-75625167D01*
X160805964Y-75879619D01*
X160830892Y-75935425D01*
X160893277Y-76052998D01*
X160968555Y-76083444D01*
X161033811Y-76069915D01*
X161239539Y-76011592D01*
X161376375Y-75994095D01*
X161455871Y-76031813D01*
X161489577Y-76139132D01*
X161489044Y-76330437D01*
X161466799Y-76609202D01*
X161439264Y-76829352D01*
X161404342Y-76991507D01*
X161367896Y-77083914D01*
X161335789Y-77094823D01*
X161313883Y-77012482D01*
X161308404Y-76926712D01*
X161290985Y-76795404D01*
X161254963Y-76773295D01*
X161208613Y-76859940D01*
X161186860Y-76933242D01*
X161152385Y-77043956D01*
X161113168Y-77059997D01*
X161046780Y-77004167D01*
X160990109Y-76932038D01*
X160996336Y-76854904D01*
X161069067Y-76731372D01*
X161070742Y-76728866D01*
X161140312Y-76608188D01*
X161163301Y-76532383D01*
X161159125Y-76523994D01*
X161109923Y-76549968D01*
X161032582Y-76644000D01*
X161020124Y-76662536D01*
X160907751Y-76784728D01*
X160747343Y-76851580D01*
X160676406Y-76866205D01*
X160491546Y-76914783D01*
X160333389Y-76982247D01*
X160307088Y-76998491D01*
X160190964Y-77053828D01*
X160028115Y-77080627D01*
X159819731Y-77085519D01*
X159620643Y-77087302D01*
X159494364Y-77105831D01*
X159400888Y-77153898D01*
X159300202Y-77244299D01*
X159289174Y-77255192D01*
X159158612Y-77366950D01*
X159043729Y-77436855D01*
X159016547Y-77445459D01*
X158886096Y-77495115D01*
X158769863Y-77605662D01*
X158653134Y-77794835D01*
X158555531Y-78000971D01*
X158406723Y-78322619D01*
X158288928Y-78539713D01*
X158199497Y-78655452D01*
X158135786Y-78673039D01*
X158095149Y-78595674D01*
X158088915Y-78565504D01*
X158112373Y-78427086D01*
X158198921Y-78295484D01*
X158287074Y-78178959D01*
X158365258Y-78039137D01*
X158420764Y-77906157D01*
X158440885Y-77810162D01*
X158415981Y-77780616D01*
X158363433Y-77830225D01*
X158270543Y-77954286D01*
X158154011Y-78129829D01*
X158105361Y-78207935D01*
X157961472Y-78435552D01*
X157861624Y-78571745D01*
X157796849Y-78624753D01*
X157758177Y-78602819D01*
X157741008Y-78542727D01*
X157766135Y-78462703D01*
X157846780Y-78311159D01*
X157970736Y-78106896D01*
X158125795Y-77868710D01*
X158299752Y-77615403D01*
X158480398Y-77365772D01*
X158640697Y-77157167D01*
X158734908Y-77016343D01*
X158768674Y-76916625D01*
X158740025Y-76875946D01*
X158669108Y-76898921D01*
X158614575Y-76922985D01*
X158639611Y-76882786D01*
X158671807Y-76846545D01*
X158729685Y-76771899D01*
X158726032Y-76708888D01*
X158654561Y-76613289D01*
X158635479Y-76590923D01*
X158554815Y-76482723D01*
X158524954Y-76413431D01*
X158526659Y-76407985D01*
X158588409Y-76394770D01*
X158739017Y-76382713D01*
X158954446Y-76373307D01*
X159160388Y-76368651D01*
X159476094Y-76359626D01*
X159694080Y-76337777D01*
X159829401Y-76295337D01*
X159897114Y-76224542D01*
X159912272Y-76117628D01*
X159894582Y-75989980D01*
X159819283Y-75789719D01*
X159662122Y-75584078D01*
X159613573Y-75533977D01*
X159476971Y-75397291D01*
X159369966Y-75289838D01*
X159325545Y-75244887D01*
X159259262Y-75231684D01*
X159223709Y-75268687D01*
X159146605Y-75302887D01*
X159051223Y-75264561D01*
X158975794Y-75178907D01*
X158955586Y-75091956D01*
X158927374Y-75014652D01*
X158853069Y-75009731D01*
X158719393Y-75087253D01*
X158635195Y-75255459D01*
X158607680Y-75481809D01*
X158588600Y-75736826D01*
X158532482Y-75888718D01*
X158454961Y-75939657D01*
X158378288Y-75913950D01*
X158362253Y-75825753D01*
X158402232Y-75732111D01*
X158443687Y-75650186D01*
X158419855Y-75633026D01*
X158353062Y-75674210D01*
X158265634Y-75767312D01*
X158261602Y-75772578D01*
X158080759Y-75924716D01*
X157850280Y-75979618D01*
X157660139Y-75955974D01*
X157543844Y-75903079D01*
X157494052Y-75841972D01*
X157516109Y-75769114D01*
X157602961Y-75766815D01*
X157701600Y-75817625D01*
X157824923Y-75857800D01*
X157950121Y-75836861D01*
X158028723Y-75765761D01*
X158035301Y-75742229D01*
X157995200Y-75677577D01*
X157890957Y-75629521D01*
X157774534Y-75574334D01*
X157722044Y-75502330D01*
X157747312Y-75442329D01*
X157793231Y-75425870D01*
X157872330Y-75441802D01*
X157886068Y-75464799D01*
X157947507Y-75536851D01*
X158066872Y-75566123D01*
X158194829Y-75545033D01*
X158239538Y-75519120D01*
X158321840Y-75426766D01*
X158298765Y-75355948D01*
X158167065Y-75300417D01*
X158119969Y-75288902D01*
X157973068Y-75244673D01*
X157876638Y-75195552D01*
X157869705Y-75188973D01*
X157783994Y-75158504D01*
X157657562Y-75163216D01*
X157582434Y-75162371D01*
X158001309Y-75088512D01*
X158045620Y-75143562D01*
X158094817Y-75171158D01*
X158230337Y-75205378D01*
X158370804Y-75190759D01*
X158471029Y-75136148D01*
X158492489Y-75093283D01*
X158450701Y-75034706D01*
X158335210Y-74976858D01*
X158305971Y-74967397D01*
X158169313Y-74934873D01*
X158093291Y-74949706D01*
X158040592Y-75007987D01*
X158001309Y-75088512D01*
X157582434Y-75162371D01*
X157524790Y-75161723D01*
X157478720Y-75104916D01*
X157499580Y-75038710D01*
X157580753Y-75033471D01*
X157703790Y-75025053D01*
X157823848Y-74982947D01*
X157895805Y-74925753D01*
X157900797Y-74901533D01*
X157872286Y-74883399D01*
X158335916Y-74801649D01*
X158411805Y-74862558D01*
X158541746Y-74886533D01*
X158612267Y-74880246D01*
X158740278Y-74849796D01*
X158802062Y-74819516D01*
X158803165Y-74815003D01*
X158749579Y-74781801D01*
X158630207Y-74747166D01*
X158491620Y-74720600D01*
X158380392Y-74711603D01*
X158343487Y-74721206D01*
X158335916Y-74801649D01*
X157872286Y-74883399D01*
X157846601Y-74867064D01*
X157719024Y-74825343D01*
X157657794Y-74810219D01*
X157451500Y-74724401D01*
X157269295Y-74581326D01*
X157144826Y-74411633D01*
X157112434Y-74313636D01*
X157121773Y-74270534D01*
X157180498Y-74322054D01*
X157240083Y-74398212D01*
X157411557Y-74585963D01*
X157577509Y-74686468D01*
X157683182Y-74698354D01*
X157709593Y-74664805D01*
X157646580Y-74579502D01*
X157620072Y-74552658D01*
X157491079Y-74398054D01*
X157436367Y-74269264D01*
X157463623Y-74185820D01*
X157473171Y-74179555D01*
X157536170Y-74191568D01*
X157554376Y-74233779D01*
X157620283Y-74383363D01*
X157743946Y-74536408D01*
X157884009Y-74644822D01*
X157921793Y-74661048D01*
X158038245Y-74682143D01*
X158065709Y-74637780D01*
X158005055Y-74525102D01*
X157975426Y-74484874D01*
X157882977Y-74334539D01*
X157837037Y-74200017D01*
X157845435Y-74111379D01*
X157873526Y-74093462D01*
X157924500Y-74133277D01*
X157952294Y-74215131D01*
X157995831Y-74315167D01*
X158078747Y-74428492D01*
X158173738Y-74525841D01*
X158253501Y-74577952D01*
X158285418Y-74572188D01*
X158275868Y-74506810D01*
X158223985Y-74385726D01*
X158208632Y-74356255D01*
X158154936Y-74210278D01*
X158142564Y-74073239D01*
X158167418Y-73973925D01*
X158225398Y-73941126D01*
X158265276Y-73958489D01*
G37*
X158265276Y-73958489D02*
X158306650Y-74034990D01*
X158283481Y-74097456D01*
X158269112Y-74229785D01*
X158360260Y-74381125D01*
X158477544Y-74488465D01*
X158601522Y-74571824D01*
X158656230Y-74568561D01*
X158648228Y-74475677D01*
X158630837Y-74418449D01*
X158608918Y-74295220D01*
X158638854Y-74245091D01*
X158688108Y-74286828D01*
X158729978Y-74403695D01*
X158735633Y-74432011D01*
X158771102Y-74556170D01*
X158813028Y-74590257D01*
X158820046Y-74585690D01*
X158852686Y-74499218D01*
X158850244Y-74431896D01*
X158869052Y-74332579D01*
X158935139Y-74255925D01*
X159011518Y-74241917D01*
X159021016Y-74247293D01*
X159026720Y-74309532D01*
X159001518Y-74434948D01*
X158994705Y-74458886D01*
X158964435Y-74606200D01*
X158989991Y-74691545D01*
X159085330Y-74721716D01*
X159264407Y-74703511D01*
X159428034Y-74669920D01*
X159640035Y-74626860D01*
X159766957Y-74615208D01*
X159832083Y-74634713D01*
X159852832Y-74665336D01*
X159844834Y-74768328D01*
X159789578Y-74871337D01*
X159721878Y-74976656D01*
X159702397Y-75039039D01*
X159754712Y-75082351D01*
X159883569Y-75151137D01*
X160048187Y-75224966D01*
X160366856Y-75399416D01*
X160627748Y-75625167D01*
X160805964Y-75879619D01*
X160830892Y-75935425D01*
X160893277Y-76052998D01*
X160968555Y-76083444D01*
X161033811Y-76069915D01*
X161239539Y-76011592D01*
X161376375Y-75994095D01*
X161455871Y-76031813D01*
X161489577Y-76139132D01*
X161489044Y-76330437D01*
X161466799Y-76609202D01*
X161439264Y-76829352D01*
X161404342Y-76991507D01*
X161367896Y-77083914D01*
X161335789Y-77094823D01*
X161313883Y-77012482D01*
X161308404Y-76926712D01*
X161290985Y-76795404D01*
X161254963Y-76773295D01*
X161208613Y-76859940D01*
X161186860Y-76933242D01*
X161152385Y-77043956D01*
X161113168Y-77059997D01*
X161046780Y-77004167D01*
X160990109Y-76932038D01*
X160996336Y-76854904D01*
X161069067Y-76731372D01*
X161070742Y-76728866D01*
X161140312Y-76608188D01*
X161163301Y-76532383D01*
X161159125Y-76523994D01*
X161109923Y-76549968D01*
X161032582Y-76644000D01*
X161020124Y-76662536D01*
X160907751Y-76784728D01*
X160747343Y-76851580D01*
X160676406Y-76866205D01*
X160491546Y-76914783D01*
X160333389Y-76982247D01*
X160307088Y-76998491D01*
X160190964Y-77053828D01*
X160028115Y-77080627D01*
X159819731Y-77085519D01*
X159620643Y-77087302D01*
X159494364Y-77105831D01*
X159400888Y-77153898D01*
X159300202Y-77244299D01*
X159289174Y-77255192D01*
X159158612Y-77366950D01*
X159043729Y-77436855D01*
X159016547Y-77445459D01*
X158886096Y-77495115D01*
X158769863Y-77605662D01*
X158653134Y-77794835D01*
X158555531Y-78000971D01*
X158406723Y-78322619D01*
X158288928Y-78539713D01*
X158199497Y-78655452D01*
X158135786Y-78673039D01*
X158095149Y-78595674D01*
X158088915Y-78565504D01*
X158112373Y-78427086D01*
X158198921Y-78295484D01*
X158287074Y-78178959D01*
X158365258Y-78039137D01*
X158420764Y-77906157D01*
X158440885Y-77810162D01*
X158415981Y-77780616D01*
X158363433Y-77830225D01*
X158270543Y-77954286D01*
X158154011Y-78129829D01*
X158105361Y-78207935D01*
X157961472Y-78435552D01*
X157861624Y-78571745D01*
X157796849Y-78624753D01*
X157758177Y-78602819D01*
X157741008Y-78542727D01*
X157766135Y-78462703D01*
X157846780Y-78311159D01*
X157970736Y-78106896D01*
X158125795Y-77868710D01*
X158299752Y-77615403D01*
X158480398Y-77365772D01*
X158640697Y-77157167D01*
X158734908Y-77016343D01*
X158768674Y-76916625D01*
X158740025Y-76875946D01*
X158669108Y-76898921D01*
X158614575Y-76922985D01*
X158639611Y-76882786D01*
X158671807Y-76846545D01*
X158729685Y-76771899D01*
X158726032Y-76708888D01*
X158654561Y-76613289D01*
X158635479Y-76590923D01*
X158554815Y-76482723D01*
X158524954Y-76413431D01*
X158526659Y-76407985D01*
X158588409Y-76394770D01*
X158739017Y-76382713D01*
X158954446Y-76373307D01*
X159160388Y-76368651D01*
X159476094Y-76359626D01*
X159694080Y-76337777D01*
X159829401Y-76295337D01*
X159897114Y-76224542D01*
X159912272Y-76117628D01*
X159894582Y-75989980D01*
X159819283Y-75789719D01*
X159662122Y-75584078D01*
X159613573Y-75533977D01*
X159476971Y-75397291D01*
X159369966Y-75289838D01*
X159325545Y-75244887D01*
X159259262Y-75231684D01*
X159223709Y-75268687D01*
X159146605Y-75302887D01*
X159051223Y-75264561D01*
X158975794Y-75178907D01*
X158955586Y-75091956D01*
X158927374Y-75014652D01*
X158853069Y-75009731D01*
X158719393Y-75087253D01*
X158635195Y-75255459D01*
X158607680Y-75481809D01*
X158588600Y-75736826D01*
X158532482Y-75888718D01*
X158454961Y-75939657D01*
X158378288Y-75913950D01*
X158362253Y-75825753D01*
X158402232Y-75732111D01*
X158443687Y-75650186D01*
X158419855Y-75633026D01*
X158353062Y-75674210D01*
X158265634Y-75767312D01*
X158261602Y-75772578D01*
X158080759Y-75924716D01*
X157850280Y-75979618D01*
X157660139Y-75955974D01*
X157543844Y-75903079D01*
X157494052Y-75841972D01*
X157516109Y-75769114D01*
X157602961Y-75766815D01*
X157701600Y-75817625D01*
X157824923Y-75857800D01*
X157950121Y-75836861D01*
X158028723Y-75765761D01*
X158035301Y-75742229D01*
X157995200Y-75677577D01*
X157890957Y-75629521D01*
X157774534Y-75574334D01*
X157722044Y-75502330D01*
X157747312Y-75442329D01*
X157793231Y-75425870D01*
X157872330Y-75441802D01*
X157886068Y-75464799D01*
X157947507Y-75536851D01*
X158066872Y-75566123D01*
X158194829Y-75545033D01*
X158239538Y-75519120D01*
X158321840Y-75426766D01*
X158298765Y-75355948D01*
X158167065Y-75300417D01*
X158119969Y-75288902D01*
X157973068Y-75244673D01*
X157876638Y-75195552D01*
X157869705Y-75188973D01*
X157783994Y-75158504D01*
X157657562Y-75163216D01*
X157582434Y-75162371D01*
X158001309Y-75088512D01*
X158045620Y-75143562D01*
X158094817Y-75171158D01*
X158230337Y-75205378D01*
X158370804Y-75190759D01*
X158471029Y-75136148D01*
X158492489Y-75093283D01*
X158450701Y-75034706D01*
X158335210Y-74976858D01*
X158305971Y-74967397D01*
X158169313Y-74934873D01*
X158093291Y-74949706D01*
X158040592Y-75007987D01*
X158001309Y-75088512D01*
X157582434Y-75162371D01*
X157524790Y-75161723D01*
X157478720Y-75104916D01*
X157499580Y-75038710D01*
X157580753Y-75033471D01*
X157703790Y-75025053D01*
X157823848Y-74982947D01*
X157895805Y-74925753D01*
X157900797Y-74901533D01*
X157872286Y-74883399D01*
X158335916Y-74801649D01*
X158411805Y-74862558D01*
X158541746Y-74886533D01*
X158612267Y-74880246D01*
X158740278Y-74849796D01*
X158802062Y-74819516D01*
X158803165Y-74815003D01*
X158749579Y-74781801D01*
X158630207Y-74747166D01*
X158491620Y-74720600D01*
X158380392Y-74711603D01*
X158343487Y-74721206D01*
X158335916Y-74801649D01*
X157872286Y-74883399D01*
X157846601Y-74867064D01*
X157719024Y-74825343D01*
X157657794Y-74810219D01*
X157451500Y-74724401D01*
X157269295Y-74581326D01*
X157144826Y-74411633D01*
X157112434Y-74313636D01*
X157121773Y-74270534D01*
X157180498Y-74322054D01*
X157240083Y-74398212D01*
X157411557Y-74585963D01*
X157577509Y-74686468D01*
X157683182Y-74698354D01*
X157709593Y-74664805D01*
X157646580Y-74579502D01*
X157620072Y-74552658D01*
X157491079Y-74398054D01*
X157436367Y-74269264D01*
X157463623Y-74185820D01*
X157473171Y-74179555D01*
X157536170Y-74191568D01*
X157554376Y-74233779D01*
X157620283Y-74383363D01*
X157743946Y-74536408D01*
X157884009Y-74644822D01*
X157921793Y-74661048D01*
X158038245Y-74682143D01*
X158065709Y-74637780D01*
X158005055Y-74525102D01*
X157975426Y-74484874D01*
X157882977Y-74334539D01*
X157837037Y-74200017D01*
X157845435Y-74111379D01*
X157873526Y-74093462D01*
X157924500Y-74133277D01*
X157952294Y-74215131D01*
X157995831Y-74315167D01*
X158078747Y-74428492D01*
X158173738Y-74525841D01*
X158253501Y-74577952D01*
X158285418Y-74572188D01*
X158275868Y-74506810D01*
X158223985Y-74385726D01*
X158208632Y-74356255D01*
X158154936Y-74210278D01*
X158142564Y-74073239D01*
X158167418Y-73973925D01*
X158225398Y-73941126D01*
X158265276Y-73958489D01*
G36*
X146190092Y-80693245D02*
G01*
X146240658Y-80687737D01*
X146303702Y-80685412D01*
X146265585Y-80699182D01*
X146136471Y-80726419D01*
X145980290Y-80755114D01*
X145786999Y-80787303D01*
X145675723Y-80801800D01*
X145656914Y-80797602D01*
X145712581Y-80780851D01*
X145944182Y-80731262D01*
X146190092Y-80693245D01*
G37*
X146190092Y-80693245D02*
X146240658Y-80687737D01*
X146303702Y-80685412D01*
X146265585Y-80699182D01*
X146136471Y-80726419D01*
X145980290Y-80755114D01*
X145786999Y-80787303D01*
X145675723Y-80801800D01*
X145656914Y-80797602D01*
X145712581Y-80780851D01*
X145944182Y-80731262D01*
X146190092Y-80693245D01*
G36*
X145314385Y-80797919D02*
G01*
X145324945Y-80816976D01*
X145249845Y-80838208D01*
X145169391Y-80843387D01*
X145175418Y-80822422D01*
X145287928Y-80795014D01*
X145314385Y-80797919D01*
G37*
X145314385Y-80797919D02*
X145324945Y-80816976D01*
X145249845Y-80838208D01*
X145169391Y-80843387D01*
X145175418Y-80822422D01*
X145287928Y-80795014D01*
X145314385Y-80797919D01*
G36*
X146816352Y-80533446D02*
G01*
X146821418Y-80551367D01*
X146735712Y-80574164D01*
X146722535Y-80576410D01*
X146634910Y-80583596D01*
X146640155Y-80565226D01*
X146649228Y-80560790D01*
X146768879Y-80531302D01*
X146816352Y-80533446D01*
G37*
X146816352Y-80533446D02*
X146821418Y-80551367D01*
X146735712Y-80574164D01*
X146722535Y-80576410D01*
X146634910Y-80583596D01*
X146640155Y-80565226D01*
X146649228Y-80560790D01*
X146768879Y-80531302D01*
X146816352Y-80533446D01*
G36*
X144998267Y-80799675D02*
G01*
X144986144Y-80827863D01*
X144930457Y-80841735D01*
X144868750Y-80838618D01*
X144890952Y-80814072D01*
X144976658Y-80792127D01*
X144998267Y-80799675D01*
G37*
X144998267Y-80799675D02*
X144986144Y-80827863D01*
X144930457Y-80841735D01*
X144868750Y-80838618D01*
X144890952Y-80814072D01*
X144976658Y-80792127D01*
X144998267Y-80799675D01*
G36*
X147110570Y-80427219D02*
G01*
X147098447Y-80455407D01*
X147042760Y-80469279D01*
X146981053Y-80466162D01*
X147003255Y-80441616D01*
X147088962Y-80419671D01*
X147110570Y-80427219D01*
G37*
X147110570Y-80427219D02*
X147098447Y-80455407D01*
X147042760Y-80469279D01*
X146981053Y-80466162D01*
X147003255Y-80441616D01*
X147088962Y-80419671D01*
X147110570Y-80427219D01*
G36*
X147319030Y-80329564D02*
G01*
X147317227Y-80363956D01*
X147288506Y-80373157D01*
X147239165Y-80360885D01*
X147244913Y-80342633D01*
X147309710Y-80324349D01*
X147319030Y-80329564D01*
G37*
X147319030Y-80329564D02*
X147317227Y-80363956D01*
X147288506Y-80373157D01*
X147239165Y-80360885D01*
X147244913Y-80342633D01*
X147309710Y-80324349D01*
X147319030Y-80329564D01*
G36*
X150729995Y-79737671D02*
G01*
X150707102Y-79770366D01*
X150674407Y-79747473D01*
X150697300Y-79714779D01*
X150729995Y-79737671D01*
G37*
X150729995Y-79737671D02*
X150707102Y-79770366D01*
X150674407Y-79747473D01*
X150697300Y-79714779D01*
X150729995Y-79737671D01*
G36*
X151770071Y-79548308D02*
G01*
X151757947Y-79576496D01*
X151702261Y-79590367D01*
X151640554Y-79587251D01*
X151662755Y-79562706D01*
X151748463Y-79540761D01*
X151770071Y-79548308D01*
G37*
X151770071Y-79548308D02*
X151757947Y-79576496D01*
X151702261Y-79590367D01*
X151640554Y-79587251D01*
X151662755Y-79562706D01*
X151748463Y-79540761D01*
X151770071Y-79548308D01*
G36*
X152145290Y-79421250D02*
G01*
X152143487Y-79455641D01*
X152114767Y-79464841D01*
X152065427Y-79452571D01*
X152071175Y-79434318D01*
X152135970Y-79416033D01*
X152145290Y-79421250D01*
G37*
X152145290Y-79421250D02*
X152143487Y-79455641D01*
X152114767Y-79464841D01*
X152065427Y-79452571D01*
X152071175Y-79434318D01*
X152135970Y-79416033D01*
X152145290Y-79421250D01*
G36*
X147653111Y-80165580D02*
G01*
X147630218Y-80198273D01*
X147597524Y-80175381D01*
X147620417Y-80142686D01*
X147653111Y-80165580D01*
G37*
X147653111Y-80165580D02*
X147630218Y-80198273D01*
X147597524Y-80175381D01*
X147620417Y-80142686D01*
X147653111Y-80165580D01*
G36*
X152590546Y-79237661D02*
G01*
X152567653Y-79270355D01*
X152534959Y-79247462D01*
X152557852Y-79214768D01*
X152590546Y-79237661D01*
G37*
X152590546Y-79237661D02*
X152567653Y-79270355D01*
X152534959Y-79247462D01*
X152557852Y-79214768D01*
X152590546Y-79237661D01*
G36*
X147911442Y-80005398D02*
G01*
X147888550Y-80038092D01*
X147855856Y-80015200D01*
X147878748Y-79982505D01*
X147911442Y-80005398D01*
G37*
X147911442Y-80005398D02*
X147888550Y-80038092D01*
X147855856Y-80015200D01*
X147878748Y-79982505D01*
X147911442Y-80005398D01*
G36*
X152782930Y-79136870D02*
G01*
X152781126Y-79171262D01*
X152752406Y-79180463D01*
X152703065Y-79168193D01*
X152708813Y-79149939D01*
X152773609Y-79131655D01*
X152782930Y-79136870D01*
G37*
X152782930Y-79136870D02*
X152781126Y-79171262D01*
X152752406Y-79180463D01*
X152703065Y-79168193D01*
X152708813Y-79149939D01*
X152773609Y-79131655D01*
X152782930Y-79136870D01*
G36*
X141779184Y-80901931D02*
G01*
X141823059Y-80905432D01*
X141767714Y-80923412D01*
X141625334Y-80952127D01*
X141602479Y-80956205D01*
X141449263Y-80980287D01*
X141379942Y-80984768D01*
X141407249Y-80969000D01*
X141417868Y-80965641D01*
X141611163Y-80922073D01*
X141779184Y-80901931D01*
G37*
X141779184Y-80901931D02*
X141823059Y-80905432D01*
X141767714Y-80923412D01*
X141625334Y-80952127D01*
X141602479Y-80956205D01*
X141449263Y-80980287D01*
X141379942Y-80984768D01*
X141407249Y-80969000D01*
X141417868Y-80965641D01*
X141611163Y-80922073D01*
X141779184Y-80901931D01*
G36*
X140782287Y-80986132D02*
G01*
X140804976Y-80984052D01*
X140996532Y-80969485D01*
X141138699Y-80963656D01*
X141198472Y-80967411D01*
X141175888Y-80986317D01*
X141074269Y-81006126D01*
X140927376Y-81023101D01*
X140768967Y-81033505D01*
X140632804Y-81033606D01*
X140612864Y-81032208D01*
X140562206Y-81020575D01*
X140620090Y-81004863D01*
X140782287Y-80986132D01*
G37*
X140782287Y-80986132D02*
X140804976Y-80984052D01*
X140996532Y-80969485D01*
X141138699Y-80963656D01*
X141198472Y-80967411D01*
X141175888Y-80986317D01*
X141074269Y-81006126D01*
X140927376Y-81023101D01*
X140768967Y-81033505D01*
X140632804Y-81033606D01*
X140612864Y-81032208D01*
X140562206Y-81020575D01*
X140620090Y-81004863D01*
X140782287Y-80986132D01*
G36*
X140387910Y-80982138D02*
G01*
X140375786Y-81010326D01*
X140320099Y-81024198D01*
X140258393Y-81021081D01*
X140280595Y-80996536D01*
X140366301Y-80974590D01*
X140387910Y-80982138D01*
G37*
X140387910Y-80982138D02*
X140375786Y-81010326D01*
X140320099Y-81024198D01*
X140258393Y-81021081D01*
X140280595Y-80996536D01*
X140366301Y-80974590D01*
X140387910Y-80982138D01*
G36*
X140155760Y-80965757D02*
G01*
X140143637Y-80993946D01*
X140087951Y-81007817D01*
X140026244Y-81004700D01*
X140048445Y-80980155D01*
X140134153Y-80958210D01*
X140155760Y-80965757D01*
G37*
X140155760Y-80965757D02*
X140143637Y-80993946D01*
X140087951Y-81007817D01*
X140026244Y-81004700D01*
X140048445Y-80980155D01*
X140134153Y-80958210D01*
X140155760Y-80965757D01*
G36*
X142074098Y-80624172D02*
G01*
X142084658Y-80643229D01*
X142009558Y-80664460D01*
X141929104Y-80669640D01*
X141935130Y-80648676D01*
X142047642Y-80621267D01*
X142074098Y-80624172D01*
G37*
X142074098Y-80624172D02*
X142084658Y-80643229D01*
X142009558Y-80664460D01*
X141929104Y-80669640D01*
X141935130Y-80648676D01*
X142047642Y-80621267D01*
X142074098Y-80624172D01*
G36*
X139919524Y-80946515D02*
G01*
X139917721Y-80980907D01*
X139889001Y-80990106D01*
X139839661Y-80977836D01*
X139845408Y-80959583D01*
X139910205Y-80941298D01*
X139919524Y-80946515D01*
G37*
X139919524Y-80946515D02*
X139917721Y-80980907D01*
X139889001Y-80990106D01*
X139839661Y-80977836D01*
X139845408Y-80959583D01*
X139910205Y-80941298D01*
X139919524Y-80946515D01*
G36*
X141757980Y-80625927D02*
G01*
X141745857Y-80654115D01*
X141690170Y-80667987D01*
X141628463Y-80664870D01*
X141650665Y-80640325D01*
X141736372Y-80618379D01*
X141757980Y-80625927D01*
G37*
X141757980Y-80625927D02*
X141745857Y-80654115D01*
X141690170Y-80667987D01*
X141628463Y-80664870D01*
X141650665Y-80640325D01*
X141736372Y-80618379D01*
X141757980Y-80625927D01*
G36*
X139707538Y-80936131D02*
G01*
X139684645Y-80968825D01*
X139651951Y-80945933D01*
X139674843Y-80913238D01*
X139707538Y-80936131D01*
G37*
X139707538Y-80936131D02*
X139684645Y-80968825D01*
X139651951Y-80945933D01*
X139674843Y-80913238D01*
X139707538Y-80936131D01*
G36*
X141466157Y-80616486D02*
G01*
X141464354Y-80650878D01*
X141435633Y-80660079D01*
X141386293Y-80647808D01*
X141392041Y-80629555D01*
X141456837Y-80611270D01*
X141466157Y-80616486D01*
G37*
X141466157Y-80616486D02*
X141464354Y-80650878D01*
X141435633Y-80660079D01*
X141386293Y-80647808D01*
X141392041Y-80629555D01*
X141456837Y-80611270D01*
X141466157Y-80616486D01*
G36*
X139530975Y-80909948D02*
G01*
X139508083Y-80942642D01*
X139475389Y-80919750D01*
X139498281Y-80887056D01*
X139530975Y-80909948D01*
G37*
X139530975Y-80909948D02*
X139508083Y-80942642D01*
X139475389Y-80919750D01*
X139498281Y-80887056D01*
X139530975Y-80909948D01*
G36*
X141254170Y-80606102D02*
G01*
X141231278Y-80638796D01*
X141198584Y-80615904D01*
X141221476Y-80583210D01*
X141254170Y-80606102D01*
G37*
X141254170Y-80606102D02*
X141231278Y-80638796D01*
X141198584Y-80615904D01*
X141221476Y-80583210D01*
X141254170Y-80606102D01*
G36*
X156985271Y-77832285D02*
G01*
X156962378Y-77864979D01*
X156929683Y-77842087D01*
X156952577Y-77809392D01*
X156985271Y-77832285D01*
G37*
X156985271Y-77832285D02*
X156962378Y-77864979D01*
X156929683Y-77842087D01*
X156952577Y-77809392D01*
X156985271Y-77832285D01*
G36*
X139354414Y-80883766D02*
G01*
X139331521Y-80916460D01*
X139298826Y-80893568D01*
X139321720Y-80860873D01*
X139354414Y-80883766D01*
G37*
X139354414Y-80883766D02*
X139331521Y-80916460D01*
X139298826Y-80893568D01*
X139321720Y-80860873D01*
X139354414Y-80883766D01*
G36*
X141057446Y-80573922D02*
G01*
X141055642Y-80608314D01*
X141026922Y-80617515D01*
X140977581Y-80605245D01*
X140983330Y-80586991D01*
X141048125Y-80568707D01*
X141057446Y-80573922D01*
G37*
X141057446Y-80573922D02*
X141055642Y-80608314D01*
X141026922Y-80617515D01*
X140977581Y-80605245D01*
X140983330Y-80586991D01*
X141048125Y-80568707D01*
X141057446Y-80573922D01*
G36*
X157253404Y-77727691D02*
G01*
X157230511Y-77760385D01*
X157197817Y-77737493D01*
X157220710Y-77704799D01*
X157253404Y-77727691D01*
G37*
X157253404Y-77727691D02*
X157230511Y-77760385D01*
X157197817Y-77737493D01*
X157220710Y-77704799D01*
X157253404Y-77727691D01*
G36*
X139213275Y-80841785D02*
G01*
X139211472Y-80876176D01*
X139182752Y-80885377D01*
X139133411Y-80873106D01*
X139139160Y-80854853D01*
X139203955Y-80836569D01*
X139213275Y-80841785D01*
G37*
X139213275Y-80841785D02*
X139211472Y-80876176D01*
X139182752Y-80885377D01*
X139133411Y-80873106D01*
X139139160Y-80854853D01*
X139203955Y-80836569D01*
X139213275Y-80841785D01*
G36*
X140901046Y-80553737D02*
G01*
X140878153Y-80586432D01*
X140845459Y-80563539D01*
X140868352Y-80530845D01*
X140901046Y-80553737D01*
G37*
X140901046Y-80553737D02*
X140878153Y-80586432D01*
X140845459Y-80563539D01*
X140868352Y-80530845D01*
X140901046Y-80553737D01*
G36*
X157501374Y-77617099D02*
G01*
X157499571Y-77651491D01*
X157470851Y-77660692D01*
X157421511Y-77648420D01*
X157427258Y-77630168D01*
X157492054Y-77611884D01*
X157501374Y-77617099D01*
G37*
X157501374Y-77617099D02*
X157499571Y-77651491D01*
X157470851Y-77660692D01*
X157421511Y-77648420D01*
X157427258Y-77630168D01*
X157492054Y-77611884D01*
X157501374Y-77617099D01*
G36*
X139056876Y-80821599D02*
G01*
X139033983Y-80854293D01*
X139001289Y-80831401D01*
X139024181Y-80798707D01*
X139056876Y-80821599D01*
G37*
X139056876Y-80821599D02*
X139033983Y-80854293D01*
X139001289Y-80831401D01*
X139024181Y-80798707D01*
X139056876Y-80821599D01*
G36*
X140759908Y-80511756D02*
G01*
X140758104Y-80546149D01*
X140729384Y-80555348D01*
X140680044Y-80543078D01*
X140685792Y-80524825D01*
X140750588Y-80506540D01*
X140759908Y-80511756D01*
G37*
X140759908Y-80511756D02*
X140758104Y-80546149D01*
X140729384Y-80555348D01*
X140680044Y-80543078D01*
X140685792Y-80524825D01*
X140750588Y-80506540D01*
X140759908Y-80511756D01*
G36*
X157713920Y-77522306D02*
G01*
X157712117Y-77556699D01*
X157683397Y-77565899D01*
X157634056Y-77553628D01*
X157639805Y-77535375D01*
X157704600Y-77517090D01*
X157713920Y-77522306D01*
G37*
X157713920Y-77522306D02*
X157712117Y-77556699D01*
X157683397Y-77565899D01*
X157634056Y-77553628D01*
X157639805Y-77535375D01*
X157704600Y-77517090D01*
X157713920Y-77522306D01*
G36*
X140108416Y-80355993D02*
G01*
X140222257Y-80380853D01*
X140366548Y-80419192D01*
X140502720Y-80460640D01*
X140592209Y-80494829D01*
X140600081Y-80499221D01*
X140609958Y-80521859D01*
X140537580Y-80517169D01*
X140409220Y-80488899D01*
X140296308Y-80455864D01*
X140155210Y-80404945D01*
X140072284Y-80364375D01*
X140063587Y-80354979D01*
X140108416Y-80355993D01*
G37*
X140108416Y-80355993D02*
X140222257Y-80380853D01*
X140366548Y-80419192D01*
X140502720Y-80460640D01*
X140592209Y-80494829D01*
X140600081Y-80499221D01*
X140609958Y-80521859D01*
X140537580Y-80517169D01*
X140409220Y-80488899D01*
X140296308Y-80455864D01*
X140155210Y-80404945D01*
X140072284Y-80364375D01*
X140063587Y-80354979D01*
X140108416Y-80355993D01*
G36*
X158315553Y-77170228D02*
G01*
X158221805Y-77243314D01*
X158085469Y-77331127D01*
X157935002Y-77414365D01*
X157885188Y-77438421D01*
X157858722Y-77441307D01*
X157913735Y-77391596D01*
X158032953Y-77303887D01*
X158183781Y-77204407D01*
X158295544Y-77142518D01*
X158338254Y-77131164D01*
X158315553Y-77170228D01*
G37*
X158315553Y-77170228D02*
X158221805Y-77243314D01*
X158085469Y-77331127D01*
X157935002Y-77414365D01*
X157885188Y-77438421D01*
X157858722Y-77441307D01*
X157913735Y-77391596D01*
X158032953Y-77303887D01*
X158183781Y-77204407D01*
X158295544Y-77142518D01*
X158338254Y-77131164D01*
X158315553Y-77170228D01*
G36*
X139784211Y-80228789D02*
G01*
X139858663Y-80249214D01*
X139963102Y-80287442D01*
X139998977Y-80313607D01*
X139985602Y-80339887D01*
X139912035Y-80312899D01*
X139846050Y-80278078D01*
X139763883Y-80230866D01*
X139784211Y-80228789D01*
G37*
X139784211Y-80228789D02*
X139858663Y-80249214D01*
X139963102Y-80287442D01*
X139998977Y-80313607D01*
X139985602Y-80339887D01*
X139912035Y-80312899D01*
X139846050Y-80278078D01*
X139763883Y-80230866D01*
X139784211Y-80228789D01*
G36*
X158453491Y-77057561D02*
G01*
X158430598Y-77090255D01*
X158397905Y-77067363D01*
X158420797Y-77034669D01*
X158453491Y-77057561D01*
G37*
X158453491Y-77057561D02*
X158430598Y-77090255D01*
X158397905Y-77067363D01*
X158420797Y-77034669D01*
X158453491Y-77057561D01*
G36*
X158554864Y-76982372D02*
G01*
X158531971Y-77015066D01*
X158499277Y-76992173D01*
X158522170Y-76959479D01*
X158554864Y-76982372D01*
G37*
X158554864Y-76982372D02*
X158531971Y-77015066D01*
X158499277Y-76992173D01*
X158522170Y-76959479D01*
X158554864Y-76982372D01*
G36*
X139691292Y-80193898D02*
G01*
X139668400Y-80226592D01*
X139635706Y-80203699D01*
X139658598Y-80171005D01*
X139691292Y-80193898D01*
G37*
X139691292Y-80193898D02*
X139668400Y-80226592D01*
X139635706Y-80203699D01*
X139658598Y-80171005D01*
X139691292Y-80193898D01*
G36*
X135785701Y-79372015D02*
G01*
X135823175Y-79434502D01*
X135797096Y-79476182D01*
X135792999Y-79477050D01*
X135720914Y-79443836D01*
X135689427Y-79404551D01*
X135676429Y-79339652D01*
X135710057Y-79332851D01*
X135785701Y-79372015D01*
G37*
X135785701Y-79372015D02*
X135823175Y-79434502D01*
X135797096Y-79476182D01*
X135792999Y-79477050D01*
X135720914Y-79443836D01*
X135689427Y-79404551D01*
X135676429Y-79339652D01*
X135710057Y-79332851D01*
X135785701Y-79372015D01*
G36*
X135233848Y-79176374D02*
G01*
X135280874Y-79209131D01*
X135337675Y-79265407D01*
X135309654Y-79254809D01*
X135281464Y-79237685D01*
X135158971Y-79192015D01*
X135081520Y-79216229D01*
X135075938Y-79299798D01*
X135082475Y-79315759D01*
X135117915Y-79400858D01*
X135122160Y-79421648D01*
X135069523Y-79404833D01*
X135008438Y-79382870D01*
X134929663Y-79313422D01*
X134920696Y-79256796D01*
X134984810Y-79175745D01*
X135104907Y-79146859D01*
X135233848Y-79176374D01*
G37*
X135233848Y-79176374D02*
X135280874Y-79209131D01*
X135337675Y-79265407D01*
X135309654Y-79254809D01*
X135281464Y-79237685D01*
X135158971Y-79192015D01*
X135081520Y-79216229D01*
X135075938Y-79299798D01*
X135082475Y-79315759D01*
X135117915Y-79400858D01*
X135122160Y-79421648D01*
X135069523Y-79404833D01*
X135008438Y-79382870D01*
X134929663Y-79313422D01*
X134920696Y-79256796D01*
X134984810Y-79175745D01*
X135104907Y-79146859D01*
X135233848Y-79176374D01*
G36*
X143027877Y-65089141D02*
G01*
X143177224Y-65150535D01*
X143301325Y-65244717D01*
X143397404Y-65364669D01*
X143462680Y-65503370D01*
X143494375Y-65653801D01*
X143489712Y-65808940D01*
X143445912Y-65961768D01*
X143360196Y-66105265D01*
X143295075Y-66176812D01*
X143149915Y-66283282D01*
X142989107Y-66344768D01*
X142820816Y-66360786D01*
X142653209Y-66330852D01*
X142494450Y-66254480D01*
X142455291Y-66226699D01*
X142346700Y-66143832D01*
X141902200Y-66288887D01*
X141632701Y-66373920D01*
X141347940Y-66458575D01*
X141062652Y-66538741D01*
X140791572Y-66610310D01*
X140549432Y-66669173D01*
X140492500Y-66682008D01*
X140395750Y-66704830D01*
X140318505Y-66725729D01*
X140274002Y-66741038D01*
X140269168Y-66743859D01*
X140268777Y-66771429D01*
X140276804Y-66838578D01*
X140291404Y-66935136D01*
X140310734Y-67050929D01*
X140332950Y-67175785D01*
X140356208Y-67299532D01*
X140378664Y-67411997D01*
X140398475Y-67503007D01*
X140413796Y-67562390D01*
X140420614Y-67579397D01*
X140446772Y-67577639D01*
X140515376Y-67566839D01*
X140619142Y-67548318D01*
X140750783Y-67523394D01*
X140903015Y-67493389D01*
X140969397Y-67479983D01*
X141167205Y-67440629D01*
X141321789Y-67412560D01*
X141439425Y-67395658D01*
X141526393Y-67389798D01*
X141588968Y-67394860D01*
X141633430Y-67410723D01*
X141666055Y-67437263D01*
X141687820Y-67466055D01*
X141702423Y-67505068D01*
X141725388Y-67587600D01*
X141755227Y-67707333D01*
X141790448Y-67857950D01*
X141829564Y-68033135D01*
X141871083Y-68226569D01*
X141900490Y-68368034D01*
X141941790Y-68567764D01*
X141980395Y-68751384D01*
X142015022Y-68913023D01*
X142044388Y-69046810D01*
X142067208Y-69146877D01*
X142082199Y-69207352D01*
X142087490Y-69223156D01*
X142117973Y-69226449D01*
X142184382Y-69221345D01*
X142272740Y-69208954D01*
X142278691Y-69207960D01*
X142493389Y-69194988D01*
X142695605Y-69228034D01*
X142879650Y-69304205D01*
X143039833Y-69420604D01*
X143170465Y-69574338D01*
X143238360Y-69696214D01*
X143278435Y-69793013D01*
X143300850Y-69879545D01*
X143310277Y-69978911D01*
X143311650Y-70058634D01*
X143309053Y-70171833D01*
X143297581Y-70256926D01*
X143272206Y-70336463D01*
X143228416Y-70431947D01*
X143118164Y-70605765D01*
X142978138Y-70744275D01*
X142814535Y-70841605D01*
X142782236Y-70854608D01*
X142707797Y-70877710D01*
X142592792Y-70907436D01*
X142445236Y-70942186D01*
X142273143Y-70980362D01*
X142084527Y-71020366D01*
X141887403Y-71060598D01*
X141689785Y-71099460D01*
X141499687Y-71135354D01*
X141325125Y-71166680D01*
X141174112Y-71191839D01*
X141054663Y-71209234D01*
X140974792Y-71217265D01*
X140962400Y-71217622D01*
X140772053Y-71195143D01*
X140591780Y-71130552D01*
X140429813Y-71029868D01*
X140294380Y-70899115D01*
X140193711Y-70744311D01*
X140147379Y-70621352D01*
X140137142Y-70577443D01*
X140117844Y-70488857D01*
X140090552Y-70360695D01*
X140067600Y-70251606D01*
X140516787Y-70251606D01*
X140517691Y-70297040D01*
X140536053Y-70374266D01*
X140557493Y-70454834D01*
X140617262Y-70587032D01*
X140717301Y-70697041D01*
X140769647Y-70733969D01*
X140860321Y-70766744D01*
X140981695Y-70779146D01*
X141117507Y-70770178D01*
X141178300Y-70759060D01*
X141229590Y-70741738D01*
X141248460Y-70709209D01*
X141248125Y-70654115D01*
X141215894Y-70486727D01*
X141147805Y-70354426D01*
X141046751Y-70259447D01*
X140915620Y-70204023D01*
X140757305Y-70190390D01*
X140662090Y-70201093D01*
X140584659Y-70214130D01*
X140537667Y-70227469D01*
X140516787Y-70251606D01*
X140067600Y-70251606D01*
X140056333Y-70198057D01*
X140016256Y-70006047D01*
X139971387Y-69789766D01*
X139922794Y-69554315D01*
X139871544Y-69304797D01*
X139854893Y-69223478D01*
X139802003Y-68964227D01*
X140259470Y-68964227D01*
X140262219Y-68988496D01*
X140274048Y-69052273D01*
X140292793Y-69145526D01*
X140316292Y-69258222D01*
X140342382Y-69380328D01*
X140368901Y-69501813D01*
X140393685Y-69612644D01*
X140414572Y-69702789D01*
X140429399Y-69762214D01*
X140435548Y-69781015D01*
X140464637Y-69782462D01*
X140527377Y-69774052D01*
X140582351Y-69763423D01*
X140797513Y-69741029D01*
X141001139Y-69765649D01*
X141188208Y-69833914D01*
X141353699Y-69942456D01*
X141492592Y-70087907D01*
X141599866Y-70266900D01*
X141670500Y-70476068D01*
X141674887Y-70496250D01*
X141699556Y-70583013D01*
X141727479Y-70625863D01*
X141738622Y-70629600D01*
X141774517Y-70624593D01*
X141851056Y-70610734D01*
X141959202Y-70589763D01*
X142089914Y-70563423D01*
X142194687Y-70541742D01*
X142339705Y-70509847D01*
X142471838Y-70477887D01*
X142581033Y-70448516D01*
X142657241Y-70424384D01*
X142685077Y-70412331D01*
X142787112Y-70324560D01*
X142853775Y-70209429D01*
X142881674Y-70079048D01*
X142867413Y-69945527D01*
X142837283Y-69869086D01*
X142764154Y-69761285D01*
X142672425Y-69688972D01*
X142556433Y-69650427D01*
X142410512Y-69643930D01*
X142228998Y-69667759D01*
X142196117Y-69674304D01*
X142052366Y-69702350D01*
X141940172Y-69716514D01*
X141854054Y-69711936D01*
X141788529Y-69683760D01*
X141738115Y-69627127D01*
X141697329Y-69537180D01*
X141660688Y-69409063D01*
X141622711Y-69237916D01*
X141604686Y-69150281D01*
X141514306Y-68707124D01*
X140889103Y-68834642D01*
X140718296Y-68869525D01*
X140564928Y-68900931D01*
X140435710Y-68927479D01*
X140337352Y-68947789D01*
X140276567Y-68960478D01*
X140259470Y-68964227D01*
X139802003Y-68964227D01*
X139795371Y-68931719D01*
X139745618Y-68685579D01*
X139704932Y-68480965D01*
X139672613Y-68313785D01*
X139647959Y-68179948D01*
X139641937Y-68144347D01*
X140089517Y-68144347D01*
X140095955Y-68208828D01*
X140110621Y-68291817D01*
X140130328Y-68378898D01*
X140151891Y-68455656D01*
X140172126Y-68507674D01*
X140184859Y-68521801D01*
X140216841Y-68517051D01*
X140291262Y-68503503D01*
X140400797Y-68482570D01*
X140538121Y-68455665D01*
X140695910Y-68424200D01*
X140797300Y-68403730D01*
X140963507Y-68369415D01*
X141113182Y-68337351D01*
X141239088Y-68309184D01*
X141333986Y-68286559D01*
X141390639Y-68271122D01*
X141403277Y-68265981D01*
X141409650Y-68233126D01*
X141405986Y-68166643D01*
X141394879Y-68082113D01*
X141378923Y-67995111D01*
X141360714Y-67921216D01*
X141342848Y-67876006D01*
X141337301Y-67869930D01*
X141307701Y-67871135D01*
X141236770Y-67881259D01*
X141132872Y-67898669D01*
X141004368Y-67921731D01*
X140859620Y-67948810D01*
X140706990Y-67978272D01*
X140554840Y-68008484D01*
X140411531Y-68037812D01*
X140285426Y-68064621D01*
X140184886Y-68087278D01*
X140118274Y-68104148D01*
X140094489Y-68112790D01*
X140089517Y-68144347D01*
X139641937Y-68144347D01*
X139630268Y-68075363D01*
X139618841Y-67995937D01*
X139612974Y-67937579D01*
X139611968Y-67896198D01*
X139615121Y-67867702D01*
X139619863Y-67852154D01*
X139669646Y-67787701D01*
X139750111Y-67736211D01*
X139841154Y-67709586D01*
X139863034Y-67708211D01*
X139907044Y-67705260D01*
X139936862Y-67692735D01*
X139953023Y-67663807D01*
X139956065Y-67611647D01*
X139946526Y-67529423D01*
X139924941Y-67410306D01*
X139897218Y-67273463D01*
X139869015Y-67137728D01*
X139843936Y-67018855D01*
X139823957Y-66926076D01*
X139811056Y-66868619D01*
X139807643Y-66855261D01*
X139783686Y-66845000D01*
X139719765Y-66846005D01*
X139612377Y-66858498D01*
X139510548Y-66874022D01*
X139142514Y-66928062D01*
X138752591Y-66975341D01*
X138354618Y-67014661D01*
X137962439Y-67044826D01*
X137589894Y-67064638D01*
X137250825Y-67072900D01*
X137209550Y-67073064D01*
X136796800Y-67073600D01*
X136796800Y-68089600D01*
X137326409Y-68089599D01*
X137518232Y-68091027D01*
X137681856Y-68095123D01*
X137811242Y-68101609D01*
X137900354Y-68110207D01*
X137936781Y-68117753D01*
X137971167Y-68130314D01*
X138000065Y-68144817D01*
X138023954Y-68165491D01*
X138043309Y-68196564D01*
X138058608Y-68242263D01*
X138070328Y-68306818D01*
X138078945Y-68394455D01*
X138084937Y-68509404D01*
X138088780Y-68655893D01*
X138090952Y-68838149D01*
X138091930Y-69060401D01*
X138092190Y-69326877D01*
X138092200Y-69495511D01*
X138092200Y-70700745D01*
X138314450Y-70709622D01*
X138521754Y-70735850D01*
X138698669Y-70798934D01*
X138853189Y-70902458D01*
X138944267Y-70991863D01*
X139057734Y-71147337D01*
X139126926Y-71315796D01*
X139154890Y-71506166D01*
X139154584Y-71607500D01*
X139123595Y-71818762D01*
X139050212Y-72002057D01*
X138934544Y-72157214D01*
X138776699Y-72284066D01*
X138682284Y-72336683D01*
X138512500Y-72420300D01*
X137572100Y-72425401D01*
X137308681Y-72426383D01*
X137091585Y-72426121D01*
X136916347Y-72424495D01*
X136778504Y-72421383D01*
X136673590Y-72416662D01*
X136597142Y-72410212D01*
X136544695Y-72401910D01*
X136525634Y-72396887D01*
X136340823Y-72312271D01*
X136180786Y-72185342D01*
X136050403Y-72020526D01*
X135991677Y-71912300D01*
X135920500Y-71759900D01*
X135919180Y-71450272D01*
X136340562Y-71450272D01*
X136348284Y-71557947D01*
X136351459Y-71584169D01*
X136392573Y-71736619D01*
X136471920Y-71856998D01*
X136586331Y-71942669D01*
X136732637Y-71990998D01*
X136852981Y-72001200D01*
X137000000Y-72001200D01*
X137000000Y-71854181D01*
X136979523Y-71687334D01*
X136919851Y-71550151D01*
X136823617Y-71445802D01*
X136693458Y-71377457D01*
X136582969Y-71352659D01*
X136466538Y-71341934D01*
X136392271Y-71349682D01*
X136352751Y-71383322D01*
X136340562Y-71450272D01*
X135919180Y-71450272D01*
X135913138Y-70034052D01*
X135911822Y-69672428D01*
X135911301Y-69410400D01*
X136365000Y-69410400D01*
X136365000Y-70901839D01*
X136578500Y-70915159D01*
X136784116Y-70944176D01*
X136957543Y-71005893D01*
X137108580Y-71104421D01*
X137175404Y-71165395D01*
X137292961Y-71307210D01*
X137371463Y-71462802D01*
X137415405Y-71643143D01*
X137427665Y-71781247D01*
X137437025Y-72005794D01*
X137923362Y-71996731D01*
X138100824Y-71992702D01*
X138235081Y-71987656D01*
X138333729Y-71980883D01*
X138404363Y-71971672D01*
X138454578Y-71959314D01*
X138490936Y-71943660D01*
X138596336Y-71861798D01*
X138672249Y-71752948D01*
X138714399Y-71629282D01*
X138718511Y-71502971D01*
X138684243Y-71393406D01*
X138634784Y-71322665D01*
X138566082Y-71250090D01*
X138541369Y-71228854D01*
X138500290Y-71197520D01*
X138462146Y-71175614D01*
X138416558Y-71160982D01*
X138353149Y-71151474D01*
X138261541Y-71144939D01*
X138131355Y-71139223D01*
X138103842Y-71138148D01*
X137984191Y-71134589D01*
X137887437Y-71130888D01*
X137811120Y-71122116D01*
X137752778Y-71103341D01*
X137709949Y-71069633D01*
X137680171Y-71016063D01*
X137660983Y-70937700D01*
X137649922Y-70829614D01*
X137644528Y-70686874D01*
X137642338Y-70504551D01*
X137640891Y-70277714D01*
X137640324Y-70209827D01*
X137632948Y-69410400D01*
X136365000Y-69410400D01*
X135911301Y-69410400D01*
X135911198Y-69358769D01*
X135911302Y-69090247D01*
X135912171Y-68864031D01*
X135912576Y-68818735D01*
X136342773Y-68818735D01*
X136344585Y-68897507D01*
X136349790Y-68942832D01*
X136350477Y-68944910D01*
X136363098Y-68955759D01*
X136395106Y-68963923D01*
X136451836Y-68969629D01*
X136538625Y-68973103D01*
X136660811Y-68974571D01*
X136823729Y-68974260D01*
X137005720Y-68972687D01*
X137647700Y-68965900D01*
X137647700Y-68534100D01*
X136352300Y-68534100D01*
X136344757Y-68722222D01*
X136342773Y-68818735D01*
X135912576Y-68818735D01*
X135913842Y-68677292D01*
X135916352Y-68527200D01*
X135919737Y-68410925D01*
X135924034Y-68325638D01*
X135929281Y-68268508D01*
X135935513Y-68236707D01*
X135936563Y-68233878D01*
X135992680Y-68161679D01*
X136086670Y-68112296D01*
X136208997Y-68090308D01*
X136237184Y-68089600D01*
X136339600Y-68089600D01*
X136339600Y-67075901D01*
X136257050Y-67063133D01*
X136196759Y-67056267D01*
X136100997Y-67048078D01*
X135985028Y-67039792D01*
X135907800Y-67035038D01*
X135485077Y-67002009D01*
X135028907Y-66950256D01*
X134552330Y-66881531D01*
X134068388Y-66797586D01*
X133905275Y-66766045D01*
X133771150Y-66740367D01*
X133655270Y-66719988D01*
X133566427Y-66706313D01*
X133513415Y-66700744D01*
X133502543Y-66701789D01*
X133492124Y-66728424D01*
X133470987Y-66793729D01*
X133441903Y-66888218D01*
X133407642Y-67002406D01*
X133370973Y-67126808D01*
X133334665Y-67251938D01*
X133301489Y-67368311D01*
X133274214Y-67466442D01*
X133255609Y-67536844D01*
X133248445Y-67570032D01*
X133248632Y-67571371D01*
X133273337Y-67579206D01*
X133339776Y-67599049D01*
X133440875Y-67628821D01*
X133569560Y-67666442D01*
X133718759Y-67709835D01*
X133786900Y-67729588D01*
X133970434Y-67783530D01*
X134111098Y-67826986D01*
X134215172Y-67862301D01*
X134288937Y-67891822D01*
X134338676Y-67917894D01*
X134370668Y-67942864D01*
X134377450Y-67950148D01*
X134416989Y-68009727D01*
X134434547Y-68063594D01*
X134434600Y-68065788D01*
X134427686Y-68101290D01*
X134408052Y-68179466D01*
X134377360Y-68294269D01*
X134337272Y-68439651D01*
X134289450Y-68609565D01*
X134235556Y-68797965D01*
X134193300Y-68943811D01*
X134136239Y-69140222D01*
X134083991Y-69321030D01*
X134038198Y-69480477D01*
X134000503Y-69612806D01*
X133972547Y-69712258D01*
X133955973Y-69773074D01*
X133952000Y-69789900D01*
X133974191Y-69806157D01*
X134031852Y-69830598D01*
X134098050Y-69853250D01*
X134230174Y-69898896D01*
X134331194Y-69946531D01*
X134420053Y-70006850D01*
X134511503Y-70086615D01*
X134636807Y-70236412D01*
X134723709Y-70410187D01*
X134770185Y-70598133D01*
X134774212Y-70790440D01*
X134733768Y-70977301D01*
X134708254Y-71040645D01*
X134599189Y-71221951D01*
X134454584Y-71373109D01*
X134289578Y-71482086D01*
X134211351Y-71518780D01*
X134143507Y-71540809D01*
X134068155Y-71551619D01*
X133967402Y-71554656D01*
X133913900Y-71554449D01*
X133847175Y-71552998D01*
X133784014Y-71548852D01*
X133717880Y-71540491D01*
X133642236Y-71526397D01*
X133550543Y-71505049D01*
X133436264Y-71474930D01*
X133292862Y-71434518D01*
X133113798Y-71382297D01*
X132897932Y-71318349D01*
X132701440Y-71258988D01*
X132516213Y-71201263D01*
X132349078Y-71147438D01*
X132206859Y-71099775D01*
X132096382Y-71060537D01*
X132024471Y-71031984D01*
X132005094Y-71022412D01*
X131874452Y-70922681D01*
X131756016Y-70789756D01*
X131664393Y-70641188D01*
X131638984Y-70582536D01*
X131617834Y-70522004D01*
X131602037Y-70462499D01*
X131592386Y-70399780D01*
X131589673Y-70329605D01*
X131594692Y-70247731D01*
X131594989Y-70245581D01*
X132024342Y-70245581D01*
X132038186Y-70394250D01*
X132094002Y-70521100D01*
X132183924Y-70616035D01*
X132242900Y-70651254D01*
X132322188Y-70687127D01*
X132406304Y-70718098D01*
X132479762Y-70738614D01*
X132527077Y-70743118D01*
X132532825Y-70741198D01*
X132548023Y-70713164D01*
X132568095Y-70652797D01*
X132577275Y-70618784D01*
X132602229Y-70443323D01*
X132583709Y-70292030D01*
X132522809Y-70166930D01*
X132420623Y-70070046D01*
X132278244Y-70003400D01*
X132238719Y-69992257D01*
X132156051Y-69974351D01*
X132107515Y-69977915D01*
X132078572Y-70009868D01*
X132054684Y-70077130D01*
X132053735Y-70080295D01*
X132024342Y-70245581D01*
X131594989Y-70245581D01*
X131608235Y-70149917D01*
X131631095Y-70031920D01*
X131664066Y-69889499D01*
X131707940Y-69718412D01*
X131763510Y-69514418D01*
X131763891Y-69513066D01*
X132236704Y-69513066D01*
X132261099Y-69535494D01*
X132323060Y-69556004D01*
X132341514Y-69560758D01*
X132548431Y-69637149D01*
X132727951Y-69755984D01*
X132824031Y-69848630D01*
X132948789Y-70019194D01*
X133024860Y-70204118D01*
X133052286Y-70403581D01*
X133031108Y-70617763D01*
X133016473Y-70680400D01*
X132993429Y-70770436D01*
X132977075Y-70838119D01*
X132970275Y-70871477D01*
X132970369Y-70873039D01*
X132994735Y-70880388D01*
X133059824Y-70899380D01*
X133157525Y-70927665D01*
X133279728Y-70962892D01*
X133380500Y-70991857D01*
X133581194Y-71046882D01*
X133741289Y-71084143D01*
X133867560Y-71104213D01*
X133966784Y-71107661D01*
X134045736Y-71095060D01*
X134111193Y-71066980D01*
X134130058Y-71055050D01*
X134241656Y-70952878D01*
X134309474Y-70831328D01*
X134331088Y-70696945D01*
X134309313Y-70571291D01*
X134273145Y-70487206D01*
X134221436Y-70418847D01*
X134146724Y-70361322D01*
X134041549Y-70309743D01*
X133898452Y-70259218D01*
X133779613Y-70224076D01*
X133628942Y-70170112D01*
X133521146Y-70106007D01*
X133459011Y-70033841D01*
X133444036Y-69973601D01*
X133450778Y-69936179D01*
X133469453Y-69858800D01*
X133497773Y-69750277D01*
X133533448Y-69619422D01*
X133567182Y-69499540D01*
X133690293Y-69067980D01*
X133083836Y-68892767D01*
X132916858Y-68845161D01*
X132766447Y-68803497D01*
X132639325Y-68769536D01*
X132542215Y-68745042D01*
X132481839Y-68731778D01*
X132464559Y-68730374D01*
X132453312Y-68758184D01*
X132431236Y-68825734D01*
X132401191Y-68923845D01*
X132366036Y-69043336D01*
X132353600Y-69086599D01*
X132316739Y-69215197D01*
X132283777Y-69329481D01*
X132257761Y-69418935D01*
X132241740Y-69473040D01*
X132239432Y-69480510D01*
X132236704Y-69513066D01*
X131763891Y-69513066D01*
X131831569Y-69273273D01*
X131912911Y-68990736D01*
X131979155Y-68762700D01*
X132065674Y-68465673D01*
X132120576Y-68278375D01*
X132585182Y-68278375D01*
X132585665Y-68281054D01*
X132610084Y-68289166D01*
X132675360Y-68309246D01*
X132773608Y-68338953D01*
X132896943Y-68375944D01*
X133037478Y-68417876D01*
X133187328Y-68462409D01*
X133338609Y-68507200D01*
X133483434Y-68549907D01*
X133613917Y-68588188D01*
X133722174Y-68619700D01*
X133800319Y-68642103D01*
X133817574Y-68646937D01*
X133826795Y-68625336D01*
X133846191Y-68567036D01*
X133871764Y-68484119D01*
X133874724Y-68474211D01*
X133900559Y-68382428D01*
X133919141Y-68306806D01*
X133926588Y-68263197D01*
X133926600Y-68262367D01*
X133910829Y-68244814D01*
X133861286Y-68220412D01*
X133774621Y-68187968D01*
X133647486Y-68146292D01*
X133476533Y-68094194D01*
X133345071Y-68055555D01*
X133180055Y-68007976D01*
X133030218Y-67965572D01*
X132902794Y-67930326D01*
X132805016Y-67904220D01*
X132744117Y-67889236D01*
X132727859Y-67886400D01*
X132701028Y-67910657D01*
X132668392Y-67980171D01*
X132635204Y-68080049D01*
X132609466Y-68171332D01*
X132591797Y-68241477D01*
X132585182Y-68278375D01*
X132120576Y-68278375D01*
X132139511Y-68213779D01*
X132202280Y-68003403D01*
X132255592Y-67830931D01*
X132301060Y-67692746D01*
X132340297Y-67585236D01*
X132374916Y-67504785D01*
X132406529Y-67447779D01*
X132436749Y-67410602D01*
X132467189Y-67389640D01*
X132499461Y-67381278D01*
X132535179Y-67381902D01*
X132575954Y-67387897D01*
X132591338Y-67390531D01*
X132671310Y-67404797D01*
X132730404Y-67412203D01*
X132773996Y-67406727D01*
X132807456Y-67382349D01*
X132836160Y-67333047D01*
X132865479Y-67252800D01*
X132900787Y-67135587D01*
X132940408Y-66999371D01*
X132980105Y-66862513D01*
X133013694Y-66743901D01*
X133038973Y-66651542D01*
X133053741Y-66593442D01*
X133056504Y-66577004D01*
X133031211Y-66568645D01*
X132965633Y-66549084D01*
X132868399Y-66520842D01*
X132748135Y-66486435D01*
X132682000Y-66467689D01*
X132513582Y-66418696D01*
X132325643Y-66361773D01*
X132140876Y-66303910D01*
X131981972Y-66252099D01*
X131978937Y-66251080D01*
X131644175Y-66138549D01*
X131597937Y-66190574D01*
X131508644Y-66261125D01*
X131386482Y-66317466D01*
X131248802Y-66353039D01*
X131143937Y-66362151D01*
X130966452Y-66339096D01*
X130809401Y-66273111D01*
X130678424Y-66169863D01*
X130579164Y-66035020D01*
X130517262Y-65874251D01*
X130500662Y-65734433D01*
X130949435Y-65734433D01*
X130972412Y-65825340D01*
X131027826Y-65887281D01*
X131104301Y-65917001D01*
X131190461Y-65911244D01*
X131274930Y-65866753D01*
X131306396Y-65836599D01*
X131348398Y-65772426D01*
X131352688Y-65705195D01*
X131350544Y-65693172D01*
X131312104Y-65597715D01*
X131249302Y-65537039D01*
X131172984Y-65510029D01*
X131093994Y-65515569D01*
X131023178Y-65552543D01*
X130971381Y-65619836D01*
X130949448Y-65716332D01*
X130949435Y-65734433D01*
X130500662Y-65734433D01*
X130498157Y-65713337D01*
X130520886Y-65536336D01*
X130586567Y-65379460D01*
X130689425Y-65248466D01*
X130823688Y-65149110D01*
X130983579Y-65087149D01*
X131145300Y-65068115D01*
X131326288Y-65091378D01*
X131486061Y-65157975D01*
X131618924Y-65263119D01*
X131719183Y-65402023D01*
X131781141Y-65569900D01*
X131788880Y-65609131D01*
X131806698Y-65714700D01*
X132047499Y-65798703D01*
X132750631Y-66023002D01*
X133477922Y-66213346D01*
X134233962Y-66370738D01*
X135023340Y-66496180D01*
X135526800Y-66557832D01*
X135706677Y-66573422D01*
X135928524Y-66586070D01*
X136183597Y-66595776D01*
X136463151Y-66602541D01*
X136758442Y-66606364D01*
X137060724Y-66607245D01*
X137361254Y-66605185D01*
X137651287Y-66600183D01*
X137922078Y-66592239D01*
X138164882Y-66581353D01*
X138370956Y-66567526D01*
X138473200Y-66557832D01*
X139270745Y-66453901D01*
X140031676Y-66320191D01*
X140761360Y-66155533D01*
X141465161Y-65958755D01*
X141952500Y-65798760D01*
X142193301Y-65714700D01*
X142199112Y-65680266D01*
X142650694Y-65680266D01*
X142652181Y-65770797D01*
X142691838Y-65844117D01*
X142758377Y-65894602D01*
X142840507Y-65916629D01*
X142926938Y-65904574D01*
X143003290Y-65855902D01*
X143040268Y-65788490D01*
X143050280Y-65714700D01*
X143030731Y-65620935D01*
X142979668Y-65555377D01*
X142908463Y-65519004D01*
X142828491Y-65512797D01*
X142751124Y-65537736D01*
X142687737Y-65594801D01*
X142650694Y-65680266D01*
X142199112Y-65680266D01*
X142211119Y-65609131D01*
X142264134Y-65435572D01*
X142356678Y-65290098D01*
X142483203Y-65177366D01*
X142638160Y-65102036D01*
X142816003Y-65068766D01*
X142856062Y-65067557D01*
X143027877Y-65089141D01*
G37*
X143027877Y-65089141D02*
X143177224Y-65150535D01*
X143301325Y-65244717D01*
X143397404Y-65364669D01*
X143462680Y-65503370D01*
X143494375Y-65653801D01*
X143489712Y-65808940D01*
X143445912Y-65961768D01*
X143360196Y-66105265D01*
X143295075Y-66176812D01*
X143149915Y-66283282D01*
X142989107Y-66344768D01*
X142820816Y-66360786D01*
X142653209Y-66330852D01*
X142494450Y-66254480D01*
X142455291Y-66226699D01*
X142346700Y-66143832D01*
X141902200Y-66288887D01*
X141632701Y-66373920D01*
X141347940Y-66458575D01*
X141062652Y-66538741D01*
X140791572Y-66610310D01*
X140549432Y-66669173D01*
X140492500Y-66682008D01*
X140395750Y-66704830D01*
X140318505Y-66725729D01*
X140274002Y-66741038D01*
X140269168Y-66743859D01*
X140268777Y-66771429D01*
X140276804Y-66838578D01*
X140291404Y-66935136D01*
X140310734Y-67050929D01*
X140332950Y-67175785D01*
X140356208Y-67299532D01*
X140378664Y-67411997D01*
X140398475Y-67503007D01*
X140413796Y-67562390D01*
X140420614Y-67579397D01*
X140446772Y-67577639D01*
X140515376Y-67566839D01*
X140619142Y-67548318D01*
X140750783Y-67523394D01*
X140903015Y-67493389D01*
X140969397Y-67479983D01*
X141167205Y-67440629D01*
X141321789Y-67412560D01*
X141439425Y-67395658D01*
X141526393Y-67389798D01*
X141588968Y-67394860D01*
X141633430Y-67410723D01*
X141666055Y-67437263D01*
X141687820Y-67466055D01*
X141702423Y-67505068D01*
X141725388Y-67587600D01*
X141755227Y-67707333D01*
X141790448Y-67857950D01*
X141829564Y-68033135D01*
X141871083Y-68226569D01*
X141900490Y-68368034D01*
X141941790Y-68567764D01*
X141980395Y-68751384D01*
X142015022Y-68913023D01*
X142044388Y-69046810D01*
X142067208Y-69146877D01*
X142082199Y-69207352D01*
X142087490Y-69223156D01*
X142117973Y-69226449D01*
X142184382Y-69221345D01*
X142272740Y-69208954D01*
X142278691Y-69207960D01*
X142493389Y-69194988D01*
X142695605Y-69228034D01*
X142879650Y-69304205D01*
X143039833Y-69420604D01*
X143170465Y-69574338D01*
X143238360Y-69696214D01*
X143278435Y-69793013D01*
X143300850Y-69879545D01*
X143310277Y-69978911D01*
X143311650Y-70058634D01*
X143309053Y-70171833D01*
X143297581Y-70256926D01*
X143272206Y-70336463D01*
X143228416Y-70431947D01*
X143118164Y-70605765D01*
X142978138Y-70744275D01*
X142814535Y-70841605D01*
X142782236Y-70854608D01*
X142707797Y-70877710D01*
X142592792Y-70907436D01*
X142445236Y-70942186D01*
X142273143Y-70980362D01*
X142084527Y-71020366D01*
X141887403Y-71060598D01*
X141689785Y-71099460D01*
X141499687Y-71135354D01*
X141325125Y-71166680D01*
X141174112Y-71191839D01*
X141054663Y-71209234D01*
X140974792Y-71217265D01*
X140962400Y-71217622D01*
X140772053Y-71195143D01*
X140591780Y-71130552D01*
X140429813Y-71029868D01*
X140294380Y-70899115D01*
X140193711Y-70744311D01*
X140147379Y-70621352D01*
X140137142Y-70577443D01*
X140117844Y-70488857D01*
X140090552Y-70360695D01*
X140067600Y-70251606D01*
X140516787Y-70251606D01*
X140517691Y-70297040D01*
X140536053Y-70374266D01*
X140557493Y-70454834D01*
X140617262Y-70587032D01*
X140717301Y-70697041D01*
X140769647Y-70733969D01*
X140860321Y-70766744D01*
X140981695Y-70779146D01*
X141117507Y-70770178D01*
X141178300Y-70759060D01*
X141229590Y-70741738D01*
X141248460Y-70709209D01*
X141248125Y-70654115D01*
X141215894Y-70486727D01*
X141147805Y-70354426D01*
X141046751Y-70259447D01*
X140915620Y-70204023D01*
X140757305Y-70190390D01*
X140662090Y-70201093D01*
X140584659Y-70214130D01*
X140537667Y-70227469D01*
X140516787Y-70251606D01*
X140067600Y-70251606D01*
X140056333Y-70198057D01*
X140016256Y-70006047D01*
X139971387Y-69789766D01*
X139922794Y-69554315D01*
X139871544Y-69304797D01*
X139854893Y-69223478D01*
X139802003Y-68964227D01*
X140259470Y-68964227D01*
X140262219Y-68988496D01*
X140274048Y-69052273D01*
X140292793Y-69145526D01*
X140316292Y-69258222D01*
X140342382Y-69380328D01*
X140368901Y-69501813D01*
X140393685Y-69612644D01*
X140414572Y-69702789D01*
X140429399Y-69762214D01*
X140435548Y-69781015D01*
X140464637Y-69782462D01*
X140527377Y-69774052D01*
X140582351Y-69763423D01*
X140797513Y-69741029D01*
X141001139Y-69765649D01*
X141188208Y-69833914D01*
X141353699Y-69942456D01*
X141492592Y-70087907D01*
X141599866Y-70266900D01*
X141670500Y-70476068D01*
X141674887Y-70496250D01*
X141699556Y-70583013D01*
X141727479Y-70625863D01*
X141738622Y-70629600D01*
X141774517Y-70624593D01*
X141851056Y-70610734D01*
X141959202Y-70589763D01*
X142089914Y-70563423D01*
X142194687Y-70541742D01*
X142339705Y-70509847D01*
X142471838Y-70477887D01*
X142581033Y-70448516D01*
X142657241Y-70424384D01*
X142685077Y-70412331D01*
X142787112Y-70324560D01*
X142853775Y-70209429D01*
X142881674Y-70079048D01*
X142867413Y-69945527D01*
X142837283Y-69869086D01*
X142764154Y-69761285D01*
X142672425Y-69688972D01*
X142556433Y-69650427D01*
X142410512Y-69643930D01*
X142228998Y-69667759D01*
X142196117Y-69674304D01*
X142052366Y-69702350D01*
X141940172Y-69716514D01*
X141854054Y-69711936D01*
X141788529Y-69683760D01*
X141738115Y-69627127D01*
X141697329Y-69537180D01*
X141660688Y-69409063D01*
X141622711Y-69237916D01*
X141604686Y-69150281D01*
X141514306Y-68707124D01*
X140889103Y-68834642D01*
X140718296Y-68869525D01*
X140564928Y-68900931D01*
X140435710Y-68927479D01*
X140337352Y-68947789D01*
X140276567Y-68960478D01*
X140259470Y-68964227D01*
X139802003Y-68964227D01*
X139795371Y-68931719D01*
X139745618Y-68685579D01*
X139704932Y-68480965D01*
X139672613Y-68313785D01*
X139647959Y-68179948D01*
X139641937Y-68144347D01*
X140089517Y-68144347D01*
X140095955Y-68208828D01*
X140110621Y-68291817D01*
X140130328Y-68378898D01*
X140151891Y-68455656D01*
X140172126Y-68507674D01*
X140184859Y-68521801D01*
X140216841Y-68517051D01*
X140291262Y-68503503D01*
X140400797Y-68482570D01*
X140538121Y-68455665D01*
X140695910Y-68424200D01*
X140797300Y-68403730D01*
X140963507Y-68369415D01*
X141113182Y-68337351D01*
X141239088Y-68309184D01*
X141333986Y-68286559D01*
X141390639Y-68271122D01*
X141403277Y-68265981D01*
X141409650Y-68233126D01*
X141405986Y-68166643D01*
X141394879Y-68082113D01*
X141378923Y-67995111D01*
X141360714Y-67921216D01*
X141342848Y-67876006D01*
X141337301Y-67869930D01*
X141307701Y-67871135D01*
X141236770Y-67881259D01*
X141132872Y-67898669D01*
X141004368Y-67921731D01*
X140859620Y-67948810D01*
X140706990Y-67978272D01*
X140554840Y-68008484D01*
X140411531Y-68037812D01*
X140285426Y-68064621D01*
X140184886Y-68087278D01*
X140118274Y-68104148D01*
X140094489Y-68112790D01*
X140089517Y-68144347D01*
X139641937Y-68144347D01*
X139630268Y-68075363D01*
X139618841Y-67995937D01*
X139612974Y-67937579D01*
X139611968Y-67896198D01*
X139615121Y-67867702D01*
X139619863Y-67852154D01*
X139669646Y-67787701D01*
X139750111Y-67736211D01*
X139841154Y-67709586D01*
X139863034Y-67708211D01*
X139907044Y-67705260D01*
X139936862Y-67692735D01*
X139953023Y-67663807D01*
X139956065Y-67611647D01*
X139946526Y-67529423D01*
X139924941Y-67410306D01*
X139897218Y-67273463D01*
X139869015Y-67137728D01*
X139843936Y-67018855D01*
X139823957Y-66926076D01*
X139811056Y-66868619D01*
X139807643Y-66855261D01*
X139783686Y-66845000D01*
X139719765Y-66846005D01*
X139612377Y-66858498D01*
X139510548Y-66874022D01*
X139142514Y-66928062D01*
X138752591Y-66975341D01*
X138354618Y-67014661D01*
X137962439Y-67044826D01*
X137589894Y-67064638D01*
X137250825Y-67072900D01*
X137209550Y-67073064D01*
X136796800Y-67073600D01*
X136796800Y-68089600D01*
X137326409Y-68089599D01*
X137518232Y-68091027D01*
X137681856Y-68095123D01*
X137811242Y-68101609D01*
X137900354Y-68110207D01*
X137936781Y-68117753D01*
X137971167Y-68130314D01*
X138000065Y-68144817D01*
X138023954Y-68165491D01*
X138043309Y-68196564D01*
X138058608Y-68242263D01*
X138070328Y-68306818D01*
X138078945Y-68394455D01*
X138084937Y-68509404D01*
X138088780Y-68655893D01*
X138090952Y-68838149D01*
X138091930Y-69060401D01*
X138092190Y-69326877D01*
X138092200Y-69495511D01*
X138092200Y-70700745D01*
X138314450Y-70709622D01*
X138521754Y-70735850D01*
X138698669Y-70798934D01*
X138853189Y-70902458D01*
X138944267Y-70991863D01*
X139057734Y-71147337D01*
X139126926Y-71315796D01*
X139154890Y-71506166D01*
X139154584Y-71607500D01*
X139123595Y-71818762D01*
X139050212Y-72002057D01*
X138934544Y-72157214D01*
X138776699Y-72284066D01*
X138682284Y-72336683D01*
X138512500Y-72420300D01*
X137572100Y-72425401D01*
X137308681Y-72426383D01*
X137091585Y-72426121D01*
X136916347Y-72424495D01*
X136778504Y-72421383D01*
X136673590Y-72416662D01*
X136597142Y-72410212D01*
X136544695Y-72401910D01*
X136525634Y-72396887D01*
X136340823Y-72312271D01*
X136180786Y-72185342D01*
X136050403Y-72020526D01*
X135991677Y-71912300D01*
X135920500Y-71759900D01*
X135919180Y-71450272D01*
X136340562Y-71450272D01*
X136348284Y-71557947D01*
X136351459Y-71584169D01*
X136392573Y-71736619D01*
X136471920Y-71856998D01*
X136586331Y-71942669D01*
X136732637Y-71990998D01*
X136852981Y-72001200D01*
X137000000Y-72001200D01*
X137000000Y-71854181D01*
X136979523Y-71687334D01*
X136919851Y-71550151D01*
X136823617Y-71445802D01*
X136693458Y-71377457D01*
X136582969Y-71352659D01*
X136466538Y-71341934D01*
X136392271Y-71349682D01*
X136352751Y-71383322D01*
X136340562Y-71450272D01*
X135919180Y-71450272D01*
X135913138Y-70034052D01*
X135911822Y-69672428D01*
X135911301Y-69410400D01*
X136365000Y-69410400D01*
X136365000Y-70901839D01*
X136578500Y-70915159D01*
X136784116Y-70944176D01*
X136957543Y-71005893D01*
X137108580Y-71104421D01*
X137175404Y-71165395D01*
X137292961Y-71307210D01*
X137371463Y-71462802D01*
X137415405Y-71643143D01*
X137427665Y-71781247D01*
X137437025Y-72005794D01*
X137923362Y-71996731D01*
X138100824Y-71992702D01*
X138235081Y-71987656D01*
X138333729Y-71980883D01*
X138404363Y-71971672D01*
X138454578Y-71959314D01*
X138490936Y-71943660D01*
X138596336Y-71861798D01*
X138672249Y-71752948D01*
X138714399Y-71629282D01*
X138718511Y-71502971D01*
X138684243Y-71393406D01*
X138634784Y-71322665D01*
X138566082Y-71250090D01*
X138541369Y-71228854D01*
X138500290Y-71197520D01*
X138462146Y-71175614D01*
X138416558Y-71160982D01*
X138353149Y-71151474D01*
X138261541Y-71144939D01*
X138131355Y-71139223D01*
X138103842Y-71138148D01*
X137984191Y-71134589D01*
X137887437Y-71130888D01*
X137811120Y-71122116D01*
X137752778Y-71103341D01*
X137709949Y-71069633D01*
X137680171Y-71016063D01*
X137660983Y-70937700D01*
X137649922Y-70829614D01*
X137644528Y-70686874D01*
X137642338Y-70504551D01*
X137640891Y-70277714D01*
X137640324Y-70209827D01*
X137632948Y-69410400D01*
X136365000Y-69410400D01*
X135911301Y-69410400D01*
X135911198Y-69358769D01*
X135911302Y-69090247D01*
X135912171Y-68864031D01*
X135912576Y-68818735D01*
X136342773Y-68818735D01*
X136344585Y-68897507D01*
X136349790Y-68942832D01*
X136350477Y-68944910D01*
X136363098Y-68955759D01*
X136395106Y-68963923D01*
X136451836Y-68969629D01*
X136538625Y-68973103D01*
X136660811Y-68974571D01*
X136823729Y-68974260D01*
X137005720Y-68972687D01*
X137647700Y-68965900D01*
X137647700Y-68534100D01*
X136352300Y-68534100D01*
X136344757Y-68722222D01*
X136342773Y-68818735D01*
X135912576Y-68818735D01*
X135913842Y-68677292D01*
X135916352Y-68527200D01*
X135919737Y-68410925D01*
X135924034Y-68325638D01*
X135929281Y-68268508D01*
X135935513Y-68236707D01*
X135936563Y-68233878D01*
X135992680Y-68161679D01*
X136086670Y-68112296D01*
X136208997Y-68090308D01*
X136237184Y-68089600D01*
X136339600Y-68089600D01*
X136339600Y-67075901D01*
X136257050Y-67063133D01*
X136196759Y-67056267D01*
X136100997Y-67048078D01*
X135985028Y-67039792D01*
X135907800Y-67035038D01*
X135485077Y-67002009D01*
X135028907Y-66950256D01*
X134552330Y-66881531D01*
X134068388Y-66797586D01*
X133905275Y-66766045D01*
X133771150Y-66740367D01*
X133655270Y-66719988D01*
X133566427Y-66706313D01*
X133513415Y-66700744D01*
X133502543Y-66701789D01*
X133492124Y-66728424D01*
X133470987Y-66793729D01*
X133441903Y-66888218D01*
X133407642Y-67002406D01*
X133370973Y-67126808D01*
X133334665Y-67251938D01*
X133301489Y-67368311D01*
X133274214Y-67466442D01*
X133255609Y-67536844D01*
X133248445Y-67570032D01*
X133248632Y-67571371D01*
X133273337Y-67579206D01*
X133339776Y-67599049D01*
X133440875Y-67628821D01*
X133569560Y-67666442D01*
X133718759Y-67709835D01*
X133786900Y-67729588D01*
X133970434Y-67783530D01*
X134111098Y-67826986D01*
X134215172Y-67862301D01*
X134288937Y-67891822D01*
X134338676Y-67917894D01*
X134370668Y-67942864D01*
X134377450Y-67950148D01*
X134416989Y-68009727D01*
X134434547Y-68063594D01*
X134434600Y-68065788D01*
X134427686Y-68101290D01*
X134408052Y-68179466D01*
X134377360Y-68294269D01*
X134337272Y-68439651D01*
X134289450Y-68609565D01*
X134235556Y-68797965D01*
X134193300Y-68943811D01*
X134136239Y-69140222D01*
X134083991Y-69321030D01*
X134038198Y-69480477D01*
X134000503Y-69612806D01*
X133972547Y-69712258D01*
X133955973Y-69773074D01*
X133952000Y-69789900D01*
X133974191Y-69806157D01*
X134031852Y-69830598D01*
X134098050Y-69853250D01*
X134230174Y-69898896D01*
X134331194Y-69946531D01*
X134420053Y-70006850D01*
X134511503Y-70086615D01*
X134636807Y-70236412D01*
X134723709Y-70410187D01*
X134770185Y-70598133D01*
X134774212Y-70790440D01*
X134733768Y-70977301D01*
X134708254Y-71040645D01*
X134599189Y-71221951D01*
X134454584Y-71373109D01*
X134289578Y-71482086D01*
X134211351Y-71518780D01*
X134143507Y-71540809D01*
X134068155Y-71551619D01*
X133967402Y-71554656D01*
X133913900Y-71554449D01*
X133847175Y-71552998D01*
X133784014Y-71548852D01*
X133717880Y-71540491D01*
X133642236Y-71526397D01*
X133550543Y-71505049D01*
X133436264Y-71474930D01*
X133292862Y-71434518D01*
X133113798Y-71382297D01*
X132897932Y-71318349D01*
X132701440Y-71258988D01*
X132516213Y-71201263D01*
X132349078Y-71147438D01*
X132206859Y-71099775D01*
X132096382Y-71060537D01*
X132024471Y-71031984D01*
X132005094Y-71022412D01*
X131874452Y-70922681D01*
X131756016Y-70789756D01*
X131664393Y-70641188D01*
X131638984Y-70582536D01*
X131617834Y-70522004D01*
X131602037Y-70462499D01*
X131592386Y-70399780D01*
X131589673Y-70329605D01*
X131594692Y-70247731D01*
X131594989Y-70245581D01*
X132024342Y-70245581D01*
X132038186Y-70394250D01*
X132094002Y-70521100D01*
X132183924Y-70616035D01*
X132242900Y-70651254D01*
X132322188Y-70687127D01*
X132406304Y-70718098D01*
X132479762Y-70738614D01*
X132527077Y-70743118D01*
X132532825Y-70741198D01*
X132548023Y-70713164D01*
X132568095Y-70652797D01*
X132577275Y-70618784D01*
X132602229Y-70443323D01*
X132583709Y-70292030D01*
X132522809Y-70166930D01*
X132420623Y-70070046D01*
X132278244Y-70003400D01*
X132238719Y-69992257D01*
X132156051Y-69974351D01*
X132107515Y-69977915D01*
X132078572Y-70009868D01*
X132054684Y-70077130D01*
X132053735Y-70080295D01*
X132024342Y-70245581D01*
X131594989Y-70245581D01*
X131608235Y-70149917D01*
X131631095Y-70031920D01*
X131664066Y-69889499D01*
X131707940Y-69718412D01*
X131763510Y-69514418D01*
X131763891Y-69513066D01*
X132236704Y-69513066D01*
X132261099Y-69535494D01*
X132323060Y-69556004D01*
X132341514Y-69560758D01*
X132548431Y-69637149D01*
X132727951Y-69755984D01*
X132824031Y-69848630D01*
X132948789Y-70019194D01*
X133024860Y-70204118D01*
X133052286Y-70403581D01*
X133031108Y-70617763D01*
X133016473Y-70680400D01*
X132993429Y-70770436D01*
X132977075Y-70838119D01*
X132970275Y-70871477D01*
X132970369Y-70873039D01*
X132994735Y-70880388D01*
X133059824Y-70899380D01*
X133157525Y-70927665D01*
X133279728Y-70962892D01*
X133380500Y-70991857D01*
X133581194Y-71046882D01*
X133741289Y-71084143D01*
X133867560Y-71104213D01*
X133966784Y-71107661D01*
X134045736Y-71095060D01*
X134111193Y-71066980D01*
X134130058Y-71055050D01*
X134241656Y-70952878D01*
X134309474Y-70831328D01*
X134331088Y-70696945D01*
X134309313Y-70571291D01*
X134273145Y-70487206D01*
X134221436Y-70418847D01*
X134146724Y-70361322D01*
X134041549Y-70309743D01*
X133898452Y-70259218D01*
X133779613Y-70224076D01*
X133628942Y-70170112D01*
X133521146Y-70106007D01*
X133459011Y-70033841D01*
X133444036Y-69973601D01*
X133450778Y-69936179D01*
X133469453Y-69858800D01*
X133497773Y-69750277D01*
X133533448Y-69619422D01*
X133567182Y-69499540D01*
X133690293Y-69067980D01*
X133083836Y-68892767D01*
X132916858Y-68845161D01*
X132766447Y-68803497D01*
X132639325Y-68769536D01*
X132542215Y-68745042D01*
X132481839Y-68731778D01*
X132464559Y-68730374D01*
X132453312Y-68758184D01*
X132431236Y-68825734D01*
X132401191Y-68923845D01*
X132366036Y-69043336D01*
X132353600Y-69086599D01*
X132316739Y-69215197D01*
X132283777Y-69329481D01*
X132257761Y-69418935D01*
X132241740Y-69473040D01*
X132239432Y-69480510D01*
X132236704Y-69513066D01*
X131763891Y-69513066D01*
X131831569Y-69273273D01*
X131912911Y-68990736D01*
X131979155Y-68762700D01*
X132065674Y-68465673D01*
X132120576Y-68278375D01*
X132585182Y-68278375D01*
X132585665Y-68281054D01*
X132610084Y-68289166D01*
X132675360Y-68309246D01*
X132773608Y-68338953D01*
X132896943Y-68375944D01*
X133037478Y-68417876D01*
X133187328Y-68462409D01*
X133338609Y-68507200D01*
X133483434Y-68549907D01*
X133613917Y-68588188D01*
X133722174Y-68619700D01*
X133800319Y-68642103D01*
X133817574Y-68646937D01*
X133826795Y-68625336D01*
X133846191Y-68567036D01*
X133871764Y-68484119D01*
X133874724Y-68474211D01*
X133900559Y-68382428D01*
X133919141Y-68306806D01*
X133926588Y-68263197D01*
X133926600Y-68262367D01*
X133910829Y-68244814D01*
X133861286Y-68220412D01*
X133774621Y-68187968D01*
X133647486Y-68146292D01*
X133476533Y-68094194D01*
X133345071Y-68055555D01*
X133180055Y-68007976D01*
X133030218Y-67965572D01*
X132902794Y-67930326D01*
X132805016Y-67904220D01*
X132744117Y-67889236D01*
X132727859Y-67886400D01*
X132701028Y-67910657D01*
X132668392Y-67980171D01*
X132635204Y-68080049D01*
X132609466Y-68171332D01*
X132591797Y-68241477D01*
X132585182Y-68278375D01*
X132120576Y-68278375D01*
X132139511Y-68213779D01*
X132202280Y-68003403D01*
X132255592Y-67830931D01*
X132301060Y-67692746D01*
X132340297Y-67585236D01*
X132374916Y-67504785D01*
X132406529Y-67447779D01*
X132436749Y-67410602D01*
X132467189Y-67389640D01*
X132499461Y-67381278D01*
X132535179Y-67381902D01*
X132575954Y-67387897D01*
X132591338Y-67390531D01*
X132671310Y-67404797D01*
X132730404Y-67412203D01*
X132773996Y-67406727D01*
X132807456Y-67382349D01*
X132836160Y-67333047D01*
X132865479Y-67252800D01*
X132900787Y-67135587D01*
X132940408Y-66999371D01*
X132980105Y-66862513D01*
X133013694Y-66743901D01*
X133038973Y-66651542D01*
X133053741Y-66593442D01*
X133056504Y-66577004D01*
X133031211Y-66568645D01*
X132965633Y-66549084D01*
X132868399Y-66520842D01*
X132748135Y-66486435D01*
X132682000Y-66467689D01*
X132513582Y-66418696D01*
X132325643Y-66361773D01*
X132140876Y-66303910D01*
X131981972Y-66252099D01*
X131978937Y-66251080D01*
X131644175Y-66138549D01*
X131597937Y-66190574D01*
X131508644Y-66261125D01*
X131386482Y-66317466D01*
X131248802Y-66353039D01*
X131143937Y-66362151D01*
X130966452Y-66339096D01*
X130809401Y-66273111D01*
X130678424Y-66169863D01*
X130579164Y-66035020D01*
X130517262Y-65874251D01*
X130500662Y-65734433D01*
X130949435Y-65734433D01*
X130972412Y-65825340D01*
X131027826Y-65887281D01*
X131104301Y-65917001D01*
X131190461Y-65911244D01*
X131274930Y-65866753D01*
X131306396Y-65836599D01*
X131348398Y-65772426D01*
X131352688Y-65705195D01*
X131350544Y-65693172D01*
X131312104Y-65597715D01*
X131249302Y-65537039D01*
X131172984Y-65510029D01*
X131093994Y-65515569D01*
X131023178Y-65552543D01*
X130971381Y-65619836D01*
X130949448Y-65716332D01*
X130949435Y-65734433D01*
X130500662Y-65734433D01*
X130498157Y-65713337D01*
X130520886Y-65536336D01*
X130586567Y-65379460D01*
X130689425Y-65248466D01*
X130823688Y-65149110D01*
X130983579Y-65087149D01*
X131145300Y-65068115D01*
X131326288Y-65091378D01*
X131486061Y-65157975D01*
X131618924Y-65263119D01*
X131719183Y-65402023D01*
X131781141Y-65569900D01*
X131788880Y-65609131D01*
X131806698Y-65714700D01*
X132047499Y-65798703D01*
X132750631Y-66023002D01*
X133477922Y-66213346D01*
X134233962Y-66370738D01*
X135023340Y-66496180D01*
X135526800Y-66557832D01*
X135706677Y-66573422D01*
X135928524Y-66586070D01*
X136183597Y-66595776D01*
X136463151Y-66602541D01*
X136758442Y-66606364D01*
X137060724Y-66607245D01*
X137361254Y-66605185D01*
X137651287Y-66600183D01*
X137922078Y-66592239D01*
X138164882Y-66581353D01*
X138370956Y-66567526D01*
X138473200Y-66557832D01*
X139270745Y-66453901D01*
X140031676Y-66320191D01*
X140761360Y-66155533D01*
X141465161Y-65958755D01*
X141952500Y-65798760D01*
X142193301Y-65714700D01*
X142199112Y-65680266D01*
X142650694Y-65680266D01*
X142652181Y-65770797D01*
X142691838Y-65844117D01*
X142758377Y-65894602D01*
X142840507Y-65916629D01*
X142926938Y-65904574D01*
X143003290Y-65855902D01*
X143040268Y-65788490D01*
X143050280Y-65714700D01*
X143030731Y-65620935D01*
X142979668Y-65555377D01*
X142908463Y-65519004D01*
X142828491Y-65512797D01*
X142751124Y-65537736D01*
X142687737Y-65594801D01*
X142650694Y-65680266D01*
X142199112Y-65680266D01*
X142211119Y-65609131D01*
X142264134Y-65435572D01*
X142356678Y-65290098D01*
X142483203Y-65177366D01*
X142638160Y-65102036D01*
X142816003Y-65068766D01*
X142856062Y-65067557D01*
X143027877Y-65089141D01*
%TD*%
D12*
%TO.C,SW1*%
X104170000Y-101250000D03*
X104170000Y-98250000D03*
%TD*%
D13*
%TO.C,D1*%
X110700000Y-86875000D03*
X112800000Y-86875000D03*
X110700000Y-88125000D03*
X112800000Y-88125000D03*
%TD*%
%TO.C,D2*%
X124550000Y-75375000D03*
X122450000Y-75375000D03*
X124550000Y-74125000D03*
X122450000Y-74125000D03*
%TD*%
%TO.C,D3*%
X153450000Y-73625000D03*
X155550000Y-73625000D03*
X153450000Y-74875000D03*
X155550000Y-74875000D03*
%TD*%
%TO.C,D4*%
X131800000Y-109625000D03*
X129700000Y-109625000D03*
X131800000Y-108375000D03*
X129700000Y-108375000D03*
%TD*%
%TO.C,D5*%
X115950000Y-114375000D03*
X118050000Y-114375000D03*
X115950000Y-115625000D03*
X118050000Y-115625000D03*
%TD*%
%TO.C,D6*%
X117300000Y-101875000D03*
X115200000Y-101875000D03*
X117300000Y-100625000D03*
X115200000Y-100625000D03*
%TD*%
%TO.C,D7*%
X142200000Y-129125000D03*
X144300000Y-129125000D03*
X142200000Y-130375000D03*
X144300000Y-130375000D03*
%TD*%
%TO.C,D8*%
X160300000Y-111375000D03*
X158200000Y-111375000D03*
X160300000Y-110125000D03*
X158200000Y-110125000D03*
%TD*%
%TO.C,D9*%
X133450000Y-73625000D03*
X135550000Y-73625000D03*
X133450000Y-74875000D03*
X135550000Y-74875000D03*
%TD*%
%TO.C,D10*%
X147050000Y-103625000D03*
X144950000Y-103625000D03*
X147050000Y-102375000D03*
X144950000Y-102375000D03*
%TD*%
%TO.C,D11*%
X125950000Y-126125000D03*
X128050000Y-126125000D03*
X125950000Y-127375000D03*
X128050000Y-127375000D03*
%TD*%
M02*
