M48
; DRILL file {KiCad (5.1.10)-1} date 10/17/21 16:42:46
; FORMAT={-:-/ absolute / inch / decimal}
; #@! TF.CreationDate,2021-10-17T16:42:46+02:00
; #@! TF.GenerationSoftware,Kicad,Pcbnew,(5.1.10)-1
; #@! TF.FileFunction,Plated,1,2,PTH
FMAT,2
INCH
T1C0.0157
%
G90
G05
T1
X4.3209Y-3.4449
X4.3504Y-4.4094
X4.4291Y-4.6457
X4.4783Y-3.4449
X4.498Y-3.9862
X4.5079Y-4.4094
X4.6457Y-4.3406
X4.6555Y-3.9862
X4.7343Y-3.3071
X4.7343Y-4.1437
X4.7835Y-2.9429
X4.8031Y-5.0984
X4.9409Y-2.9429
X4.9705Y-3.6713
X5.0Y-3.9961
X5.0591Y-4.065
X5.1476Y-2.8839
X5.2165Y-2.9232
X5.2165Y-4.065
X5.2953Y-5.2264
X5.3051Y-5.128
X5.374Y-2.9232
X5.4134Y-3.7008
X5.4331Y-4.4193
X5.4626Y-5.128
X5.5709Y-3.7008
X5.6299Y-3.9272
X5.6693Y-4.0551
X5.7874Y-4.2618
X5.8268Y-4.0551
X5.8957Y-4.6063
X6.0039Y-2.9232
X6.1122Y-3.8484
X6.1319Y-3.0217
X6.1614Y-2.9232
X6.1909Y-4.3602
X6.2106Y-3.5433
X6.3484Y-4.3602
X6.3484Y-4.6161
X6.4961Y-4.1437
T0
M30
