%TF.GenerationSoftware,KiCad,Pcbnew,(5.1.10)-1*%
%TF.CreationDate,2021-10-17T16:42:44+02:00*%
%TF.ProjectId,TVZ_kuglica,54565a5f-6b75-4676-9c69-63612e6b6963,rev?*%
%TF.SameCoordinates,Original*%
%TF.FileFunction,Paste,Top*%
%TF.FilePolarity,Positive*%
%FSLAX46Y46*%
G04 Gerber Fmt 4.6, Leading zero omitted, Abs format (unit mm)*
G04 Created by KiCad (PCBNEW (5.1.10)-1) date 2021-10-17 16:42:44*
%MOMM*%
%LPD*%
G01*
G04 APERTURE LIST*
%ADD10R,1.100000X0.750000*%
G04 APERTURE END LIST*
D10*
%TO.C,D1*%
X110700000Y-86875000D03*
X112800000Y-86875000D03*
X110700000Y-88125000D03*
X112800000Y-88125000D03*
%TD*%
%TO.C,D2*%
X124550000Y-75375000D03*
X122450000Y-75375000D03*
X124550000Y-74125000D03*
X122450000Y-74125000D03*
%TD*%
%TO.C,D3*%
X153450000Y-73625000D03*
X155550000Y-73625000D03*
X153450000Y-74875000D03*
X155550000Y-74875000D03*
%TD*%
%TO.C,D4*%
X131550000Y-103875000D03*
X129450000Y-103875000D03*
X131550000Y-102625000D03*
X129450000Y-102625000D03*
%TD*%
%TO.C,D5*%
X111450000Y-111375000D03*
X113550000Y-111375000D03*
X111450000Y-112625000D03*
X113550000Y-112625000D03*
%TD*%
%TO.C,D6*%
X117300000Y-101875000D03*
X115200000Y-101875000D03*
X117300000Y-100625000D03*
X115200000Y-100625000D03*
%TD*%
%TO.C,D8*%
X160300000Y-111375000D03*
X158200000Y-111375000D03*
X160300000Y-110125000D03*
X158200000Y-110125000D03*
%TD*%
%TO.C,D9*%
X133450000Y-73625000D03*
X135550000Y-73625000D03*
X133450000Y-74875000D03*
X135550000Y-74875000D03*
%TD*%
%TO.C,D10*%
X147050000Y-103625000D03*
X144950000Y-103625000D03*
X147050000Y-102375000D03*
X144950000Y-102375000D03*
%TD*%
%TO.C,D7*%
X135700000Y-129625000D03*
X137800000Y-129625000D03*
X135700000Y-130875000D03*
X137800000Y-130875000D03*
%TD*%
%TO.C,D11*%
X138450000Y-93375000D03*
X140550000Y-93375000D03*
X138450000Y-94625000D03*
X140550000Y-94625000D03*
%TD*%
M02*
