%TF.GenerationSoftware,KiCad,Pcbnew,(5.1.10)-1*%
%TF.CreationDate,2021-10-17T13:13:45+02:00*%
%TF.ProjectId,TVZ_kuglica,54565a5f-6b75-4676-9c69-63612e6b6963,rev?*%
%TF.SameCoordinates,Original*%
%TF.FileFunction,Soldermask,Top*%
%TF.FilePolarity,Negative*%
%FSLAX46Y46*%
G04 Gerber Fmt 4.6, Leading zero omitted, Abs format (unit mm)*
G04 Created by KiCad (PCBNEW (5.1.10)-1) date 2021-10-17 13:13:45*
%MOMM*%
%LPD*%
G01*
G04 APERTURE LIST*
%ADD10C,0.100000*%
%ADD11C,0.700000*%
%ADD12C,0.010000*%
%ADD13C,0.900000*%
%ADD14R,1.100000X0.750000*%
G04 APERTURE END LIST*
D10*
G36*
X139000000Y-87000000D02*
G01*
X134500000Y-87000000D01*
X134500000Y-98500000D01*
X129500000Y-98500000D01*
X129500000Y-87000000D01*
X125000000Y-87000000D01*
X125000000Y-83000000D01*
X139000000Y-83000000D01*
X139000000Y-87000000D01*
G37*
X139000000Y-87000000D02*
X134500000Y-87000000D01*
X134500000Y-98500000D01*
X129500000Y-98500000D01*
X129500000Y-87000000D01*
X125000000Y-87000000D01*
X125000000Y-83000000D01*
X139000000Y-83000000D01*
X139000000Y-87000000D01*
D11*
X109500000Y-120250000D02*
X112000000Y-122750000D01*
X109250000Y-120500000D02*
X109500000Y-120250000D01*
X109500000Y-117750000D02*
X108250000Y-119000000D01*
X162000000Y-122750000D02*
X164500000Y-120250000D01*
X152000000Y-120250000D02*
X149500000Y-117750000D01*
X157000000Y-120250000D02*
X154500000Y-117750000D01*
X165750000Y-119000000D02*
X164500000Y-117750000D01*
X164500000Y-117750000D02*
X162000000Y-120250000D01*
X112000000Y-122750000D02*
X114500000Y-120250000D01*
X144500000Y-120250000D02*
X147000000Y-122750000D01*
X159500000Y-120250000D02*
X162000000Y-122750000D01*
X142000000Y-120250000D02*
X139500000Y-117750000D01*
X142000000Y-122750000D02*
X144500000Y-120250000D01*
X137000000Y-122750000D02*
X139500000Y-120250000D01*
X119500000Y-117750000D02*
X117000000Y-120250000D01*
X134500000Y-117750000D02*
X132000000Y-120250000D01*
X162000000Y-120250000D02*
X159500000Y-117750000D01*
X159500000Y-117750000D02*
X157000000Y-120250000D01*
X117000000Y-122750000D02*
X119500000Y-120250000D01*
X157000000Y-122750000D02*
X159500000Y-120250000D01*
X129500000Y-120250000D02*
X132000000Y-122750000D01*
X154500000Y-120250000D02*
X157000000Y-122750000D01*
X134500000Y-120250000D02*
X137000000Y-122750000D01*
X124500000Y-120250000D02*
X127000000Y-122750000D01*
X132000000Y-122750000D02*
X134500000Y-120250000D01*
X119500000Y-120250000D02*
X122000000Y-122750000D01*
X147000000Y-120250000D02*
X144500000Y-117750000D01*
X154500000Y-117750000D02*
X152000000Y-120250000D01*
X139500000Y-117750000D02*
X137000000Y-120250000D01*
X129500000Y-117750000D02*
X127000000Y-120250000D01*
X152000000Y-122750000D02*
X154500000Y-120250000D01*
X149500000Y-120250000D02*
X152000000Y-122750000D01*
X117000000Y-120250000D02*
X114500000Y-117750000D01*
X114500000Y-117750000D02*
X112000000Y-120250000D01*
X147000000Y-122750000D02*
X149500000Y-120250000D01*
X114500000Y-120250000D02*
X117000000Y-122750000D01*
X127000000Y-120250000D02*
X124500000Y-117750000D01*
X112000000Y-120250000D02*
X109500000Y-117750000D01*
X122000000Y-120250000D02*
X119500000Y-117750000D01*
X137000000Y-120250000D02*
X134500000Y-117750000D01*
X149500000Y-117750000D02*
X147000000Y-120250000D01*
X124500000Y-117750000D02*
X122000000Y-120250000D01*
X144500000Y-117750000D02*
X142000000Y-120250000D01*
X122000000Y-122750000D02*
X124500000Y-120250000D01*
X132000000Y-120250000D02*
X129500000Y-117750000D01*
X139500000Y-120250000D02*
X142000000Y-122750000D01*
X164500000Y-120250000D02*
X164750000Y-120500000D01*
X127000000Y-122750000D02*
X129500000Y-120250000D01*
D10*
G36*
X172250000Y-85750000D02*
G01*
X164750000Y-94500000D01*
X172250000Y-94500000D01*
X172250000Y-98500000D01*
X157750000Y-98500000D01*
X157750000Y-95250000D01*
X165000000Y-87000000D01*
X158000000Y-87000000D01*
X158000000Y-83000000D01*
X172250000Y-83000000D01*
X172250000Y-85750000D01*
G37*
X172250000Y-85750000D02*
X164750000Y-94500000D01*
X172250000Y-94500000D01*
X172250000Y-98500000D01*
X157750000Y-98500000D01*
X157750000Y-95250000D01*
X165000000Y-87000000D01*
X158000000Y-87000000D01*
X158000000Y-83000000D01*
X172250000Y-83000000D01*
X172250000Y-85750000D01*
G36*
X148500000Y-92750000D02*
G01*
X151750000Y-83000000D01*
X157000000Y-83000000D01*
X151000000Y-98500000D01*
X145750000Y-98500000D01*
X140000000Y-83000000D01*
X145500000Y-83000000D01*
X148500000Y-92750000D01*
G37*
X148500000Y-92750000D02*
X151750000Y-83000000D01*
X157000000Y-83000000D01*
X151000000Y-98500000D01*
X145750000Y-98500000D01*
X140000000Y-83000000D01*
X145500000Y-83000000D01*
X148500000Y-92750000D01*
D12*
%TO.C,G\u002A\u002A\u002A*%
G36*
X143027877Y-65089141D02*
G01*
X143177224Y-65150535D01*
X143301325Y-65244717D01*
X143397404Y-65364669D01*
X143462680Y-65503370D01*
X143494375Y-65653801D01*
X143489712Y-65808940D01*
X143445912Y-65961768D01*
X143360196Y-66105265D01*
X143295075Y-66176812D01*
X143149915Y-66283282D01*
X142989107Y-66344768D01*
X142820816Y-66360786D01*
X142653209Y-66330852D01*
X142494450Y-66254480D01*
X142455291Y-66226699D01*
X142346700Y-66143832D01*
X141902200Y-66288887D01*
X141632701Y-66373920D01*
X141347940Y-66458575D01*
X141062652Y-66538741D01*
X140791572Y-66610310D01*
X140549432Y-66669173D01*
X140492500Y-66682008D01*
X140395750Y-66704830D01*
X140318505Y-66725729D01*
X140274002Y-66741038D01*
X140269168Y-66743859D01*
X140268777Y-66771429D01*
X140276804Y-66838578D01*
X140291404Y-66935136D01*
X140310734Y-67050929D01*
X140332950Y-67175785D01*
X140356208Y-67299532D01*
X140378664Y-67411997D01*
X140398475Y-67503007D01*
X140413796Y-67562390D01*
X140420614Y-67579397D01*
X140446772Y-67577639D01*
X140515376Y-67566839D01*
X140619142Y-67548318D01*
X140750783Y-67523394D01*
X140903015Y-67493389D01*
X140969397Y-67479983D01*
X141167205Y-67440629D01*
X141321789Y-67412560D01*
X141439425Y-67395658D01*
X141526393Y-67389798D01*
X141588968Y-67394860D01*
X141633430Y-67410723D01*
X141666055Y-67437263D01*
X141687820Y-67466055D01*
X141702423Y-67505068D01*
X141725388Y-67587600D01*
X141755227Y-67707333D01*
X141790448Y-67857950D01*
X141829564Y-68033135D01*
X141871083Y-68226569D01*
X141900490Y-68368034D01*
X141941790Y-68567764D01*
X141980395Y-68751384D01*
X142015022Y-68913023D01*
X142044388Y-69046810D01*
X142067208Y-69146877D01*
X142082199Y-69207352D01*
X142087490Y-69223156D01*
X142117973Y-69226449D01*
X142184382Y-69221345D01*
X142272740Y-69208954D01*
X142278691Y-69207960D01*
X142493389Y-69194988D01*
X142695605Y-69228034D01*
X142879650Y-69304205D01*
X143039833Y-69420604D01*
X143170465Y-69574338D01*
X143238360Y-69696214D01*
X143278435Y-69793013D01*
X143300850Y-69879545D01*
X143310277Y-69978911D01*
X143311650Y-70058634D01*
X143309053Y-70171833D01*
X143297581Y-70256926D01*
X143272206Y-70336463D01*
X143228416Y-70431947D01*
X143118164Y-70605765D01*
X142978138Y-70744275D01*
X142814535Y-70841605D01*
X142782236Y-70854608D01*
X142707797Y-70877710D01*
X142592792Y-70907436D01*
X142445236Y-70942186D01*
X142273143Y-70980362D01*
X142084527Y-71020366D01*
X141887403Y-71060598D01*
X141689785Y-71099460D01*
X141499687Y-71135354D01*
X141325125Y-71166680D01*
X141174112Y-71191839D01*
X141054663Y-71209234D01*
X140974792Y-71217265D01*
X140962400Y-71217622D01*
X140772053Y-71195143D01*
X140591780Y-71130552D01*
X140429813Y-71029868D01*
X140294380Y-70899115D01*
X140193711Y-70744311D01*
X140147379Y-70621352D01*
X140137142Y-70577443D01*
X140117844Y-70488857D01*
X140090552Y-70360695D01*
X140067600Y-70251606D01*
X140516787Y-70251606D01*
X140517691Y-70297040D01*
X140536053Y-70374266D01*
X140557493Y-70454834D01*
X140617262Y-70587032D01*
X140717301Y-70697041D01*
X140769647Y-70733969D01*
X140860321Y-70766744D01*
X140981695Y-70779146D01*
X141117507Y-70770178D01*
X141178300Y-70759060D01*
X141229590Y-70741738D01*
X141248460Y-70709209D01*
X141248125Y-70654115D01*
X141215894Y-70486727D01*
X141147805Y-70354426D01*
X141046751Y-70259447D01*
X140915620Y-70204023D01*
X140757305Y-70190390D01*
X140662090Y-70201093D01*
X140584659Y-70214130D01*
X140537667Y-70227469D01*
X140516787Y-70251606D01*
X140067600Y-70251606D01*
X140056333Y-70198057D01*
X140016256Y-70006047D01*
X139971387Y-69789766D01*
X139922794Y-69554315D01*
X139871544Y-69304797D01*
X139854893Y-69223478D01*
X139802003Y-68964227D01*
X140259470Y-68964227D01*
X140262219Y-68988496D01*
X140274048Y-69052273D01*
X140292793Y-69145526D01*
X140316292Y-69258222D01*
X140342382Y-69380328D01*
X140368901Y-69501813D01*
X140393685Y-69612644D01*
X140414572Y-69702789D01*
X140429399Y-69762214D01*
X140435548Y-69781015D01*
X140464637Y-69782462D01*
X140527377Y-69774052D01*
X140582351Y-69763423D01*
X140797513Y-69741029D01*
X141001139Y-69765649D01*
X141188208Y-69833914D01*
X141353699Y-69942456D01*
X141492592Y-70087907D01*
X141599866Y-70266900D01*
X141670500Y-70476068D01*
X141674887Y-70496250D01*
X141699556Y-70583013D01*
X141727479Y-70625863D01*
X141738622Y-70629600D01*
X141774517Y-70624593D01*
X141851056Y-70610734D01*
X141959202Y-70589763D01*
X142089914Y-70563423D01*
X142194687Y-70541742D01*
X142339705Y-70509847D01*
X142471838Y-70477887D01*
X142581033Y-70448516D01*
X142657241Y-70424384D01*
X142685077Y-70412331D01*
X142787112Y-70324560D01*
X142853775Y-70209429D01*
X142881674Y-70079048D01*
X142867413Y-69945527D01*
X142837283Y-69869086D01*
X142764154Y-69761285D01*
X142672425Y-69688972D01*
X142556433Y-69650427D01*
X142410512Y-69643930D01*
X142228998Y-69667759D01*
X142196117Y-69674304D01*
X142052366Y-69702350D01*
X141940172Y-69716514D01*
X141854054Y-69711936D01*
X141788529Y-69683760D01*
X141738115Y-69627127D01*
X141697329Y-69537180D01*
X141660688Y-69409063D01*
X141622711Y-69237916D01*
X141604686Y-69150281D01*
X141514306Y-68707124D01*
X140889103Y-68834642D01*
X140718296Y-68869525D01*
X140564928Y-68900931D01*
X140435710Y-68927479D01*
X140337352Y-68947789D01*
X140276567Y-68960478D01*
X140259470Y-68964227D01*
X139802003Y-68964227D01*
X139795371Y-68931719D01*
X139745618Y-68685579D01*
X139704932Y-68480965D01*
X139672613Y-68313785D01*
X139647959Y-68179948D01*
X139641937Y-68144347D01*
X140089517Y-68144347D01*
X140095955Y-68208828D01*
X140110621Y-68291817D01*
X140130328Y-68378898D01*
X140151891Y-68455656D01*
X140172126Y-68507674D01*
X140184859Y-68521801D01*
X140216841Y-68517051D01*
X140291262Y-68503503D01*
X140400797Y-68482570D01*
X140538121Y-68455665D01*
X140695910Y-68424200D01*
X140797300Y-68403730D01*
X140963507Y-68369415D01*
X141113182Y-68337351D01*
X141239088Y-68309184D01*
X141333986Y-68286559D01*
X141390639Y-68271122D01*
X141403277Y-68265981D01*
X141409650Y-68233126D01*
X141405986Y-68166643D01*
X141394879Y-68082113D01*
X141378923Y-67995111D01*
X141360714Y-67921216D01*
X141342848Y-67876006D01*
X141337301Y-67869930D01*
X141307701Y-67871135D01*
X141236770Y-67881259D01*
X141132872Y-67898669D01*
X141004368Y-67921731D01*
X140859620Y-67948810D01*
X140706990Y-67978272D01*
X140554840Y-68008484D01*
X140411531Y-68037812D01*
X140285426Y-68064621D01*
X140184886Y-68087278D01*
X140118274Y-68104148D01*
X140094489Y-68112790D01*
X140089517Y-68144347D01*
X139641937Y-68144347D01*
X139630268Y-68075363D01*
X139618841Y-67995937D01*
X139612974Y-67937579D01*
X139611968Y-67896198D01*
X139615121Y-67867702D01*
X139619863Y-67852154D01*
X139669646Y-67787701D01*
X139750111Y-67736211D01*
X139841154Y-67709586D01*
X139863034Y-67708211D01*
X139907044Y-67705260D01*
X139936862Y-67692735D01*
X139953023Y-67663807D01*
X139956065Y-67611647D01*
X139946526Y-67529423D01*
X139924941Y-67410306D01*
X139897218Y-67273463D01*
X139869015Y-67137728D01*
X139843936Y-67018855D01*
X139823957Y-66926076D01*
X139811056Y-66868619D01*
X139807643Y-66855261D01*
X139783686Y-66845000D01*
X139719765Y-66846005D01*
X139612377Y-66858498D01*
X139510548Y-66874022D01*
X139142514Y-66928062D01*
X138752591Y-66975341D01*
X138354618Y-67014661D01*
X137962439Y-67044826D01*
X137589894Y-67064638D01*
X137250825Y-67072900D01*
X137209550Y-67073064D01*
X136796800Y-67073600D01*
X136796800Y-68089600D01*
X137326409Y-68089599D01*
X137518232Y-68091027D01*
X137681856Y-68095123D01*
X137811242Y-68101609D01*
X137900354Y-68110207D01*
X137936781Y-68117753D01*
X137971167Y-68130314D01*
X138000065Y-68144817D01*
X138023954Y-68165491D01*
X138043309Y-68196564D01*
X138058608Y-68242263D01*
X138070328Y-68306818D01*
X138078945Y-68394455D01*
X138084937Y-68509404D01*
X138088780Y-68655893D01*
X138090952Y-68838149D01*
X138091930Y-69060401D01*
X138092190Y-69326877D01*
X138092200Y-69495511D01*
X138092200Y-70700745D01*
X138314450Y-70709622D01*
X138521754Y-70735850D01*
X138698669Y-70798934D01*
X138853189Y-70902458D01*
X138944267Y-70991863D01*
X139057734Y-71147337D01*
X139126926Y-71315796D01*
X139154890Y-71506166D01*
X139154584Y-71607500D01*
X139123595Y-71818762D01*
X139050212Y-72002057D01*
X138934544Y-72157214D01*
X138776699Y-72284066D01*
X138682284Y-72336683D01*
X138512500Y-72420300D01*
X137572100Y-72425401D01*
X137308681Y-72426383D01*
X137091585Y-72426121D01*
X136916347Y-72424495D01*
X136778504Y-72421383D01*
X136673590Y-72416662D01*
X136597142Y-72410212D01*
X136544695Y-72401910D01*
X136525634Y-72396887D01*
X136340823Y-72312271D01*
X136180786Y-72185342D01*
X136050403Y-72020526D01*
X135991677Y-71912300D01*
X135920500Y-71759900D01*
X135919180Y-71450272D01*
X136340562Y-71450272D01*
X136348284Y-71557947D01*
X136351459Y-71584169D01*
X136392573Y-71736619D01*
X136471920Y-71856998D01*
X136586331Y-71942669D01*
X136732637Y-71990998D01*
X136852981Y-72001200D01*
X137000000Y-72001200D01*
X137000000Y-71854181D01*
X136979523Y-71687334D01*
X136919851Y-71550151D01*
X136823617Y-71445802D01*
X136693458Y-71377457D01*
X136582969Y-71352659D01*
X136466538Y-71341934D01*
X136392271Y-71349682D01*
X136352751Y-71383322D01*
X136340562Y-71450272D01*
X135919180Y-71450272D01*
X135913138Y-70034052D01*
X135911822Y-69672428D01*
X135911301Y-69410400D01*
X136365000Y-69410400D01*
X136365000Y-70901839D01*
X136578500Y-70915159D01*
X136784116Y-70944176D01*
X136957543Y-71005893D01*
X137108580Y-71104421D01*
X137175404Y-71165395D01*
X137292961Y-71307210D01*
X137371463Y-71462802D01*
X137415405Y-71643143D01*
X137427665Y-71781247D01*
X137437025Y-72005794D01*
X137923362Y-71996731D01*
X138100824Y-71992702D01*
X138235081Y-71987656D01*
X138333729Y-71980883D01*
X138404363Y-71971672D01*
X138454578Y-71959314D01*
X138490936Y-71943660D01*
X138596336Y-71861798D01*
X138672249Y-71752948D01*
X138714399Y-71629282D01*
X138718511Y-71502971D01*
X138684243Y-71393406D01*
X138634784Y-71322665D01*
X138566082Y-71250090D01*
X138541369Y-71228854D01*
X138500290Y-71197520D01*
X138462146Y-71175614D01*
X138416558Y-71160982D01*
X138353149Y-71151474D01*
X138261541Y-71144939D01*
X138131355Y-71139223D01*
X138103842Y-71138148D01*
X137984191Y-71134589D01*
X137887437Y-71130888D01*
X137811120Y-71122116D01*
X137752778Y-71103341D01*
X137709949Y-71069633D01*
X137680171Y-71016063D01*
X137660983Y-70937700D01*
X137649922Y-70829614D01*
X137644528Y-70686874D01*
X137642338Y-70504551D01*
X137640891Y-70277714D01*
X137640324Y-70209827D01*
X137632948Y-69410400D01*
X136365000Y-69410400D01*
X135911301Y-69410400D01*
X135911198Y-69358769D01*
X135911302Y-69090247D01*
X135912171Y-68864031D01*
X135912576Y-68818735D01*
X136342773Y-68818735D01*
X136344585Y-68897507D01*
X136349790Y-68942832D01*
X136350477Y-68944910D01*
X136363098Y-68955759D01*
X136395106Y-68963923D01*
X136451836Y-68969629D01*
X136538625Y-68973103D01*
X136660811Y-68974571D01*
X136823729Y-68974260D01*
X137005720Y-68972687D01*
X137647700Y-68965900D01*
X137647700Y-68534100D01*
X136352300Y-68534100D01*
X136344757Y-68722222D01*
X136342773Y-68818735D01*
X135912576Y-68818735D01*
X135913842Y-68677292D01*
X135916352Y-68527200D01*
X135919737Y-68410925D01*
X135924034Y-68325638D01*
X135929281Y-68268508D01*
X135935513Y-68236707D01*
X135936563Y-68233878D01*
X135992680Y-68161679D01*
X136086670Y-68112296D01*
X136208997Y-68090308D01*
X136237184Y-68089600D01*
X136339600Y-68089600D01*
X136339600Y-67075901D01*
X136257050Y-67063133D01*
X136196759Y-67056267D01*
X136100997Y-67048078D01*
X135985028Y-67039792D01*
X135907800Y-67035038D01*
X135485077Y-67002009D01*
X135028907Y-66950256D01*
X134552330Y-66881531D01*
X134068388Y-66797586D01*
X133905275Y-66766045D01*
X133771150Y-66740367D01*
X133655270Y-66719988D01*
X133566427Y-66706313D01*
X133513415Y-66700744D01*
X133502543Y-66701789D01*
X133492124Y-66728424D01*
X133470987Y-66793729D01*
X133441903Y-66888218D01*
X133407642Y-67002406D01*
X133370973Y-67126808D01*
X133334665Y-67251938D01*
X133301489Y-67368311D01*
X133274214Y-67466442D01*
X133255609Y-67536844D01*
X133248445Y-67570032D01*
X133248632Y-67571371D01*
X133273337Y-67579206D01*
X133339776Y-67599049D01*
X133440875Y-67628821D01*
X133569560Y-67666442D01*
X133718759Y-67709835D01*
X133786900Y-67729588D01*
X133970434Y-67783530D01*
X134111098Y-67826986D01*
X134215172Y-67862301D01*
X134288937Y-67891822D01*
X134338676Y-67917894D01*
X134370668Y-67942864D01*
X134377450Y-67950148D01*
X134416989Y-68009727D01*
X134434547Y-68063594D01*
X134434600Y-68065788D01*
X134427686Y-68101290D01*
X134408052Y-68179466D01*
X134377360Y-68294269D01*
X134337272Y-68439651D01*
X134289450Y-68609565D01*
X134235556Y-68797965D01*
X134193300Y-68943811D01*
X134136239Y-69140222D01*
X134083991Y-69321030D01*
X134038198Y-69480477D01*
X134000503Y-69612806D01*
X133972547Y-69712258D01*
X133955973Y-69773074D01*
X133952000Y-69789900D01*
X133974191Y-69806157D01*
X134031852Y-69830598D01*
X134098050Y-69853250D01*
X134230174Y-69898896D01*
X134331194Y-69946531D01*
X134420053Y-70006850D01*
X134511503Y-70086615D01*
X134636807Y-70236412D01*
X134723709Y-70410187D01*
X134770185Y-70598133D01*
X134774212Y-70790440D01*
X134733768Y-70977301D01*
X134708254Y-71040645D01*
X134599189Y-71221951D01*
X134454584Y-71373109D01*
X134289578Y-71482086D01*
X134211351Y-71518780D01*
X134143507Y-71540809D01*
X134068155Y-71551619D01*
X133967402Y-71554656D01*
X133913900Y-71554449D01*
X133847175Y-71552998D01*
X133784014Y-71548852D01*
X133717880Y-71540491D01*
X133642236Y-71526397D01*
X133550543Y-71505049D01*
X133436264Y-71474930D01*
X133292862Y-71434518D01*
X133113798Y-71382297D01*
X132897932Y-71318349D01*
X132701440Y-71258988D01*
X132516213Y-71201263D01*
X132349078Y-71147438D01*
X132206859Y-71099775D01*
X132096382Y-71060537D01*
X132024471Y-71031984D01*
X132005094Y-71022412D01*
X131874452Y-70922681D01*
X131756016Y-70789756D01*
X131664393Y-70641188D01*
X131638984Y-70582536D01*
X131617834Y-70522004D01*
X131602037Y-70462499D01*
X131592386Y-70399780D01*
X131589673Y-70329605D01*
X131594692Y-70247731D01*
X131594989Y-70245581D01*
X132024342Y-70245581D01*
X132038186Y-70394250D01*
X132094002Y-70521100D01*
X132183924Y-70616035D01*
X132242900Y-70651254D01*
X132322188Y-70687127D01*
X132406304Y-70718098D01*
X132479762Y-70738614D01*
X132527077Y-70743118D01*
X132532825Y-70741198D01*
X132548023Y-70713164D01*
X132568095Y-70652797D01*
X132577275Y-70618784D01*
X132602229Y-70443323D01*
X132583709Y-70292030D01*
X132522809Y-70166930D01*
X132420623Y-70070046D01*
X132278244Y-70003400D01*
X132238719Y-69992257D01*
X132156051Y-69974351D01*
X132107515Y-69977915D01*
X132078572Y-70009868D01*
X132054684Y-70077130D01*
X132053735Y-70080295D01*
X132024342Y-70245581D01*
X131594989Y-70245581D01*
X131608235Y-70149917D01*
X131631095Y-70031920D01*
X131664066Y-69889499D01*
X131707940Y-69718412D01*
X131763510Y-69514418D01*
X131763891Y-69513066D01*
X132236704Y-69513066D01*
X132261099Y-69535494D01*
X132323060Y-69556004D01*
X132341514Y-69560758D01*
X132548431Y-69637149D01*
X132727951Y-69755984D01*
X132824031Y-69848630D01*
X132948789Y-70019194D01*
X133024860Y-70204118D01*
X133052286Y-70403581D01*
X133031108Y-70617763D01*
X133016473Y-70680400D01*
X132993429Y-70770436D01*
X132977075Y-70838119D01*
X132970275Y-70871477D01*
X132970369Y-70873039D01*
X132994735Y-70880388D01*
X133059824Y-70899380D01*
X133157525Y-70927665D01*
X133279728Y-70962892D01*
X133380500Y-70991857D01*
X133581194Y-71046882D01*
X133741289Y-71084143D01*
X133867560Y-71104213D01*
X133966784Y-71107661D01*
X134045736Y-71095060D01*
X134111193Y-71066980D01*
X134130058Y-71055050D01*
X134241656Y-70952878D01*
X134309474Y-70831328D01*
X134331088Y-70696945D01*
X134309313Y-70571291D01*
X134273145Y-70487206D01*
X134221436Y-70418847D01*
X134146724Y-70361322D01*
X134041549Y-70309743D01*
X133898452Y-70259218D01*
X133779613Y-70224076D01*
X133628942Y-70170112D01*
X133521146Y-70106007D01*
X133459011Y-70033841D01*
X133444036Y-69973601D01*
X133450778Y-69936179D01*
X133469453Y-69858800D01*
X133497773Y-69750277D01*
X133533448Y-69619422D01*
X133567182Y-69499540D01*
X133690293Y-69067980D01*
X133083836Y-68892767D01*
X132916858Y-68845161D01*
X132766447Y-68803497D01*
X132639325Y-68769536D01*
X132542215Y-68745042D01*
X132481839Y-68731778D01*
X132464559Y-68730374D01*
X132453312Y-68758184D01*
X132431236Y-68825734D01*
X132401191Y-68923845D01*
X132366036Y-69043336D01*
X132353600Y-69086599D01*
X132316739Y-69215197D01*
X132283777Y-69329481D01*
X132257761Y-69418935D01*
X132241740Y-69473040D01*
X132239432Y-69480510D01*
X132236704Y-69513066D01*
X131763891Y-69513066D01*
X131831569Y-69273273D01*
X131912911Y-68990736D01*
X131979155Y-68762700D01*
X132065674Y-68465673D01*
X132120576Y-68278375D01*
X132585182Y-68278375D01*
X132585665Y-68281054D01*
X132610084Y-68289166D01*
X132675360Y-68309246D01*
X132773608Y-68338953D01*
X132896943Y-68375944D01*
X133037478Y-68417876D01*
X133187328Y-68462409D01*
X133338609Y-68507200D01*
X133483434Y-68549907D01*
X133613917Y-68588188D01*
X133722174Y-68619700D01*
X133800319Y-68642103D01*
X133817574Y-68646937D01*
X133826795Y-68625336D01*
X133846191Y-68567036D01*
X133871764Y-68484119D01*
X133874724Y-68474211D01*
X133900559Y-68382428D01*
X133919141Y-68306806D01*
X133926588Y-68263197D01*
X133926600Y-68262367D01*
X133910829Y-68244814D01*
X133861286Y-68220412D01*
X133774621Y-68187968D01*
X133647486Y-68146292D01*
X133476533Y-68094194D01*
X133345071Y-68055555D01*
X133180055Y-68007976D01*
X133030218Y-67965572D01*
X132902794Y-67930326D01*
X132805016Y-67904220D01*
X132744117Y-67889236D01*
X132727859Y-67886400D01*
X132701028Y-67910657D01*
X132668392Y-67980171D01*
X132635204Y-68080049D01*
X132609466Y-68171332D01*
X132591797Y-68241477D01*
X132585182Y-68278375D01*
X132120576Y-68278375D01*
X132139511Y-68213779D01*
X132202280Y-68003403D01*
X132255592Y-67830931D01*
X132301060Y-67692746D01*
X132340297Y-67585236D01*
X132374916Y-67504785D01*
X132406529Y-67447779D01*
X132436749Y-67410602D01*
X132467189Y-67389640D01*
X132499461Y-67381278D01*
X132535179Y-67381902D01*
X132575954Y-67387897D01*
X132591338Y-67390531D01*
X132671310Y-67404797D01*
X132730404Y-67412203D01*
X132773996Y-67406727D01*
X132807456Y-67382349D01*
X132836160Y-67333047D01*
X132865479Y-67252800D01*
X132900787Y-67135587D01*
X132940408Y-66999371D01*
X132980105Y-66862513D01*
X133013694Y-66743901D01*
X133038973Y-66651542D01*
X133053741Y-66593442D01*
X133056504Y-66577004D01*
X133031211Y-66568645D01*
X132965633Y-66549084D01*
X132868399Y-66520842D01*
X132748135Y-66486435D01*
X132682000Y-66467689D01*
X132513582Y-66418696D01*
X132325643Y-66361773D01*
X132140876Y-66303910D01*
X131981972Y-66252099D01*
X131978937Y-66251080D01*
X131644175Y-66138549D01*
X131597937Y-66190574D01*
X131508644Y-66261125D01*
X131386482Y-66317466D01*
X131248802Y-66353039D01*
X131143937Y-66362151D01*
X130966452Y-66339096D01*
X130809401Y-66273111D01*
X130678424Y-66169863D01*
X130579164Y-66035020D01*
X130517262Y-65874251D01*
X130500662Y-65734433D01*
X130949435Y-65734433D01*
X130972412Y-65825340D01*
X131027826Y-65887281D01*
X131104301Y-65917001D01*
X131190461Y-65911244D01*
X131274930Y-65866753D01*
X131306396Y-65836599D01*
X131348398Y-65772426D01*
X131352688Y-65705195D01*
X131350544Y-65693172D01*
X131312104Y-65597715D01*
X131249302Y-65537039D01*
X131172984Y-65510029D01*
X131093994Y-65515569D01*
X131023178Y-65552543D01*
X130971381Y-65619836D01*
X130949448Y-65716332D01*
X130949435Y-65734433D01*
X130500662Y-65734433D01*
X130498157Y-65713337D01*
X130520886Y-65536336D01*
X130586567Y-65379460D01*
X130689425Y-65248466D01*
X130823688Y-65149110D01*
X130983579Y-65087149D01*
X131145300Y-65068115D01*
X131326288Y-65091378D01*
X131486061Y-65157975D01*
X131618924Y-65263119D01*
X131719183Y-65402023D01*
X131781141Y-65569900D01*
X131788880Y-65609131D01*
X131806698Y-65714700D01*
X132047499Y-65798703D01*
X132750631Y-66023002D01*
X133477922Y-66213346D01*
X134233962Y-66370738D01*
X135023340Y-66496180D01*
X135526800Y-66557832D01*
X135706677Y-66573422D01*
X135928524Y-66586070D01*
X136183597Y-66595776D01*
X136463151Y-66602541D01*
X136758442Y-66606364D01*
X137060724Y-66607245D01*
X137361254Y-66605185D01*
X137651287Y-66600183D01*
X137922078Y-66592239D01*
X138164882Y-66581353D01*
X138370956Y-66567526D01*
X138473200Y-66557832D01*
X139270745Y-66453901D01*
X140031676Y-66320191D01*
X140761360Y-66155533D01*
X141465161Y-65958755D01*
X141952500Y-65798760D01*
X142193301Y-65714700D01*
X142199112Y-65680266D01*
X142650694Y-65680266D01*
X142652181Y-65770797D01*
X142691838Y-65844117D01*
X142758377Y-65894602D01*
X142840507Y-65916629D01*
X142926938Y-65904574D01*
X143003290Y-65855902D01*
X143040268Y-65788490D01*
X143050280Y-65714700D01*
X143030731Y-65620935D01*
X142979668Y-65555377D01*
X142908463Y-65519004D01*
X142828491Y-65512797D01*
X142751124Y-65537736D01*
X142687737Y-65594801D01*
X142650694Y-65680266D01*
X142199112Y-65680266D01*
X142211119Y-65609131D01*
X142264134Y-65435572D01*
X142356678Y-65290098D01*
X142483203Y-65177366D01*
X142638160Y-65102036D01*
X142816003Y-65068766D01*
X142856062Y-65067557D01*
X143027877Y-65089141D01*
G37*
X143027877Y-65089141D02*
X143177224Y-65150535D01*
X143301325Y-65244717D01*
X143397404Y-65364669D01*
X143462680Y-65503370D01*
X143494375Y-65653801D01*
X143489712Y-65808940D01*
X143445912Y-65961768D01*
X143360196Y-66105265D01*
X143295075Y-66176812D01*
X143149915Y-66283282D01*
X142989107Y-66344768D01*
X142820816Y-66360786D01*
X142653209Y-66330852D01*
X142494450Y-66254480D01*
X142455291Y-66226699D01*
X142346700Y-66143832D01*
X141902200Y-66288887D01*
X141632701Y-66373920D01*
X141347940Y-66458575D01*
X141062652Y-66538741D01*
X140791572Y-66610310D01*
X140549432Y-66669173D01*
X140492500Y-66682008D01*
X140395750Y-66704830D01*
X140318505Y-66725729D01*
X140274002Y-66741038D01*
X140269168Y-66743859D01*
X140268777Y-66771429D01*
X140276804Y-66838578D01*
X140291404Y-66935136D01*
X140310734Y-67050929D01*
X140332950Y-67175785D01*
X140356208Y-67299532D01*
X140378664Y-67411997D01*
X140398475Y-67503007D01*
X140413796Y-67562390D01*
X140420614Y-67579397D01*
X140446772Y-67577639D01*
X140515376Y-67566839D01*
X140619142Y-67548318D01*
X140750783Y-67523394D01*
X140903015Y-67493389D01*
X140969397Y-67479983D01*
X141167205Y-67440629D01*
X141321789Y-67412560D01*
X141439425Y-67395658D01*
X141526393Y-67389798D01*
X141588968Y-67394860D01*
X141633430Y-67410723D01*
X141666055Y-67437263D01*
X141687820Y-67466055D01*
X141702423Y-67505068D01*
X141725388Y-67587600D01*
X141755227Y-67707333D01*
X141790448Y-67857950D01*
X141829564Y-68033135D01*
X141871083Y-68226569D01*
X141900490Y-68368034D01*
X141941790Y-68567764D01*
X141980395Y-68751384D01*
X142015022Y-68913023D01*
X142044388Y-69046810D01*
X142067208Y-69146877D01*
X142082199Y-69207352D01*
X142087490Y-69223156D01*
X142117973Y-69226449D01*
X142184382Y-69221345D01*
X142272740Y-69208954D01*
X142278691Y-69207960D01*
X142493389Y-69194988D01*
X142695605Y-69228034D01*
X142879650Y-69304205D01*
X143039833Y-69420604D01*
X143170465Y-69574338D01*
X143238360Y-69696214D01*
X143278435Y-69793013D01*
X143300850Y-69879545D01*
X143310277Y-69978911D01*
X143311650Y-70058634D01*
X143309053Y-70171833D01*
X143297581Y-70256926D01*
X143272206Y-70336463D01*
X143228416Y-70431947D01*
X143118164Y-70605765D01*
X142978138Y-70744275D01*
X142814535Y-70841605D01*
X142782236Y-70854608D01*
X142707797Y-70877710D01*
X142592792Y-70907436D01*
X142445236Y-70942186D01*
X142273143Y-70980362D01*
X142084527Y-71020366D01*
X141887403Y-71060598D01*
X141689785Y-71099460D01*
X141499687Y-71135354D01*
X141325125Y-71166680D01*
X141174112Y-71191839D01*
X141054663Y-71209234D01*
X140974792Y-71217265D01*
X140962400Y-71217622D01*
X140772053Y-71195143D01*
X140591780Y-71130552D01*
X140429813Y-71029868D01*
X140294380Y-70899115D01*
X140193711Y-70744311D01*
X140147379Y-70621352D01*
X140137142Y-70577443D01*
X140117844Y-70488857D01*
X140090552Y-70360695D01*
X140067600Y-70251606D01*
X140516787Y-70251606D01*
X140517691Y-70297040D01*
X140536053Y-70374266D01*
X140557493Y-70454834D01*
X140617262Y-70587032D01*
X140717301Y-70697041D01*
X140769647Y-70733969D01*
X140860321Y-70766744D01*
X140981695Y-70779146D01*
X141117507Y-70770178D01*
X141178300Y-70759060D01*
X141229590Y-70741738D01*
X141248460Y-70709209D01*
X141248125Y-70654115D01*
X141215894Y-70486727D01*
X141147805Y-70354426D01*
X141046751Y-70259447D01*
X140915620Y-70204023D01*
X140757305Y-70190390D01*
X140662090Y-70201093D01*
X140584659Y-70214130D01*
X140537667Y-70227469D01*
X140516787Y-70251606D01*
X140067600Y-70251606D01*
X140056333Y-70198057D01*
X140016256Y-70006047D01*
X139971387Y-69789766D01*
X139922794Y-69554315D01*
X139871544Y-69304797D01*
X139854893Y-69223478D01*
X139802003Y-68964227D01*
X140259470Y-68964227D01*
X140262219Y-68988496D01*
X140274048Y-69052273D01*
X140292793Y-69145526D01*
X140316292Y-69258222D01*
X140342382Y-69380328D01*
X140368901Y-69501813D01*
X140393685Y-69612644D01*
X140414572Y-69702789D01*
X140429399Y-69762214D01*
X140435548Y-69781015D01*
X140464637Y-69782462D01*
X140527377Y-69774052D01*
X140582351Y-69763423D01*
X140797513Y-69741029D01*
X141001139Y-69765649D01*
X141188208Y-69833914D01*
X141353699Y-69942456D01*
X141492592Y-70087907D01*
X141599866Y-70266900D01*
X141670500Y-70476068D01*
X141674887Y-70496250D01*
X141699556Y-70583013D01*
X141727479Y-70625863D01*
X141738622Y-70629600D01*
X141774517Y-70624593D01*
X141851056Y-70610734D01*
X141959202Y-70589763D01*
X142089914Y-70563423D01*
X142194687Y-70541742D01*
X142339705Y-70509847D01*
X142471838Y-70477887D01*
X142581033Y-70448516D01*
X142657241Y-70424384D01*
X142685077Y-70412331D01*
X142787112Y-70324560D01*
X142853775Y-70209429D01*
X142881674Y-70079048D01*
X142867413Y-69945527D01*
X142837283Y-69869086D01*
X142764154Y-69761285D01*
X142672425Y-69688972D01*
X142556433Y-69650427D01*
X142410512Y-69643930D01*
X142228998Y-69667759D01*
X142196117Y-69674304D01*
X142052366Y-69702350D01*
X141940172Y-69716514D01*
X141854054Y-69711936D01*
X141788529Y-69683760D01*
X141738115Y-69627127D01*
X141697329Y-69537180D01*
X141660688Y-69409063D01*
X141622711Y-69237916D01*
X141604686Y-69150281D01*
X141514306Y-68707124D01*
X140889103Y-68834642D01*
X140718296Y-68869525D01*
X140564928Y-68900931D01*
X140435710Y-68927479D01*
X140337352Y-68947789D01*
X140276567Y-68960478D01*
X140259470Y-68964227D01*
X139802003Y-68964227D01*
X139795371Y-68931719D01*
X139745618Y-68685579D01*
X139704932Y-68480965D01*
X139672613Y-68313785D01*
X139647959Y-68179948D01*
X139641937Y-68144347D01*
X140089517Y-68144347D01*
X140095955Y-68208828D01*
X140110621Y-68291817D01*
X140130328Y-68378898D01*
X140151891Y-68455656D01*
X140172126Y-68507674D01*
X140184859Y-68521801D01*
X140216841Y-68517051D01*
X140291262Y-68503503D01*
X140400797Y-68482570D01*
X140538121Y-68455665D01*
X140695910Y-68424200D01*
X140797300Y-68403730D01*
X140963507Y-68369415D01*
X141113182Y-68337351D01*
X141239088Y-68309184D01*
X141333986Y-68286559D01*
X141390639Y-68271122D01*
X141403277Y-68265981D01*
X141409650Y-68233126D01*
X141405986Y-68166643D01*
X141394879Y-68082113D01*
X141378923Y-67995111D01*
X141360714Y-67921216D01*
X141342848Y-67876006D01*
X141337301Y-67869930D01*
X141307701Y-67871135D01*
X141236770Y-67881259D01*
X141132872Y-67898669D01*
X141004368Y-67921731D01*
X140859620Y-67948810D01*
X140706990Y-67978272D01*
X140554840Y-68008484D01*
X140411531Y-68037812D01*
X140285426Y-68064621D01*
X140184886Y-68087278D01*
X140118274Y-68104148D01*
X140094489Y-68112790D01*
X140089517Y-68144347D01*
X139641937Y-68144347D01*
X139630268Y-68075363D01*
X139618841Y-67995937D01*
X139612974Y-67937579D01*
X139611968Y-67896198D01*
X139615121Y-67867702D01*
X139619863Y-67852154D01*
X139669646Y-67787701D01*
X139750111Y-67736211D01*
X139841154Y-67709586D01*
X139863034Y-67708211D01*
X139907044Y-67705260D01*
X139936862Y-67692735D01*
X139953023Y-67663807D01*
X139956065Y-67611647D01*
X139946526Y-67529423D01*
X139924941Y-67410306D01*
X139897218Y-67273463D01*
X139869015Y-67137728D01*
X139843936Y-67018855D01*
X139823957Y-66926076D01*
X139811056Y-66868619D01*
X139807643Y-66855261D01*
X139783686Y-66845000D01*
X139719765Y-66846005D01*
X139612377Y-66858498D01*
X139510548Y-66874022D01*
X139142514Y-66928062D01*
X138752591Y-66975341D01*
X138354618Y-67014661D01*
X137962439Y-67044826D01*
X137589894Y-67064638D01*
X137250825Y-67072900D01*
X137209550Y-67073064D01*
X136796800Y-67073600D01*
X136796800Y-68089600D01*
X137326409Y-68089599D01*
X137518232Y-68091027D01*
X137681856Y-68095123D01*
X137811242Y-68101609D01*
X137900354Y-68110207D01*
X137936781Y-68117753D01*
X137971167Y-68130314D01*
X138000065Y-68144817D01*
X138023954Y-68165491D01*
X138043309Y-68196564D01*
X138058608Y-68242263D01*
X138070328Y-68306818D01*
X138078945Y-68394455D01*
X138084937Y-68509404D01*
X138088780Y-68655893D01*
X138090952Y-68838149D01*
X138091930Y-69060401D01*
X138092190Y-69326877D01*
X138092200Y-69495511D01*
X138092200Y-70700745D01*
X138314450Y-70709622D01*
X138521754Y-70735850D01*
X138698669Y-70798934D01*
X138853189Y-70902458D01*
X138944267Y-70991863D01*
X139057734Y-71147337D01*
X139126926Y-71315796D01*
X139154890Y-71506166D01*
X139154584Y-71607500D01*
X139123595Y-71818762D01*
X139050212Y-72002057D01*
X138934544Y-72157214D01*
X138776699Y-72284066D01*
X138682284Y-72336683D01*
X138512500Y-72420300D01*
X137572100Y-72425401D01*
X137308681Y-72426383D01*
X137091585Y-72426121D01*
X136916347Y-72424495D01*
X136778504Y-72421383D01*
X136673590Y-72416662D01*
X136597142Y-72410212D01*
X136544695Y-72401910D01*
X136525634Y-72396887D01*
X136340823Y-72312271D01*
X136180786Y-72185342D01*
X136050403Y-72020526D01*
X135991677Y-71912300D01*
X135920500Y-71759900D01*
X135919180Y-71450272D01*
X136340562Y-71450272D01*
X136348284Y-71557947D01*
X136351459Y-71584169D01*
X136392573Y-71736619D01*
X136471920Y-71856998D01*
X136586331Y-71942669D01*
X136732637Y-71990998D01*
X136852981Y-72001200D01*
X137000000Y-72001200D01*
X137000000Y-71854181D01*
X136979523Y-71687334D01*
X136919851Y-71550151D01*
X136823617Y-71445802D01*
X136693458Y-71377457D01*
X136582969Y-71352659D01*
X136466538Y-71341934D01*
X136392271Y-71349682D01*
X136352751Y-71383322D01*
X136340562Y-71450272D01*
X135919180Y-71450272D01*
X135913138Y-70034052D01*
X135911822Y-69672428D01*
X135911301Y-69410400D01*
X136365000Y-69410400D01*
X136365000Y-70901839D01*
X136578500Y-70915159D01*
X136784116Y-70944176D01*
X136957543Y-71005893D01*
X137108580Y-71104421D01*
X137175404Y-71165395D01*
X137292961Y-71307210D01*
X137371463Y-71462802D01*
X137415405Y-71643143D01*
X137427665Y-71781247D01*
X137437025Y-72005794D01*
X137923362Y-71996731D01*
X138100824Y-71992702D01*
X138235081Y-71987656D01*
X138333729Y-71980883D01*
X138404363Y-71971672D01*
X138454578Y-71959314D01*
X138490936Y-71943660D01*
X138596336Y-71861798D01*
X138672249Y-71752948D01*
X138714399Y-71629282D01*
X138718511Y-71502971D01*
X138684243Y-71393406D01*
X138634784Y-71322665D01*
X138566082Y-71250090D01*
X138541369Y-71228854D01*
X138500290Y-71197520D01*
X138462146Y-71175614D01*
X138416558Y-71160982D01*
X138353149Y-71151474D01*
X138261541Y-71144939D01*
X138131355Y-71139223D01*
X138103842Y-71138148D01*
X137984191Y-71134589D01*
X137887437Y-71130888D01*
X137811120Y-71122116D01*
X137752778Y-71103341D01*
X137709949Y-71069633D01*
X137680171Y-71016063D01*
X137660983Y-70937700D01*
X137649922Y-70829614D01*
X137644528Y-70686874D01*
X137642338Y-70504551D01*
X137640891Y-70277714D01*
X137640324Y-70209827D01*
X137632948Y-69410400D01*
X136365000Y-69410400D01*
X135911301Y-69410400D01*
X135911198Y-69358769D01*
X135911302Y-69090247D01*
X135912171Y-68864031D01*
X135912576Y-68818735D01*
X136342773Y-68818735D01*
X136344585Y-68897507D01*
X136349790Y-68942832D01*
X136350477Y-68944910D01*
X136363098Y-68955759D01*
X136395106Y-68963923D01*
X136451836Y-68969629D01*
X136538625Y-68973103D01*
X136660811Y-68974571D01*
X136823729Y-68974260D01*
X137005720Y-68972687D01*
X137647700Y-68965900D01*
X137647700Y-68534100D01*
X136352300Y-68534100D01*
X136344757Y-68722222D01*
X136342773Y-68818735D01*
X135912576Y-68818735D01*
X135913842Y-68677292D01*
X135916352Y-68527200D01*
X135919737Y-68410925D01*
X135924034Y-68325638D01*
X135929281Y-68268508D01*
X135935513Y-68236707D01*
X135936563Y-68233878D01*
X135992680Y-68161679D01*
X136086670Y-68112296D01*
X136208997Y-68090308D01*
X136237184Y-68089600D01*
X136339600Y-68089600D01*
X136339600Y-67075901D01*
X136257050Y-67063133D01*
X136196759Y-67056267D01*
X136100997Y-67048078D01*
X135985028Y-67039792D01*
X135907800Y-67035038D01*
X135485077Y-67002009D01*
X135028907Y-66950256D01*
X134552330Y-66881531D01*
X134068388Y-66797586D01*
X133905275Y-66766045D01*
X133771150Y-66740367D01*
X133655270Y-66719988D01*
X133566427Y-66706313D01*
X133513415Y-66700744D01*
X133502543Y-66701789D01*
X133492124Y-66728424D01*
X133470987Y-66793729D01*
X133441903Y-66888218D01*
X133407642Y-67002406D01*
X133370973Y-67126808D01*
X133334665Y-67251938D01*
X133301489Y-67368311D01*
X133274214Y-67466442D01*
X133255609Y-67536844D01*
X133248445Y-67570032D01*
X133248632Y-67571371D01*
X133273337Y-67579206D01*
X133339776Y-67599049D01*
X133440875Y-67628821D01*
X133569560Y-67666442D01*
X133718759Y-67709835D01*
X133786900Y-67729588D01*
X133970434Y-67783530D01*
X134111098Y-67826986D01*
X134215172Y-67862301D01*
X134288937Y-67891822D01*
X134338676Y-67917894D01*
X134370668Y-67942864D01*
X134377450Y-67950148D01*
X134416989Y-68009727D01*
X134434547Y-68063594D01*
X134434600Y-68065788D01*
X134427686Y-68101290D01*
X134408052Y-68179466D01*
X134377360Y-68294269D01*
X134337272Y-68439651D01*
X134289450Y-68609565D01*
X134235556Y-68797965D01*
X134193300Y-68943811D01*
X134136239Y-69140222D01*
X134083991Y-69321030D01*
X134038198Y-69480477D01*
X134000503Y-69612806D01*
X133972547Y-69712258D01*
X133955973Y-69773074D01*
X133952000Y-69789900D01*
X133974191Y-69806157D01*
X134031852Y-69830598D01*
X134098050Y-69853250D01*
X134230174Y-69898896D01*
X134331194Y-69946531D01*
X134420053Y-70006850D01*
X134511503Y-70086615D01*
X134636807Y-70236412D01*
X134723709Y-70410187D01*
X134770185Y-70598133D01*
X134774212Y-70790440D01*
X134733768Y-70977301D01*
X134708254Y-71040645D01*
X134599189Y-71221951D01*
X134454584Y-71373109D01*
X134289578Y-71482086D01*
X134211351Y-71518780D01*
X134143507Y-71540809D01*
X134068155Y-71551619D01*
X133967402Y-71554656D01*
X133913900Y-71554449D01*
X133847175Y-71552998D01*
X133784014Y-71548852D01*
X133717880Y-71540491D01*
X133642236Y-71526397D01*
X133550543Y-71505049D01*
X133436264Y-71474930D01*
X133292862Y-71434518D01*
X133113798Y-71382297D01*
X132897932Y-71318349D01*
X132701440Y-71258988D01*
X132516213Y-71201263D01*
X132349078Y-71147438D01*
X132206859Y-71099775D01*
X132096382Y-71060537D01*
X132024471Y-71031984D01*
X132005094Y-71022412D01*
X131874452Y-70922681D01*
X131756016Y-70789756D01*
X131664393Y-70641188D01*
X131638984Y-70582536D01*
X131617834Y-70522004D01*
X131602037Y-70462499D01*
X131592386Y-70399780D01*
X131589673Y-70329605D01*
X131594692Y-70247731D01*
X131594989Y-70245581D01*
X132024342Y-70245581D01*
X132038186Y-70394250D01*
X132094002Y-70521100D01*
X132183924Y-70616035D01*
X132242900Y-70651254D01*
X132322188Y-70687127D01*
X132406304Y-70718098D01*
X132479762Y-70738614D01*
X132527077Y-70743118D01*
X132532825Y-70741198D01*
X132548023Y-70713164D01*
X132568095Y-70652797D01*
X132577275Y-70618784D01*
X132602229Y-70443323D01*
X132583709Y-70292030D01*
X132522809Y-70166930D01*
X132420623Y-70070046D01*
X132278244Y-70003400D01*
X132238719Y-69992257D01*
X132156051Y-69974351D01*
X132107515Y-69977915D01*
X132078572Y-70009868D01*
X132054684Y-70077130D01*
X132053735Y-70080295D01*
X132024342Y-70245581D01*
X131594989Y-70245581D01*
X131608235Y-70149917D01*
X131631095Y-70031920D01*
X131664066Y-69889499D01*
X131707940Y-69718412D01*
X131763510Y-69514418D01*
X131763891Y-69513066D01*
X132236704Y-69513066D01*
X132261099Y-69535494D01*
X132323060Y-69556004D01*
X132341514Y-69560758D01*
X132548431Y-69637149D01*
X132727951Y-69755984D01*
X132824031Y-69848630D01*
X132948789Y-70019194D01*
X133024860Y-70204118D01*
X133052286Y-70403581D01*
X133031108Y-70617763D01*
X133016473Y-70680400D01*
X132993429Y-70770436D01*
X132977075Y-70838119D01*
X132970275Y-70871477D01*
X132970369Y-70873039D01*
X132994735Y-70880388D01*
X133059824Y-70899380D01*
X133157525Y-70927665D01*
X133279728Y-70962892D01*
X133380500Y-70991857D01*
X133581194Y-71046882D01*
X133741289Y-71084143D01*
X133867560Y-71104213D01*
X133966784Y-71107661D01*
X134045736Y-71095060D01*
X134111193Y-71066980D01*
X134130058Y-71055050D01*
X134241656Y-70952878D01*
X134309474Y-70831328D01*
X134331088Y-70696945D01*
X134309313Y-70571291D01*
X134273145Y-70487206D01*
X134221436Y-70418847D01*
X134146724Y-70361322D01*
X134041549Y-70309743D01*
X133898452Y-70259218D01*
X133779613Y-70224076D01*
X133628942Y-70170112D01*
X133521146Y-70106007D01*
X133459011Y-70033841D01*
X133444036Y-69973601D01*
X133450778Y-69936179D01*
X133469453Y-69858800D01*
X133497773Y-69750277D01*
X133533448Y-69619422D01*
X133567182Y-69499540D01*
X133690293Y-69067980D01*
X133083836Y-68892767D01*
X132916858Y-68845161D01*
X132766447Y-68803497D01*
X132639325Y-68769536D01*
X132542215Y-68745042D01*
X132481839Y-68731778D01*
X132464559Y-68730374D01*
X132453312Y-68758184D01*
X132431236Y-68825734D01*
X132401191Y-68923845D01*
X132366036Y-69043336D01*
X132353600Y-69086599D01*
X132316739Y-69215197D01*
X132283777Y-69329481D01*
X132257761Y-69418935D01*
X132241740Y-69473040D01*
X132239432Y-69480510D01*
X132236704Y-69513066D01*
X131763891Y-69513066D01*
X131831569Y-69273273D01*
X131912911Y-68990736D01*
X131979155Y-68762700D01*
X132065674Y-68465673D01*
X132120576Y-68278375D01*
X132585182Y-68278375D01*
X132585665Y-68281054D01*
X132610084Y-68289166D01*
X132675360Y-68309246D01*
X132773608Y-68338953D01*
X132896943Y-68375944D01*
X133037478Y-68417876D01*
X133187328Y-68462409D01*
X133338609Y-68507200D01*
X133483434Y-68549907D01*
X133613917Y-68588188D01*
X133722174Y-68619700D01*
X133800319Y-68642103D01*
X133817574Y-68646937D01*
X133826795Y-68625336D01*
X133846191Y-68567036D01*
X133871764Y-68484119D01*
X133874724Y-68474211D01*
X133900559Y-68382428D01*
X133919141Y-68306806D01*
X133926588Y-68263197D01*
X133926600Y-68262367D01*
X133910829Y-68244814D01*
X133861286Y-68220412D01*
X133774621Y-68187968D01*
X133647486Y-68146292D01*
X133476533Y-68094194D01*
X133345071Y-68055555D01*
X133180055Y-68007976D01*
X133030218Y-67965572D01*
X132902794Y-67930326D01*
X132805016Y-67904220D01*
X132744117Y-67889236D01*
X132727859Y-67886400D01*
X132701028Y-67910657D01*
X132668392Y-67980171D01*
X132635204Y-68080049D01*
X132609466Y-68171332D01*
X132591797Y-68241477D01*
X132585182Y-68278375D01*
X132120576Y-68278375D01*
X132139511Y-68213779D01*
X132202280Y-68003403D01*
X132255592Y-67830931D01*
X132301060Y-67692746D01*
X132340297Y-67585236D01*
X132374916Y-67504785D01*
X132406529Y-67447779D01*
X132436749Y-67410602D01*
X132467189Y-67389640D01*
X132499461Y-67381278D01*
X132535179Y-67381902D01*
X132575954Y-67387897D01*
X132591338Y-67390531D01*
X132671310Y-67404797D01*
X132730404Y-67412203D01*
X132773996Y-67406727D01*
X132807456Y-67382349D01*
X132836160Y-67333047D01*
X132865479Y-67252800D01*
X132900787Y-67135587D01*
X132940408Y-66999371D01*
X132980105Y-66862513D01*
X133013694Y-66743901D01*
X133038973Y-66651542D01*
X133053741Y-66593442D01*
X133056504Y-66577004D01*
X133031211Y-66568645D01*
X132965633Y-66549084D01*
X132868399Y-66520842D01*
X132748135Y-66486435D01*
X132682000Y-66467689D01*
X132513582Y-66418696D01*
X132325643Y-66361773D01*
X132140876Y-66303910D01*
X131981972Y-66252099D01*
X131978937Y-66251080D01*
X131644175Y-66138549D01*
X131597937Y-66190574D01*
X131508644Y-66261125D01*
X131386482Y-66317466D01*
X131248802Y-66353039D01*
X131143937Y-66362151D01*
X130966452Y-66339096D01*
X130809401Y-66273111D01*
X130678424Y-66169863D01*
X130579164Y-66035020D01*
X130517262Y-65874251D01*
X130500662Y-65734433D01*
X130949435Y-65734433D01*
X130972412Y-65825340D01*
X131027826Y-65887281D01*
X131104301Y-65917001D01*
X131190461Y-65911244D01*
X131274930Y-65866753D01*
X131306396Y-65836599D01*
X131348398Y-65772426D01*
X131352688Y-65705195D01*
X131350544Y-65693172D01*
X131312104Y-65597715D01*
X131249302Y-65537039D01*
X131172984Y-65510029D01*
X131093994Y-65515569D01*
X131023178Y-65552543D01*
X130971381Y-65619836D01*
X130949448Y-65716332D01*
X130949435Y-65734433D01*
X130500662Y-65734433D01*
X130498157Y-65713337D01*
X130520886Y-65536336D01*
X130586567Y-65379460D01*
X130689425Y-65248466D01*
X130823688Y-65149110D01*
X130983579Y-65087149D01*
X131145300Y-65068115D01*
X131326288Y-65091378D01*
X131486061Y-65157975D01*
X131618924Y-65263119D01*
X131719183Y-65402023D01*
X131781141Y-65569900D01*
X131788880Y-65609131D01*
X131806698Y-65714700D01*
X132047499Y-65798703D01*
X132750631Y-66023002D01*
X133477922Y-66213346D01*
X134233962Y-66370738D01*
X135023340Y-66496180D01*
X135526800Y-66557832D01*
X135706677Y-66573422D01*
X135928524Y-66586070D01*
X136183597Y-66595776D01*
X136463151Y-66602541D01*
X136758442Y-66606364D01*
X137060724Y-66607245D01*
X137361254Y-66605185D01*
X137651287Y-66600183D01*
X137922078Y-66592239D01*
X138164882Y-66581353D01*
X138370956Y-66567526D01*
X138473200Y-66557832D01*
X139270745Y-66453901D01*
X140031676Y-66320191D01*
X140761360Y-66155533D01*
X141465161Y-65958755D01*
X141952500Y-65798760D01*
X142193301Y-65714700D01*
X142199112Y-65680266D01*
X142650694Y-65680266D01*
X142652181Y-65770797D01*
X142691838Y-65844117D01*
X142758377Y-65894602D01*
X142840507Y-65916629D01*
X142926938Y-65904574D01*
X143003290Y-65855902D01*
X143040268Y-65788490D01*
X143050280Y-65714700D01*
X143030731Y-65620935D01*
X142979668Y-65555377D01*
X142908463Y-65519004D01*
X142828491Y-65512797D01*
X142751124Y-65537736D01*
X142687737Y-65594801D01*
X142650694Y-65680266D01*
X142199112Y-65680266D01*
X142211119Y-65609131D01*
X142264134Y-65435572D01*
X142356678Y-65290098D01*
X142483203Y-65177366D01*
X142638160Y-65102036D01*
X142816003Y-65068766D01*
X142856062Y-65067557D01*
X143027877Y-65089141D01*
%TD*%
D13*
%TO.C,SW1*%
X104170000Y-101250000D03*
X104170000Y-98250000D03*
%TD*%
D14*
%TO.C,D1*%
X110700000Y-86875000D03*
X112800000Y-86875000D03*
X110700000Y-88125000D03*
X112800000Y-88125000D03*
%TD*%
%TO.C,D2*%
X124550000Y-75375000D03*
X122450000Y-75375000D03*
X124550000Y-74125000D03*
X122450000Y-74125000D03*
%TD*%
%TO.C,D3*%
X153450000Y-73625000D03*
X155550000Y-73625000D03*
X153450000Y-74875000D03*
X155550000Y-74875000D03*
%TD*%
%TO.C,D4*%
X131800000Y-109625000D03*
X129700000Y-109625000D03*
X131800000Y-108375000D03*
X129700000Y-108375000D03*
%TD*%
%TO.C,D5*%
X115950000Y-114375000D03*
X118050000Y-114375000D03*
X115950000Y-115625000D03*
X118050000Y-115625000D03*
%TD*%
%TO.C,D6*%
X117300000Y-101875000D03*
X115200000Y-101875000D03*
X117300000Y-100625000D03*
X115200000Y-100625000D03*
%TD*%
%TO.C,D7*%
X142200000Y-129125000D03*
X144300000Y-129125000D03*
X142200000Y-130375000D03*
X144300000Y-130375000D03*
%TD*%
%TO.C,D8*%
X160300000Y-111375000D03*
X158200000Y-111375000D03*
X160300000Y-110125000D03*
X158200000Y-110125000D03*
%TD*%
%TO.C,D9*%
X133450000Y-73625000D03*
X135550000Y-73625000D03*
X133450000Y-74875000D03*
X135550000Y-74875000D03*
%TD*%
%TO.C,D10*%
X147050000Y-103625000D03*
X144950000Y-103625000D03*
X147050000Y-102375000D03*
X144950000Y-102375000D03*
%TD*%
%TO.C,D11*%
X125950000Y-126125000D03*
X128050000Y-126125000D03*
X125950000Y-127375000D03*
X128050000Y-127375000D03*
%TD*%
M02*
