%TF.GenerationSoftware,KiCad,Pcbnew,(5.1.10)-1*%
%TF.CreationDate,2021-10-17T17:11:57+02:00*%
%TF.ProjectId,TVZ_kuglica,54565a5f-6b75-4676-9c69-63612e6b6963,rev?*%
%TF.SameCoordinates,Original*%
%TF.FileFunction,Copper,L2,Bot*%
%TF.FilePolarity,Positive*%
%FSLAX46Y46*%
G04 Gerber Fmt 4.6, Leading zero omitted, Abs format (unit mm)*
G04 Created by KiCad (PCBNEW (5.1.10)-1) date 2021-10-17 17:11:57*
%MOMM*%
%LPD*%
G01*
G04 APERTURE LIST*
%TA.AperFunction,SMDPad,CuDef*%
%ADD10O,6.000000X3.000000*%
%TD*%
%TA.AperFunction,SMDPad,CuDef*%
%ADD11R,1.500000X0.700000*%
%TD*%
%TA.AperFunction,SMDPad,CuDef*%
%ADD12R,0.800000X1.000000*%
%TD*%
%TA.AperFunction,ViaPad*%
%ADD13C,0.800000*%
%TD*%
%TA.AperFunction,Conductor*%
%ADD14C,1.524000*%
%TD*%
%TA.AperFunction,Conductor*%
%ADD15C,0.762000*%
%TD*%
%TA.AperFunction,Conductor*%
%ADD16C,0.254000*%
%TD*%
%TA.AperFunction,Conductor*%
%ADD17C,0.100000*%
%TD*%
G04 APERTURE END LIST*
D10*
%TO.P,BT1,1*%
%TO.N,VCC*%
X126500000Y-70750000D03*
%TO.P,BT1,2*%
%TO.N,GND*%
X145500000Y-70750000D03*
%TD*%
D11*
%TO.P,SW1,1*%
%TO.N,Net-(D1-Pad1)*%
X105930000Y-102000000D03*
%TO.P,SW1,2*%
%TO.N,VCC*%
X105930000Y-99000000D03*
%TO.P,SW1,3*%
%TO.N,Net-(SW1-Pad3)*%
X105930000Y-97500000D03*
D12*
%TO.P,SW1,*%
%TO.N,*%
X103070000Y-103400000D03*
X103070000Y-96100000D03*
X105280000Y-96100000D03*
X105280000Y-103400000D03*
%TD*%
D13*
%TO.N,Net-(D1-Pad1)*%
X144000000Y-103000000D03*
X157250000Y-110750000D03*
X141250000Y-129750000D03*
X109750000Y-87500000D03*
X121500000Y-74750000D03*
X135500000Y-76500000D03*
X154750000Y-76500000D03*
X128750000Y-109000000D03*
X114250000Y-101250000D03*
X115000000Y-115000000D03*
X125000000Y-126750000D03*
X138000000Y-94000000D03*
%TO.N,GND*%
X118500000Y-126000000D03*
X134750000Y-125750000D03*
X135000000Y-133000000D03*
X145250000Y-126250000D03*
X153750000Y-127750000D03*
X149500000Y-78750000D03*
X130750000Y-73250000D03*
X120250000Y-84000000D03*
X126250000Y-93250000D03*
X120250000Y-105250000D03*
X128250000Y-104000000D03*
X108000000Y-107250000D03*
X118000000Y-110250000D03*
X138000000Y-112250000D03*
X146500000Y-115500000D03*
X147000000Y-108250000D03*
X165000000Y-105250000D03*
X161250000Y-117250000D03*
X155250000Y-97750000D03*
X157750000Y-90000000D03*
X142000000Y-94000000D03*
X161250000Y-110750000D03*
X132750000Y-109000000D03*
X148000000Y-103000000D03*
X119000000Y-115000000D03*
X118250000Y-101250000D03*
X145250000Y-129750000D03*
X113750000Y-87500000D03*
X139500000Y-76500000D03*
X158750000Y-76500000D03*
X125500000Y-74750000D03*
X129000000Y-126750000D03*
%TD*%
D14*
%TO.N,Net-(D1-Pad1)*%
X115000000Y-115000000D02*
X112250000Y-112250000D01*
X112250000Y-112250000D02*
X112250000Y-103250000D01*
X112250000Y-103250000D02*
X114250000Y-101250000D01*
X114250000Y-95250000D02*
X114250000Y-92000000D01*
X111250000Y-86000000D02*
X111375000Y-85875000D01*
X111375000Y-85875000D02*
X116750000Y-80500000D01*
X109750000Y-87500000D02*
X111375000Y-85875000D01*
X111250000Y-89000000D02*
X111250000Y-86000000D01*
X114250000Y-92000000D02*
X111250000Y-89000000D01*
X111250000Y-89000000D02*
X109750000Y-87500000D01*
X145500000Y-104500000D02*
X143750000Y-104500000D01*
X143750000Y-104500000D02*
X142250000Y-103000000D01*
X144000000Y-103000000D02*
X142250000Y-103000000D01*
X145500000Y-104500000D02*
X144000000Y-103000000D01*
X128750000Y-114250000D02*
X124750000Y-118250000D01*
X118250000Y-118250000D02*
X115000000Y-115000000D01*
X130125000Y-109625000D02*
X128750000Y-111000000D01*
X128750000Y-111000000D02*
X128750000Y-114250000D01*
X128750000Y-109000000D02*
X128750000Y-111000000D01*
X134750000Y-103000000D02*
X130125000Y-107625000D01*
X130125000Y-107625000D02*
X130125000Y-109625000D01*
X130125000Y-107625000D02*
X128750000Y-109000000D01*
X117750000Y-79500000D02*
X116750000Y-80500000D01*
X119500000Y-79500000D02*
X119000000Y-79500000D01*
X117750000Y-79500000D02*
X119500000Y-79500000D01*
X141250000Y-126500000D02*
X146250000Y-121500000D01*
X146250000Y-121500000D02*
X154250000Y-121500000D01*
X154250000Y-121500000D02*
X157250000Y-118500000D01*
X157250000Y-112500000D02*
X157250000Y-110750000D01*
X157250000Y-118500000D02*
X157250000Y-112500000D01*
X157250000Y-110750000D02*
X154750000Y-108250000D01*
X149250000Y-108250000D02*
X147750000Y-106750000D01*
X147750000Y-106750000D02*
X145500000Y-104500000D01*
X157250000Y-112500000D02*
X153000000Y-108250000D01*
X153000000Y-108250000D02*
X149250000Y-108250000D01*
X154750000Y-108250000D02*
X153000000Y-108250000D01*
X112250000Y-101250000D02*
X114250000Y-99250000D01*
X112250000Y-103250000D02*
X112250000Y-101250000D01*
X114250000Y-99250000D02*
X114250000Y-95250000D01*
X114250000Y-101250000D02*
X114250000Y-99250000D01*
X125000000Y-118500000D02*
X124750000Y-118250000D01*
X123250000Y-118250000D02*
X125000000Y-120000000D01*
X125000000Y-120000000D02*
X125000000Y-118500000D01*
X124750000Y-118250000D02*
X123250000Y-118250000D01*
X125000000Y-126750000D02*
X125000000Y-120000000D01*
X123250000Y-118250000D02*
X118250000Y-118250000D01*
X141250000Y-129750000D02*
X140000000Y-131000000D01*
X129250000Y-131000000D02*
X125000000Y-126750000D01*
X138750000Y-131000000D02*
X139000000Y-131000000D01*
X139000000Y-131000000D02*
X141250000Y-128750000D01*
X141250000Y-128750000D02*
X141250000Y-126500000D01*
X141250000Y-129750000D02*
X141250000Y-128750000D01*
X140000000Y-131000000D02*
X138750000Y-131000000D01*
X138750000Y-131000000D02*
X129250000Y-131000000D01*
X121500000Y-79250000D02*
X121750000Y-79500000D01*
X119500000Y-79500000D02*
X121750000Y-79500000D01*
X119500000Y-79500000D02*
X120250000Y-79500000D01*
X121500000Y-78250000D02*
X121500000Y-79250000D01*
X120250000Y-79500000D02*
X121500000Y-78250000D01*
X121500000Y-74750000D02*
X121500000Y-78250000D01*
X121500000Y-78250000D02*
X122750000Y-79500000D01*
X122750000Y-79500000D02*
X127250000Y-79500000D01*
X121750000Y-79500000D02*
X122750000Y-79500000D01*
X138000000Y-102750000D02*
X137750000Y-103000000D01*
X138000000Y-100500000D02*
X138000000Y-101000000D01*
X136000000Y-103000000D02*
X134750000Y-103000000D01*
X138000000Y-101000000D02*
X136000000Y-103000000D01*
X137750000Y-103000000D02*
X136000000Y-103000000D01*
X139750000Y-103000000D02*
X138000000Y-101250000D01*
X138000000Y-101250000D02*
X138000000Y-102750000D01*
X140500000Y-103000000D02*
X139750000Y-103000000D01*
X138000000Y-100500000D02*
X138000000Y-101250000D01*
X142250000Y-103000000D02*
X140500000Y-103000000D01*
X140500000Y-103000000D02*
X137750000Y-103000000D01*
X139375000Y-92625000D02*
X139375000Y-95375000D01*
X138000000Y-96750000D02*
X138000000Y-100500000D01*
X139375000Y-95375000D02*
X138000000Y-96750000D01*
X138000000Y-94000000D02*
X138000000Y-96750000D01*
X152500000Y-79500000D02*
X139375000Y-92625000D01*
X139375000Y-92625000D02*
X138000000Y-94000000D01*
X127250000Y-79500000D02*
X132500000Y-79500000D01*
X135500000Y-76500000D02*
X137750000Y-74250000D01*
X137750000Y-74250000D02*
X139250000Y-74250000D01*
X132500000Y-79500000D02*
X134000000Y-78000000D01*
X135500000Y-78000000D02*
X139250000Y-74250000D01*
X134000000Y-78000000D02*
X135500000Y-78000000D01*
X134000000Y-78000000D02*
X135500000Y-76500000D01*
X139250000Y-74250000D02*
X152500000Y-74250000D01*
X154750000Y-76500000D02*
X154750000Y-77250000D01*
X153750000Y-78250000D02*
X153500000Y-78500000D01*
X153750000Y-75500000D02*
X153750000Y-78250000D01*
X153500000Y-78500000D02*
X152500000Y-79500000D01*
X154750000Y-77250000D02*
X153500000Y-78500000D01*
X152500000Y-74250000D02*
X153750000Y-75500000D01*
X153750000Y-75500000D02*
X154750000Y-76500000D01*
D15*
%TO.N,VCC*%
X105930000Y-99000000D02*
X108750000Y-99000000D01*
X108750000Y-99000000D02*
X109750000Y-98000000D01*
X109750000Y-98000000D02*
X109750000Y-94000000D01*
X109750000Y-94000000D02*
X107250000Y-91500000D01*
X107250000Y-91500000D02*
X107250000Y-86000000D01*
X107250000Y-86000000D02*
X113500000Y-79750000D01*
X113500000Y-79750000D02*
X113500000Y-77000000D01*
X119750000Y-70750000D02*
X126500000Y-70750000D01*
X113500000Y-77000000D02*
X119750000Y-70750000D01*
%TD*%
D16*
%TO.N,GND*%
X137886138Y-55831059D02*
X138610388Y-56053867D01*
X139283738Y-56401409D01*
X139884901Y-56862699D01*
X140394872Y-57423149D01*
X140797540Y-58065057D01*
X141080170Y-58768122D01*
X141236190Y-59521513D01*
X141265000Y-60021169D01*
X141265001Y-61306272D01*
X141266298Y-61319440D01*
X141278413Y-61656049D01*
X141278863Y-61659632D01*
X141278707Y-61663242D01*
X141287438Y-61747410D01*
X141429908Y-62624862D01*
X141435629Y-62647269D01*
X141438736Y-62670183D01*
X141462234Y-62751474D01*
X141757835Y-63589830D01*
X141767433Y-63610870D01*
X141774549Y-63632871D01*
X141812059Y-63708691D01*
X141812071Y-63708717D01*
X141812077Y-63708725D01*
X142251461Y-64481476D01*
X142264630Y-64500478D01*
X142275533Y-64520879D01*
X142325894Y-64588881D01*
X142895182Y-65271616D01*
X142911512Y-65287990D01*
X142925851Y-65306132D01*
X142987458Y-65364142D01*
X143668651Y-65935276D01*
X143687625Y-65948502D01*
X143704950Y-65963817D01*
X143775855Y-66010000D01*
X144547423Y-66451478D01*
X144568436Y-66461133D01*
X144588200Y-66473139D01*
X144666163Y-66506036D01*
X145503715Y-66803905D01*
X145508021Y-66805017D01*
X145525587Y-66811299D01*
X145542755Y-66816572D01*
X147746053Y-67464098D01*
X149878711Y-68247813D01*
X151954729Y-69171140D01*
X153965017Y-70230036D01*
X155900673Y-71419812D01*
X157753239Y-72735268D01*
X159514561Y-74170616D01*
X161176886Y-75719540D01*
X162732884Y-77375207D01*
X164175738Y-79130360D01*
X165499106Y-80977290D01*
X166697162Y-82907865D01*
X167764630Y-84913581D01*
X168696830Y-86985643D01*
X169489658Y-89114933D01*
X170139624Y-91292080D01*
X170643873Y-93507517D01*
X171000188Y-95751501D01*
X171207004Y-98014175D01*
X171263407Y-100285560D01*
X171169153Y-102555700D01*
X170924654Y-104814605D01*
X170530986Y-107052337D01*
X169989882Y-109259064D01*
X169303718Y-111425077D01*
X168475512Y-113540851D01*
X167508906Y-115597090D01*
X166408155Y-117584736D01*
X165178083Y-119495080D01*
X163824120Y-121319689D01*
X162352204Y-123050560D01*
X160768823Y-124680064D01*
X159080926Y-126201055D01*
X157295931Y-127606843D01*
X155421695Y-128891239D01*
X153466456Y-130048599D01*
X151438820Y-131073832D01*
X149347702Y-131962428D01*
X147202263Y-132710493D01*
X145011999Y-133314718D01*
X142786467Y-133772464D01*
X140535523Y-134081705D01*
X138269022Y-134241089D01*
X135996953Y-134249911D01*
X133729262Y-134108134D01*
X131475992Y-133816385D01*
X129246983Y-133375938D01*
X127052076Y-132788738D01*
X124900917Y-132057366D01*
X122802939Y-131185029D01*
X120767401Y-130175574D01*
X118803237Y-129033435D01*
X116919085Y-127763634D01*
X115123223Y-126371749D01*
X113423564Y-124863914D01*
X111827572Y-123246751D01*
X110342263Y-121527368D01*
X108974171Y-119713331D01*
X107729304Y-117812605D01*
X106613144Y-115833557D01*
X105630601Y-113784897D01*
X104785986Y-111675609D01*
X104083026Y-109515005D01*
X103524797Y-107312547D01*
X103113763Y-105077935D01*
X103051083Y-104538072D01*
X103470000Y-104538072D01*
X103594482Y-104525812D01*
X103714180Y-104489502D01*
X103824494Y-104430537D01*
X103921185Y-104351185D01*
X104000537Y-104254494D01*
X104059502Y-104144180D01*
X104095812Y-104024482D01*
X104108072Y-103900000D01*
X104108072Y-103885000D01*
X104241928Y-103885000D01*
X104241928Y-103900000D01*
X104254188Y-104024482D01*
X104290498Y-104144180D01*
X104349463Y-104254494D01*
X104428815Y-104351185D01*
X104525506Y-104430537D01*
X104635820Y-104489502D01*
X104755518Y-104525812D01*
X104880000Y-104538072D01*
X105680000Y-104538072D01*
X105804482Y-104525812D01*
X105924180Y-104489502D01*
X106034494Y-104430537D01*
X106131185Y-104351185D01*
X106210537Y-104254494D01*
X106269502Y-104144180D01*
X106305812Y-104024482D01*
X106318072Y-103900000D01*
X106318072Y-103885000D01*
X110211858Y-103885000D01*
X110853001Y-104617735D01*
X110853000Y-112181375D01*
X110846241Y-112250000D01*
X110860387Y-112393622D01*
X110873214Y-112523859D01*
X110953096Y-112787194D01*
X111082817Y-113029886D01*
X111257392Y-113242607D01*
X111310704Y-113286359D01*
X114060696Y-116036353D01*
X114060707Y-116036362D01*
X117213645Y-119189302D01*
X117257392Y-119242608D01*
X117470113Y-119417183D01*
X117712805Y-119546904D01*
X117954215Y-119620135D01*
X117976140Y-119626786D01*
X118249999Y-119653759D01*
X118318624Y-119647000D01*
X122671345Y-119647000D01*
X123603001Y-120578657D01*
X123603000Y-126681375D01*
X123596241Y-126750000D01*
X123603000Y-126818624D01*
X123623214Y-127023859D01*
X123703096Y-127287194D01*
X123832817Y-127529886D01*
X124007392Y-127742607D01*
X124060705Y-127786360D01*
X128213641Y-131939297D01*
X128257392Y-131992608D01*
X128432381Y-132136217D01*
X128470113Y-132167183D01*
X128712804Y-132296904D01*
X128976140Y-132376786D01*
X129250000Y-132403759D01*
X129318625Y-132397000D01*
X138931375Y-132397000D01*
X139000000Y-132403759D01*
X139068625Y-132397000D01*
X139931375Y-132397000D01*
X140000000Y-132403759D01*
X140068625Y-132397000D01*
X140273860Y-132376786D01*
X140537195Y-132296904D01*
X140779887Y-132167183D01*
X140992608Y-131992608D01*
X141036364Y-131939292D01*
X142189301Y-130786355D01*
X142242607Y-130742608D01*
X142417183Y-130529887D01*
X142546904Y-130287195D01*
X142626786Y-130023860D01*
X142647000Y-129818625D01*
X142647000Y-129818624D01*
X142653759Y-129750000D01*
X142647000Y-129681375D01*
X142647000Y-128818633D01*
X142653760Y-128750000D01*
X142647000Y-128681368D01*
X142647000Y-127078655D01*
X146828656Y-122897000D01*
X154181375Y-122897000D01*
X154250000Y-122903759D01*
X154318625Y-122897000D01*
X154523860Y-122876786D01*
X154787195Y-122796904D01*
X155029887Y-122667183D01*
X155242608Y-122492608D01*
X155286364Y-122439291D01*
X158189303Y-119536353D01*
X158242607Y-119492608D01*
X158417183Y-119279887D01*
X158437109Y-119242608D01*
X158546904Y-119037196D01*
X158626786Y-118773860D01*
X158653759Y-118500000D01*
X158647000Y-118431375D01*
X158647000Y-112568624D01*
X158653759Y-112500000D01*
X158647000Y-112431375D01*
X158647000Y-110818625D01*
X158653759Y-110750000D01*
X158626786Y-110476140D01*
X158612106Y-110427746D01*
X158546904Y-110212805D01*
X158417183Y-109970113D01*
X158242608Y-109757392D01*
X158189296Y-109713641D01*
X155786364Y-107310709D01*
X155742608Y-107257392D01*
X155529887Y-107082817D01*
X155287195Y-106953096D01*
X155023860Y-106873214D01*
X154818625Y-106853000D01*
X154750000Y-106846241D01*
X154681375Y-106853000D01*
X153068625Y-106853000D01*
X153000000Y-106846241D01*
X152931375Y-106853000D01*
X149828656Y-106853000D01*
X148786357Y-105810702D01*
X148786353Y-105810697D01*
X146536364Y-103560709D01*
X146492608Y-103507392D01*
X146439302Y-103463645D01*
X145036363Y-102060708D01*
X144992608Y-102007392D01*
X144779887Y-101832817D01*
X144537195Y-101703096D01*
X144273860Y-101623214D01*
X144068625Y-101603000D01*
X144000000Y-101596241D01*
X143931375Y-101603000D01*
X142318625Y-101603000D01*
X142250000Y-101596241D01*
X142181375Y-101603000D01*
X140328656Y-101603000D01*
X139397000Y-100671345D01*
X139397000Y-97328655D01*
X140314296Y-96411360D01*
X140367608Y-96367608D01*
X140542183Y-96154887D01*
X140557054Y-96127066D01*
X140671904Y-95912196D01*
X140751786Y-95648860D01*
X140778759Y-95375000D01*
X140772000Y-95306375D01*
X140772000Y-93203655D01*
X153536353Y-80439303D01*
X153536357Y-80439298D01*
X154536353Y-79439303D01*
X154536356Y-79439299D01*
X154689295Y-79286361D01*
X154742608Y-79242608D01*
X154786363Y-79189293D01*
X155689296Y-78286360D01*
X155742608Y-78242608D01*
X155917183Y-78029887D01*
X156046904Y-77787195D01*
X156115611Y-77560698D01*
X156126786Y-77523860D01*
X156153759Y-77250000D01*
X156147000Y-77181375D01*
X156147000Y-76568632D01*
X156153760Y-76500000D01*
X156126786Y-76226140D01*
X156046904Y-75962804D01*
X155917183Y-75720113D01*
X155871276Y-75664175D01*
X155742607Y-75507392D01*
X155689301Y-75463645D01*
X154786359Y-74560704D01*
X154742607Y-74507392D01*
X154689301Y-74463645D01*
X153536364Y-73310708D01*
X153492608Y-73257392D01*
X153279887Y-73082817D01*
X153037195Y-72953096D01*
X152773860Y-72873214D01*
X152568625Y-72853000D01*
X152500000Y-72846241D01*
X152431375Y-72853000D01*
X139318625Y-72853000D01*
X139250000Y-72846241D01*
X139181375Y-72853000D01*
X137818632Y-72853000D01*
X137750000Y-72846240D01*
X137476140Y-72873214D01*
X137212804Y-72953096D01*
X136985492Y-73074597D01*
X136970113Y-73082817D01*
X136757392Y-73257392D01*
X136713641Y-73310704D01*
X134560707Y-75463638D01*
X134560696Y-75463647D01*
X133060708Y-76963637D01*
X133007392Y-77007392D01*
X132963645Y-77060698D01*
X131921344Y-78103000D01*
X123328656Y-78103000D01*
X122897000Y-77671345D01*
X122897000Y-74681375D01*
X122876786Y-74476140D01*
X122796904Y-74212805D01*
X122667183Y-73970113D01*
X122492607Y-73757392D01*
X122279886Y-73582817D01*
X122037194Y-73453096D01*
X121773859Y-73373214D01*
X121676506Y-73363625D01*
X122234902Y-72885000D01*
X128104882Y-72885000D01*
X128418533Y-72854108D01*
X128820982Y-72732026D01*
X129191881Y-72533777D01*
X129516977Y-72266977D01*
X129783777Y-71941881D01*
X129982026Y-71570982D01*
X130104108Y-71168533D01*
X130145330Y-70750000D01*
X130104108Y-70331467D01*
X129982026Y-69929018D01*
X129783777Y-69558119D01*
X129516977Y-69233023D01*
X129191881Y-68966223D01*
X128820982Y-68767974D01*
X128418533Y-68645892D01*
X128104882Y-68615000D01*
X123288837Y-68615000D01*
X123875077Y-68348792D01*
X126001593Y-67548534D01*
X128186747Y-66887862D01*
X128436510Y-66822338D01*
X128452528Y-66817563D01*
X128459226Y-66815987D01*
X128804024Y-66713600D01*
X128807380Y-66712269D01*
X128810916Y-66711517D01*
X128890228Y-66682021D01*
X129704199Y-66324712D01*
X129724464Y-66313571D01*
X129745874Y-66304834D01*
X129818696Y-66261767D01*
X129818710Y-66261759D01*
X129818715Y-66261755D01*
X130556543Y-65765956D01*
X130574511Y-65751406D01*
X130594041Y-65739012D01*
X130658097Y-65683720D01*
X131296470Y-65065093D01*
X131311582Y-65047586D01*
X131328603Y-65031934D01*
X131381840Y-64966192D01*
X131381856Y-64966173D01*
X131381861Y-64966165D01*
X131900590Y-64244277D01*
X131912363Y-64224370D01*
X131926343Y-64205952D01*
X131967109Y-64131800D01*
X132349809Y-63329453D01*
X132357869Y-63307780D01*
X132368369Y-63287173D01*
X132395359Y-63206974D01*
X132629927Y-62349538D01*
X132634022Y-62326778D01*
X132640706Y-62304640D01*
X132653067Y-62220928D01*
X132731782Y-61338949D01*
X132735000Y-61306272D01*
X132735000Y-60032731D01*
X132762021Y-59729963D01*
X134258266Y-59729963D01*
X134258266Y-60270037D01*
X134363629Y-60799734D01*
X134570307Y-61298698D01*
X134870356Y-61747753D01*
X135252247Y-62129644D01*
X135701302Y-62429693D01*
X136200266Y-62636371D01*
X136729963Y-62741734D01*
X137270037Y-62741734D01*
X137799734Y-62636371D01*
X138298698Y-62429693D01*
X138747753Y-62129644D01*
X139129644Y-61747753D01*
X139429693Y-61298698D01*
X139636371Y-60799734D01*
X139741734Y-60270037D01*
X139741734Y-59729963D01*
X139636371Y-59200266D01*
X139429693Y-58701302D01*
X139129644Y-58252247D01*
X138747753Y-57870356D01*
X138298698Y-57570307D01*
X137799734Y-57363629D01*
X137270037Y-57258266D01*
X136729963Y-57258266D01*
X136200266Y-57363629D01*
X135701302Y-57570307D01*
X135252247Y-57870356D01*
X134870356Y-58252247D01*
X134570307Y-58701302D01*
X134363629Y-59200266D01*
X134258266Y-59729963D01*
X132762021Y-59729963D01*
X132805281Y-59245253D01*
X133005231Y-58514357D01*
X133331450Y-57830425D01*
X133773626Y-57215072D01*
X134317789Y-56687741D01*
X134946726Y-56265114D01*
X135640570Y-55960537D01*
X136377386Y-55783643D01*
X137133871Y-55740024D01*
X137886138Y-55831059D01*
%TA.AperFunction,Conductor*%
D17*
G36*
X137886138Y-55831059D02*
G01*
X138610388Y-56053867D01*
X139283738Y-56401409D01*
X139884901Y-56862699D01*
X140394872Y-57423149D01*
X140797540Y-58065057D01*
X141080170Y-58768122D01*
X141236190Y-59521513D01*
X141265000Y-60021169D01*
X141265001Y-61306272D01*
X141266298Y-61319440D01*
X141278413Y-61656049D01*
X141278863Y-61659632D01*
X141278707Y-61663242D01*
X141287438Y-61747410D01*
X141429908Y-62624862D01*
X141435629Y-62647269D01*
X141438736Y-62670183D01*
X141462234Y-62751474D01*
X141757835Y-63589830D01*
X141767433Y-63610870D01*
X141774549Y-63632871D01*
X141812059Y-63708691D01*
X141812071Y-63708717D01*
X141812077Y-63708725D01*
X142251461Y-64481476D01*
X142264630Y-64500478D01*
X142275533Y-64520879D01*
X142325894Y-64588881D01*
X142895182Y-65271616D01*
X142911512Y-65287990D01*
X142925851Y-65306132D01*
X142987458Y-65364142D01*
X143668651Y-65935276D01*
X143687625Y-65948502D01*
X143704950Y-65963817D01*
X143775855Y-66010000D01*
X144547423Y-66451478D01*
X144568436Y-66461133D01*
X144588200Y-66473139D01*
X144666163Y-66506036D01*
X145503715Y-66803905D01*
X145508021Y-66805017D01*
X145525587Y-66811299D01*
X145542755Y-66816572D01*
X147746053Y-67464098D01*
X149878711Y-68247813D01*
X151954729Y-69171140D01*
X153965017Y-70230036D01*
X155900673Y-71419812D01*
X157753239Y-72735268D01*
X159514561Y-74170616D01*
X161176886Y-75719540D01*
X162732884Y-77375207D01*
X164175738Y-79130360D01*
X165499106Y-80977290D01*
X166697162Y-82907865D01*
X167764630Y-84913581D01*
X168696830Y-86985643D01*
X169489658Y-89114933D01*
X170139624Y-91292080D01*
X170643873Y-93507517D01*
X171000188Y-95751501D01*
X171207004Y-98014175D01*
X171263407Y-100285560D01*
X171169153Y-102555700D01*
X170924654Y-104814605D01*
X170530986Y-107052337D01*
X169989882Y-109259064D01*
X169303718Y-111425077D01*
X168475512Y-113540851D01*
X167508906Y-115597090D01*
X166408155Y-117584736D01*
X165178083Y-119495080D01*
X163824120Y-121319689D01*
X162352204Y-123050560D01*
X160768823Y-124680064D01*
X159080926Y-126201055D01*
X157295931Y-127606843D01*
X155421695Y-128891239D01*
X153466456Y-130048599D01*
X151438820Y-131073832D01*
X149347702Y-131962428D01*
X147202263Y-132710493D01*
X145011999Y-133314718D01*
X142786467Y-133772464D01*
X140535523Y-134081705D01*
X138269022Y-134241089D01*
X135996953Y-134249911D01*
X133729262Y-134108134D01*
X131475992Y-133816385D01*
X129246983Y-133375938D01*
X127052076Y-132788738D01*
X124900917Y-132057366D01*
X122802939Y-131185029D01*
X120767401Y-130175574D01*
X118803237Y-129033435D01*
X116919085Y-127763634D01*
X115123223Y-126371749D01*
X113423564Y-124863914D01*
X111827572Y-123246751D01*
X110342263Y-121527368D01*
X108974171Y-119713331D01*
X107729304Y-117812605D01*
X106613144Y-115833557D01*
X105630601Y-113784897D01*
X104785986Y-111675609D01*
X104083026Y-109515005D01*
X103524797Y-107312547D01*
X103113763Y-105077935D01*
X103051083Y-104538072D01*
X103470000Y-104538072D01*
X103594482Y-104525812D01*
X103714180Y-104489502D01*
X103824494Y-104430537D01*
X103921185Y-104351185D01*
X104000537Y-104254494D01*
X104059502Y-104144180D01*
X104095812Y-104024482D01*
X104108072Y-103900000D01*
X104108072Y-103885000D01*
X104241928Y-103885000D01*
X104241928Y-103900000D01*
X104254188Y-104024482D01*
X104290498Y-104144180D01*
X104349463Y-104254494D01*
X104428815Y-104351185D01*
X104525506Y-104430537D01*
X104635820Y-104489502D01*
X104755518Y-104525812D01*
X104880000Y-104538072D01*
X105680000Y-104538072D01*
X105804482Y-104525812D01*
X105924180Y-104489502D01*
X106034494Y-104430537D01*
X106131185Y-104351185D01*
X106210537Y-104254494D01*
X106269502Y-104144180D01*
X106305812Y-104024482D01*
X106318072Y-103900000D01*
X106318072Y-103885000D01*
X110211858Y-103885000D01*
X110853001Y-104617735D01*
X110853000Y-112181375D01*
X110846241Y-112250000D01*
X110860387Y-112393622D01*
X110873214Y-112523859D01*
X110953096Y-112787194D01*
X111082817Y-113029886D01*
X111257392Y-113242607D01*
X111310704Y-113286359D01*
X114060696Y-116036353D01*
X114060707Y-116036362D01*
X117213645Y-119189302D01*
X117257392Y-119242608D01*
X117470113Y-119417183D01*
X117712805Y-119546904D01*
X117954215Y-119620135D01*
X117976140Y-119626786D01*
X118249999Y-119653759D01*
X118318624Y-119647000D01*
X122671345Y-119647000D01*
X123603001Y-120578657D01*
X123603000Y-126681375D01*
X123596241Y-126750000D01*
X123603000Y-126818624D01*
X123623214Y-127023859D01*
X123703096Y-127287194D01*
X123832817Y-127529886D01*
X124007392Y-127742607D01*
X124060705Y-127786360D01*
X128213641Y-131939297D01*
X128257392Y-131992608D01*
X128432381Y-132136217D01*
X128470113Y-132167183D01*
X128712804Y-132296904D01*
X128976140Y-132376786D01*
X129250000Y-132403759D01*
X129318625Y-132397000D01*
X138931375Y-132397000D01*
X139000000Y-132403759D01*
X139068625Y-132397000D01*
X139931375Y-132397000D01*
X140000000Y-132403759D01*
X140068625Y-132397000D01*
X140273860Y-132376786D01*
X140537195Y-132296904D01*
X140779887Y-132167183D01*
X140992608Y-131992608D01*
X141036364Y-131939292D01*
X142189301Y-130786355D01*
X142242607Y-130742608D01*
X142417183Y-130529887D01*
X142546904Y-130287195D01*
X142626786Y-130023860D01*
X142647000Y-129818625D01*
X142647000Y-129818624D01*
X142653759Y-129750000D01*
X142647000Y-129681375D01*
X142647000Y-128818633D01*
X142653760Y-128750000D01*
X142647000Y-128681368D01*
X142647000Y-127078655D01*
X146828656Y-122897000D01*
X154181375Y-122897000D01*
X154250000Y-122903759D01*
X154318625Y-122897000D01*
X154523860Y-122876786D01*
X154787195Y-122796904D01*
X155029887Y-122667183D01*
X155242608Y-122492608D01*
X155286364Y-122439291D01*
X158189303Y-119536353D01*
X158242607Y-119492608D01*
X158417183Y-119279887D01*
X158437109Y-119242608D01*
X158546904Y-119037196D01*
X158626786Y-118773860D01*
X158653759Y-118500000D01*
X158647000Y-118431375D01*
X158647000Y-112568624D01*
X158653759Y-112500000D01*
X158647000Y-112431375D01*
X158647000Y-110818625D01*
X158653759Y-110750000D01*
X158626786Y-110476140D01*
X158612106Y-110427746D01*
X158546904Y-110212805D01*
X158417183Y-109970113D01*
X158242608Y-109757392D01*
X158189296Y-109713641D01*
X155786364Y-107310709D01*
X155742608Y-107257392D01*
X155529887Y-107082817D01*
X155287195Y-106953096D01*
X155023860Y-106873214D01*
X154818625Y-106853000D01*
X154750000Y-106846241D01*
X154681375Y-106853000D01*
X153068625Y-106853000D01*
X153000000Y-106846241D01*
X152931375Y-106853000D01*
X149828656Y-106853000D01*
X148786357Y-105810702D01*
X148786353Y-105810697D01*
X146536364Y-103560709D01*
X146492608Y-103507392D01*
X146439302Y-103463645D01*
X145036363Y-102060708D01*
X144992608Y-102007392D01*
X144779887Y-101832817D01*
X144537195Y-101703096D01*
X144273860Y-101623214D01*
X144068625Y-101603000D01*
X144000000Y-101596241D01*
X143931375Y-101603000D01*
X142318625Y-101603000D01*
X142250000Y-101596241D01*
X142181375Y-101603000D01*
X140328656Y-101603000D01*
X139397000Y-100671345D01*
X139397000Y-97328655D01*
X140314296Y-96411360D01*
X140367608Y-96367608D01*
X140542183Y-96154887D01*
X140557054Y-96127066D01*
X140671904Y-95912196D01*
X140751786Y-95648860D01*
X140778759Y-95375000D01*
X140772000Y-95306375D01*
X140772000Y-93203655D01*
X153536353Y-80439303D01*
X153536357Y-80439298D01*
X154536353Y-79439303D01*
X154536356Y-79439299D01*
X154689295Y-79286361D01*
X154742608Y-79242608D01*
X154786363Y-79189293D01*
X155689296Y-78286360D01*
X155742608Y-78242608D01*
X155917183Y-78029887D01*
X156046904Y-77787195D01*
X156115611Y-77560698D01*
X156126786Y-77523860D01*
X156153759Y-77250000D01*
X156147000Y-77181375D01*
X156147000Y-76568632D01*
X156153760Y-76500000D01*
X156126786Y-76226140D01*
X156046904Y-75962804D01*
X155917183Y-75720113D01*
X155871276Y-75664175D01*
X155742607Y-75507392D01*
X155689301Y-75463645D01*
X154786359Y-74560704D01*
X154742607Y-74507392D01*
X154689301Y-74463645D01*
X153536364Y-73310708D01*
X153492608Y-73257392D01*
X153279887Y-73082817D01*
X153037195Y-72953096D01*
X152773860Y-72873214D01*
X152568625Y-72853000D01*
X152500000Y-72846241D01*
X152431375Y-72853000D01*
X139318625Y-72853000D01*
X139250000Y-72846241D01*
X139181375Y-72853000D01*
X137818632Y-72853000D01*
X137750000Y-72846240D01*
X137476140Y-72873214D01*
X137212804Y-72953096D01*
X136985492Y-73074597D01*
X136970113Y-73082817D01*
X136757392Y-73257392D01*
X136713641Y-73310704D01*
X134560707Y-75463638D01*
X134560696Y-75463647D01*
X133060708Y-76963637D01*
X133007392Y-77007392D01*
X132963645Y-77060698D01*
X131921344Y-78103000D01*
X123328656Y-78103000D01*
X122897000Y-77671345D01*
X122897000Y-74681375D01*
X122876786Y-74476140D01*
X122796904Y-74212805D01*
X122667183Y-73970113D01*
X122492607Y-73757392D01*
X122279886Y-73582817D01*
X122037194Y-73453096D01*
X121773859Y-73373214D01*
X121676506Y-73363625D01*
X122234902Y-72885000D01*
X128104882Y-72885000D01*
X128418533Y-72854108D01*
X128820982Y-72732026D01*
X129191881Y-72533777D01*
X129516977Y-72266977D01*
X129783777Y-71941881D01*
X129982026Y-71570982D01*
X130104108Y-71168533D01*
X130145330Y-70750000D01*
X130104108Y-70331467D01*
X129982026Y-69929018D01*
X129783777Y-69558119D01*
X129516977Y-69233023D01*
X129191881Y-68966223D01*
X128820982Y-68767974D01*
X128418533Y-68645892D01*
X128104882Y-68615000D01*
X123288837Y-68615000D01*
X123875077Y-68348792D01*
X126001593Y-67548534D01*
X128186747Y-66887862D01*
X128436510Y-66822338D01*
X128452528Y-66817563D01*
X128459226Y-66815987D01*
X128804024Y-66713600D01*
X128807380Y-66712269D01*
X128810916Y-66711517D01*
X128890228Y-66682021D01*
X129704199Y-66324712D01*
X129724464Y-66313571D01*
X129745874Y-66304834D01*
X129818696Y-66261767D01*
X129818710Y-66261759D01*
X129818715Y-66261755D01*
X130556543Y-65765956D01*
X130574511Y-65751406D01*
X130594041Y-65739012D01*
X130658097Y-65683720D01*
X131296470Y-65065093D01*
X131311582Y-65047586D01*
X131328603Y-65031934D01*
X131381840Y-64966192D01*
X131381856Y-64966173D01*
X131381861Y-64966165D01*
X131900590Y-64244277D01*
X131912363Y-64224370D01*
X131926343Y-64205952D01*
X131967109Y-64131800D01*
X132349809Y-63329453D01*
X132357869Y-63307780D01*
X132368369Y-63287173D01*
X132395359Y-63206974D01*
X132629927Y-62349538D01*
X132634022Y-62326778D01*
X132640706Y-62304640D01*
X132653067Y-62220928D01*
X132731782Y-61338949D01*
X132735000Y-61306272D01*
X132735000Y-60032731D01*
X132762021Y-59729963D01*
X134258266Y-59729963D01*
X134258266Y-60270037D01*
X134363629Y-60799734D01*
X134570307Y-61298698D01*
X134870356Y-61747753D01*
X135252247Y-62129644D01*
X135701302Y-62429693D01*
X136200266Y-62636371D01*
X136729963Y-62741734D01*
X137270037Y-62741734D01*
X137799734Y-62636371D01*
X138298698Y-62429693D01*
X138747753Y-62129644D01*
X139129644Y-61747753D01*
X139429693Y-61298698D01*
X139636371Y-60799734D01*
X139741734Y-60270037D01*
X139741734Y-59729963D01*
X139636371Y-59200266D01*
X139429693Y-58701302D01*
X139129644Y-58252247D01*
X138747753Y-57870356D01*
X138298698Y-57570307D01*
X137799734Y-57363629D01*
X137270037Y-57258266D01*
X136729963Y-57258266D01*
X136200266Y-57363629D01*
X135701302Y-57570307D01*
X135252247Y-57870356D01*
X134870356Y-58252247D01*
X134570307Y-58701302D01*
X134363629Y-59200266D01*
X134258266Y-59729963D01*
X132762021Y-59729963D01*
X132805281Y-59245253D01*
X133005231Y-58514357D01*
X133331450Y-57830425D01*
X133773626Y-57215072D01*
X134317789Y-56687741D01*
X134946726Y-56265114D01*
X135640570Y-55960537D01*
X136377386Y-55783643D01*
X137133871Y-55740024D01*
X137886138Y-55831059D01*
G37*
%TD.AperFunction*%
D16*
X136000000Y-104403759D02*
X136068625Y-104397000D01*
X137681375Y-104397000D01*
X137750000Y-104403759D01*
X137818625Y-104397000D01*
X139681375Y-104397000D01*
X139750000Y-104403759D01*
X139818625Y-104397000D01*
X141671344Y-104397000D01*
X142713645Y-105439302D01*
X142757392Y-105492608D01*
X142970113Y-105667183D01*
X143212805Y-105796904D01*
X143431930Y-105863375D01*
X143476140Y-105876786D01*
X143749999Y-105903759D01*
X143818624Y-105897000D01*
X144921345Y-105897000D01*
X146810697Y-107786353D01*
X146810702Y-107786357D01*
X148213645Y-109189302D01*
X148257392Y-109242608D01*
X148470113Y-109417183D01*
X148712805Y-109546904D01*
X148956766Y-109620909D01*
X148976140Y-109626786D01*
X149249999Y-109653759D01*
X149318624Y-109647000D01*
X152421345Y-109647000D01*
X155853001Y-113078657D01*
X155853000Y-117921344D01*
X153671345Y-120103000D01*
X146318625Y-120103000D01*
X146250000Y-120096241D01*
X146181375Y-120103000D01*
X145976140Y-120123214D01*
X145712805Y-120203096D01*
X145470113Y-120332817D01*
X145257392Y-120507392D01*
X145213641Y-120560703D01*
X140310704Y-125463641D01*
X140257393Y-125507392D01*
X140082818Y-125720113D01*
X139972169Y-125927123D01*
X139953097Y-125962805D01*
X139873214Y-126226141D01*
X139846241Y-126500000D01*
X139853001Y-126568634D01*
X139853000Y-128171344D01*
X138421345Y-129603000D01*
X129828656Y-129603000D01*
X126397000Y-126171345D01*
X126397000Y-120068624D01*
X126403759Y-120000000D01*
X126397000Y-119931375D01*
X126397000Y-118578655D01*
X129689302Y-115286355D01*
X129742608Y-115242608D01*
X129917183Y-115029887D01*
X130046904Y-114787195D01*
X130126786Y-114523860D01*
X130144041Y-114348667D01*
X130153759Y-114250001D01*
X130147000Y-114181376D01*
X130147000Y-111578655D01*
X131064296Y-110661360D01*
X131117608Y-110617608D01*
X131292183Y-110404887D01*
X131348164Y-110300153D01*
X131421904Y-110162196D01*
X131501786Y-109898860D01*
X131528759Y-109625000D01*
X131522000Y-109556375D01*
X131522000Y-108203655D01*
X135328656Y-104397000D01*
X135931375Y-104397000D01*
X136000000Y-104403759D01*
%TA.AperFunction,Conductor*%
D17*
G36*
X136000000Y-104403759D02*
G01*
X136068625Y-104397000D01*
X137681375Y-104397000D01*
X137750000Y-104403759D01*
X137818625Y-104397000D01*
X139681375Y-104397000D01*
X139750000Y-104403759D01*
X139818625Y-104397000D01*
X141671344Y-104397000D01*
X142713645Y-105439302D01*
X142757392Y-105492608D01*
X142970113Y-105667183D01*
X143212805Y-105796904D01*
X143431930Y-105863375D01*
X143476140Y-105876786D01*
X143749999Y-105903759D01*
X143818624Y-105897000D01*
X144921345Y-105897000D01*
X146810697Y-107786353D01*
X146810702Y-107786357D01*
X148213645Y-109189302D01*
X148257392Y-109242608D01*
X148470113Y-109417183D01*
X148712805Y-109546904D01*
X148956766Y-109620909D01*
X148976140Y-109626786D01*
X149249999Y-109653759D01*
X149318624Y-109647000D01*
X152421345Y-109647000D01*
X155853001Y-113078657D01*
X155853000Y-117921344D01*
X153671345Y-120103000D01*
X146318625Y-120103000D01*
X146250000Y-120096241D01*
X146181375Y-120103000D01*
X145976140Y-120123214D01*
X145712805Y-120203096D01*
X145470113Y-120332817D01*
X145257392Y-120507392D01*
X145213641Y-120560703D01*
X140310704Y-125463641D01*
X140257393Y-125507392D01*
X140082818Y-125720113D01*
X139972169Y-125927123D01*
X139953097Y-125962805D01*
X139873214Y-126226141D01*
X139846241Y-126500000D01*
X139853001Y-126568634D01*
X139853000Y-128171344D01*
X138421345Y-129603000D01*
X129828656Y-129603000D01*
X126397000Y-126171345D01*
X126397000Y-120068624D01*
X126403759Y-120000000D01*
X126397000Y-119931375D01*
X126397000Y-118578655D01*
X129689302Y-115286355D01*
X129742608Y-115242608D01*
X129917183Y-115029887D01*
X130046904Y-114787195D01*
X130126786Y-114523860D01*
X130144041Y-114348667D01*
X130153759Y-114250001D01*
X130147000Y-114181376D01*
X130147000Y-111578655D01*
X131064296Y-110661360D01*
X131117608Y-110617608D01*
X131292183Y-110404887D01*
X131348164Y-110300153D01*
X131421904Y-110162196D01*
X131501786Y-109898860D01*
X131528759Y-109625000D01*
X131522000Y-109556375D01*
X131522000Y-108203655D01*
X135328656Y-104397000D01*
X135931375Y-104397000D01*
X136000000Y-104403759D01*
G37*
%TD.AperFunction*%
D16*
X152353000Y-76078656D02*
X152353001Y-77671343D01*
X151560702Y-78463643D01*
X151560697Y-78463647D01*
X138435705Y-91588640D01*
X138382392Y-91632393D01*
X138338646Y-91685698D01*
X137060704Y-92963641D01*
X137007392Y-93007393D01*
X136832817Y-93220114D01*
X136703096Y-93462806D01*
X136645484Y-93652728D01*
X136623214Y-93726141D01*
X136596241Y-94000000D01*
X136603000Y-94068625D01*
X136603001Y-96681366D01*
X136596241Y-96750000D01*
X136603000Y-96818625D01*
X136603001Y-100421342D01*
X135421345Y-101603000D01*
X134818625Y-101603000D01*
X134750000Y-101596241D01*
X134476140Y-101623214D01*
X134212804Y-101703096D01*
X134055468Y-101787194D01*
X133970113Y-101832817D01*
X133757392Y-102007392D01*
X133713641Y-102060703D01*
X129185705Y-106588640D01*
X129132392Y-106632393D01*
X129088646Y-106685698D01*
X127810704Y-107963641D01*
X127757392Y-108007393D01*
X127582817Y-108220114D01*
X127453096Y-108462806D01*
X127406138Y-108617607D01*
X127373214Y-108726141D01*
X127346241Y-109000000D01*
X127353000Y-109068625D01*
X127353001Y-110931366D01*
X127346241Y-111000000D01*
X127353000Y-111068625D01*
X127353001Y-113671342D01*
X124171345Y-116853000D01*
X123318625Y-116853000D01*
X123250000Y-116846241D01*
X123181375Y-116853000D01*
X118828657Y-116853000D01*
X116036362Y-114060707D01*
X116036353Y-114060696D01*
X113647000Y-111671345D01*
X113647000Y-103828655D01*
X115189306Y-102286351D01*
X115242607Y-102242608D01*
X115286355Y-102189302D01*
X115381954Y-102072813D01*
X115417183Y-102029887D01*
X115546904Y-101787195D01*
X115626786Y-101523860D01*
X115647000Y-101318625D01*
X115647000Y-101318624D01*
X115653759Y-101250001D01*
X115647000Y-101181375D01*
X115647000Y-99318624D01*
X115653759Y-99250001D01*
X115647000Y-99181375D01*
X115647000Y-92068625D01*
X115653759Y-92000000D01*
X115637171Y-91831575D01*
X115626786Y-91726140D01*
X115573325Y-91549902D01*
X115546904Y-91462804D01*
X115417183Y-91220113D01*
X115409539Y-91210799D01*
X115242608Y-91007392D01*
X115189297Y-90963641D01*
X112647000Y-88421345D01*
X112647000Y-86578655D01*
X117786353Y-81439303D01*
X117786357Y-81439298D01*
X118328656Y-80897000D01*
X120181375Y-80897000D01*
X120250000Y-80903759D01*
X120318625Y-80897000D01*
X121681375Y-80897000D01*
X121749999Y-80903759D01*
X121818624Y-80897000D01*
X122681375Y-80897000D01*
X122750000Y-80903759D01*
X122818625Y-80897000D01*
X132431375Y-80897000D01*
X132500000Y-80903759D01*
X132568625Y-80897000D01*
X132773860Y-80876786D01*
X133037195Y-80796904D01*
X133279887Y-80667183D01*
X133492608Y-80492608D01*
X133536363Y-80439292D01*
X134578656Y-79397000D01*
X135431375Y-79397000D01*
X135500000Y-79403759D01*
X135568625Y-79397000D01*
X135773860Y-79376786D01*
X136037195Y-79296904D01*
X136279887Y-79167183D01*
X136492608Y-78992608D01*
X136536364Y-78939291D01*
X139828656Y-75647000D01*
X151921345Y-75647000D01*
X152353000Y-76078656D01*
%TA.AperFunction,Conductor*%
D17*
G36*
X152353000Y-76078656D02*
G01*
X152353001Y-77671343D01*
X151560702Y-78463643D01*
X151560697Y-78463647D01*
X138435705Y-91588640D01*
X138382392Y-91632393D01*
X138338646Y-91685698D01*
X137060704Y-92963641D01*
X137007392Y-93007393D01*
X136832817Y-93220114D01*
X136703096Y-93462806D01*
X136645484Y-93652728D01*
X136623214Y-93726141D01*
X136596241Y-94000000D01*
X136603000Y-94068625D01*
X136603001Y-96681366D01*
X136596241Y-96750000D01*
X136603000Y-96818625D01*
X136603001Y-100421342D01*
X135421345Y-101603000D01*
X134818625Y-101603000D01*
X134750000Y-101596241D01*
X134476140Y-101623214D01*
X134212804Y-101703096D01*
X134055468Y-101787194D01*
X133970113Y-101832817D01*
X133757392Y-102007392D01*
X133713641Y-102060703D01*
X129185705Y-106588640D01*
X129132392Y-106632393D01*
X129088646Y-106685698D01*
X127810704Y-107963641D01*
X127757392Y-108007393D01*
X127582817Y-108220114D01*
X127453096Y-108462806D01*
X127406138Y-108617607D01*
X127373214Y-108726141D01*
X127346241Y-109000000D01*
X127353000Y-109068625D01*
X127353001Y-110931366D01*
X127346241Y-111000000D01*
X127353000Y-111068625D01*
X127353001Y-113671342D01*
X124171345Y-116853000D01*
X123318625Y-116853000D01*
X123250000Y-116846241D01*
X123181375Y-116853000D01*
X118828657Y-116853000D01*
X116036362Y-114060707D01*
X116036353Y-114060696D01*
X113647000Y-111671345D01*
X113647000Y-103828655D01*
X115189306Y-102286351D01*
X115242607Y-102242608D01*
X115286355Y-102189302D01*
X115381954Y-102072813D01*
X115417183Y-102029887D01*
X115546904Y-101787195D01*
X115626786Y-101523860D01*
X115647000Y-101318625D01*
X115647000Y-101318624D01*
X115653759Y-101250001D01*
X115647000Y-101181375D01*
X115647000Y-99318624D01*
X115653759Y-99250001D01*
X115647000Y-99181375D01*
X115647000Y-92068625D01*
X115653759Y-92000000D01*
X115637171Y-91831575D01*
X115626786Y-91726140D01*
X115573325Y-91549902D01*
X115546904Y-91462804D01*
X115417183Y-91220113D01*
X115409539Y-91210799D01*
X115242608Y-91007392D01*
X115189297Y-90963641D01*
X112647000Y-88421345D01*
X112647000Y-86578655D01*
X117786353Y-81439303D01*
X117786357Y-81439298D01*
X118328656Y-80897000D01*
X120181375Y-80897000D01*
X120250000Y-80903759D01*
X120318625Y-80897000D01*
X121681375Y-80897000D01*
X121749999Y-80903759D01*
X121818624Y-80897000D01*
X122681375Y-80897000D01*
X122750000Y-80903759D01*
X122818625Y-80897000D01*
X132431375Y-80897000D01*
X132500000Y-80903759D01*
X132568625Y-80897000D01*
X132773860Y-80876786D01*
X133037195Y-80796904D01*
X133279887Y-80667183D01*
X133492608Y-80492608D01*
X133536363Y-80439292D01*
X134578656Y-79397000D01*
X135431375Y-79397000D01*
X135500000Y-79403759D01*
X135568625Y-79397000D01*
X135773860Y-79376786D01*
X136037195Y-79296904D01*
X136279887Y-79167183D01*
X136492608Y-78992608D01*
X136536364Y-78939291D01*
X139828656Y-75647000D01*
X151921345Y-75647000D01*
X152353000Y-76078656D01*
G37*
%TD.AperFunction*%
%TD*%
D16*
%TO.N,VCC*%
X124873000Y-72123000D02*
X122000000Y-72123000D01*
X121975224Y-72125440D01*
X121951399Y-72132667D01*
X121929443Y-72144403D01*
X121917349Y-72153574D01*
X116667349Y-76653574D01*
X116650126Y-76671552D01*
X116636740Y-76692543D01*
X116627707Y-76715743D01*
X116623247Y-76742078D01*
X116495979Y-78778365D01*
X115810702Y-79463643D01*
X115810697Y-79463647D01*
X110435702Y-84838643D01*
X110435697Y-84838647D01*
X110310699Y-84963645D01*
X110257393Y-85007392D01*
X110213646Y-85060698D01*
X108810698Y-86463647D01*
X108757393Y-86507393D01*
X108679676Y-86602092D01*
X108582818Y-86720114D01*
X108453097Y-86962805D01*
X108373214Y-87226141D01*
X108346241Y-87500000D01*
X108373214Y-87773859D01*
X108453097Y-88037195D01*
X108582818Y-88279886D01*
X108757393Y-88492607D01*
X108810698Y-88536353D01*
X110213649Y-89939306D01*
X110257392Y-89992607D01*
X110310694Y-90036351D01*
X110310696Y-90036353D01*
X110310707Y-90036362D01*
X112853001Y-92578657D01*
X112853000Y-95318624D01*
X112853001Y-95318634D01*
X112853001Y-95998973D01*
X109486974Y-99365000D01*
X102760092Y-99365000D01*
X102778607Y-98279882D01*
X102790035Y-98143137D01*
X103085000Y-98143137D01*
X103085000Y-98356863D01*
X103126696Y-98566483D01*
X103208485Y-98763940D01*
X103327225Y-98941647D01*
X103478353Y-99092775D01*
X103656060Y-99211515D01*
X103853517Y-99293304D01*
X104063137Y-99335000D01*
X104276863Y-99335000D01*
X104486483Y-99293304D01*
X104683940Y-99211515D01*
X104861647Y-99092775D01*
X105012775Y-98941647D01*
X105131515Y-98763940D01*
X105213304Y-98566483D01*
X105228901Y-98488072D01*
X106680000Y-98488072D01*
X106804482Y-98475812D01*
X106924180Y-98439502D01*
X107034494Y-98380537D01*
X107131185Y-98301185D01*
X107210537Y-98204494D01*
X107269502Y-98094180D01*
X107305812Y-97974482D01*
X107318072Y-97850000D01*
X107318072Y-97150000D01*
X107305812Y-97025518D01*
X107269502Y-96905820D01*
X107210537Y-96795506D01*
X107131185Y-96698815D01*
X107034494Y-96619463D01*
X106924180Y-96560498D01*
X106804482Y-96524188D01*
X106680000Y-96511928D01*
X106318072Y-96511928D01*
X106318072Y-95600000D01*
X106305812Y-95475518D01*
X106269502Y-95355820D01*
X106210537Y-95245506D01*
X106131185Y-95148815D01*
X106034494Y-95069463D01*
X105924180Y-95010498D01*
X105804482Y-94974188D01*
X105680000Y-94961928D01*
X104880000Y-94961928D01*
X104755518Y-94974188D01*
X104635820Y-95010498D01*
X104525506Y-95069463D01*
X104428815Y-95148815D01*
X104349463Y-95245506D01*
X104290498Y-95355820D01*
X104254188Y-95475518D01*
X104241928Y-95600000D01*
X104241928Y-96600000D01*
X104254188Y-96724482D01*
X104290498Y-96844180D01*
X104349463Y-96954494D01*
X104428815Y-97051185D01*
X104525506Y-97130537D01*
X104542928Y-97139849D01*
X104541928Y-97150000D01*
X104541928Y-97229662D01*
X104486483Y-97206696D01*
X104276863Y-97165000D01*
X104063137Y-97165000D01*
X103853517Y-97206696D01*
X103656060Y-97288485D01*
X103478353Y-97407225D01*
X103327225Y-97558353D01*
X103208485Y-97736060D01*
X103126696Y-97933517D01*
X103085000Y-98143137D01*
X102790035Y-98143137D01*
X102865678Y-97238072D01*
X103470000Y-97238072D01*
X103594482Y-97225812D01*
X103714180Y-97189502D01*
X103824494Y-97130537D01*
X103921185Y-97051185D01*
X104000537Y-96954494D01*
X104059502Y-96844180D01*
X104095812Y-96724482D01*
X104108072Y-96600000D01*
X104108072Y-95600000D01*
X104095812Y-95475518D01*
X104059502Y-95355820D01*
X104000537Y-95245506D01*
X103921185Y-95148815D01*
X103824494Y-95069463D01*
X103714180Y-95010498D01*
X103594482Y-94974188D01*
X103470000Y-94961928D01*
X103126785Y-94961928D01*
X103306719Y-93768999D01*
X103793749Y-91549706D01*
X104426782Y-89367594D01*
X105203052Y-87232203D01*
X106119133Y-85152960D01*
X107170992Y-83139015D01*
X108354015Y-81199200D01*
X109663000Y-79342048D01*
X111092189Y-77575730D01*
X112635284Y-75908027D01*
X114285522Y-74346247D01*
X116035631Y-72897273D01*
X117877934Y-71567463D01*
X119804304Y-70362683D01*
X121640863Y-69377000D01*
X124873000Y-69377000D01*
X124873000Y-72123000D01*
%TA.AperFunction,Conductor*%
D17*
G36*
X124873000Y-72123000D02*
G01*
X122000000Y-72123000D01*
X121975224Y-72125440D01*
X121951399Y-72132667D01*
X121929443Y-72144403D01*
X121917349Y-72153574D01*
X116667349Y-76653574D01*
X116650126Y-76671552D01*
X116636740Y-76692543D01*
X116627707Y-76715743D01*
X116623247Y-76742078D01*
X116495979Y-78778365D01*
X115810702Y-79463643D01*
X115810697Y-79463647D01*
X110435702Y-84838643D01*
X110435697Y-84838647D01*
X110310699Y-84963645D01*
X110257393Y-85007392D01*
X110213646Y-85060698D01*
X108810698Y-86463647D01*
X108757393Y-86507393D01*
X108679676Y-86602092D01*
X108582818Y-86720114D01*
X108453097Y-86962805D01*
X108373214Y-87226141D01*
X108346241Y-87500000D01*
X108373214Y-87773859D01*
X108453097Y-88037195D01*
X108582818Y-88279886D01*
X108757393Y-88492607D01*
X108810698Y-88536353D01*
X110213649Y-89939306D01*
X110257392Y-89992607D01*
X110310694Y-90036351D01*
X110310696Y-90036353D01*
X110310707Y-90036362D01*
X112853001Y-92578657D01*
X112853000Y-95318624D01*
X112853001Y-95318634D01*
X112853001Y-95998973D01*
X109486974Y-99365000D01*
X102760092Y-99365000D01*
X102778607Y-98279882D01*
X102790035Y-98143137D01*
X103085000Y-98143137D01*
X103085000Y-98356863D01*
X103126696Y-98566483D01*
X103208485Y-98763940D01*
X103327225Y-98941647D01*
X103478353Y-99092775D01*
X103656060Y-99211515D01*
X103853517Y-99293304D01*
X104063137Y-99335000D01*
X104276863Y-99335000D01*
X104486483Y-99293304D01*
X104683940Y-99211515D01*
X104861647Y-99092775D01*
X105012775Y-98941647D01*
X105131515Y-98763940D01*
X105213304Y-98566483D01*
X105228901Y-98488072D01*
X106680000Y-98488072D01*
X106804482Y-98475812D01*
X106924180Y-98439502D01*
X107034494Y-98380537D01*
X107131185Y-98301185D01*
X107210537Y-98204494D01*
X107269502Y-98094180D01*
X107305812Y-97974482D01*
X107318072Y-97850000D01*
X107318072Y-97150000D01*
X107305812Y-97025518D01*
X107269502Y-96905820D01*
X107210537Y-96795506D01*
X107131185Y-96698815D01*
X107034494Y-96619463D01*
X106924180Y-96560498D01*
X106804482Y-96524188D01*
X106680000Y-96511928D01*
X106318072Y-96511928D01*
X106318072Y-95600000D01*
X106305812Y-95475518D01*
X106269502Y-95355820D01*
X106210537Y-95245506D01*
X106131185Y-95148815D01*
X106034494Y-95069463D01*
X105924180Y-95010498D01*
X105804482Y-94974188D01*
X105680000Y-94961928D01*
X104880000Y-94961928D01*
X104755518Y-94974188D01*
X104635820Y-95010498D01*
X104525506Y-95069463D01*
X104428815Y-95148815D01*
X104349463Y-95245506D01*
X104290498Y-95355820D01*
X104254188Y-95475518D01*
X104241928Y-95600000D01*
X104241928Y-96600000D01*
X104254188Y-96724482D01*
X104290498Y-96844180D01*
X104349463Y-96954494D01*
X104428815Y-97051185D01*
X104525506Y-97130537D01*
X104542928Y-97139849D01*
X104541928Y-97150000D01*
X104541928Y-97229662D01*
X104486483Y-97206696D01*
X104276863Y-97165000D01*
X104063137Y-97165000D01*
X103853517Y-97206696D01*
X103656060Y-97288485D01*
X103478353Y-97407225D01*
X103327225Y-97558353D01*
X103208485Y-97736060D01*
X103126696Y-97933517D01*
X103085000Y-98143137D01*
X102790035Y-98143137D01*
X102865678Y-97238072D01*
X103470000Y-97238072D01*
X103594482Y-97225812D01*
X103714180Y-97189502D01*
X103824494Y-97130537D01*
X103921185Y-97051185D01*
X104000537Y-96954494D01*
X104059502Y-96844180D01*
X104095812Y-96724482D01*
X104108072Y-96600000D01*
X104108072Y-95600000D01*
X104095812Y-95475518D01*
X104059502Y-95355820D01*
X104000537Y-95245506D01*
X103921185Y-95148815D01*
X103824494Y-95069463D01*
X103714180Y-95010498D01*
X103594482Y-94974188D01*
X103470000Y-94961928D01*
X103126785Y-94961928D01*
X103306719Y-93768999D01*
X103793749Y-91549706D01*
X104426782Y-89367594D01*
X105203052Y-87232203D01*
X106119133Y-85152960D01*
X107170992Y-83139015D01*
X108354015Y-81199200D01*
X109663000Y-79342048D01*
X111092189Y-77575730D01*
X112635284Y-75908027D01*
X114285522Y-74346247D01*
X116035631Y-72897273D01*
X117877934Y-71567463D01*
X119804304Y-70362683D01*
X121640863Y-69377000D01*
X124873000Y-69377000D01*
X124873000Y-72123000D01*
G37*
%TD.AperFunction*%
%TD*%
D16*
%TO.N,Net-(D1-Pad1)*%
X114123000Y-101197394D02*
X112160197Y-103160197D01*
X112144403Y-103179443D01*
X112132667Y-103201399D01*
X112125440Y-103225224D01*
X112123000Y-103250000D01*
X112123000Y-104911996D01*
X110595577Y-103166370D01*
X110577425Y-103149331D01*
X110556298Y-103136160D01*
X110533007Y-103127364D01*
X110500000Y-103123000D01*
X106318072Y-103123000D01*
X106318072Y-102900000D01*
X106305812Y-102775518D01*
X106269502Y-102655820D01*
X106210537Y-102545506D01*
X106131185Y-102448815D01*
X106034494Y-102369463D01*
X105924180Y-102310498D01*
X105804482Y-102274188D01*
X105680000Y-102261928D01*
X104880000Y-102261928D01*
X104755518Y-102274188D01*
X104635820Y-102310498D01*
X104525506Y-102369463D01*
X104428815Y-102448815D01*
X104349463Y-102545506D01*
X104290498Y-102655820D01*
X104254188Y-102775518D01*
X104241928Y-102900000D01*
X104241928Y-103123000D01*
X104108072Y-103123000D01*
X104108072Y-102900000D01*
X104095812Y-102775518D01*
X104059502Y-102655820D01*
X104000537Y-102545506D01*
X103921185Y-102448815D01*
X103824494Y-102369463D01*
X103714180Y-102310498D01*
X103594482Y-102274188D01*
X103470000Y-102261928D01*
X102824164Y-102261928D01*
X102769006Y-101143137D01*
X103085000Y-101143137D01*
X103085000Y-101356863D01*
X103126696Y-101566483D01*
X103208485Y-101763940D01*
X103327225Y-101941647D01*
X103478353Y-102092775D01*
X103656060Y-102211515D01*
X103853517Y-102293304D01*
X104063137Y-102335000D01*
X104276863Y-102335000D01*
X104486483Y-102293304D01*
X104683940Y-102211515D01*
X104861647Y-102092775D01*
X105012775Y-101941647D01*
X105131515Y-101763940D01*
X105213304Y-101566483D01*
X105255000Y-101356863D01*
X105255000Y-101143137D01*
X105213304Y-100933517D01*
X105131515Y-100736060D01*
X105012775Y-100558353D01*
X104861647Y-100407225D01*
X104683940Y-100288485D01*
X104486483Y-100206696D01*
X104276863Y-100165000D01*
X104063137Y-100165000D01*
X103853517Y-100206696D01*
X103656060Y-100288485D01*
X103478353Y-100407225D01*
X103327225Y-100558353D01*
X103208485Y-100736060D01*
X103126696Y-100933517D01*
X103085000Y-101143137D01*
X102769006Y-101143137D01*
X102739845Y-100551658D01*
X102747091Y-100127000D01*
X109750000Y-100127000D01*
X109774776Y-100124560D01*
X109798601Y-100117333D01*
X109820557Y-100105597D01*
X109839803Y-100089803D01*
X114123000Y-95806606D01*
X114123000Y-101197394D01*
%TA.AperFunction,Conductor*%
D17*
G36*
X114123000Y-101197394D02*
G01*
X112160197Y-103160197D01*
X112144403Y-103179443D01*
X112132667Y-103201399D01*
X112125440Y-103225224D01*
X112123000Y-103250000D01*
X112123000Y-104911996D01*
X110595577Y-103166370D01*
X110577425Y-103149331D01*
X110556298Y-103136160D01*
X110533007Y-103127364D01*
X110500000Y-103123000D01*
X106318072Y-103123000D01*
X106318072Y-102900000D01*
X106305812Y-102775518D01*
X106269502Y-102655820D01*
X106210537Y-102545506D01*
X106131185Y-102448815D01*
X106034494Y-102369463D01*
X105924180Y-102310498D01*
X105804482Y-102274188D01*
X105680000Y-102261928D01*
X104880000Y-102261928D01*
X104755518Y-102274188D01*
X104635820Y-102310498D01*
X104525506Y-102369463D01*
X104428815Y-102448815D01*
X104349463Y-102545506D01*
X104290498Y-102655820D01*
X104254188Y-102775518D01*
X104241928Y-102900000D01*
X104241928Y-103123000D01*
X104108072Y-103123000D01*
X104108072Y-102900000D01*
X104095812Y-102775518D01*
X104059502Y-102655820D01*
X104000537Y-102545506D01*
X103921185Y-102448815D01*
X103824494Y-102369463D01*
X103714180Y-102310498D01*
X103594482Y-102274188D01*
X103470000Y-102261928D01*
X102824164Y-102261928D01*
X102769006Y-101143137D01*
X103085000Y-101143137D01*
X103085000Y-101356863D01*
X103126696Y-101566483D01*
X103208485Y-101763940D01*
X103327225Y-101941647D01*
X103478353Y-102092775D01*
X103656060Y-102211515D01*
X103853517Y-102293304D01*
X104063137Y-102335000D01*
X104276863Y-102335000D01*
X104486483Y-102293304D01*
X104683940Y-102211515D01*
X104861647Y-102092775D01*
X105012775Y-101941647D01*
X105131515Y-101763940D01*
X105213304Y-101566483D01*
X105255000Y-101356863D01*
X105255000Y-101143137D01*
X105213304Y-100933517D01*
X105131515Y-100736060D01*
X105012775Y-100558353D01*
X104861647Y-100407225D01*
X104683940Y-100288485D01*
X104486483Y-100206696D01*
X104276863Y-100165000D01*
X104063137Y-100165000D01*
X103853517Y-100206696D01*
X103656060Y-100288485D01*
X103478353Y-100407225D01*
X103327225Y-100558353D01*
X103208485Y-100736060D01*
X103126696Y-100933517D01*
X103085000Y-101143137D01*
X102769006Y-101143137D01*
X102739845Y-100551658D01*
X102747091Y-100127000D01*
X109750000Y-100127000D01*
X109774776Y-100124560D01*
X109798601Y-100117333D01*
X109820557Y-100105597D01*
X109839803Y-100089803D01*
X114123000Y-95806606D01*
X114123000Y-101197394D01*
G37*
%TD.AperFunction*%
%TD*%
M02*
