%TF.GenerationSoftware,KiCad,Pcbnew,(5.1.10)-1*%
%TF.CreationDate,2021-10-20T07:52:06+02:00*%
%TF.ProjectId,TVZ_kuglica,54565a5f-6b75-4676-9c69-63612e6b6963,rev?*%
%TF.SameCoordinates,Original*%
%TF.FileFunction,Copper,L2,Bot*%
%TF.FilePolarity,Positive*%
%FSLAX46Y46*%
G04 Gerber Fmt 4.6, Leading zero omitted, Abs format (unit mm)*
G04 Created by KiCad (PCBNEW (5.1.10)-1) date 2021-10-20 07:52:06*
%MOMM*%
%LPD*%
G01*
G04 APERTURE LIST*
%TA.AperFunction,SMDPad,CuDef*%
%ADD10O,6.000000X3.000000*%
%TD*%
%TA.AperFunction,SMDPad,CuDef*%
%ADD11R,1.500000X0.700000*%
%TD*%
%TA.AperFunction,SMDPad,CuDef*%
%ADD12R,0.800000X1.000000*%
%TD*%
%TA.AperFunction,ViaPad*%
%ADD13C,0.800000*%
%TD*%
%TA.AperFunction,Conductor*%
%ADD14C,0.762000*%
%TD*%
%TA.AperFunction,Conductor*%
%ADD15C,0.254000*%
%TD*%
%TA.AperFunction,Conductor*%
%ADD16C,0.100000*%
%TD*%
G04 APERTURE END LIST*
D10*
%TO.P,BT1,1*%
%TO.N,VCC*%
X126500000Y-71750000D03*
%TO.P,BT1,2*%
%TO.N,GND*%
X145500000Y-71750000D03*
%TD*%
D11*
%TO.P,SW1,1*%
%TO.N,Net-(R1-Pad1)*%
X105930000Y-102000000D03*
%TO.P,SW1,2*%
%TO.N,VCC*%
X105930000Y-99000000D03*
%TO.P,SW1,3*%
%TO.N,Net-(SW1-Pad3)*%
X105930000Y-97500000D03*
D12*
%TO.P,SW1,*%
%TO.N,*%
X103070000Y-103400000D03*
X103070000Y-96100000D03*
X105280000Y-96100000D03*
X105280000Y-103400000D03*
%TD*%
%TO.P,R1,1*%
%TO.N,Net-(R1-Pad1)*%
%TA.AperFunction,SMDPad,CuDef*%
G36*
G01*
X106775000Y-87775000D02*
X106775000Y-87225000D01*
G75*
G02*
X106975000Y-87025000I200000J0D01*
G01*
X107375000Y-87025000D01*
G75*
G02*
X107575000Y-87225000I0J-200000D01*
G01*
X107575000Y-87775000D01*
G75*
G02*
X107375000Y-87975000I-200000J0D01*
G01*
X106975000Y-87975000D01*
G75*
G02*
X106775000Y-87775000I0J200000D01*
G01*
G37*
%TD.AperFunction*%
%TO.P,R1,2*%
%TO.N,Net-(D1-Pad1)*%
%TA.AperFunction,SMDPad,CuDef*%
G36*
G01*
X108425000Y-87775000D02*
X108425000Y-87225000D01*
G75*
G02*
X108625000Y-87025000I200000J0D01*
G01*
X109025000Y-87025000D01*
G75*
G02*
X109225000Y-87225000I0J-200000D01*
G01*
X109225000Y-87775000D01*
G75*
G02*
X109025000Y-87975000I-200000J0D01*
G01*
X108625000Y-87975000D01*
G75*
G02*
X108425000Y-87775000I0J200000D01*
G01*
G37*
%TD.AperFunction*%
%TD*%
%TO.P,R2,2*%
%TO.N,Net-(D2-Pad1)*%
%TA.AperFunction,SMDPad,CuDef*%
G36*
G01*
X120175000Y-75025000D02*
X120175000Y-74475000D01*
G75*
G02*
X120375000Y-74275000I200000J0D01*
G01*
X120775000Y-74275000D01*
G75*
G02*
X120975000Y-74475000I0J-200000D01*
G01*
X120975000Y-75025000D01*
G75*
G02*
X120775000Y-75225000I-200000J0D01*
G01*
X120375000Y-75225000D01*
G75*
G02*
X120175000Y-75025000I0J200000D01*
G01*
G37*
%TD.AperFunction*%
%TO.P,R2,1*%
%TO.N,Net-(R1-Pad1)*%
%TA.AperFunction,SMDPad,CuDef*%
G36*
G01*
X118525000Y-75025000D02*
X118525000Y-74475000D01*
G75*
G02*
X118725000Y-74275000I200000J0D01*
G01*
X119125000Y-74275000D01*
G75*
G02*
X119325000Y-74475000I0J-200000D01*
G01*
X119325000Y-75025000D01*
G75*
G02*
X119125000Y-75225000I-200000J0D01*
G01*
X118725000Y-75225000D01*
G75*
G02*
X118525000Y-75025000I0J200000D01*
G01*
G37*
%TD.AperFunction*%
%TD*%
%TO.P,R3,1*%
%TO.N,Net-(R1-Pad1)*%
%TA.AperFunction,SMDPad,CuDef*%
G36*
G01*
X149525000Y-74525000D02*
X149525000Y-73975000D01*
G75*
G02*
X149725000Y-73775000I200000J0D01*
G01*
X150125000Y-73775000D01*
G75*
G02*
X150325000Y-73975000I0J-200000D01*
G01*
X150325000Y-74525000D01*
G75*
G02*
X150125000Y-74725000I-200000J0D01*
G01*
X149725000Y-74725000D01*
G75*
G02*
X149525000Y-74525000I0J200000D01*
G01*
G37*
%TD.AperFunction*%
%TO.P,R3,2*%
%TO.N,Net-(D3-Pad1)*%
%TA.AperFunction,SMDPad,CuDef*%
G36*
G01*
X151175000Y-74525000D02*
X151175000Y-73975000D01*
G75*
G02*
X151375000Y-73775000I200000J0D01*
G01*
X151775000Y-73775000D01*
G75*
G02*
X151975000Y-73975000I0J-200000D01*
G01*
X151975000Y-74525000D01*
G75*
G02*
X151775000Y-74725000I-200000J0D01*
G01*
X151375000Y-74725000D01*
G75*
G02*
X151175000Y-74525000I0J200000D01*
G01*
G37*
%TD.AperFunction*%
%TD*%
%TO.P,R4,2*%
%TO.N,Net-(D4-Pad1)*%
%TA.AperFunction,SMDPad,CuDef*%
G36*
G01*
X121675000Y-109275000D02*
X121675000Y-108725000D01*
G75*
G02*
X121875000Y-108525000I200000J0D01*
G01*
X122275000Y-108525000D01*
G75*
G02*
X122475000Y-108725000I0J-200000D01*
G01*
X122475000Y-109275000D01*
G75*
G02*
X122275000Y-109475000I-200000J0D01*
G01*
X121875000Y-109475000D01*
G75*
G02*
X121675000Y-109275000I0J200000D01*
G01*
G37*
%TD.AperFunction*%
%TO.P,R4,1*%
%TO.N,Net-(R1-Pad1)*%
%TA.AperFunction,SMDPad,CuDef*%
G36*
G01*
X120025000Y-109275000D02*
X120025000Y-108725000D01*
G75*
G02*
X120225000Y-108525000I200000J0D01*
G01*
X120625000Y-108525000D01*
G75*
G02*
X120825000Y-108725000I0J-200000D01*
G01*
X120825000Y-109275000D01*
G75*
G02*
X120625000Y-109475000I-200000J0D01*
G01*
X120225000Y-109475000D01*
G75*
G02*
X120025000Y-109275000I0J200000D01*
G01*
G37*
%TD.AperFunction*%
%TD*%
%TO.P,R5,1*%
%TO.N,Net-(R1-Pad1)*%
%TA.AperFunction,SMDPad,CuDef*%
G36*
G01*
X112025000Y-115275000D02*
X112025000Y-114725000D01*
G75*
G02*
X112225000Y-114525000I200000J0D01*
G01*
X112625000Y-114525000D01*
G75*
G02*
X112825000Y-114725000I0J-200000D01*
G01*
X112825000Y-115275000D01*
G75*
G02*
X112625000Y-115475000I-200000J0D01*
G01*
X112225000Y-115475000D01*
G75*
G02*
X112025000Y-115275000I0J200000D01*
G01*
G37*
%TD.AperFunction*%
%TO.P,R5,2*%
%TO.N,Net-(D5-Pad1)*%
%TA.AperFunction,SMDPad,CuDef*%
G36*
G01*
X113675000Y-115275000D02*
X113675000Y-114725000D01*
G75*
G02*
X113875000Y-114525000I200000J0D01*
G01*
X114275000Y-114525000D01*
G75*
G02*
X114475000Y-114725000I0J-200000D01*
G01*
X114475000Y-115275000D01*
G75*
G02*
X114275000Y-115475000I-200000J0D01*
G01*
X113875000Y-115475000D01*
G75*
G02*
X113675000Y-115275000I0J200000D01*
G01*
G37*
%TD.AperFunction*%
%TD*%
%TO.P,R6,2*%
%TO.N,Net-(D6-Pad1)*%
%TA.AperFunction,SMDPad,CuDef*%
G36*
G01*
X112925000Y-101525000D02*
X112925000Y-100975000D01*
G75*
G02*
X113125000Y-100775000I200000J0D01*
G01*
X113525000Y-100775000D01*
G75*
G02*
X113725000Y-100975000I0J-200000D01*
G01*
X113725000Y-101525000D01*
G75*
G02*
X113525000Y-101725000I-200000J0D01*
G01*
X113125000Y-101725000D01*
G75*
G02*
X112925000Y-101525000I0J200000D01*
G01*
G37*
%TD.AperFunction*%
%TO.P,R6,1*%
%TO.N,Net-(R1-Pad1)*%
%TA.AperFunction,SMDPad,CuDef*%
G36*
G01*
X111275000Y-101525000D02*
X111275000Y-100975000D01*
G75*
G02*
X111475000Y-100775000I200000J0D01*
G01*
X111875000Y-100775000D01*
G75*
G02*
X112075000Y-100975000I0J-200000D01*
G01*
X112075000Y-101525000D01*
G75*
G02*
X111875000Y-101725000I-200000J0D01*
G01*
X111475000Y-101725000D01*
G75*
G02*
X111275000Y-101525000I0J200000D01*
G01*
G37*
%TD.AperFunction*%
%TD*%
%TO.P,R7,1*%
%TO.N,Net-(R1-Pad1)*%
%TA.AperFunction,SMDPad,CuDef*%
G36*
G01*
X136275000Y-132025000D02*
X136275000Y-131475000D01*
G75*
G02*
X136475000Y-131275000I200000J0D01*
G01*
X136875000Y-131275000D01*
G75*
G02*
X137075000Y-131475000I0J-200000D01*
G01*
X137075000Y-132025000D01*
G75*
G02*
X136875000Y-132225000I-200000J0D01*
G01*
X136475000Y-132225000D01*
G75*
G02*
X136275000Y-132025000I0J200000D01*
G01*
G37*
%TD.AperFunction*%
%TO.P,R7,2*%
%TO.N,Net-(D7-Pad1)*%
%TA.AperFunction,SMDPad,CuDef*%
G36*
G01*
X137925000Y-132025000D02*
X137925000Y-131475000D01*
G75*
G02*
X138125000Y-131275000I200000J0D01*
G01*
X138525000Y-131275000D01*
G75*
G02*
X138725000Y-131475000I0J-200000D01*
G01*
X138725000Y-132025000D01*
G75*
G02*
X138525000Y-132225000I-200000J0D01*
G01*
X138125000Y-132225000D01*
G75*
G02*
X137925000Y-132025000I0J200000D01*
G01*
G37*
%TD.AperFunction*%
%TD*%
%TO.P,R8,2*%
%TO.N,Net-(D8-Pad1)*%
%TA.AperFunction,SMDPad,CuDef*%
G36*
G01*
X155925000Y-111025000D02*
X155925000Y-110475000D01*
G75*
G02*
X156125000Y-110275000I200000J0D01*
G01*
X156525000Y-110275000D01*
G75*
G02*
X156725000Y-110475000I0J-200000D01*
G01*
X156725000Y-111025000D01*
G75*
G02*
X156525000Y-111225000I-200000J0D01*
G01*
X156125000Y-111225000D01*
G75*
G02*
X155925000Y-111025000I0J200000D01*
G01*
G37*
%TD.AperFunction*%
%TO.P,R8,1*%
%TO.N,Net-(R1-Pad1)*%
%TA.AperFunction,SMDPad,CuDef*%
G36*
G01*
X154275000Y-111025000D02*
X154275000Y-110475000D01*
G75*
G02*
X154475000Y-110275000I200000J0D01*
G01*
X154875000Y-110275000D01*
G75*
G02*
X155075000Y-110475000I0J-200000D01*
G01*
X155075000Y-111025000D01*
G75*
G02*
X154875000Y-111225000I-200000J0D01*
G01*
X154475000Y-111225000D01*
G75*
G02*
X154275000Y-111025000I0J200000D01*
G01*
G37*
%TD.AperFunction*%
%TD*%
%TO.P,R9,1*%
%TO.N,Net-(R1-Pad1)*%
%TA.AperFunction,SMDPad,CuDef*%
G36*
G01*
X129525000Y-74525000D02*
X129525000Y-73975000D01*
G75*
G02*
X129725000Y-73775000I200000J0D01*
G01*
X130125000Y-73775000D01*
G75*
G02*
X130325000Y-73975000I0J-200000D01*
G01*
X130325000Y-74525000D01*
G75*
G02*
X130125000Y-74725000I-200000J0D01*
G01*
X129725000Y-74725000D01*
G75*
G02*
X129525000Y-74525000I0J200000D01*
G01*
G37*
%TD.AperFunction*%
%TO.P,R9,2*%
%TO.N,Net-(D9-Pad1)*%
%TA.AperFunction,SMDPad,CuDef*%
G36*
G01*
X131175000Y-74525000D02*
X131175000Y-73975000D01*
G75*
G02*
X131375000Y-73775000I200000J0D01*
G01*
X131775000Y-73775000D01*
G75*
G02*
X131975000Y-73975000I0J-200000D01*
G01*
X131975000Y-74525000D01*
G75*
G02*
X131775000Y-74725000I-200000J0D01*
G01*
X131375000Y-74725000D01*
G75*
G02*
X131175000Y-74525000I0J200000D01*
G01*
G37*
%TD.AperFunction*%
%TD*%
%TO.P,R10,2*%
%TO.N,Net-(D10-Pad1)*%
%TA.AperFunction,SMDPad,CuDef*%
G36*
G01*
X121675000Y-98775000D02*
X121675000Y-98225000D01*
G75*
G02*
X121875000Y-98025000I200000J0D01*
G01*
X122275000Y-98025000D01*
G75*
G02*
X122475000Y-98225000I0J-200000D01*
G01*
X122475000Y-98775000D01*
G75*
G02*
X122275000Y-98975000I-200000J0D01*
G01*
X121875000Y-98975000D01*
G75*
G02*
X121675000Y-98775000I0J200000D01*
G01*
G37*
%TD.AperFunction*%
%TO.P,R10,1*%
%TO.N,Net-(R1-Pad1)*%
%TA.AperFunction,SMDPad,CuDef*%
G36*
G01*
X120025000Y-98775000D02*
X120025000Y-98225000D01*
G75*
G02*
X120225000Y-98025000I200000J0D01*
G01*
X120625000Y-98025000D01*
G75*
G02*
X120825000Y-98225000I0J-200000D01*
G01*
X120825000Y-98775000D01*
G75*
G02*
X120625000Y-98975000I-200000J0D01*
G01*
X120225000Y-98975000D01*
G75*
G02*
X120025000Y-98775000I0J200000D01*
G01*
G37*
%TD.AperFunction*%
%TD*%
%TO.P,R11,1*%
%TO.N,Net-(R1-Pad1)*%
%TA.AperFunction,SMDPad,CuDef*%
G36*
G01*
X120025000Y-127025000D02*
X120025000Y-126475000D01*
G75*
G02*
X120225000Y-126275000I200000J0D01*
G01*
X120625000Y-126275000D01*
G75*
G02*
X120825000Y-126475000I0J-200000D01*
G01*
X120825000Y-127025000D01*
G75*
G02*
X120625000Y-127225000I-200000J0D01*
G01*
X120225000Y-127225000D01*
G75*
G02*
X120025000Y-127025000I0J200000D01*
G01*
G37*
%TD.AperFunction*%
%TO.P,R11,2*%
%TO.N,Net-(D11-Pad1)*%
%TA.AperFunction,SMDPad,CuDef*%
G36*
G01*
X121675000Y-127025000D02*
X121675000Y-126475000D01*
G75*
G02*
X121875000Y-126275000I200000J0D01*
G01*
X122275000Y-126275000D01*
G75*
G02*
X122475000Y-126475000I0J-200000D01*
G01*
X122475000Y-127025000D01*
G75*
G02*
X122275000Y-127225000I-200000J0D01*
G01*
X121875000Y-127225000D01*
G75*
G02*
X121675000Y-127025000I0J200000D01*
G01*
G37*
%TD.AperFunction*%
%TD*%
D13*
%TO.N,Net-(D1-Pad1)*%
X109750000Y-87500000D03*
%TO.N,GND*%
X156500000Y-74250000D03*
X136500000Y-74250000D03*
X125500000Y-74750000D03*
X113750000Y-87500000D03*
X118250000Y-101250000D03*
X142250000Y-98500000D03*
X132750000Y-109000000D03*
X119000000Y-115000000D03*
X129000000Y-126750000D03*
X145250000Y-129750000D03*
X161250000Y-110750000D03*
X139250000Y-93000000D03*
X116000000Y-84750000D03*
X116000000Y-75250000D03*
X140000000Y-74500000D03*
X157750000Y-91250000D03*
X136000000Y-105000000D03*
X117250000Y-104000000D03*
X107500000Y-107250000D03*
X134250000Y-116000000D03*
X147500000Y-116750000D03*
X165500000Y-104000000D03*
X160500000Y-115250000D03*
X143250000Y-124250000D03*
X157250000Y-125000000D03*
X129750000Y-132000000D03*
X120000000Y-123750000D03*
%TO.N,Net-(D2-Pad1)*%
X121500000Y-74750000D03*
%TO.N,Net-(D3-Pad1)*%
X152500000Y-74250000D03*
%TO.N,Net-(D4-Pad1)*%
X128750000Y-109000000D03*
%TO.N,Net-(D5-Pad1)*%
X115000000Y-115000000D03*
%TO.N,Net-(D6-Pad1)*%
X114250000Y-101250000D03*
%TO.N,Net-(D7-Pad1)*%
X141250000Y-129750000D03*
%TO.N,Net-(D8-Pad1)*%
X157250000Y-110750000D03*
%TO.N,Net-(D9-Pad1)*%
X132500000Y-74250000D03*
%TO.N,Net-(D10-Pad1)*%
X138250000Y-98500000D03*
%TO.N,Net-(D11-Pad1)*%
X125000000Y-126750000D03*
%TD*%
D14*
%TO.N,Net-(D1-Pad1)*%
X108825000Y-87500000D02*
X109750000Y-87500000D01*
%TO.N,VCC*%
X109750000Y-99000000D02*
X126500000Y-82250000D01*
X105930000Y-99000000D02*
X109750000Y-99000000D01*
X126500000Y-71750000D02*
X126500000Y-82250000D01*
%TO.N,Net-(D2-Pad1)*%
X120575000Y-74750000D02*
X121500000Y-74750000D01*
%TO.N,Net-(D3-Pad1)*%
X151575000Y-74250000D02*
X152500000Y-74250000D01*
%TO.N,Net-(D4-Pad1)*%
X128750000Y-109000000D02*
X122075000Y-109000000D01*
%TO.N,Net-(D5-Pad1)*%
X114075000Y-115000000D02*
X115000000Y-115000000D01*
%TO.N,Net-(D6-Pad1)*%
X113325000Y-101250000D02*
X114250000Y-101250000D01*
%TO.N,Net-(D7-Pad1)*%
X139250000Y-131750000D02*
X141250000Y-129750000D01*
X138325000Y-131750000D02*
X139250000Y-131750000D01*
%TO.N,Net-(D8-Pad1)*%
X157250000Y-110750000D02*
X156325000Y-110750000D01*
%TO.N,Net-(D9-Pad1)*%
X131575000Y-74250000D02*
X132500000Y-74250000D01*
%TO.N,Net-(D10-Pad1)*%
X122075000Y-98500000D02*
X138250000Y-98500000D01*
%TO.N,Net-(D11-Pad1)*%
X122075000Y-126750000D02*
X125000000Y-126750000D01*
%TO.N,Net-(R1-Pad1)*%
X105930000Y-102000000D02*
X108500000Y-102000000D01*
X109250000Y-101250000D02*
X111675000Y-101250000D01*
X108500000Y-102000000D02*
X109250000Y-101250000D01*
X115500000Y-109000000D02*
X120425000Y-109000000D01*
X112425000Y-115000000D02*
X112425000Y-109075000D01*
X113500000Y-107000000D02*
X113500000Y-108000000D01*
X113500000Y-108000000D02*
X114000000Y-107500000D01*
X112425000Y-109075000D02*
X113500000Y-108000000D01*
X108500000Y-102000000D02*
X113500000Y-107000000D01*
X113500000Y-107000000D02*
X114000000Y-107500000D01*
X113500000Y-108000000D02*
X114500000Y-108000000D01*
X114500000Y-108000000D02*
X115500000Y-109000000D01*
X114000000Y-107500000D02*
X114500000Y-108000000D01*
X120425000Y-126750000D02*
X119250000Y-126750000D01*
X112425000Y-119925000D02*
X112425000Y-115000000D01*
X119250000Y-126750000D02*
X112425000Y-119925000D01*
X120425000Y-127925000D02*
X120425000Y-126750000D01*
X122250000Y-129750000D02*
X120425000Y-127925000D01*
X154675000Y-110750000D02*
X143500000Y-110750000D01*
X143500000Y-110750000D02*
X132500000Y-121750000D01*
X131750000Y-129750000D02*
X132500000Y-129000000D01*
X131500000Y-129750000D02*
X131750000Y-129750000D01*
X132500000Y-129000000D02*
X132500000Y-129750000D01*
X132500000Y-129750000D02*
X131500000Y-129750000D01*
X132500000Y-121750000D02*
X132500000Y-129000000D01*
X131500000Y-129750000D02*
X122250000Y-129750000D01*
X132500000Y-129000000D02*
X133250000Y-129750000D01*
X133250000Y-129750000D02*
X132500000Y-129750000D01*
X111675000Y-99325000D02*
X111675000Y-101250000D01*
X112500000Y-98500000D02*
X111675000Y-99325000D01*
X116750000Y-98500000D02*
X116750000Y-97500000D01*
X116750000Y-97500000D02*
X129925000Y-84325000D01*
X147250000Y-74250000D02*
X149925000Y-74250000D01*
X143325000Y-78175000D02*
X147250000Y-74250000D01*
X130925000Y-78175000D02*
X129925000Y-77175000D01*
X129925000Y-77175000D02*
X129925000Y-74250000D01*
X129925000Y-78175000D02*
X129925000Y-77175000D01*
X129925000Y-78175000D02*
X130925000Y-78175000D01*
X130925000Y-78175000D02*
X143325000Y-78175000D01*
X130925000Y-78175000D02*
X129925000Y-79175000D01*
X129925000Y-79175000D02*
X129925000Y-78175000D01*
X129925000Y-84325000D02*
X129925000Y-79175000D01*
X115750000Y-98500000D02*
X112500000Y-98500000D01*
X116750000Y-97500000D02*
X115750000Y-98500000D01*
X116750000Y-98500000D02*
X115750000Y-98500000D01*
X116750000Y-97500000D02*
X117750000Y-98500000D01*
X117750000Y-98500000D02*
X116750000Y-98500000D01*
X120425000Y-98500000D02*
X117750000Y-98500000D01*
X135250000Y-131750000D02*
X133250000Y-129750000D01*
X136675000Y-131750000D02*
X135250000Y-131750000D01*
X129925000Y-74250000D02*
X129925000Y-73575000D01*
X129925000Y-73575000D02*
X131750000Y-71750000D01*
X131750000Y-71750000D02*
X131750000Y-69500000D01*
X131750000Y-69500000D02*
X130750000Y-68500000D01*
X130750000Y-68500000D02*
X124250000Y-68500000D01*
X118925000Y-73825000D02*
X118925000Y-74750000D01*
X124250000Y-68500000D02*
X118925000Y-73825000D01*
X118925000Y-74750000D02*
X118925000Y-76575000D01*
X118925000Y-76575000D02*
X112750000Y-82750000D01*
X112750000Y-82750000D02*
X110000000Y-82750000D01*
X107175000Y-85575000D02*
X107175000Y-87500000D01*
X110000000Y-82750000D02*
X107175000Y-85575000D01*
%TD*%
D15*
%TO.N,GND*%
X137886138Y-55831059D02*
X138610388Y-56053867D01*
X139283738Y-56401409D01*
X139884901Y-56862699D01*
X140394872Y-57423149D01*
X140797540Y-58065057D01*
X141080170Y-58768122D01*
X141236190Y-59521513D01*
X141265000Y-60021169D01*
X141265001Y-61306272D01*
X141266298Y-61319440D01*
X141278413Y-61656049D01*
X141278863Y-61659632D01*
X141278707Y-61663242D01*
X141287438Y-61747410D01*
X141429908Y-62624862D01*
X141435629Y-62647269D01*
X141438736Y-62670183D01*
X141462234Y-62751474D01*
X141757835Y-63589830D01*
X141767433Y-63610870D01*
X141774549Y-63632871D01*
X141812059Y-63708691D01*
X141812071Y-63708717D01*
X141812077Y-63708725D01*
X142251461Y-64481476D01*
X142264630Y-64500478D01*
X142275533Y-64520879D01*
X142325894Y-64588881D01*
X142895182Y-65271616D01*
X142911512Y-65287990D01*
X142925851Y-65306132D01*
X142987458Y-65364142D01*
X143668651Y-65935276D01*
X143687625Y-65948502D01*
X143704950Y-65963817D01*
X143775855Y-66010000D01*
X144547423Y-66451478D01*
X144568436Y-66461133D01*
X144588200Y-66473139D01*
X144666163Y-66506036D01*
X145503715Y-66803905D01*
X145508021Y-66805017D01*
X145525587Y-66811299D01*
X145542755Y-66816572D01*
X147746053Y-67464098D01*
X149878711Y-68247813D01*
X151954729Y-69171140D01*
X153965017Y-70230036D01*
X155900673Y-71419812D01*
X157753239Y-72735268D01*
X159514561Y-74170616D01*
X161176886Y-75719540D01*
X162732884Y-77375207D01*
X164175738Y-79130360D01*
X165499106Y-80977290D01*
X166697162Y-82907865D01*
X167764630Y-84913581D01*
X168696830Y-86985643D01*
X169489658Y-89114933D01*
X170139624Y-91292080D01*
X170643873Y-93507517D01*
X171000188Y-95751501D01*
X171207004Y-98014175D01*
X171263407Y-100285560D01*
X171169153Y-102555700D01*
X170924654Y-104814605D01*
X170530986Y-107052337D01*
X169989882Y-109259064D01*
X169303718Y-111425077D01*
X168475512Y-113540851D01*
X167508906Y-115597090D01*
X166408155Y-117584736D01*
X165178083Y-119495080D01*
X163824120Y-121319689D01*
X162352204Y-123050560D01*
X160768823Y-124680064D01*
X159080926Y-126201055D01*
X157295931Y-127606843D01*
X155421695Y-128891239D01*
X153466456Y-130048599D01*
X151438820Y-131073832D01*
X149347702Y-131962428D01*
X147202263Y-132710493D01*
X145011999Y-133314718D01*
X142786467Y-133772464D01*
X140535523Y-134081705D01*
X138269022Y-134241089D01*
X135996953Y-134249911D01*
X133729262Y-134108134D01*
X131475992Y-133816385D01*
X129246983Y-133375938D01*
X127052076Y-132788738D01*
X124900917Y-132057366D01*
X122802939Y-131185029D01*
X120767401Y-130175574D01*
X118803237Y-129033435D01*
X116919085Y-127763634D01*
X115123223Y-126371749D01*
X113423564Y-124863914D01*
X111827572Y-123246751D01*
X110342263Y-121527368D01*
X108974171Y-119713331D01*
X107729304Y-117812605D01*
X106613144Y-115833557D01*
X105630601Y-113784897D01*
X104785986Y-111675609D01*
X104083026Y-109515005D01*
X103524797Y-107312547D01*
X103113763Y-105077935D01*
X103051083Y-104538072D01*
X103470000Y-104538072D01*
X103594482Y-104525812D01*
X103714180Y-104489502D01*
X103824494Y-104430537D01*
X103921185Y-104351185D01*
X104000537Y-104254494D01*
X104059502Y-104144180D01*
X104095812Y-104024482D01*
X104108072Y-103900000D01*
X104108072Y-102900000D01*
X104095812Y-102775518D01*
X104059502Y-102655820D01*
X104000537Y-102545506D01*
X103921185Y-102448815D01*
X103824494Y-102369463D01*
X103714180Y-102310498D01*
X103594482Y-102274188D01*
X103470000Y-102261928D01*
X102824164Y-102261928D01*
X102739845Y-100551658D01*
X102778607Y-98279882D01*
X102865678Y-97238072D01*
X103470000Y-97238072D01*
X103594482Y-97225812D01*
X103714180Y-97189502D01*
X103824494Y-97130537D01*
X103921185Y-97051185D01*
X104000537Y-96954494D01*
X104059502Y-96844180D01*
X104095812Y-96724482D01*
X104108072Y-96600000D01*
X104108072Y-95600000D01*
X104095812Y-95475518D01*
X104059502Y-95355820D01*
X104000537Y-95245506D01*
X103921185Y-95148815D01*
X103824494Y-95069463D01*
X103714180Y-95010498D01*
X103594482Y-94974188D01*
X103470000Y-94961928D01*
X103126785Y-94961928D01*
X103306719Y-93768999D01*
X103793749Y-91549706D01*
X104426782Y-89367594D01*
X105203052Y-87232203D01*
X106119133Y-85152960D01*
X107170992Y-83139015D01*
X108354015Y-81199200D01*
X109663000Y-79342048D01*
X111092189Y-77575730D01*
X112635284Y-75908027D01*
X114285522Y-74346247D01*
X116035631Y-72897273D01*
X117877934Y-71567463D01*
X119804304Y-70362683D01*
X121806298Y-69288211D01*
X122206825Y-69106335D01*
X118241872Y-73071288D01*
X118203104Y-73103104D01*
X118076140Y-73257810D01*
X117981798Y-73434314D01*
X117934306Y-73590874D01*
X117923702Y-73625830D01*
X117904085Y-73825000D01*
X117909000Y-73874903D01*
X117909001Y-74291821D01*
X117903031Y-74311500D01*
X117886928Y-74475000D01*
X117886928Y-75025000D01*
X117903031Y-75188500D01*
X117909000Y-75208178D01*
X117909001Y-76154158D01*
X112329160Y-81734000D01*
X110049893Y-81734000D01*
X109999999Y-81729086D01*
X109950105Y-81734000D01*
X109950098Y-81734000D01*
X109800829Y-81748702D01*
X109609313Y-81806798D01*
X109432810Y-81901140D01*
X109278104Y-82028104D01*
X109246293Y-82066866D01*
X106491872Y-84821288D01*
X106453104Y-84853104D01*
X106326140Y-85007810D01*
X106231798Y-85184314D01*
X106173702Y-85375829D01*
X106173702Y-85375830D01*
X106154085Y-85575000D01*
X106159000Y-85624902D01*
X106159001Y-87041820D01*
X106153031Y-87061500D01*
X106136928Y-87225000D01*
X106136928Y-87775000D01*
X106153031Y-87938500D01*
X106200722Y-88095716D01*
X106278169Y-88240608D01*
X106382394Y-88367606D01*
X106509392Y-88471831D01*
X106654284Y-88549278D01*
X106811500Y-88596969D01*
X106975000Y-88613072D01*
X107375000Y-88613072D01*
X107538500Y-88596969D01*
X107695716Y-88549278D01*
X107840608Y-88471831D01*
X107967606Y-88367606D01*
X108000000Y-88328134D01*
X108032394Y-88367606D01*
X108159392Y-88471831D01*
X108304284Y-88549278D01*
X108461500Y-88596969D01*
X108625000Y-88613072D01*
X109025000Y-88613072D01*
X109188500Y-88596969D01*
X109345716Y-88549278D01*
X109407974Y-88516000D01*
X109552541Y-88516000D01*
X109648061Y-88535000D01*
X109851939Y-88535000D01*
X110051898Y-88495226D01*
X110240256Y-88417205D01*
X110409774Y-88303937D01*
X110553937Y-88159774D01*
X110667205Y-87990256D01*
X110745226Y-87801898D01*
X110785000Y-87601939D01*
X110785000Y-87398061D01*
X110745226Y-87198102D01*
X110667205Y-87009744D01*
X110553937Y-86840226D01*
X110409774Y-86696063D01*
X110240256Y-86582795D01*
X110051898Y-86504774D01*
X109851939Y-86465000D01*
X109648061Y-86465000D01*
X109552541Y-86484000D01*
X109407974Y-86484000D01*
X109345716Y-86450722D01*
X109188500Y-86403031D01*
X109025000Y-86386928D01*
X108625000Y-86386928D01*
X108461500Y-86403031D01*
X108304284Y-86450722D01*
X108191000Y-86511274D01*
X108191000Y-85995840D01*
X110420841Y-83766000D01*
X112700098Y-83766000D01*
X112750000Y-83770915D01*
X112799902Y-83766000D01*
X112949171Y-83751298D01*
X113140687Y-83693202D01*
X113317190Y-83598860D01*
X113471896Y-83471896D01*
X113503712Y-83433128D01*
X119608133Y-77328708D01*
X119646896Y-77296896D01*
X119773860Y-77142190D01*
X119868202Y-76965687D01*
X119926298Y-76774171D01*
X119941000Y-76624902D01*
X119945915Y-76575000D01*
X119941000Y-76525098D01*
X119941000Y-75738726D01*
X120054284Y-75799278D01*
X120211500Y-75846969D01*
X120375000Y-75863072D01*
X120775000Y-75863072D01*
X120938500Y-75846969D01*
X121095716Y-75799278D01*
X121157974Y-75766000D01*
X121302541Y-75766000D01*
X121398061Y-75785000D01*
X121601939Y-75785000D01*
X121801898Y-75745226D01*
X121990256Y-75667205D01*
X122159774Y-75553937D01*
X122303937Y-75409774D01*
X122417205Y-75240256D01*
X122495226Y-75051898D01*
X122535000Y-74851939D01*
X122535000Y-74648061D01*
X122495226Y-74448102D01*
X122417205Y-74259744D01*
X122303937Y-74090226D01*
X122159774Y-73946063D01*
X121990256Y-73832795D01*
X121801898Y-73754774D01*
X121601939Y-73715000D01*
X121398061Y-73715000D01*
X121302541Y-73734000D01*
X121157974Y-73734000D01*
X121095716Y-73700722D01*
X120938500Y-73653031D01*
X120775000Y-73636928D01*
X120549912Y-73636928D01*
X122913535Y-71273305D01*
X122895892Y-71331467D01*
X122854670Y-71750000D01*
X122895892Y-72168533D01*
X123017974Y-72570982D01*
X123216223Y-72941881D01*
X123483023Y-73266977D01*
X123808119Y-73533777D01*
X124179018Y-73732026D01*
X124581467Y-73854108D01*
X124895118Y-73885000D01*
X125484000Y-73885000D01*
X125484001Y-81829158D01*
X109329160Y-97984000D01*
X107302925Y-97984000D01*
X107305812Y-97974482D01*
X107318072Y-97850000D01*
X107318072Y-97150000D01*
X107305812Y-97025518D01*
X107269502Y-96905820D01*
X107210537Y-96795506D01*
X107131185Y-96698815D01*
X107034494Y-96619463D01*
X106924180Y-96560498D01*
X106804482Y-96524188D01*
X106680000Y-96511928D01*
X106318072Y-96511928D01*
X106318072Y-95600000D01*
X106305812Y-95475518D01*
X106269502Y-95355820D01*
X106210537Y-95245506D01*
X106131185Y-95148815D01*
X106034494Y-95069463D01*
X105924180Y-95010498D01*
X105804482Y-94974188D01*
X105680000Y-94961928D01*
X104880000Y-94961928D01*
X104755518Y-94974188D01*
X104635820Y-95010498D01*
X104525506Y-95069463D01*
X104428815Y-95148815D01*
X104349463Y-95245506D01*
X104290498Y-95355820D01*
X104254188Y-95475518D01*
X104241928Y-95600000D01*
X104241928Y-96600000D01*
X104254188Y-96724482D01*
X104290498Y-96844180D01*
X104349463Y-96954494D01*
X104428815Y-97051185D01*
X104525506Y-97130537D01*
X104542928Y-97139849D01*
X104541928Y-97150000D01*
X104541928Y-97229662D01*
X104486483Y-97206696D01*
X104276863Y-97165000D01*
X104063137Y-97165000D01*
X103853517Y-97206696D01*
X103656060Y-97288485D01*
X103478353Y-97407225D01*
X103327225Y-97558353D01*
X103208485Y-97736060D01*
X103126696Y-97933517D01*
X103085000Y-98143137D01*
X103085000Y-98356863D01*
X103126696Y-98566483D01*
X103208485Y-98763940D01*
X103327225Y-98941647D01*
X103478353Y-99092775D01*
X103656060Y-99211515D01*
X103853517Y-99293304D01*
X104063137Y-99335000D01*
X104276863Y-99335000D01*
X104486483Y-99293304D01*
X104541928Y-99270338D01*
X104541928Y-99350000D01*
X104554188Y-99474482D01*
X104590498Y-99594180D01*
X104649463Y-99704494D01*
X104728815Y-99801185D01*
X104825506Y-99880537D01*
X104935820Y-99939502D01*
X105055518Y-99975812D01*
X105180000Y-99988072D01*
X105687229Y-99988072D01*
X105730829Y-100001298D01*
X105880098Y-100016000D01*
X109700098Y-100016000D01*
X109750000Y-100020915D01*
X109799902Y-100016000D01*
X109949171Y-100001298D01*
X110140687Y-99943202D01*
X110317190Y-99848860D01*
X110471896Y-99721896D01*
X110503712Y-99683128D01*
X110659000Y-99527840D01*
X110659000Y-100234000D01*
X109299893Y-100234000D01*
X109249999Y-100229086D01*
X109200105Y-100234000D01*
X109200098Y-100234000D01*
X109050829Y-100248702D01*
X108859313Y-100306798D01*
X108682810Y-100401140D01*
X108528104Y-100528104D01*
X108496292Y-100566867D01*
X108079160Y-100984000D01*
X105880098Y-100984000D01*
X105730829Y-100998702D01*
X105687229Y-101011928D01*
X105228901Y-101011928D01*
X105213304Y-100933517D01*
X105131515Y-100736060D01*
X105012775Y-100558353D01*
X104861647Y-100407225D01*
X104683940Y-100288485D01*
X104486483Y-100206696D01*
X104276863Y-100165000D01*
X104063137Y-100165000D01*
X103853517Y-100206696D01*
X103656060Y-100288485D01*
X103478353Y-100407225D01*
X103327225Y-100558353D01*
X103208485Y-100736060D01*
X103126696Y-100933517D01*
X103085000Y-101143137D01*
X103085000Y-101356863D01*
X103126696Y-101566483D01*
X103208485Y-101763940D01*
X103327225Y-101941647D01*
X103478353Y-102092775D01*
X103656060Y-102211515D01*
X103853517Y-102293304D01*
X104063137Y-102335000D01*
X104276863Y-102335000D01*
X104486483Y-102293304D01*
X104541928Y-102270338D01*
X104541928Y-102350000D01*
X104542928Y-102360151D01*
X104525506Y-102369463D01*
X104428815Y-102448815D01*
X104349463Y-102545506D01*
X104290498Y-102655820D01*
X104254188Y-102775518D01*
X104241928Y-102900000D01*
X104241928Y-103900000D01*
X104254188Y-104024482D01*
X104290498Y-104144180D01*
X104349463Y-104254494D01*
X104428815Y-104351185D01*
X104525506Y-104430537D01*
X104635820Y-104489502D01*
X104755518Y-104525812D01*
X104880000Y-104538072D01*
X105680000Y-104538072D01*
X105804482Y-104525812D01*
X105924180Y-104489502D01*
X106034494Y-104430537D01*
X106131185Y-104351185D01*
X106210537Y-104254494D01*
X106269502Y-104144180D01*
X106305812Y-104024482D01*
X106318072Y-103900000D01*
X106318072Y-103016000D01*
X108079160Y-103016000D01*
X112484000Y-107420841D01*
X112484001Y-107579159D01*
X111741868Y-108321292D01*
X111703105Y-108353104D01*
X111576141Y-108507810D01*
X111544403Y-108567189D01*
X111481799Y-108684313D01*
X111423702Y-108875830D01*
X111404085Y-109075000D01*
X111409001Y-109124912D01*
X111409000Y-114541823D01*
X111403031Y-114561500D01*
X111386928Y-114725000D01*
X111386928Y-115275000D01*
X111403031Y-115438500D01*
X111409001Y-115458180D01*
X111409000Y-119875098D01*
X111404085Y-119925000D01*
X111410741Y-119992580D01*
X111423702Y-120124170D01*
X111481798Y-120315686D01*
X111576140Y-120492190D01*
X111703104Y-120646896D01*
X111741872Y-120678712D01*
X118496292Y-127433133D01*
X118528104Y-127471896D01*
X118622121Y-127549054D01*
X118682810Y-127598860D01*
X118859313Y-127693202D01*
X119050829Y-127751298D01*
X119250000Y-127770915D01*
X119299902Y-127766000D01*
X119409000Y-127766000D01*
X119409000Y-127875098D01*
X119404085Y-127925000D01*
X119409000Y-127974901D01*
X119423702Y-128124170D01*
X119481798Y-128315686D01*
X119576140Y-128492190D01*
X119703104Y-128646896D01*
X119741872Y-128678712D01*
X121496292Y-130433133D01*
X121528104Y-130471896D01*
X121682810Y-130598860D01*
X121859311Y-130693201D01*
X121859313Y-130693202D01*
X122050829Y-130751298D01*
X122250000Y-130770915D01*
X122299902Y-130766000D01*
X131700098Y-130766000D01*
X131750000Y-130770915D01*
X131799902Y-130766000D01*
X132450098Y-130766000D01*
X132500000Y-130770915D01*
X132549902Y-130766000D01*
X132829160Y-130766000D01*
X134496292Y-132433133D01*
X134528104Y-132471896D01*
X134682810Y-132598860D01*
X134859313Y-132693202D01*
X135050829Y-132751298D01*
X135249999Y-132770915D01*
X135299901Y-132766000D01*
X136092026Y-132766000D01*
X136154284Y-132799278D01*
X136311500Y-132846969D01*
X136475000Y-132863072D01*
X136875000Y-132863072D01*
X137038500Y-132846969D01*
X137195716Y-132799278D01*
X137340608Y-132721831D01*
X137467606Y-132617606D01*
X137500000Y-132578134D01*
X137532394Y-132617606D01*
X137659392Y-132721831D01*
X137804284Y-132799278D01*
X137961500Y-132846969D01*
X138125000Y-132863072D01*
X138525000Y-132863072D01*
X138688500Y-132846969D01*
X138845716Y-132799278D01*
X138907974Y-132766000D01*
X139200098Y-132766000D01*
X139250000Y-132770915D01*
X139299902Y-132766000D01*
X139449171Y-132751298D01*
X139640687Y-132693202D01*
X139817190Y-132598860D01*
X139971896Y-132471896D01*
X140003712Y-132433128D01*
X141828797Y-130608044D01*
X141909774Y-130553937D01*
X142053937Y-130409774D01*
X142167205Y-130240256D01*
X142245226Y-130051898D01*
X142285000Y-129851939D01*
X142285000Y-129648061D01*
X142245226Y-129448102D01*
X142167205Y-129259744D01*
X142053937Y-129090226D01*
X141909774Y-128946063D01*
X141740256Y-128832795D01*
X141551898Y-128754774D01*
X141351939Y-128715000D01*
X141148061Y-128715000D01*
X140948102Y-128754774D01*
X140759744Y-128832795D01*
X140590226Y-128946063D01*
X140446063Y-129090226D01*
X140391956Y-129171203D01*
X138856613Y-130706547D01*
X138845716Y-130700722D01*
X138688500Y-130653031D01*
X138525000Y-130636928D01*
X138125000Y-130636928D01*
X137961500Y-130653031D01*
X137804284Y-130700722D01*
X137659392Y-130778169D01*
X137532394Y-130882394D01*
X137500000Y-130921866D01*
X137467606Y-130882394D01*
X137340608Y-130778169D01*
X137195716Y-130700722D01*
X137038500Y-130653031D01*
X136875000Y-130636928D01*
X136475000Y-130636928D01*
X136311500Y-130653031D01*
X136154284Y-130700722D01*
X136092026Y-130734000D01*
X135670841Y-130734000D01*
X134003712Y-129066872D01*
X133971896Y-129028104D01*
X133933133Y-128996292D01*
X133516000Y-128579160D01*
X133516000Y-122170840D01*
X143920841Y-111766000D01*
X154092026Y-111766000D01*
X154154284Y-111799278D01*
X154311500Y-111846969D01*
X154475000Y-111863072D01*
X154875000Y-111863072D01*
X155038500Y-111846969D01*
X155195716Y-111799278D01*
X155340608Y-111721831D01*
X155467606Y-111617606D01*
X155500000Y-111578134D01*
X155532394Y-111617606D01*
X155659392Y-111721831D01*
X155804284Y-111799278D01*
X155961500Y-111846969D01*
X156125000Y-111863072D01*
X156525000Y-111863072D01*
X156688500Y-111846969D01*
X156845716Y-111799278D01*
X156907974Y-111766000D01*
X157052541Y-111766000D01*
X157148061Y-111785000D01*
X157351939Y-111785000D01*
X157551898Y-111745226D01*
X157740256Y-111667205D01*
X157909774Y-111553937D01*
X158053937Y-111409774D01*
X158167205Y-111240256D01*
X158245226Y-111051898D01*
X158285000Y-110851939D01*
X158285000Y-110648061D01*
X158245226Y-110448102D01*
X158167205Y-110259744D01*
X158053937Y-110090226D01*
X157909774Y-109946063D01*
X157740256Y-109832795D01*
X157551898Y-109754774D01*
X157351939Y-109715000D01*
X157148061Y-109715000D01*
X157052541Y-109734000D01*
X156907974Y-109734000D01*
X156845716Y-109700722D01*
X156688500Y-109653031D01*
X156525000Y-109636928D01*
X156125000Y-109636928D01*
X155961500Y-109653031D01*
X155804284Y-109700722D01*
X155659392Y-109778169D01*
X155532394Y-109882394D01*
X155500000Y-109921866D01*
X155467606Y-109882394D01*
X155340608Y-109778169D01*
X155195716Y-109700722D01*
X155038500Y-109653031D01*
X154875000Y-109636928D01*
X154475000Y-109636928D01*
X154311500Y-109653031D01*
X154154284Y-109700722D01*
X154092026Y-109734000D01*
X143549893Y-109734000D01*
X143499999Y-109729086D01*
X143450105Y-109734000D01*
X143450098Y-109734000D01*
X143300829Y-109748702D01*
X143109313Y-109806798D01*
X142932810Y-109901140D01*
X142778104Y-110028104D01*
X142746292Y-110066867D01*
X131816872Y-120996288D01*
X131778104Y-121028104D01*
X131651140Y-121182810D01*
X131556798Y-121359314D01*
X131511417Y-121508915D01*
X131498702Y-121550830D01*
X131479085Y-121750000D01*
X131484000Y-121799902D01*
X131484001Y-128579158D01*
X131329160Y-128734000D01*
X122670841Y-128734000D01*
X121791709Y-127854869D01*
X121875000Y-127863072D01*
X122275000Y-127863072D01*
X122438500Y-127846969D01*
X122595716Y-127799278D01*
X122657974Y-127766000D01*
X124802541Y-127766000D01*
X124898061Y-127785000D01*
X125101939Y-127785000D01*
X125301898Y-127745226D01*
X125490256Y-127667205D01*
X125659774Y-127553937D01*
X125803937Y-127409774D01*
X125917205Y-127240256D01*
X125995226Y-127051898D01*
X126035000Y-126851939D01*
X126035000Y-126648061D01*
X125995226Y-126448102D01*
X125917205Y-126259744D01*
X125803937Y-126090226D01*
X125659774Y-125946063D01*
X125490256Y-125832795D01*
X125301898Y-125754774D01*
X125101939Y-125715000D01*
X124898061Y-125715000D01*
X124802541Y-125734000D01*
X122657974Y-125734000D01*
X122595716Y-125700722D01*
X122438500Y-125653031D01*
X122275000Y-125636928D01*
X121875000Y-125636928D01*
X121711500Y-125653031D01*
X121554284Y-125700722D01*
X121409392Y-125778169D01*
X121282394Y-125882394D01*
X121250000Y-125921866D01*
X121217606Y-125882394D01*
X121090608Y-125778169D01*
X120945716Y-125700722D01*
X120788500Y-125653031D01*
X120625000Y-125636928D01*
X120225000Y-125636928D01*
X120061500Y-125653031D01*
X119904284Y-125700722D01*
X119842026Y-125734000D01*
X119670841Y-125734000D01*
X113441000Y-119504160D01*
X113441000Y-115988726D01*
X113554284Y-116049278D01*
X113711500Y-116096969D01*
X113875000Y-116113072D01*
X114275000Y-116113072D01*
X114438500Y-116096969D01*
X114595716Y-116049278D01*
X114657974Y-116016000D01*
X114802541Y-116016000D01*
X114898061Y-116035000D01*
X115101939Y-116035000D01*
X115301898Y-115995226D01*
X115490256Y-115917205D01*
X115659774Y-115803937D01*
X115803937Y-115659774D01*
X115917205Y-115490256D01*
X115995226Y-115301898D01*
X116035000Y-115101939D01*
X116035000Y-114898061D01*
X115995226Y-114698102D01*
X115917205Y-114509744D01*
X115803937Y-114340226D01*
X115659774Y-114196063D01*
X115490256Y-114082795D01*
X115301898Y-114004774D01*
X115101939Y-113965000D01*
X114898061Y-113965000D01*
X114802541Y-113984000D01*
X114657974Y-113984000D01*
X114595716Y-113950722D01*
X114438500Y-113903031D01*
X114275000Y-113886928D01*
X113875000Y-113886928D01*
X113711500Y-113903031D01*
X113554284Y-113950722D01*
X113441000Y-114011274D01*
X113441000Y-109495840D01*
X113920841Y-109016000D01*
X114079160Y-109016000D01*
X114746292Y-109683133D01*
X114778104Y-109721896D01*
X114881559Y-109806799D01*
X114932810Y-109848860D01*
X115109313Y-109943202D01*
X115300829Y-110001298D01*
X115500000Y-110020915D01*
X115549902Y-110016000D01*
X119842026Y-110016000D01*
X119904284Y-110049278D01*
X120061500Y-110096969D01*
X120225000Y-110113072D01*
X120625000Y-110113072D01*
X120788500Y-110096969D01*
X120945716Y-110049278D01*
X121090608Y-109971831D01*
X121217606Y-109867606D01*
X121250000Y-109828134D01*
X121282394Y-109867606D01*
X121409392Y-109971831D01*
X121554284Y-110049278D01*
X121711500Y-110096969D01*
X121875000Y-110113072D01*
X122275000Y-110113072D01*
X122438500Y-110096969D01*
X122595716Y-110049278D01*
X122657974Y-110016000D01*
X128552541Y-110016000D01*
X128648061Y-110035000D01*
X128851939Y-110035000D01*
X129051898Y-109995226D01*
X129240256Y-109917205D01*
X129409774Y-109803937D01*
X129553937Y-109659774D01*
X129667205Y-109490256D01*
X129745226Y-109301898D01*
X129785000Y-109101939D01*
X129785000Y-108898061D01*
X129745226Y-108698102D01*
X129667205Y-108509744D01*
X129553937Y-108340226D01*
X129409774Y-108196063D01*
X129240256Y-108082795D01*
X129051898Y-108004774D01*
X128851939Y-107965000D01*
X128648061Y-107965000D01*
X128552541Y-107984000D01*
X122657974Y-107984000D01*
X122595716Y-107950722D01*
X122438500Y-107903031D01*
X122275000Y-107886928D01*
X121875000Y-107886928D01*
X121711500Y-107903031D01*
X121554284Y-107950722D01*
X121409392Y-108028169D01*
X121282394Y-108132394D01*
X121250000Y-108171866D01*
X121217606Y-108132394D01*
X121090608Y-108028169D01*
X120945716Y-107950722D01*
X120788500Y-107903031D01*
X120625000Y-107886928D01*
X120225000Y-107886928D01*
X120061500Y-107903031D01*
X119904284Y-107950722D01*
X119842026Y-107984000D01*
X115920841Y-107984000D01*
X115253712Y-107316872D01*
X115221896Y-107278104D01*
X115183127Y-107246287D01*
X114753710Y-106816870D01*
X114721896Y-106778104D01*
X114683130Y-106746290D01*
X114253713Y-106316873D01*
X114221896Y-106278104D01*
X114183133Y-106246292D01*
X110202840Y-102266000D01*
X111092026Y-102266000D01*
X111154284Y-102299278D01*
X111311500Y-102346969D01*
X111475000Y-102363072D01*
X111875000Y-102363072D01*
X112038500Y-102346969D01*
X112195716Y-102299278D01*
X112340608Y-102221831D01*
X112467606Y-102117606D01*
X112500000Y-102078134D01*
X112532394Y-102117606D01*
X112659392Y-102221831D01*
X112804284Y-102299278D01*
X112961500Y-102346969D01*
X113125000Y-102363072D01*
X113525000Y-102363072D01*
X113688500Y-102346969D01*
X113845716Y-102299278D01*
X113907974Y-102266000D01*
X114052541Y-102266000D01*
X114148061Y-102285000D01*
X114351939Y-102285000D01*
X114551898Y-102245226D01*
X114740256Y-102167205D01*
X114909774Y-102053937D01*
X115053937Y-101909774D01*
X115167205Y-101740256D01*
X115245226Y-101551898D01*
X115285000Y-101351939D01*
X115285000Y-101148061D01*
X115245226Y-100948102D01*
X115167205Y-100759744D01*
X115053937Y-100590226D01*
X114909774Y-100446063D01*
X114740256Y-100332795D01*
X114551898Y-100254774D01*
X114351939Y-100215000D01*
X114148061Y-100215000D01*
X114052541Y-100234000D01*
X113907974Y-100234000D01*
X113845716Y-100200722D01*
X113688500Y-100153031D01*
X113525000Y-100136928D01*
X113125000Y-100136928D01*
X112961500Y-100153031D01*
X112804284Y-100200722D01*
X112691000Y-100261274D01*
X112691000Y-99745840D01*
X112920841Y-99516000D01*
X115700098Y-99516000D01*
X115750000Y-99520915D01*
X115799902Y-99516000D01*
X116700098Y-99516000D01*
X116750000Y-99520915D01*
X116799902Y-99516000D01*
X117700098Y-99516000D01*
X117750000Y-99520915D01*
X117799902Y-99516000D01*
X119842026Y-99516000D01*
X119904284Y-99549278D01*
X120061500Y-99596969D01*
X120225000Y-99613072D01*
X120625000Y-99613072D01*
X120788500Y-99596969D01*
X120945716Y-99549278D01*
X121090608Y-99471831D01*
X121217606Y-99367606D01*
X121250000Y-99328134D01*
X121282394Y-99367606D01*
X121409392Y-99471831D01*
X121554284Y-99549278D01*
X121711500Y-99596969D01*
X121875000Y-99613072D01*
X122275000Y-99613072D01*
X122438500Y-99596969D01*
X122595716Y-99549278D01*
X122657974Y-99516000D01*
X138052541Y-99516000D01*
X138148061Y-99535000D01*
X138351939Y-99535000D01*
X138551898Y-99495226D01*
X138740256Y-99417205D01*
X138909774Y-99303937D01*
X139053937Y-99159774D01*
X139167205Y-98990256D01*
X139245226Y-98801898D01*
X139285000Y-98601939D01*
X139285000Y-98398061D01*
X139245226Y-98198102D01*
X139167205Y-98009744D01*
X139053937Y-97840226D01*
X138909774Y-97696063D01*
X138740256Y-97582795D01*
X138551898Y-97504774D01*
X138351939Y-97465000D01*
X138148061Y-97465000D01*
X138052541Y-97484000D01*
X122657974Y-97484000D01*
X122595716Y-97450722D01*
X122438500Y-97403031D01*
X122275000Y-97386928D01*
X121875000Y-97386928D01*
X121711500Y-97403031D01*
X121554284Y-97450722D01*
X121409392Y-97528169D01*
X121282394Y-97632394D01*
X121250000Y-97671866D01*
X121217606Y-97632394D01*
X121090608Y-97528169D01*
X120945716Y-97450722D01*
X120788500Y-97403031D01*
X120625000Y-97386928D01*
X120225000Y-97386928D01*
X120061500Y-97403031D01*
X119904284Y-97450722D01*
X119842026Y-97484000D01*
X118202840Y-97484000D01*
X130608133Y-85078708D01*
X130646896Y-85046896D01*
X130773860Y-84892190D01*
X130868202Y-84715687D01*
X130926298Y-84524171D01*
X130941000Y-84374902D01*
X130941000Y-84374901D01*
X130945915Y-84325000D01*
X130941000Y-84275098D01*
X130941000Y-79595840D01*
X131345841Y-79191000D01*
X143275098Y-79191000D01*
X143325000Y-79195915D01*
X143374902Y-79191000D01*
X143524171Y-79176298D01*
X143715687Y-79118202D01*
X143892190Y-79023860D01*
X144046896Y-78896896D01*
X144078712Y-78858128D01*
X147670841Y-75266000D01*
X149342026Y-75266000D01*
X149404284Y-75299278D01*
X149561500Y-75346969D01*
X149725000Y-75363072D01*
X150125000Y-75363072D01*
X150288500Y-75346969D01*
X150445716Y-75299278D01*
X150590608Y-75221831D01*
X150717606Y-75117606D01*
X150750000Y-75078134D01*
X150782394Y-75117606D01*
X150909392Y-75221831D01*
X151054284Y-75299278D01*
X151211500Y-75346969D01*
X151375000Y-75363072D01*
X151775000Y-75363072D01*
X151938500Y-75346969D01*
X152095716Y-75299278D01*
X152157974Y-75266000D01*
X152302541Y-75266000D01*
X152398061Y-75285000D01*
X152601939Y-75285000D01*
X152801898Y-75245226D01*
X152990256Y-75167205D01*
X153159774Y-75053937D01*
X153303937Y-74909774D01*
X153417205Y-74740256D01*
X153495226Y-74551898D01*
X153535000Y-74351939D01*
X153535000Y-74148061D01*
X153495226Y-73948102D01*
X153417205Y-73759744D01*
X153303937Y-73590226D01*
X153159774Y-73446063D01*
X152990256Y-73332795D01*
X152801898Y-73254774D01*
X152601939Y-73215000D01*
X152398061Y-73215000D01*
X152302541Y-73234000D01*
X152157974Y-73234000D01*
X152095716Y-73200722D01*
X151938500Y-73153031D01*
X151775000Y-73136928D01*
X151375000Y-73136928D01*
X151211500Y-73153031D01*
X151054284Y-73200722D01*
X150909392Y-73278169D01*
X150782394Y-73382394D01*
X150750000Y-73421866D01*
X150717606Y-73382394D01*
X150590608Y-73278169D01*
X150445716Y-73200722D01*
X150288500Y-73153031D01*
X150125000Y-73136928D01*
X149725000Y-73136928D01*
X149561500Y-73153031D01*
X149404284Y-73200722D01*
X149342026Y-73234000D01*
X147299893Y-73234000D01*
X147249999Y-73229086D01*
X147200105Y-73234000D01*
X147200098Y-73234000D01*
X147050829Y-73248702D01*
X146859313Y-73306798D01*
X146682810Y-73401140D01*
X146528104Y-73528104D01*
X146496292Y-73566867D01*
X142904160Y-77159000D01*
X131345841Y-77159000D01*
X130941000Y-76754160D01*
X130941000Y-75238726D01*
X131054284Y-75299278D01*
X131211500Y-75346969D01*
X131375000Y-75363072D01*
X131775000Y-75363072D01*
X131938500Y-75346969D01*
X132095716Y-75299278D01*
X132157974Y-75266000D01*
X132302541Y-75266000D01*
X132398061Y-75285000D01*
X132601939Y-75285000D01*
X132801898Y-75245226D01*
X132990256Y-75167205D01*
X133159774Y-75053937D01*
X133303937Y-74909774D01*
X133417205Y-74740256D01*
X133495226Y-74551898D01*
X133535000Y-74351939D01*
X133535000Y-74148061D01*
X133495226Y-73948102D01*
X133417205Y-73759744D01*
X133303937Y-73590226D01*
X133159774Y-73446063D01*
X132990256Y-73332795D01*
X132801898Y-73254774D01*
X132601939Y-73215000D01*
X132398061Y-73215000D01*
X132302541Y-73234000D01*
X132157974Y-73234000D01*
X132095716Y-73200722D01*
X131938500Y-73153031D01*
X131797679Y-73139162D01*
X132433133Y-72503708D01*
X132471896Y-72471896D01*
X132598860Y-72317190D01*
X132693202Y-72140687D01*
X132751298Y-71949171D01*
X132766000Y-71799902D01*
X132766000Y-71799901D01*
X132770915Y-71750000D01*
X132766000Y-71700098D01*
X132766000Y-69549902D01*
X132770915Y-69500000D01*
X132751298Y-69300829D01*
X132693202Y-69109313D01*
X132598860Y-68932810D01*
X132471896Y-68778104D01*
X132433133Y-68746292D01*
X131503712Y-67816872D01*
X131471896Y-67778104D01*
X131317190Y-67651140D01*
X131140687Y-67556798D01*
X130949171Y-67498702D01*
X130799902Y-67484000D01*
X130750000Y-67479085D01*
X130700098Y-67484000D01*
X126215039Y-67484000D01*
X128186747Y-66887862D01*
X128436510Y-66822338D01*
X128452528Y-66817563D01*
X128459226Y-66815987D01*
X128804024Y-66713600D01*
X128807380Y-66712269D01*
X128810916Y-66711517D01*
X128890228Y-66682021D01*
X129704199Y-66324712D01*
X129724464Y-66313571D01*
X129745874Y-66304834D01*
X129818696Y-66261767D01*
X129818710Y-66261759D01*
X129818715Y-66261755D01*
X130556543Y-65765956D01*
X130574511Y-65751406D01*
X130594041Y-65739012D01*
X130658097Y-65683720D01*
X131296470Y-65065093D01*
X131311582Y-65047586D01*
X131328603Y-65031934D01*
X131381840Y-64966192D01*
X131381856Y-64966173D01*
X131381861Y-64966165D01*
X131900590Y-64244277D01*
X131912363Y-64224370D01*
X131926343Y-64205952D01*
X131967109Y-64131800D01*
X132349809Y-63329453D01*
X132357869Y-63307780D01*
X132368369Y-63287173D01*
X132395359Y-63206974D01*
X132629927Y-62349538D01*
X132634022Y-62326778D01*
X132640706Y-62304640D01*
X132653067Y-62220928D01*
X132731782Y-61338949D01*
X132735000Y-61306272D01*
X132735000Y-60032731D01*
X132762021Y-59729963D01*
X134258266Y-59729963D01*
X134258266Y-60270037D01*
X134363629Y-60799734D01*
X134570307Y-61298698D01*
X134870356Y-61747753D01*
X135252247Y-62129644D01*
X135701302Y-62429693D01*
X136200266Y-62636371D01*
X136729963Y-62741734D01*
X137270037Y-62741734D01*
X137799734Y-62636371D01*
X138298698Y-62429693D01*
X138747753Y-62129644D01*
X139129644Y-61747753D01*
X139429693Y-61298698D01*
X139636371Y-60799734D01*
X139741734Y-60270037D01*
X139741734Y-59729963D01*
X139636371Y-59200266D01*
X139429693Y-58701302D01*
X139129644Y-58252247D01*
X138747753Y-57870356D01*
X138298698Y-57570307D01*
X137799734Y-57363629D01*
X137270037Y-57258266D01*
X136729963Y-57258266D01*
X136200266Y-57363629D01*
X135701302Y-57570307D01*
X135252247Y-57870356D01*
X134870356Y-58252247D01*
X134570307Y-58701302D01*
X134363629Y-59200266D01*
X134258266Y-59729963D01*
X132762021Y-59729963D01*
X132805281Y-59245253D01*
X133005231Y-58514357D01*
X133331450Y-57830425D01*
X133773626Y-57215072D01*
X134317789Y-56687741D01*
X134946726Y-56265114D01*
X135640570Y-55960537D01*
X136377386Y-55783643D01*
X137133871Y-55740024D01*
X137886138Y-55831059D01*
%TA.AperFunction,Conductor*%
D16*
G36*
X137886138Y-55831059D02*
G01*
X138610388Y-56053867D01*
X139283738Y-56401409D01*
X139884901Y-56862699D01*
X140394872Y-57423149D01*
X140797540Y-58065057D01*
X141080170Y-58768122D01*
X141236190Y-59521513D01*
X141265000Y-60021169D01*
X141265001Y-61306272D01*
X141266298Y-61319440D01*
X141278413Y-61656049D01*
X141278863Y-61659632D01*
X141278707Y-61663242D01*
X141287438Y-61747410D01*
X141429908Y-62624862D01*
X141435629Y-62647269D01*
X141438736Y-62670183D01*
X141462234Y-62751474D01*
X141757835Y-63589830D01*
X141767433Y-63610870D01*
X141774549Y-63632871D01*
X141812059Y-63708691D01*
X141812071Y-63708717D01*
X141812077Y-63708725D01*
X142251461Y-64481476D01*
X142264630Y-64500478D01*
X142275533Y-64520879D01*
X142325894Y-64588881D01*
X142895182Y-65271616D01*
X142911512Y-65287990D01*
X142925851Y-65306132D01*
X142987458Y-65364142D01*
X143668651Y-65935276D01*
X143687625Y-65948502D01*
X143704950Y-65963817D01*
X143775855Y-66010000D01*
X144547423Y-66451478D01*
X144568436Y-66461133D01*
X144588200Y-66473139D01*
X144666163Y-66506036D01*
X145503715Y-66803905D01*
X145508021Y-66805017D01*
X145525587Y-66811299D01*
X145542755Y-66816572D01*
X147746053Y-67464098D01*
X149878711Y-68247813D01*
X151954729Y-69171140D01*
X153965017Y-70230036D01*
X155900673Y-71419812D01*
X157753239Y-72735268D01*
X159514561Y-74170616D01*
X161176886Y-75719540D01*
X162732884Y-77375207D01*
X164175738Y-79130360D01*
X165499106Y-80977290D01*
X166697162Y-82907865D01*
X167764630Y-84913581D01*
X168696830Y-86985643D01*
X169489658Y-89114933D01*
X170139624Y-91292080D01*
X170643873Y-93507517D01*
X171000188Y-95751501D01*
X171207004Y-98014175D01*
X171263407Y-100285560D01*
X171169153Y-102555700D01*
X170924654Y-104814605D01*
X170530986Y-107052337D01*
X169989882Y-109259064D01*
X169303718Y-111425077D01*
X168475512Y-113540851D01*
X167508906Y-115597090D01*
X166408155Y-117584736D01*
X165178083Y-119495080D01*
X163824120Y-121319689D01*
X162352204Y-123050560D01*
X160768823Y-124680064D01*
X159080926Y-126201055D01*
X157295931Y-127606843D01*
X155421695Y-128891239D01*
X153466456Y-130048599D01*
X151438820Y-131073832D01*
X149347702Y-131962428D01*
X147202263Y-132710493D01*
X145011999Y-133314718D01*
X142786467Y-133772464D01*
X140535523Y-134081705D01*
X138269022Y-134241089D01*
X135996953Y-134249911D01*
X133729262Y-134108134D01*
X131475992Y-133816385D01*
X129246983Y-133375938D01*
X127052076Y-132788738D01*
X124900917Y-132057366D01*
X122802939Y-131185029D01*
X120767401Y-130175574D01*
X118803237Y-129033435D01*
X116919085Y-127763634D01*
X115123223Y-126371749D01*
X113423564Y-124863914D01*
X111827572Y-123246751D01*
X110342263Y-121527368D01*
X108974171Y-119713331D01*
X107729304Y-117812605D01*
X106613144Y-115833557D01*
X105630601Y-113784897D01*
X104785986Y-111675609D01*
X104083026Y-109515005D01*
X103524797Y-107312547D01*
X103113763Y-105077935D01*
X103051083Y-104538072D01*
X103470000Y-104538072D01*
X103594482Y-104525812D01*
X103714180Y-104489502D01*
X103824494Y-104430537D01*
X103921185Y-104351185D01*
X104000537Y-104254494D01*
X104059502Y-104144180D01*
X104095812Y-104024482D01*
X104108072Y-103900000D01*
X104108072Y-102900000D01*
X104095812Y-102775518D01*
X104059502Y-102655820D01*
X104000537Y-102545506D01*
X103921185Y-102448815D01*
X103824494Y-102369463D01*
X103714180Y-102310498D01*
X103594482Y-102274188D01*
X103470000Y-102261928D01*
X102824164Y-102261928D01*
X102739845Y-100551658D01*
X102778607Y-98279882D01*
X102865678Y-97238072D01*
X103470000Y-97238072D01*
X103594482Y-97225812D01*
X103714180Y-97189502D01*
X103824494Y-97130537D01*
X103921185Y-97051185D01*
X104000537Y-96954494D01*
X104059502Y-96844180D01*
X104095812Y-96724482D01*
X104108072Y-96600000D01*
X104108072Y-95600000D01*
X104095812Y-95475518D01*
X104059502Y-95355820D01*
X104000537Y-95245506D01*
X103921185Y-95148815D01*
X103824494Y-95069463D01*
X103714180Y-95010498D01*
X103594482Y-94974188D01*
X103470000Y-94961928D01*
X103126785Y-94961928D01*
X103306719Y-93768999D01*
X103793749Y-91549706D01*
X104426782Y-89367594D01*
X105203052Y-87232203D01*
X106119133Y-85152960D01*
X107170992Y-83139015D01*
X108354015Y-81199200D01*
X109663000Y-79342048D01*
X111092189Y-77575730D01*
X112635284Y-75908027D01*
X114285522Y-74346247D01*
X116035631Y-72897273D01*
X117877934Y-71567463D01*
X119804304Y-70362683D01*
X121806298Y-69288211D01*
X122206825Y-69106335D01*
X118241872Y-73071288D01*
X118203104Y-73103104D01*
X118076140Y-73257810D01*
X117981798Y-73434314D01*
X117934306Y-73590874D01*
X117923702Y-73625830D01*
X117904085Y-73825000D01*
X117909000Y-73874903D01*
X117909001Y-74291821D01*
X117903031Y-74311500D01*
X117886928Y-74475000D01*
X117886928Y-75025000D01*
X117903031Y-75188500D01*
X117909000Y-75208178D01*
X117909001Y-76154158D01*
X112329160Y-81734000D01*
X110049893Y-81734000D01*
X109999999Y-81729086D01*
X109950105Y-81734000D01*
X109950098Y-81734000D01*
X109800829Y-81748702D01*
X109609313Y-81806798D01*
X109432810Y-81901140D01*
X109278104Y-82028104D01*
X109246293Y-82066866D01*
X106491872Y-84821288D01*
X106453104Y-84853104D01*
X106326140Y-85007810D01*
X106231798Y-85184314D01*
X106173702Y-85375829D01*
X106173702Y-85375830D01*
X106154085Y-85575000D01*
X106159000Y-85624902D01*
X106159001Y-87041820D01*
X106153031Y-87061500D01*
X106136928Y-87225000D01*
X106136928Y-87775000D01*
X106153031Y-87938500D01*
X106200722Y-88095716D01*
X106278169Y-88240608D01*
X106382394Y-88367606D01*
X106509392Y-88471831D01*
X106654284Y-88549278D01*
X106811500Y-88596969D01*
X106975000Y-88613072D01*
X107375000Y-88613072D01*
X107538500Y-88596969D01*
X107695716Y-88549278D01*
X107840608Y-88471831D01*
X107967606Y-88367606D01*
X108000000Y-88328134D01*
X108032394Y-88367606D01*
X108159392Y-88471831D01*
X108304284Y-88549278D01*
X108461500Y-88596969D01*
X108625000Y-88613072D01*
X109025000Y-88613072D01*
X109188500Y-88596969D01*
X109345716Y-88549278D01*
X109407974Y-88516000D01*
X109552541Y-88516000D01*
X109648061Y-88535000D01*
X109851939Y-88535000D01*
X110051898Y-88495226D01*
X110240256Y-88417205D01*
X110409774Y-88303937D01*
X110553937Y-88159774D01*
X110667205Y-87990256D01*
X110745226Y-87801898D01*
X110785000Y-87601939D01*
X110785000Y-87398061D01*
X110745226Y-87198102D01*
X110667205Y-87009744D01*
X110553937Y-86840226D01*
X110409774Y-86696063D01*
X110240256Y-86582795D01*
X110051898Y-86504774D01*
X109851939Y-86465000D01*
X109648061Y-86465000D01*
X109552541Y-86484000D01*
X109407974Y-86484000D01*
X109345716Y-86450722D01*
X109188500Y-86403031D01*
X109025000Y-86386928D01*
X108625000Y-86386928D01*
X108461500Y-86403031D01*
X108304284Y-86450722D01*
X108191000Y-86511274D01*
X108191000Y-85995840D01*
X110420841Y-83766000D01*
X112700098Y-83766000D01*
X112750000Y-83770915D01*
X112799902Y-83766000D01*
X112949171Y-83751298D01*
X113140687Y-83693202D01*
X113317190Y-83598860D01*
X113471896Y-83471896D01*
X113503712Y-83433128D01*
X119608133Y-77328708D01*
X119646896Y-77296896D01*
X119773860Y-77142190D01*
X119868202Y-76965687D01*
X119926298Y-76774171D01*
X119941000Y-76624902D01*
X119945915Y-76575000D01*
X119941000Y-76525098D01*
X119941000Y-75738726D01*
X120054284Y-75799278D01*
X120211500Y-75846969D01*
X120375000Y-75863072D01*
X120775000Y-75863072D01*
X120938500Y-75846969D01*
X121095716Y-75799278D01*
X121157974Y-75766000D01*
X121302541Y-75766000D01*
X121398061Y-75785000D01*
X121601939Y-75785000D01*
X121801898Y-75745226D01*
X121990256Y-75667205D01*
X122159774Y-75553937D01*
X122303937Y-75409774D01*
X122417205Y-75240256D01*
X122495226Y-75051898D01*
X122535000Y-74851939D01*
X122535000Y-74648061D01*
X122495226Y-74448102D01*
X122417205Y-74259744D01*
X122303937Y-74090226D01*
X122159774Y-73946063D01*
X121990256Y-73832795D01*
X121801898Y-73754774D01*
X121601939Y-73715000D01*
X121398061Y-73715000D01*
X121302541Y-73734000D01*
X121157974Y-73734000D01*
X121095716Y-73700722D01*
X120938500Y-73653031D01*
X120775000Y-73636928D01*
X120549912Y-73636928D01*
X122913535Y-71273305D01*
X122895892Y-71331467D01*
X122854670Y-71750000D01*
X122895892Y-72168533D01*
X123017974Y-72570982D01*
X123216223Y-72941881D01*
X123483023Y-73266977D01*
X123808119Y-73533777D01*
X124179018Y-73732026D01*
X124581467Y-73854108D01*
X124895118Y-73885000D01*
X125484000Y-73885000D01*
X125484001Y-81829158D01*
X109329160Y-97984000D01*
X107302925Y-97984000D01*
X107305812Y-97974482D01*
X107318072Y-97850000D01*
X107318072Y-97150000D01*
X107305812Y-97025518D01*
X107269502Y-96905820D01*
X107210537Y-96795506D01*
X107131185Y-96698815D01*
X107034494Y-96619463D01*
X106924180Y-96560498D01*
X106804482Y-96524188D01*
X106680000Y-96511928D01*
X106318072Y-96511928D01*
X106318072Y-95600000D01*
X106305812Y-95475518D01*
X106269502Y-95355820D01*
X106210537Y-95245506D01*
X106131185Y-95148815D01*
X106034494Y-95069463D01*
X105924180Y-95010498D01*
X105804482Y-94974188D01*
X105680000Y-94961928D01*
X104880000Y-94961928D01*
X104755518Y-94974188D01*
X104635820Y-95010498D01*
X104525506Y-95069463D01*
X104428815Y-95148815D01*
X104349463Y-95245506D01*
X104290498Y-95355820D01*
X104254188Y-95475518D01*
X104241928Y-95600000D01*
X104241928Y-96600000D01*
X104254188Y-96724482D01*
X104290498Y-96844180D01*
X104349463Y-96954494D01*
X104428815Y-97051185D01*
X104525506Y-97130537D01*
X104542928Y-97139849D01*
X104541928Y-97150000D01*
X104541928Y-97229662D01*
X104486483Y-97206696D01*
X104276863Y-97165000D01*
X104063137Y-97165000D01*
X103853517Y-97206696D01*
X103656060Y-97288485D01*
X103478353Y-97407225D01*
X103327225Y-97558353D01*
X103208485Y-97736060D01*
X103126696Y-97933517D01*
X103085000Y-98143137D01*
X103085000Y-98356863D01*
X103126696Y-98566483D01*
X103208485Y-98763940D01*
X103327225Y-98941647D01*
X103478353Y-99092775D01*
X103656060Y-99211515D01*
X103853517Y-99293304D01*
X104063137Y-99335000D01*
X104276863Y-99335000D01*
X104486483Y-99293304D01*
X104541928Y-99270338D01*
X104541928Y-99350000D01*
X104554188Y-99474482D01*
X104590498Y-99594180D01*
X104649463Y-99704494D01*
X104728815Y-99801185D01*
X104825506Y-99880537D01*
X104935820Y-99939502D01*
X105055518Y-99975812D01*
X105180000Y-99988072D01*
X105687229Y-99988072D01*
X105730829Y-100001298D01*
X105880098Y-100016000D01*
X109700098Y-100016000D01*
X109750000Y-100020915D01*
X109799902Y-100016000D01*
X109949171Y-100001298D01*
X110140687Y-99943202D01*
X110317190Y-99848860D01*
X110471896Y-99721896D01*
X110503712Y-99683128D01*
X110659000Y-99527840D01*
X110659000Y-100234000D01*
X109299893Y-100234000D01*
X109249999Y-100229086D01*
X109200105Y-100234000D01*
X109200098Y-100234000D01*
X109050829Y-100248702D01*
X108859313Y-100306798D01*
X108682810Y-100401140D01*
X108528104Y-100528104D01*
X108496292Y-100566867D01*
X108079160Y-100984000D01*
X105880098Y-100984000D01*
X105730829Y-100998702D01*
X105687229Y-101011928D01*
X105228901Y-101011928D01*
X105213304Y-100933517D01*
X105131515Y-100736060D01*
X105012775Y-100558353D01*
X104861647Y-100407225D01*
X104683940Y-100288485D01*
X104486483Y-100206696D01*
X104276863Y-100165000D01*
X104063137Y-100165000D01*
X103853517Y-100206696D01*
X103656060Y-100288485D01*
X103478353Y-100407225D01*
X103327225Y-100558353D01*
X103208485Y-100736060D01*
X103126696Y-100933517D01*
X103085000Y-101143137D01*
X103085000Y-101356863D01*
X103126696Y-101566483D01*
X103208485Y-101763940D01*
X103327225Y-101941647D01*
X103478353Y-102092775D01*
X103656060Y-102211515D01*
X103853517Y-102293304D01*
X104063137Y-102335000D01*
X104276863Y-102335000D01*
X104486483Y-102293304D01*
X104541928Y-102270338D01*
X104541928Y-102350000D01*
X104542928Y-102360151D01*
X104525506Y-102369463D01*
X104428815Y-102448815D01*
X104349463Y-102545506D01*
X104290498Y-102655820D01*
X104254188Y-102775518D01*
X104241928Y-102900000D01*
X104241928Y-103900000D01*
X104254188Y-104024482D01*
X104290498Y-104144180D01*
X104349463Y-104254494D01*
X104428815Y-104351185D01*
X104525506Y-104430537D01*
X104635820Y-104489502D01*
X104755518Y-104525812D01*
X104880000Y-104538072D01*
X105680000Y-104538072D01*
X105804482Y-104525812D01*
X105924180Y-104489502D01*
X106034494Y-104430537D01*
X106131185Y-104351185D01*
X106210537Y-104254494D01*
X106269502Y-104144180D01*
X106305812Y-104024482D01*
X106318072Y-103900000D01*
X106318072Y-103016000D01*
X108079160Y-103016000D01*
X112484000Y-107420841D01*
X112484001Y-107579159D01*
X111741868Y-108321292D01*
X111703105Y-108353104D01*
X111576141Y-108507810D01*
X111544403Y-108567189D01*
X111481799Y-108684313D01*
X111423702Y-108875830D01*
X111404085Y-109075000D01*
X111409001Y-109124912D01*
X111409000Y-114541823D01*
X111403031Y-114561500D01*
X111386928Y-114725000D01*
X111386928Y-115275000D01*
X111403031Y-115438500D01*
X111409001Y-115458180D01*
X111409000Y-119875098D01*
X111404085Y-119925000D01*
X111410741Y-119992580D01*
X111423702Y-120124170D01*
X111481798Y-120315686D01*
X111576140Y-120492190D01*
X111703104Y-120646896D01*
X111741872Y-120678712D01*
X118496292Y-127433133D01*
X118528104Y-127471896D01*
X118622121Y-127549054D01*
X118682810Y-127598860D01*
X118859313Y-127693202D01*
X119050829Y-127751298D01*
X119250000Y-127770915D01*
X119299902Y-127766000D01*
X119409000Y-127766000D01*
X119409000Y-127875098D01*
X119404085Y-127925000D01*
X119409000Y-127974901D01*
X119423702Y-128124170D01*
X119481798Y-128315686D01*
X119576140Y-128492190D01*
X119703104Y-128646896D01*
X119741872Y-128678712D01*
X121496292Y-130433133D01*
X121528104Y-130471896D01*
X121682810Y-130598860D01*
X121859311Y-130693201D01*
X121859313Y-130693202D01*
X122050829Y-130751298D01*
X122250000Y-130770915D01*
X122299902Y-130766000D01*
X131700098Y-130766000D01*
X131750000Y-130770915D01*
X131799902Y-130766000D01*
X132450098Y-130766000D01*
X132500000Y-130770915D01*
X132549902Y-130766000D01*
X132829160Y-130766000D01*
X134496292Y-132433133D01*
X134528104Y-132471896D01*
X134682810Y-132598860D01*
X134859313Y-132693202D01*
X135050829Y-132751298D01*
X135249999Y-132770915D01*
X135299901Y-132766000D01*
X136092026Y-132766000D01*
X136154284Y-132799278D01*
X136311500Y-132846969D01*
X136475000Y-132863072D01*
X136875000Y-132863072D01*
X137038500Y-132846969D01*
X137195716Y-132799278D01*
X137340608Y-132721831D01*
X137467606Y-132617606D01*
X137500000Y-132578134D01*
X137532394Y-132617606D01*
X137659392Y-132721831D01*
X137804284Y-132799278D01*
X137961500Y-132846969D01*
X138125000Y-132863072D01*
X138525000Y-132863072D01*
X138688500Y-132846969D01*
X138845716Y-132799278D01*
X138907974Y-132766000D01*
X139200098Y-132766000D01*
X139250000Y-132770915D01*
X139299902Y-132766000D01*
X139449171Y-132751298D01*
X139640687Y-132693202D01*
X139817190Y-132598860D01*
X139971896Y-132471896D01*
X140003712Y-132433128D01*
X141828797Y-130608044D01*
X141909774Y-130553937D01*
X142053937Y-130409774D01*
X142167205Y-130240256D01*
X142245226Y-130051898D01*
X142285000Y-129851939D01*
X142285000Y-129648061D01*
X142245226Y-129448102D01*
X142167205Y-129259744D01*
X142053937Y-129090226D01*
X141909774Y-128946063D01*
X141740256Y-128832795D01*
X141551898Y-128754774D01*
X141351939Y-128715000D01*
X141148061Y-128715000D01*
X140948102Y-128754774D01*
X140759744Y-128832795D01*
X140590226Y-128946063D01*
X140446063Y-129090226D01*
X140391956Y-129171203D01*
X138856613Y-130706547D01*
X138845716Y-130700722D01*
X138688500Y-130653031D01*
X138525000Y-130636928D01*
X138125000Y-130636928D01*
X137961500Y-130653031D01*
X137804284Y-130700722D01*
X137659392Y-130778169D01*
X137532394Y-130882394D01*
X137500000Y-130921866D01*
X137467606Y-130882394D01*
X137340608Y-130778169D01*
X137195716Y-130700722D01*
X137038500Y-130653031D01*
X136875000Y-130636928D01*
X136475000Y-130636928D01*
X136311500Y-130653031D01*
X136154284Y-130700722D01*
X136092026Y-130734000D01*
X135670841Y-130734000D01*
X134003712Y-129066872D01*
X133971896Y-129028104D01*
X133933133Y-128996292D01*
X133516000Y-128579160D01*
X133516000Y-122170840D01*
X143920841Y-111766000D01*
X154092026Y-111766000D01*
X154154284Y-111799278D01*
X154311500Y-111846969D01*
X154475000Y-111863072D01*
X154875000Y-111863072D01*
X155038500Y-111846969D01*
X155195716Y-111799278D01*
X155340608Y-111721831D01*
X155467606Y-111617606D01*
X155500000Y-111578134D01*
X155532394Y-111617606D01*
X155659392Y-111721831D01*
X155804284Y-111799278D01*
X155961500Y-111846969D01*
X156125000Y-111863072D01*
X156525000Y-111863072D01*
X156688500Y-111846969D01*
X156845716Y-111799278D01*
X156907974Y-111766000D01*
X157052541Y-111766000D01*
X157148061Y-111785000D01*
X157351939Y-111785000D01*
X157551898Y-111745226D01*
X157740256Y-111667205D01*
X157909774Y-111553937D01*
X158053937Y-111409774D01*
X158167205Y-111240256D01*
X158245226Y-111051898D01*
X158285000Y-110851939D01*
X158285000Y-110648061D01*
X158245226Y-110448102D01*
X158167205Y-110259744D01*
X158053937Y-110090226D01*
X157909774Y-109946063D01*
X157740256Y-109832795D01*
X157551898Y-109754774D01*
X157351939Y-109715000D01*
X157148061Y-109715000D01*
X157052541Y-109734000D01*
X156907974Y-109734000D01*
X156845716Y-109700722D01*
X156688500Y-109653031D01*
X156525000Y-109636928D01*
X156125000Y-109636928D01*
X155961500Y-109653031D01*
X155804284Y-109700722D01*
X155659392Y-109778169D01*
X155532394Y-109882394D01*
X155500000Y-109921866D01*
X155467606Y-109882394D01*
X155340608Y-109778169D01*
X155195716Y-109700722D01*
X155038500Y-109653031D01*
X154875000Y-109636928D01*
X154475000Y-109636928D01*
X154311500Y-109653031D01*
X154154284Y-109700722D01*
X154092026Y-109734000D01*
X143549893Y-109734000D01*
X143499999Y-109729086D01*
X143450105Y-109734000D01*
X143450098Y-109734000D01*
X143300829Y-109748702D01*
X143109313Y-109806798D01*
X142932810Y-109901140D01*
X142778104Y-110028104D01*
X142746292Y-110066867D01*
X131816872Y-120996288D01*
X131778104Y-121028104D01*
X131651140Y-121182810D01*
X131556798Y-121359314D01*
X131511417Y-121508915D01*
X131498702Y-121550830D01*
X131479085Y-121750000D01*
X131484000Y-121799902D01*
X131484001Y-128579158D01*
X131329160Y-128734000D01*
X122670841Y-128734000D01*
X121791709Y-127854869D01*
X121875000Y-127863072D01*
X122275000Y-127863072D01*
X122438500Y-127846969D01*
X122595716Y-127799278D01*
X122657974Y-127766000D01*
X124802541Y-127766000D01*
X124898061Y-127785000D01*
X125101939Y-127785000D01*
X125301898Y-127745226D01*
X125490256Y-127667205D01*
X125659774Y-127553937D01*
X125803937Y-127409774D01*
X125917205Y-127240256D01*
X125995226Y-127051898D01*
X126035000Y-126851939D01*
X126035000Y-126648061D01*
X125995226Y-126448102D01*
X125917205Y-126259744D01*
X125803937Y-126090226D01*
X125659774Y-125946063D01*
X125490256Y-125832795D01*
X125301898Y-125754774D01*
X125101939Y-125715000D01*
X124898061Y-125715000D01*
X124802541Y-125734000D01*
X122657974Y-125734000D01*
X122595716Y-125700722D01*
X122438500Y-125653031D01*
X122275000Y-125636928D01*
X121875000Y-125636928D01*
X121711500Y-125653031D01*
X121554284Y-125700722D01*
X121409392Y-125778169D01*
X121282394Y-125882394D01*
X121250000Y-125921866D01*
X121217606Y-125882394D01*
X121090608Y-125778169D01*
X120945716Y-125700722D01*
X120788500Y-125653031D01*
X120625000Y-125636928D01*
X120225000Y-125636928D01*
X120061500Y-125653031D01*
X119904284Y-125700722D01*
X119842026Y-125734000D01*
X119670841Y-125734000D01*
X113441000Y-119504160D01*
X113441000Y-115988726D01*
X113554284Y-116049278D01*
X113711500Y-116096969D01*
X113875000Y-116113072D01*
X114275000Y-116113072D01*
X114438500Y-116096969D01*
X114595716Y-116049278D01*
X114657974Y-116016000D01*
X114802541Y-116016000D01*
X114898061Y-116035000D01*
X115101939Y-116035000D01*
X115301898Y-115995226D01*
X115490256Y-115917205D01*
X115659774Y-115803937D01*
X115803937Y-115659774D01*
X115917205Y-115490256D01*
X115995226Y-115301898D01*
X116035000Y-115101939D01*
X116035000Y-114898061D01*
X115995226Y-114698102D01*
X115917205Y-114509744D01*
X115803937Y-114340226D01*
X115659774Y-114196063D01*
X115490256Y-114082795D01*
X115301898Y-114004774D01*
X115101939Y-113965000D01*
X114898061Y-113965000D01*
X114802541Y-113984000D01*
X114657974Y-113984000D01*
X114595716Y-113950722D01*
X114438500Y-113903031D01*
X114275000Y-113886928D01*
X113875000Y-113886928D01*
X113711500Y-113903031D01*
X113554284Y-113950722D01*
X113441000Y-114011274D01*
X113441000Y-109495840D01*
X113920841Y-109016000D01*
X114079160Y-109016000D01*
X114746292Y-109683133D01*
X114778104Y-109721896D01*
X114881559Y-109806799D01*
X114932810Y-109848860D01*
X115109313Y-109943202D01*
X115300829Y-110001298D01*
X115500000Y-110020915D01*
X115549902Y-110016000D01*
X119842026Y-110016000D01*
X119904284Y-110049278D01*
X120061500Y-110096969D01*
X120225000Y-110113072D01*
X120625000Y-110113072D01*
X120788500Y-110096969D01*
X120945716Y-110049278D01*
X121090608Y-109971831D01*
X121217606Y-109867606D01*
X121250000Y-109828134D01*
X121282394Y-109867606D01*
X121409392Y-109971831D01*
X121554284Y-110049278D01*
X121711500Y-110096969D01*
X121875000Y-110113072D01*
X122275000Y-110113072D01*
X122438500Y-110096969D01*
X122595716Y-110049278D01*
X122657974Y-110016000D01*
X128552541Y-110016000D01*
X128648061Y-110035000D01*
X128851939Y-110035000D01*
X129051898Y-109995226D01*
X129240256Y-109917205D01*
X129409774Y-109803937D01*
X129553937Y-109659774D01*
X129667205Y-109490256D01*
X129745226Y-109301898D01*
X129785000Y-109101939D01*
X129785000Y-108898061D01*
X129745226Y-108698102D01*
X129667205Y-108509744D01*
X129553937Y-108340226D01*
X129409774Y-108196063D01*
X129240256Y-108082795D01*
X129051898Y-108004774D01*
X128851939Y-107965000D01*
X128648061Y-107965000D01*
X128552541Y-107984000D01*
X122657974Y-107984000D01*
X122595716Y-107950722D01*
X122438500Y-107903031D01*
X122275000Y-107886928D01*
X121875000Y-107886928D01*
X121711500Y-107903031D01*
X121554284Y-107950722D01*
X121409392Y-108028169D01*
X121282394Y-108132394D01*
X121250000Y-108171866D01*
X121217606Y-108132394D01*
X121090608Y-108028169D01*
X120945716Y-107950722D01*
X120788500Y-107903031D01*
X120625000Y-107886928D01*
X120225000Y-107886928D01*
X120061500Y-107903031D01*
X119904284Y-107950722D01*
X119842026Y-107984000D01*
X115920841Y-107984000D01*
X115253712Y-107316872D01*
X115221896Y-107278104D01*
X115183127Y-107246287D01*
X114753710Y-106816870D01*
X114721896Y-106778104D01*
X114683130Y-106746290D01*
X114253713Y-106316873D01*
X114221896Y-106278104D01*
X114183133Y-106246292D01*
X110202840Y-102266000D01*
X111092026Y-102266000D01*
X111154284Y-102299278D01*
X111311500Y-102346969D01*
X111475000Y-102363072D01*
X111875000Y-102363072D01*
X112038500Y-102346969D01*
X112195716Y-102299278D01*
X112340608Y-102221831D01*
X112467606Y-102117606D01*
X112500000Y-102078134D01*
X112532394Y-102117606D01*
X112659392Y-102221831D01*
X112804284Y-102299278D01*
X112961500Y-102346969D01*
X113125000Y-102363072D01*
X113525000Y-102363072D01*
X113688500Y-102346969D01*
X113845716Y-102299278D01*
X113907974Y-102266000D01*
X114052541Y-102266000D01*
X114148061Y-102285000D01*
X114351939Y-102285000D01*
X114551898Y-102245226D01*
X114740256Y-102167205D01*
X114909774Y-102053937D01*
X115053937Y-101909774D01*
X115167205Y-101740256D01*
X115245226Y-101551898D01*
X115285000Y-101351939D01*
X115285000Y-101148061D01*
X115245226Y-100948102D01*
X115167205Y-100759744D01*
X115053937Y-100590226D01*
X114909774Y-100446063D01*
X114740256Y-100332795D01*
X114551898Y-100254774D01*
X114351939Y-100215000D01*
X114148061Y-100215000D01*
X114052541Y-100234000D01*
X113907974Y-100234000D01*
X113845716Y-100200722D01*
X113688500Y-100153031D01*
X113525000Y-100136928D01*
X113125000Y-100136928D01*
X112961500Y-100153031D01*
X112804284Y-100200722D01*
X112691000Y-100261274D01*
X112691000Y-99745840D01*
X112920841Y-99516000D01*
X115700098Y-99516000D01*
X115750000Y-99520915D01*
X115799902Y-99516000D01*
X116700098Y-99516000D01*
X116750000Y-99520915D01*
X116799902Y-99516000D01*
X117700098Y-99516000D01*
X117750000Y-99520915D01*
X117799902Y-99516000D01*
X119842026Y-99516000D01*
X119904284Y-99549278D01*
X120061500Y-99596969D01*
X120225000Y-99613072D01*
X120625000Y-99613072D01*
X120788500Y-99596969D01*
X120945716Y-99549278D01*
X121090608Y-99471831D01*
X121217606Y-99367606D01*
X121250000Y-99328134D01*
X121282394Y-99367606D01*
X121409392Y-99471831D01*
X121554284Y-99549278D01*
X121711500Y-99596969D01*
X121875000Y-99613072D01*
X122275000Y-99613072D01*
X122438500Y-99596969D01*
X122595716Y-99549278D01*
X122657974Y-99516000D01*
X138052541Y-99516000D01*
X138148061Y-99535000D01*
X138351939Y-99535000D01*
X138551898Y-99495226D01*
X138740256Y-99417205D01*
X138909774Y-99303937D01*
X139053937Y-99159774D01*
X139167205Y-98990256D01*
X139245226Y-98801898D01*
X139285000Y-98601939D01*
X139285000Y-98398061D01*
X139245226Y-98198102D01*
X139167205Y-98009744D01*
X139053937Y-97840226D01*
X138909774Y-97696063D01*
X138740256Y-97582795D01*
X138551898Y-97504774D01*
X138351939Y-97465000D01*
X138148061Y-97465000D01*
X138052541Y-97484000D01*
X122657974Y-97484000D01*
X122595716Y-97450722D01*
X122438500Y-97403031D01*
X122275000Y-97386928D01*
X121875000Y-97386928D01*
X121711500Y-97403031D01*
X121554284Y-97450722D01*
X121409392Y-97528169D01*
X121282394Y-97632394D01*
X121250000Y-97671866D01*
X121217606Y-97632394D01*
X121090608Y-97528169D01*
X120945716Y-97450722D01*
X120788500Y-97403031D01*
X120625000Y-97386928D01*
X120225000Y-97386928D01*
X120061500Y-97403031D01*
X119904284Y-97450722D01*
X119842026Y-97484000D01*
X118202840Y-97484000D01*
X130608133Y-85078708D01*
X130646896Y-85046896D01*
X130773860Y-84892190D01*
X130868202Y-84715687D01*
X130926298Y-84524171D01*
X130941000Y-84374902D01*
X130941000Y-84374901D01*
X130945915Y-84325000D01*
X130941000Y-84275098D01*
X130941000Y-79595840D01*
X131345841Y-79191000D01*
X143275098Y-79191000D01*
X143325000Y-79195915D01*
X143374902Y-79191000D01*
X143524171Y-79176298D01*
X143715687Y-79118202D01*
X143892190Y-79023860D01*
X144046896Y-78896896D01*
X144078712Y-78858128D01*
X147670841Y-75266000D01*
X149342026Y-75266000D01*
X149404284Y-75299278D01*
X149561500Y-75346969D01*
X149725000Y-75363072D01*
X150125000Y-75363072D01*
X150288500Y-75346969D01*
X150445716Y-75299278D01*
X150590608Y-75221831D01*
X150717606Y-75117606D01*
X150750000Y-75078134D01*
X150782394Y-75117606D01*
X150909392Y-75221831D01*
X151054284Y-75299278D01*
X151211500Y-75346969D01*
X151375000Y-75363072D01*
X151775000Y-75363072D01*
X151938500Y-75346969D01*
X152095716Y-75299278D01*
X152157974Y-75266000D01*
X152302541Y-75266000D01*
X152398061Y-75285000D01*
X152601939Y-75285000D01*
X152801898Y-75245226D01*
X152990256Y-75167205D01*
X153159774Y-75053937D01*
X153303937Y-74909774D01*
X153417205Y-74740256D01*
X153495226Y-74551898D01*
X153535000Y-74351939D01*
X153535000Y-74148061D01*
X153495226Y-73948102D01*
X153417205Y-73759744D01*
X153303937Y-73590226D01*
X153159774Y-73446063D01*
X152990256Y-73332795D01*
X152801898Y-73254774D01*
X152601939Y-73215000D01*
X152398061Y-73215000D01*
X152302541Y-73234000D01*
X152157974Y-73234000D01*
X152095716Y-73200722D01*
X151938500Y-73153031D01*
X151775000Y-73136928D01*
X151375000Y-73136928D01*
X151211500Y-73153031D01*
X151054284Y-73200722D01*
X150909392Y-73278169D01*
X150782394Y-73382394D01*
X150750000Y-73421866D01*
X150717606Y-73382394D01*
X150590608Y-73278169D01*
X150445716Y-73200722D01*
X150288500Y-73153031D01*
X150125000Y-73136928D01*
X149725000Y-73136928D01*
X149561500Y-73153031D01*
X149404284Y-73200722D01*
X149342026Y-73234000D01*
X147299893Y-73234000D01*
X147249999Y-73229086D01*
X147200105Y-73234000D01*
X147200098Y-73234000D01*
X147050829Y-73248702D01*
X146859313Y-73306798D01*
X146682810Y-73401140D01*
X146528104Y-73528104D01*
X146496292Y-73566867D01*
X142904160Y-77159000D01*
X131345841Y-77159000D01*
X130941000Y-76754160D01*
X130941000Y-75238726D01*
X131054284Y-75299278D01*
X131211500Y-75346969D01*
X131375000Y-75363072D01*
X131775000Y-75363072D01*
X131938500Y-75346969D01*
X132095716Y-75299278D01*
X132157974Y-75266000D01*
X132302541Y-75266000D01*
X132398061Y-75285000D01*
X132601939Y-75285000D01*
X132801898Y-75245226D01*
X132990256Y-75167205D01*
X133159774Y-75053937D01*
X133303937Y-74909774D01*
X133417205Y-74740256D01*
X133495226Y-74551898D01*
X133535000Y-74351939D01*
X133535000Y-74148061D01*
X133495226Y-73948102D01*
X133417205Y-73759744D01*
X133303937Y-73590226D01*
X133159774Y-73446063D01*
X132990256Y-73332795D01*
X132801898Y-73254774D01*
X132601939Y-73215000D01*
X132398061Y-73215000D01*
X132302541Y-73234000D01*
X132157974Y-73234000D01*
X132095716Y-73200722D01*
X131938500Y-73153031D01*
X131797679Y-73139162D01*
X132433133Y-72503708D01*
X132471896Y-72471896D01*
X132598860Y-72317190D01*
X132693202Y-72140687D01*
X132751298Y-71949171D01*
X132766000Y-71799902D01*
X132766000Y-71799901D01*
X132770915Y-71750000D01*
X132766000Y-71700098D01*
X132766000Y-69549902D01*
X132770915Y-69500000D01*
X132751298Y-69300829D01*
X132693202Y-69109313D01*
X132598860Y-68932810D01*
X132471896Y-68778104D01*
X132433133Y-68746292D01*
X131503712Y-67816872D01*
X131471896Y-67778104D01*
X131317190Y-67651140D01*
X131140687Y-67556798D01*
X130949171Y-67498702D01*
X130799902Y-67484000D01*
X130750000Y-67479085D01*
X130700098Y-67484000D01*
X126215039Y-67484000D01*
X128186747Y-66887862D01*
X128436510Y-66822338D01*
X128452528Y-66817563D01*
X128459226Y-66815987D01*
X128804024Y-66713600D01*
X128807380Y-66712269D01*
X128810916Y-66711517D01*
X128890228Y-66682021D01*
X129704199Y-66324712D01*
X129724464Y-66313571D01*
X129745874Y-66304834D01*
X129818696Y-66261767D01*
X129818710Y-66261759D01*
X129818715Y-66261755D01*
X130556543Y-65765956D01*
X130574511Y-65751406D01*
X130594041Y-65739012D01*
X130658097Y-65683720D01*
X131296470Y-65065093D01*
X131311582Y-65047586D01*
X131328603Y-65031934D01*
X131381840Y-64966192D01*
X131381856Y-64966173D01*
X131381861Y-64966165D01*
X131900590Y-64244277D01*
X131912363Y-64224370D01*
X131926343Y-64205952D01*
X131967109Y-64131800D01*
X132349809Y-63329453D01*
X132357869Y-63307780D01*
X132368369Y-63287173D01*
X132395359Y-63206974D01*
X132629927Y-62349538D01*
X132634022Y-62326778D01*
X132640706Y-62304640D01*
X132653067Y-62220928D01*
X132731782Y-61338949D01*
X132735000Y-61306272D01*
X132735000Y-60032731D01*
X132762021Y-59729963D01*
X134258266Y-59729963D01*
X134258266Y-60270037D01*
X134363629Y-60799734D01*
X134570307Y-61298698D01*
X134870356Y-61747753D01*
X135252247Y-62129644D01*
X135701302Y-62429693D01*
X136200266Y-62636371D01*
X136729963Y-62741734D01*
X137270037Y-62741734D01*
X137799734Y-62636371D01*
X138298698Y-62429693D01*
X138747753Y-62129644D01*
X139129644Y-61747753D01*
X139429693Y-61298698D01*
X139636371Y-60799734D01*
X139741734Y-60270037D01*
X139741734Y-59729963D01*
X139636371Y-59200266D01*
X139429693Y-58701302D01*
X139129644Y-58252247D01*
X138747753Y-57870356D01*
X138298698Y-57570307D01*
X137799734Y-57363629D01*
X137270037Y-57258266D01*
X136729963Y-57258266D01*
X136200266Y-57363629D01*
X135701302Y-57570307D01*
X135252247Y-57870356D01*
X134870356Y-58252247D01*
X134570307Y-58701302D01*
X134363629Y-59200266D01*
X134258266Y-59729963D01*
X132762021Y-59729963D01*
X132805281Y-59245253D01*
X133005231Y-58514357D01*
X133331450Y-57830425D01*
X133773626Y-57215072D01*
X134317789Y-56687741D01*
X134946726Y-56265114D01*
X135640570Y-55960537D01*
X136377386Y-55783643D01*
X137133871Y-55740024D01*
X137886138Y-55831059D01*
G37*
%TD.AperFunction*%
%TD*%
M02*
