M48
; DRILL file {KiCad (5.1.10)-1} date 10/20/21 07:52:07
; FORMAT={-:-/ absolute / inch / decimal}
; #@! TF.CreationDate,2021-10-20T07:52:07+02:00
; #@! TF.GenerationSoftware,Kicad,Pcbnew,(5.1.10)-1
; #@! TF.FileFunction,Plated,1,2,PTH
FMAT,2
INCH
T1C0.0157
%
G90
G05
T1
X4.2323Y-4.2224
X4.3209Y-3.4449
X4.4783Y-3.4449
X4.498Y-3.9862
X4.5276Y-4.5276
X4.5669Y-2.9626
X4.5669Y-3.3366
X4.6161Y-4.0945
X4.6555Y-3.9862
X4.685Y-4.5276
X4.7244Y-4.872
X4.7835Y-2.9429
X4.9213Y-4.9902
X4.9409Y-2.9429
X5.0689Y-4.2913
X5.0787Y-4.9902
X5.1083Y-5.1969
X5.2165Y-2.9232
X5.2264Y-4.2913
X5.2854Y-4.5669
X5.3543Y-4.1339
X5.374Y-2.9232
X5.4429Y-3.878
X5.4823Y-3.6614
X5.5118Y-2.9331
X5.561Y-5.1083
X5.6004Y-3.878
X5.6398Y-4.8917
X5.7185Y-5.1083
X5.8071Y-4.5965
X6.0039Y-2.9232
X6.1614Y-2.9232
X6.1909Y-4.3602
X6.1909Y-4.9213
X6.2106Y-3.5925
X6.3189Y-4.5374
X6.3484Y-4.3602
X6.5157Y-4.0945
T0
M30
