M48
; DRILL file {KiCad (5.1.10)-1} date 12/02/21 14:31:01
; FORMAT={-:-/ absolute / inch / decimal}
; #@! TF.CreationDate,2021-12-02T14:31:01+01:00
; #@! TF.GenerationSoftware,Kicad,Pcbnew,(5.1.10)-1
; #@! TF.FileFunction,Plated,1,2,PTH
FMAT,2
INCH
T1C0.0157
%
G90
G05
T1
X4.3012Y-4.6457
X4.3504Y-4.4094
X4.5079Y-3.6122
X4.5079Y-4.4094
X4.6555Y-4.252
X4.6654Y-3.6122
X4.7343Y-3.2776
X4.7835Y-2.9429
X4.813Y-5.0492
X4.9016Y-3.9764
X4.9311Y-4.065
X4.9409Y-2.9429
X4.9902Y-3.6122
X5.0886Y-4.065
X5.187Y-2.8248
X5.3051Y-5.128
X5.3248Y-5.2264
X5.3543Y-4.5571
X5.4134Y-3.7008
X5.4626Y-5.128
X5.4724Y-4.4193
X5.5118Y-4.5571
X5.5709Y-3.7008
X5.6398Y-3.9272
X5.8071Y-2.9232
X5.8268Y-4.1043
X5.876Y-4.2421
X5.9646Y-2.9232
X5.9843Y-4.1043
X5.9843Y-5.0591
X6.1122Y-3.8681
X6.1811Y-3.5138
X6.1909Y-4.3602
X6.3386Y-3.5138
X6.3484Y-4.3602
X6.3878Y-4.6457
X6.565Y-4.1142
T0
M30
