M48
; DRILL file {KiCad (5.1.10)-1} date 10/20/21 09:15:13
; FORMAT={-:-/ absolute / inch / decimal}
; #@! TF.CreationDate,2021-10-20T09:15:13+02:00
; #@! TF.GenerationSoftware,Kicad,Pcbnew,(5.1.10)-1
; #@! TF.FileFunction,Plated,1,2,PTH
FMAT,2
INCH
T1C0.0157
%
G90
G05
T1
X4.3406Y-3.4646
X4.498Y-3.9862
X4.5571Y-4.3504
X4.626Y-3.8091
X4.6555Y-3.9862
X4.7539Y-5.0591
X4.8228Y-2.9331
X4.8228Y-3.4055
X4.8819Y-3.9567
X5.0591Y-4.9213
X5.1083Y-4.4783
X5.3937Y-3.6909
X5.4429Y-3.4744
X5.4921Y-2.8839
X5.5512Y-3.6909
X5.5512Y-5.1181
X5.7185Y-5.1181
X5.8661Y-5.1575
X5.9055Y-4.0453
X6.1122Y-4.5276
X6.122Y-4.8917
X6.1713Y-2.9331
X6.2008Y-3.5531
X6.3583Y-4.3701
X6.5157Y-4.1142
X6.5157Y-4.3701
T0
M30
