%TF.GenerationSoftware,KiCad,Pcbnew,(5.1.10)-1*%
%TF.CreationDate,2021-10-20T09:15:12+02:00*%
%TF.ProjectId,TVZ_kuglica,54565a5f-6b75-4676-9c69-63612e6b6963,rev?*%
%TF.SameCoordinates,Original*%
%TF.FileFunction,Paste,Bot*%
%TF.FilePolarity,Positive*%
%FSLAX46Y46*%
G04 Gerber Fmt 4.6, Leading zero omitted, Abs format (unit mm)*
G04 Created by KiCad (PCBNEW (5.1.10)-1) date 2021-10-20 09:15:12*
%MOMM*%
%LPD*%
G01*
G04 APERTURE LIST*
%ADD10R,1.500000X0.700000*%
%ADD11R,0.800000X1.000000*%
%ADD12R,3.800000X3.500000*%
%ADD13R,2.800000X5.700000*%
G04 APERTURE END LIST*
D10*
%TO.C,SW1*%
X105930000Y-102000000D03*
X105930000Y-99000000D03*
X105930000Y-97500000D03*
D11*
X103070000Y-103400000D03*
X103070000Y-96100000D03*
X105280000Y-96100000D03*
X105280000Y-103400000D03*
%TD*%
D12*
%TO.C,BT1*%
X137000000Y-99000000D03*
D13*
X137000000Y-121500000D03*
%TD*%
%TO.C,R1*%
G36*
G01*
X111275000Y-101525000D02*
X111275000Y-100975000D01*
G75*
G02*
X111475000Y-100775000I200000J0D01*
G01*
X111875000Y-100775000D01*
G75*
G02*
X112075000Y-100975000I0J-200000D01*
G01*
X112075000Y-101525000D01*
G75*
G02*
X111875000Y-101725000I-200000J0D01*
G01*
X111475000Y-101725000D01*
G75*
G02*
X111275000Y-101525000I0J200000D01*
G01*
G37*
G36*
G01*
X112925000Y-101525000D02*
X112925000Y-100975000D01*
G75*
G02*
X113125000Y-100775000I200000J0D01*
G01*
X113525000Y-100775000D01*
G75*
G02*
X113725000Y-100975000I0J-200000D01*
G01*
X113725000Y-101525000D01*
G75*
G02*
X113525000Y-101725000I-200000J0D01*
G01*
X113125000Y-101725000D01*
G75*
G02*
X112925000Y-101525000I0J200000D01*
G01*
G37*
%TD*%
%TO.C,R2*%
G36*
G01*
X160175000Y-111275000D02*
X160175000Y-110725000D01*
G75*
G02*
X160375000Y-110525000I200000J0D01*
G01*
X160775000Y-110525000D01*
G75*
G02*
X160975000Y-110725000I0J-200000D01*
G01*
X160975000Y-111275000D01*
G75*
G02*
X160775000Y-111475000I-200000J0D01*
G01*
X160375000Y-111475000D01*
G75*
G02*
X160175000Y-111275000I0J200000D01*
G01*
G37*
G36*
G01*
X158525000Y-111275000D02*
X158525000Y-110725000D01*
G75*
G02*
X158725000Y-110525000I200000J0D01*
G01*
X159125000Y-110525000D01*
G75*
G02*
X159325000Y-110725000I0J-200000D01*
G01*
X159325000Y-111275000D01*
G75*
G02*
X159125000Y-111475000I-200000J0D01*
G01*
X158725000Y-111475000D01*
G75*
G02*
X158525000Y-111275000I0J200000D01*
G01*
G37*
%TD*%
%TO.C,R3*%
G36*
G01*
X134025000Y-94025000D02*
X134025000Y-93475000D01*
G75*
G02*
X134225000Y-93275000I200000J0D01*
G01*
X134625000Y-93275000D01*
G75*
G02*
X134825000Y-93475000I0J-200000D01*
G01*
X134825000Y-94025000D01*
G75*
G02*
X134625000Y-94225000I-200000J0D01*
G01*
X134225000Y-94225000D01*
G75*
G02*
X134025000Y-94025000I0J200000D01*
G01*
G37*
G36*
G01*
X135675000Y-94025000D02*
X135675000Y-93475000D01*
G75*
G02*
X135875000Y-93275000I200000J0D01*
G01*
X136275000Y-93275000D01*
G75*
G02*
X136475000Y-93475000I0J-200000D01*
G01*
X136475000Y-94025000D01*
G75*
G02*
X136275000Y-94225000I-200000J0D01*
G01*
X135875000Y-94225000D01*
G75*
G02*
X135675000Y-94025000I0J200000D01*
G01*
G37*
%TD*%
%TO.C,R4*%
G36*
G01*
X138025000Y-130275000D02*
X138025000Y-129725000D01*
G75*
G02*
X138225000Y-129525000I200000J0D01*
G01*
X138625000Y-129525000D01*
G75*
G02*
X138825000Y-129725000I0J-200000D01*
G01*
X138825000Y-130275000D01*
G75*
G02*
X138625000Y-130475000I-200000J0D01*
G01*
X138225000Y-130475000D01*
G75*
G02*
X138025000Y-130275000I0J200000D01*
G01*
G37*
G36*
G01*
X139675000Y-130275000D02*
X139675000Y-129725000D01*
G75*
G02*
X139875000Y-129525000I200000J0D01*
G01*
X140275000Y-129525000D01*
G75*
G02*
X140475000Y-129725000I0J-200000D01*
G01*
X140475000Y-130275000D01*
G75*
G02*
X140275000Y-130475000I-200000J0D01*
G01*
X139875000Y-130475000D01*
G75*
G02*
X139675000Y-130275000I0J200000D01*
G01*
G37*
%TD*%
M02*
