%TF.GenerationSoftware,KiCad,Pcbnew,(5.1.10)-1*%
%TF.CreationDate,2021-10-20T09:15:12+02:00*%
%TF.ProjectId,TVZ_kuglica,54565a5f-6b75-4676-9c69-63612e6b6963,rev?*%
%TF.SameCoordinates,Original*%
%TF.FileFunction,Legend,Bot*%
%TF.FilePolarity,Positive*%
%FSLAX46Y46*%
G04 Gerber Fmt 4.6, Leading zero omitted, Abs format (unit mm)*
G04 Created by KiCad (PCBNEW (5.1.10)-1) date 2021-10-20 09:15:12*
%MOMM*%
%LPD*%
G01*
G04 APERTURE LIST*
%ADD10C,0.200000*%
%ADD11C,0.010000*%
%ADD12C,0.120000*%
%ADD13C,0.500000*%
G04 APERTURE END LIST*
D10*
X110616666Y-100983333D02*
X110350000Y-100983333D01*
X110216666Y-101050000D01*
X110083333Y-101183333D01*
X110016666Y-101450000D01*
X110016666Y-101916666D01*
X110083333Y-102183333D01*
X110216666Y-102316666D01*
X110350000Y-102383333D01*
X110616666Y-102383333D01*
X110750000Y-102316666D01*
X110883333Y-102183333D01*
X110950000Y-101916666D01*
X110950000Y-101450000D01*
X110883333Y-101183333D01*
X110750000Y-101050000D01*
X110616666Y-100983333D01*
X109416666Y-102383333D02*
X109416666Y-100983333D01*
X108616666Y-102383333D01*
X108616666Y-100983333D01*
X110833333Y-97233333D02*
X110566666Y-97233333D01*
X110433333Y-97300000D01*
X110300000Y-97433333D01*
X110233333Y-97700000D01*
X110233333Y-98166666D01*
X110300000Y-98433333D01*
X110433333Y-98566666D01*
X110566666Y-98633333D01*
X110833333Y-98633333D01*
X110966666Y-98566666D01*
X111100000Y-98433333D01*
X111166666Y-98166666D01*
X111166666Y-97700000D01*
X111100000Y-97433333D01*
X110966666Y-97300000D01*
X110833333Y-97233333D01*
X109166666Y-97900000D02*
X109633333Y-97900000D01*
X109633333Y-98633333D02*
X109633333Y-97233333D01*
X108966666Y-97233333D01*
X107966666Y-97900000D02*
X108433333Y-97900000D01*
X108433333Y-98633333D02*
X108433333Y-97233333D01*
X107766666Y-97233333D01*
X137821428Y-116428571D02*
X136750000Y-116428571D01*
X136535714Y-116500000D01*
X136392857Y-116642857D01*
X136321428Y-116857142D01*
X136321428Y-117000000D01*
X136321428Y-115000000D02*
X136321428Y-115714285D01*
X137821428Y-115714285D01*
X136464285Y-113642857D02*
X136392857Y-113714285D01*
X136321428Y-113928571D01*
X136321428Y-114071428D01*
X136392857Y-114285714D01*
X136535714Y-114428571D01*
X136678571Y-114500000D01*
X136964285Y-114571428D01*
X137178571Y-114571428D01*
X137464285Y-114500000D01*
X137607142Y-114428571D01*
X137750000Y-114285714D01*
X137821428Y-114071428D01*
X137821428Y-113928571D01*
X137750000Y-113714285D01*
X137678571Y-113642857D01*
X137821428Y-112571428D02*
X136750000Y-112571428D01*
X136535714Y-112642857D01*
X136392857Y-112785714D01*
X136321428Y-113000000D01*
X136321428Y-113142857D01*
X136321428Y-111142857D02*
X136321428Y-111857142D01*
X137821428Y-111857142D01*
X136464285Y-109785714D02*
X136392857Y-109857142D01*
X136321428Y-110071428D01*
X136321428Y-110214285D01*
X136392857Y-110428571D01*
X136535714Y-110571428D01*
X136678571Y-110642857D01*
X136964285Y-110714285D01*
X137178571Y-110714285D01*
X137464285Y-110642857D01*
X137607142Y-110571428D01*
X137750000Y-110428571D01*
X137821428Y-110214285D01*
X137821428Y-110071428D01*
X137750000Y-109857142D01*
X137678571Y-109785714D01*
X137821428Y-108714285D02*
X136750000Y-108714285D01*
X136535714Y-108785714D01*
X136392857Y-108928571D01*
X136321428Y-109142857D01*
X136321428Y-109285714D01*
X136321428Y-107285714D02*
X136321428Y-108000000D01*
X137821428Y-108000000D01*
X136464285Y-105928571D02*
X136392857Y-106000000D01*
X136321428Y-106214285D01*
X136321428Y-106357142D01*
X136392857Y-106571428D01*
X136535714Y-106714285D01*
X136678571Y-106785714D01*
X136964285Y-106857142D01*
X137178571Y-106857142D01*
X137464285Y-106785714D01*
X137607142Y-106714285D01*
X137750000Y-106571428D01*
X137821428Y-106357142D01*
X137821428Y-106214285D01*
X137750000Y-106000000D01*
X137678571Y-105928571D01*
X137821428Y-104857142D02*
X136750000Y-104857142D01*
X136535714Y-104928571D01*
X136392857Y-105071428D01*
X136321428Y-105285714D01*
X136321428Y-105428571D01*
X136321428Y-103428571D02*
X136321428Y-104142857D01*
X137821428Y-104142857D01*
X136464285Y-102071428D02*
X136392857Y-102142857D01*
X136321428Y-102357142D01*
X136321428Y-102500000D01*
X136392857Y-102714285D01*
X136535714Y-102857142D01*
X136678571Y-102928571D01*
X136964285Y-103000000D01*
X137178571Y-103000000D01*
X137464285Y-102928571D01*
X137607142Y-102857142D01*
X137750000Y-102714285D01*
X137821428Y-102500000D01*
X137821428Y-102357142D01*
X137750000Y-102142857D01*
X137678571Y-102071428D01*
D11*
%TO.C,G\u002A\u002A\u002A*%
G36*
X108765721Y-109010609D02*
G01*
X108718635Y-109014585D01*
X108687925Y-109020409D01*
X108630352Y-109041801D01*
X108573314Y-109073897D01*
X108520993Y-109113665D01*
X108477574Y-109158074D01*
X108455667Y-109188715D01*
X108430701Y-109244254D01*
X108417328Y-109306605D01*
X108415508Y-109371778D01*
X108425199Y-109435780D01*
X108446362Y-109494623D01*
X108458997Y-109517375D01*
X108501320Y-109571145D01*
X108555016Y-109618082D01*
X108616043Y-109655135D01*
X108669547Y-109676251D01*
X108705024Y-109683912D01*
X108748598Y-109689053D01*
X108795397Y-109691538D01*
X108840546Y-109691229D01*
X108879170Y-109687990D01*
X108903282Y-109682813D01*
X108975287Y-109654220D01*
X109034297Y-109620284D01*
X109082719Y-109579496D01*
X109101395Y-109558867D01*
X109137395Y-109509714D01*
X109160832Y-109461650D01*
X109173282Y-109409973D01*
X109176315Y-109349983D01*
X109175916Y-109336186D01*
X109173473Y-109297909D01*
X109168709Y-109268889D01*
X109160083Y-109242524D01*
X109147709Y-109215550D01*
X109109841Y-109156178D01*
X109059677Y-109103888D01*
X109000049Y-109060951D01*
X108933790Y-109029638D01*
X108904326Y-109020409D01*
X108865002Y-109013521D01*
X108816655Y-109010254D01*
X108765721Y-109010609D01*
G37*
X108765721Y-109010609D02*
X108718635Y-109014585D01*
X108687925Y-109020409D01*
X108630352Y-109041801D01*
X108573314Y-109073897D01*
X108520993Y-109113665D01*
X108477574Y-109158074D01*
X108455667Y-109188715D01*
X108430701Y-109244254D01*
X108417328Y-109306605D01*
X108415508Y-109371778D01*
X108425199Y-109435780D01*
X108446362Y-109494623D01*
X108458997Y-109517375D01*
X108501320Y-109571145D01*
X108555016Y-109618082D01*
X108616043Y-109655135D01*
X108669547Y-109676251D01*
X108705024Y-109683912D01*
X108748598Y-109689053D01*
X108795397Y-109691538D01*
X108840546Y-109691229D01*
X108879170Y-109687990D01*
X108903282Y-109682813D01*
X108975287Y-109654220D01*
X109034297Y-109620284D01*
X109082719Y-109579496D01*
X109101395Y-109558867D01*
X109137395Y-109509714D01*
X109160832Y-109461650D01*
X109173282Y-109409973D01*
X109176315Y-109349983D01*
X109175916Y-109336186D01*
X109173473Y-109297909D01*
X109168709Y-109268889D01*
X109160083Y-109242524D01*
X109147709Y-109215550D01*
X109109841Y-109156178D01*
X109059677Y-109103888D01*
X109000049Y-109060951D01*
X108933790Y-109029638D01*
X108904326Y-109020409D01*
X108865002Y-109013521D01*
X108816655Y-109010254D01*
X108765721Y-109010609D01*
G36*
X107438892Y-109176177D02*
G01*
X107380420Y-109176556D01*
X107335129Y-109177253D01*
X107301672Y-109178322D01*
X107278703Y-109179818D01*
X107264874Y-109181792D01*
X107258840Y-109184301D01*
X107258436Y-109186184D01*
X107261260Y-109194930D01*
X107268336Y-109217349D01*
X107279201Y-109251955D01*
X107293393Y-109297262D01*
X107310447Y-109351786D01*
X107329902Y-109414039D01*
X107351293Y-109482538D01*
X107374157Y-109555795D01*
X107398032Y-109632326D01*
X107422454Y-109710645D01*
X107446960Y-109789266D01*
X107471086Y-109866704D01*
X107494370Y-109941472D01*
X107516349Y-110012086D01*
X107536558Y-110077060D01*
X107554536Y-110134908D01*
X107569818Y-110184145D01*
X107581941Y-110223284D01*
X107590444Y-110250841D01*
X107593917Y-110262196D01*
X107595972Y-110268736D01*
X107597517Y-110274186D01*
X107597865Y-110277871D01*
X107596331Y-110279119D01*
X107592228Y-110277256D01*
X107584869Y-110271608D01*
X107573570Y-110261502D01*
X107557643Y-110246265D01*
X107536402Y-110225223D01*
X107509161Y-110197703D01*
X107475233Y-110163031D01*
X107433934Y-110120534D01*
X107384575Y-110069538D01*
X107326472Y-110009371D01*
X107258938Y-109939357D01*
X107181286Y-109858826D01*
X107153148Y-109829645D01*
X107014157Y-109685508D01*
X106843642Y-109684785D01*
X106673128Y-109684063D01*
X106756318Y-109769391D01*
X106794827Y-109808881D01*
X106839098Y-109854266D01*
X106883799Y-109900081D01*
X106923600Y-109940862D01*
X106925533Y-109942843D01*
X107011558Y-110030966D01*
X106922547Y-110036599D01*
X106861234Y-110042307D01*
X106813357Y-110051259D01*
X106776665Y-110064255D01*
X106748909Y-110082092D01*
X106727838Y-110105571D01*
X106727696Y-110105775D01*
X106716602Y-110123970D01*
X106708913Y-110142990D01*
X106704860Y-110164560D01*
X106704672Y-110190403D01*
X106708580Y-110222243D01*
X106716813Y-110261805D01*
X106729601Y-110310812D01*
X106747173Y-110370987D01*
X106769759Y-110444057D01*
X106774982Y-110460636D01*
X106792582Y-110516614D01*
X106808508Y-110567738D01*
X106822158Y-110612033D01*
X106832926Y-110647523D01*
X106840210Y-110672233D01*
X106843405Y-110684185D01*
X106843500Y-110684870D01*
X106835792Y-110686664D01*
X106813579Y-110688261D01*
X106778231Y-110689628D01*
X106731118Y-110690731D01*
X106673611Y-110691536D01*
X106607078Y-110692008D01*
X106549813Y-110692125D01*
X106463565Y-110692341D01*
X106391932Y-110692983D01*
X106335155Y-110694046D01*
X106293477Y-110695523D01*
X106267140Y-110697407D01*
X106256387Y-110699691D01*
X106256125Y-110700149D01*
X106259277Y-110711451D01*
X106267340Y-110731585D01*
X106273731Y-110745790D01*
X106305352Y-110795252D01*
X106350312Y-110838762D01*
X106406761Y-110874978D01*
X106472847Y-110902557D01*
X106501252Y-110910790D01*
X106514956Y-110913738D01*
X106531846Y-110916145D01*
X106553418Y-110918048D01*
X106581172Y-110919483D01*
X106616605Y-110920485D01*
X106661215Y-110921091D01*
X106716499Y-110921337D01*
X106783957Y-110921260D01*
X106865085Y-110920896D01*
X106908393Y-110920635D01*
X106993364Y-110920076D01*
X107063946Y-110919527D01*
X107121621Y-110918914D01*
X107167876Y-110918164D01*
X107204195Y-110917202D01*
X107232062Y-110915954D01*
X107252962Y-110914344D01*
X107268381Y-110912300D01*
X107279801Y-110909746D01*
X107288709Y-110906608D01*
X107296589Y-110902812D01*
X107299907Y-110901027D01*
X107325104Y-110882825D01*
X107347448Y-110859599D01*
X107351280Y-110854305D01*
X107362120Y-110835338D01*
X107367959Y-110815808D01*
X107370072Y-110789880D01*
X107370078Y-110768435D01*
X107369150Y-110749164D01*
X107366578Y-110728231D01*
X107361833Y-110703557D01*
X107354391Y-110673064D01*
X107343727Y-110634672D01*
X107329313Y-110586303D01*
X107310624Y-110525877D01*
X107300845Y-110494724D01*
X107283308Y-110438899D01*
X107267434Y-110388113D01*
X107253821Y-110344304D01*
X107243070Y-110309408D01*
X107235778Y-110285362D01*
X107232545Y-110274105D01*
X107232438Y-110273544D01*
X107237903Y-110277520D01*
X107253159Y-110290888D01*
X107276502Y-110312096D01*
X107306227Y-110339589D01*
X107340627Y-110371814D01*
X107349516Y-110380199D01*
X107387568Y-110415913D01*
X107434396Y-110459499D01*
X107486999Y-110508186D01*
X107542374Y-110559201D01*
X107597522Y-110609773D01*
X107645188Y-110653263D01*
X107710521Y-110712670D01*
X107765721Y-110762367D01*
X107812476Y-110803237D01*
X107852477Y-110836166D01*
X107887411Y-110862038D01*
X107918967Y-110881736D01*
X107948836Y-110896147D01*
X107978704Y-110906153D01*
X108010262Y-110912640D01*
X108045198Y-110916492D01*
X108085202Y-110918594D01*
X108131962Y-110919829D01*
X108155172Y-110920327D01*
X108209027Y-110921140D01*
X108253219Y-110921068D01*
X108286147Y-110920152D01*
X108306205Y-110918433D01*
X108311938Y-110916335D01*
X108309515Y-110905368D01*
X108303220Y-110884386D01*
X108296063Y-110862781D01*
X108287663Y-110837273D01*
X108281908Y-110817708D01*
X108280188Y-110809472D01*
X108285635Y-110810300D01*
X108299853Y-110819526D01*
X108317891Y-110833638D01*
X108357730Y-110863474D01*
X108398026Y-110885710D01*
X108445705Y-110904355D01*
X108460431Y-110908287D01*
X108480337Y-110911490D01*
X108507248Y-110914074D01*
X108542986Y-110916147D01*
X108589377Y-110917818D01*
X108648243Y-110919199D01*
X108710526Y-110920240D01*
X108938457Y-110923582D01*
X108974915Y-111035743D01*
X109009114Y-111130680D01*
X109046014Y-111211757D01*
X109087047Y-111280936D01*
X109133642Y-111340179D01*
X109187229Y-111391450D01*
X109249238Y-111436712D01*
X109281244Y-111456206D01*
X109336762Y-111483073D01*
X109399737Y-111504851D01*
X109466720Y-111521042D01*
X109534261Y-111531147D01*
X109598908Y-111534668D01*
X109657213Y-111531106D01*
X109705725Y-111519963D01*
X109710420Y-111518211D01*
X109767550Y-111490076D01*
X109814285Y-111453422D01*
X109853330Y-111405707D01*
X109880650Y-111358257D01*
X109902334Y-111307599D01*
X109915786Y-111256239D01*
X109922196Y-111198633D01*
X109922851Y-111172344D01*
X109633307Y-111172344D01*
X109633075Y-111209315D01*
X109631622Y-111234720D01*
X109628077Y-111252861D01*
X109621566Y-111268043D01*
X109611219Y-111284570D01*
X109610282Y-111285956D01*
X109594868Y-111306116D01*
X109585033Y-111312454D01*
X109581380Y-111309768D01*
X109577427Y-111299525D01*
X109569412Y-111276389D01*
X109558081Y-111242596D01*
X109544178Y-111200382D01*
X109528449Y-111151985D01*
X109517802Y-111118908D01*
X109501780Y-111068243D01*
X109487811Y-111022724D01*
X109476514Y-110984480D01*
X109468509Y-110955640D01*
X109464412Y-110938335D01*
X109464160Y-110934257D01*
X109474942Y-110933591D01*
X109494220Y-110940568D01*
X109517957Y-110953087D01*
X109542116Y-110969048D01*
X109560796Y-110984535D01*
X109583000Y-111009597D01*
X109604350Y-111039783D01*
X109612199Y-111053281D01*
X109622102Y-111073828D01*
X109628327Y-111093076D01*
X109631709Y-111115752D01*
X109633089Y-111146582D01*
X109633307Y-111172344D01*
X109922851Y-111172344D01*
X109923156Y-111160121D01*
X109918662Y-111080831D01*
X109904141Y-111011654D01*
X109878354Y-110949482D01*
X109840065Y-110891208D01*
X109796427Y-110842077D01*
X109761668Y-110808816D01*
X109730514Y-110784095D01*
X109697140Y-110763682D01*
X109669250Y-110749648D01*
X109597429Y-110720834D01*
X109524607Y-110701385D01*
X109455738Y-110692536D01*
X109439015Y-110692125D01*
X109393289Y-110692125D01*
X109341388Y-110531391D01*
X109324109Y-110477869D01*
X109303353Y-110413557D01*
X109280513Y-110342775D01*
X109256982Y-110269841D01*
X109234155Y-110199076D01*
X109219733Y-110154359D01*
X109149980Y-109938062D01*
X108893678Y-109938063D01*
X108831701Y-109938257D01*
X108775123Y-109938809D01*
X108725812Y-109939670D01*
X108685639Y-109940794D01*
X108656475Y-109942131D01*
X108640188Y-109943635D01*
X108637375Y-109944602D01*
X108639682Y-109953261D01*
X108646296Y-109975572D01*
X108656758Y-110010045D01*
X108670609Y-110055189D01*
X108687390Y-110109513D01*
X108706641Y-110171528D01*
X108727905Y-110239742D01*
X108750720Y-110312665D01*
X108752469Y-110318245D01*
X108775363Y-110391334D01*
X108796741Y-110459717D01*
X108816146Y-110521920D01*
X108833120Y-110576467D01*
X108847206Y-110621886D01*
X108857944Y-110656703D01*
X108864877Y-110679442D01*
X108867547Y-110688630D01*
X108867563Y-110688737D01*
X108859908Y-110689482D01*
X108838072Y-110690170D01*
X108803750Y-110690783D01*
X108758635Y-110691303D01*
X108704422Y-110691711D01*
X108642806Y-110691989D01*
X108575480Y-110692118D01*
X108555283Y-110692125D01*
X108243004Y-110692125D01*
X107769228Y-109176063D01*
X107511890Y-109176063D01*
X107438892Y-109176177D01*
G37*
X107438892Y-109176177D02*
X107380420Y-109176556D01*
X107335129Y-109177253D01*
X107301672Y-109178322D01*
X107278703Y-109179818D01*
X107264874Y-109181792D01*
X107258840Y-109184301D01*
X107258436Y-109186184D01*
X107261260Y-109194930D01*
X107268336Y-109217349D01*
X107279201Y-109251955D01*
X107293393Y-109297262D01*
X107310447Y-109351786D01*
X107329902Y-109414039D01*
X107351293Y-109482538D01*
X107374157Y-109555795D01*
X107398032Y-109632326D01*
X107422454Y-109710645D01*
X107446960Y-109789266D01*
X107471086Y-109866704D01*
X107494370Y-109941472D01*
X107516349Y-110012086D01*
X107536558Y-110077060D01*
X107554536Y-110134908D01*
X107569818Y-110184145D01*
X107581941Y-110223284D01*
X107590444Y-110250841D01*
X107593917Y-110262196D01*
X107595972Y-110268736D01*
X107597517Y-110274186D01*
X107597865Y-110277871D01*
X107596331Y-110279119D01*
X107592228Y-110277256D01*
X107584869Y-110271608D01*
X107573570Y-110261502D01*
X107557643Y-110246265D01*
X107536402Y-110225223D01*
X107509161Y-110197703D01*
X107475233Y-110163031D01*
X107433934Y-110120534D01*
X107384575Y-110069538D01*
X107326472Y-110009371D01*
X107258938Y-109939357D01*
X107181286Y-109858826D01*
X107153148Y-109829645D01*
X107014157Y-109685508D01*
X106843642Y-109684785D01*
X106673128Y-109684063D01*
X106756318Y-109769391D01*
X106794827Y-109808881D01*
X106839098Y-109854266D01*
X106883799Y-109900081D01*
X106923600Y-109940862D01*
X106925533Y-109942843D01*
X107011558Y-110030966D01*
X106922547Y-110036599D01*
X106861234Y-110042307D01*
X106813357Y-110051259D01*
X106776665Y-110064255D01*
X106748909Y-110082092D01*
X106727838Y-110105571D01*
X106727696Y-110105775D01*
X106716602Y-110123970D01*
X106708913Y-110142990D01*
X106704860Y-110164560D01*
X106704672Y-110190403D01*
X106708580Y-110222243D01*
X106716813Y-110261805D01*
X106729601Y-110310812D01*
X106747173Y-110370987D01*
X106769759Y-110444057D01*
X106774982Y-110460636D01*
X106792582Y-110516614D01*
X106808508Y-110567738D01*
X106822158Y-110612033D01*
X106832926Y-110647523D01*
X106840210Y-110672233D01*
X106843405Y-110684185D01*
X106843500Y-110684870D01*
X106835792Y-110686664D01*
X106813579Y-110688261D01*
X106778231Y-110689628D01*
X106731118Y-110690731D01*
X106673611Y-110691536D01*
X106607078Y-110692008D01*
X106549813Y-110692125D01*
X106463565Y-110692341D01*
X106391932Y-110692983D01*
X106335155Y-110694046D01*
X106293477Y-110695523D01*
X106267140Y-110697407D01*
X106256387Y-110699691D01*
X106256125Y-110700149D01*
X106259277Y-110711451D01*
X106267340Y-110731585D01*
X106273731Y-110745790D01*
X106305352Y-110795252D01*
X106350312Y-110838762D01*
X106406761Y-110874978D01*
X106472847Y-110902557D01*
X106501252Y-110910790D01*
X106514956Y-110913738D01*
X106531846Y-110916145D01*
X106553418Y-110918048D01*
X106581172Y-110919483D01*
X106616605Y-110920485D01*
X106661215Y-110921091D01*
X106716499Y-110921337D01*
X106783957Y-110921260D01*
X106865085Y-110920896D01*
X106908393Y-110920635D01*
X106993364Y-110920076D01*
X107063946Y-110919527D01*
X107121621Y-110918914D01*
X107167876Y-110918164D01*
X107204195Y-110917202D01*
X107232062Y-110915954D01*
X107252962Y-110914344D01*
X107268381Y-110912300D01*
X107279801Y-110909746D01*
X107288709Y-110906608D01*
X107296589Y-110902812D01*
X107299907Y-110901027D01*
X107325104Y-110882825D01*
X107347448Y-110859599D01*
X107351280Y-110854305D01*
X107362120Y-110835338D01*
X107367959Y-110815808D01*
X107370072Y-110789880D01*
X107370078Y-110768435D01*
X107369150Y-110749164D01*
X107366578Y-110728231D01*
X107361833Y-110703557D01*
X107354391Y-110673064D01*
X107343727Y-110634672D01*
X107329313Y-110586303D01*
X107310624Y-110525877D01*
X107300845Y-110494724D01*
X107283308Y-110438899D01*
X107267434Y-110388113D01*
X107253821Y-110344304D01*
X107243070Y-110309408D01*
X107235778Y-110285362D01*
X107232545Y-110274105D01*
X107232438Y-110273544D01*
X107237903Y-110277520D01*
X107253159Y-110290888D01*
X107276502Y-110312096D01*
X107306227Y-110339589D01*
X107340627Y-110371814D01*
X107349516Y-110380199D01*
X107387568Y-110415913D01*
X107434396Y-110459499D01*
X107486999Y-110508186D01*
X107542374Y-110559201D01*
X107597522Y-110609773D01*
X107645188Y-110653263D01*
X107710521Y-110712670D01*
X107765721Y-110762367D01*
X107812476Y-110803237D01*
X107852477Y-110836166D01*
X107887411Y-110862038D01*
X107918967Y-110881736D01*
X107948836Y-110896147D01*
X107978704Y-110906153D01*
X108010262Y-110912640D01*
X108045198Y-110916492D01*
X108085202Y-110918594D01*
X108131962Y-110919829D01*
X108155172Y-110920327D01*
X108209027Y-110921140D01*
X108253219Y-110921068D01*
X108286147Y-110920152D01*
X108306205Y-110918433D01*
X108311938Y-110916335D01*
X108309515Y-110905368D01*
X108303220Y-110884386D01*
X108296063Y-110862781D01*
X108287663Y-110837273D01*
X108281908Y-110817708D01*
X108280188Y-110809472D01*
X108285635Y-110810300D01*
X108299853Y-110819526D01*
X108317891Y-110833638D01*
X108357730Y-110863474D01*
X108398026Y-110885710D01*
X108445705Y-110904355D01*
X108460431Y-110908287D01*
X108480337Y-110911490D01*
X108507248Y-110914074D01*
X108542986Y-110916147D01*
X108589377Y-110917818D01*
X108648243Y-110919199D01*
X108710526Y-110920240D01*
X108938457Y-110923582D01*
X108974915Y-111035743D01*
X109009114Y-111130680D01*
X109046014Y-111211757D01*
X109087047Y-111280936D01*
X109133642Y-111340179D01*
X109187229Y-111391450D01*
X109249238Y-111436712D01*
X109281244Y-111456206D01*
X109336762Y-111483073D01*
X109399737Y-111504851D01*
X109466720Y-111521042D01*
X109534261Y-111531147D01*
X109598908Y-111534668D01*
X109657213Y-111531106D01*
X109705725Y-111519963D01*
X109710420Y-111518211D01*
X109767550Y-111490076D01*
X109814285Y-111453422D01*
X109853330Y-111405707D01*
X109880650Y-111358257D01*
X109902334Y-111307599D01*
X109915786Y-111256239D01*
X109922196Y-111198633D01*
X109922851Y-111172344D01*
X109633307Y-111172344D01*
X109633075Y-111209315D01*
X109631622Y-111234720D01*
X109628077Y-111252861D01*
X109621566Y-111268043D01*
X109611219Y-111284570D01*
X109610282Y-111285956D01*
X109594868Y-111306116D01*
X109585033Y-111312454D01*
X109581380Y-111309768D01*
X109577427Y-111299525D01*
X109569412Y-111276389D01*
X109558081Y-111242596D01*
X109544178Y-111200382D01*
X109528449Y-111151985D01*
X109517802Y-111118908D01*
X109501780Y-111068243D01*
X109487811Y-111022724D01*
X109476514Y-110984480D01*
X109468509Y-110955640D01*
X109464412Y-110938335D01*
X109464160Y-110934257D01*
X109474942Y-110933591D01*
X109494220Y-110940568D01*
X109517957Y-110953087D01*
X109542116Y-110969048D01*
X109560796Y-110984535D01*
X109583000Y-111009597D01*
X109604350Y-111039783D01*
X109612199Y-111053281D01*
X109622102Y-111073828D01*
X109628327Y-111093076D01*
X109631709Y-111115752D01*
X109633089Y-111146582D01*
X109633307Y-111172344D01*
X109922851Y-111172344D01*
X109923156Y-111160121D01*
X109918662Y-111080831D01*
X109904141Y-111011654D01*
X109878354Y-110949482D01*
X109840065Y-110891208D01*
X109796427Y-110842077D01*
X109761668Y-110808816D01*
X109730514Y-110784095D01*
X109697140Y-110763682D01*
X109669250Y-110749648D01*
X109597429Y-110720834D01*
X109524607Y-110701385D01*
X109455738Y-110692536D01*
X109439015Y-110692125D01*
X109393289Y-110692125D01*
X109341388Y-110531391D01*
X109324109Y-110477869D01*
X109303353Y-110413557D01*
X109280513Y-110342775D01*
X109256982Y-110269841D01*
X109234155Y-110199076D01*
X109219733Y-110154359D01*
X109149980Y-109938062D01*
X108893678Y-109938063D01*
X108831701Y-109938257D01*
X108775123Y-109938809D01*
X108725812Y-109939670D01*
X108685639Y-109940794D01*
X108656475Y-109942131D01*
X108640188Y-109943635D01*
X108637375Y-109944602D01*
X108639682Y-109953261D01*
X108646296Y-109975572D01*
X108656758Y-110010045D01*
X108670609Y-110055189D01*
X108687390Y-110109513D01*
X108706641Y-110171528D01*
X108727905Y-110239742D01*
X108750720Y-110312665D01*
X108752469Y-110318245D01*
X108775363Y-110391334D01*
X108796741Y-110459717D01*
X108816146Y-110521920D01*
X108833120Y-110576467D01*
X108847206Y-110621886D01*
X108857944Y-110656703D01*
X108864877Y-110679442D01*
X108867547Y-110688630D01*
X108867563Y-110688737D01*
X108859908Y-110689482D01*
X108838072Y-110690170D01*
X108803750Y-110690783D01*
X108758635Y-110691303D01*
X108704422Y-110691711D01*
X108642806Y-110691989D01*
X108575480Y-110692118D01*
X108555283Y-110692125D01*
X108243004Y-110692125D01*
X107769228Y-109176063D01*
X107511890Y-109176063D01*
X107438892Y-109176177D01*
D12*
%TO.C,SW1*%
X105620000Y-98350000D02*
X105620000Y-98150000D01*
X101480000Y-101150000D02*
X101270000Y-100950000D01*
X101480000Y-99850000D02*
X101270000Y-100050000D01*
X102770000Y-101150000D02*
X101480000Y-101150000D01*
X101270000Y-100950000D02*
X101270000Y-100050000D01*
X101480000Y-99850000D02*
X102770000Y-99850000D01*
X102770000Y-102600000D02*
X102770000Y-96900000D01*
X105620000Y-101350000D02*
X105620000Y-99650000D01*
X104570000Y-103200000D02*
X103780000Y-103200000D01*
X103780000Y-96300000D02*
X104570000Y-96300000D01*
D13*
%TO.C,BT1*%
X133250000Y-122500000D02*
X133250000Y-125500000D01*
X134500000Y-97500000D02*
X131500000Y-97500000D01*
X133000000Y-96000000D02*
X133000000Y-99000000D01*
D12*
%TO.C,R1*%
X112262742Y-100727500D02*
X112737258Y-100727500D01*
X112262742Y-101772500D02*
X112737258Y-101772500D01*
%TO.C,R2*%
X159512742Y-111522500D02*
X159987258Y-111522500D01*
X159512742Y-110477500D02*
X159987258Y-110477500D01*
%TO.C,R3*%
X135012742Y-93227500D02*
X135487258Y-93227500D01*
X135012742Y-94272500D02*
X135487258Y-94272500D01*
%TO.C,R4*%
X139012742Y-129477500D02*
X139487258Y-129477500D01*
X139012742Y-130522500D02*
X139487258Y-130522500D01*
%TD*%
M02*
