%TF.GenerationSoftware,KiCad,Pcbnew,(5.1.10)-1*%
%TF.CreationDate,2021-10-20T09:15:12+02:00*%
%TF.ProjectId,TVZ_kuglica,54565a5f-6b75-4676-9c69-63612e6b6963,rev?*%
%TF.SameCoordinates,Original*%
%TF.FileFunction,Copper,L2,Bot*%
%TF.FilePolarity,Positive*%
%FSLAX46Y46*%
G04 Gerber Fmt 4.6, Leading zero omitted, Abs format (unit mm)*
G04 Created by KiCad (PCBNEW (5.1.10)-1) date 2021-10-20 09:15:12*
%MOMM*%
%LPD*%
G01*
G04 APERTURE LIST*
%TA.AperFunction,SMDPad,CuDef*%
%ADD10R,1.500000X0.700000*%
%TD*%
%TA.AperFunction,SMDPad,CuDef*%
%ADD11R,0.800000X1.000000*%
%TD*%
%TA.AperFunction,SMDPad,CuDef*%
%ADD12R,3.800000X3.500000*%
%TD*%
%TA.AperFunction,SMDPad,CuDef*%
%ADD13R,2.800000X5.700000*%
%TD*%
%TA.AperFunction,ViaPad*%
%ADD14C,0.800000*%
%TD*%
%TA.AperFunction,Conductor*%
%ADD15C,0.762000*%
%TD*%
%TA.AperFunction,Conductor*%
%ADD16C,0.254000*%
%TD*%
%TA.AperFunction,Conductor*%
%ADD17C,0.100000*%
%TD*%
G04 APERTURE END LIST*
D10*
%TO.P,SW1,1*%
%TO.N,Net-(R1-Pad1)*%
X105930000Y-102000000D03*
%TO.P,SW1,2*%
%TO.N,VCC*%
X105930000Y-99000000D03*
%TO.P,SW1,3*%
%TO.N,Net-(SW1-Pad3)*%
X105930000Y-97500000D03*
D11*
%TO.P,SW1,*%
%TO.N,*%
X103070000Y-103400000D03*
X103070000Y-96100000D03*
X105280000Y-96100000D03*
X105280000Y-103400000D03*
%TD*%
D12*
%TO.P,BT1,1*%
%TO.N,VCC*%
X137000000Y-99000000D03*
D13*
%TO.P,BT1,2*%
%TO.N,GND*%
X137000000Y-121500000D03*
%TD*%
%TO.P,R1,1*%
%TO.N,Net-(R1-Pad1)*%
%TA.AperFunction,SMDPad,CuDef*%
G36*
G01*
X111275000Y-101525000D02*
X111275000Y-100975000D01*
G75*
G02*
X111475000Y-100775000I200000J0D01*
G01*
X111875000Y-100775000D01*
G75*
G02*
X112075000Y-100975000I0J-200000D01*
G01*
X112075000Y-101525000D01*
G75*
G02*
X111875000Y-101725000I-200000J0D01*
G01*
X111475000Y-101725000D01*
G75*
G02*
X111275000Y-101525000I0J200000D01*
G01*
G37*
%TD.AperFunction*%
%TO.P,R1,2*%
%TO.N,Net-(D6-Pad1)*%
%TA.AperFunction,SMDPad,CuDef*%
G36*
G01*
X112925000Y-101525000D02*
X112925000Y-100975000D01*
G75*
G02*
X113125000Y-100775000I200000J0D01*
G01*
X113525000Y-100775000D01*
G75*
G02*
X113725000Y-100975000I0J-200000D01*
G01*
X113725000Y-101525000D01*
G75*
G02*
X113525000Y-101725000I-200000J0D01*
G01*
X113125000Y-101725000D01*
G75*
G02*
X112925000Y-101525000I0J200000D01*
G01*
G37*
%TD.AperFunction*%
%TD*%
%TO.P,R2,2*%
%TO.N,Net-(D8-Pad1)*%
%TA.AperFunction,SMDPad,CuDef*%
G36*
G01*
X160175000Y-111275000D02*
X160175000Y-110725000D01*
G75*
G02*
X160375000Y-110525000I200000J0D01*
G01*
X160775000Y-110525000D01*
G75*
G02*
X160975000Y-110725000I0J-200000D01*
G01*
X160975000Y-111275000D01*
G75*
G02*
X160775000Y-111475000I-200000J0D01*
G01*
X160375000Y-111475000D01*
G75*
G02*
X160175000Y-111275000I0J200000D01*
G01*
G37*
%TD.AperFunction*%
%TO.P,R2,1*%
%TO.N,Net-(R1-Pad1)*%
%TA.AperFunction,SMDPad,CuDef*%
G36*
G01*
X158525000Y-111275000D02*
X158525000Y-110725000D01*
G75*
G02*
X158725000Y-110525000I200000J0D01*
G01*
X159125000Y-110525000D01*
G75*
G02*
X159325000Y-110725000I0J-200000D01*
G01*
X159325000Y-111275000D01*
G75*
G02*
X159125000Y-111475000I-200000J0D01*
G01*
X158725000Y-111475000D01*
G75*
G02*
X158525000Y-111275000I0J200000D01*
G01*
G37*
%TD.AperFunction*%
%TD*%
%TO.P,R3,1*%
%TO.N,Net-(R1-Pad1)*%
%TA.AperFunction,SMDPad,CuDef*%
G36*
G01*
X134025000Y-94025000D02*
X134025000Y-93475000D01*
G75*
G02*
X134225000Y-93275000I200000J0D01*
G01*
X134625000Y-93275000D01*
G75*
G02*
X134825000Y-93475000I0J-200000D01*
G01*
X134825000Y-94025000D01*
G75*
G02*
X134625000Y-94225000I-200000J0D01*
G01*
X134225000Y-94225000D01*
G75*
G02*
X134025000Y-94025000I0J200000D01*
G01*
G37*
%TD.AperFunction*%
%TO.P,R3,2*%
%TO.N,Net-(D12-Pad1)*%
%TA.AperFunction,SMDPad,CuDef*%
G36*
G01*
X135675000Y-94025000D02*
X135675000Y-93475000D01*
G75*
G02*
X135875000Y-93275000I200000J0D01*
G01*
X136275000Y-93275000D01*
G75*
G02*
X136475000Y-93475000I0J-200000D01*
G01*
X136475000Y-94025000D01*
G75*
G02*
X136275000Y-94225000I-200000J0D01*
G01*
X135875000Y-94225000D01*
G75*
G02*
X135675000Y-94025000I0J200000D01*
G01*
G37*
%TD.AperFunction*%
%TD*%
%TO.P,R4,1*%
%TO.N,Net-(R1-Pad1)*%
%TA.AperFunction,SMDPad,CuDef*%
G36*
G01*
X138025000Y-130275000D02*
X138025000Y-129725000D01*
G75*
G02*
X138225000Y-129525000I200000J0D01*
G01*
X138625000Y-129525000D01*
G75*
G02*
X138825000Y-129725000I0J-200000D01*
G01*
X138825000Y-130275000D01*
G75*
G02*
X138625000Y-130475000I-200000J0D01*
G01*
X138225000Y-130475000D01*
G75*
G02*
X138025000Y-130275000I0J200000D01*
G01*
G37*
%TD.AperFunction*%
%TO.P,R4,2*%
%TO.N,Net-(D7-Pad1)*%
%TA.AperFunction,SMDPad,CuDef*%
G36*
G01*
X139675000Y-130275000D02*
X139675000Y-129725000D01*
G75*
G02*
X139875000Y-129525000I200000J0D01*
G01*
X140275000Y-129525000D01*
G75*
G02*
X140475000Y-129725000I0J-200000D01*
G01*
X140475000Y-130275000D01*
G75*
G02*
X140275000Y-130475000I-200000J0D01*
G01*
X139875000Y-130475000D01*
G75*
G02*
X139675000Y-130275000I0J200000D01*
G01*
G37*
%TD.AperFunction*%
%TD*%
D14*
%TO.N,GND*%
X156750000Y-74500000D03*
X157500000Y-90250000D03*
X138250000Y-88250000D03*
X139500000Y-73250000D03*
X122500000Y-74500000D03*
X122500000Y-86500000D03*
X110250000Y-88000000D03*
X117500000Y-96750000D03*
X124000000Y-100500000D03*
X115750000Y-110500000D03*
X129750000Y-113750000D03*
X150000000Y-102750000D03*
X155250000Y-115000000D03*
X165500000Y-104500000D03*
X155500000Y-124250000D03*
X149000000Y-131000000D03*
X128500000Y-125000000D03*
X120750000Y-128500000D03*
X165500000Y-111000000D03*
X145250000Y-130000000D03*
X141000000Y-93750000D03*
X118250000Y-101250000D03*
%TO.N,Net-(D6-Pad1)*%
X114250000Y-101250000D03*
%TO.N,Net-(D8-Pad1)*%
X161500000Y-111000000D03*
%TO.N,Net-(D12-Pad1)*%
X137000000Y-93750000D03*
%TO.N,Net-(D7-Pad1)*%
X141000000Y-130000000D03*
%TD*%
D15*
%TO.N,VCC*%
X137000000Y-99000000D02*
X141750000Y-99000000D01*
X141750000Y-99000000D02*
X143500000Y-97250000D01*
X143500000Y-97250000D02*
X143500000Y-92000000D01*
X143500000Y-92000000D02*
X142250000Y-90750000D01*
X142250000Y-90750000D02*
X116750000Y-90750000D01*
X108500000Y-99000000D02*
X105930000Y-99000000D01*
X116750000Y-90750000D02*
X108500000Y-99000000D01*
%TO.N,Net-(D6-Pad1)*%
X113325000Y-101250000D02*
X114250000Y-101250000D01*
%TO.N,Net-(D8-Pad1)*%
X160575000Y-111000000D02*
X161500000Y-111000000D01*
%TO.N,Net-(D12-Pad1)*%
X136075000Y-93750000D02*
X137000000Y-93750000D01*
%TO.N,Net-(R1-Pad1)*%
X105930000Y-102000000D02*
X109250000Y-102000000D01*
X110000000Y-101250000D02*
X111675000Y-101250000D01*
X109250000Y-102000000D02*
X110000000Y-101250000D01*
X151500000Y-111000000D02*
X158925000Y-111000000D01*
X144750000Y-104250000D02*
X151500000Y-111000000D01*
X109250000Y-102000000D02*
X111500000Y-104250000D01*
X134425000Y-93750000D02*
X133250000Y-93750000D01*
X133250000Y-93750000D02*
X132500000Y-94500000D01*
X132500000Y-103500000D02*
X131750000Y-104250000D01*
X111500000Y-104250000D02*
X131750000Y-104250000D01*
X131750000Y-104250000D02*
X132500000Y-104250000D01*
X132500000Y-94500000D02*
X132500000Y-103500000D01*
X132500000Y-103500000D02*
X132500000Y-104250000D01*
X133250000Y-104250000D02*
X144750000Y-104250000D01*
X132500000Y-103500000D02*
X133250000Y-104250000D01*
X132500000Y-104250000D02*
X133250000Y-104250000D01*
X138425000Y-130000000D02*
X136750000Y-130000000D01*
X136750000Y-130000000D02*
X135500000Y-128750000D01*
X135500000Y-128750000D02*
X135500000Y-127500000D01*
X135500000Y-127500000D02*
X136750000Y-126250000D01*
X136750000Y-126250000D02*
X143750000Y-126250000D01*
X151500000Y-118500000D02*
X151500000Y-111000000D01*
X143750000Y-126250000D02*
X151500000Y-118500000D01*
%TO.N,Net-(D7-Pad1)*%
X140075000Y-130000000D02*
X141000000Y-130000000D01*
%TD*%
D16*
%TO.N,GND*%
X137886138Y-55831059D02*
X138610388Y-56053867D01*
X139283738Y-56401409D01*
X139884901Y-56862699D01*
X140394872Y-57423149D01*
X140797540Y-58065057D01*
X141080170Y-58768122D01*
X141236190Y-59521513D01*
X141265000Y-60021169D01*
X141265001Y-61306272D01*
X141266298Y-61319440D01*
X141278413Y-61656049D01*
X141278863Y-61659632D01*
X141278707Y-61663242D01*
X141287438Y-61747410D01*
X141429908Y-62624862D01*
X141435629Y-62647269D01*
X141438736Y-62670183D01*
X141462234Y-62751474D01*
X141757835Y-63589830D01*
X141767433Y-63610870D01*
X141774549Y-63632871D01*
X141812059Y-63708691D01*
X141812071Y-63708717D01*
X141812077Y-63708725D01*
X142251461Y-64481476D01*
X142264630Y-64500478D01*
X142275533Y-64520879D01*
X142325894Y-64588881D01*
X142895182Y-65271616D01*
X142911512Y-65287990D01*
X142925851Y-65306132D01*
X142987458Y-65364142D01*
X143668651Y-65935276D01*
X143687625Y-65948502D01*
X143704950Y-65963817D01*
X143775855Y-66010000D01*
X144547423Y-66451478D01*
X144568436Y-66461133D01*
X144588200Y-66473139D01*
X144666163Y-66506036D01*
X145503715Y-66803905D01*
X145508021Y-66805017D01*
X145525587Y-66811299D01*
X145542755Y-66816572D01*
X147746053Y-67464098D01*
X149878711Y-68247813D01*
X151954729Y-69171140D01*
X153965017Y-70230036D01*
X155900673Y-71419812D01*
X157753239Y-72735268D01*
X159514561Y-74170616D01*
X161176886Y-75719540D01*
X162732884Y-77375207D01*
X164175738Y-79130360D01*
X165499106Y-80977290D01*
X166697162Y-82907865D01*
X167764630Y-84913581D01*
X168696830Y-86985643D01*
X169489658Y-89114933D01*
X170139624Y-91292080D01*
X170643873Y-93507517D01*
X171000188Y-95751501D01*
X171207004Y-98014175D01*
X171263407Y-100285560D01*
X171169153Y-102555700D01*
X170924654Y-104814605D01*
X170530986Y-107052337D01*
X169989882Y-109259064D01*
X169303718Y-111425077D01*
X168475512Y-113540851D01*
X167508906Y-115597090D01*
X166408155Y-117584736D01*
X165178083Y-119495080D01*
X163824120Y-121319689D01*
X162352204Y-123050560D01*
X160768823Y-124680064D01*
X159080926Y-126201055D01*
X157295931Y-127606843D01*
X155421695Y-128891239D01*
X153466456Y-130048599D01*
X151438820Y-131073832D01*
X149347702Y-131962428D01*
X147202263Y-132710493D01*
X145011999Y-133314718D01*
X142786467Y-133772464D01*
X140535523Y-134081705D01*
X138269022Y-134241089D01*
X135996953Y-134249911D01*
X133729262Y-134108134D01*
X131475992Y-133816385D01*
X129246983Y-133375938D01*
X127052076Y-132788738D01*
X124900917Y-132057366D01*
X122802939Y-131185029D01*
X120767401Y-130175574D01*
X118803237Y-129033435D01*
X116919085Y-127763634D01*
X115123223Y-126371749D01*
X113423564Y-124863914D01*
X111827572Y-123246751D01*
X110342263Y-121527368D01*
X108974171Y-119713331D01*
X107729304Y-117812605D01*
X106613144Y-115833557D01*
X105630601Y-113784897D01*
X104785986Y-111675609D01*
X104083026Y-109515005D01*
X103524797Y-107312547D01*
X103113763Y-105077935D01*
X103051083Y-104538072D01*
X103470000Y-104538072D01*
X103594482Y-104525812D01*
X103714180Y-104489502D01*
X103824494Y-104430537D01*
X103921185Y-104351185D01*
X104000537Y-104254494D01*
X104059502Y-104144180D01*
X104095812Y-104024482D01*
X104108072Y-103900000D01*
X104108072Y-102900000D01*
X104095812Y-102775518D01*
X104059502Y-102655820D01*
X104000537Y-102545506D01*
X103921185Y-102448815D01*
X103824494Y-102369463D01*
X103714180Y-102310498D01*
X103594482Y-102274188D01*
X103470000Y-102261928D01*
X102824164Y-102261928D01*
X102769006Y-101143137D01*
X103085000Y-101143137D01*
X103085000Y-101356863D01*
X103126696Y-101566483D01*
X103208485Y-101763940D01*
X103327225Y-101941647D01*
X103478353Y-102092775D01*
X103656060Y-102211515D01*
X103853517Y-102293304D01*
X104063137Y-102335000D01*
X104276863Y-102335000D01*
X104486483Y-102293304D01*
X104541928Y-102270338D01*
X104541928Y-102350000D01*
X104542928Y-102360151D01*
X104525506Y-102369463D01*
X104428815Y-102448815D01*
X104349463Y-102545506D01*
X104290498Y-102655820D01*
X104254188Y-102775518D01*
X104241928Y-102900000D01*
X104241928Y-103900000D01*
X104254188Y-104024482D01*
X104290498Y-104144180D01*
X104349463Y-104254494D01*
X104428815Y-104351185D01*
X104525506Y-104430537D01*
X104635820Y-104489502D01*
X104755518Y-104525812D01*
X104880000Y-104538072D01*
X105680000Y-104538072D01*
X105804482Y-104525812D01*
X105924180Y-104489502D01*
X106034494Y-104430537D01*
X106131185Y-104351185D01*
X106210537Y-104254494D01*
X106269502Y-104144180D01*
X106305812Y-104024482D01*
X106318072Y-103900000D01*
X106318072Y-103016000D01*
X108829160Y-103016000D01*
X110746292Y-104933133D01*
X110778104Y-104971896D01*
X110932810Y-105098860D01*
X111109313Y-105193202D01*
X111300829Y-105251298D01*
X111326415Y-105253818D01*
X111500000Y-105270915D01*
X111549902Y-105266000D01*
X131700098Y-105266000D01*
X131750000Y-105270915D01*
X131799902Y-105266000D01*
X132450098Y-105266000D01*
X132500000Y-105270915D01*
X132549902Y-105266000D01*
X133200105Y-105266000D01*
X133249999Y-105270914D01*
X133299893Y-105266000D01*
X144329160Y-105266000D01*
X150484001Y-111420842D01*
X150484000Y-118079159D01*
X143329160Y-125234000D01*
X136799902Y-125234000D01*
X136750000Y-125229085D01*
X136700098Y-125234000D01*
X136550829Y-125248702D01*
X136359313Y-125306798D01*
X136182810Y-125401140D01*
X136028104Y-125528104D01*
X135996293Y-125566866D01*
X134816868Y-126746292D01*
X134778105Y-126778104D01*
X134651141Y-126932810D01*
X134574560Y-127076085D01*
X134556799Y-127109313D01*
X134498702Y-127300830D01*
X134479085Y-127500000D01*
X134484001Y-127549911D01*
X134484000Y-128700098D01*
X134479085Y-128750000D01*
X134490019Y-128861016D01*
X134498702Y-128949170D01*
X134556798Y-129140686D01*
X134651140Y-129317190D01*
X134778104Y-129471896D01*
X134816872Y-129503712D01*
X135996292Y-130683133D01*
X136028104Y-130721896D01*
X136182810Y-130848860D01*
X136359313Y-130943202D01*
X136550829Y-131001298D01*
X136683468Y-131014362D01*
X136750000Y-131020915D01*
X136799902Y-131016000D01*
X137842026Y-131016000D01*
X137904284Y-131049278D01*
X138061500Y-131096969D01*
X138225000Y-131113072D01*
X138625000Y-131113072D01*
X138788500Y-131096969D01*
X138945716Y-131049278D01*
X139090608Y-130971831D01*
X139217606Y-130867606D01*
X139250000Y-130828134D01*
X139282394Y-130867606D01*
X139409392Y-130971831D01*
X139554284Y-131049278D01*
X139711500Y-131096969D01*
X139875000Y-131113072D01*
X140275000Y-131113072D01*
X140438500Y-131096969D01*
X140595716Y-131049278D01*
X140657974Y-131016000D01*
X140802541Y-131016000D01*
X140898061Y-131035000D01*
X141101939Y-131035000D01*
X141301898Y-130995226D01*
X141490256Y-130917205D01*
X141659774Y-130803937D01*
X141803937Y-130659774D01*
X141917205Y-130490256D01*
X141995226Y-130301898D01*
X142035000Y-130101939D01*
X142035000Y-129898061D01*
X141995226Y-129698102D01*
X141917205Y-129509744D01*
X141803937Y-129340226D01*
X141659774Y-129196063D01*
X141490256Y-129082795D01*
X141301898Y-129004774D01*
X141101939Y-128965000D01*
X140898061Y-128965000D01*
X140802541Y-128984000D01*
X140657974Y-128984000D01*
X140595716Y-128950722D01*
X140438500Y-128903031D01*
X140275000Y-128886928D01*
X139875000Y-128886928D01*
X139711500Y-128903031D01*
X139554284Y-128950722D01*
X139409392Y-129028169D01*
X139282394Y-129132394D01*
X139250000Y-129171866D01*
X139217606Y-129132394D01*
X139090608Y-129028169D01*
X138945716Y-128950722D01*
X138788500Y-128903031D01*
X138625000Y-128886928D01*
X138225000Y-128886928D01*
X138061500Y-128903031D01*
X137904284Y-128950722D01*
X137842026Y-128984000D01*
X137170841Y-128984000D01*
X136516000Y-128329160D01*
X136516000Y-127920840D01*
X137170841Y-127266000D01*
X143700098Y-127266000D01*
X143750000Y-127270915D01*
X143799902Y-127266000D01*
X143949171Y-127251298D01*
X144140687Y-127193202D01*
X144317190Y-127098860D01*
X144471896Y-126971896D01*
X144503712Y-126933128D01*
X152183133Y-119253708D01*
X152221896Y-119221896D01*
X152348860Y-119067190D01*
X152443202Y-118890687D01*
X152501298Y-118699171D01*
X152504971Y-118661881D01*
X152520915Y-118500001D01*
X152516000Y-118450099D01*
X152516000Y-112016000D01*
X158342026Y-112016000D01*
X158404284Y-112049278D01*
X158561500Y-112096969D01*
X158725000Y-112113072D01*
X159125000Y-112113072D01*
X159288500Y-112096969D01*
X159445716Y-112049278D01*
X159590608Y-111971831D01*
X159717606Y-111867606D01*
X159750000Y-111828134D01*
X159782394Y-111867606D01*
X159909392Y-111971831D01*
X160054284Y-112049278D01*
X160211500Y-112096969D01*
X160375000Y-112113072D01*
X160775000Y-112113072D01*
X160938500Y-112096969D01*
X161095716Y-112049278D01*
X161157974Y-112016000D01*
X161302541Y-112016000D01*
X161398061Y-112035000D01*
X161601939Y-112035000D01*
X161801898Y-111995226D01*
X161990256Y-111917205D01*
X162159774Y-111803937D01*
X162303937Y-111659774D01*
X162417205Y-111490256D01*
X162495226Y-111301898D01*
X162535000Y-111101939D01*
X162535000Y-110898061D01*
X162495226Y-110698102D01*
X162417205Y-110509744D01*
X162303937Y-110340226D01*
X162159774Y-110196063D01*
X161990256Y-110082795D01*
X161801898Y-110004774D01*
X161601939Y-109965000D01*
X161398061Y-109965000D01*
X161302541Y-109984000D01*
X161157974Y-109984000D01*
X161095716Y-109950722D01*
X160938500Y-109903031D01*
X160775000Y-109886928D01*
X160375000Y-109886928D01*
X160211500Y-109903031D01*
X160054284Y-109950722D01*
X159909392Y-110028169D01*
X159782394Y-110132394D01*
X159750000Y-110171866D01*
X159717606Y-110132394D01*
X159590608Y-110028169D01*
X159445716Y-109950722D01*
X159288500Y-109903031D01*
X159125000Y-109886928D01*
X158725000Y-109886928D01*
X158561500Y-109903031D01*
X158404284Y-109950722D01*
X158342026Y-109984000D01*
X151920841Y-109984000D01*
X145503712Y-103566872D01*
X145471896Y-103528104D01*
X145317190Y-103401140D01*
X145140687Y-103306798D01*
X144949171Y-103248702D01*
X144799902Y-103234000D01*
X144750000Y-103229085D01*
X144700098Y-103234000D01*
X133670841Y-103234000D01*
X133516000Y-103079160D01*
X133516000Y-94920840D01*
X133670841Y-94766000D01*
X133842026Y-94766000D01*
X133904284Y-94799278D01*
X134061500Y-94846969D01*
X134225000Y-94863072D01*
X134625000Y-94863072D01*
X134788500Y-94846969D01*
X134945716Y-94799278D01*
X135090608Y-94721831D01*
X135217606Y-94617606D01*
X135250000Y-94578134D01*
X135282394Y-94617606D01*
X135409392Y-94721831D01*
X135554284Y-94799278D01*
X135711500Y-94846969D01*
X135875000Y-94863072D01*
X136275000Y-94863072D01*
X136438500Y-94846969D01*
X136595716Y-94799278D01*
X136657974Y-94766000D01*
X136802541Y-94766000D01*
X136898061Y-94785000D01*
X137101939Y-94785000D01*
X137301898Y-94745226D01*
X137490256Y-94667205D01*
X137659774Y-94553937D01*
X137803937Y-94409774D01*
X137917205Y-94240256D01*
X137995226Y-94051898D01*
X138035000Y-93851939D01*
X138035000Y-93648061D01*
X137995226Y-93448102D01*
X137917205Y-93259744D01*
X137803937Y-93090226D01*
X137659774Y-92946063D01*
X137490256Y-92832795D01*
X137301898Y-92754774D01*
X137101939Y-92715000D01*
X136898061Y-92715000D01*
X136802541Y-92734000D01*
X136657974Y-92734000D01*
X136595716Y-92700722D01*
X136438500Y-92653031D01*
X136275000Y-92636928D01*
X135875000Y-92636928D01*
X135711500Y-92653031D01*
X135554284Y-92700722D01*
X135409392Y-92778169D01*
X135282394Y-92882394D01*
X135250000Y-92921866D01*
X135217606Y-92882394D01*
X135090608Y-92778169D01*
X134945716Y-92700722D01*
X134788500Y-92653031D01*
X134625000Y-92636928D01*
X134225000Y-92636928D01*
X134061500Y-92653031D01*
X133904284Y-92700722D01*
X133842026Y-92734000D01*
X133299893Y-92734000D01*
X133249999Y-92729086D01*
X133200105Y-92734000D01*
X133200098Y-92734000D01*
X133050829Y-92748702D01*
X132859313Y-92806798D01*
X132682810Y-92901140D01*
X132528104Y-93028104D01*
X132496292Y-93066867D01*
X131816872Y-93746288D01*
X131778104Y-93778104D01*
X131651140Y-93932810D01*
X131556798Y-94109314D01*
X131501628Y-94291185D01*
X131498702Y-94300830D01*
X131479085Y-94500000D01*
X131484000Y-94549902D01*
X131484001Y-103079158D01*
X131329160Y-103234000D01*
X111920841Y-103234000D01*
X110952840Y-102266000D01*
X111092026Y-102266000D01*
X111154284Y-102299278D01*
X111311500Y-102346969D01*
X111475000Y-102363072D01*
X111875000Y-102363072D01*
X112038500Y-102346969D01*
X112195716Y-102299278D01*
X112340608Y-102221831D01*
X112467606Y-102117606D01*
X112500000Y-102078134D01*
X112532394Y-102117606D01*
X112659392Y-102221831D01*
X112804284Y-102299278D01*
X112961500Y-102346969D01*
X113125000Y-102363072D01*
X113525000Y-102363072D01*
X113688500Y-102346969D01*
X113845716Y-102299278D01*
X113907974Y-102266000D01*
X114052541Y-102266000D01*
X114148061Y-102285000D01*
X114351939Y-102285000D01*
X114551898Y-102245226D01*
X114740256Y-102167205D01*
X114909774Y-102053937D01*
X115053937Y-101909774D01*
X115167205Y-101740256D01*
X115245226Y-101551898D01*
X115285000Y-101351939D01*
X115285000Y-101148061D01*
X115245226Y-100948102D01*
X115167205Y-100759744D01*
X115053937Y-100590226D01*
X114909774Y-100446063D01*
X114740256Y-100332795D01*
X114551898Y-100254774D01*
X114351939Y-100215000D01*
X114148061Y-100215000D01*
X114052541Y-100234000D01*
X113907974Y-100234000D01*
X113845716Y-100200722D01*
X113688500Y-100153031D01*
X113525000Y-100136928D01*
X113125000Y-100136928D01*
X112961500Y-100153031D01*
X112804284Y-100200722D01*
X112659392Y-100278169D01*
X112532394Y-100382394D01*
X112500000Y-100421866D01*
X112467606Y-100382394D01*
X112340608Y-100278169D01*
X112195716Y-100200722D01*
X112038500Y-100153031D01*
X111875000Y-100136928D01*
X111475000Y-100136928D01*
X111311500Y-100153031D01*
X111154284Y-100200722D01*
X111092026Y-100234000D01*
X110049893Y-100234000D01*
X109999999Y-100229086D01*
X109950105Y-100234000D01*
X109950098Y-100234000D01*
X109800829Y-100248702D01*
X109609313Y-100306798D01*
X109432810Y-100401140D01*
X109278104Y-100528104D01*
X109246292Y-100566867D01*
X108829160Y-100984000D01*
X105880098Y-100984000D01*
X105730829Y-100998702D01*
X105687229Y-101011928D01*
X105228901Y-101011928D01*
X105213304Y-100933517D01*
X105131515Y-100736060D01*
X105012775Y-100558353D01*
X104861647Y-100407225D01*
X104683940Y-100288485D01*
X104486483Y-100206696D01*
X104276863Y-100165000D01*
X104063137Y-100165000D01*
X103853517Y-100206696D01*
X103656060Y-100288485D01*
X103478353Y-100407225D01*
X103327225Y-100558353D01*
X103208485Y-100736060D01*
X103126696Y-100933517D01*
X103085000Y-101143137D01*
X102769006Y-101143137D01*
X102739845Y-100551658D01*
X102778607Y-98279882D01*
X102790035Y-98143137D01*
X103085000Y-98143137D01*
X103085000Y-98356863D01*
X103126696Y-98566483D01*
X103208485Y-98763940D01*
X103327225Y-98941647D01*
X103478353Y-99092775D01*
X103656060Y-99211515D01*
X103853517Y-99293304D01*
X104063137Y-99335000D01*
X104276863Y-99335000D01*
X104486483Y-99293304D01*
X104541928Y-99270338D01*
X104541928Y-99350000D01*
X104554188Y-99474482D01*
X104590498Y-99594180D01*
X104649463Y-99704494D01*
X104728815Y-99801185D01*
X104825506Y-99880537D01*
X104935820Y-99939502D01*
X105055518Y-99975812D01*
X105180000Y-99988072D01*
X105687229Y-99988072D01*
X105730829Y-100001298D01*
X105880098Y-100016000D01*
X108450098Y-100016000D01*
X108500000Y-100020915D01*
X108549902Y-100016000D01*
X108699171Y-100001298D01*
X108890687Y-99943202D01*
X109067190Y-99848860D01*
X109221896Y-99721896D01*
X109253712Y-99683128D01*
X117170841Y-91766000D01*
X141829160Y-91766000D01*
X142484001Y-92420842D01*
X142484000Y-96829159D01*
X141329160Y-97984000D01*
X139538072Y-97984000D01*
X139538072Y-97250000D01*
X139525812Y-97125518D01*
X139489502Y-97005820D01*
X139430537Y-96895506D01*
X139351185Y-96798815D01*
X139254494Y-96719463D01*
X139144180Y-96660498D01*
X139024482Y-96624188D01*
X138900000Y-96611928D01*
X135100000Y-96611928D01*
X134975518Y-96624188D01*
X134855820Y-96660498D01*
X134745506Y-96719463D01*
X134648815Y-96798815D01*
X134569463Y-96895506D01*
X134510498Y-97005820D01*
X134474188Y-97125518D01*
X134461928Y-97250000D01*
X134461928Y-100750000D01*
X134474188Y-100874482D01*
X134510498Y-100994180D01*
X134569463Y-101104494D01*
X134648815Y-101201185D01*
X134745506Y-101280537D01*
X134855820Y-101339502D01*
X134975518Y-101375812D01*
X135100000Y-101388072D01*
X138900000Y-101388072D01*
X139024482Y-101375812D01*
X139144180Y-101339502D01*
X139254494Y-101280537D01*
X139351185Y-101201185D01*
X139430537Y-101104494D01*
X139489502Y-100994180D01*
X139525812Y-100874482D01*
X139538072Y-100750000D01*
X139538072Y-100016000D01*
X141700098Y-100016000D01*
X141750000Y-100020915D01*
X141799902Y-100016000D01*
X141949171Y-100001298D01*
X142140687Y-99943202D01*
X142317190Y-99848860D01*
X142471896Y-99721896D01*
X142503712Y-99683128D01*
X144183133Y-98003708D01*
X144221896Y-97971896D01*
X144348860Y-97817190D01*
X144443202Y-97640687D01*
X144501298Y-97449171D01*
X144516000Y-97299902D01*
X144516000Y-97299901D01*
X144520915Y-97250000D01*
X144516000Y-97200098D01*
X144516000Y-92049902D01*
X144520915Y-92000000D01*
X144501298Y-91800829D01*
X144478123Y-91724431D01*
X144443202Y-91609313D01*
X144348860Y-91432810D01*
X144221896Y-91278104D01*
X144183133Y-91246292D01*
X143003712Y-90066872D01*
X142971896Y-90028104D01*
X142817190Y-89901140D01*
X142640687Y-89806798D01*
X142449171Y-89748702D01*
X142299902Y-89734000D01*
X142250000Y-89729085D01*
X142200098Y-89734000D01*
X116799902Y-89734000D01*
X116750000Y-89729085D01*
X116550829Y-89748702D01*
X116359312Y-89806798D01*
X116306056Y-89835264D01*
X116182810Y-89901140D01*
X116028104Y-90028104D01*
X115996292Y-90066867D01*
X108079160Y-97984000D01*
X107302925Y-97984000D01*
X107305812Y-97974482D01*
X107318072Y-97850000D01*
X107318072Y-97150000D01*
X107305812Y-97025518D01*
X107269502Y-96905820D01*
X107210537Y-96795506D01*
X107131185Y-96698815D01*
X107034494Y-96619463D01*
X106924180Y-96560498D01*
X106804482Y-96524188D01*
X106680000Y-96511928D01*
X106318072Y-96511928D01*
X106318072Y-95600000D01*
X106305812Y-95475518D01*
X106269502Y-95355820D01*
X106210537Y-95245506D01*
X106131185Y-95148815D01*
X106034494Y-95069463D01*
X105924180Y-95010498D01*
X105804482Y-94974188D01*
X105680000Y-94961928D01*
X104880000Y-94961928D01*
X104755518Y-94974188D01*
X104635820Y-95010498D01*
X104525506Y-95069463D01*
X104428815Y-95148815D01*
X104349463Y-95245506D01*
X104290498Y-95355820D01*
X104254188Y-95475518D01*
X104241928Y-95600000D01*
X104241928Y-96600000D01*
X104254188Y-96724482D01*
X104290498Y-96844180D01*
X104349463Y-96954494D01*
X104428815Y-97051185D01*
X104525506Y-97130537D01*
X104542928Y-97139849D01*
X104541928Y-97150000D01*
X104541928Y-97229662D01*
X104486483Y-97206696D01*
X104276863Y-97165000D01*
X104063137Y-97165000D01*
X103853517Y-97206696D01*
X103656060Y-97288485D01*
X103478353Y-97407225D01*
X103327225Y-97558353D01*
X103208485Y-97736060D01*
X103126696Y-97933517D01*
X103085000Y-98143137D01*
X102790035Y-98143137D01*
X102865678Y-97238072D01*
X103470000Y-97238072D01*
X103594482Y-97225812D01*
X103714180Y-97189502D01*
X103824494Y-97130537D01*
X103921185Y-97051185D01*
X104000537Y-96954494D01*
X104059502Y-96844180D01*
X104095812Y-96724482D01*
X104108072Y-96600000D01*
X104108072Y-95600000D01*
X104095812Y-95475518D01*
X104059502Y-95355820D01*
X104000537Y-95245506D01*
X103921185Y-95148815D01*
X103824494Y-95069463D01*
X103714180Y-95010498D01*
X103594482Y-94974188D01*
X103470000Y-94961928D01*
X103126785Y-94961928D01*
X103306719Y-93768999D01*
X103793749Y-91549706D01*
X104426782Y-89367594D01*
X105203052Y-87232203D01*
X106119133Y-85152960D01*
X107170992Y-83139015D01*
X108354015Y-81199200D01*
X109663000Y-79342048D01*
X111092189Y-77575730D01*
X112635284Y-75908027D01*
X114285522Y-74346247D01*
X116035631Y-72897273D01*
X117877934Y-71567463D01*
X119804304Y-70362683D01*
X121806298Y-69288211D01*
X123875077Y-68348792D01*
X126001593Y-67548534D01*
X128186747Y-66887862D01*
X128436510Y-66822338D01*
X128452528Y-66817563D01*
X128459226Y-66815987D01*
X128804024Y-66713600D01*
X128807380Y-66712269D01*
X128810916Y-66711517D01*
X128890228Y-66682021D01*
X129704199Y-66324712D01*
X129724464Y-66313571D01*
X129745874Y-66304834D01*
X129818696Y-66261767D01*
X129818710Y-66261759D01*
X129818715Y-66261755D01*
X130556543Y-65765956D01*
X130574511Y-65751406D01*
X130594041Y-65739012D01*
X130658097Y-65683720D01*
X131296470Y-65065093D01*
X131311582Y-65047586D01*
X131328603Y-65031934D01*
X131381840Y-64966192D01*
X131381856Y-64966173D01*
X131381861Y-64966165D01*
X131900590Y-64244277D01*
X131912363Y-64224370D01*
X131926343Y-64205952D01*
X131967109Y-64131800D01*
X132349809Y-63329453D01*
X132357869Y-63307780D01*
X132368369Y-63287173D01*
X132395359Y-63206974D01*
X132629927Y-62349538D01*
X132634022Y-62326778D01*
X132640706Y-62304640D01*
X132653067Y-62220928D01*
X132731782Y-61338949D01*
X132735000Y-61306272D01*
X132735000Y-60032731D01*
X132762021Y-59729963D01*
X134258266Y-59729963D01*
X134258266Y-60270037D01*
X134363629Y-60799734D01*
X134570307Y-61298698D01*
X134870356Y-61747753D01*
X135252247Y-62129644D01*
X135701302Y-62429693D01*
X136200266Y-62636371D01*
X136729963Y-62741734D01*
X137270037Y-62741734D01*
X137799734Y-62636371D01*
X138298698Y-62429693D01*
X138747753Y-62129644D01*
X139129644Y-61747753D01*
X139429693Y-61298698D01*
X139636371Y-60799734D01*
X139741734Y-60270037D01*
X139741734Y-59729963D01*
X139636371Y-59200266D01*
X139429693Y-58701302D01*
X139129644Y-58252247D01*
X138747753Y-57870356D01*
X138298698Y-57570307D01*
X137799734Y-57363629D01*
X137270037Y-57258266D01*
X136729963Y-57258266D01*
X136200266Y-57363629D01*
X135701302Y-57570307D01*
X135252247Y-57870356D01*
X134870356Y-58252247D01*
X134570307Y-58701302D01*
X134363629Y-59200266D01*
X134258266Y-59729963D01*
X132762021Y-59729963D01*
X132805281Y-59245253D01*
X133005231Y-58514357D01*
X133331450Y-57830425D01*
X133773626Y-57215072D01*
X134317789Y-56687741D01*
X134946726Y-56265114D01*
X135640570Y-55960537D01*
X136377386Y-55783643D01*
X137133871Y-55740024D01*
X137886138Y-55831059D01*
%TA.AperFunction,Conductor*%
D17*
G36*
X137886138Y-55831059D02*
G01*
X138610388Y-56053867D01*
X139283738Y-56401409D01*
X139884901Y-56862699D01*
X140394872Y-57423149D01*
X140797540Y-58065057D01*
X141080170Y-58768122D01*
X141236190Y-59521513D01*
X141265000Y-60021169D01*
X141265001Y-61306272D01*
X141266298Y-61319440D01*
X141278413Y-61656049D01*
X141278863Y-61659632D01*
X141278707Y-61663242D01*
X141287438Y-61747410D01*
X141429908Y-62624862D01*
X141435629Y-62647269D01*
X141438736Y-62670183D01*
X141462234Y-62751474D01*
X141757835Y-63589830D01*
X141767433Y-63610870D01*
X141774549Y-63632871D01*
X141812059Y-63708691D01*
X141812071Y-63708717D01*
X141812077Y-63708725D01*
X142251461Y-64481476D01*
X142264630Y-64500478D01*
X142275533Y-64520879D01*
X142325894Y-64588881D01*
X142895182Y-65271616D01*
X142911512Y-65287990D01*
X142925851Y-65306132D01*
X142987458Y-65364142D01*
X143668651Y-65935276D01*
X143687625Y-65948502D01*
X143704950Y-65963817D01*
X143775855Y-66010000D01*
X144547423Y-66451478D01*
X144568436Y-66461133D01*
X144588200Y-66473139D01*
X144666163Y-66506036D01*
X145503715Y-66803905D01*
X145508021Y-66805017D01*
X145525587Y-66811299D01*
X145542755Y-66816572D01*
X147746053Y-67464098D01*
X149878711Y-68247813D01*
X151954729Y-69171140D01*
X153965017Y-70230036D01*
X155900673Y-71419812D01*
X157753239Y-72735268D01*
X159514561Y-74170616D01*
X161176886Y-75719540D01*
X162732884Y-77375207D01*
X164175738Y-79130360D01*
X165499106Y-80977290D01*
X166697162Y-82907865D01*
X167764630Y-84913581D01*
X168696830Y-86985643D01*
X169489658Y-89114933D01*
X170139624Y-91292080D01*
X170643873Y-93507517D01*
X171000188Y-95751501D01*
X171207004Y-98014175D01*
X171263407Y-100285560D01*
X171169153Y-102555700D01*
X170924654Y-104814605D01*
X170530986Y-107052337D01*
X169989882Y-109259064D01*
X169303718Y-111425077D01*
X168475512Y-113540851D01*
X167508906Y-115597090D01*
X166408155Y-117584736D01*
X165178083Y-119495080D01*
X163824120Y-121319689D01*
X162352204Y-123050560D01*
X160768823Y-124680064D01*
X159080926Y-126201055D01*
X157295931Y-127606843D01*
X155421695Y-128891239D01*
X153466456Y-130048599D01*
X151438820Y-131073832D01*
X149347702Y-131962428D01*
X147202263Y-132710493D01*
X145011999Y-133314718D01*
X142786467Y-133772464D01*
X140535523Y-134081705D01*
X138269022Y-134241089D01*
X135996953Y-134249911D01*
X133729262Y-134108134D01*
X131475992Y-133816385D01*
X129246983Y-133375938D01*
X127052076Y-132788738D01*
X124900917Y-132057366D01*
X122802939Y-131185029D01*
X120767401Y-130175574D01*
X118803237Y-129033435D01*
X116919085Y-127763634D01*
X115123223Y-126371749D01*
X113423564Y-124863914D01*
X111827572Y-123246751D01*
X110342263Y-121527368D01*
X108974171Y-119713331D01*
X107729304Y-117812605D01*
X106613144Y-115833557D01*
X105630601Y-113784897D01*
X104785986Y-111675609D01*
X104083026Y-109515005D01*
X103524797Y-107312547D01*
X103113763Y-105077935D01*
X103051083Y-104538072D01*
X103470000Y-104538072D01*
X103594482Y-104525812D01*
X103714180Y-104489502D01*
X103824494Y-104430537D01*
X103921185Y-104351185D01*
X104000537Y-104254494D01*
X104059502Y-104144180D01*
X104095812Y-104024482D01*
X104108072Y-103900000D01*
X104108072Y-102900000D01*
X104095812Y-102775518D01*
X104059502Y-102655820D01*
X104000537Y-102545506D01*
X103921185Y-102448815D01*
X103824494Y-102369463D01*
X103714180Y-102310498D01*
X103594482Y-102274188D01*
X103470000Y-102261928D01*
X102824164Y-102261928D01*
X102769006Y-101143137D01*
X103085000Y-101143137D01*
X103085000Y-101356863D01*
X103126696Y-101566483D01*
X103208485Y-101763940D01*
X103327225Y-101941647D01*
X103478353Y-102092775D01*
X103656060Y-102211515D01*
X103853517Y-102293304D01*
X104063137Y-102335000D01*
X104276863Y-102335000D01*
X104486483Y-102293304D01*
X104541928Y-102270338D01*
X104541928Y-102350000D01*
X104542928Y-102360151D01*
X104525506Y-102369463D01*
X104428815Y-102448815D01*
X104349463Y-102545506D01*
X104290498Y-102655820D01*
X104254188Y-102775518D01*
X104241928Y-102900000D01*
X104241928Y-103900000D01*
X104254188Y-104024482D01*
X104290498Y-104144180D01*
X104349463Y-104254494D01*
X104428815Y-104351185D01*
X104525506Y-104430537D01*
X104635820Y-104489502D01*
X104755518Y-104525812D01*
X104880000Y-104538072D01*
X105680000Y-104538072D01*
X105804482Y-104525812D01*
X105924180Y-104489502D01*
X106034494Y-104430537D01*
X106131185Y-104351185D01*
X106210537Y-104254494D01*
X106269502Y-104144180D01*
X106305812Y-104024482D01*
X106318072Y-103900000D01*
X106318072Y-103016000D01*
X108829160Y-103016000D01*
X110746292Y-104933133D01*
X110778104Y-104971896D01*
X110932810Y-105098860D01*
X111109313Y-105193202D01*
X111300829Y-105251298D01*
X111326415Y-105253818D01*
X111500000Y-105270915D01*
X111549902Y-105266000D01*
X131700098Y-105266000D01*
X131750000Y-105270915D01*
X131799902Y-105266000D01*
X132450098Y-105266000D01*
X132500000Y-105270915D01*
X132549902Y-105266000D01*
X133200105Y-105266000D01*
X133249999Y-105270914D01*
X133299893Y-105266000D01*
X144329160Y-105266000D01*
X150484001Y-111420842D01*
X150484000Y-118079159D01*
X143329160Y-125234000D01*
X136799902Y-125234000D01*
X136750000Y-125229085D01*
X136700098Y-125234000D01*
X136550829Y-125248702D01*
X136359313Y-125306798D01*
X136182810Y-125401140D01*
X136028104Y-125528104D01*
X135996293Y-125566866D01*
X134816868Y-126746292D01*
X134778105Y-126778104D01*
X134651141Y-126932810D01*
X134574560Y-127076085D01*
X134556799Y-127109313D01*
X134498702Y-127300830D01*
X134479085Y-127500000D01*
X134484001Y-127549911D01*
X134484000Y-128700098D01*
X134479085Y-128750000D01*
X134490019Y-128861016D01*
X134498702Y-128949170D01*
X134556798Y-129140686D01*
X134651140Y-129317190D01*
X134778104Y-129471896D01*
X134816872Y-129503712D01*
X135996292Y-130683133D01*
X136028104Y-130721896D01*
X136182810Y-130848860D01*
X136359313Y-130943202D01*
X136550829Y-131001298D01*
X136683468Y-131014362D01*
X136750000Y-131020915D01*
X136799902Y-131016000D01*
X137842026Y-131016000D01*
X137904284Y-131049278D01*
X138061500Y-131096969D01*
X138225000Y-131113072D01*
X138625000Y-131113072D01*
X138788500Y-131096969D01*
X138945716Y-131049278D01*
X139090608Y-130971831D01*
X139217606Y-130867606D01*
X139250000Y-130828134D01*
X139282394Y-130867606D01*
X139409392Y-130971831D01*
X139554284Y-131049278D01*
X139711500Y-131096969D01*
X139875000Y-131113072D01*
X140275000Y-131113072D01*
X140438500Y-131096969D01*
X140595716Y-131049278D01*
X140657974Y-131016000D01*
X140802541Y-131016000D01*
X140898061Y-131035000D01*
X141101939Y-131035000D01*
X141301898Y-130995226D01*
X141490256Y-130917205D01*
X141659774Y-130803937D01*
X141803937Y-130659774D01*
X141917205Y-130490256D01*
X141995226Y-130301898D01*
X142035000Y-130101939D01*
X142035000Y-129898061D01*
X141995226Y-129698102D01*
X141917205Y-129509744D01*
X141803937Y-129340226D01*
X141659774Y-129196063D01*
X141490256Y-129082795D01*
X141301898Y-129004774D01*
X141101939Y-128965000D01*
X140898061Y-128965000D01*
X140802541Y-128984000D01*
X140657974Y-128984000D01*
X140595716Y-128950722D01*
X140438500Y-128903031D01*
X140275000Y-128886928D01*
X139875000Y-128886928D01*
X139711500Y-128903031D01*
X139554284Y-128950722D01*
X139409392Y-129028169D01*
X139282394Y-129132394D01*
X139250000Y-129171866D01*
X139217606Y-129132394D01*
X139090608Y-129028169D01*
X138945716Y-128950722D01*
X138788500Y-128903031D01*
X138625000Y-128886928D01*
X138225000Y-128886928D01*
X138061500Y-128903031D01*
X137904284Y-128950722D01*
X137842026Y-128984000D01*
X137170841Y-128984000D01*
X136516000Y-128329160D01*
X136516000Y-127920840D01*
X137170841Y-127266000D01*
X143700098Y-127266000D01*
X143750000Y-127270915D01*
X143799902Y-127266000D01*
X143949171Y-127251298D01*
X144140687Y-127193202D01*
X144317190Y-127098860D01*
X144471896Y-126971896D01*
X144503712Y-126933128D01*
X152183133Y-119253708D01*
X152221896Y-119221896D01*
X152348860Y-119067190D01*
X152443202Y-118890687D01*
X152501298Y-118699171D01*
X152504971Y-118661881D01*
X152520915Y-118500001D01*
X152516000Y-118450099D01*
X152516000Y-112016000D01*
X158342026Y-112016000D01*
X158404284Y-112049278D01*
X158561500Y-112096969D01*
X158725000Y-112113072D01*
X159125000Y-112113072D01*
X159288500Y-112096969D01*
X159445716Y-112049278D01*
X159590608Y-111971831D01*
X159717606Y-111867606D01*
X159750000Y-111828134D01*
X159782394Y-111867606D01*
X159909392Y-111971831D01*
X160054284Y-112049278D01*
X160211500Y-112096969D01*
X160375000Y-112113072D01*
X160775000Y-112113072D01*
X160938500Y-112096969D01*
X161095716Y-112049278D01*
X161157974Y-112016000D01*
X161302541Y-112016000D01*
X161398061Y-112035000D01*
X161601939Y-112035000D01*
X161801898Y-111995226D01*
X161990256Y-111917205D01*
X162159774Y-111803937D01*
X162303937Y-111659774D01*
X162417205Y-111490256D01*
X162495226Y-111301898D01*
X162535000Y-111101939D01*
X162535000Y-110898061D01*
X162495226Y-110698102D01*
X162417205Y-110509744D01*
X162303937Y-110340226D01*
X162159774Y-110196063D01*
X161990256Y-110082795D01*
X161801898Y-110004774D01*
X161601939Y-109965000D01*
X161398061Y-109965000D01*
X161302541Y-109984000D01*
X161157974Y-109984000D01*
X161095716Y-109950722D01*
X160938500Y-109903031D01*
X160775000Y-109886928D01*
X160375000Y-109886928D01*
X160211500Y-109903031D01*
X160054284Y-109950722D01*
X159909392Y-110028169D01*
X159782394Y-110132394D01*
X159750000Y-110171866D01*
X159717606Y-110132394D01*
X159590608Y-110028169D01*
X159445716Y-109950722D01*
X159288500Y-109903031D01*
X159125000Y-109886928D01*
X158725000Y-109886928D01*
X158561500Y-109903031D01*
X158404284Y-109950722D01*
X158342026Y-109984000D01*
X151920841Y-109984000D01*
X145503712Y-103566872D01*
X145471896Y-103528104D01*
X145317190Y-103401140D01*
X145140687Y-103306798D01*
X144949171Y-103248702D01*
X144799902Y-103234000D01*
X144750000Y-103229085D01*
X144700098Y-103234000D01*
X133670841Y-103234000D01*
X133516000Y-103079160D01*
X133516000Y-94920840D01*
X133670841Y-94766000D01*
X133842026Y-94766000D01*
X133904284Y-94799278D01*
X134061500Y-94846969D01*
X134225000Y-94863072D01*
X134625000Y-94863072D01*
X134788500Y-94846969D01*
X134945716Y-94799278D01*
X135090608Y-94721831D01*
X135217606Y-94617606D01*
X135250000Y-94578134D01*
X135282394Y-94617606D01*
X135409392Y-94721831D01*
X135554284Y-94799278D01*
X135711500Y-94846969D01*
X135875000Y-94863072D01*
X136275000Y-94863072D01*
X136438500Y-94846969D01*
X136595716Y-94799278D01*
X136657974Y-94766000D01*
X136802541Y-94766000D01*
X136898061Y-94785000D01*
X137101939Y-94785000D01*
X137301898Y-94745226D01*
X137490256Y-94667205D01*
X137659774Y-94553937D01*
X137803937Y-94409774D01*
X137917205Y-94240256D01*
X137995226Y-94051898D01*
X138035000Y-93851939D01*
X138035000Y-93648061D01*
X137995226Y-93448102D01*
X137917205Y-93259744D01*
X137803937Y-93090226D01*
X137659774Y-92946063D01*
X137490256Y-92832795D01*
X137301898Y-92754774D01*
X137101939Y-92715000D01*
X136898061Y-92715000D01*
X136802541Y-92734000D01*
X136657974Y-92734000D01*
X136595716Y-92700722D01*
X136438500Y-92653031D01*
X136275000Y-92636928D01*
X135875000Y-92636928D01*
X135711500Y-92653031D01*
X135554284Y-92700722D01*
X135409392Y-92778169D01*
X135282394Y-92882394D01*
X135250000Y-92921866D01*
X135217606Y-92882394D01*
X135090608Y-92778169D01*
X134945716Y-92700722D01*
X134788500Y-92653031D01*
X134625000Y-92636928D01*
X134225000Y-92636928D01*
X134061500Y-92653031D01*
X133904284Y-92700722D01*
X133842026Y-92734000D01*
X133299893Y-92734000D01*
X133249999Y-92729086D01*
X133200105Y-92734000D01*
X133200098Y-92734000D01*
X133050829Y-92748702D01*
X132859313Y-92806798D01*
X132682810Y-92901140D01*
X132528104Y-93028104D01*
X132496292Y-93066867D01*
X131816872Y-93746288D01*
X131778104Y-93778104D01*
X131651140Y-93932810D01*
X131556798Y-94109314D01*
X131501628Y-94291185D01*
X131498702Y-94300830D01*
X131479085Y-94500000D01*
X131484000Y-94549902D01*
X131484001Y-103079158D01*
X131329160Y-103234000D01*
X111920841Y-103234000D01*
X110952840Y-102266000D01*
X111092026Y-102266000D01*
X111154284Y-102299278D01*
X111311500Y-102346969D01*
X111475000Y-102363072D01*
X111875000Y-102363072D01*
X112038500Y-102346969D01*
X112195716Y-102299278D01*
X112340608Y-102221831D01*
X112467606Y-102117606D01*
X112500000Y-102078134D01*
X112532394Y-102117606D01*
X112659392Y-102221831D01*
X112804284Y-102299278D01*
X112961500Y-102346969D01*
X113125000Y-102363072D01*
X113525000Y-102363072D01*
X113688500Y-102346969D01*
X113845716Y-102299278D01*
X113907974Y-102266000D01*
X114052541Y-102266000D01*
X114148061Y-102285000D01*
X114351939Y-102285000D01*
X114551898Y-102245226D01*
X114740256Y-102167205D01*
X114909774Y-102053937D01*
X115053937Y-101909774D01*
X115167205Y-101740256D01*
X115245226Y-101551898D01*
X115285000Y-101351939D01*
X115285000Y-101148061D01*
X115245226Y-100948102D01*
X115167205Y-100759744D01*
X115053937Y-100590226D01*
X114909774Y-100446063D01*
X114740256Y-100332795D01*
X114551898Y-100254774D01*
X114351939Y-100215000D01*
X114148061Y-100215000D01*
X114052541Y-100234000D01*
X113907974Y-100234000D01*
X113845716Y-100200722D01*
X113688500Y-100153031D01*
X113525000Y-100136928D01*
X113125000Y-100136928D01*
X112961500Y-100153031D01*
X112804284Y-100200722D01*
X112659392Y-100278169D01*
X112532394Y-100382394D01*
X112500000Y-100421866D01*
X112467606Y-100382394D01*
X112340608Y-100278169D01*
X112195716Y-100200722D01*
X112038500Y-100153031D01*
X111875000Y-100136928D01*
X111475000Y-100136928D01*
X111311500Y-100153031D01*
X111154284Y-100200722D01*
X111092026Y-100234000D01*
X110049893Y-100234000D01*
X109999999Y-100229086D01*
X109950105Y-100234000D01*
X109950098Y-100234000D01*
X109800829Y-100248702D01*
X109609313Y-100306798D01*
X109432810Y-100401140D01*
X109278104Y-100528104D01*
X109246292Y-100566867D01*
X108829160Y-100984000D01*
X105880098Y-100984000D01*
X105730829Y-100998702D01*
X105687229Y-101011928D01*
X105228901Y-101011928D01*
X105213304Y-100933517D01*
X105131515Y-100736060D01*
X105012775Y-100558353D01*
X104861647Y-100407225D01*
X104683940Y-100288485D01*
X104486483Y-100206696D01*
X104276863Y-100165000D01*
X104063137Y-100165000D01*
X103853517Y-100206696D01*
X103656060Y-100288485D01*
X103478353Y-100407225D01*
X103327225Y-100558353D01*
X103208485Y-100736060D01*
X103126696Y-100933517D01*
X103085000Y-101143137D01*
X102769006Y-101143137D01*
X102739845Y-100551658D01*
X102778607Y-98279882D01*
X102790035Y-98143137D01*
X103085000Y-98143137D01*
X103085000Y-98356863D01*
X103126696Y-98566483D01*
X103208485Y-98763940D01*
X103327225Y-98941647D01*
X103478353Y-99092775D01*
X103656060Y-99211515D01*
X103853517Y-99293304D01*
X104063137Y-99335000D01*
X104276863Y-99335000D01*
X104486483Y-99293304D01*
X104541928Y-99270338D01*
X104541928Y-99350000D01*
X104554188Y-99474482D01*
X104590498Y-99594180D01*
X104649463Y-99704494D01*
X104728815Y-99801185D01*
X104825506Y-99880537D01*
X104935820Y-99939502D01*
X105055518Y-99975812D01*
X105180000Y-99988072D01*
X105687229Y-99988072D01*
X105730829Y-100001298D01*
X105880098Y-100016000D01*
X108450098Y-100016000D01*
X108500000Y-100020915D01*
X108549902Y-100016000D01*
X108699171Y-100001298D01*
X108890687Y-99943202D01*
X109067190Y-99848860D01*
X109221896Y-99721896D01*
X109253712Y-99683128D01*
X117170841Y-91766000D01*
X141829160Y-91766000D01*
X142484001Y-92420842D01*
X142484000Y-96829159D01*
X141329160Y-97984000D01*
X139538072Y-97984000D01*
X139538072Y-97250000D01*
X139525812Y-97125518D01*
X139489502Y-97005820D01*
X139430537Y-96895506D01*
X139351185Y-96798815D01*
X139254494Y-96719463D01*
X139144180Y-96660498D01*
X139024482Y-96624188D01*
X138900000Y-96611928D01*
X135100000Y-96611928D01*
X134975518Y-96624188D01*
X134855820Y-96660498D01*
X134745506Y-96719463D01*
X134648815Y-96798815D01*
X134569463Y-96895506D01*
X134510498Y-97005820D01*
X134474188Y-97125518D01*
X134461928Y-97250000D01*
X134461928Y-100750000D01*
X134474188Y-100874482D01*
X134510498Y-100994180D01*
X134569463Y-101104494D01*
X134648815Y-101201185D01*
X134745506Y-101280537D01*
X134855820Y-101339502D01*
X134975518Y-101375812D01*
X135100000Y-101388072D01*
X138900000Y-101388072D01*
X139024482Y-101375812D01*
X139144180Y-101339502D01*
X139254494Y-101280537D01*
X139351185Y-101201185D01*
X139430537Y-101104494D01*
X139489502Y-100994180D01*
X139525812Y-100874482D01*
X139538072Y-100750000D01*
X139538072Y-100016000D01*
X141700098Y-100016000D01*
X141750000Y-100020915D01*
X141799902Y-100016000D01*
X141949171Y-100001298D01*
X142140687Y-99943202D01*
X142317190Y-99848860D01*
X142471896Y-99721896D01*
X142503712Y-99683128D01*
X144183133Y-98003708D01*
X144221896Y-97971896D01*
X144348860Y-97817190D01*
X144443202Y-97640687D01*
X144501298Y-97449171D01*
X144516000Y-97299902D01*
X144516000Y-97299901D01*
X144520915Y-97250000D01*
X144516000Y-97200098D01*
X144516000Y-92049902D01*
X144520915Y-92000000D01*
X144501298Y-91800829D01*
X144478123Y-91724431D01*
X144443202Y-91609313D01*
X144348860Y-91432810D01*
X144221896Y-91278104D01*
X144183133Y-91246292D01*
X143003712Y-90066872D01*
X142971896Y-90028104D01*
X142817190Y-89901140D01*
X142640687Y-89806798D01*
X142449171Y-89748702D01*
X142299902Y-89734000D01*
X142250000Y-89729085D01*
X142200098Y-89734000D01*
X116799902Y-89734000D01*
X116750000Y-89729085D01*
X116550829Y-89748702D01*
X116359312Y-89806798D01*
X116306056Y-89835264D01*
X116182810Y-89901140D01*
X116028104Y-90028104D01*
X115996292Y-90066867D01*
X108079160Y-97984000D01*
X107302925Y-97984000D01*
X107305812Y-97974482D01*
X107318072Y-97850000D01*
X107318072Y-97150000D01*
X107305812Y-97025518D01*
X107269502Y-96905820D01*
X107210537Y-96795506D01*
X107131185Y-96698815D01*
X107034494Y-96619463D01*
X106924180Y-96560498D01*
X106804482Y-96524188D01*
X106680000Y-96511928D01*
X106318072Y-96511928D01*
X106318072Y-95600000D01*
X106305812Y-95475518D01*
X106269502Y-95355820D01*
X106210537Y-95245506D01*
X106131185Y-95148815D01*
X106034494Y-95069463D01*
X105924180Y-95010498D01*
X105804482Y-94974188D01*
X105680000Y-94961928D01*
X104880000Y-94961928D01*
X104755518Y-94974188D01*
X104635820Y-95010498D01*
X104525506Y-95069463D01*
X104428815Y-95148815D01*
X104349463Y-95245506D01*
X104290498Y-95355820D01*
X104254188Y-95475518D01*
X104241928Y-95600000D01*
X104241928Y-96600000D01*
X104254188Y-96724482D01*
X104290498Y-96844180D01*
X104349463Y-96954494D01*
X104428815Y-97051185D01*
X104525506Y-97130537D01*
X104542928Y-97139849D01*
X104541928Y-97150000D01*
X104541928Y-97229662D01*
X104486483Y-97206696D01*
X104276863Y-97165000D01*
X104063137Y-97165000D01*
X103853517Y-97206696D01*
X103656060Y-97288485D01*
X103478353Y-97407225D01*
X103327225Y-97558353D01*
X103208485Y-97736060D01*
X103126696Y-97933517D01*
X103085000Y-98143137D01*
X102790035Y-98143137D01*
X102865678Y-97238072D01*
X103470000Y-97238072D01*
X103594482Y-97225812D01*
X103714180Y-97189502D01*
X103824494Y-97130537D01*
X103921185Y-97051185D01*
X104000537Y-96954494D01*
X104059502Y-96844180D01*
X104095812Y-96724482D01*
X104108072Y-96600000D01*
X104108072Y-95600000D01*
X104095812Y-95475518D01*
X104059502Y-95355820D01*
X104000537Y-95245506D01*
X103921185Y-95148815D01*
X103824494Y-95069463D01*
X103714180Y-95010498D01*
X103594482Y-94974188D01*
X103470000Y-94961928D01*
X103126785Y-94961928D01*
X103306719Y-93768999D01*
X103793749Y-91549706D01*
X104426782Y-89367594D01*
X105203052Y-87232203D01*
X106119133Y-85152960D01*
X107170992Y-83139015D01*
X108354015Y-81199200D01*
X109663000Y-79342048D01*
X111092189Y-77575730D01*
X112635284Y-75908027D01*
X114285522Y-74346247D01*
X116035631Y-72897273D01*
X117877934Y-71567463D01*
X119804304Y-70362683D01*
X121806298Y-69288211D01*
X123875077Y-68348792D01*
X126001593Y-67548534D01*
X128186747Y-66887862D01*
X128436510Y-66822338D01*
X128452528Y-66817563D01*
X128459226Y-66815987D01*
X128804024Y-66713600D01*
X128807380Y-66712269D01*
X128810916Y-66711517D01*
X128890228Y-66682021D01*
X129704199Y-66324712D01*
X129724464Y-66313571D01*
X129745874Y-66304834D01*
X129818696Y-66261767D01*
X129818710Y-66261759D01*
X129818715Y-66261755D01*
X130556543Y-65765956D01*
X130574511Y-65751406D01*
X130594041Y-65739012D01*
X130658097Y-65683720D01*
X131296470Y-65065093D01*
X131311582Y-65047586D01*
X131328603Y-65031934D01*
X131381840Y-64966192D01*
X131381856Y-64966173D01*
X131381861Y-64966165D01*
X131900590Y-64244277D01*
X131912363Y-64224370D01*
X131926343Y-64205952D01*
X131967109Y-64131800D01*
X132349809Y-63329453D01*
X132357869Y-63307780D01*
X132368369Y-63287173D01*
X132395359Y-63206974D01*
X132629927Y-62349538D01*
X132634022Y-62326778D01*
X132640706Y-62304640D01*
X132653067Y-62220928D01*
X132731782Y-61338949D01*
X132735000Y-61306272D01*
X132735000Y-60032731D01*
X132762021Y-59729963D01*
X134258266Y-59729963D01*
X134258266Y-60270037D01*
X134363629Y-60799734D01*
X134570307Y-61298698D01*
X134870356Y-61747753D01*
X135252247Y-62129644D01*
X135701302Y-62429693D01*
X136200266Y-62636371D01*
X136729963Y-62741734D01*
X137270037Y-62741734D01*
X137799734Y-62636371D01*
X138298698Y-62429693D01*
X138747753Y-62129644D01*
X139129644Y-61747753D01*
X139429693Y-61298698D01*
X139636371Y-60799734D01*
X139741734Y-60270037D01*
X139741734Y-59729963D01*
X139636371Y-59200266D01*
X139429693Y-58701302D01*
X139129644Y-58252247D01*
X138747753Y-57870356D01*
X138298698Y-57570307D01*
X137799734Y-57363629D01*
X137270037Y-57258266D01*
X136729963Y-57258266D01*
X136200266Y-57363629D01*
X135701302Y-57570307D01*
X135252247Y-57870356D01*
X134870356Y-58252247D01*
X134570307Y-58701302D01*
X134363629Y-59200266D01*
X134258266Y-59729963D01*
X132762021Y-59729963D01*
X132805281Y-59245253D01*
X133005231Y-58514357D01*
X133331450Y-57830425D01*
X133773626Y-57215072D01*
X134317789Y-56687741D01*
X134946726Y-56265114D01*
X135640570Y-55960537D01*
X136377386Y-55783643D01*
X137133871Y-55740024D01*
X137886138Y-55831059D01*
G37*
%TD.AperFunction*%
%TD*%
M02*
